<svg width="227" height="215" viewBox="0 0 227 215" fill="none" xmlns="http://www.w3.org/2000/svg">
<circle cx="114.451" cy="114.891" r="81.2969" fill="#102E4A"/>
<path d="M128.166 116.513C128.691 115.988 128.691 115.137 128.166 114.612L119.615 106.061C119.09 105.536 118.239 105.536 117.714 106.061C117.19 106.585 117.19 107.436 117.714 107.961L125.316 115.562L117.714 123.164C117.19 123.689 117.19 124.539 117.714 125.064C118.239 125.589 119.09 125.589 119.615 125.064L128.166 116.513ZM92.2787 116.906H127.216V114.219H92.2787V116.906Z" fill="white"/>
<path d="M66.1641 202.75C65.6575 202.335 65.3371 201.827 65.2028 201.226C65.0597 200.62 65.1346 200.033 65.4274 199.463C65.8149 198.709 66.3843 198.238 67.1356 198.048C67.8782 197.853 68.7359 198.006 69.7087 198.506L73.1529 200.277L68.3887 209.545L64.997 207.801C64.068 207.324 63.4684 206.755 63.1981 206.095C62.9278 205.436 62.9774 204.746 63.3468 204.028C63.6532 203.432 64.0631 203.033 64.5766 202.832C65.0813 202.626 65.6105 202.599 66.1641 202.75ZM69.2805 204.868L67.2824 203.84C66.6952 203.539 66.1784 203.445 65.732 203.559C65.2768 203.668 64.9231 203.968 64.6708 204.459C64.4275 204.932 64.3894 205.384 64.5565 205.813C64.7236 206.242 65.1226 206.619 65.7536 206.944L67.6992 207.944L69.2805 204.868ZM69.4186 199.62C68.7876 199.296 68.2268 199.19 67.7364 199.304C67.2371 199.413 66.8524 199.73 66.582 200.256C66.3162 200.773 66.2887 201.269 66.4993 201.743C66.6967 202.221 67.1109 202.622 67.7419 202.947L69.7401 203.974L71.4431 200.661L69.4186 199.62Z" fill="#969696"/>
<path d="M52.8835 187.598L52.3924 192.625L53.5432 193.529L56.173 190.182L57.2307 191.013L50.7932 199.207L48.0965 197.089C47.1667 196.358 46.6458 195.586 46.5339 194.771C46.416 193.964 46.6461 193.193 47.2244 192.456C47.748 191.79 48.357 191.398 49.0516 191.279C49.7401 191.168 50.4765 191.34 51.2608 191.793L51.6863 186.657L52.8835 187.598ZM52.9405 194.296L51.3946 193.082C50.1935 192.138 49.179 192.194 48.3511 193.247C47.5232 194.301 47.7098 195.3 48.9109 196.244L50.4568 197.458L52.9405 194.296Z" fill="#969696"/>
<path d="M37.5259 175.823L40.4984 179.31L42.8978 178.411L43.8375 179.513L33.5505 183.213L32.5628 182.054L37.854 172.494L38.7937 173.596L37.5259 175.823ZM36.9765 176.796L34.2089 181.661L39.4504 179.698L36.9765 176.796Z" fill="#969696"/>
<path d="M27.3081 155.948L27.9517 157.129L23.3108 165.819L30.5403 161.88L31.1839 163.061L22.0334 168.047L21.3898 166.866L26.0438 158.169L18.8013 162.115L18.1577 160.934L27.3081 155.948Z" fill="#969696"/>
<path d="M15.0392 138.153C16.049 137.85 16.9923 137.788 17.8693 137.966C18.7368 138.148 19.4972 138.573 20.1507 139.241C20.7919 139.902 21.2785 140.785 21.6103 141.889L22.5633 145.06L12.5835 148.059L11.6305 144.889C11.2987 143.784 11.2179 142.78 11.3883 141.874C11.5464 140.963 11.942 140.19 12.575 139.558C13.1986 138.928 14.02 138.46 15.0392 138.153ZM20.4793 142.337C20.0879 141.035 19.4537 140.14 18.5766 139.652C17.6995 139.165 16.6522 139.104 15.4349 139.47C14.2175 139.836 13.3773 140.464 12.9143 141.354C12.439 142.238 12.3985 143.335 12.7927 144.647L13.3288 146.431L21.0154 144.121L20.4793 142.337Z" fill="#969696"/>
<path d="M7.44772 125.698L17.7875 124.401L17.9549 125.736L7.61513 127.033L7.44772 125.698Z" fill="#969696"/>
<path d="M17.2784 105.316L17.2214 106.66L8.7664 111.716L16.9922 112.065L16.9352 113.409L6.52375 112.967L6.58074 111.623L15.0505 106.568L6.80997 106.218L6.86697 104.874L17.2784 105.316Z" fill="#969696"/>
<path d="M9.81089 86.2615C10.1193 85.0894 10.6683 84.1843 11.4578 83.5463C12.2497 82.8988 13.1824 82.5685 14.2557 82.5554L13.8946 83.9277C13.222 84.0055 12.6259 84.2766 12.1063 84.741C11.5892 85.1959 11.2303 85.8046 11.0297 86.567C10.8491 87.2531 10.8494 87.9104 11.0305 88.5389C11.202 89.1648 11.5418 89.7128 12.0499 90.1827C12.5605 90.6432 13.216 90.9787 14.0165 91.1894C14.8361 91.405 15.5874 91.4346 16.2706 91.2781C16.9442 91.1191 17.5157 90.8059 17.9851 90.3384C18.4476 89.8589 18.7741 89.2571 18.9647 88.5328C19.1277 87.9134 19.1435 87.3112 19.0121 86.7264C18.8807 86.1416 18.6051 85.6207 18.1852 85.1638C17.7584 84.6948 17.2107 84.3367 16.5421 84.0895L15.5001 88.0491L14.5281 87.7933L15.8597 82.733L17.0605 83.049C17.8384 83.3454 18.4975 83.7837 19.0376 84.364C19.5778 84.9444 19.947 85.6325 20.1451 86.4285C20.3432 87.2245 20.3257 88.0656 20.0925 88.9518C19.8367 89.9239 19.3966 90.7251 18.7721 91.3556C18.1381 91.9836 17.38 92.4056 16.4978 92.6218C15.6085 92.826 14.6636 92.7964 13.6629 92.533C12.6623 92.2697 11.83 91.8316 11.1659 91.2187C10.4948 90.5938 10.0379 89.852 9.79511 88.9933C9.55234 88.1346 9.5576 87.224 9.81089 86.2615Z" fill="#969696"/>
<path d="M32.5547 55.7951L29.9689 59.5779L31.4658 61.6575L30.6483 62.8534L24.3812 53.8962L25.2404 52.6393L35.8534 55.2389L35.0359 56.4348L32.5547 55.7951ZM31.4715 55.5201L26.0513 54.1247L29.3194 58.6684L31.4715 55.5201Z" fill="#969696"/>
<path d="M49.0555 40.7239L48.0845 41.6547L38.4818 39.4544L44.1788 45.3982L43.2078 46.3289L35.997 38.8058L36.968 37.8751L46.5809 40.086L40.8737 34.1316L41.8447 33.2008L49.0555 40.7239Z" fill="#969696"/>
<path d="M63.0111 24.2188C63.5687 25.1137 63.8762 26.0077 63.9335 26.9008C63.9855 27.7856 63.7749 28.6309 63.3017 29.4367C62.8316 30.2288 62.1073 30.9298 61.1288 31.5395L58.3187 33.2905L52.8077 24.4461L55.6179 22.6951C56.5964 22.0854 57.5448 21.7441 58.463 21.6712C59.3844 21.5847 60.2334 21.764 61.0099 22.209C61.7812 22.6456 62.4483 23.3155 63.0111 24.2188ZM60.4 30.5655C61.5541 29.8463 62.2515 28.9996 62.492 28.0254C62.7325 27.0512 62.5167 26.0246 61.8444 24.9457C61.1722 23.8669 60.3458 23.2207 59.3653 23.0073C58.3879 22.7804 57.3179 23.0291 56.1554 23.7535L54.5747 24.7384L58.8193 31.5504L60.4 30.5655Z" fill="#969696"/>
<path d="M95.5057 7.2965L97.6107 17.3213L96.2943 17.5977L94.6146 9.59813L93.0974 18.269L91.9257 18.515L87.0406 11.2187L88.7142 19.1894L87.3979 19.4658L85.2929 9.44099L86.8696 9.1099L92.196 16.7818L93.9289 7.62759L95.5057 7.2965Z" fill="#969696"/>
<path d="M116.27 13.7033L111.689 13.6304L110.778 16.0255L109.33 16.0024L113.35 5.83653L114.872 5.86077L118.552 16.1493L117.104 16.1262L116.27 13.7033ZM115.903 12.6478L114.08 7.35603L112.09 12.5871L115.903 12.6478Z" fill="#969696"/>
<path d="M135.418 18.5868L133.669 13.8477L132.239 13.5356L131.331 17.6947L130.017 17.4078L132.24 7.22676L135.59 7.95816C136.745 8.21036 137.551 8.67871 138.007 9.36321C138.465 10.0381 138.594 10.8328 138.394 11.7474C138.213 12.5754 137.836 13.194 137.263 13.6034C136.691 14.0032 135.954 14.17 135.05 14.1039L136.906 18.9115L135.418 18.5868ZM132.447 12.5825L134.368 13.0018C135.86 13.3275 136.749 12.8358 137.035 11.5264C137.321 10.2171 136.718 9.39955 135.226 9.07379L133.305 8.65449L132.447 12.5825Z" fill="#969696"/>
<path d="M152.24 18.4562L154.535 25.1702L153.014 24.5164L150.942 18.3325L149.021 22.8002L147.786 22.269L151.901 12.6953L153.137 13.2265L151.228 17.6671L157.143 14.9485L158.65 15.5965L152.24 18.4562Z" fill="#969696"/>
<path d="M170.578 23.4248L168.599 26.3867L171.893 28.5876L171.318 29.4479L168.024 27.247L166.004 30.2703L169.666 32.7176L169.059 33.627L164.278 30.4324L170.068 21.768L174.848 24.9626L174.241 25.8721L170.578 23.4248Z" fill="#969696"/>
<path d="M189.632 37.4254L188.875 38.2151L186.751 36.1797L180.297 42.9131L179.326 41.9824L185.78 35.2489L183.657 33.2135L184.414 32.4239L189.632 37.4254Z" fill="#969696"/>
<path d="M198.388 47.5432L190.126 53.8939L189.306 52.8275L197.568 46.4767L198.388 47.5432Z" fill="#969696"/>
<path d="M200.222 70.0978L199.592 68.9098L204.326 60.2703L197.054 64.1318L196.423 62.9438L205.627 58.0563L206.258 59.2443L201.511 67.8907L208.795 64.0223L209.426 65.2103L200.222 70.0978Z" fill="#969696"/>
<path d="M216.305 82.7537C216.632 83.9208 216.616 84.9793 216.258 85.929C215.903 86.8883 215.266 87.6451 214.346 88.1995L213.964 86.8331C214.504 86.4257 214.881 85.8902 215.094 85.2267C215.31 84.5727 215.312 83.8661 215.099 83.107C214.908 82.4238 214.575 81.857 214.101 81.4066C213.636 80.9535 213.066 80.6528 212.39 80.5045C211.716 80.3658 210.981 80.4081 210.184 80.6314C209.368 80.8601 208.705 81.2148 208.195 81.6955C207.694 82.1734 207.36 82.7328 207.191 83.3736C207.035 84.0211 207.058 84.7055 207.26 85.4266C207.433 86.0434 207.724 86.5707 208.133 87.0087C208.543 87.4466 209.044 87.7564 209.637 87.9381C210.243 88.1266 210.896 88.1583 211.598 88.0333L210.493 84.0908L211.461 83.8195L212.873 88.858L211.678 89.193C210.857 89.331 210.066 89.2864 209.307 89.0592C208.547 88.832 207.881 88.4253 207.307 87.839C206.733 87.2527 206.323 86.5183 206.075 85.6359C205.804 84.668 205.778 83.7542 205.998 82.8945C206.227 82.032 206.667 81.2844 207.319 80.6515C207.983 80.0254 208.813 79.5728 209.809 79.2936C210.805 79.0143 211.745 78.971 212.628 79.1637C213.523 79.3631 214.292 79.7717 214.936 80.3895C215.58 81.0073 216.036 81.7954 216.305 82.7537Z" fill="#969696"/>
<path d="M212.104 120.541L212.42 115.969L210.077 114.933L210.177 113.488L220.115 118.043L220.01 119.561L209.54 122.69L209.64 121.244L212.104 120.541ZM213.178 120.23L218.559 118.691L213.441 116.425L213.178 120.23Z" fill="#969696"/>
<path d="M216.52 141.612C216.18 142.775 215.607 143.665 214.801 144.282C213.992 144.908 213.051 145.213 211.978 145.198L212.375 143.836C213.05 143.776 213.653 143.521 214.185 143.07C214.714 142.629 215.089 142.031 215.309 141.274C215.508 140.593 215.526 139.936 215.361 139.303C215.207 138.672 214.881 138.115 214.386 137.632C213.888 137.158 213.242 136.805 212.447 136.573C211.633 136.336 210.883 136.286 210.196 136.425C209.519 136.566 208.939 136.863 208.457 137.318C207.982 137.785 207.64 138.378 207.43 139.097C207.25 139.712 207.218 140.313 207.334 140.902C207.45 141.49 207.712 142.018 208.119 142.486C208.533 142.966 209.071 143.338 209.733 143.603L210.88 139.673L211.845 139.955L210.379 144.978L209.187 144.63C208.417 144.313 207.77 143.857 207.246 143.262C206.721 142.668 206.37 141.97 206.194 141.169C206.017 140.368 206.057 139.528 206.314 138.648C206.595 137.683 207.056 136.894 207.698 136.28C208.348 135.67 209.117 135.268 210.005 135.075C210.899 134.895 211.843 134.95 212.836 135.24C213.83 135.53 214.65 135.99 215.297 136.62C215.952 137.263 216.389 138.016 216.608 138.881C216.828 139.746 216.799 140.656 216.52 141.612Z" fill="#969696"/>
<path d="M208.206 159.845L205.051 158.19L203.211 161.698L202.295 161.218L204.135 157.71L200.915 156.021L198.869 159.922L197.9 159.414L200.571 154.322L209.799 159.161L207.129 164.254L206.16 163.746L208.206 159.845Z" fill="#969696"/>
<path d="M186.941 175.242L187.78 174.191L197.589 175.103L191.157 169.964L191.996 168.913L200.138 175.417L199.298 176.468L189.478 175.547L195.922 180.695L195.082 181.746L186.941 175.242Z" fill="#969696"/>
<path d="M181.807 194.954C180.82 195.755 179.807 196.172 178.767 196.204C177.733 196.243 176.752 195.942 175.824 195.299L176.926 194.404C177.567 194.772 178.244 194.927 178.958 194.868C179.678 194.817 180.371 194.521 181.036 193.981C181.564 193.552 181.933 193.037 182.143 192.435C182.351 191.847 182.382 191.213 182.236 190.532C182.088 189.866 181.753 189.211 181.231 188.568C180.716 187.933 180.147 187.475 179.525 187.193C178.895 186.917 178.268 186.817 177.644 186.892C177.018 186.981 176.441 187.24 175.913 187.668C175.247 188.209 174.812 188.822 174.608 189.508C174.41 190.202 174.425 190.901 174.653 191.604L173.551 192.498C173.113 191.458 173.016 190.432 173.261 189.421C173.513 188.417 174.132 187.515 175.119 186.714C175.877 186.099 176.686 185.728 177.547 185.6C178.414 185.48 179.263 185.596 180.096 185.949C180.926 186.316 181.664 186.897 182.31 187.692C182.962 188.496 183.382 189.342 183.57 190.23C183.75 191.124 183.689 191.98 183.387 192.796C183.092 193.62 182.565 194.339 181.807 194.954Z" fill="#969696"/>
<path d="M159.547 209.099L159.624 201.78L157.82 198.27L159.029 197.648L160.834 201.158L166.843 205.348L165.45 206.065L160.871 202.751L160.914 208.396L159.547 209.099Z" fill="#969696"/>
</svg>
