<svg width="229" height="229" viewBox="0 0 229 229" fill="none" xmlns="http://www.w3.org/2000/svg">
<circle cx="114.451" cy="113.891" r="81.2969" fill="#102E4A"/>
<path d="M131.517 98.4685C131.517 97.7264 130.915 97.1248 130.173 97.1248L118.079 97.1248C117.337 97.1248 116.736 97.7264 116.736 98.4685C116.736 99.2106 117.337 99.8123 118.079 99.8123L128.829 99.8123L128.829 110.562C128.829 111.304 129.431 111.906 130.173 111.906C130.915 111.906 131.517 111.304 131.517 110.562L131.517 98.4685ZM99.4981 131.044L131.123 99.4187L129.223 97.5183L97.5978 129.144L99.4981 131.044Z" fill="white"/>
<path d="M109.473 221.384C108.1 221.286 106.991 220.865 106.146 220.12C105.3 219.386 104.749 218.422 104.492 217.227L106.024 217.336C106.258 218.102 106.679 218.725 107.286 219.207C107.892 219.699 108.659 219.979 109.584 220.045C110.318 220.097 110.991 219.963 111.602 219.643C112.202 219.333 112.695 218.855 113.084 218.209C113.461 217.573 113.681 216.808 113.745 215.915C113.808 215.031 113.698 214.248 113.415 213.565C113.122 212.881 112.701 212.338 112.152 211.935C111.592 211.542 110.945 211.319 110.211 211.267C109.285 211.201 108.488 211.363 107.818 211.754C107.148 212.155 106.643 212.718 106.302 213.442L104.77 213.333C105.194 212.187 105.877 211.305 106.82 210.688C107.761 210.082 108.918 209.827 110.291 209.925C111.344 210.001 112.258 210.306 113.032 210.843C113.806 211.39 114.391 212.111 114.787 213.005C115.171 213.91 115.324 214.915 115.245 216.022C115.165 217.139 114.871 218.118 114.362 218.958C113.842 219.798 113.161 220.428 112.318 220.849C111.474 221.281 110.526 221.459 109.473 221.384Z" fill="#8F8F8F"/>
<path d="M83.015 204.869L84.3118 210.182L85.8108 210.694L87.3 206.333L88.6779 206.803L85.0323 217.478L81.5195 216.278C80.3082 215.865 79.4997 215.262 79.094 214.469C78.6848 213.687 78.644 212.817 78.9715 211.858C79.268 210.99 79.7498 210.371 80.4171 210.001C81.0809 209.642 81.8944 209.553 82.8578 209.736L81.4555 204.337L83.015 204.869ZM85.4695 211.693L83.4557 211.005C81.8911 210.471 80.8744 210.89 80.4055 212.263C79.9367 213.636 80.4846 214.589 82.0492 215.124L84.063 215.811L85.4695 211.693Z" fill="#8F8F8F"/>
<path d="M61.3438 206.156L63.3779 202.88L59.735 200.619L60.3258 199.667L63.9687 201.929L66.0449 198.585L61.9942 196.07L62.6188 195.064L67.9064 198.347L61.9562 207.93L56.6686 204.647L57.2932 203.641L61.3438 206.156Z" fill="#8F8F8F"/>
<path d="M44.0949 183.455L47.5859 186.979L50.1029 185.814L51.2065 186.928L40.4021 191.754L39.2422 190.583L44.1796 179.835L45.2832 180.949L44.0949 183.455ZM43.5807 184.55L40.9871 190.026L46.4861 187.483L43.5807 184.55Z" fill="#8F8F8F"/>
<path d="M21.6037 168.339L22.6153 167.724L24.2698 170.444L32.8958 165.198L33.6524 166.442L25.0263 171.688L26.6807 174.409L25.6691 175.024L21.6037 168.339Z" fill="#8F8F8F"/>
<path d="M14.0929 152.733L24.6229 148.689L25.1449 150.048L14.6149 154.093L14.0929 152.733Z" fill="#8F8F8F"/>
<path d="M9.46256 138.16L18.3983 133.122L8.28096 131.333L8.01081 129.773L19.8323 131.932L20.1461 133.745L9.73544 139.736L9.46256 138.16Z" fill="#8F8F8F"/>
<path d="M8.05349 111.146L11.9018 111.388L12.1717 107.109L13.2895 107.179L13.0196 111.459L16.9478 111.707L17.2479 106.948L18.4296 107.023L18.0378 113.234L6.78019 112.524L7.17194 106.313L8.3536 106.387L8.05349 111.146Z" fill="#8F8F8F"/>
<path d="M24.8763 72.2902L22.7727 76.782L24.7342 78.743L24.0691 80.163L15.8133 71.6853L16.5123 70.1929L28.3035 71.1214L27.6385 72.5414L24.8763 72.2902ZM23.6711 72.1851L17.6374 71.6385L21.9204 75.9234L23.6711 72.1851Z" fill="#8F8F8F"/>
<path d="M41.4217 51.4732L40.4884 52.5907L29.8944 51.3729L36.7347 57.0854L35.8014 58.203L27.1436 50.9725L28.0768 49.855L38.6832 51.0831L31.8305 45.3603L32.7638 44.2427L41.4217 51.4732Z" fill="#8F8F8F"/>
<path d="M57.7839 29.5337C58.4372 30.4696 58.8199 31.4187 58.9322 32.381C59.0384 33.3345 58.8585 34.2601 58.3924 35.1577C57.9289 36.0406 57.1855 36.8391 56.1621 37.5534L53.2232 39.6047L46.767 30.3551L49.7059 28.3038C50.7293 27.5895 51.7352 27.167 52.7237 27.0364C53.7149 26.891 54.6427 27.0368 55.5072 27.4741C56.3657 27.9025 57.1246 28.5891 57.7839 29.5337ZM55.3194 36.5417C56.5264 35.6992 57.2325 34.7446 57.4375 33.6779C57.6426 32.6112 57.3513 31.5137 56.5637 30.3854C55.7762 29.2571 54.8464 28.6052 53.7744 28.4299C52.7051 28.2397 51.5625 28.5689 50.3467 29.4175L48.6936 30.5714L53.6662 37.6956L55.3194 36.5417Z" fill="#8F8F8F"/>
<path d="M95.7892 14.1556C96.0194 15.2735 95.996 16.2966 95.7189 17.2249C95.4397 18.1428 94.9086 18.9219 94.1257 19.5624C93.3511 20.1902 92.3526 20.63 91.1303 20.8818L87.62 21.6048L85.3444 10.5567L88.8548 9.83367C90.0771 9.58191 91.1681 9.59134 92.1278 9.86198C93.0957 10.12 93.8904 10.6207 94.5118 11.3639C95.131 12.0967 95.5568 13.0273 95.7892 14.1556ZM90.7559 19.6193C92.1977 19.3224 93.2235 18.7245 93.8333 17.8256C94.4432 16.9268 94.6094 15.8035 94.3318 14.4558C94.0542 13.1081 93.4577 12.1419 92.5423 11.5572C91.6351 10.9599 90.4555 10.8108 89.0033 11.1099L87.0287 11.5166L88.7814 20.026L90.7559 19.6193Z" fill="#8F8F8F"/>
<path d="M114.54 8.00044L114.39 11.8535L118.675 12.021L118.631 13.1401L114.346 12.9726L114.192 16.9056L118.957 17.0918L118.911 18.2749L112.691 18.0319L113.132 6.76049L119.351 7.00355L119.305 8.18665L114.54 8.00044Z" fill="#8F8F8F"/>
<path d="M141.283 19.0294C141.143 19.5441 140.889 19.9891 140.522 20.3644C140.154 20.7398 139.68 20.9979 139.101 21.1386C138.521 21.2792 137.86 21.2488 137.119 21.0472C136.399 20.8512 135.79 20.5475 135.294 20.1362C134.811 19.7174 134.461 19.2353 134.245 18.6901C134.042 18.1373 133.994 17.5606 134.102 16.9599L135.6 17.3673C135.547 17.6845 135.567 18.0161 135.661 18.3622C135.768 18.7008 135.959 19.0127 136.235 19.2978C136.524 19.5755 136.906 19.7787 137.379 19.9075C137.997 20.0756 138.515 20.0397 138.934 19.7999C139.353 19.5602 139.633 19.183 139.773 18.6683C139.893 18.2258 139.873 17.8333 139.711 17.491C139.561 17.1515 139.336 16.8584 139.039 16.6116C138.744 16.3545 138.328 16.0535 137.792 15.7086C137.164 15.2946 136.666 14.9324 136.297 14.622C135.941 14.3042 135.669 13.9039 135.479 13.4213C135.3 12.9415 135.301 12.3722 135.48 11.7135C135.634 11.1474 135.903 10.6846 136.289 10.3252C136.684 9.96847 137.166 9.74036 137.735 9.64084C138.314 9.54412 138.948 9.58956 139.638 9.77717C140.708 10.0684 141.486 10.5618 141.971 11.2576C142.459 11.943 142.645 12.7011 142.53 13.532L141.017 13.1203C141.052 12.6657 140.934 12.2246 140.664 11.7973C140.393 11.3699 139.949 11.0722 139.331 10.9042C138.765 10.7502 138.272 10.7762 137.851 10.9823C137.433 11.1781 137.151 11.5436 137.005 12.0788C136.891 12.5008 136.905 12.875 137.048 13.2014C137.205 13.5203 137.426 13.8018 137.714 14.0458C138.004 14.2795 138.412 14.5674 138.938 14.9094C139.576 15.3263 140.078 15.695 140.444 16.0157C140.821 16.3392 141.101 16.7525 141.284 17.2557C141.471 17.7486 141.47 18.3398 141.283 19.0294Z" fill="#8F8F8F"/>
<path d="M160.882 17.6154L155.944 27.757L154.635 27.1196L159.573 16.978L160.882 17.6154Z" fill="#8F8F8F"/>
<path d="M178.006 27.8043C179.039 28.6129 179.704 29.5462 180 30.6043C180.304 31.6689 180.233 32.7375 179.787 33.8102L178.577 32.8635C178.788 32.1616 178.774 31.4528 178.534 30.7374C178.304 30.0285 177.852 29.4111 177.18 28.8851C176.575 28.4118 175.922 28.1306 175.22 28.0415C174.524 27.9439 173.833 28.0471 173.149 28.3509C172.472 28.6614 171.858 29.1694 171.306 29.875C170.74 30.5974 170.389 31.3316 170.252 32.0778C170.122 32.8155 170.189 33.5178 170.452 34.1847C170.731 34.8498 171.189 35.4322 171.828 35.9318C172.374 36.3591 172.966 36.6327 173.603 36.7525C174.241 36.8723 174.877 36.8213 175.511 36.5997C176.16 36.3762 176.75 35.985 177.283 35.4262L173.792 32.6947L174.463 31.8379L178.923 35.3287L178.095 36.3871C177.467 37.0336 176.749 37.501 175.941 37.7895C175.133 38.0781 174.29 38.1504 173.414 38.0064C172.538 37.8625 171.709 37.4849 170.928 36.8735C170.071 36.2029 169.463 35.4223 169.104 34.5315C168.751 33.6323 168.656 32.6979 168.819 31.7282C168.997 30.7568 169.431 29.83 170.121 28.948C170.812 28.066 171.604 27.4262 172.497 27.0285C173.406 26.6289 174.339 26.4924 175.297 26.6187C176.254 26.7451 177.157 27.1403 178.006 27.8043Z" fill="#8F8F8F"/>
<path d="M192.331 58.5139L191.469 57.3402L195.187 47.3456L188.003 52.6198L187.142 51.4461L196.234 44.7705L197.096 45.9442L193.365 55.9483L200.562 50.6646L201.423 51.8383L192.331 58.5139Z" fill="#8F8F8F"/>
<path d="M210.599 85.6614L206.188 86.7533L205.838 85.34L216.788 82.6294L217.649 86.1084C217.959 87.3613 217.896 88.3714 217.46 89.1387C217.034 89.9035 216.313 90.4115 215.299 90.6627C214.274 90.9164 213.392 90.7941 212.653 90.2957C211.925 89.7947 211.41 88.9385 211.111 87.7271L210.599 85.6614ZM212.26 87.3106C212.473 88.17 212.807 88.7412 213.261 89.0243C213.719 89.3177 214.278 89.3823 214.941 89.2183C215.624 89.0491 216.095 88.7294 216.352 88.2592C216.622 87.7967 216.651 87.1358 216.438 86.2764L215.957 84.335L211.78 85.3692L212.26 87.3106Z" fill="#8F8F8F"/>
<path d="M210.061 113.411L214.644 110.429L214.631 108.845L210.023 108.883L210.011 107.427L221.291 107.334L221.322 111.045C221.332 112.325 221.031 113.288 220.418 113.933C219.815 114.578 219.007 114.905 217.994 114.913C217.076 114.921 216.333 114.671 215.763 114.164C215.204 113.656 214.852 112.918 214.705 111.948L210.075 115.059L210.061 113.411ZM215.687 108.836L215.705 110.964C215.718 112.617 216.451 113.438 217.901 113.426C219.352 113.414 220.07 112.581 220.057 110.928L220.039 108.8L215.687 108.836Z" fill="#8F8F8F"/>
<path d="M218.861 137.876C218.603 138.889 218.134 139.738 217.453 140.423C216.769 141.119 215.939 141.59 214.963 141.836C213.997 142.085 212.976 142.073 211.901 141.799C210.826 141.525 209.919 141.046 209.179 140.363C208.45 139.681 207.952 138.872 207.685 137.934C207.415 137.007 207.409 136.037 207.667 135.024C207.925 134.011 208.397 133.151 209.083 132.446C209.767 131.75 210.592 131.278 211.558 131.029C212.534 130.782 213.56 130.796 214.635 131.07C215.71 131.344 216.612 131.821 217.341 132.503C218.081 133.186 218.584 133.997 218.851 134.935C219.116 135.883 219.119 136.863 218.861 137.876ZM217.543 137.54C217.736 136.786 217.732 136.064 217.534 135.375C217.343 134.699 216.965 134.107 216.401 133.6C215.844 133.106 215.132 132.749 214.264 132.527C213.406 132.309 212.609 132.282 211.874 132.447C211.135 132.622 210.516 132.959 210.014 133.459C209.52 133.971 209.177 134.605 208.985 135.36C208.795 136.104 208.801 136.815 209.002 137.494C209.201 138.183 209.579 138.775 210.135 139.269C210.699 139.776 211.411 140.139 212.268 140.357C213.137 140.578 213.935 140.6 214.662 140.422C215.398 140.258 216.013 139.919 216.507 139.406C217.008 138.907 217.354 138.285 217.543 137.54Z" fill="#8F8F8F"/>
<path d="M201.029 166.761C200.04 166.191 199.291 165.494 198.781 164.67C198.28 163.852 198.05 162.938 198.09 161.927C198.135 160.931 198.469 159.892 199.093 158.811L200.883 155.706L210.655 161.34L208.865 164.445C208.242 165.526 207.51 166.335 206.671 166.873C205.835 167.426 204.933 167.688 203.965 167.659C203.006 167.635 202.027 167.336 201.029 166.761ZM200.285 159.369C199.55 160.645 199.316 161.809 199.583 162.861C199.85 163.914 200.58 164.784 201.772 165.472C202.964 166.159 204.083 166.354 205.128 166.058C206.177 165.776 207.072 164.993 207.812 163.708L208.819 161.962L201.292 157.623L200.285 159.369Z" fill="#8F8F8F"/>
<path d="M193.957 185.87L189.149 181.107C188.361 180.326 187.605 179.922 186.881 179.896C186.164 179.876 185.502 180.174 184.893 180.787C184.293 181.393 184.013 182.055 184.054 182.771C184.095 183.487 184.506 184.232 185.286 185.006L190.094 189.769L189.069 190.803L184.262 186.04C183.17 184.959 182.619 183.871 182.606 182.778C182.593 181.699 183.038 180.705 183.938 179.796C184.832 178.894 185.822 178.441 186.908 178.436C187.994 178.446 189.083 178.992 190.174 180.073L194.981 184.836L193.957 185.87Z" fill="#8F8F8F"/>
<path d="M170.464 205.513C169.273 206.202 168.119 206.475 167.002 206.333C165.889 206.2 164.892 205.711 164.009 204.866L165.339 204.097C165.962 204.599 166.66 204.88 167.433 204.938C168.211 205.005 169.002 204.806 169.805 204.342C170.442 203.973 170.924 203.485 171.25 202.878C171.573 202.284 171.713 201.612 171.672 200.859C171.627 200.121 171.381 199.364 170.932 198.589C170.489 197.822 169.958 197.236 169.341 196.829C168.714 196.427 168.061 196.214 167.381 196.188C166.697 196.177 166.036 196.356 165.399 196.724C164.596 197.189 164.027 197.771 163.692 198.47C163.362 199.178 163.259 199.927 163.384 200.718L162.054 201.487C161.762 200.3 161.833 199.187 162.267 198.148C162.706 197.118 163.521 196.258 164.712 195.569C165.626 195.04 166.554 194.781 167.496 194.79C168.444 194.809 169.332 195.078 170.162 195.596C170.988 196.129 171.678 196.875 172.234 197.835C172.795 198.805 173.1 199.78 173.15 200.762C173.191 201.749 172.981 202.653 172.519 203.474C172.063 204.305 171.378 204.984 170.464 205.513Z" fill="#8F8F8F"/>
<path d="M141.504 217.789L141.183 216.65L144.248 215.787L141.513 206.068L142.914 205.674L145.65 215.392L148.715 214.529L149.036 215.669L141.504 217.789Z" fill="#8F8F8F"/>
<path d="M117.595 212.925C117.57 212.393 117.674 211.891 117.908 211.421C118.142 210.95 118.513 210.559 119.021 210.246C119.529 209.933 120.167 209.759 120.934 209.722C121.68 209.686 122.352 209.788 122.951 210.026C123.539 210.275 124.021 210.626 124.395 211.078C124.759 211.541 124.982 212.075 125.064 212.68L123.514 212.754C123.467 212.436 123.345 212.127 123.149 211.827C122.943 211.537 122.665 211.3 122.314 211.114C121.953 210.939 121.528 210.863 121.038 210.886C120.399 210.917 119.917 211.111 119.592 211.468C119.267 211.825 119.118 212.27 119.143 212.803C119.165 213.261 119.306 213.628 119.564 213.904C119.813 214.181 120.116 214.39 120.476 214.533C120.835 214.687 121.323 214.845 121.94 215.008C122.665 215.208 123.251 215.399 123.697 215.581C124.134 215.773 124.516 216.07 124.845 216.471C125.163 216.872 125.339 217.414 125.372 218.095C125.4 218.681 125.286 219.205 125.03 219.666C124.764 220.127 124.376 220.492 123.865 220.762C123.344 221.033 122.727 221.185 122.013 221.22C120.905 221.273 120.013 221.043 119.337 220.531C118.662 220.029 118.251 219.365 118.104 218.539L119.671 218.464C119.777 218.908 120.025 219.291 120.415 219.614C120.804 219.937 121.318 220.084 121.957 220.053C122.543 220.025 123.005 219.848 123.341 219.522C123.679 219.207 123.834 218.772 123.808 218.218C123.787 217.782 123.658 217.43 123.421 217.164C123.174 216.909 122.876 216.709 122.527 216.566C122.179 216.433 121.702 216.285 121.096 216.122C120.361 215.922 119.769 215.726 119.322 215.534C118.864 215.342 118.471 215.035 118.141 214.613C117.811 214.202 117.63 213.639 117.595 212.925Z" fill="#8F8F8F"/>
</svg>
