<svg width="32" height="33" viewBox="0 0 32 33" fill="none" xmlns="http://www.w3.org/2000/svg">
<path d="M23.7561 9.28711H25.1569M7.64612 2H24.4565C27.5512 2 30.0599 4.61004 30.0599 7.82968V25.3187C30.0599 28.5384 27.5512 31.1484 24.4565 31.1484H7.64612C4.55142 31.1484 2.04266 28.5384 2.04266 25.3187V7.82968C2.04266 4.61004 4.55142 2 7.64612 2ZM16.0513 22.4039C12.9566 22.4039 10.4478 19.7939 10.4478 16.5742C10.4478 13.3546 12.9566 10.7445 16.0513 10.7445C19.146 10.7445 21.6548 13.3546 21.6548 16.5742C21.6548 19.7939 19.146 22.4039 16.0513 22.4039Z" stroke="white" stroke-width="2.21006"/>
</svg>
