<svg width="151" height="40" viewBox="0 0 151 40" fill="none" xmlns="http://www.w3.org/2000/svg">
<path d="M4.04533 25.2487H10.212V27H1.80067V9.61H4.04533V25.2487ZM24.9526 19.4767C24.9526 19.9536 24.9198 20.3647 24.854 20.71H14.0253C14.0746 22.2558 14.5104 23.4151 15.3326 24.188C16.1713 24.9609 17.1909 25.3473 18.3913 25.3473C19.4766 25.3473 20.3811 25.076 21.1046 24.5333C21.8446 23.9742 22.2969 23.2342 22.4613 22.3133H24.854C24.6895 23.2507 24.3195 24.0893 23.744 24.8293C23.1849 25.5693 22.4531 26.1449 21.5486 26.556C20.6442 26.9671 19.6246 27.1727 18.49 27.1727C17.1909 27.1727 16.0398 26.8931 15.0366 26.334C14.0335 25.7749 13.2442 24.9773 12.6686 23.9413C12.1095 22.8889 11.83 21.6556 11.83 20.2413C11.83 18.8271 12.1095 17.5938 12.6686 16.5413C13.2442 15.4889 14.0335 14.6831 15.0366 14.124C16.0398 13.5649 17.1909 13.2853 18.49 13.2853C19.8055 13.2853 20.9484 13.5649 21.9186 14.124C22.9053 14.6831 23.6535 15.4313 24.1633 16.3687C24.6895 17.306 24.9526 18.342 24.9526 19.4767ZM22.6833 19.6247C22.7326 18.6216 22.5682 17.7829 22.19 17.1087C21.8118 16.4344 21.2938 15.9329 20.636 15.604C19.9782 15.2751 19.2629 15.1107 18.49 15.1107C17.2566 15.1107 16.2206 15.4971 15.382 16.27C14.5433 17.0264 14.0911 18.1447 14.0253 19.6247H22.6833ZM33.4386 13.2853C34.7541 13.2853 35.8641 13.6142 36.7686 14.272C37.6894 14.9298 38.3308 15.8096 38.6926 16.9113V13.458H40.9372V27H38.6926V23.5467C38.3308 24.6484 37.6894 25.5282 36.7686 26.186C35.8641 26.8438 34.7541 27.1727 33.4386 27.1727C32.2381 27.1727 31.1692 26.8931 30.2319 26.334C29.2946 25.7749 28.5546 24.9773 28.0119 23.9413C27.4857 22.8889 27.2226 21.6556 27.2226 20.2413C27.2226 18.8271 27.4857 17.5938 28.0119 16.5413C28.5546 15.4889 29.2946 14.6831 30.2319 14.124C31.1692 13.5649 32.2381 13.2853 33.4386 13.2853ZM34.0799 15.2833C32.6986 15.2833 31.5886 15.7273 30.7499 16.6153C29.9277 17.4869 29.5166 18.6956 29.5166 20.2413C29.5166 21.7871 29.9277 23.004 30.7499 23.892C31.5886 24.7636 32.6986 25.1993 34.0799 25.1993C34.9679 25.1993 35.7572 24.9938 36.4479 24.5827C37.155 24.1716 37.7059 23.596 38.1006 22.856C38.4952 22.0996 38.6926 21.228 38.6926 20.2413C38.6926 19.2547 38.4952 18.3831 38.1006 17.6267C37.7059 16.8702 37.155 16.2947 36.4479 15.9C35.7572 15.4889 34.9679 15.2833 34.0799 15.2833ZM46.7543 16.196C47.1983 15.2587 47.8479 14.5351 48.703 14.0253C49.5581 13.4991 50.5777 13.236 51.7617 13.236V15.678H51.071C49.8048 15.678 48.7688 16.0069 47.963 16.6647C47.1572 17.306 46.7543 18.3749 46.7543 19.8713V27H44.5097V13.458H46.7543V16.196ZM61.1051 13.236C62.6838 13.236 63.9582 13.7458 64.9284 14.7653C65.8987 15.7684 66.3838 17.2238 66.3838 19.1313V27H64.1391V19.3287C64.1391 17.9802 63.7938 16.9442 63.1031 16.2207C62.4124 15.4971 61.4751 15.1353 60.2911 15.1353C59.0578 15.1353 58.0711 15.5382 57.3311 16.344C56.5911 17.1333 56.2211 18.2927 56.2211 19.822V27H53.9764V13.458H56.2211V16.6647C56.5664 15.5629 57.1749 14.716 58.0464 14.124C58.9344 13.532 59.954 13.236 61.1051 13.236ZM93.3358 9.906V27H91.0911V13.3593L85.6398 27H83.6418L78.1658 13.4087V27H75.9211V9.906H78.6098L84.6778 24.262L90.6471 9.906H93.3358ZM103.068 13.2853C104.367 13.2853 105.527 13.5649 106.546 14.124C107.582 14.6831 108.388 15.4889 108.964 16.5413C109.556 17.5938 109.852 18.8271 109.852 20.2413C109.852 21.6556 109.556 22.8889 108.964 23.9413C108.388 24.9773 107.582 25.7749 106.546 26.334C105.527 26.8931 104.367 27.1727 103.068 27.1727C101.769 27.1727 100.602 26.8931 99.5656 26.334C98.5461 25.7749 97.7403 24.9773 97.1483 23.9413C96.5563 22.8889 96.2603 21.6556 96.2603 20.2413C96.2603 18.8271 96.5563 17.5938 97.1483 16.5413C97.7403 15.4889 98.5461 14.6831 99.5656 14.124C100.602 13.5649 101.769 13.2853 103.068 13.2853ZM103.068 15.2587C102.263 15.2587 101.514 15.4396 100.824 15.8013C100.149 16.1631 99.5985 16.7222 99.171 17.4787C98.7599 18.2187 98.5543 19.1396 98.5543 20.2413C98.5543 21.3267 98.7599 22.2476 99.171 23.004C99.5985 23.744 100.149 24.2949 100.824 24.6567C101.514 25.0184 102.263 25.1993 103.068 25.1993C103.874 25.1993 104.614 25.0184 105.288 24.6567C105.979 24.2949 106.53 23.744 106.941 23.004C107.369 22.2476 107.582 21.3267 107.582 20.2413C107.582 19.1396 107.369 18.2187 106.941 17.4787C106.53 16.7222 105.979 16.1631 105.288 15.8013C104.614 15.4396 103.874 15.2587 103.068 15.2587ZM115.021 16.196C115.465 15.2587 116.115 14.5351 116.97 14.0253C117.825 13.4991 118.845 13.236 120.029 13.236V15.678H119.338C118.072 15.678 117.036 16.0069 116.23 16.6647C115.424 17.306 115.021 18.3749 115.021 19.8713V27H112.777V13.458H115.021V16.196ZM134.7 19.4767C134.7 19.9536 134.667 20.3647 134.601 20.71H123.773C123.822 22.2558 124.258 23.4151 125.08 24.188C125.919 24.9609 126.938 25.3473 128.139 25.3473C129.224 25.3473 130.128 25.076 130.852 24.5333C131.592 23.9742 132.044 23.2342 132.209 22.3133H134.601C134.437 23.2507 134.067 24.0893 133.491 24.8293C132.932 25.5693 132.2 26.1449 131.296 26.556C130.392 26.9671 129.372 27.1727 128.237 27.1727C126.938 27.1727 125.787 26.8931 124.784 26.334C123.781 25.7749 122.992 24.9773 122.416 23.9413C121.857 22.8889 121.577 21.6556 121.577 20.2413C121.577 18.8271 121.857 17.5938 122.416 16.5413C122.992 15.4889 123.781 14.6831 124.784 14.124C125.787 13.5649 126.938 13.2853 128.237 13.2853C129.553 13.2853 130.696 13.5649 131.666 14.124C132.653 14.6831 133.401 15.4313 133.911 16.3687C134.437 17.306 134.7 18.342 134.7 19.4767ZM132.431 19.6247C132.48 18.6216 132.316 17.7829 131.937 17.1087C131.559 16.4344 131.041 15.9329 130.383 15.604C129.726 15.2751 129.01 15.1107 128.237 15.1107C127.004 15.1107 125.968 15.4971 125.129 16.27C124.291 17.0264 123.838 18.1447 123.773 19.6247H132.431Z" fill="black"/>
<path d="M150.087 34.4616C150.388 34.1605 150.388 33.6725 150.087 33.3714L145.181 28.4659C144.88 28.1649 144.392 28.1649 144.091 28.4659C143.79 28.7669 143.79 29.255 144.091 29.556L148.452 33.9165L144.091 38.277C143.79 38.578 143.79 39.0661 144.091 39.3671C144.392 39.6681 144.88 39.6681 145.181 39.3671L150.087 34.4616ZM0.770874 34.6873H149.542V33.1457H0.770874V34.6873Z" fill="black"/>
</svg>
