<svg width="30" height="29" viewBox="0 0 30 29" fill="none" xmlns="http://www.w3.org/2000/svg">
<path d="M11.75 20.7433L22.15 20.7433M22.15 8.24777L16.95 8.24777C14.4371 8.24777 12.4 10.2058 12.4 12.6212C12.4 15.0366 14.4371 16.9946 16.95 16.9946L22.15 16.9946L11.75 16.9946M8.49999 21.3681L8.49999 20.1185M2 25.7415L2 3.24957C2 2.55946 2.58203 2.00002 3.3 2.00002L26.7 2.00002C27.4179 2.00002 28 2.55946 28 3.24957L28 25.7415C28 26.4316 27.4179 26.991 26.7 26.991L3.3 26.991C2.58203 26.991 2 26.4316 2 25.7415Z" stroke="#102E4A" stroke-width="2.21006"/>
</svg>
