<svg width="651" height="589" viewBox="0 0 651 589" fill="none" xmlns="http://www.w3.org/2000/svg">
<circle cx="294.5" cy="294.5" r="294.5" fill="url(#paint0_linear_475_8)"/>
<path d="M574.898 490.562L564.006 490.561L558.825 448.609L574.899 448.61L574.898 490.562Z" fill="#FFB8B8"/>
<path d="M577.675 501.105L542.558 501.103V500.66C542.558 497.039 543.998 493.568 546.561 491.008C549.125 488.448 552.601 487.01 556.226 487.01H556.227L577.676 487.01L577.675 501.105Z" fill="#2F2E41"/>
<path d="M622.966 463.822L615.897 472.096L580.577 448.8L591.011 436.59L622.966 463.822Z" fill="#FFB8B8"/>
<path d="M632.8 468.555L610.005 495.233L609.667 494.945C606.909 492.595 605.2 489.247 604.914 485.639C604.627 482.03 605.789 478.455 608.141 475.701L608.142 475.7L622.065 459.406L632.8 468.555Z" fill="#2F2E41"/>
<path d="M497.566 284.247L494.176 315.471L631.224 313.519L571.456 216.265L522.657 214.514L497.566 284.247Z" fill="#2F2E41"/>
<path opacity="0.28" d="M497.566 284.247L494.176 315.471L631.224 313.519L571.456 216.265L522.657 214.514L497.566 284.247Z" fill="black"/>
<path d="M524.515 289.607L519.677 318.177V343.714L558.686 356.431C558.686 356.431 554.119 455.622 560.208 461.94L560.058 477.191L577.076 477.964L577.215 467.231L584.43 387.002L588.679 328.099L581.789 283.441L524.515 289.607Z" fill="#2F2E41"/>
<path d="M554.737 314.2L519.677 343.714C519.677 343.714 517.625 396.964 522.836 403.209C527.311 408.572 585.521 454.836 585.521 454.836C585.521 454.836 595.867 464.313 601.664 464.464C607.462 464.615 614.205 452.471 614.205 452.471L600.778 442.283C600.778 442.283 565.993 409.857 555.665 396.964C551.496 391.76 551.496 391.239 551.496 391.239L552.92 369.599L567.249 329.436L554.737 314.2Z" fill="#2F2E41"/>
<path d="M517.514 172.828L502.398 171.433L488.686 173.715L459.652 173.724L457.178 194.739L483.674 200.66L490.131 197.5L517.046 207.741L517.514 172.828Z" fill="#2F2E41"/>
<path d="M535.568 172.762C535.568 172.762 567.65 169.76 574.945 175.485C582.24 181.209 597.873 294.655 597.873 294.655L535.568 298.166L524.399 290.492L527.569 233.855L535.568 172.762Z" fill="#CCCCCC"/>
<path d="M545.361 172.055L509.973 172.831L476.979 321.715L503.034 327.44L545.361 172.055Z" fill="#2F2E41"/>
<path d="M570.518 170.797L598.394 179.51L596.811 240.682L631.224 313.817L590.768 318.073L558.791 239.1L570.518 170.797Z" fill="#2F2E41"/>
<path d="M616.485 321.246C617.463 320.387 618.239 319.324 618.761 318.133C619.282 316.941 619.536 315.65 619.504 314.35C619.472 313.051 619.154 311.774 618.575 310.609C617.995 309.445 617.166 308.422 616.148 307.612L621.756 288.075L610.698 281.776L603.167 309.477C601.918 311.276 601.373 313.47 601.636 315.644C601.898 317.817 602.95 319.819 604.592 321.269C606.233 322.72 608.351 323.519 610.543 323.515C612.735 323.51 614.849 322.703 616.485 321.246Z" fill="#FFB8B8"/>
<path d="M582.24 181.209L598.735 179.78C598.735 179.78 613.543 195.247 616.911 207.222C620.28 219.198 623.928 256.666 623.928 256.666L622.406 311.478L603.126 298.403L601.833 251.257L582.24 181.209Z" fill="#2F2E41"/>
<path d="M578.261 153.659C584.455 142.343 580.291 128.156 568.96 121.97C557.63 115.785 543.423 119.943 537.229 131.259C531.035 142.574 535.2 156.762 546.53 162.947C557.861 169.133 572.067 164.974 578.261 153.659Z" fill="#FFB8B8"/>
<path d="M555.139 132.711C552.071 132.003 548.886 132.787 545.779 133.296C542.672 133.804 539.248 133.972 536.62 132.241C534.679 130.962 533.485 128.847 532.365 126.812C531.897 126.086 531.585 125.27 531.449 124.417C531.318 122.912 532.276 121.539 533.294 120.422C538.022 115.232 544.931 112.391 551.898 111.489C557.644 110.634 563.515 111.35 568.886 113.561C574.175 115.877 578.722 120.12 580.801 125.501C581.759 128.255 582.357 131.12 582.581 134.027C582.895 136.166 582.935 138.336 582.7 140.485C582.42 142.077 582.001 143.643 581.447 145.163L578.003 155.55C577.755 156.531 577.293 157.446 576.648 158.227C576.317 158.61 575.871 158.875 575.376 158.984C574.882 159.092 574.365 159.037 573.904 158.828C574.18 157.699 574.222 156.527 574.028 155.382C573.92 154.811 573.644 154.286 573.234 153.874C572.825 153.461 572.301 153.181 571.731 153.068C570.461 152.934 569.376 153.917 568.172 154.34C567.621 154.503 567.043 154.556 566.471 154.496C565.899 154.436 565.345 154.265 564.84 153.991C564.334 153.717 563.888 153.346 563.526 152.9C563.164 152.454 562.894 151.941 562.731 151.391C562.698 151.28 562.669 151.168 562.645 151.054C562.455 149.867 562.774 148.596 562.323 147.48C561.795 146.174 560.395 145.489 559.343 144.55C558.383 143.666 557.696 142.526 557.363 141.264C557.029 140.003 557.063 138.673 557.461 137.43C557.742 136.566 558.538 136.173 558.379 135.18C558.17 133.877 556.246 132.966 555.139 132.711Z" fill="#2F2E41"/>
<path d="M306.357 265.985H11.1664V81.571H306.357V265.985Z" fill="white"/>
<path d="M306.357 265.985H11.1664V81.571H306.357V265.985ZM12.5143 264.639H305.009V82.9171H12.5143V264.639Z" fill="#3F3D56"/>
<path d="M259.134 486.835H90.6464V302.421H259.134V486.835Z" fill="white"/>
<path d="M259.134 486.835H90.6464V302.421H259.134V486.835ZM91.9943 485.489H257.786V303.767H91.9943V485.489Z" fill="#3F3D56"/>
<path d="M236.22 469.417H201.174V470.836H236.22V469.417Z" fill="#3F3D56"/>
<path d="M236.22 473.674H201.174V475.093H236.22V473.674Z" fill="#3F3D56"/>
<path d="M236.22 477.93H201.174V479.349H236.22V477.93Z" fill="#3F3D56"/>
<path d="M174.89 335.4V350.207C183.688 350.207 192.287 352.812 199.602 357.693C206.917 362.574 212.618 369.512 215.985 377.628C219.352 385.745 220.232 394.677 218.516 403.294C216.8 411.91 212.564 419.826 206.343 426.038L216.827 436.508C225.121 428.225 230.77 417.671 233.058 406.182C235.347 394.693 234.172 382.784 229.683 371.962C225.194 361.14 217.593 351.889 207.84 345.381C198.087 338.873 186.62 335.4 174.89 335.4Z" fill="#E6E6E6"/>
<path d="M216.827 436.508L206.343 426.038C198.738 433.634 188.634 438.22 177.903 438.947C167.172 439.674 156.541 436.491 147.979 429.99L139.005 441.782C150.422 450.448 164.598 454.689 178.906 453.72C193.214 452.75 206.686 446.635 216.827 436.508Z" fill="#575A89"/>
<path d="M130.409 394.628C130.409 388.794 131.56 383.018 133.795 377.628C136.031 372.239 139.307 367.342 143.438 363.217C147.568 359.092 152.471 355.82 157.868 353.588C163.265 351.356 169.049 350.207 174.89 350.207V335.4C162.475 335.4 150.372 339.29 140.289 346.524C130.206 353.758 122.649 363.969 118.686 375.719C114.722 387.469 114.551 400.165 118.197 412.017C121.842 423.869 129.12 434.28 139.005 441.782L147.979 429.99C142.515 425.851 138.085 420.504 135.036 414.369C131.988 408.234 130.405 401.477 130.409 394.628Z" fill="#102E4A"/>
<path d="M508.496 372.417H340.008V188.003H508.496V372.417Z" fill="white"/>
<path d="M508.496 372.417H340.008V188.003H508.496V372.417ZM341.356 371.071H507.148V189.349H341.356V371.071Z" fill="#3F3D56"/>
<path d="M394.598 300.738H364.27V349.197H394.598V300.738Z" fill="#575A89"/>
<path d="M438.405 267.759H408.077V349.197H438.405V267.759Z" fill="#E6E6E6"/>
<path d="M482.212 229.395H451.884V349.197H482.212V229.395Z" fill="#102E4A"/>
<path d="M492.321 350.544H356.183V209.877H357.531V349.197H492.321V350.544Z" fill="#3F3D56"/>
<path d="M459.498 192.912C464.625 192.912 468.781 188.762 468.781 183.643C468.781 178.523 464.625 174.373 459.498 174.373C454.372 174.373 450.216 178.523 450.216 183.643C450.216 188.762 454.372 192.912 459.498 192.912Z" fill="#FFB8B8"/>
<path d="M650.226 502H505.575C505.37 502 505.173 501.919 505.028 501.774C504.883 501.629 504.802 501.432 504.802 501.228C504.802 501.023 504.883 500.826 505.028 500.681C505.173 500.536 505.37 500.455 505.575 500.455H650.226C650.432 500.455 650.628 500.536 650.773 500.681C650.918 500.826 651 501.023 651 501.228C651 501.432 650.918 501.629 650.773 501.774C650.628 501.919 650.432 502 650.226 502Z" fill="#CCCCCC"/>
<path d="M265.362 227.417H52.1612C51.9843 227.417 51.8146 227.347 51.6894 227.222C51.5643 227.097 51.494 226.928 51.494 226.751V124.701C51.494 124.525 51.5643 124.355 51.6894 124.23C51.8146 124.105 51.9843 124.035 52.1612 124.035C52.3382 124.035 52.5079 124.105 52.633 124.23C52.7582 124.355 52.8285 124.525 52.8285 124.701V226.085H265.362C265.45 226.084 265.537 226.101 265.618 226.135C265.699 226.168 265.773 226.217 265.835 226.279C265.897 226.341 265.947 226.414 265.98 226.495C266.014 226.576 266.031 226.663 266.031 226.751C266.031 226.839 266.014 226.925 265.98 227.006C265.947 227.087 265.897 227.161 265.835 227.223C265.773 227.285 265.699 227.334 265.618 227.367C265.537 227.4 265.45 227.418 265.362 227.417Z" fill="#3F3D56"/>
<path d="M97.7129 220.087H78.3215C77.7964 220.087 77.2929 219.878 76.9216 219.507C76.5503 219.137 76.3414 218.634 76.3408 218.11V191.414C76.3414 190.89 76.5503 190.387 76.9216 190.016C77.2929 189.646 77.7964 189.437 78.3215 189.437H97.7129C98.238 189.437 98.7414 189.646 99.1127 190.016C99.484 190.387 99.6929 190.89 99.6935 191.414V218.11C99.6929 218.634 99.484 219.137 99.1127 219.507C98.7414 219.878 98.238 220.087 97.7129 220.087Z" fill="#102E4A"/>
<path d="M133.076 220.088H113.684C113.159 220.087 112.656 219.878 112.284 219.508C111.913 219.137 111.704 218.634 111.704 218.11V166.094C111.704 165.57 111.913 165.067 112.284 164.696C112.656 164.326 113.159 164.117 113.684 164.116H133.076C133.601 164.117 134.104 164.326 134.475 164.696C134.847 165.067 135.056 165.57 135.056 166.094V218.11C135.056 218.634 134.847 219.137 134.475 219.508C134.104 219.878 133.601 220.087 133.076 220.088Z" fill="#102E4A"/>
<path d="M168.438 220.087H149.047C148.522 220.087 148.018 219.878 147.647 219.507C147.276 219.137 147.067 218.634 147.066 218.11V191.414C147.067 190.89 147.276 190.387 147.647 190.016C148.018 189.646 148.522 189.437 149.047 189.437H168.438C168.963 189.437 169.467 189.646 169.838 190.016C170.209 190.387 170.418 190.89 170.419 191.414V218.11C170.418 218.634 170.209 219.137 169.838 219.507C169.467 219.878 168.963 220.087 168.438 220.087Z" fill="#102E4A"/>
<path d="M203.801 220.088H184.409C183.896 220.099 183.4 219.906 183.029 219.552C182.657 219.198 182.442 218.712 182.429 218.199V156.01C182.442 155.497 182.657 155.011 183.029 154.657C183.4 154.303 183.896 154.111 184.409 154.122H203.801C204.314 154.111 204.811 154.303 205.182 154.657C205.553 155.011 205.769 155.497 205.782 156.01V218.199C205.769 218.712 205.553 219.198 205.182 219.552C204.811 219.906 204.314 220.099 203.801 220.088Z" fill="#102E4A"/>
<path d="M239.164 220.088H219.772C219.247 220.087 218.744 219.879 218.372 219.508C218.001 219.137 217.792 218.634 217.792 218.11V138.109C217.792 137.585 218.001 137.082 218.372 136.711C218.744 136.34 219.247 136.132 219.772 136.131H239.164C239.689 136.132 240.192 136.34 240.563 136.711C240.935 137.082 241.144 137.585 241.144 138.109V218.11C241.144 218.634 240.935 219.137 240.563 219.508C240.192 219.879 239.689 220.087 239.164 220.088Z" fill="#102E4A"/>
<path d="M88.0172 181.441C90.2282 181.441 92.0206 179.651 92.0206 177.443C92.0206 175.235 90.2282 173.445 88.0172 173.445C85.8063 173.445 84.0139 175.235 84.0139 177.443C84.0139 179.651 85.8063 181.441 88.0172 181.441Z" fill="#3F3D56"/>
<path d="M123.38 155.454C125.591 155.454 127.383 153.664 127.383 151.456C127.383 149.248 125.591 147.458 123.38 147.458C121.169 147.458 119.377 149.248 119.377 151.456C119.377 153.664 121.169 155.454 123.38 155.454Z" fill="#3F3D56"/>
<path d="M158.743 181.441C160.954 181.441 162.746 179.651 162.746 177.443C162.746 175.235 160.954 173.445 158.743 173.445C156.532 173.445 154.739 175.235 154.739 177.443C154.739 179.651 156.532 181.441 158.743 181.441Z" fill="#3F3D56"/>
<path d="M194.105 142.794C196.316 142.794 198.109 141.004 198.109 138.796C198.109 136.588 196.316 134.798 194.105 134.798C191.894 134.798 190.102 136.588 190.102 138.796C190.102 141.004 191.894 142.794 194.105 142.794Z" fill="#3F3D56"/>
<path d="M229.468 128.135C231.679 128.135 233.471 126.345 233.471 124.137C233.471 121.929 231.679 120.139 229.468 120.139C227.257 120.139 225.465 121.929 225.465 124.137C225.465 126.345 227.257 128.135 229.468 128.135Z" fill="#3F3D56"/>
<path d="M158.827 178.339L123.38 151.824L88.417 177.976L87.6172 176.91L123.38 150.159L158.658 176.547L193.715 138.235L193.856 138.178L229.218 123.949L229.717 125.185L194.495 139.358L158.827 178.339Z" fill="#3F3D56"/>
<defs>
<linearGradient id="paint0_linear_475_8" x1="294.5" y1="0" x2="294.5" y2="589" gradientUnits="userSpaceOnUse">
<stop stop-color="#01162A"/>
<stop offset="1" stop-color="#102E4A"/>
</linearGradient>
</defs>
</svg>
