<svg width="2057" height="1477" viewBox="0 0 2057 1477" fill="none" xmlns="http://www.w3.org/2000/svg">
<path d="M610.284 138.758L600.122 169H592.996L606.317 133.346H610.872L610.284 138.758ZM618.781 169L608.57 138.758L607.958 133.346H612.537L625.932 169H618.781ZM618.316 155.752V161.066H599.191V155.752H618.316ZM666.84 153.108H657.73L657.681 148.357H665.493C666.831 148.357 667.95 148.169 668.847 147.794C669.745 147.418 670.423 146.871 670.88 146.153C671.353 145.435 671.59 144.561 671.59 143.533C671.59 142.39 671.37 141.46 670.929 140.741C670.504 140.023 669.835 139.501 668.921 139.174C668.007 138.831 666.848 138.66 665.444 138.66H659.91V169H653.175V133.346H665.444C667.468 133.346 669.272 133.542 670.855 133.934C672.455 134.309 673.81 134.897 674.92 135.697C676.03 136.497 676.871 137.501 677.443 138.709C678.03 139.917 678.324 141.354 678.324 143.019C678.324 144.488 677.981 145.843 677.296 147.084C676.626 148.308 675.59 149.304 674.186 150.071C672.798 150.838 671.035 151.279 668.896 151.393L666.84 153.108ZM666.546 169H655.747L658.563 163.711H666.546C667.884 163.711 668.986 163.49 669.851 163.05C670.733 162.609 671.386 162.005 671.81 161.237C672.251 160.454 672.472 159.556 672.472 158.544C672.472 157.434 672.276 156.471 671.884 155.654C671.508 154.838 670.904 154.21 670.072 153.769C669.256 153.328 668.178 153.108 666.84 153.108H659.836L659.885 148.357H668.799L670.341 150.194C672.398 150.21 674.071 150.618 675.361 151.418C676.667 152.218 677.63 153.246 678.251 154.503C678.871 155.76 679.181 157.115 679.181 158.568C679.181 160.854 678.683 162.772 677.687 164.323C676.708 165.874 675.271 167.041 673.378 167.825C671.5 168.608 669.223 169 666.546 169ZM737.451 150.267V152.104C737.451 154.797 737.092 157.222 736.373 159.376C735.655 161.515 734.635 163.335 733.312 164.837C731.99 166.339 730.415 167.49 728.586 168.29C726.758 169.09 724.725 169.49 722.489 169.49C720.285 169.49 718.261 169.09 716.416 168.29C714.588 167.49 713.004 166.339 711.665 164.837C710.327 163.335 709.29 161.515 708.555 159.376C707.821 157.222 707.453 154.797 707.453 152.104V150.267C707.453 147.557 707.821 145.133 708.555 142.994C709.29 140.856 710.319 139.035 711.641 137.534C712.963 136.015 714.539 134.856 716.367 134.056C718.212 133.256 720.236 132.856 722.44 132.856C724.676 132.856 726.709 133.256 728.537 134.056C730.366 134.856 731.941 136.015 733.263 137.534C734.602 139.035 735.63 140.856 736.349 142.994C737.083 145.133 737.451 147.557 737.451 150.267ZM730.643 152.104V150.218C730.643 148.275 730.464 146.569 730.104 145.1C729.745 143.615 729.215 142.366 728.513 141.354C727.811 140.341 726.946 139.582 725.917 139.076C724.889 138.554 723.73 138.293 722.44 138.293C721.134 138.293 719.975 138.554 718.963 139.076C717.967 139.582 717.118 140.341 716.416 141.354C715.714 142.366 715.175 143.615 714.8 145.1C714.441 146.569 714.261 148.275 714.261 150.218V152.104C714.261 154.03 714.441 155.736 714.8 157.222C715.175 158.707 715.714 159.964 716.416 160.993C717.134 162.005 717.999 162.772 719.012 163.294C720.024 163.817 721.183 164.078 722.489 164.078C723.795 164.078 724.954 163.817 725.966 163.294C726.978 162.772 727.827 162.005 728.513 160.993C729.215 159.964 729.745 158.707 730.104 157.222C730.464 155.736 730.643 154.03 730.643 152.104ZM786.562 133.346H793.296V157.026C793.296 159.752 792.708 162.046 791.533 163.907C790.357 165.751 788.757 167.147 786.733 168.094C784.709 169.024 782.407 169.49 779.828 169.49C777.216 169.49 774.889 169.024 772.849 168.094C770.808 167.147 769.208 165.751 768.049 163.907C766.89 162.046 766.311 159.752 766.311 157.026V133.346H773.045V157.026C773.045 158.691 773.322 160.054 773.877 161.115C774.432 162.16 775.216 162.935 776.228 163.441C777.24 163.947 778.44 164.2 779.828 164.2C781.232 164.2 782.432 163.947 783.427 163.441C784.44 162.935 785.215 162.16 785.754 161.115C786.292 160.054 786.562 158.691 786.562 157.026V133.346ZM838.562 133.346V169H831.853V133.346H838.562ZM849.631 133.346V138.66H820.907V133.346H849.631ZM923.17 169H915.481L915.53 163.711H923.17C925.243 163.711 926.982 163.254 928.385 162.339C929.789 161.409 930.851 160.078 931.569 158.348C932.287 156.601 932.646 154.512 932.646 152.079V150.243C932.646 148.365 932.442 146.708 932.034 145.272C931.626 143.835 931.022 142.627 930.222 141.647C929.438 140.668 928.467 139.925 927.308 139.419C926.149 138.913 924.818 138.66 923.317 138.66H915.334V133.346H923.317C925.7 133.346 927.871 133.746 929.83 134.546C931.806 135.346 933.512 136.497 934.948 137.999C936.401 139.484 937.511 141.264 938.278 143.337C939.062 145.41 939.454 147.729 939.454 150.292V152.079C939.454 154.626 939.062 156.944 938.278 159.034C937.511 161.107 936.401 162.886 934.948 164.372C933.512 165.857 931.797 167 929.806 167.8C927.814 168.6 925.602 169 923.17 169ZM919.252 133.346V169H912.518V133.346H919.252ZM975.929 133.346V169H969.195V133.346H975.929ZM1034.59 150.561V164.445C1034.07 165.115 1033.24 165.841 1032.12 166.625C1031.01 167.408 1029.55 168.086 1027.76 168.657C1025.96 169.212 1023.76 169.49 1021.15 169.49C1018.88 169.49 1016.8 169.114 1014.93 168.363C1013.05 167.596 1011.43 166.478 1010.08 165.009C1008.72 163.539 1007.68 161.744 1006.94 159.621C1006.21 157.499 1005.84 155.075 1005.84 152.349V149.998C1005.84 147.271 1006.19 144.847 1006.87 142.725C1007.57 140.603 1008.57 138.807 1009.86 137.338C1011.16 135.868 1012.72 134.75 1014.54 133.983C1016.36 133.216 1018.4 132.832 1020.66 132.832C1023.68 132.832 1026.16 133.33 1028.1 134.326C1030.06 135.322 1031.56 136.693 1032.61 138.44C1033.65 140.17 1034.3 142.162 1034.57 144.415H1028C1027.82 143.174 1027.46 142.088 1026.93 141.158C1026.39 140.211 1025.62 139.476 1024.62 138.954C1023.64 138.415 1022.37 138.146 1020.8 138.146C1019.48 138.146 1018.31 138.407 1017.3 138.929C1016.29 139.452 1015.44 140.211 1014.76 141.207C1014.07 142.203 1013.55 143.435 1013.19 144.904C1012.85 146.374 1012.67 148.055 1012.67 149.949V152.349C1012.67 154.259 1012.87 155.956 1013.26 157.442C1013.65 158.911 1014.22 160.152 1014.95 161.164C1015.7 162.16 1016.63 162.919 1017.72 163.441C1018.83 163.947 1020.09 164.2 1021.49 164.2C1022.76 164.2 1023.82 164.094 1024.65 163.882C1025.5 163.654 1026.18 163.384 1026.68 163.074C1027.19 162.764 1027.58 162.462 1027.86 162.168V155.483H1020.78V150.561H1034.59ZM1071.7 133.346V169H1064.97V133.346H1071.7ZM1117.12 133.346V169H1110.41V133.346H1117.12ZM1128.18 133.346V138.66H1099.46V133.346H1128.18ZM1167.92 138.758L1157.75 169H1150.63L1163.95 133.346H1168.5L1167.92 138.758ZM1176.41 169L1166.2 138.758L1165.59 133.346H1170.17L1183.56 169H1176.41ZM1175.95 155.752V161.066H1156.82V155.752H1175.95ZM1233.43 163.711V169H1215.51V163.711H1233.43ZM1217.54 133.346V169H1210.81V133.346H1217.54ZM1275.18 153.108H1266.07L1266.02 148.357H1273.83C1275.17 148.357 1276.29 148.169 1277.18 147.794C1278.08 147.418 1278.76 146.871 1279.22 146.153C1279.69 145.435 1279.93 144.561 1279.93 143.533C1279.93 142.39 1279.71 141.46 1279.26 140.741C1278.84 140.023 1278.17 139.501 1277.26 139.174C1276.34 138.831 1275.18 138.66 1273.78 138.66H1268.25V169H1261.51V133.346H1273.78C1275.8 133.346 1277.61 133.542 1279.19 133.934C1280.79 134.309 1282.15 134.897 1283.26 135.697C1284.37 136.497 1285.21 137.501 1285.78 138.709C1286.37 139.917 1286.66 141.354 1286.66 143.019C1286.66 144.488 1286.32 145.843 1285.63 147.084C1284.96 148.308 1283.93 149.304 1282.52 150.071C1281.13 150.838 1279.37 151.279 1277.23 151.393L1275.18 153.108ZM1274.88 169H1264.08L1266.9 163.711H1274.88C1276.22 163.711 1277.32 163.49 1278.19 163.05C1279.07 162.609 1279.72 162.005 1280.15 161.237C1280.59 160.454 1280.81 159.556 1280.81 158.544C1280.81 157.434 1280.61 156.471 1280.22 155.654C1279.84 154.838 1279.24 154.21 1278.41 153.769C1277.59 153.328 1276.51 153.108 1275.18 153.108H1268.17L1268.22 148.357H1277.13L1278.68 150.194C1280.73 150.21 1282.41 150.618 1283.7 151.418C1285 152.218 1285.97 153.246 1286.59 154.503C1287.21 155.76 1287.52 157.115 1287.52 158.568C1287.52 160.854 1287.02 162.772 1286.02 164.323C1285.04 165.874 1283.61 167.041 1281.71 167.825C1279.84 168.608 1277.56 169 1274.88 169ZM1316.92 133.346H1329.87C1332.58 133.346 1334.91 133.754 1336.85 134.571C1338.79 135.387 1340.28 136.595 1341.33 138.195C1342.37 139.795 1342.9 141.762 1342.9 144.096C1342.9 145.941 1342.57 147.541 1341.92 148.896C1341.26 150.251 1340.34 151.385 1339.15 152.3C1337.97 153.214 1336.59 153.932 1334.99 154.454L1332.88 155.532H1321.45L1321.4 150.218H1329.94C1331.33 150.218 1332.48 149.973 1333.4 149.483C1334.31 148.994 1335 148.316 1335.45 147.451C1335.93 146.586 1336.16 145.598 1336.16 144.488C1336.16 143.296 1335.93 142.268 1335.48 141.403C1335.02 140.521 1334.33 139.844 1333.4 139.37C1332.47 138.897 1331.29 138.66 1329.87 138.66H1323.65V169H1316.92V133.346ZM1337.04 169L1328.79 153.034L1335.92 153.01L1344.27 168.657V169H1337.04ZM1396 163.711V169H1377.05V163.711H1396ZM1379.1 133.346V169H1372.37V133.346H1379.1ZM1393.53 148.063V153.23H1377.05V148.063H1393.53ZM1395.93 133.346V138.66H1377.05V133.346H1395.93ZM1433.01 162.168L1440.12 133.346H1443.96L1444.2 139.419L1436.61 169H1432.55L1433.01 162.168ZM1428.53 133.346L1434.36 162.07V169H1429.93L1421.85 133.346H1428.53ZM1451.58 161.948L1457.31 133.346H1464.01L1455.93 169H1451.5L1451.58 161.948ZM1445.8 133.346L1452.9 162.266L1453.31 169H1449.25L1441.68 139.395L1441.98 133.346H1445.8Z" fill="#102E4A"/>
<path d="M510.861 463.534H467.21L459.989 484.557H436.077L475.716 372.22H502.516L541.995 484.557H518.083L510.861 463.534ZM505.084 446.202L489.036 399.502L473.148 446.202H505.084ZM684.323 451.979C684.323 457.97 682.664 463.534 679.348 468.669C676.138 473.804 671.484 477.923 665.386 481.026C659.395 484.129 652.387 485.68 644.363 485.68C632.059 485.68 622.163 482.845 614.674 477.175C607.185 471.397 603.44 463.32 603.44 452.942H627.512C627.94 457.756 629.545 461.447 632.327 464.015C635.215 466.476 639.227 467.706 644.363 467.706C649.498 467.706 653.564 466.369 656.559 463.694C659.555 461.019 661.053 457.542 661.053 453.263C661.053 449.839 659.983 447.058 657.843 444.918C655.81 442.778 653.243 441.12 650.14 439.943C647.144 438.766 642.865 437.429 637.302 435.931C630.133 434.112 624.303 432.24 619.809 430.314C615.316 428.388 611.464 425.393 608.254 421.327C605.045 417.155 603.44 411.538 603.44 404.477C603.44 397.736 605.098 391.852 608.415 386.824C611.839 381.688 616.546 377.783 622.537 375.108C628.529 372.327 635.322 370.936 642.918 370.936C654.58 370.936 663.941 373.611 671.003 378.96C678.064 384.202 681.915 392.226 682.557 403.032H657.843C657.415 398.753 655.81 395.383 653.029 392.922C650.247 390.354 646.663 389.07 642.277 389.07C637.676 389.07 633.931 390.247 631.043 392.601C628.261 394.848 626.87 398.325 626.87 403.032C626.87 406.563 627.887 409.451 629.919 411.698C632.059 413.838 634.68 415.496 637.783 416.673C640.886 417.85 645.165 419.134 650.622 420.525C657.79 422.343 663.621 424.216 668.114 426.141C672.607 428.067 676.406 431.116 679.508 435.289C682.718 439.354 684.323 444.918 684.323 451.979ZM817.526 394.366C828.118 394.366 836.623 397.683 843.042 404.316C849.569 410.949 852.832 420.257 852.832 432.24V484.557H830.364V435.449C830.364 428.495 828.599 423.199 825.068 419.562C821.538 415.817 816.723 413.945 810.625 413.945C804.527 413.945 799.659 415.817 796.021 419.562C792.491 423.199 790.725 428.495 790.725 435.449V484.557H768.258V435.449C768.258 428.495 766.493 423.199 762.962 419.562C759.432 415.817 754.617 413.945 748.519 413.945C742.421 413.945 737.553 415.817 733.915 419.562C730.384 423.199 728.619 428.495 728.619 435.449V484.557H705.991V395.65H728.619V408.97C731.401 404.263 735.145 400.678 739.853 398.218C744.667 395.65 750.124 394.366 756.222 394.366C762.962 394.366 768.953 395.918 774.196 399.02C779.545 402.123 783.664 406.563 786.553 412.34C789.656 406.777 793.882 402.39 799.231 399.181C804.687 395.971 810.786 394.366 817.526 394.366ZM911.017 394.366C917.33 394.366 922.946 395.704 927.868 398.378C932.789 401.053 936.748 404.744 939.743 409.451V395.65H962.211V484.557H939.743V469.632C936.641 474.66 932.629 478.619 927.707 481.507C922.893 484.396 917.33 485.84 911.017 485.84C903.421 485.84 896.467 483.915 890.155 480.063C883.95 476.105 878.975 470.648 875.23 463.694C871.592 456.74 869.774 448.823 869.774 439.943C869.774 431.063 871.592 423.199 875.23 416.352C878.975 409.398 883.95 403.995 890.155 400.144C896.467 396.292 903.421 394.366 911.017 394.366ZM916.153 413.945C912.194 413.945 908.396 414.961 904.759 416.994C901.228 419.027 898.339 422.022 896.093 425.981C893.846 429.833 892.722 434.487 892.722 439.943C892.722 445.399 893.846 450.16 896.093 454.226C898.339 458.184 901.228 461.18 904.759 463.213C908.396 465.245 912.194 466.262 916.153 466.262C920.218 466.262 924.016 465.245 927.547 463.213C931.184 461.18 934.127 458.184 936.373 454.226C938.62 450.267 939.743 445.56 939.743 440.103C939.743 434.647 938.62 429.94 936.373 425.981C934.127 422.022 931.184 419.027 927.547 416.994C924.016 414.961 920.218 413.945 916.153 413.945ZM1008.83 365.801V484.557H986.207V365.801H1008.83ZM1055.54 365.801V484.557H1032.91V365.801H1055.54ZM1204.11 372.541V389.873H1173.78V484.557H1151.32V389.873H1121.14V372.541H1204.11ZM1303.77 438.819C1303.77 441.922 1303.56 444.811 1303.13 447.485H1238.29C1238.83 453.263 1240.97 457.917 1244.71 461.447C1248.46 464.978 1253.22 466.743 1259 466.743C1263.49 466.743 1267.07 465.887 1269.75 464.176C1272.42 462.464 1274.62 460.11 1276.33 457.114H1300.72C1298.15 465.566 1293.18 472.467 1285.8 477.816C1278.41 483.166 1269.48 485.84 1259 485.84C1250.54 485.84 1243 483.968 1236.37 480.224C1229.73 476.372 1224.55 471.023 1220.8 464.176C1217.06 457.221 1215.18 449.144 1215.18 439.943C1215.18 430.742 1217.06 422.718 1220.8 415.871C1224.55 409.023 1229.73 403.728 1236.37 399.983C1243.11 396.238 1250.76 394.366 1259.32 394.366C1267.88 394.366 1275.47 396.185 1282.11 399.823C1288.85 403.46 1294.14 408.649 1297.99 415.389C1301.84 422.022 1303.77 429.833 1303.77 438.819ZM1280.34 432.882C1280.02 426.997 1277.83 422.29 1273.76 418.759C1269.8 415.229 1264.88 413.463 1259 413.463C1253.54 413.463 1248.89 415.229 1245.03 418.759C1241.29 422.29 1239.04 426.997 1238.29 432.882H1280.34ZM1356.57 394.366C1362.88 394.366 1368.5 395.704 1373.42 398.378C1378.34 401.053 1382.3 404.744 1385.3 409.451V395.65H1407.77V484.557H1385.3V469.632C1382.2 474.66 1378.18 478.619 1373.26 481.507C1368.45 484.396 1362.88 485.84 1356.57 485.84C1348.98 485.84 1342.02 483.915 1335.71 480.063C1329.5 476.105 1324.53 470.648 1320.78 463.694C1317.15 456.74 1315.33 448.823 1315.33 439.943C1315.33 431.063 1317.15 423.199 1320.78 416.352C1324.53 409.398 1329.5 403.995 1335.71 400.144C1342.02 396.292 1348.98 394.366 1356.57 394.366ZM1361.71 413.945C1357.75 413.945 1353.95 414.961 1350.31 416.994C1346.78 419.027 1343.89 422.022 1341.65 425.981C1339.4 429.833 1338.28 434.487 1338.28 439.943C1338.28 445.399 1339.4 450.16 1341.65 454.226C1343.89 458.184 1346.78 461.18 1350.31 463.213C1353.95 465.245 1357.75 466.262 1361.71 466.262C1365.77 466.262 1369.57 465.245 1373.1 463.213C1376.74 461.18 1379.68 458.184 1381.93 454.226C1384.17 450.267 1385.3 445.56 1385.3 440.103C1385.3 434.647 1384.17 429.94 1381.93 425.981C1379.68 422.022 1376.74 419.027 1373.1 416.994C1369.57 414.961 1365.77 413.945 1361.71 413.945ZM1543.3 394.366C1553.89 394.366 1562.39 397.683 1568.81 404.316C1575.34 410.949 1578.6 420.257 1578.6 432.24V484.557H1556.13V435.449C1556.13 428.495 1554.37 423.199 1550.84 419.562C1547.31 415.817 1542.49 413.945 1536.39 413.945C1530.3 413.945 1525.43 415.817 1521.79 419.562C1518.26 423.199 1516.5 428.495 1516.5 435.449V484.557H1494.03V435.449C1494.03 428.495 1492.26 423.199 1488.73 419.562C1485.2 415.817 1480.39 413.945 1474.29 413.945C1468.19 413.945 1463.32 415.817 1459.68 419.562C1456.15 423.199 1454.39 428.495 1454.39 435.449V484.557H1431.76V395.65H1454.39V408.97C1457.17 404.263 1460.92 400.678 1465.62 398.218C1470.44 395.65 1475.89 394.366 1481.99 394.366C1488.73 394.366 1494.72 395.918 1499.97 399.02C1505.32 402.123 1509.43 406.563 1512.32 412.34C1515.43 406.777 1519.65 402.39 1525 399.181C1530.46 395.971 1536.56 394.366 1543.3 394.366ZM1614.8 469.953C1617.37 477.014 1618.65 483.433 1618.65 489.211C1618.65 495.951 1616.89 501.354 1613.36 505.419C1609.93 509.485 1604.64 511.517 1597.47 511.517V502.531C1600.25 502.531 1602.28 501.889 1603.57 500.605C1604.85 499.321 1605.49 497.074 1605.49 493.865V490.815H1595.06V469.953H1614.8ZM483.89 636.65L456.608 725.557H432.536L417.29 665.858L401.884 725.557H377.812L350.53 636.65H373.318L389.687 704.213L406.056 636.65H429.808L445.856 704.052L462.225 636.65H483.89ZM494.441 614.022C494.441 610.171 495.779 606.908 498.453 604.233C501.128 601.558 504.338 600.221 508.082 600.221C511.934 600.221 515.197 601.558 517.872 604.233C520.546 606.908 521.884 610.171 521.884 614.022C521.884 617.874 520.546 621.137 517.872 623.812C515.197 626.486 511.934 627.824 508.082 627.824C504.338 627.824 501.128 626.486 498.453 623.812C495.779 621.137 494.441 617.874 494.441 614.022ZM519.476 636.65V725.557H496.849V636.65H519.476ZM588.807 706.62V725.557H574.524C565.43 725.557 558.422 723.47 553.501 719.298C548.58 715.125 546.119 708.225 546.119 698.596V655.105H536.65V636.65H546.119V614.664H568.747V636.65H588.646V655.105H568.747V698.596C568.747 701.484 569.442 703.571 570.833 704.855C572.224 706.031 574.631 706.62 578.055 706.62H588.807ZM656.626 635.366C663.26 635.366 669.144 636.864 674.279 639.86C679.522 642.748 683.641 647.081 686.636 652.859C689.632 658.529 691.13 665.323 691.13 673.24V725.557H668.663V676.449C668.663 669.495 666.897 664.199 663.367 660.562C659.836 656.817 655.022 654.945 648.923 654.945C642.825 654.945 637.957 656.817 634.32 660.562C630.789 664.199 629.024 669.495 629.024 676.449V725.557H606.396V606.801H629.024V649.97C631.805 645.263 635.55 641.678 640.257 639.218C645.072 636.65 650.528 635.366 656.626 635.366ZM822.99 668.265C830.372 669.335 836.257 672.544 840.643 677.894C845.137 683.136 847.383 689.234 847.383 696.189C847.383 701.966 845.886 707.101 842.89 711.595C840.001 715.981 835.775 719.405 830.212 721.866C824.649 724.326 818.069 725.557 810.473 725.557H762.489V613.541H807.905C815.501 613.541 822.081 614.825 827.644 617.392C833.315 619.96 837.594 623.491 840.483 627.984C843.371 632.478 844.816 637.506 844.816 643.069C844.816 649.382 842.89 654.677 839.038 658.957C835.294 663.129 829.944 666.232 822.99 668.265ZM785.117 659.92H805.498C810.526 659.92 814.485 658.689 817.373 656.229C820.369 653.661 821.867 650.077 821.867 645.477C821.867 640.876 820.369 637.292 817.373 634.724C814.485 632.157 810.526 630.873 805.498 630.873H785.117V659.92ZM807.905 708.225C812.933 708.225 816.945 706.887 819.941 704.213C823.044 701.431 824.595 697.633 824.595 692.818C824.595 688.004 823.044 684.206 819.941 681.424C816.838 678.643 812.773 677.252 807.745 677.252H785.117V708.225H807.905ZM864.457 614.022C864.457 610.171 865.794 606.908 868.469 604.233C871.144 601.558 874.353 600.221 878.098 600.221C881.95 600.221 885.213 601.558 887.887 604.233C890.562 606.908 891.899 610.171 891.899 614.022C891.899 617.874 890.562 621.137 887.887 623.812C885.213 626.486 881.95 627.824 878.098 627.824C874.353 627.824 871.144 626.486 868.469 623.812C865.794 621.137 864.457 617.874 864.457 614.022ZM889.492 636.65V725.557H866.864V636.65H889.492ZM948.552 635.366C954.864 635.366 960.481 636.704 965.402 639.378C970.324 642.053 974.282 645.744 977.278 650.451V636.65H999.745V726.199C999.745 734.437 998.087 741.819 994.77 748.345C991.561 754.871 986.639 760.007 980.006 763.751C973.48 767.603 965.402 769.528 955.773 769.528C943.042 769.528 932.664 766.693 924.64 761.023C916.723 755.46 912.23 747.489 911.16 737.111H933.306C934.697 741.07 937.372 744.172 941.33 746.419C945.289 748.773 950.103 749.95 955.773 749.95C962.086 749.95 967.221 747.971 971.18 744.012C975.245 740.053 977.278 734.116 977.278 726.199V710.632C974.175 715.66 970.163 719.619 965.242 722.507C960.427 725.396 954.864 726.84 948.552 726.84C940.956 726.84 934.001 724.915 927.689 721.063C921.484 717.105 916.509 711.648 912.764 704.694C909.127 697.74 907.308 689.823 907.308 680.943C907.308 672.063 909.127 664.199 912.764 657.352C916.509 650.398 921.484 644.995 927.689 641.144C934.001 637.292 940.956 635.366 948.552 635.366ZM953.687 654.945C949.729 654.945 945.931 655.961 942.293 657.994C938.762 660.027 935.874 663.022 933.627 666.981C931.38 670.833 930.257 675.487 930.257 680.943C930.257 686.399 931.38 691.16 933.627 695.226C935.874 699.184 938.762 702.18 942.293 704.213C945.931 706.245 949.729 707.262 953.687 707.262C957.753 707.262 961.551 706.245 965.081 704.213C968.719 702.18 971.661 699.184 973.908 695.226C976.155 691.267 977.278 686.56 977.278 681.103C977.278 675.647 976.155 670.94 973.908 666.981C971.661 663.022 968.719 660.027 965.081 657.994C961.551 655.961 957.753 654.945 953.687 654.945ZM1170.07 669.709C1170.07 680.943 1167.55 690.786 1162.53 699.238C1157.5 707.583 1150.44 714.055 1141.34 718.656C1132.25 723.256 1121.76 725.557 1109.89 725.557H1071.85V613.541H1109.89C1121.76 613.541 1132.25 615.894 1141.34 620.602C1150.44 625.202 1157.5 631.729 1162.53 640.181C1167.55 648.633 1170.07 658.475 1170.07 669.709ZM1109.89 708.385C1121.66 708.385 1130.8 704.908 1137.33 697.954C1143.86 691 1147.12 681.585 1147.12 669.709C1147.12 657.834 1143.86 648.419 1137.33 641.464C1130.8 634.51 1121.66 631.033 1109.89 631.033H1094.48V708.385H1109.89ZM1210.45 652.377C1213.24 647.028 1216.82 642.855 1221.21 639.86C1225.7 636.864 1230.78 635.366 1236.45 635.366V658.475H1230.84C1224.1 658.475 1219.01 660.187 1215.59 663.611C1212.17 666.928 1210.45 672.705 1210.45 680.943V725.557H1187.83V636.65H1210.45V652.377ZM1334.88 679.819C1334.88 682.922 1334.66 685.811 1334.24 688.485H1269.4C1269.94 694.263 1272.08 698.917 1275.82 702.447C1279.57 705.978 1284.33 707.743 1290.1 707.743C1294.6 707.743 1298.18 706.887 1300.86 705.176C1303.53 703.464 1305.72 701.11 1307.44 698.114H1331.83C1329.26 706.566 1324.29 713.467 1316.91 718.816C1309.52 724.166 1300.59 726.84 1290.1 726.84C1281.65 726.84 1274.11 724.968 1267.48 721.224C1260.84 717.372 1255.65 712.023 1251.91 705.176C1248.17 698.221 1246.29 690.144 1246.29 680.943C1246.29 671.742 1248.17 663.718 1251.91 656.871C1255.65 650.023 1260.84 644.728 1267.48 640.983C1274.22 637.238 1281.87 635.366 1290.43 635.366C1298.98 635.366 1306.58 637.185 1313.21 640.823C1319.95 644.46 1325.25 649.649 1329.1 656.389C1332.95 663.022 1334.88 670.833 1334.88 679.819ZM1311.45 673.882C1311.13 667.997 1308.93 663.29 1304.87 659.759C1300.91 656.229 1295.99 654.463 1290.1 654.463C1284.65 654.463 1279.99 656.229 1276.14 659.759C1272.4 663.29 1270.15 667.997 1269.4 673.882H1311.45ZM1387.68 635.366C1393.99 635.366 1399.61 636.704 1404.53 639.378C1409.45 642.053 1413.41 645.744 1416.41 650.451V636.65H1438.87V725.557H1416.41V710.632C1413.3 715.66 1409.29 719.619 1404.37 722.507C1399.56 725.396 1393.99 726.84 1387.68 726.84C1380.08 726.84 1373.13 724.915 1366.82 721.063C1360.61 717.105 1355.64 711.648 1351.89 704.694C1348.26 697.74 1346.44 689.823 1346.44 680.943C1346.44 672.063 1348.26 664.199 1351.89 657.352C1355.64 650.398 1360.61 644.995 1366.82 641.144C1373.13 637.292 1380.08 635.366 1387.68 635.366ZM1392.82 654.945C1388.86 654.945 1385.06 655.961 1381.42 657.994C1377.89 660.027 1375 663.022 1372.76 666.981C1370.51 670.833 1369.39 675.487 1369.39 680.943C1369.39 686.399 1370.51 691.16 1372.76 695.226C1375 699.184 1377.89 702.18 1381.42 704.213C1385.06 706.245 1388.86 707.262 1392.82 707.262C1396.88 707.262 1400.68 706.245 1404.21 704.213C1407.85 702.18 1410.79 699.184 1413.04 695.226C1415.28 691.267 1416.41 686.56 1416.41 681.103C1416.41 675.647 1415.28 670.94 1413.04 666.981C1410.79 663.022 1407.85 660.027 1404.21 657.994C1400.68 655.961 1396.88 654.945 1392.82 654.945ZM1574.4 635.366C1585 635.366 1593.5 638.683 1599.92 645.316C1606.45 651.949 1609.71 661.257 1609.71 673.24V725.557H1587.24V676.449C1587.24 669.495 1585.48 664.199 1581.95 660.562C1578.42 656.817 1573.6 654.945 1567.5 654.945C1561.41 654.945 1556.54 656.817 1552.9 660.562C1549.37 664.199 1547.6 669.495 1547.6 676.449V725.557H1525.14V676.449C1525.14 669.495 1523.37 664.199 1519.84 660.562C1516.31 656.817 1511.5 654.945 1505.4 654.945C1499.3 654.945 1494.43 656.817 1490.79 660.562C1487.26 664.199 1485.5 669.495 1485.5 676.449V725.557H1462.87V636.65H1485.5V649.97C1488.28 645.263 1492.02 641.678 1496.73 639.218C1501.55 636.65 1507 635.366 1513.1 635.366C1519.84 635.366 1525.83 636.918 1531.07 640.02C1536.42 643.123 1540.54 647.563 1543.43 653.34C1546.53 647.777 1550.76 643.39 1556.11 640.181C1561.57 636.971 1567.66 635.366 1574.4 635.366ZM1664.69 635.366C1674.85 635.366 1683.2 637.987 1689.72 643.23C1696.25 648.365 1699.73 655.373 1700.15 664.253H1677.04C1676.4 656.764 1671.8 653.019 1663.24 653.019C1658.96 653.019 1655.65 653.875 1653.29 655.587C1650.94 657.299 1649.76 659.545 1649.76 662.327C1649.76 664.681 1650.62 666.553 1652.33 667.944C1654.04 669.335 1656.13 670.458 1658.59 671.314C1661.16 672.063 1664.79 672.972 1669.5 674.042C1676.03 675.433 1681.38 676.931 1685.55 678.536C1689.83 680.033 1693.47 682.494 1696.46 685.918C1699.46 689.234 1700.96 693.835 1700.96 699.719C1700.96 705.069 1699.4 709.776 1696.3 713.842C1693.2 717.907 1688.92 721.117 1683.46 723.47C1678.01 725.717 1671.85 726.84 1665.01 726.84C1654.31 726.84 1645.59 724.38 1638.85 719.458C1632.11 714.43 1628.42 707.262 1627.78 697.954H1650.89C1651.31 701.591 1652.76 704.373 1655.22 706.299C1657.68 708.225 1661 709.188 1665.17 709.188C1669.34 709.188 1672.71 708.278 1675.28 706.459C1677.85 704.534 1679.13 702.126 1679.13 699.238C1679.13 696.884 1678.27 695.012 1676.56 693.621C1674.85 692.123 1672.71 691 1670.14 690.251C1667.58 689.395 1663.88 688.432 1659.07 687.362C1652.54 685.971 1647.19 684.527 1643.02 683.029C1638.96 681.531 1635.43 679.178 1632.43 675.968C1629.43 672.651 1627.94 668.211 1627.94 662.648C1627.94 657.727 1629.38 653.18 1632.27 649.007C1635.16 644.835 1639.38 641.518 1644.95 639.057C1650.51 636.597 1657.09 635.366 1664.69 635.366Z" fill="black"/>
<path d="M344.288 944.543L334.074 979H327.679L320.44 952.922L312.756 979L306.41 979.05L296.643 944.543H302.642L309.781 972.604L317.515 944.543H323.861L331.05 972.456L338.239 944.543H344.288ZM373.986 964.573C373.986 965.531 373.92 966.424 373.788 967.25H352.866C352.998 969.53 353.758 971.348 355.147 972.704C356.568 974.026 358.336 974.687 360.451 974.687C363.525 974.687 365.69 973.414 366.946 970.869H373.044C372.218 973.381 370.714 975.447 368.533 977.066C366.351 978.653 363.658 979.446 360.451 979.446C357.84 979.446 355.527 978.868 353.51 977.711C351.494 976.521 349.908 974.868 348.751 972.753C347.627 970.605 347.065 968.126 347.065 965.316C347.065 962.507 347.627 960.044 348.751 957.929C349.908 955.781 351.511 954.128 353.56 952.971C355.642 951.814 358.022 951.236 360.699 951.236C363.277 951.236 365.575 951.798 367.591 952.922C369.607 954.045 371.177 955.615 372.301 957.632C373.424 959.648 373.986 961.961 373.986 964.573ZM368.087 963.383C368.053 961.135 367.31 959.35 365.855 958.028C364.401 956.673 362.6 955.996 360.451 955.996C358.435 955.996 356.716 956.673 355.295 958.028C353.907 959.35 353.114 961.135 352.915 963.383H368.087ZM382.374 939.337C382.837 941.056 383.069 942.708 383.069 944.295C383.069 948.393 381.218 950.443 377.516 950.443V948.013C379.102 948.013 379.896 947.071 379.896 945.187V944.146H377.268V939.337H382.374ZM393.867 956.442C394.693 954.789 395.784 953.517 397.139 952.624C398.527 951.699 400.163 951.236 402.047 951.236V957.086H400.61C398.395 957.086 396.71 957.648 395.553 958.772C394.429 959.896 393.867 961.846 393.867 964.622V979H388.215V951.682H393.867V956.442ZM432.28 964.573C432.28 965.531 432.214 966.424 432.082 967.25H411.159C411.292 969.53 412.052 971.348 413.44 972.704C414.861 974.026 416.63 974.687 418.745 974.687C421.819 974.687 423.984 973.414 425.24 970.869H431.338C430.512 973.381 429.008 975.447 426.826 977.066C424.645 978.653 421.951 979.446 418.745 979.446C416.134 979.446 413.82 978.868 411.804 977.711C409.788 976.521 408.201 974.868 407.044 972.753C405.921 970.605 405.359 968.126 405.359 965.316C405.359 962.507 405.921 960.044 407.044 957.929C408.201 955.781 409.804 954.128 411.854 952.971C413.936 951.814 416.316 951.236 418.993 951.236C421.571 951.236 423.868 951.798 425.884 952.922C427.901 954.045 429.47 955.615 430.594 957.632C431.718 959.648 432.28 961.961 432.28 964.573ZM426.38 963.383C426.347 961.135 425.603 959.35 424.149 958.028C422.695 956.673 420.893 955.996 418.745 955.996C416.729 955.996 415.01 956.673 413.589 958.028C412.201 959.35 411.407 961.135 411.209 963.383H426.38ZM463.712 951.236C465.861 951.236 467.745 951.732 469.364 952.723C471.017 953.682 472.289 954.954 473.182 956.541V951.682H478.883V979H473.182V973.893C472.256 975.579 470.984 976.934 469.364 977.959C467.745 978.95 465.861 979.446 463.712 979.446C461.333 979.446 459.151 978.851 457.168 977.661C455.218 976.438 453.664 974.753 452.508 972.604C451.384 970.423 450.822 967.961 450.822 965.217C450.822 962.474 451.384 960.044 452.508 957.929C453.664 955.814 455.218 954.178 457.168 953.021C459.151 951.831 461.333 951.236 463.712 951.236ZM464.902 956.144C463.448 956.144 462.093 956.508 460.837 957.235C459.581 957.929 458.556 958.97 457.763 960.358C457.003 961.714 456.623 963.333 456.623 965.217C456.623 967.101 457.003 968.754 457.763 970.175C458.556 971.596 459.581 972.687 460.837 973.447C462.126 974.174 463.481 974.538 464.902 974.538C466.357 974.538 467.712 974.174 468.968 973.447C470.224 972.72 471.232 971.662 471.992 970.274C472.785 968.853 473.182 967.2 473.182 965.316C473.182 963.432 472.785 961.796 471.992 960.408C471.232 959.02 470.224 957.962 468.968 957.235C467.712 956.508 466.357 956.144 464.902 956.144ZM512.624 956.293H507.567V979H501.865V956.293H498.642V951.682H501.865V949.749C501.865 946.609 502.691 944.328 504.344 942.907C506.03 941.452 508.657 940.725 512.227 940.725V945.435C510.508 945.435 509.302 945.766 508.608 946.427C507.914 947.055 507.567 948.162 507.567 949.749V951.682H512.624V956.293ZM542.372 951.682V979H536.72V974.687C535.828 976.24 534.622 977.413 533.101 978.207C531.614 979 529.912 979.397 527.995 979.397C526.011 979.397 524.21 978.95 522.59 978.058C521.004 977.166 519.731 975.86 518.773 974.141C517.847 972.39 517.385 970.274 517.385 967.795V951.682H522.987V966.952C522.987 969.398 523.599 971.282 524.821 972.604C526.044 973.893 527.714 974.538 529.829 974.538C531.944 974.538 533.613 973.893 534.836 972.604C536.092 971.282 536.72 969.398 536.72 966.952V951.682H542.372ZM564.207 951.236C566.191 951.236 567.975 951.682 569.562 952.575C571.181 953.467 572.454 954.789 573.379 956.541C574.338 958.293 574.817 960.408 574.817 962.887V979H569.215V963.73C569.215 961.284 568.603 959.416 567.38 958.127C566.157 956.805 564.488 956.144 562.373 956.144C560.258 956.144 558.572 956.805 557.316 958.127C556.093 959.416 555.482 961.284 555.482 963.73V979H549.83V951.682H555.482V955.996C556.374 954.442 557.564 953.269 559.051 952.475C560.572 951.649 562.29 951.236 564.207 951.236ZM602.998 958.673V963.432H582.622V958.673H602.998ZM616.68 942.312V979H611.028V942.312H616.68ZM636.198 951.236C638.809 951.236 641.172 951.814 643.288 952.971C645.403 954.128 647.072 955.781 648.295 957.929C649.518 960.078 650.129 962.54 650.129 965.316C650.129 968.093 649.501 970.555 648.245 972.704C646.989 974.852 645.271 976.521 643.089 977.711C640.941 978.868 638.561 979.446 635.95 979.446C633.372 979.446 631.042 978.868 628.959 977.711C626.877 976.521 625.241 974.868 624.051 972.753C622.861 970.605 622.266 968.126 622.266 965.316C622.266 962.54 622.878 960.078 624.101 957.929C625.324 955.781 626.993 954.128 629.108 952.971C631.223 951.814 633.587 951.236 636.198 951.236ZM636.099 955.996C634.644 955.996 633.306 956.359 632.083 957.086C630.86 957.78 629.868 958.838 629.108 960.259C628.381 961.647 628.017 963.333 628.017 965.316C628.017 967.299 628.364 969.002 629.059 970.423C629.786 971.844 630.744 972.918 631.934 973.646C633.157 974.34 634.496 974.687 635.95 974.687C637.404 974.687 638.759 974.323 640.015 973.596C641.304 972.869 642.346 971.811 643.139 970.423C643.932 969.002 644.329 967.299 644.329 965.316C644.329 963.333 643.949 961.647 643.188 960.259C642.428 958.838 641.42 957.78 640.164 957.086C638.908 956.359 637.553 955.996 636.099 955.996ZM666.277 973.943L674.011 951.682H680.109L669.698 979H662.856L652.494 951.682H658.543L666.277 973.943ZM683.539 944.444C683.539 943.419 683.886 942.56 684.58 941.866C685.274 941.172 686.133 940.824 687.158 940.824C688.15 940.824 688.992 941.172 689.687 941.866C690.381 942.56 690.728 943.419 690.728 944.444C690.728 945.468 690.381 946.328 689.687 947.022C688.992 947.716 688.15 948.063 687.158 948.063C686.133 948.063 685.274 947.716 684.58 947.022C683.886 946.328 683.539 945.468 683.539 944.444ZM689.934 951.682V979H684.282V951.682H689.934ZM711.733 951.236C713.716 951.236 715.501 951.682 717.087 952.575C718.707 953.467 719.979 954.789 720.905 956.541C721.863 958.293 722.343 960.408 722.343 962.887V979H716.74V963.73C716.74 961.284 716.129 959.416 714.906 958.127C713.683 956.805 712.014 956.144 709.898 956.144C707.783 956.144 706.097 956.805 704.841 958.127C703.618 959.416 703.007 961.284 703.007 963.73V979H697.355V951.682H703.007V955.996C703.899 954.442 705.089 953.269 706.577 952.475C708.097 951.649 709.816 951.236 711.733 951.236ZM740.558 951.236C742.707 951.236 744.591 951.732 746.21 952.723C747.863 953.682 749.136 954.954 750.028 956.541V951.682H755.729V979.446C755.729 981.958 755.201 984.189 754.143 986.139C753.085 988.122 751.548 989.676 749.532 990.8C747.549 991.923 745.169 992.485 742.393 992.485C738.691 992.485 735.617 991.609 733.171 989.858C730.725 988.139 729.337 985.792 729.007 982.818H734.609C735.039 984.239 735.948 985.379 737.336 986.238C738.757 987.131 740.443 987.577 742.393 987.577C744.673 987.577 746.508 986.883 747.896 985.495C749.317 984.107 750.028 982.09 750.028 979.446V973.893C749.102 975.579 747.83 976.934 746.21 977.959C744.591 978.95 742.707 979.446 740.558 979.446C738.179 979.446 735.997 978.851 734.014 977.661C732.064 976.438 730.511 974.753 729.354 972.604C728.23 970.423 727.668 967.961 727.668 965.217C727.668 962.474 728.23 960.044 729.354 957.929C730.511 955.814 732.064 954.178 734.014 953.021C735.997 951.831 738.179 951.236 740.558 951.236ZM741.748 956.144C740.294 956.144 738.939 956.508 737.683 957.235C736.427 957.929 735.402 958.97 734.609 960.358C733.849 961.714 733.469 963.333 733.469 965.217C733.469 967.101 733.849 968.754 734.609 970.175C735.402 971.596 736.427 972.687 737.683 973.447C738.972 974.174 740.327 974.538 741.748 974.538C743.203 974.538 744.558 974.174 745.814 973.447C747.07 972.72 748.078 971.662 748.838 970.274C749.631 968.853 750.028 967.2 750.028 965.316C750.028 963.432 749.631 961.796 748.838 960.408C748.078 959.02 747.07 957.962 745.814 957.235C744.558 956.508 743.203 956.144 741.748 956.144ZM766.574 975.133C767.169 977.248 767.466 979.017 767.466 980.438C767.466 982.421 766.987 983.958 766.029 985.049C765.07 986.139 763.616 986.685 761.666 986.685V984.206C762.492 984.206 763.087 984.007 763.451 983.611C763.847 983.214 764.046 982.553 764.046 981.628V980.587H761.22V975.133H766.574ZM799.046 951.236C801.194 951.236 803.078 951.732 804.698 952.723C806.35 953.682 807.623 954.954 808.515 956.541V951.682H814.217V979.446C814.217 981.958 813.688 984.189 812.63 986.139C811.573 988.122 810.036 989.676 808.019 990.8C806.036 991.923 803.656 992.485 800.88 992.485C797.178 992.485 794.104 991.609 791.658 989.858C789.213 988.139 787.824 985.792 787.494 982.818H793.096C793.526 984.239 794.435 985.379 795.823 986.238C797.244 987.131 798.93 987.577 800.88 987.577C803.161 987.577 804.995 986.883 806.383 985.495C807.805 984.107 808.515 982.09 808.515 979.446V973.893C807.59 975.579 806.317 976.934 804.698 977.959C803.078 978.95 801.194 979.446 799.046 979.446C796.666 979.446 794.484 978.851 792.501 977.661C790.551 976.438 788.998 974.753 787.841 972.604C786.717 970.423 786.155 967.961 786.155 965.217C786.155 962.474 786.717 960.044 787.841 957.929C788.998 955.814 790.551 954.178 792.501 953.021C794.484 951.831 796.666 951.236 799.046 951.236ZM800.236 956.144C798.781 956.144 797.426 956.508 796.17 957.235C794.914 957.929 793.889 958.97 793.096 960.358C792.336 961.714 791.956 963.333 791.956 965.217C791.956 967.101 792.336 968.754 793.096 970.175C793.889 971.596 794.914 972.687 796.17 973.447C797.459 974.174 798.814 974.538 800.236 974.538C801.69 974.538 803.045 974.174 804.301 973.447C805.557 972.72 806.565 971.662 807.325 970.274C808.119 968.853 808.515 967.2 808.515 965.316C808.515 963.432 808.119 961.796 807.325 960.408C806.565 959.02 805.557 957.962 804.301 957.235C803.045 956.508 801.69 956.144 800.236 956.144ZM827.292 956.442C828.119 954.789 829.209 953.517 830.564 952.624C831.953 951.699 833.589 951.236 835.473 951.236V957.086H834.035C831.82 957.086 830.135 957.648 828.978 958.772C827.854 959.896 827.292 961.846 827.292 964.622V979H821.64V951.682H827.292V956.442ZM852.765 951.236C855.376 951.236 857.74 951.814 859.855 952.971C861.97 954.128 863.639 955.781 864.862 957.929C866.085 960.078 866.697 962.54 866.697 965.316C866.697 968.093 866.069 970.555 864.813 972.704C863.557 974.852 861.838 976.521 859.657 977.711C857.508 978.868 855.128 979.446 852.517 979.446C849.939 979.446 847.609 978.868 845.527 977.711C843.444 976.521 841.808 974.868 840.618 972.753C839.429 970.605 838.834 968.126 838.834 965.316C838.834 962.54 839.445 960.078 840.668 957.929C841.891 955.781 843.56 954.128 845.675 952.971C847.791 951.814 850.154 951.236 852.765 951.236ZM852.666 955.996C851.212 955.996 849.873 956.359 848.65 957.086C847.427 957.78 846.436 958.838 845.675 960.259C844.948 961.647 844.585 963.333 844.585 965.316C844.585 967.299 844.932 969.002 845.626 970.423C846.353 971.844 847.312 972.918 848.501 973.646C849.724 974.34 851.063 974.687 852.517 974.687C853.972 974.687 855.327 974.323 856.583 973.596C857.872 972.869 858.913 971.811 859.706 970.423C860.499 969.002 860.896 967.299 860.896 965.316C860.896 963.333 860.516 961.647 859.756 960.259C858.996 958.838 857.987 957.78 856.732 957.086C855.476 956.359 854.12 955.996 852.666 955.996ZM908.972 951.682L900.494 979H894.545L889.042 958.822L883.538 979H877.589L869.061 951.682H874.813L880.514 973.646L886.315 951.682H892.215L897.767 973.546L903.419 951.682H908.972ZM912.452 944.444C912.452 943.419 912.799 942.56 913.494 941.866C914.188 941.172 915.047 940.824 916.072 940.824C917.063 940.824 917.906 941.172 918.6 941.866C919.294 942.56 919.641 943.419 919.641 944.444C919.641 945.468 919.294 946.328 918.6 947.022C917.906 947.716 917.063 948.063 916.072 948.063C915.047 948.063 914.188 947.716 913.494 947.022C912.799 946.328 912.452 945.468 912.452 944.444ZM918.848 951.682V979H913.196V951.682H918.848ZM940.646 951.236C942.629 951.236 944.414 951.682 946.001 952.575C947.62 953.467 948.893 954.789 949.818 956.541C950.777 958.293 951.256 960.408 951.256 962.887V979H945.654V963.73C945.654 961.284 945.042 959.416 943.819 958.127C942.596 956.805 940.927 956.144 938.812 956.144C936.697 956.144 935.011 956.805 933.755 958.127C932.532 959.416 931.921 961.284 931.921 963.73V979H926.269V951.682H931.921V955.996C932.813 954.442 934.003 953.269 935.49 952.475C937.011 951.649 938.729 951.236 940.646 951.236ZM969.472 951.236C971.62 951.236 973.504 951.732 975.124 952.723C976.777 953.682 978.049 954.954 978.942 956.541V951.682H984.643V979.446C984.643 981.958 984.114 984.189 983.057 986.139C981.999 988.122 980.462 989.676 978.446 990.8C976.463 991.923 974.083 992.485 971.307 992.485C967.605 992.485 964.531 991.609 962.085 989.858C959.639 988.139 958.251 985.792 957.92 982.818H963.523C963.952 984.239 964.861 985.379 966.249 986.238C967.671 987.131 969.356 987.577 971.307 987.577C973.587 987.577 975.422 986.883 976.81 985.495C978.231 984.107 978.942 982.09 978.942 979.446V973.893C978.016 975.579 976.744 976.934 975.124 977.959C973.504 978.95 971.62 979.446 969.472 979.446C967.092 979.446 964.911 978.851 962.928 977.661C960.978 976.438 959.424 974.753 958.267 972.604C957.144 970.423 956.582 967.961 956.582 965.217C956.582 962.474 957.144 960.044 958.267 957.929C959.424 955.814 960.978 954.178 962.928 953.021C964.911 951.831 967.092 951.236 969.472 951.236ZM970.662 956.144C969.208 956.144 967.853 956.508 966.597 957.235C965.341 957.929 964.316 958.97 963.523 960.358C962.762 961.714 962.382 963.333 962.382 965.217C962.382 967.101 962.762 968.754 963.523 970.175C964.316 971.596 965.341 972.687 966.597 973.447C967.886 974.174 969.241 974.538 970.662 974.538C972.116 974.538 973.471 974.174 974.727 973.447C975.983 972.72 976.992 971.662 977.752 970.274C978.545 968.853 978.942 967.2 978.942 965.316C978.942 963.432 978.545 961.796 977.752 960.408C976.992 959.02 975.983 957.962 974.727 957.235C973.471 956.508 972.116 956.144 970.662 956.144ZM1018.38 956.293H1013.33V979H1007.62V956.293H1004.4V951.682H1007.62V949.749C1007.62 946.609 1008.45 944.328 1010.1 942.907C1011.79 941.452 1014.42 940.725 1017.99 940.725V945.435C1016.27 945.435 1015.06 945.766 1014.37 946.427C1013.67 947.055 1013.33 948.162 1013.33 949.749V951.682H1018.38V956.293ZM1034.4 951.236C1036.55 951.236 1038.43 951.732 1040.05 952.723C1041.7 953.682 1042.98 954.954 1043.87 956.541V951.682H1049.57V979H1043.87V973.893C1042.94 975.579 1041.67 976.934 1040.05 977.959C1038.43 978.95 1036.55 979.446 1034.4 979.446C1032.02 979.446 1029.84 978.851 1027.85 977.661C1025.9 976.438 1024.35 974.753 1023.19 972.604C1022.07 970.423 1021.51 967.961 1021.51 965.217C1021.51 962.474 1022.07 960.044 1023.19 957.929C1024.35 955.814 1025.9 954.178 1027.85 953.021C1029.84 951.831 1032.02 951.236 1034.4 951.236ZM1035.59 956.144C1034.13 956.144 1032.78 956.508 1031.52 957.235C1030.27 957.929 1029.24 958.97 1028.45 960.358C1027.69 961.714 1027.31 963.333 1027.31 965.217C1027.31 967.101 1027.69 968.754 1028.45 970.175C1029.24 971.596 1030.27 972.687 1031.52 973.447C1032.81 974.174 1034.17 974.538 1035.59 974.538C1037.04 974.538 1038.4 974.174 1039.65 973.447C1040.91 972.72 1041.92 971.662 1042.68 970.274C1043.47 968.853 1043.87 967.2 1043.87 965.316C1043.87 963.432 1043.47 961.796 1042.68 960.408C1041.92 959.02 1040.91 957.962 1039.65 957.235C1038.4 956.508 1037.04 956.144 1035.59 956.144ZM1090.56 951.236C1092.61 951.236 1094.44 951.682 1096.06 952.575C1097.68 953.467 1098.95 954.789 1099.88 956.541C1100.84 958.293 1101.32 960.408 1101.32 962.887V979H1095.66V963.73C1095.66 961.284 1095.05 959.416 1093.83 958.127C1092.61 956.805 1090.94 956.144 1088.82 956.144C1086.71 956.144 1085.04 956.805 1083.82 958.127C1082.59 959.416 1081.98 961.284 1081.98 963.73V979H1076.38V963.73C1076.38 961.284 1075.77 959.416 1074.54 958.127C1073.32 956.805 1071.65 956.144 1069.54 956.144C1067.42 956.144 1065.74 956.805 1064.48 958.127C1063.26 959.416 1062.65 961.284 1062.65 963.73V979H1056.99V951.682H1062.65V955.996C1063.54 954.442 1064.73 953.269 1066.21 952.475C1067.74 951.649 1069.45 951.236 1071.37 951.236C1073.49 951.236 1075.37 951.732 1077.02 952.723C1078.68 953.715 1079.93 955.153 1080.79 957.037C1081.75 955.219 1083.07 953.798 1084.76 952.773C1086.48 951.748 1088.41 951.236 1090.56 951.236ZM1107.76 944.444C1107.76 943.419 1108.11 942.56 1108.81 941.866C1109.5 941.172 1110.36 940.824 1111.38 940.824C1112.38 940.824 1113.22 941.172 1113.91 941.866C1114.61 942.56 1114.95 943.419 1114.95 944.444C1114.95 945.468 1114.61 946.328 1113.91 947.022C1113.22 947.716 1112.38 948.063 1111.38 948.063C1110.36 948.063 1109.5 947.716 1108.81 947.022C1108.11 946.328 1107.76 945.468 1107.76 944.444ZM1114.16 951.682V979H1108.51V951.682H1114.16ZM1127.23 942.312V979H1121.58V942.312H1127.23ZM1137.73 951.682L1145.41 972.505L1153.39 951.682H1159.24L1142.49 991.841H1136.64L1142.19 978.554L1131.43 951.682H1137.73ZM1162.22 975.629C1162.22 974.67 1162.53 973.86 1163.16 973.199C1163.82 972.538 1164.63 972.208 1165.59 972.208C1166.55 972.208 1167.36 972.538 1168.02 973.199C1168.68 973.86 1169.01 974.67 1169.01 975.629C1169.01 976.587 1168.68 977.397 1168.02 978.058C1167.36 978.686 1166.55 979 1165.59 979C1164.67 979 1163.87 978.669 1163.21 978.008C1162.55 977.347 1162.22 976.554 1162.22 975.629ZM1234.91 944.543L1224.7 979H1218.3L1211.06 952.922L1203.38 979L1197.03 979.05L1187.27 944.543H1193.26L1200.4 972.604L1208.14 944.543H1214.48L1221.67 972.456L1228.86 944.543H1234.91ZM1253.95 951.236C1255.93 951.236 1257.72 951.682 1259.3 952.575C1260.92 953.467 1262.2 954.789 1263.12 956.541C1264.08 958.293 1264.56 960.408 1264.56 962.887V979H1258.96V963.73C1258.96 961.284 1258.35 959.416 1257.12 958.127C1255.9 956.805 1254.23 956.144 1252.12 956.144C1250 956.144 1248.31 956.805 1247.06 958.127C1245.84 959.416 1245.22 961.284 1245.22 963.73V979H1239.57V942.312H1245.22V955.996C1246.12 954.442 1247.31 953.269 1248.79 952.475C1250.31 951.649 1252.03 951.236 1253.95 951.236ZM1296.81 964.573C1296.81 965.531 1296.74 966.424 1296.61 967.25H1275.69C1275.82 969.53 1276.58 971.348 1277.97 972.704C1279.39 974.026 1281.16 974.687 1283.27 974.687C1286.35 974.687 1288.51 973.414 1289.77 970.869H1295.86C1295.04 973.381 1293.53 975.447 1291.35 977.066C1289.17 978.653 1286.48 979.446 1283.27 979.446C1280.66 979.446 1278.35 978.868 1276.33 977.711C1274.31 976.521 1272.73 974.868 1271.57 972.753C1270.45 970.605 1269.89 968.126 1269.89 965.316C1269.89 962.507 1270.45 960.044 1271.57 957.929C1272.73 955.781 1274.33 954.128 1276.38 952.971C1278.46 951.814 1280.84 951.236 1283.52 951.236C1286.1 951.236 1288.39 951.798 1290.41 952.922C1292.43 954.045 1294 955.615 1295.12 957.632C1296.24 959.648 1296.81 961.961 1296.81 964.573ZM1290.91 963.383C1290.87 961.135 1290.13 959.35 1288.68 958.028C1287.22 956.673 1285.42 955.996 1283.27 955.996C1281.26 955.996 1279.54 956.673 1278.12 958.028C1276.73 959.35 1275.93 961.135 1275.74 963.383H1290.91ZM1308.96 956.293V971.414C1308.96 972.439 1309.19 973.183 1309.66 973.646C1310.15 974.075 1310.98 974.29 1312.14 974.29H1315.61V979H1311.14C1308.6 979 1306.65 978.405 1305.29 977.215C1303.94 976.025 1303.26 974.092 1303.26 971.414V956.293H1300.04V951.682H1303.26V944.89H1308.96V951.682H1315.61V956.293H1308.96ZM1335.19 951.236C1337.18 951.236 1338.96 951.682 1340.55 952.575C1342.17 953.467 1343.44 954.789 1344.37 956.541C1345.32 958.293 1345.8 960.408 1345.8 962.887V979H1340.2V963.73C1340.2 961.284 1339.59 959.416 1338.37 958.127C1337.14 956.805 1335.47 956.144 1333.36 956.144C1331.24 956.144 1329.56 956.805 1328.3 958.127C1327.08 959.416 1326.47 961.284 1326.47 963.73V979H1320.82V942.312H1326.47V955.996C1327.36 954.442 1328.55 953.269 1330.04 952.475C1331.56 951.649 1333.28 951.236 1335.19 951.236ZM1378.05 964.573C1378.05 965.531 1377.98 966.424 1377.85 967.25H1356.93C1357.06 969.53 1357.82 971.348 1359.21 972.704C1360.63 974.026 1362.4 974.687 1364.51 974.687C1367.59 974.687 1369.75 973.414 1371.01 970.869H1377.11C1376.28 973.381 1374.78 975.447 1372.6 977.066C1370.41 978.653 1367.72 979.446 1364.51 979.446C1361.9 979.446 1359.59 978.868 1357.57 977.711C1355.56 976.521 1353.97 974.868 1352.81 972.753C1351.69 970.605 1351.13 968.126 1351.13 965.316C1351.13 962.507 1351.69 960.044 1352.81 957.929C1353.97 955.781 1355.57 954.128 1357.62 952.971C1359.71 951.814 1362.09 951.236 1364.76 951.236C1367.34 951.236 1369.64 951.798 1371.65 952.922C1373.67 954.045 1375.24 955.615 1376.36 957.632C1377.49 959.648 1378.05 961.961 1378.05 964.573ZM1372.15 963.383C1372.12 961.135 1371.37 959.35 1369.92 958.028C1368.46 956.673 1366.66 955.996 1364.51 955.996C1362.5 955.996 1360.78 956.673 1359.36 958.028C1357.97 959.35 1357.18 961.135 1356.98 963.383H1372.15ZM1389.26 956.442C1390.09 954.789 1391.18 953.517 1392.54 952.624C1393.92 951.699 1395.56 951.236 1397.44 951.236V957.086H1396.01C1393.79 957.086 1392.11 957.648 1390.95 958.772C1389.83 959.896 1389.26 961.846 1389.26 964.622V979H1383.61V951.682H1389.26V956.442ZM1420.58 951.682L1428.26 972.505L1436.24 951.682H1442.09L1425.34 991.841H1419.49L1425.04 978.554L1414.28 951.682H1420.58ZM1458.46 951.236C1461.07 951.236 1463.43 951.814 1465.55 952.971C1467.66 954.128 1469.33 955.781 1470.55 957.929C1471.78 960.078 1472.39 962.54 1472.39 965.316C1472.39 968.093 1471.76 970.555 1470.5 972.704C1469.25 974.852 1467.53 976.521 1465.35 977.711C1463.2 978.868 1460.82 979.446 1458.21 979.446C1455.63 979.446 1453.3 978.868 1451.22 977.711C1449.14 976.521 1447.5 974.868 1446.31 972.753C1445.12 970.605 1444.53 968.126 1444.53 965.316C1444.53 962.54 1445.14 960.078 1446.36 957.929C1447.58 955.781 1449.25 954.128 1451.37 952.971C1453.48 951.814 1455.85 951.236 1458.46 951.236ZM1458.36 955.996C1456.9 955.996 1455.56 956.359 1454.34 957.086C1453.12 957.78 1452.13 958.838 1451.37 960.259C1450.64 961.647 1450.28 963.333 1450.28 965.316C1450.28 967.299 1450.62 969.002 1451.32 970.423C1452.04 971.844 1453 972.918 1454.19 973.646C1455.42 974.34 1456.75 974.687 1458.21 974.687C1459.66 974.687 1461.02 974.323 1462.27 973.596C1463.56 972.869 1464.6 971.811 1465.4 970.423C1466.19 969.002 1466.59 967.299 1466.59 965.316C1466.59 963.333 1466.21 961.647 1465.45 960.259C1464.69 958.838 1463.68 957.78 1462.42 957.086C1461.17 956.359 1459.81 955.996 1458.36 955.996ZM1502.72 951.682V979H1497.06V974.687C1496.17 976.24 1494.96 977.413 1493.44 978.207C1491.96 979 1490.25 979.397 1488.34 979.397C1486.35 979.397 1484.55 978.95 1482.93 978.058C1481.35 977.166 1480.07 975.86 1479.12 974.141C1478.19 972.39 1477.73 970.274 1477.73 967.795V951.682H1483.33V966.952C1483.33 969.398 1483.94 971.282 1485.16 972.604C1486.39 973.893 1488.06 974.538 1490.17 974.538C1492.29 974.538 1493.96 973.893 1495.18 972.604C1496.44 971.282 1497.06 969.398 1497.06 966.952V951.682H1502.72ZM1513 939.337C1513.46 941.056 1513.69 942.708 1513.69 944.295C1513.69 948.393 1511.84 950.443 1508.14 950.443V948.013C1509.73 948.013 1510.52 947.071 1510.52 945.187V944.146H1507.89V939.337H1513ZM1524.49 956.442C1525.32 954.789 1526.41 953.517 1527.76 952.624C1529.15 951.699 1530.79 951.236 1532.67 951.236V957.086H1531.23C1529.02 957.086 1527.33 957.648 1526.18 958.772C1525.05 959.896 1524.49 961.846 1524.49 964.622V979H1518.84V951.682H1524.49V956.442ZM1562.9 964.573C1562.9 965.531 1562.84 966.424 1562.71 967.25H1541.78C1541.92 969.53 1542.68 971.348 1544.06 972.704C1545.49 974.026 1547.25 974.687 1549.37 974.687C1552.44 974.687 1554.61 973.414 1555.86 970.869H1561.96C1561.14 973.381 1559.63 975.447 1557.45 977.066C1555.27 978.653 1552.58 979.446 1549.37 979.446C1546.76 979.446 1544.44 978.868 1542.43 977.711C1540.41 976.521 1538.83 974.868 1537.67 972.753C1536.54 970.605 1535.98 968.126 1535.98 965.316C1535.98 962.507 1536.54 960.044 1537.67 957.929C1538.83 955.781 1540.43 954.128 1542.48 952.971C1544.56 951.814 1546.94 951.236 1549.62 951.236C1552.2 951.236 1554.49 951.798 1556.51 952.922C1558.52 954.045 1560.09 955.615 1561.22 957.632C1562.34 959.648 1562.9 961.961 1562.9 964.573ZM1557 963.383C1556.97 961.135 1556.23 959.35 1554.77 958.028C1553.32 956.673 1551.52 955.996 1549.37 955.996C1547.35 955.996 1545.63 956.673 1544.21 958.028C1542.82 959.35 1542.03 961.135 1541.83 963.383H1557ZM1588.98 942.312V979H1583.33V942.312H1588.98ZM1608.5 951.236C1611.11 951.236 1613.47 951.814 1615.59 952.971C1617.7 954.128 1619.37 955.781 1620.6 957.929C1621.82 960.078 1622.43 962.54 1622.43 965.316C1622.43 968.093 1621.8 970.555 1620.55 972.704C1619.29 974.852 1617.57 976.521 1615.39 977.711C1613.24 978.868 1610.86 979.446 1608.25 979.446C1605.67 979.446 1603.34 978.868 1601.26 977.711C1599.18 976.521 1597.54 974.868 1596.35 972.753C1595.16 970.605 1594.57 968.126 1594.57 965.316C1594.57 962.54 1595.18 960.078 1596.4 957.929C1597.63 955.781 1599.29 954.128 1601.41 952.971C1603.53 951.814 1605.89 951.236 1608.5 951.236ZM1608.4 955.996C1606.95 955.996 1605.61 956.359 1604.38 957.086C1603.16 957.78 1602.17 958.838 1601.41 960.259C1600.68 961.647 1600.32 963.333 1600.32 965.316C1600.32 967.299 1600.67 969.002 1601.36 970.423C1602.09 971.844 1603.05 972.918 1604.24 973.646C1605.46 974.34 1606.8 974.687 1608.25 974.687C1609.71 974.687 1611.06 974.323 1612.32 973.596C1613.61 972.869 1614.65 971.811 1615.44 970.423C1616.23 969.002 1616.63 967.299 1616.63 965.316C1616.63 963.333 1616.25 961.647 1615.49 960.259C1614.73 958.838 1613.72 957.78 1612.47 957.086C1611.21 956.359 1609.86 955.996 1608.4 955.996ZM1640.12 951.236C1642.73 951.236 1645.09 951.814 1647.21 952.971C1649.32 954.128 1650.99 955.781 1652.21 957.929C1653.44 960.078 1654.05 962.54 1654.05 965.316C1654.05 968.093 1653.42 970.555 1652.16 972.704C1650.91 974.852 1649.19 976.521 1647.01 977.711C1644.86 978.868 1642.48 979.446 1639.87 979.446C1637.29 979.446 1634.96 978.868 1632.88 977.711C1630.8 976.521 1629.16 974.868 1627.97 972.753C1626.78 970.605 1626.18 968.126 1626.18 965.316C1626.18 962.54 1626.8 960.078 1628.02 957.929C1629.24 955.781 1630.91 954.128 1633.03 952.971C1635.14 951.814 1637.5 951.236 1640.12 951.236ZM1640.02 955.996C1638.56 955.996 1637.22 956.359 1636 957.086C1634.78 957.78 1633.79 958.838 1633.03 960.259C1632.3 961.647 1631.94 963.333 1631.94 965.316C1631.94 967.299 1632.28 969.002 1632.98 970.423C1633.7 971.844 1634.66 972.918 1635.85 973.646C1637.08 974.34 1638.41 974.687 1639.87 974.687C1641.32 974.687 1642.68 974.323 1643.93 973.596C1645.22 972.869 1646.26 971.811 1647.06 970.423C1647.85 969.002 1648.25 967.299 1648.25 965.316C1648.25 963.333 1647.87 961.647 1647.11 960.259C1646.35 958.838 1645.34 957.78 1644.08 957.086C1642.83 956.359 1641.47 955.996 1640.02 955.996ZM1670.44 965.366L1683.04 979H1675.4L1665.29 967.25V979H1659.63V942.312H1665.29V963.631L1675.2 951.682H1683.04L1670.44 965.366ZM1686.34 944.444C1686.34 943.419 1686.69 942.56 1687.38 941.866C1688.08 941.172 1688.94 940.824 1689.96 940.824C1690.95 940.824 1691.8 941.172 1692.49 941.866C1693.18 942.56 1693.53 943.419 1693.53 944.444C1693.53 945.468 1693.18 946.328 1692.49 947.022C1691.8 947.716 1690.95 948.063 1689.96 948.063C1688.94 948.063 1688.08 947.716 1687.38 947.022C1686.69 946.328 1686.34 945.468 1686.34 944.444ZM1692.74 951.682V979H1687.09V951.682H1692.74ZM1714.54 951.236C1716.52 951.236 1718.31 951.682 1719.89 952.575C1721.51 953.467 1722.78 954.789 1723.71 956.541C1724.67 958.293 1725.15 960.408 1725.15 962.887V979H1719.54V963.73C1719.54 961.284 1718.93 959.416 1717.71 958.127C1716.49 956.805 1714.82 956.144 1712.7 956.144C1710.59 956.144 1708.9 956.805 1707.65 958.127C1706.42 959.416 1705.81 961.284 1705.81 963.73V979H1700.16V951.682H1705.81V955.996C1706.7 954.442 1707.89 953.269 1709.38 952.475C1710.9 951.649 1712.62 951.236 1714.54 951.236ZM1743.36 951.236C1745.51 951.236 1747.4 951.732 1749.01 952.723C1750.67 953.682 1751.94 954.954 1752.83 956.541V951.682H1758.53V979.446C1758.53 981.958 1758 984.189 1756.95 986.139C1755.89 988.122 1754.35 989.676 1752.34 990.8C1750.35 991.923 1747.97 992.485 1745.2 992.485C1741.5 992.485 1738.42 991.609 1735.98 989.858C1733.53 988.139 1732.14 985.792 1731.81 982.818H1737.41C1737.84 984.239 1738.75 985.379 1740.14 986.238C1741.56 987.131 1743.25 987.577 1745.2 987.577C1747.48 987.577 1749.31 986.883 1750.7 985.495C1752.12 984.107 1752.83 982.09 1752.83 979.446V973.893C1751.91 975.579 1750.63 976.934 1749.01 977.959C1747.4 978.95 1745.51 979.446 1743.36 979.446C1740.98 979.446 1738.8 978.851 1736.82 977.661C1734.87 976.438 1733.31 974.753 1732.16 972.604C1731.03 970.423 1730.47 967.961 1730.47 965.217C1730.47 962.474 1731.03 960.044 1732.16 957.929C1733.31 955.814 1734.87 954.178 1736.82 953.021C1738.8 951.831 1740.98 951.236 1743.36 951.236ZM1744.55 956.144C1743.1 956.144 1741.74 956.508 1740.49 957.235C1739.23 957.929 1738.21 958.97 1737.41 960.358C1736.65 961.714 1736.27 963.333 1736.27 965.217C1736.27 967.101 1736.65 968.754 1737.41 970.175C1738.21 971.596 1739.23 972.687 1740.49 973.447C1741.78 974.174 1743.13 974.538 1744.55 974.538C1746.01 974.538 1747.36 974.174 1748.62 973.447C1749.87 972.72 1750.88 971.662 1751.64 970.274C1752.44 968.853 1752.83 967.2 1752.83 965.316C1752.83 963.432 1752.44 961.796 1751.64 960.408C1750.88 959.02 1749.87 957.962 1748.62 957.235C1747.36 956.508 1746.01 956.144 1744.55 956.144ZM309.91 1048.29V1063.41C309.91 1064.44 310.142 1065.18 310.605 1065.65C311.1 1066.08 311.927 1066.29 313.084 1066.29H316.554V1071H312.092C309.547 1071 307.597 1070.41 306.242 1069.22C304.887 1068.03 304.209 1066.09 304.209 1063.41V1048.29H300.986V1043.68H304.209V1036.89H309.91V1043.68H316.554V1048.29H309.91ZM333.86 1043.24C336.472 1043.24 338.835 1043.81 340.95 1044.97C343.066 1046.13 344.735 1047.78 345.958 1049.93C347.181 1052.08 347.792 1054.54 347.792 1057.32C347.792 1060.09 347.164 1062.56 345.908 1064.7C344.652 1066.85 342.933 1068.52 340.752 1069.71C338.603 1070.87 336.224 1071.45 333.613 1071.45C331.034 1071.45 328.704 1070.87 326.622 1069.71C324.54 1068.52 322.904 1066.87 321.714 1064.75C320.524 1062.6 319.929 1060.13 319.929 1057.32C319.929 1054.54 320.54 1052.08 321.763 1049.93C322.986 1047.78 324.655 1046.13 326.771 1044.97C328.886 1043.81 331.249 1043.24 333.86 1043.24ZM333.761 1048C332.307 1048 330.968 1048.36 329.745 1049.09C328.522 1049.78 327.531 1050.84 326.771 1052.26C326.044 1053.65 325.68 1055.33 325.68 1057.32C325.68 1059.3 326.027 1061 326.721 1062.42C327.448 1063.84 328.407 1064.92 329.597 1065.65C330.82 1066.34 332.158 1066.69 333.613 1066.69C335.067 1066.69 336.422 1066.32 337.678 1065.6C338.967 1064.87 340.008 1063.81 340.801 1062.42C341.595 1061 341.991 1059.3 341.991 1057.32C341.991 1055.33 341.611 1053.65 340.851 1052.26C340.091 1050.84 339.083 1049.78 337.827 1049.09C336.571 1048.36 335.216 1048 333.761 1048ZM367.5 1036.44C367.5 1035.42 367.847 1034.56 368.541 1033.87C369.235 1033.17 370.094 1032.82 371.119 1032.82C372.11 1032.82 372.953 1033.17 373.647 1033.87C374.341 1034.56 374.688 1035.42 374.688 1036.44C374.688 1037.47 374.341 1038.33 373.647 1039.02C372.953 1039.72 372.11 1040.06 371.119 1040.06C370.094 1040.06 369.235 1039.72 368.541 1039.02C367.847 1038.33 367.5 1037.47 367.5 1036.44ZM373.895 1076.35C373.895 1079.03 373.218 1080.97 371.862 1082.16C370.54 1083.38 368.607 1083.99 366.062 1083.99H363.137V1079.23H365.07C366.227 1079.23 367.037 1079 367.5 1078.54C367.995 1078.11 368.243 1077.38 368.243 1076.35V1043.68H373.895V1076.35ZM393.413 1043.24C396.024 1043.24 398.387 1043.81 400.503 1044.97C402.618 1046.13 404.287 1047.78 405.51 1049.93C406.733 1052.08 407.344 1054.54 407.344 1057.32C407.344 1060.09 406.716 1062.56 405.46 1064.7C404.204 1066.85 402.486 1068.52 400.304 1069.71C398.156 1070.87 395.776 1071.45 393.165 1071.45C390.587 1071.45 388.257 1070.87 386.174 1069.71C384.092 1068.52 382.456 1066.87 381.266 1064.75C380.076 1062.6 379.481 1060.13 379.481 1057.32C379.481 1054.54 380.093 1052.08 381.316 1049.93C382.539 1047.78 384.208 1046.13 386.323 1044.97C388.438 1043.81 390.802 1043.24 393.413 1043.24ZM393.314 1048C391.859 1048 390.521 1048.36 389.298 1049.09C388.075 1049.78 387.083 1050.84 386.323 1052.26C385.596 1053.65 385.232 1055.33 385.232 1057.32C385.232 1059.3 385.579 1061 386.274 1062.42C387.001 1063.84 387.959 1064.92 389.149 1065.65C390.372 1066.34 391.711 1066.69 393.165 1066.69C394.619 1066.69 395.974 1066.32 397.23 1065.6C398.519 1064.87 399.561 1063.81 400.354 1062.42C401.147 1061 401.544 1059.3 401.544 1057.32C401.544 1055.33 401.164 1053.65 400.403 1052.26C399.643 1050.84 398.635 1049.78 397.379 1049.09C396.123 1048.36 394.768 1048 393.314 1048ZM412.188 1036.44C412.188 1035.42 412.535 1034.56 413.229 1033.87C413.923 1033.17 414.783 1032.82 415.807 1032.82C416.799 1032.82 417.642 1033.17 418.336 1033.87C419.03 1034.56 419.377 1035.42 419.377 1036.44C419.377 1037.47 419.03 1038.33 418.336 1039.02C417.642 1039.72 416.799 1040.06 415.807 1040.06C414.783 1040.06 413.923 1039.72 413.229 1039.02C412.535 1038.33 412.188 1037.47 412.188 1036.44ZM418.584 1043.68V1071H412.932V1043.68H418.584ZM440.382 1043.24C442.365 1043.24 444.15 1043.68 445.736 1044.57C447.356 1045.47 448.629 1046.79 449.554 1048.54C450.513 1050.29 450.992 1052.41 450.992 1054.89V1071H445.389V1055.73C445.389 1053.28 444.778 1051.42 443.555 1050.13C442.332 1048.81 440.663 1048.14 438.548 1048.14C436.432 1048.14 434.747 1048.81 433.491 1050.13C432.268 1051.42 431.656 1053.28 431.656 1055.73V1071H426.004V1043.68H431.656V1048C432.549 1046.44 433.738 1045.27 435.226 1044.48C436.746 1043.65 438.465 1043.24 440.382 1043.24ZM485.162 1043.24C487.773 1043.24 490.137 1043.81 492.252 1044.97C494.367 1046.13 496.037 1047.78 497.259 1049.93C498.482 1052.08 499.094 1054.54 499.094 1057.32C499.094 1060.09 498.466 1062.56 497.21 1064.7C495.954 1066.85 494.235 1068.52 492.054 1069.71C489.905 1070.87 487.526 1071.45 484.914 1071.45C482.336 1071.45 480.006 1070.87 477.924 1069.71C475.842 1068.52 474.205 1066.87 473.016 1064.75C471.826 1062.6 471.231 1060.13 471.231 1057.32C471.231 1054.54 471.842 1052.08 473.065 1049.93C474.288 1047.78 475.957 1046.13 478.073 1044.97C480.188 1043.81 482.551 1043.24 485.162 1043.24ZM485.063 1048C483.609 1048 482.27 1048.36 481.047 1049.09C479.824 1049.78 478.833 1050.84 478.073 1052.26C477.345 1053.65 476.982 1055.33 476.982 1057.32C476.982 1059.3 477.329 1061 478.023 1062.42C478.75 1063.84 479.709 1064.92 480.899 1065.65C482.121 1066.34 483.46 1066.69 484.914 1066.69C486.369 1066.69 487.724 1066.32 488.98 1065.6C490.269 1064.87 491.31 1063.81 492.103 1062.42C492.897 1061 493.293 1059.3 493.293 1057.32C493.293 1055.33 492.913 1053.65 492.153 1052.26C491.393 1050.84 490.385 1049.78 489.129 1049.09C487.873 1048.36 486.517 1048 485.063 1048ZM529.421 1043.68V1071H523.769V1066.69C522.876 1068.24 521.67 1069.41 520.15 1070.21C518.662 1071 516.96 1071.4 515.043 1071.4C513.06 1071.4 511.259 1070.95 509.639 1070.06C508.052 1069.17 506.78 1067.86 505.821 1066.14C504.896 1064.39 504.433 1062.27 504.433 1059.8V1043.68H510.036V1058.95C510.036 1061.4 510.647 1063.28 511.87 1064.6C513.093 1065.89 514.762 1066.54 516.877 1066.54C518.993 1066.54 520.662 1065.89 521.885 1064.6C523.141 1063.28 523.769 1061.4 523.769 1058.95V1043.68H529.421ZM542.53 1048.44C543.356 1046.79 544.447 1045.52 545.802 1044.62C547.191 1043.7 548.827 1043.24 550.711 1043.24V1049.09H549.273C547.058 1049.09 545.373 1049.65 544.216 1050.77C543.092 1051.9 542.53 1053.85 542.53 1056.62V1071H536.878V1043.68H542.53V1048.44ZM577.364 1048.29V1063.41C577.364 1064.44 577.595 1065.18 578.058 1065.65C578.554 1066.08 579.38 1066.29 580.537 1066.29H584.007V1071H579.545C577 1071 575.05 1070.41 573.695 1069.22C572.34 1068.03 571.662 1066.09 571.662 1063.41V1048.29H568.44V1043.68H571.662V1036.89H577.364V1043.68H584.007V1048.29H577.364ZM614.254 1056.57C614.254 1057.53 614.188 1058.42 614.055 1059.25H593.133C593.265 1061.53 594.026 1063.35 595.414 1064.7C596.835 1066.03 598.603 1066.69 600.719 1066.69C603.793 1066.69 605.958 1065.41 607.214 1062.87H613.312C612.485 1065.38 610.982 1067.45 608.8 1069.07C606.619 1070.65 603.925 1071.45 600.719 1071.45C598.108 1071.45 595.794 1070.87 593.778 1069.71C591.762 1068.52 590.175 1066.87 589.018 1064.75C587.894 1062.6 587.333 1060.13 587.333 1057.32C587.333 1054.51 587.894 1052.04 589.018 1049.93C590.175 1047.78 591.778 1046.13 593.827 1044.97C595.91 1043.81 598.289 1043.24 600.967 1043.24C603.545 1043.24 605.842 1043.8 607.858 1044.92C609.874 1046.05 611.444 1047.62 612.568 1049.63C613.692 1051.65 614.254 1053.96 614.254 1056.57ZM608.354 1055.38C608.321 1053.14 607.577 1051.35 606.123 1050.03C604.668 1048.67 602.867 1048 600.719 1048C598.703 1048 596.984 1048.67 595.563 1050.03C594.174 1051.35 593.381 1053.14 593.183 1055.38H608.354ZM630.822 1043.24C632.971 1043.24 634.855 1043.73 636.474 1044.72C638.127 1045.68 639.399 1046.95 640.292 1048.54V1043.68H645.993V1071H640.292V1065.89C639.366 1067.58 638.094 1068.93 636.474 1069.96C634.855 1070.95 632.971 1071.45 630.822 1071.45C628.442 1071.45 626.261 1070.85 624.278 1069.66C622.328 1068.44 620.774 1066.75 619.617 1064.6C618.494 1062.42 617.932 1059.96 617.932 1057.22C617.932 1054.47 618.494 1052.04 619.617 1049.93C620.774 1047.81 622.328 1046.18 624.278 1045.02C626.261 1043.83 628.442 1043.24 630.822 1043.24ZM632.012 1048.14C630.558 1048.14 629.203 1048.51 627.947 1049.23C626.691 1049.93 625.666 1050.97 624.873 1052.36C624.113 1053.71 623.732 1055.33 623.732 1057.22C623.732 1059.1 624.113 1060.75 624.873 1062.18C625.666 1063.6 626.691 1064.69 627.947 1065.45C629.236 1066.17 630.591 1066.54 632.012 1066.54C633.466 1066.54 634.822 1066.17 636.078 1065.45C637.334 1064.72 638.342 1063.66 639.102 1062.27C639.895 1060.85 640.292 1059.2 640.292 1057.32C640.292 1055.43 639.895 1053.8 639.102 1052.41C638.342 1051.02 637.334 1049.96 636.078 1049.23C634.822 1048.51 633.466 1048.14 632.012 1048.14ZM686.982 1043.24C689.031 1043.24 690.865 1043.68 692.485 1044.57C694.104 1045.47 695.377 1046.79 696.302 1048.54C697.261 1050.29 697.74 1052.41 697.74 1054.89V1071H692.088V1055.73C692.088 1053.28 691.477 1051.42 690.254 1050.13C689.031 1048.81 687.362 1048.14 685.246 1048.14C683.131 1048.14 681.462 1048.81 680.239 1050.13C679.016 1051.42 678.404 1053.28 678.404 1055.73V1071H672.802V1055.73C672.802 1053.28 672.191 1051.42 670.968 1050.13C669.745 1048.81 668.076 1048.14 665.96 1048.14C663.845 1048.14 662.159 1048.81 660.903 1050.13C659.68 1051.42 659.069 1053.28 659.069 1055.73V1071H653.417V1043.68H659.069V1048C659.961 1046.44 661.151 1045.27 662.638 1044.48C664.159 1043.65 665.878 1043.24 667.795 1043.24C669.91 1043.24 671.794 1043.73 673.447 1044.72C675.099 1045.71 676.355 1047.15 677.215 1049.04C678.173 1047.22 679.495 1045.8 681.181 1044.77C682.9 1043.75 684.833 1043.24 686.982 1043.24ZM708.353 1067.13C708.948 1069.25 709.245 1071.02 709.245 1072.44C709.245 1074.42 708.766 1075.96 707.808 1077.05C706.849 1078.14 705.395 1078.68 703.445 1078.68V1076.21C704.271 1076.21 704.866 1076.01 705.23 1075.61C705.626 1075.21 705.825 1074.55 705.825 1073.63V1072.59H702.999V1067.13H708.353ZM741.915 1043.24C744.527 1043.24 746.89 1043.81 749.005 1044.97C751.121 1046.13 752.79 1047.78 754.013 1049.93C755.236 1052.08 755.847 1054.54 755.847 1057.32C755.847 1060.09 755.219 1062.56 753.963 1064.7C752.707 1066.85 750.988 1068.52 748.807 1069.71C746.658 1070.87 744.279 1071.45 741.668 1071.45C739.089 1071.45 736.759 1070.87 734.677 1069.71C732.595 1068.52 730.959 1066.87 729.769 1064.75C728.579 1062.6 727.984 1060.13 727.984 1057.32C727.984 1054.54 728.595 1052.08 729.818 1049.93C731.041 1047.78 732.71 1046.13 734.826 1044.97C736.941 1043.81 739.304 1043.24 741.915 1043.24ZM741.816 1048C740.362 1048 739.023 1048.36 737.8 1049.09C736.577 1049.78 735.586 1050.84 734.826 1052.26C734.099 1053.65 733.735 1055.33 733.735 1057.32C733.735 1059.3 734.082 1061 734.776 1062.42C735.503 1063.84 736.462 1064.92 737.652 1065.65C738.875 1066.34 740.213 1066.69 741.668 1066.69C743.122 1066.69 744.477 1066.32 745.733 1065.6C747.022 1064.87 748.063 1063.81 748.856 1062.42C749.65 1061 750.046 1059.3 750.046 1057.32C750.046 1055.33 749.666 1053.65 748.906 1052.26C748.146 1050.84 747.138 1049.78 745.882 1049.09C744.626 1048.36 743.271 1048 741.816 1048ZM767.086 1048.44C767.913 1046.79 769.003 1045.52 770.358 1044.62C771.747 1043.7 773.383 1043.24 775.267 1043.24V1049.09H773.829C771.614 1049.09 769.929 1049.65 768.772 1050.77C767.648 1051.9 767.086 1053.85 767.086 1056.62V1071H761.434V1043.68H767.086V1048.44ZM804.895 1043.24C807.935 1043.24 810.381 1044.03 812.232 1045.62C814.116 1047.17 815.124 1049.3 815.257 1052.01H809.456C809.357 1050.66 808.877 1049.6 808.018 1048.84C807.192 1048.08 806.018 1047.7 804.498 1047.7C802.978 1047.7 801.788 1048.05 800.928 1048.74C800.069 1049.4 799.639 1050.26 799.639 1051.32C799.639 1052.18 799.92 1052.87 800.482 1053.4C801.044 1053.93 801.755 1054.34 802.614 1054.64C803.506 1054.9 804.696 1055.2 806.184 1055.53C808.2 1055.99 809.819 1056.46 811.042 1056.92C812.298 1057.38 813.373 1058.14 814.265 1059.2C815.157 1060.22 815.604 1061.63 815.604 1063.41C815.604 1064.97 815.141 1066.36 814.215 1067.58C813.323 1068.8 812.067 1069.76 810.447 1070.45C808.828 1071.12 806.993 1071.45 804.944 1071.45C801.771 1071.45 799.21 1070.69 797.259 1069.17C795.309 1067.65 794.235 1065.48 794.037 1062.67H799.887C799.986 1064.03 800.482 1065.08 801.374 1065.84C802.267 1066.6 803.457 1066.98 804.944 1066.98C806.531 1066.98 807.77 1066.65 808.663 1065.99C809.588 1065.3 810.051 1064.41 810.051 1063.32C810.051 1062.42 809.753 1061.71 809.158 1061.18C808.596 1060.65 807.869 1060.26 806.977 1059.99C806.084 1059.7 804.878 1059.38 803.358 1059.05C801.374 1058.59 799.771 1058.14 798.549 1057.71C797.326 1057.25 796.268 1056.52 795.375 1055.53C794.516 1054.54 794.086 1053.2 794.086 1051.52C794.086 1050 794.516 1048.61 795.375 1047.35C796.235 1046.1 797.474 1045.1 799.094 1044.38C800.746 1043.62 802.68 1043.24 804.895 1043.24ZM821.066 1036.44C821.066 1035.42 821.413 1034.56 822.107 1033.87C822.801 1033.17 823.661 1032.82 824.685 1032.82C825.677 1032.82 826.52 1033.17 827.214 1033.87C827.908 1034.56 828.255 1035.42 828.255 1036.44C828.255 1037.47 827.908 1038.33 827.214 1039.02C826.52 1039.72 825.677 1040.06 824.685 1040.06C823.661 1040.06 822.801 1039.72 822.107 1039.02C821.413 1038.33 821.066 1037.47 821.066 1036.44ZM827.462 1043.68V1071H821.81V1043.68H827.462ZM845.889 1043.24C848.037 1043.24 849.921 1043.73 851.541 1044.72C853.193 1045.68 854.466 1046.95 855.358 1048.54V1043.68H861.06V1071.45C861.06 1073.96 860.531 1076.19 859.473 1078.14C858.416 1080.12 856.879 1081.68 854.862 1082.8C852.879 1083.92 850.5 1084.49 847.723 1084.49C844.021 1084.49 840.947 1083.61 838.502 1081.86C836.056 1080.14 834.667 1077.79 834.337 1074.82H839.939C840.369 1076.24 841.278 1077.38 842.666 1078.24C844.087 1079.13 845.773 1079.58 847.723 1079.58C850.004 1079.58 851.838 1078.88 853.226 1077.49C854.648 1076.11 855.358 1074.09 855.358 1071.45V1065.89C854.433 1067.58 853.16 1068.93 851.541 1069.96C849.921 1070.95 848.037 1071.45 845.889 1071.45C843.509 1071.45 841.327 1070.85 839.344 1069.66C837.394 1068.44 835.841 1066.75 834.684 1064.6C833.56 1062.42 832.998 1059.96 832.998 1057.22C832.998 1054.47 833.56 1052.04 834.684 1049.93C835.841 1047.81 837.394 1046.18 839.344 1045.02C841.327 1043.83 843.509 1043.24 845.889 1043.24ZM847.079 1048.14C845.624 1048.14 844.269 1048.51 843.013 1049.23C841.757 1049.93 840.733 1050.97 839.939 1052.36C839.179 1053.71 838.799 1055.33 838.799 1057.22C838.799 1059.1 839.179 1060.75 839.939 1062.18C840.733 1063.6 841.757 1064.69 843.013 1065.45C844.302 1066.17 845.657 1066.54 847.079 1066.54C848.533 1066.54 849.888 1066.17 851.144 1065.45C852.4 1064.72 853.408 1063.66 854.168 1062.27C854.962 1060.85 855.358 1059.2 855.358 1057.32C855.358 1055.43 854.962 1053.8 854.168 1052.41C853.408 1051.02 852.4 1049.96 851.144 1049.23C849.888 1048.51 848.533 1048.14 847.079 1048.14ZM882.861 1043.24C884.844 1043.24 886.629 1043.68 888.216 1044.57C889.835 1045.47 891.108 1046.79 892.033 1048.54C892.992 1050.29 893.471 1052.41 893.471 1054.89V1071H887.869V1055.73C887.869 1053.28 887.257 1051.42 886.034 1050.13C884.811 1048.81 883.142 1048.14 881.027 1048.14C878.911 1048.14 877.226 1048.81 875.97 1050.13C874.747 1051.42 874.135 1053.28 874.135 1055.73V1071H868.483V1043.68H874.135V1048C875.028 1046.44 876.218 1045.27 877.705 1044.48C879.225 1043.65 880.944 1043.24 882.861 1043.24ZM940.284 1043.68V1071H934.632V1066.69C933.74 1068.24 932.533 1069.41 931.013 1070.21C929.525 1071 927.823 1071.4 925.906 1071.4C923.923 1071.4 922.122 1070.95 920.502 1070.06C918.916 1069.17 917.643 1067.86 916.685 1066.14C915.759 1064.39 915.296 1062.27 915.296 1059.8V1043.68H920.899V1058.95C920.899 1061.4 921.51 1063.28 922.733 1064.6C923.956 1065.89 925.625 1066.54 927.741 1066.54C929.856 1066.54 931.525 1065.89 932.748 1064.6C934.004 1063.28 934.632 1061.4 934.632 1058.95V1043.68H940.284ZM962.912 1043.24C965.292 1043.24 967.457 1043.83 969.407 1045.02C971.39 1046.18 972.944 1047.81 974.068 1049.93C975.191 1052.04 975.753 1054.47 975.753 1057.22C975.753 1059.96 975.191 1062.42 974.068 1064.6C972.944 1066.75 971.39 1068.44 969.407 1069.66C967.457 1070.85 965.292 1071.45 962.912 1071.45C960.764 1071.45 958.88 1070.95 957.26 1069.96C955.641 1068.93 954.352 1067.58 953.393 1065.89V1083.99H947.741V1043.68H953.393V1048.54C954.319 1046.95 955.591 1045.68 957.211 1044.72C958.863 1043.73 960.764 1043.24 962.912 1043.24ZM961.673 1048.14C960.252 1048.14 958.897 1048.51 957.607 1049.23C956.351 1049.96 955.327 1051.02 954.534 1052.41C953.773 1053.8 953.393 1055.43 953.393 1057.32C953.393 1059.2 953.773 1060.85 954.534 1062.27C955.327 1063.66 956.351 1064.72 957.607 1065.45C958.897 1066.17 960.252 1066.54 961.673 1066.54C963.127 1066.54 964.482 1066.17 965.738 1065.45C967.027 1064.69 968.052 1063.6 968.812 1062.18C969.606 1060.75 970.002 1059.1 970.002 1057.22C970.002 1055.33 969.606 1053.71 968.812 1052.36C968.052 1050.97 967.027 1049.93 965.738 1049.23C964.482 1048.51 963.127 1048.14 961.673 1048.14ZM1032.89 1043.68L1024.42 1071H1018.47L1012.96 1050.82L1007.46 1071H1001.51L992.984 1043.68H998.735L1004.44 1065.65L1010.24 1043.68H1016.14L1021.69 1065.55L1027.34 1043.68H1032.89ZM1036.37 1036.44C1036.37 1035.42 1036.72 1034.56 1037.42 1033.87C1038.11 1033.17 1038.97 1032.82 1039.99 1032.82C1040.99 1032.82 1041.83 1033.17 1042.52 1033.87C1043.22 1034.56 1043.56 1035.42 1043.56 1036.44C1043.56 1037.47 1043.22 1038.33 1042.52 1039.02C1041.83 1039.72 1040.99 1040.06 1039.99 1040.06C1038.97 1040.06 1038.11 1039.72 1037.42 1039.02C1036.72 1038.33 1036.37 1037.47 1036.37 1036.44ZM1042.77 1043.68V1071H1037.12V1043.68H1042.77ZM1056.78 1048.29V1063.41C1056.78 1064.44 1057.02 1065.18 1057.48 1065.65C1057.97 1066.08 1058.8 1066.29 1059.96 1066.29H1063.43V1071H1058.97C1056.42 1071 1054.47 1070.41 1053.12 1069.22C1051.76 1068.03 1051.08 1066.09 1051.08 1063.41V1048.29H1047.86V1043.68H1051.08V1036.89H1056.78V1043.68H1063.43V1048.29H1056.78ZM1083.02 1043.24C1085 1043.24 1086.78 1043.68 1088.37 1044.57C1089.99 1045.47 1091.26 1046.79 1092.19 1048.54C1093.15 1050.29 1093.63 1052.41 1093.63 1054.89V1071H1088.02V1055.73C1088.02 1053.28 1087.41 1051.42 1086.19 1050.13C1084.97 1048.81 1083.3 1048.14 1081.18 1048.14C1079.07 1048.14 1077.38 1048.81 1076.12 1050.13C1074.9 1051.42 1074.29 1053.28 1074.29 1055.73V1071H1068.64V1034.31H1074.29V1048C1075.18 1046.44 1076.37 1045.27 1077.86 1044.48C1079.38 1043.65 1081.1 1043.24 1083.02 1043.24ZM1140.44 1043.68V1071H1134.79V1066.69C1133.89 1068.24 1132.69 1069.41 1131.17 1070.21C1129.68 1071 1127.98 1071.4 1126.06 1071.4C1124.08 1071.4 1122.28 1070.95 1120.66 1070.06C1119.07 1069.17 1117.8 1067.86 1116.84 1066.14C1115.91 1064.39 1115.45 1062.27 1115.45 1059.8V1043.68H1121.05V1058.95C1121.05 1061.4 1121.66 1063.28 1122.89 1064.6C1124.11 1065.89 1125.78 1066.54 1127.89 1066.54C1130.01 1066.54 1131.68 1065.89 1132.9 1064.6C1134.16 1063.28 1134.79 1061.4 1134.79 1058.95V1043.68H1140.44ZM1157.46 1043.24C1160.51 1043.24 1162.95 1044.03 1164.8 1045.62C1166.69 1047.17 1167.69 1049.3 1167.83 1052.01H1162.03C1161.93 1050.66 1161.45 1049.6 1160.59 1048.84C1159.76 1048.08 1158.59 1047.7 1157.07 1047.7C1155.55 1047.7 1154.36 1048.05 1153.5 1048.74C1152.64 1049.4 1152.21 1050.26 1152.21 1051.32C1152.21 1052.18 1152.49 1052.87 1153.05 1053.4C1153.61 1053.93 1154.32 1054.34 1155.18 1054.64C1156.08 1054.9 1157.27 1055.2 1158.75 1055.53C1160.77 1055.99 1162.39 1056.46 1163.61 1056.92C1164.87 1057.38 1165.94 1058.14 1166.83 1059.2C1167.73 1060.22 1168.17 1061.63 1168.17 1063.41C1168.17 1064.97 1167.71 1066.36 1166.78 1067.58C1165.89 1068.8 1164.64 1069.76 1163.02 1070.45C1161.4 1071.12 1159.56 1071.45 1157.51 1071.45C1154.34 1071.45 1151.78 1070.69 1149.83 1069.17C1147.88 1067.65 1146.8 1065.48 1146.61 1062.67H1152.46C1152.56 1064.03 1153.05 1065.08 1153.94 1065.84C1154.84 1066.6 1156.03 1066.98 1157.51 1066.98C1159.1 1066.98 1160.34 1066.65 1161.23 1065.99C1162.16 1065.3 1162.62 1064.41 1162.62 1063.32C1162.62 1062.42 1162.32 1061.71 1161.73 1061.18C1161.17 1060.65 1160.44 1060.26 1159.55 1059.99C1158.65 1059.7 1157.45 1059.38 1155.93 1059.05C1153.94 1058.59 1152.34 1058.14 1151.12 1057.71C1149.9 1057.25 1148.84 1056.52 1147.95 1055.53C1147.09 1054.54 1146.66 1053.2 1146.66 1051.52C1146.66 1050 1147.09 1048.61 1147.95 1047.35C1148.8 1046.1 1150.04 1045.1 1151.66 1044.38C1153.32 1043.62 1155.25 1043.24 1157.46 1043.24ZM1200.25 1043.24C1202.4 1043.24 1204.28 1043.73 1205.9 1044.72C1207.55 1045.68 1208.83 1046.95 1209.72 1048.54V1043.68H1215.42V1071H1209.72V1065.89C1208.79 1067.58 1207.52 1068.93 1205.9 1069.96C1204.28 1070.95 1202.4 1071.45 1200.25 1071.45C1197.87 1071.45 1195.69 1070.85 1193.71 1069.66C1191.76 1068.44 1190.2 1066.75 1189.04 1064.6C1187.92 1062.42 1187.36 1059.96 1187.36 1057.22C1187.36 1054.47 1187.92 1052.04 1189.04 1049.93C1190.2 1047.81 1191.76 1046.18 1193.71 1045.02C1195.69 1043.83 1197.87 1043.24 1200.25 1043.24ZM1201.44 1048.14C1199.99 1048.14 1198.63 1048.51 1197.37 1049.23C1196.12 1049.93 1195.09 1050.97 1194.3 1052.36C1193.54 1053.71 1193.16 1055.33 1193.16 1057.22C1193.16 1059.1 1193.54 1060.75 1194.3 1062.18C1195.09 1063.6 1196.12 1064.69 1197.37 1065.45C1198.66 1066.17 1200.02 1066.54 1201.44 1066.54C1202.89 1066.54 1204.25 1066.17 1205.51 1065.45C1206.76 1064.72 1207.77 1063.66 1208.53 1062.27C1209.32 1060.85 1209.72 1059.2 1209.72 1057.32C1209.72 1055.43 1209.32 1053.8 1208.53 1052.41C1207.77 1051.02 1206.76 1049.96 1205.51 1049.23C1204.25 1048.51 1202.89 1048.14 1201.44 1048.14ZM1232.41 1043.24C1235.45 1043.24 1237.9 1044.03 1239.75 1045.62C1241.63 1047.17 1242.64 1049.3 1242.77 1052.01H1236.97C1236.88 1050.66 1236.4 1049.6 1235.54 1048.84C1234.71 1048.08 1233.54 1047.7 1232.02 1047.7C1230.5 1047.7 1229.31 1048.05 1228.45 1048.74C1227.59 1049.4 1227.16 1050.26 1227.16 1051.32C1227.16 1052.18 1227.44 1052.87 1228 1053.4C1228.56 1053.93 1229.27 1054.34 1230.13 1054.64C1231.02 1054.9 1232.21 1055.2 1233.7 1055.53C1235.72 1055.99 1237.34 1056.46 1238.56 1056.92C1239.82 1057.38 1240.89 1058.14 1241.78 1059.2C1242.68 1060.22 1243.12 1061.63 1243.12 1063.41C1243.12 1064.97 1242.66 1066.36 1241.73 1067.58C1240.84 1068.8 1239.59 1069.76 1237.97 1070.45C1236.35 1071.12 1234.51 1071.45 1232.46 1071.45C1229.29 1071.45 1226.73 1070.69 1224.78 1069.17C1222.83 1067.65 1221.75 1065.48 1221.56 1062.67H1227.41C1227.5 1064.03 1228 1065.08 1228.89 1065.84C1229.79 1066.6 1230.98 1066.98 1232.46 1066.98C1234.05 1066.98 1235.29 1066.65 1236.18 1065.99C1237.11 1065.3 1237.57 1064.41 1237.57 1063.32C1237.57 1062.42 1237.27 1061.71 1236.68 1061.18C1236.11 1060.65 1235.39 1060.26 1234.5 1059.99C1233.6 1059.7 1232.4 1059.38 1230.88 1059.05C1228.89 1058.59 1227.29 1058.14 1226.07 1057.71C1224.84 1057.25 1223.79 1056.52 1222.89 1055.53C1222.03 1054.54 1221.6 1053.2 1221.6 1051.52C1221.6 1050 1222.03 1048.61 1222.89 1047.35C1223.75 1046.1 1224.99 1045.1 1226.61 1044.38C1228.26 1043.62 1230.2 1043.24 1232.41 1043.24ZM1275.2 1043.24C1277.35 1043.24 1279.23 1043.73 1280.85 1044.72C1282.5 1045.68 1283.78 1046.95 1284.67 1048.54V1043.68H1290.37V1071H1284.67V1065.89C1283.74 1067.58 1282.47 1068.93 1280.85 1069.96C1279.23 1070.95 1277.35 1071.45 1275.2 1071.45C1272.82 1071.45 1270.64 1070.85 1268.65 1069.66C1266.7 1068.44 1265.15 1066.75 1263.99 1064.6C1262.87 1062.42 1262.31 1059.96 1262.31 1057.22C1262.31 1054.47 1262.87 1052.04 1263.99 1049.93C1265.15 1047.81 1266.7 1046.18 1268.65 1045.02C1270.64 1043.83 1272.82 1043.24 1275.2 1043.24ZM1276.39 1048.14C1274.93 1048.14 1273.58 1048.51 1272.32 1049.23C1271.07 1049.93 1270.04 1050.97 1269.25 1052.36C1268.49 1053.71 1268.11 1055.33 1268.11 1057.22C1268.11 1059.1 1268.49 1060.75 1269.25 1062.18C1270.04 1063.6 1271.07 1064.69 1272.32 1065.45C1273.61 1066.17 1274.97 1066.54 1276.39 1066.54C1277.84 1066.54 1279.2 1066.17 1280.45 1065.45C1281.71 1064.72 1282.72 1063.66 1283.48 1062.27C1284.27 1060.85 1284.67 1059.2 1284.67 1057.32C1284.67 1055.43 1284.27 1053.8 1283.48 1052.41C1282.72 1051.02 1281.71 1049.96 1280.45 1049.23C1279.2 1048.51 1277.84 1048.14 1276.39 1048.14ZM1324.16 1043.24C1327.46 1043.24 1330.19 1044.03 1332.34 1045.62C1334.52 1047.17 1335.99 1049.4 1336.75 1052.31H1330.65C1330.16 1050.95 1329.37 1049.9 1328.27 1049.14C1327.18 1048.38 1325.81 1048 1324.16 1048C1321.85 1048 1319.99 1048.82 1318.61 1050.47C1317.25 1052.09 1316.57 1054.37 1316.57 1057.32C1316.57 1060.26 1317.25 1062.56 1318.61 1064.21C1319.99 1065.86 1321.85 1066.69 1324.16 1066.69C1327.43 1066.69 1329.6 1065.25 1330.65 1062.37H1336.75C1335.96 1065.15 1334.47 1067.36 1332.29 1069.02C1330.11 1070.64 1327.4 1071.45 1324.16 1071.45C1321.55 1071.45 1319.23 1070.87 1317.22 1069.71C1315.2 1068.52 1313.62 1066.87 1312.46 1064.75C1311.34 1062.6 1310.77 1060.13 1310.77 1057.32C1310.77 1054.51 1311.34 1052.04 1312.46 1049.93C1313.62 1047.78 1315.2 1046.13 1317.22 1044.97C1319.23 1043.81 1321.55 1043.24 1324.16 1043.24ZM1348.04 1034.31V1071H1342.38V1034.31H1348.04ZM1354.71 1036.44C1354.71 1035.42 1355.06 1034.56 1355.75 1033.87C1356.45 1033.17 1357.31 1032.82 1358.33 1032.82C1359.32 1032.82 1360.17 1033.17 1360.86 1033.87C1361.56 1034.56 1361.9 1035.42 1361.9 1036.44C1361.9 1037.47 1361.56 1038.33 1360.86 1039.02C1360.17 1039.72 1359.32 1040.06 1358.33 1040.06C1357.31 1040.06 1356.45 1039.72 1355.75 1039.02C1355.06 1038.33 1354.71 1037.47 1354.71 1036.44ZM1361.11 1043.68V1071H1355.46V1043.68H1361.11ZM1393.57 1056.57C1393.57 1057.53 1393.5 1058.42 1393.37 1059.25H1372.45C1372.58 1061.53 1373.34 1063.35 1374.73 1064.7C1376.15 1066.03 1377.92 1066.69 1380.03 1066.69C1383.11 1066.69 1385.27 1065.41 1386.53 1062.87H1392.63C1391.8 1065.38 1390.29 1067.45 1388.11 1069.07C1385.93 1070.65 1383.24 1071.45 1380.03 1071.45C1377.42 1071.45 1375.11 1070.87 1373.09 1069.71C1371.07 1068.52 1369.49 1066.87 1368.33 1064.75C1367.21 1062.6 1366.65 1060.13 1366.65 1057.32C1366.65 1054.51 1367.21 1052.04 1368.33 1049.93C1369.49 1047.78 1371.09 1046.13 1373.14 1044.97C1375.22 1043.81 1377.6 1043.24 1380.28 1043.24C1382.86 1043.24 1385.16 1043.8 1387.17 1044.92C1389.19 1046.05 1390.76 1047.62 1391.88 1049.63C1393.01 1051.65 1393.57 1053.96 1393.57 1056.57ZM1387.67 1055.38C1387.63 1053.14 1386.89 1051.35 1385.44 1050.03C1383.98 1048.67 1382.18 1048 1380.03 1048C1378.02 1048 1376.3 1048.67 1374.88 1050.03C1373.49 1051.35 1372.69 1053.14 1372.5 1055.38H1387.67ZM1413.51 1043.24C1415.49 1043.24 1417.27 1043.68 1418.86 1044.57C1420.48 1045.47 1421.75 1046.79 1422.68 1048.54C1423.64 1050.29 1424.12 1052.41 1424.12 1054.89V1071H1418.51V1055.73C1418.51 1053.28 1417.9 1051.42 1416.68 1050.13C1415.46 1048.81 1413.79 1048.14 1411.67 1048.14C1409.56 1048.14 1407.87 1048.81 1406.62 1050.13C1405.39 1051.42 1404.78 1053.28 1404.78 1055.73V1071H1399.13V1043.68H1404.78V1048C1405.67 1046.44 1406.86 1045.27 1408.35 1044.48C1409.87 1043.65 1411.59 1043.24 1413.51 1043.24ZM1437.92 1048.29V1063.41C1437.92 1064.44 1438.15 1065.18 1438.61 1065.65C1439.11 1066.08 1439.94 1066.29 1441.09 1066.29H1444.56V1071H1440.1C1437.56 1071 1435.61 1070.41 1434.25 1069.22C1432.9 1068.03 1432.22 1066.09 1432.22 1063.41V1048.29H1429V1043.68H1432.22V1036.89H1437.92V1043.68H1444.56V1048.29H1437.92ZM1501.33 1043.68L1492.85 1071H1486.9L1481.39 1050.82L1475.89 1071H1469.94L1461.41 1043.68H1467.17L1472.87 1065.65L1478.67 1043.68H1484.57L1490.12 1065.55L1495.77 1043.68H1501.33ZM1530.59 1056.57C1530.59 1057.53 1530.52 1058.42 1530.39 1059.25H1509.47C1509.6 1061.53 1510.36 1063.35 1511.75 1064.7C1513.17 1066.03 1514.94 1066.69 1517.05 1066.69C1520.12 1066.69 1522.29 1065.41 1523.55 1062.87H1529.64C1528.82 1065.38 1527.31 1067.45 1525.13 1069.07C1522.95 1070.65 1520.26 1071.45 1517.05 1071.45C1514.44 1071.45 1512.13 1070.87 1510.11 1069.71C1508.09 1068.52 1506.51 1066.87 1505.35 1064.75C1504.23 1062.6 1503.66 1060.13 1503.66 1057.32C1503.66 1054.51 1504.23 1052.04 1505.35 1049.93C1506.51 1047.78 1508.11 1046.13 1510.16 1044.97C1512.24 1043.81 1514.62 1043.24 1517.3 1043.24C1519.88 1043.24 1522.17 1043.8 1524.19 1044.92C1526.21 1046.05 1527.78 1047.62 1528.9 1049.63C1530.02 1051.65 1530.59 1053.96 1530.59 1056.57ZM1524.69 1055.38C1524.65 1053.14 1523.91 1051.35 1522.46 1050.03C1521 1048.67 1519.2 1048 1517.05 1048C1515.03 1048 1513.32 1048.67 1511.89 1050.03C1510.51 1051.35 1509.71 1053.14 1509.52 1055.38H1524.69ZM1538.97 1031.34C1539.44 1033.06 1539.67 1034.71 1539.67 1036.29C1539.67 1040.39 1537.82 1042.44 1534.12 1042.44V1040.01C1535.7 1040.01 1536.5 1039.07 1536.5 1037.19V1036.15H1533.87V1031.34H1538.97ZM1555.82 1043.24C1557.97 1043.24 1559.85 1043.73 1561.47 1044.72C1563.13 1045.68 1564.4 1046.95 1565.29 1048.54V1034.31H1570.99V1071H1565.29V1065.89C1564.37 1067.58 1563.09 1068.93 1561.47 1069.96C1559.85 1070.95 1557.97 1071.45 1555.82 1071.45C1553.44 1071.45 1551.26 1070.85 1549.28 1069.66C1547.33 1068.44 1545.77 1066.75 1544.62 1064.6C1543.49 1062.42 1542.93 1059.96 1542.93 1057.22C1542.93 1054.47 1543.49 1052.04 1544.62 1049.93C1545.77 1047.81 1547.33 1046.18 1549.28 1045.02C1551.26 1043.83 1553.44 1043.24 1555.82 1043.24ZM1557.01 1048.14C1555.56 1048.14 1554.2 1048.51 1552.95 1049.23C1551.69 1049.93 1550.66 1050.97 1549.87 1052.36C1549.11 1053.71 1548.73 1055.33 1548.73 1057.22C1548.73 1059.1 1549.11 1060.75 1549.87 1062.18C1550.66 1063.6 1551.69 1064.69 1552.95 1065.45C1554.23 1066.17 1555.59 1066.54 1557.01 1066.54C1558.47 1066.54 1559.82 1066.17 1561.08 1065.45C1562.33 1064.72 1563.34 1063.66 1564.1 1062.27C1564.89 1060.85 1565.29 1059.2 1565.29 1057.32C1565.29 1055.43 1564.89 1053.8 1564.1 1052.41C1563.34 1051.02 1562.33 1049.96 1561.08 1049.23C1559.82 1048.51 1558.47 1048.14 1557.01 1048.14ZM1598.93 1034.31V1071H1593.28V1034.31H1598.93ZM1618.45 1043.24C1621.06 1043.24 1623.42 1043.81 1625.54 1044.97C1627.65 1046.13 1629.32 1047.78 1630.55 1049.93C1631.77 1052.08 1632.38 1054.54 1632.38 1057.32C1632.38 1060.09 1631.75 1062.56 1630.5 1064.7C1629.24 1066.85 1627.52 1068.52 1625.34 1069.71C1623.19 1070.87 1620.81 1071.45 1618.2 1071.45C1615.62 1071.45 1613.29 1070.87 1611.21 1069.71C1609.13 1068.52 1607.49 1066.87 1606.3 1064.75C1605.11 1062.6 1604.52 1060.13 1604.52 1057.32C1604.52 1054.54 1605.13 1052.08 1606.35 1049.93C1607.58 1047.78 1609.24 1046.13 1611.36 1044.97C1613.47 1043.81 1615.84 1043.24 1618.45 1043.24ZM1618.35 1048C1616.9 1048 1615.56 1048.36 1614.33 1049.09C1613.11 1049.78 1612.12 1050.84 1611.36 1052.26C1610.63 1053.65 1610.27 1055.33 1610.27 1057.32C1610.27 1059.3 1610.62 1061 1611.31 1062.42C1612.04 1063.84 1613 1064.92 1614.19 1065.65C1615.41 1066.34 1616.75 1066.69 1618.2 1066.69C1619.66 1066.69 1621.01 1066.32 1622.27 1065.6C1623.56 1064.87 1624.6 1063.81 1625.39 1062.42C1626.18 1061 1626.58 1059.3 1626.58 1057.32C1626.58 1055.33 1626.2 1053.65 1625.44 1052.26C1624.68 1050.84 1623.67 1049.78 1622.42 1049.09C1621.16 1048.36 1619.8 1048 1618.35 1048ZM1648.53 1065.94L1656.26 1043.68H1662.36L1651.95 1071H1645.11L1634.75 1043.68H1640.79L1648.53 1065.94ZM1691.57 1056.57C1691.57 1057.53 1691.51 1058.42 1691.37 1059.25H1670.45C1670.58 1061.53 1671.34 1063.35 1672.73 1064.7C1674.15 1066.03 1675.92 1066.69 1678.04 1066.69C1681.11 1066.69 1683.28 1065.41 1684.53 1062.87H1690.63C1689.8 1065.38 1688.3 1067.45 1686.12 1069.07C1683.94 1070.65 1681.24 1071.45 1678.04 1071.45C1675.43 1071.45 1673.11 1070.87 1671.1 1069.71C1669.08 1068.52 1667.49 1066.87 1666.34 1064.75C1665.21 1062.6 1664.65 1060.13 1664.65 1057.32C1664.65 1054.51 1665.21 1052.04 1666.34 1049.93C1667.49 1047.78 1669.1 1046.13 1671.14 1044.97C1673.23 1043.81 1675.61 1043.24 1678.28 1043.24C1680.86 1043.24 1683.16 1043.8 1685.18 1044.92C1687.19 1046.05 1688.76 1047.62 1689.89 1049.63C1691.01 1051.65 1691.57 1053.96 1691.57 1056.57ZM1685.67 1055.38C1685.64 1053.14 1684.89 1051.35 1683.44 1050.03C1681.99 1048.67 1680.18 1048 1678.04 1048C1676.02 1048 1674.3 1048.67 1672.88 1050.03C1671.49 1051.35 1670.7 1053.14 1670.5 1055.38H1685.67ZM1718.59 1048.29V1063.41C1718.59 1064.44 1718.82 1065.18 1719.29 1065.65C1719.78 1066.08 1720.61 1066.29 1721.76 1066.29H1725.23V1071H1720.77C1718.23 1071 1716.28 1070.41 1714.92 1069.22C1713.57 1068.03 1712.89 1066.09 1712.89 1063.41V1048.29H1709.67V1043.68H1712.89V1036.89H1718.59V1043.68H1725.23V1048.29H1718.59ZM1742.54 1043.24C1745.15 1043.24 1747.52 1043.81 1749.63 1044.97C1751.75 1046.13 1753.42 1047.78 1754.64 1049.93C1755.86 1052.08 1756.47 1054.54 1756.47 1057.32C1756.47 1060.09 1755.84 1062.56 1754.59 1064.7C1753.33 1066.85 1751.61 1068.52 1749.43 1069.71C1747.28 1070.87 1744.9 1071.45 1742.29 1071.45C1739.72 1071.45 1737.38 1070.87 1735.3 1069.71C1733.22 1068.52 1731.58 1066.87 1730.39 1064.75C1729.2 1062.6 1728.61 1060.13 1728.61 1057.32C1728.61 1054.54 1729.22 1052.08 1730.44 1049.93C1731.67 1047.78 1733.34 1046.13 1735.45 1044.97C1737.57 1043.81 1739.93 1043.24 1742.54 1043.24ZM1742.44 1048C1740.99 1048 1739.65 1048.36 1738.43 1049.09C1737.2 1049.78 1736.21 1050.84 1735.45 1052.26C1734.72 1053.65 1734.36 1055.33 1734.36 1057.32C1734.36 1059.3 1734.71 1061 1735.4 1062.42C1736.13 1063.84 1737.09 1064.92 1738.28 1065.65C1739.5 1066.34 1740.84 1066.69 1742.29 1066.69C1743.75 1066.69 1745.1 1066.32 1746.36 1065.6C1747.65 1064.87 1748.69 1063.81 1749.48 1062.42C1750.28 1061 1750.67 1059.3 1750.67 1057.32C1750.67 1055.33 1750.29 1053.65 1749.53 1052.26C1748.77 1050.84 1747.76 1049.78 1746.51 1049.09C1745.25 1048.36 1743.9 1048 1742.44 1048ZM764.822 1135.24C766.805 1135.24 768.589 1135.68 770.176 1136.57C771.796 1137.47 773.068 1138.79 773.994 1140.54C774.952 1142.29 775.431 1144.41 775.431 1146.89V1163H769.829V1147.73C769.829 1145.28 769.217 1143.42 767.995 1142.13C766.772 1140.81 765.102 1140.14 762.987 1140.14C760.872 1140.14 759.186 1140.81 757.93 1142.13C756.707 1143.42 756.096 1145.28 756.096 1147.73V1163H750.444V1126.31H756.096V1140C756.988 1138.44 758.178 1137.27 759.665 1136.48C761.186 1135.65 762.904 1135.24 764.822 1135.24ZM793.647 1135.24C795.796 1135.24 797.68 1135.73 799.299 1136.72C800.952 1137.68 802.224 1138.95 803.117 1140.54V1135.68H808.818V1163H803.117V1157.89C802.191 1159.58 800.919 1160.93 799.299 1161.96C797.68 1162.95 795.796 1163.45 793.647 1163.45C791.267 1163.45 789.086 1162.85 787.103 1161.66C785.153 1160.44 783.599 1158.75 782.442 1156.6C781.319 1154.42 780.757 1151.96 780.757 1149.22C780.757 1146.47 781.319 1144.04 782.442 1141.93C783.599 1139.81 785.153 1138.18 787.103 1137.02C789.086 1135.83 791.267 1135.24 793.647 1135.24ZM794.837 1140.14C793.383 1140.14 792.028 1140.51 790.772 1141.23C789.516 1141.93 788.491 1142.97 787.698 1144.36C786.938 1145.71 786.557 1147.33 786.557 1149.22C786.557 1151.1 786.938 1152.75 787.698 1154.18C788.491 1155.6 789.516 1156.69 790.772 1157.45C792.061 1158.17 793.416 1158.54 794.837 1158.54C796.291 1158.54 797.647 1158.17 798.903 1157.45C800.159 1156.72 801.167 1155.66 801.927 1154.27C802.72 1152.85 803.117 1151.2 803.117 1149.32C803.117 1147.43 802.72 1145.8 801.927 1144.41C801.167 1143.02 800.159 1141.96 798.903 1141.23C797.647 1140.51 796.291 1140.14 794.837 1140.14ZM826.802 1157.94L834.536 1135.68H840.635L830.223 1163H823.381L813.019 1135.68H819.068L826.802 1157.94ZM869.845 1148.57C869.845 1149.53 869.779 1150.42 869.647 1151.25H848.724C848.857 1153.53 849.617 1155.35 851.005 1156.7C852.426 1158.03 854.195 1158.69 856.31 1158.69C859.384 1158.69 861.549 1157.41 862.805 1154.87H868.903C868.077 1157.38 866.573 1159.45 864.391 1161.07C862.21 1162.65 859.516 1163.45 856.31 1163.45C853.699 1163.45 851.385 1162.87 849.369 1161.71C847.353 1160.52 845.766 1158.87 844.609 1156.75C843.486 1154.6 842.924 1152.13 842.924 1149.32C842.924 1146.51 843.486 1144.04 844.609 1141.93C845.766 1139.78 847.369 1138.13 849.418 1136.97C851.501 1135.81 853.881 1135.24 856.558 1135.24C859.136 1135.24 861.433 1135.8 863.449 1136.92C865.465 1138.05 867.035 1139.62 868.159 1141.63C869.283 1143.65 869.845 1145.96 869.845 1148.57ZM863.945 1147.38C863.912 1145.14 863.168 1143.35 861.714 1142.03C860.26 1140.67 858.458 1140 856.31 1140C854.294 1140 852.575 1140.67 851.154 1142.03C849.766 1143.35 848.972 1145.14 848.774 1147.38H863.945ZM893.345 1135.68L901.029 1156.51L909.012 1135.68H914.862L898.104 1175.84H892.254L897.807 1162.55L887.048 1135.68H893.345ZM931.224 1135.24C933.835 1135.24 936.199 1135.81 938.314 1136.97C940.429 1138.13 942.099 1139.78 943.321 1141.93C944.544 1144.08 945.156 1146.54 945.156 1149.32C945.156 1152.09 944.528 1154.56 943.272 1156.7C942.016 1158.85 940.297 1160.52 938.116 1161.71C935.967 1162.87 933.588 1163.45 930.976 1163.45C928.398 1163.45 926.068 1162.87 923.986 1161.71C921.904 1160.52 920.267 1158.87 919.078 1156.75C917.888 1154.6 917.293 1152.13 917.293 1149.32C917.293 1146.54 917.904 1144.08 919.127 1141.93C920.35 1139.78 922.019 1138.13 924.135 1136.97C926.25 1135.81 928.613 1135.24 931.224 1135.24ZM931.125 1140C929.671 1140 928.332 1140.36 927.109 1141.09C925.886 1141.78 924.895 1142.84 924.135 1144.26C923.407 1145.65 923.044 1147.33 923.044 1149.32C923.044 1151.3 923.391 1153 924.085 1154.42C924.812 1155.84 925.771 1156.92 926.961 1157.65C928.184 1158.34 929.522 1158.69 930.976 1158.69C932.431 1158.69 933.786 1158.32 935.042 1157.6C936.331 1156.87 937.372 1155.81 938.165 1154.42C938.959 1153 939.355 1151.3 939.355 1149.32C939.355 1147.33 938.975 1145.65 938.215 1144.26C937.455 1142.84 936.447 1141.78 935.191 1141.09C933.935 1140.36 932.579 1140 931.125 1140ZM975.483 1135.68V1163H969.831V1158.69C968.939 1160.24 967.732 1161.41 966.212 1162.21C964.724 1163 963.022 1163.4 961.105 1163.4C959.122 1163.4 957.321 1162.95 955.701 1162.06C954.115 1161.17 952.842 1159.86 951.883 1158.14C950.958 1156.39 950.495 1154.27 950.495 1151.8V1135.68H956.098V1150.95C956.098 1153.4 956.709 1155.28 957.932 1156.6C959.155 1157.89 960.824 1158.54 962.94 1158.54C965.055 1158.54 966.724 1157.89 967.947 1156.6C969.203 1155.28 969.831 1153.4 969.831 1150.95V1135.68H975.483ZM1012.18 1135.24C1014.17 1135.24 1015.95 1135.68 1017.54 1136.57C1019.16 1137.47 1020.43 1138.79 1021.35 1140.54C1022.31 1142.29 1022.79 1144.41 1022.79 1146.89V1163H1017.19V1147.73C1017.19 1145.28 1016.58 1143.42 1015.35 1142.13C1014.13 1140.81 1012.46 1140.14 1010.35 1140.14C1008.23 1140.14 1006.55 1140.81 1005.29 1142.13C1004.07 1143.42 1003.46 1145.28 1003.46 1147.73V1163H997.804V1126.31H1003.46V1140C1004.35 1138.44 1005.54 1137.27 1007.03 1136.48C1008.55 1135.65 1010.26 1135.24 1012.18 1135.24ZM1055.04 1148.57C1055.04 1149.53 1054.97 1150.42 1054.84 1151.25H1033.92C1034.05 1153.53 1034.81 1155.35 1036.2 1156.7C1037.62 1158.03 1039.39 1158.69 1041.5 1158.69C1044.58 1158.69 1046.74 1157.41 1048 1154.87H1054.1C1053.27 1157.38 1051.77 1159.45 1049.58 1161.07C1047.4 1162.65 1044.71 1163.45 1041.5 1163.45C1038.89 1163.45 1036.58 1162.87 1034.56 1161.71C1032.55 1160.52 1030.96 1158.87 1029.8 1156.75C1028.68 1154.6 1028.12 1152.13 1028.12 1149.32C1028.12 1146.51 1028.68 1144.04 1029.8 1141.93C1030.96 1139.78 1032.56 1138.13 1034.61 1136.97C1036.69 1135.81 1039.07 1135.24 1041.75 1135.24C1044.33 1135.24 1046.63 1135.8 1048.64 1136.92C1050.66 1138.05 1052.23 1139.62 1053.35 1141.63C1054.48 1143.65 1055.04 1145.96 1055.04 1148.57ZM1049.14 1147.38C1049.11 1145.14 1048.36 1143.35 1046.91 1142.03C1045.45 1140.67 1043.65 1140 1041.5 1140C1039.49 1140 1037.77 1140.67 1036.35 1142.03C1034.96 1143.35 1034.17 1145.14 1033.97 1147.38H1049.14ZM1066.25 1140.44C1067.08 1138.79 1068.17 1137.52 1069.52 1136.62C1070.91 1135.7 1072.55 1135.24 1074.43 1135.24V1141.09H1073C1070.78 1141.09 1069.09 1141.65 1067.94 1142.77C1066.81 1143.9 1066.25 1145.85 1066.25 1148.62V1163H1060.6V1135.68H1066.25V1140.44ZM1104.67 1148.57C1104.67 1149.53 1104.6 1150.42 1104.47 1151.25H1083.54C1083.68 1153.53 1084.44 1155.35 1085.83 1156.7C1087.25 1158.03 1089.02 1158.69 1091.13 1158.69C1094.2 1158.69 1096.37 1157.41 1097.63 1154.87H1103.72C1102.9 1157.38 1101.39 1159.45 1099.21 1161.07C1097.03 1162.65 1094.34 1163.45 1091.13 1163.45C1088.52 1163.45 1086.21 1162.87 1084.19 1161.71C1082.17 1160.52 1080.59 1158.87 1079.43 1156.75C1078.31 1154.6 1077.74 1152.13 1077.74 1149.32C1077.74 1146.51 1078.31 1144.04 1079.43 1141.93C1080.59 1139.78 1082.19 1138.13 1084.24 1136.97C1086.32 1135.81 1088.7 1135.24 1091.38 1135.24C1093.96 1135.24 1096.25 1135.8 1098.27 1136.92C1100.29 1138.05 1101.86 1139.62 1102.98 1141.63C1104.1 1143.65 1104.67 1145.96 1104.67 1148.57ZM1098.77 1147.38C1098.73 1145.14 1097.99 1143.35 1096.53 1142.03C1095.08 1140.67 1093.28 1140 1091.13 1140C1089.11 1140 1087.4 1140.67 1085.97 1142.03C1084.59 1143.35 1083.79 1145.14 1083.59 1147.38H1098.77ZM1161.78 1135.68L1153.3 1163H1147.35L1141.85 1142.82L1136.35 1163H1130.4L1121.87 1135.68H1127.62L1133.32 1157.65L1139.12 1135.68H1145.02L1150.57 1157.55L1156.23 1135.68H1161.78ZM1165.26 1128.44C1165.26 1127.42 1165.61 1126.56 1166.3 1125.87C1166.99 1125.17 1167.85 1124.82 1168.88 1124.82C1169.87 1124.82 1170.71 1125.17 1171.41 1125.87C1172.1 1126.56 1172.45 1127.42 1172.45 1128.44C1172.45 1129.47 1172.1 1130.33 1171.41 1131.02C1170.71 1131.72 1169.87 1132.06 1168.88 1132.06C1167.85 1132.06 1166.99 1131.72 1166.3 1131.02C1165.61 1130.33 1165.26 1129.47 1165.26 1128.44ZM1171.66 1135.68V1163H1166V1135.68H1171.66ZM1185.67 1140.29V1155.41C1185.67 1156.44 1185.9 1157.18 1186.36 1157.65C1186.86 1158.08 1187.69 1158.29 1188.84 1158.29H1192.31V1163H1187.85C1185.31 1163 1183.36 1162.41 1182 1161.22C1180.65 1160.03 1179.97 1158.09 1179.97 1155.41V1140.29H1176.75V1135.68H1179.97V1128.89H1185.67V1135.68H1192.31V1140.29H1185.67ZM1211.9 1135.24C1213.88 1135.24 1215.67 1135.68 1217.25 1136.57C1218.87 1137.47 1220.15 1138.79 1221.07 1140.54C1222.03 1142.29 1222.51 1144.41 1222.51 1146.89V1163H1216.91V1147.73C1216.91 1145.28 1216.3 1143.42 1215.07 1142.13C1213.85 1140.81 1212.18 1140.14 1210.07 1140.14C1207.95 1140.14 1206.26 1140.81 1205.01 1142.13C1203.79 1143.42 1203.17 1145.28 1203.17 1147.73V1163H1197.52V1126.31H1203.17V1140C1204.07 1138.44 1205.26 1137.27 1206.74 1136.48C1208.26 1135.65 1209.98 1135.24 1211.9 1135.24ZM1269.32 1135.68V1163H1263.67V1158.69C1262.78 1160.24 1261.57 1161.41 1260.05 1162.21C1258.56 1163 1256.86 1163.4 1254.95 1163.4C1252.96 1163.4 1251.16 1162.95 1249.54 1162.06C1247.95 1161.17 1246.68 1159.86 1245.72 1158.14C1244.8 1156.39 1244.34 1154.27 1244.34 1151.8V1135.68H1249.94V1150.95C1249.94 1153.4 1250.55 1155.28 1251.77 1156.6C1253 1157.89 1254.66 1158.54 1256.78 1158.54C1258.9 1158.54 1260.56 1157.89 1261.79 1156.6C1263.04 1155.28 1263.67 1153.4 1263.67 1150.95V1135.68H1269.32ZM1286.35 1135.24C1289.39 1135.24 1291.84 1136.03 1293.69 1137.62C1295.57 1139.17 1296.58 1141.3 1296.71 1144.01H1290.91C1290.81 1142.66 1290.33 1141.6 1289.47 1140.84C1288.65 1140.08 1287.47 1139.7 1285.95 1139.7C1284.43 1139.7 1283.24 1140.05 1282.38 1140.74C1281.52 1141.4 1281.09 1142.26 1281.09 1143.32C1281.09 1144.18 1281.37 1144.87 1281.94 1145.4C1282.5 1145.93 1283.21 1146.34 1284.07 1146.64C1284.96 1146.9 1286.15 1147.2 1287.64 1147.53C1289.65 1147.99 1291.27 1148.46 1292.5 1148.92C1293.75 1149.38 1294.83 1150.14 1295.72 1151.2C1296.61 1152.22 1297.06 1153.63 1297.06 1155.41C1297.06 1156.97 1296.6 1158.36 1295.67 1159.58C1294.78 1160.8 1293.52 1161.76 1291.9 1162.45C1290.28 1163.12 1288.45 1163.45 1286.4 1163.45C1283.23 1163.45 1280.66 1162.69 1278.71 1161.17C1276.76 1159.65 1275.69 1157.48 1275.49 1154.67H1281.34C1281.44 1156.03 1281.94 1157.08 1282.83 1157.84C1283.72 1158.6 1284.91 1158.98 1286.4 1158.98C1287.99 1158.98 1289.22 1158.65 1290.12 1157.99C1291.04 1157.3 1291.51 1156.41 1291.51 1155.32C1291.51 1154.42 1291.21 1153.71 1290.61 1153.18C1290.05 1152.65 1289.32 1152.26 1288.43 1151.99C1287.54 1151.7 1286.33 1151.38 1284.81 1151.05C1282.83 1150.59 1281.23 1150.14 1280 1149.71C1278.78 1149.25 1277.72 1148.52 1276.83 1147.53C1275.97 1146.54 1275.54 1145.2 1275.54 1143.52C1275.54 1142 1275.97 1140.61 1276.83 1139.35C1277.69 1138.1 1278.93 1137.1 1280.55 1136.38C1282.2 1135.62 1284.13 1135.24 1286.35 1135.24ZM1301.98 1159.63C1301.98 1158.67 1302.29 1157.86 1302.92 1157.2C1303.58 1156.54 1304.39 1156.21 1305.35 1156.21C1306.31 1156.21 1307.11 1156.54 1307.78 1157.2C1308.44 1157.86 1308.77 1158.67 1308.77 1159.63C1308.77 1160.59 1308.44 1161.4 1307.78 1162.06C1307.11 1162.69 1306.31 1163 1305.35 1163C1304.42 1163 1303.63 1162.67 1302.97 1162.01C1302.31 1161.35 1301.98 1160.55 1301.98 1159.63Z" fill="black" fill-opacity="0.59"/>
</svg>
