<svg width="1728" height="1522" viewBox="0 0 1728 1522" fill="none" xmlns="http://www.w3.org/2000/svg">
<rect width="1728" height="1522" fill="#102E4A"/>
<path d="M168.854 159.275L171.686 147.781H173.219L173.316 150.203L170.289 162H168.668L168.854 159.275ZM167.066 147.781L169.391 159.236V162H167.623L164.4 147.781H167.066ZM176.256 159.188L178.541 147.781H181.217L177.994 162H176.227L176.256 159.188ZM173.951 147.781L176.783 159.314L176.949 162H175.328L172.311 150.193L172.428 147.781H173.951ZM201.75 153.65V155.76H194.269V153.65H201.75ZM195.002 147.781V162H192.316V147.781H195.002ZM203.742 147.781V162H201.056V147.781H203.742ZM217.263 147.781L220.388 154.412L223.532 147.781H226.482L221.755 156.795V162H219.03V156.795L214.294 147.781H217.263ZM257.342 149.939L253.289 162H250.448L255.76 147.781H257.577L257.342 149.939ZM260.731 162L256.659 149.939L256.414 147.781H258.241L263.582 162H260.731ZM260.545 156.717V158.836H252.918V156.717H260.545ZM274.447 147.781H279.613C280.694 147.781 281.622 147.944 282.396 148.27C283.171 148.595 283.767 149.077 284.184 149.715C284.6 150.353 284.809 151.137 284.809 152.068C284.809 152.804 284.678 153.442 284.418 153.982C284.158 154.523 283.79 154.975 283.314 155.34C282.846 155.704 282.292 155.991 281.654 156.199L280.814 156.629H276.254L276.234 154.51H279.643C280.196 154.51 280.655 154.412 281.02 154.217C281.384 154.021 281.658 153.751 281.84 153.406C282.029 153.061 282.123 152.667 282.123 152.225C282.123 151.749 282.032 151.339 281.85 150.994C281.667 150.643 281.391 150.372 281.02 150.184C280.648 149.995 280.18 149.9 279.613 149.9H277.133V162H274.447V147.781ZM282.475 162L279.184 155.633L282.025 155.623L285.355 161.863V162H282.475ZM302.041 147.781V162H299.365V147.781H302.041ZM306.455 147.781V149.9H295V147.781H306.455ZM320.503 147.781V162H317.818V147.781H320.503ZM341.124 157.322H343.809C343.738 158.273 343.474 159.116 343.018 159.852C342.563 160.581 341.928 161.154 341.114 161.57C340.3 161.987 339.314 162.195 338.155 162.195C337.263 162.195 336.459 162.039 335.743 161.727C335.033 161.408 334.425 160.955 333.917 160.369C333.415 159.777 333.031 159.067 332.764 158.24C332.498 157.407 332.364 156.473 332.364 155.438V154.354C332.364 153.318 332.501 152.384 332.774 151.551C333.048 150.717 333.438 150.008 333.946 149.422C334.46 148.829 335.076 148.374 335.792 148.055C336.514 147.736 337.322 147.576 338.214 147.576C339.373 147.576 340.352 147.791 341.153 148.221C341.954 148.644 342.576 149.227 343.018 149.969C343.461 150.711 343.728 151.564 343.819 152.527H341.134C341.082 151.928 340.951 151.421 340.743 151.004C340.541 150.587 340.235 150.271 339.825 150.057C339.421 149.835 338.884 149.725 338.214 149.725C337.693 149.725 337.234 149.822 336.837 150.018C336.446 150.213 336.121 150.506 335.86 150.896C335.6 151.281 335.404 151.762 335.274 152.342C335.144 152.915 335.079 153.579 335.079 154.334V155.438C335.079 156.16 335.137 156.808 335.255 157.381C335.372 157.954 335.554 158.439 335.802 158.836C336.049 159.233 336.368 159.536 336.759 159.744C337.149 159.952 337.615 160.057 338.155 160.057C338.813 160.057 339.346 159.952 339.757 159.744C340.173 159.536 340.489 159.23 340.704 158.826C340.925 158.423 341.065 157.921 341.124 157.322ZM364.313 159.891V162H357.164V159.891H364.313ZM357.975 147.781V162H355.289V147.781H357.975ZM384.934 159.891V162H377.375V159.891H384.934ZM378.195 147.781V162H375.51V147.781H378.195ZM383.947 153.65V155.711H377.375V153.65H383.947ZM384.904 147.781V149.9H377.375V147.781H384.904ZM403.64 158.309C403.64 158.035 403.598 157.791 403.513 157.576C403.435 157.355 403.289 157.156 403.074 156.98C402.865 156.798 402.569 156.622 402.185 156.453C401.808 156.277 401.319 156.095 400.72 155.906C400.056 155.698 399.438 155.464 398.865 155.203C398.292 154.943 397.787 154.64 397.351 154.295C396.921 153.95 396.586 153.553 396.345 153.104C396.104 152.648 395.984 152.12 395.984 151.521C395.984 150.936 396.108 150.402 396.355 149.92C396.609 149.438 396.967 149.025 397.429 148.68C397.892 148.328 398.435 148.058 399.06 147.869C399.692 147.68 400.388 147.586 401.15 147.586C402.205 147.586 403.116 147.778 403.884 148.162C404.659 148.546 405.258 149.067 405.681 149.725C406.104 150.382 406.316 151.121 406.316 151.941H403.64C403.64 151.499 403.546 151.108 403.357 150.77C403.175 150.431 402.895 150.164 402.517 149.969C402.146 149.773 401.677 149.676 401.111 149.676C400.564 149.676 400.108 149.757 399.744 149.92C399.386 150.083 399.115 150.304 398.933 150.584C398.757 150.864 398.67 151.176 398.67 151.521C398.67 151.782 398.731 152.016 398.855 152.225C398.979 152.426 399.164 152.618 399.412 152.801C399.659 152.977 399.965 153.143 400.33 153.299C400.701 153.449 401.13 153.598 401.619 153.748C402.4 153.982 403.084 154.243 403.67 154.529C404.262 154.816 404.754 155.141 405.144 155.506C405.541 155.87 405.837 156.281 406.033 156.736C406.235 157.192 406.336 157.71 406.336 158.289C406.336 158.901 406.215 159.448 405.974 159.93C405.733 160.411 405.388 160.822 404.939 161.16C404.49 161.499 403.949 161.756 403.318 161.932C402.693 162.107 401.993 162.195 401.218 162.195C400.528 162.195 399.845 162.104 399.168 161.922C398.497 161.733 397.888 161.453 397.341 161.082C396.795 160.704 396.358 160.229 396.033 159.656C395.707 159.077 395.545 158.4 395.545 157.625H398.24C398.24 158.074 398.311 158.458 398.455 158.777C398.604 159.09 398.813 159.347 399.08 159.549C399.353 159.744 399.672 159.887 400.037 159.979C400.401 160.07 400.795 160.115 401.218 160.115C401.765 160.115 402.214 160.04 402.566 159.891C402.924 159.734 403.191 159.52 403.367 159.246C403.549 158.973 403.64 158.66 403.64 158.309ZM437.841 149.939L433.788 162H430.946L436.259 147.781H438.075L437.841 149.939ZM441.229 162L437.157 149.939L436.913 147.781H438.739L444.081 162H441.229ZM441.044 156.717V158.836H433.417V156.717H441.044ZM466.371 147.781V162H463.676L457.631 152.137V162H454.946V147.781H457.631L463.696 157.654V147.781H466.371ZM482.754 162H479.688L479.707 159.891H482.754C483.581 159.891 484.274 159.708 484.834 159.344C485.394 158.973 485.817 158.442 486.104 157.752C486.39 157.055 486.533 156.222 486.533 155.252V154.52C486.533 153.771 486.452 153.11 486.289 152.537C486.126 151.964 485.885 151.482 485.566 151.092C485.254 150.701 484.867 150.405 484.404 150.203C483.942 150.001 483.411 149.9 482.812 149.9H479.629V147.781H482.812C483.763 147.781 484.629 147.941 485.41 148.26C486.198 148.579 486.878 149.038 487.451 149.637C488.031 150.229 488.473 150.939 488.779 151.766C489.092 152.592 489.248 153.517 489.248 154.539V155.252C489.248 156.268 489.092 157.192 488.779 158.025C488.473 158.852 488.031 159.562 487.451 160.154C486.878 160.747 486.195 161.202 485.4 161.521C484.606 161.84 483.724 162 482.754 162ZM481.191 147.781V162H478.506V147.781H481.191ZM520.763 155.662H517.13L517.111 153.768H520.226C520.76 153.768 521.206 153.693 521.564 153.543C521.922 153.393 522.192 153.175 522.374 152.889C522.563 152.602 522.657 152.254 522.657 151.844C522.657 151.388 522.57 151.017 522.394 150.73C522.224 150.444 521.958 150.236 521.593 150.105C521.228 149.969 520.766 149.9 520.206 149.9H517.999V162H515.314V147.781H520.206C521.014 147.781 521.733 147.859 522.364 148.016C523.002 148.165 523.543 148.4 523.986 148.719C524.428 149.038 524.764 149.438 524.991 149.92C525.226 150.402 525.343 150.975 525.343 151.639C525.343 152.225 525.206 152.765 524.933 153.26C524.666 153.748 524.252 154.145 523.693 154.451C523.139 154.757 522.436 154.933 521.583 154.979L520.763 155.662ZM520.646 162H516.339L517.462 159.891H520.646C521.18 159.891 521.619 159.803 521.964 159.627C522.316 159.451 522.576 159.21 522.745 158.904C522.921 158.592 523.009 158.234 523.009 157.83C523.009 157.387 522.931 157.003 522.775 156.678C522.625 156.352 522.384 156.102 522.052 155.926C521.726 155.75 521.297 155.662 520.763 155.662H517.97L517.989 153.768H521.544L522.159 154.5C522.98 154.507 523.647 154.669 524.161 154.988C524.682 155.307 525.066 155.717 525.314 156.219C525.561 156.72 525.685 157.26 525.685 157.84C525.685 158.751 525.486 159.516 525.089 160.135C524.698 160.753 524.126 161.219 523.37 161.531C522.622 161.844 521.713 162 520.646 162ZM546.432 159.891V162H539.284V159.891H546.432ZM540.095 147.781V162H537.409V147.781H540.095ZM568.498 154.529V155.262C568.498 156.336 568.355 157.303 568.069 158.162C567.782 159.015 567.375 159.741 566.848 160.34C566.321 160.939 565.692 161.398 564.963 161.717C564.234 162.036 563.424 162.195 562.532 162.195C561.653 162.195 560.845 162.036 560.11 161.717C559.381 161.398 558.749 160.939 558.215 160.34C557.681 159.741 557.268 159.015 556.975 158.162C556.682 157.303 556.536 156.336 556.536 155.262V154.529C556.536 153.449 556.682 152.482 556.975 151.629C557.268 150.776 557.678 150.05 558.205 149.451C558.733 148.846 559.361 148.383 560.09 148.064C560.826 147.745 561.633 147.586 562.512 147.586C563.404 147.586 564.215 147.745 564.944 148.064C565.673 148.383 566.301 148.846 566.829 149.451C567.362 150.05 567.773 150.776 568.059 151.629C568.352 152.482 568.498 153.449 568.498 154.529ZM565.784 155.262V154.51C565.784 153.735 565.712 153.055 565.569 152.469C565.426 151.876 565.214 151.378 564.934 150.975C564.654 150.571 564.309 150.268 563.899 150.066C563.489 149.858 563.026 149.754 562.512 149.754C561.991 149.754 561.529 149.858 561.125 150.066C560.728 150.268 560.39 150.571 560.11 150.975C559.83 151.378 559.615 151.876 559.465 152.469C559.322 153.055 559.25 153.735 559.25 154.51V155.262C559.25 156.03 559.322 156.71 559.465 157.303C559.615 157.895 559.83 158.396 560.11 158.807C560.396 159.21 560.741 159.516 561.145 159.725C561.549 159.933 562.011 160.037 562.532 160.037C563.052 160.037 563.515 159.933 563.918 159.725C564.322 159.516 564.661 159.21 564.934 158.807C565.214 158.396 565.426 157.895 565.569 157.303C565.712 156.71 565.784 156.03 565.784 155.262ZM591.268 154.646V160.184C591.059 160.451 590.73 160.74 590.281 161.053C589.839 161.365 589.259 161.635 588.543 161.863C587.827 162.085 586.948 162.195 585.906 162.195C585.001 162.195 584.174 162.046 583.426 161.746C582.677 161.44 582.033 160.994 581.492 160.408C580.952 159.822 580.535 159.106 580.242 158.26C579.949 157.413 579.803 156.447 579.803 155.359V154.422C579.803 153.335 579.939 152.368 580.213 151.521C580.493 150.675 580.89 149.959 581.404 149.373C581.925 148.787 582.547 148.341 583.27 148.035C583.999 147.729 584.812 147.576 585.711 147.576C586.915 147.576 587.905 147.775 588.68 148.172C589.461 148.569 590.06 149.116 590.477 149.812C590.893 150.503 591.154 151.297 591.258 152.195H588.641C588.569 151.701 588.426 151.268 588.211 150.896C587.996 150.519 587.69 150.226 587.293 150.018C586.902 149.803 586.395 149.695 585.77 149.695C585.242 149.695 584.777 149.799 584.373 150.008C583.969 150.216 583.631 150.519 583.357 150.916C583.084 151.313 582.876 151.805 582.732 152.391C582.596 152.977 582.527 153.647 582.527 154.402V155.359C582.527 156.121 582.605 156.798 582.762 157.391C582.918 157.977 583.143 158.471 583.436 158.875C583.735 159.272 584.103 159.575 584.539 159.783C584.982 159.985 585.483 160.086 586.043 160.086C586.551 160.086 586.971 160.044 587.303 159.959C587.641 159.868 587.911 159.76 588.113 159.637C588.315 159.513 588.471 159.393 588.582 159.275V156.609H585.76V154.646H591.268ZM610.648 158.309C610.648 158.035 610.606 157.791 610.521 157.576C610.443 157.355 610.296 157.156 610.082 156.98C609.873 156.798 609.577 156.622 609.193 156.453C608.815 156.277 608.327 156.095 607.728 155.906C607.064 155.698 606.446 155.464 605.873 155.203C605.3 154.943 604.795 154.64 604.359 154.295C603.929 153.95 603.594 153.553 603.353 153.104C603.112 152.648 602.992 152.12 602.992 151.521C602.992 150.936 603.115 150.402 603.363 149.92C603.617 149.438 603.975 149.025 604.437 148.68C604.899 148.328 605.443 148.058 606.068 147.869C606.699 147.68 607.396 147.586 608.158 147.586C609.212 147.586 610.124 147.778 610.892 148.162C611.667 148.546 612.266 149.067 612.689 149.725C613.112 150.382 613.324 151.121 613.324 151.941H610.648C610.648 151.499 610.554 151.108 610.365 150.77C610.183 150.431 609.903 150.164 609.525 149.969C609.154 149.773 608.685 149.676 608.119 149.676C607.572 149.676 607.116 149.757 606.752 149.92C606.393 150.083 606.123 150.304 605.941 150.584C605.765 150.864 605.677 151.176 605.677 151.521C605.677 151.782 605.739 152.016 605.863 152.225C605.987 152.426 606.172 152.618 606.42 152.801C606.667 152.977 606.973 153.143 607.337 153.299C607.709 153.449 608.138 153.598 608.627 153.748C609.408 153.982 610.091 154.243 610.677 154.529C611.27 154.816 611.761 155.141 612.152 155.506C612.549 155.87 612.845 156.281 613.041 156.736C613.242 157.192 613.343 157.71 613.343 158.289C613.343 158.901 613.223 159.448 612.982 159.93C612.741 160.411 612.396 160.822 611.947 161.16C611.498 161.499 610.957 161.756 610.326 161.932C609.701 162.107 609.001 162.195 608.226 162.195C607.536 162.195 606.852 162.104 606.175 161.922C605.505 161.733 604.896 161.453 604.349 161.082C603.802 160.704 603.366 160.229 603.041 159.656C602.715 159.077 602.552 158.4 602.552 157.625H605.248C605.248 158.074 605.319 158.458 605.462 158.777C605.612 159.09 605.821 159.347 606.087 159.549C606.361 159.744 606.68 159.887 607.045 159.979C607.409 160.07 607.803 160.115 608.226 160.115C608.773 160.115 609.222 160.04 609.574 159.891C609.932 159.734 610.199 159.52 610.375 159.246C610.557 158.973 610.648 158.66 610.648 158.309Z" fill="white"/>
<path d="M191.328 281.664H176.096L173.576 289H165.232L179.064 249.8H188.416L202.192 289H193.848L191.328 281.664ZM189.312 275.616L183.712 259.32L178.168 275.616H189.312ZM237.745 264.416H232.817V289H224.977V264.416H221.617V257.976H224.977V256.24C224.977 252.507 225.967 249.781 227.945 248.064C229.924 246.347 233.041 245.488 237.297 245.488V252.096C235.655 252.096 234.497 252.413 233.825 253.048C233.153 253.683 232.817 254.747 232.817 256.24V257.976H237.745V264.416ZM271.905 273.04C271.905 274.123 271.83 275.131 271.681 276.064H249.057C249.243 278.08 249.99 279.704 251.297 280.936C252.603 282.168 254.265 282.784 256.281 282.784C257.849 282.784 259.099 282.485 260.033 281.888C260.966 281.291 261.731 280.469 262.329 279.424H270.841C269.945 282.373 268.209 284.781 265.633 286.648C263.057 288.515 259.939 289.448 256.281 289.448C253.331 289.448 250.699 288.795 248.385 287.488C246.07 286.144 244.259 284.277 242.953 281.888C241.646 279.461 240.993 276.643 240.993 273.432C240.993 270.221 241.646 267.421 242.953 265.032C244.259 262.643 246.07 260.795 248.385 259.488C250.737 258.181 253.406 257.528 256.393 257.528C259.379 257.528 262.03 258.163 264.345 259.432C266.697 260.701 268.545 262.512 269.889 264.864C271.233 267.179 271.905 269.904 271.905 273.04ZM263.729 270.968C263.617 268.915 262.851 267.272 261.433 266.04C260.051 264.808 258.334 264.192 256.281 264.192C254.377 264.192 252.753 264.808 251.409 266.04C250.102 267.272 249.318 268.915 249.057 270.968H263.729ZM320.85 257.976L311.33 289H302.93L297.61 268.168L292.234 289H283.834L274.314 257.976H282.266L287.978 281.552L293.69 257.976H301.978L307.578 281.496L313.29 257.976H320.85ZM384.889 257.976L375.369 289H366.969L361.649 268.168L356.273 289H347.873L338.353 257.976H346.305L352.017 281.552L357.729 257.976H366.017L371.617 281.496L377.329 257.976H384.889ZM401.619 257.528C403.822 257.528 405.782 257.995 407.499 258.928C409.216 259.861 410.598 261.149 411.643 262.792V257.976H419.483V289H411.643V283.792C410.56 285.547 409.16 286.928 407.443 287.936C405.763 288.944 403.822 289.448 401.619 289.448C398.968 289.448 396.542 288.776 394.339 287.432C392.174 286.051 390.438 284.147 389.131 281.72C387.862 279.293 387.227 276.531 387.227 273.432C387.227 270.333 387.862 267.589 389.131 265.2C390.438 262.773 392.174 260.888 394.339 259.544C396.542 258.2 398.968 257.528 401.619 257.528ZM403.411 264.36C402.03 264.36 400.704 264.715 399.435 265.424C398.203 266.133 397.195 267.179 396.411 268.56C395.627 269.904 395.235 271.528 395.235 273.432C395.235 275.336 395.627 276.997 396.411 278.416C397.195 279.797 398.203 280.843 399.435 281.552C400.704 282.261 402.03 282.616 403.411 282.616C404.83 282.616 406.155 282.261 407.387 281.552C408.656 280.843 409.683 279.797 410.467 278.416C411.251 277.035 411.643 275.392 411.643 273.488C411.643 271.584 411.251 269.941 410.467 268.56C409.683 267.179 408.656 266.133 407.387 265.424C406.155 264.715 404.83 264.36 403.411 264.36ZM432.896 257.976L440.792 280.04L449.136 257.976H457.368L437.992 303.672H429.76L436.2 288.44L424.048 257.976H432.896ZM473.069 257.528C476.616 257.528 479.528 258.443 481.805 260.272C484.083 262.064 485.296 264.509 485.445 267.608H477.381C477.157 264.995 475.552 263.688 472.565 263.688C471.072 263.688 469.915 263.987 469.093 264.584C468.272 265.181 467.861 265.965 467.861 266.936C467.861 267.757 468.16 268.411 468.757 268.896C469.355 269.381 470.083 269.773 470.941 270.072C471.837 270.333 473.107 270.651 474.749 271.024C477.027 271.509 478.893 272.032 480.349 272.592C481.843 273.115 483.112 273.973 484.157 275.168C485.203 276.325 485.725 277.931 485.725 279.984C485.725 281.851 485.184 283.493 484.101 284.912C483.019 286.331 481.525 287.451 479.621 288.272C477.717 289.056 475.571 289.448 473.181 289.448C469.448 289.448 466.405 288.589 464.053 286.872C461.701 285.117 460.413 282.616 460.189 279.368H468.253C468.403 280.637 468.907 281.608 469.765 282.28C470.624 282.952 471.781 283.288 473.237 283.288C474.693 283.288 475.869 282.971 476.765 282.336C477.661 281.664 478.109 280.824 478.109 279.816C478.109 278.995 477.811 278.341 477.213 277.856C476.616 277.333 475.869 276.941 474.973 276.68C474.077 276.381 472.789 276.045 471.109 275.672C468.832 275.187 466.965 274.683 465.509 274.16C464.091 273.637 462.859 272.816 461.813 271.696C460.768 270.539 460.245 268.989 460.245 267.048C460.245 265.331 460.749 263.744 461.757 262.288C462.765 260.832 464.24 259.675 466.181 258.816C468.123 257.957 470.419 257.528 473.069 257.528ZM508.391 250.08C508.391 248.736 508.858 247.597 509.791 246.664C510.725 245.731 511.845 245.264 513.151 245.264C514.495 245.264 515.634 245.731 516.567 246.664C517.501 247.597 517.967 248.736 517.967 250.08C517.967 251.424 517.501 252.563 516.567 253.496C515.634 254.429 514.495 254.896 513.151 254.896C511.845 254.896 510.725 254.429 509.791 253.496C508.858 252.563 508.391 251.424 508.391 250.08ZM517.127 257.976V289H509.231V257.976H517.127ZM543.056 257.528C545.371 257.528 547.424 258.051 549.216 259.096C551.045 260.104 552.483 261.616 553.528 263.632C554.573 265.611 555.096 267.981 555.096 270.744V289H547.256V271.864C547.256 269.437 546.64 267.589 545.408 266.32C544.176 265.013 542.496 264.36 540.368 264.36C538.24 264.36 536.541 265.013 535.272 266.32C534.04 267.589 533.424 269.437 533.424 271.864V289H525.528V257.976H533.424V262.624C534.395 260.981 535.701 259.731 537.344 258.872C539.024 257.976 540.928 257.528 543.056 257.528ZM622.725 257.976L613.205 289H604.805L599.485 268.168L594.109 289H585.709L576.189 257.976H584.141L589.853 281.552L595.565 257.976H603.853L609.453 281.496L615.165 257.976H622.725ZM644.775 257.528C647.09 257.528 649.143 258.051 650.935 259.096C652.764 260.104 654.202 261.616 655.247 263.632C656.292 265.611 656.815 267.981 656.815 270.744V289H648.975V271.864C648.975 269.437 648.359 267.589 647.127 266.32C645.895 265.013 644.215 264.36 642.087 264.36C639.959 264.36 638.26 265.013 636.991 266.32C635.759 267.589 635.143 269.437 635.143 271.864V289H627.247V247.56H635.143V262.624C636.114 260.981 637.42 259.731 639.063 258.872C640.743 257.976 642.647 257.528 644.775 257.528ZM664.087 250.08C664.087 248.736 664.553 247.597 665.487 246.664C666.42 245.731 667.54 245.264 668.847 245.264C670.191 245.264 671.329 245.731 672.263 246.664C673.196 247.597 673.663 248.736 673.663 250.08C673.663 251.424 673.196 252.563 672.263 253.496C671.329 254.429 670.191 254.896 668.847 254.896C667.54 254.896 666.42 254.429 665.487 253.496C664.553 252.563 664.087 251.424 664.087 250.08ZM672.823 257.976V289H664.927V257.976H672.823ZM694.327 257.528C698.098 257.528 701.253 258.443 703.791 260.272C706.33 262.101 708.029 264.696 708.887 268.056H700.375C699.89 266.861 699.143 265.928 698.135 265.256C697.127 264.547 695.858 264.192 694.327 264.192C692.05 264.192 690.258 265.032 688.951 266.712C687.682 268.355 687.047 270.613 687.047 273.488C687.047 276.363 687.682 278.64 688.951 280.32C690.258 281.963 692.05 282.784 694.327 282.784C695.895 282.784 697.165 282.467 698.135 281.832C699.106 281.197 699.853 280.208 700.375 278.864H708.887C707.991 282.112 706.255 284.688 703.679 286.592C701.141 288.496 698.023 289.448 694.327 289.448C691.378 289.448 688.746 288.795 686.431 287.488C684.117 286.181 682.306 284.333 680.999 281.944C679.693 279.517 679.039 276.699 679.039 273.488C679.039 270.277 679.693 267.477 680.999 265.088C682.306 262.661 684.117 260.795 686.431 259.488C688.746 258.181 691.378 257.528 694.327 257.528ZM732.33 257.528C734.644 257.528 736.698 258.051 738.49 259.096C740.319 260.104 741.756 261.616 742.802 263.632C743.847 265.611 744.37 267.981 744.37 270.744V289H736.53V271.864C736.53 269.437 735.914 267.589 734.682 266.32C733.45 265.013 731.77 264.36 729.642 264.36C727.514 264.36 725.815 265.013 724.546 266.32C723.314 267.589 722.698 269.437 722.698 271.864V289H714.802V247.56H722.698V262.624C723.668 260.981 724.975 259.731 726.618 258.872C728.298 257.976 730.202 257.528 732.33 257.528ZM180.408 341.528C182.611 341.528 184.571 341.995 186.288 342.928C188.005 343.861 189.387 345.149 190.432 346.792V341.976H198.272V373H190.432V367.792C189.349 369.547 187.949 370.928 186.232 371.936C184.552 372.944 182.611 373.448 180.408 373.448C177.757 373.448 175.331 372.776 173.128 371.432C170.963 370.051 169.227 368.147 167.92 365.72C166.651 363.293 166.016 360.531 166.016 357.432C166.016 354.333 166.651 351.589 167.92 349.2C169.227 346.773 170.963 344.888 173.128 343.544C175.331 342.2 177.757 341.528 180.408 341.528ZM182.2 348.36C180.819 348.36 179.493 348.715 178.224 349.424C176.992 350.133 175.984 351.179 175.2 352.56C174.416 353.904 174.024 355.528 174.024 357.432C174.024 359.336 174.416 360.997 175.2 362.416C175.984 363.797 176.992 364.843 178.224 365.552C179.493 366.261 180.819 366.616 182.2 366.616C183.619 366.616 184.944 366.261 186.176 365.552C187.445 364.843 188.472 363.797 189.256 362.416C190.04 361.035 190.432 359.392 190.432 357.488C190.432 355.584 190.04 353.941 189.256 352.56C188.472 351.179 187.445 350.133 186.176 349.424C184.944 348.715 183.619 348.36 182.2 348.36ZM214.541 347.464C215.512 345.597 216.763 344.141 218.293 343.096C219.861 342.051 221.635 341.528 223.613 341.528V349.592H221.653C219.301 349.592 217.528 350.189 216.333 351.384C215.139 352.541 214.541 354.557 214.541 357.432V373H206.645V341.976H214.541V347.464ZM245.023 366.392V373H240.039C236.866 373 234.421 372.272 232.703 370.816C230.986 369.36 230.127 366.952 230.127 363.592V348.416H226.823V341.976H230.127V334.304H238.023V341.976H244.967V348.416H238.023V363.592C238.023 364.6 238.266 365.328 238.751 365.776C239.237 366.187 240.077 366.392 241.271 366.392H245.023ZM250.321 334.08C250.321 332.736 250.788 331.597 251.721 330.664C252.654 329.731 253.774 329.264 255.081 329.264C256.425 329.264 257.564 329.731 258.497 330.664C259.43 331.597 259.897 332.736 259.897 334.08C259.897 335.424 259.43 336.563 258.497 337.496C257.564 338.429 256.425 338.896 255.081 338.896C253.774 338.896 252.654 338.429 251.721 337.496C250.788 336.563 250.321 335.424 250.321 334.08ZM259.057 341.976V373H251.161V341.976H259.057ZM280.562 341.528C284.332 341.528 287.487 342.443 290.026 344.272C292.564 346.101 294.263 348.696 295.122 352.056H286.61C286.124 350.861 285.378 349.928 284.37 349.256C283.362 348.547 282.092 348.192 280.562 348.192C278.284 348.192 276.492 349.032 275.186 350.712C273.916 352.355 273.282 354.613 273.282 357.488C273.282 360.363 273.916 362.64 275.186 364.32C276.492 365.963 278.284 366.784 280.562 366.784C282.13 366.784 283.399 366.467 284.37 365.832C285.34 365.197 286.087 364.208 286.61 362.864H295.122C294.226 366.112 292.49 368.688 289.914 370.592C287.375 372.496 284.258 373.448 280.562 373.448C277.612 373.448 274.98 372.795 272.666 371.488C270.351 370.181 268.54 368.333 267.234 365.944C265.927 363.517 265.274 360.699 265.274 357.488C265.274 354.277 265.927 351.477 267.234 349.088C268.54 346.661 270.351 344.795 272.666 343.488C274.98 342.181 277.612 341.528 280.562 341.528ZM308.932 331.56V373H301.036V331.56H308.932ZM346.061 357.04C346.061 358.123 345.986 359.131 345.837 360.064H323.213C323.399 362.08 324.146 363.704 325.453 364.936C326.759 366.168 328.421 366.784 330.437 366.784C332.005 366.784 333.255 366.485 334.189 365.888C335.122 365.291 335.887 364.469 336.485 363.424H344.997C344.101 366.373 342.365 368.781 339.789 370.648C337.213 372.515 334.095 373.448 330.437 373.448C327.487 373.448 324.855 372.795 322.541 371.488C320.226 370.144 318.415 368.277 317.109 365.888C315.802 363.461 315.149 360.643 315.149 357.432C315.149 354.221 315.802 351.421 317.109 349.032C318.415 346.643 320.226 344.795 322.541 343.488C324.893 342.181 327.562 341.528 330.549 341.528C333.535 341.528 336.186 342.163 338.501 343.432C340.853 344.701 342.701 346.512 344.045 348.864C345.389 351.179 346.061 353.904 346.061 357.04ZM337.885 354.968C337.773 352.915 337.007 351.272 335.589 350.04C334.207 348.808 332.49 348.192 330.437 348.192C328.533 348.192 326.909 348.808 325.565 350.04C324.258 351.272 323.474 352.915 323.213 354.968H337.885ZM363.366 341.528C366.913 341.528 369.825 342.443 372.102 344.272C374.379 346.064 375.593 348.509 375.742 351.608H367.678C367.454 348.995 365.849 347.688 362.862 347.688C361.369 347.688 360.211 347.987 359.39 348.584C358.569 349.181 358.158 349.965 358.158 350.936C358.158 351.757 358.457 352.411 359.054 352.896C359.651 353.381 360.379 353.773 361.238 354.072C362.134 354.333 363.403 354.651 365.046 355.024C367.323 355.509 369.19 356.032 370.646 356.592C372.139 357.115 373.409 357.973 374.454 359.168C375.499 360.325 376.022 361.931 376.022 363.984C376.022 365.851 375.481 367.493 374.398 368.912C373.315 370.331 371.822 371.451 369.918 372.272C368.014 373.056 365.867 373.448 363.478 373.448C359.745 373.448 356.702 372.589 354.35 370.872C351.998 369.117 350.71 366.616 350.486 363.368H358.55C358.699 364.637 359.203 365.608 360.062 366.28C360.921 366.952 362.078 367.288 363.534 367.288C364.99 367.288 366.166 366.971 367.062 366.336C367.958 365.664 368.406 364.824 368.406 363.816C368.406 362.995 368.107 362.341 367.51 361.856C366.913 361.333 366.166 360.941 365.27 360.68C364.374 360.381 363.086 360.045 361.406 359.672C359.129 359.187 357.262 358.683 355.806 358.16C354.387 357.637 353.155 356.816 352.11 355.696C351.065 354.539 350.542 352.989 350.542 351.048C350.542 349.331 351.046 347.744 352.054 346.288C353.062 344.832 354.537 343.675 356.478 342.816C358.419 341.957 360.715 341.528 363.366 341.528ZM424.336 373L420.024 367.064C419.053 368.931 417.597 370.461 415.656 371.656C413.752 372.813 411.661 373.392 409.384 373.392C407.144 373.392 405.091 372.869 403.224 371.824C401.357 370.741 399.883 369.285 398.8 367.456C397.717 365.589 397.176 363.517 397.176 361.24C397.176 359.149 397.605 357.245 398.464 355.528C399.323 353.811 400.48 352.429 401.936 351.384C403.429 350.301 405.053 349.629 406.808 349.368C405.651 347.688 404.811 346.232 404.288 345C403.765 343.768 403.504 342.536 403.504 341.304C403.504 339.587 403.915 338 404.736 336.544C405.595 335.051 406.845 333.856 408.488 332.96C410.168 332.027 412.147 331.56 414.424 331.56C416.701 331.56 418.661 331.989 420.304 332.848C421.984 333.707 423.253 334.827 424.112 336.208C425.008 337.552 425.456 339.008 425.456 340.576C425.456 341.808 425.232 342.872 424.784 343.768H417.224C417.56 343.133 417.728 342.405 417.728 341.584C417.728 340.613 417.411 339.811 416.776 339.176C416.179 338.541 415.395 338.224 414.424 338.224C413.453 338.224 412.669 338.541 412.072 339.176C411.475 339.811 411.176 340.576 411.176 341.472C411.176 342.107 411.288 342.723 411.512 343.32C411.773 343.88 412.221 344.589 412.856 345.448L433.52 373H424.336ZM409.44 366.952C410.971 366.952 412.277 366.392 413.36 365.272C414.48 364.115 415.04 362.733 415.04 361.128C415.04 359.523 414.48 358.179 413.36 357.096C412.277 355.976 410.971 355.416 409.44 355.416C407.909 355.416 406.603 355.976 405.52 357.096C404.437 358.179 403.896 359.523 403.896 361.128C403.896 362.733 404.437 364.115 405.52 365.272C406.603 366.392 407.909 366.952 409.44 366.952ZM472.736 341.528C475.387 341.528 477.813 342.2 480.016 343.544C482.219 344.888 483.955 346.773 485.224 349.2C486.493 351.589 487.128 354.333 487.128 357.432C487.128 360.531 486.493 363.312 485.224 365.776C483.955 368.203 482.219 370.088 480.016 371.432C477.813 372.776 475.387 373.448 472.736 373.448C470.496 373.448 468.536 372.944 466.856 371.936C465.213 370.928 463.851 369.547 462.768 367.792V373H454.872V331.56H462.768V346.792C463.776 345.149 465.12 343.861 466.8 342.928C468.517 341.995 470.496 341.528 472.736 341.528ZM470.944 348.36C469.525 348.36 468.181 348.715 466.912 349.424C465.68 350.133 464.672 351.179 463.888 352.56C463.141 353.941 462.768 355.584 462.768 357.488C462.768 359.392 463.141 361.035 463.888 362.416C464.672 363.797 465.68 364.843 466.912 365.552C468.181 366.261 469.525 366.616 470.944 366.616C472.363 366.616 473.688 366.261 474.92 365.552C476.189 364.843 477.197 363.797 477.944 362.416C478.728 360.997 479.12 359.336 479.12 357.432C479.12 355.528 478.728 353.885 477.944 352.504C477.197 351.123 476.189 350.096 474.92 349.424C473.688 348.715 472.363 348.36 470.944 348.36ZM501.213 331.56V373H493.317V331.56H501.213ZM523.502 341.528C526.451 341.528 529.139 342.181 531.566 343.488C533.993 344.795 535.915 346.661 537.334 349.088C538.753 351.477 539.462 354.259 539.462 357.432C539.462 360.605 538.753 363.405 537.334 365.832C535.915 368.259 533.974 370.144 531.51 371.488C529.083 372.795 526.377 373.448 523.39 373.448C520.441 373.448 517.753 372.795 515.326 371.488C512.899 370.144 510.977 368.259 509.558 365.832C508.177 363.405 507.486 360.605 507.486 357.432C507.486 354.259 508.195 351.477 509.614 349.088C511.033 346.661 512.955 344.795 515.382 343.488C517.809 342.181 520.515 341.528 523.502 341.528ZM523.446 348.192C521.206 348.192 519.321 348.995 517.79 350.6C516.259 352.205 515.494 354.501 515.494 357.488C515.494 359.504 515.849 361.221 516.558 362.64C517.305 364.021 518.275 365.067 519.47 365.776C520.665 366.448 521.971 366.784 523.39 366.784C524.771 366.784 526.078 366.429 527.31 365.72C528.542 365.011 529.531 363.965 530.278 362.584C531.062 361.165 531.454 359.467 531.454 357.488C531.454 355.472 531.081 353.773 530.334 352.392C529.587 350.973 528.598 349.928 527.366 349.256C526.171 348.547 524.865 348.192 523.446 348.192ZM557.916 341.528C560.118 341.528 562.078 341.995 563.796 342.928C565.513 343.861 566.894 345.149 567.94 346.792V341.976H575.78V373.224C575.78 376.099 575.201 378.675 574.044 380.952C572.924 383.229 571.206 385.021 568.892 386.328C566.614 387.672 563.796 388.344 560.436 388.344C555.993 388.344 552.372 387.355 549.572 385.376C546.809 383.435 545.241 380.653 544.868 377.032H552.596C553.081 378.413 554.014 379.496 555.396 380.28C556.777 381.101 558.457 381.512 560.436 381.512C562.638 381.512 564.43 380.821 565.812 379.44C567.23 378.059 567.94 375.987 567.94 373.224V367.792C566.857 369.547 565.457 370.928 563.74 371.936C562.06 372.944 560.118 373.448 557.916 373.448C555.265 373.448 552.838 372.776 550.636 371.432C548.47 370.051 546.734 368.147 545.428 365.72C544.158 363.293 543.524 360.531 543.524 357.432C543.524 354.333 544.158 351.589 545.428 349.2C546.734 346.773 548.47 344.888 550.636 343.544C552.838 342.2 555.265 341.528 557.916 341.528ZM559.708 348.36C558.326 348.36 557.001 348.715 555.732 349.424C554.5 350.133 553.492 351.179 552.708 352.56C551.924 353.904 551.532 355.528 551.532 357.432C551.532 359.336 551.924 360.997 552.708 362.416C553.492 363.797 554.5 364.843 555.732 365.552C557.001 366.261 558.326 366.616 559.708 366.616C561.126 366.616 562.452 366.261 563.684 365.552C564.953 364.843 565.98 363.797 566.764 362.416C567.548 361.035 567.94 359.392 567.94 357.488C567.94 355.584 567.548 353.941 566.764 352.56C565.98 351.179 564.953 350.133 563.684 349.424C562.452 348.715 561.126 348.36 559.708 348.36ZM595.241 341.528C598.788 341.528 601.7 342.443 603.977 344.272C606.254 346.064 607.468 348.509 607.617 351.608H599.553C599.329 348.995 597.724 347.688 594.737 347.688C593.244 347.688 592.086 347.987 591.265 348.584C590.444 349.181 590.033 349.965 590.033 350.936C590.033 351.757 590.332 352.411 590.929 352.896C591.526 353.381 592.254 353.773 593.113 354.072C594.009 354.333 595.278 354.651 596.921 355.024C599.198 355.509 601.065 356.032 602.521 356.592C604.014 357.115 605.284 357.973 606.329 359.168C607.374 360.325 607.897 361.931 607.897 363.984C607.897 365.851 607.356 367.493 606.273 368.912C605.19 370.331 603.697 371.451 601.793 372.272C599.889 373.056 597.742 373.448 595.353 373.448C591.62 373.448 588.577 372.589 586.225 370.872C583.873 369.117 582.585 366.616 582.361 363.368H590.425C590.574 364.637 591.078 365.608 591.937 366.28C592.796 366.952 593.953 367.288 595.409 367.288C596.865 367.288 598.041 366.971 598.937 366.336C599.833 365.664 600.281 364.824 600.281 363.816C600.281 362.995 599.982 362.341 599.385 361.856C598.788 361.333 598.041 360.941 597.145 360.68C596.249 360.381 594.961 360.045 593.281 359.672C591.004 359.187 589.137 358.683 587.681 358.16C586.262 357.637 585.03 356.816 583.985 355.696C582.94 354.539 582.417 352.989 582.417 351.048C582.417 349.331 582.921 347.744 583.929 346.288C584.937 344.832 586.412 343.675 588.353 342.816C590.294 341.957 592.59 341.528 595.241 341.528ZM644.507 341.528C648.278 341.528 651.432 342.443 653.971 344.272C656.51 346.101 658.208 348.696 659.067 352.056H650.555C650.07 350.861 649.323 349.928 648.315 349.256C647.307 348.547 646.038 348.192 644.507 348.192C642.23 348.192 640.438 349.032 639.131 350.712C637.862 352.355 637.227 354.613 637.227 357.488C637.227 360.363 637.862 362.64 639.131 364.32C640.438 365.963 642.23 366.784 644.507 366.784C646.075 366.784 647.344 366.467 648.315 365.832C649.286 365.197 650.032 364.208 650.555 362.864H659.067C658.171 366.112 656.435 368.688 653.859 370.592C651.32 372.496 648.203 373.448 644.507 373.448C641.558 373.448 638.926 372.795 636.611 371.488C634.296 370.181 632.486 368.333 631.179 365.944C629.872 363.517 629.219 360.699 629.219 357.488C629.219 354.277 629.872 351.477 631.179 349.088C632.486 346.661 634.296 344.795 636.611 343.488C638.926 342.181 641.558 341.528 644.507 341.528ZM677.189 341.528C679.392 341.528 681.352 341.995 683.069 342.928C684.787 343.861 686.168 345.149 687.213 346.792V341.976H695.053V373H687.213V367.792C686.131 369.547 684.731 370.928 683.013 371.936C681.333 372.944 679.392 373.448 677.189 373.448C674.539 373.448 672.112 372.776 669.909 371.432C667.744 370.051 666.008 368.147 664.701 365.72C663.432 363.293 662.797 360.531 662.797 357.432C662.797 354.333 663.432 351.589 664.701 349.2C666.008 346.773 667.744 344.888 669.909 343.544C672.112 342.2 674.539 341.528 677.189 341.528ZM678.981 348.36C677.6 348.36 676.275 348.715 675.005 349.424C673.773 350.133 672.765 351.179 671.981 352.56C671.197 353.904 670.805 355.528 670.805 357.432C670.805 359.336 671.197 360.997 671.981 362.416C672.765 363.797 673.773 364.843 675.005 365.552C676.275 366.261 677.6 366.616 678.981 366.616C680.4 366.616 681.725 366.261 682.957 365.552C684.227 364.843 685.253 363.797 686.037 362.416C686.821 361.035 687.213 359.392 687.213 357.488C687.213 355.584 686.821 353.941 686.037 352.56C685.253 351.179 684.227 350.133 682.957 349.424C681.725 348.715 680.4 348.36 678.981 348.36ZM720.955 341.528C723.269 341.528 725.323 342.051 727.115 343.096C728.944 344.104 730.381 345.616 731.427 347.632C732.472 349.611 732.995 351.981 732.995 354.744V373H725.155V355.864C725.155 353.437 724.539 351.589 723.307 350.32C722.075 349.013 720.395 348.36 718.267 348.36C716.139 348.36 714.44 349.013 713.171 350.32C711.939 351.589 711.323 353.437 711.323 355.864V373H703.427V341.976H711.323V346.624C712.293 344.981 713.6 343.731 715.243 342.872C716.923 341.976 718.827 341.528 720.955 341.528ZM775.423 341.528C777.738 341.528 779.791 342.051 781.583 343.096C783.413 344.104 784.85 345.616 785.895 347.632C786.941 349.611 787.463 351.981 787.463 354.744V373H779.623V355.864C779.623 353.437 779.007 351.589 777.775 350.32C776.543 349.013 774.863 348.36 772.735 348.36C770.607 348.36 768.909 349.013 767.639 350.32C766.407 351.589 765.791 353.437 765.791 355.864V373H757.895V331.56H765.791V346.624C766.762 344.981 768.069 343.731 769.711 342.872C771.391 341.976 773.295 341.528 775.423 341.528ZM824.303 357.04C824.303 358.123 824.228 359.131 824.079 360.064H801.455C801.642 362.08 802.388 363.704 803.695 364.936C805.002 366.168 806.663 366.784 808.679 366.784C810.247 366.784 811.498 366.485 812.431 365.888C813.364 365.291 814.13 364.469 814.727 363.424H823.239C822.343 366.373 820.607 368.781 818.031 370.648C815.455 372.515 812.338 373.448 808.679 373.448C805.73 373.448 803.098 372.795 800.783 371.488C798.468 370.144 796.658 368.277 795.351 365.888C794.044 363.461 793.391 360.643 793.391 357.432C793.391 354.221 794.044 351.421 795.351 349.032C796.658 346.643 798.468 344.795 800.783 343.488C803.135 342.181 805.804 341.528 808.791 341.528C811.778 341.528 814.428 342.163 816.743 343.432C819.095 344.701 820.943 346.512 822.287 348.864C823.631 351.179 824.303 353.904 824.303 357.04ZM816.127 354.968C816.015 352.915 815.25 351.272 813.831 350.04C812.45 348.808 810.732 348.192 808.679 348.192C806.775 348.192 805.151 348.808 803.807 350.04C802.5 351.272 801.716 352.915 801.455 354.968H816.127ZM838.416 331.56V373H830.52V331.56H838.416ZM864.681 341.528C867.332 341.528 869.759 342.2 871.961 343.544C874.164 344.888 875.9 346.773 877.169 349.2C878.439 351.589 879.073 354.333 879.073 357.432C879.073 360.531 878.439 363.312 877.169 365.776C875.9 368.203 874.164 370.088 871.961 371.432C869.759 372.776 867.332 373.448 864.681 373.448C862.441 373.448 860.481 372.944 858.801 371.936C857.159 370.928 855.796 369.547 854.713 367.792V387.784H846.817V341.976H854.713V346.792C855.721 345.149 857.065 343.861 858.745 342.928C860.463 341.995 862.441 341.528 864.681 341.528ZM862.889 348.36C861.471 348.36 860.127 348.715 858.857 349.424C857.625 350.133 856.617 351.179 855.833 352.56C855.087 353.941 854.713 355.584 854.713 357.488C854.713 359.392 855.087 361.035 855.833 362.416C856.617 363.797 857.625 364.843 858.857 365.552C860.127 366.261 861.471 366.616 862.889 366.616C864.308 366.616 865.633 366.261 866.865 365.552C868.135 364.843 869.143 363.797 869.889 362.416C870.673 360.997 871.065 359.336 871.065 357.432C871.065 355.528 870.673 353.885 869.889 352.504C869.143 351.123 868.135 350.096 866.865 349.424C865.633 348.715 864.308 348.36 862.889 348.36Z" fill="white"/>
<circle cx="1403.25" cy="295.944" r="88.056" fill="white"/>
<path d="M1426.33 285.348C1426.52 284.631 1426.1 283.894 1425.38 283.702L1413.7 280.572C1412.98 280.38 1412.25 280.805 1412.05 281.522C1411.86 282.239 1412.29 282.976 1413 283.168L1423.39 285.95L1420.61 296.334C1420.41 297.051 1420.84 297.788 1421.56 297.98C1422.27 298.172 1423.01 297.746 1423.2 297.029L1426.33 285.348ZM1380.67 312.164L1425.71 286.164L1424.36 283.836L1379.33 309.836L1380.67 312.164Z" fill="#102E4A"/>
<path d="M1306.13 331.798L1307.68 336.079L1310.06 336.067L1310.53 337.36L1299.63 337.337L1299.13 335.947L1307.5 328.977L1307.97 330.284L1306.13 331.798ZM1305.26 332.521L1300.93 336.098L1306.55 336.08L1305.26 332.521Z" fill="white"/>
<path d="M1302.45 306.483L1298.5 309.565L1298.62 310.875L1302.83 310.47L1302.96 311.809L1292.76 312.789L1292.44 309.479C1292.37 308.714 1292.44 308.054 1292.65 307.498C1292.86 306.944 1293.18 306.513 1293.61 306.203C1294.04 305.895 1294.54 305.714 1295.11 305.659C1295.84 305.588 1296.5 305.748 1297.08 306.137C1297.66 306.527 1298.07 307.156 1298.29 308.026L1302.28 304.805L1302.45 306.483ZM1297.56 310.976L1297.37 309.005C1297.3 308.269 1297.08 307.741 1296.72 307.42C1296.34 307.09 1295.84 306.954 1295.24 307.013C1294.63 307.071 1294.17 307.293 1293.87 307.678C1293.56 308.064 1293.45 308.63 1293.52 309.376L1293.71 311.347L1297.56 310.976Z" fill="white"/>
<path d="M1292.78 279.625L1293.85 279.774L1293.47 282.453L1302.55 283.72L1302.36 285.053L1293.29 283.785L1292.91 286.464L1291.84 286.315L1292.78 279.625Z" fill="white"/>
<path d="M1297.28 260.535L1306.99 263.804L1306.56 265.079L1296.85 261.81L1297.28 260.535Z" fill="white"/>
<path d="M1305.46 241.474C1306 240.559 1306.7 239.873 1307.55 239.417C1308.41 238.953 1309.35 238.793 1310.36 238.936L1309.53 240.335C1308.9 240.303 1308.32 240.44 1307.79 240.747C1307.27 241.054 1306.83 241.5 1306.49 242.085C1306.11 242.712 1305.92 243.365 1305.91 244.045C1305.89 244.711 1306.06 245.344 1306.42 245.943C1306.77 246.535 1307.3 247.034 1307.98 247.441C1308.67 247.848 1309.36 248.068 1310.05 248.099C1310.75 248.123 1311.39 247.97 1311.97 247.641C1312.56 247.303 1313.04 246.82 1313.42 246.193C1313.76 245.608 1313.94 245.012 1313.96 244.403C1313.97 243.79 1313.81 243.213 1313.48 242.672L1314.31 241.273C1314.92 242.095 1315.23 242.994 1315.23 243.971C1315.24 244.939 1314.98 245.881 1314.43 246.796C1313.95 247.619 1313.31 248.26 1312.52 248.72C1311.72 249.176 1310.87 249.401 1309.95 249.398C1309.03 249.389 1308.14 249.131 1307.28 248.623C1306.42 248.111 1305.77 247.454 1305.32 246.654C1304.87 245.848 1304.66 244.989 1304.69 244.076C1304.71 243.164 1304.97 242.296 1305.46 241.474Z" fill="white"/>
<path d="M1327.74 226.353L1330.24 223.774L1330.98 224.494L1327.54 228.039L1320.19 220.909L1321.12 219.944L1327.74 226.353Z" fill="white"/>
<path d="M1337.98 206.28L1339.94 209.162L1342.95 207.113L1343.54 207.98L1340.53 210.029L1342.55 212.984L1345.92 210.685L1346.52 211.564L1342.04 214.621L1336.26 206.159L1340.75 203.102L1341.35 203.981L1337.98 206.28Z" fill="white"/>
<path d="M1365.48 198.403C1365.67 198.879 1365.73 199.377 1365.65 199.896C1365.57 200.416 1365.34 200.906 1364.96 201.365C1364.58 201.815 1364.05 202.175 1363.37 202.446C1362.77 202.687 1362.19 202.809 1361.62 202.81C1361.06 202.803 1360.56 202.673 1360.13 202.42C1359.71 202.155 1359.39 201.766 1359.19 201.254L1360.52 200.721C1360.73 201.137 1361.04 201.417 1361.44 201.562C1361.86 201.703 1362.37 201.654 1362.96 201.416C1363.58 201.171 1364 200.822 1364.23 200.368C1364.46 199.914 1364.48 199.445 1364.29 198.96C1364.14 198.594 1363.93 198.346 1363.64 198.216C1363.35 198.077 1363.03 198.013 1362.69 198.024C1362.34 198.035 1361.9 198.086 1361.35 198.177C1360.66 198.283 1360.09 198.337 1359.63 198.339C1359.18 198.337 1358.75 198.217 1358.34 197.979C1357.94 197.737 1357.61 197.31 1357.37 196.697C1357.15 196.166 1357.1 195.648 1357.19 195.143C1357.29 194.638 1357.53 194.181 1357.92 193.771C1358.31 193.348 1358.83 193.009 1359.47 192.753C1360.34 192.405 1361.13 192.339 1361.84 192.553C1362.56 192.755 1363.11 193.214 1363.49 193.931L1362.1 194.486C1361.92 194.125 1361.61 193.876 1361.18 193.739C1360.77 193.598 1360.29 193.633 1359.76 193.845C1359.22 194.061 1358.84 194.374 1358.61 194.784C1358.38 195.185 1358.36 195.646 1358.57 196.167C1358.72 196.542 1358.94 196.8 1359.23 196.939C1359.52 197.078 1359.83 197.144 1360.17 197.137C1360.51 197.126 1360.98 197.074 1361.56 196.98C1362.24 196.878 1362.8 196.828 1363.25 196.83C1363.69 196.823 1364.11 196.935 1364.51 197.168C1364.92 197.397 1365.24 197.808 1365.48 198.403Z" fill="white"/>
<path d="M1404.85 191.928L1400.3 191.818L1399.45 194.044L1398.08 194.011L1402.05 183.861L1403.53 183.897L1406.99 194.227L1405.6 194.194L1404.85 191.928ZM1404.5 190.855L1402.73 185.519L1400.71 190.763L1404.5 190.855Z" fill="white"/>
<path d="M1432.48 198.444L1431.19 198.068L1428.27 188.751L1426 196.557L1424.71 196.181L1427.57 186.345L1428.86 186.721L1431.78 196.039L1434.06 188.233L1435.35 188.609L1432.48 198.444Z" fill="white"/>
<path d="M1459.43 205.056C1458.88 205.959 1458.23 206.628 1457.46 207.063C1456.7 207.489 1455.86 207.667 1454.96 207.596C1454.08 207.522 1453.16 207.203 1452.23 206.638L1449.45 204.968L1454.74 196.193L1457.51 197.864C1458.45 198.428 1459.15 199.097 1459.62 199.872C1460.09 200.644 1460.32 201.475 1460.29 202.365C1460.26 203.247 1459.98 204.144 1459.43 205.056ZM1452.76 205.752C1453.87 206.418 1454.89 206.623 1455.84 206.366C1456.79 206.109 1457.59 205.436 1458.25 204.347C1458.91 203.258 1459.13 202.234 1458.91 201.275C1458.69 200.317 1458.03 199.504 1456.93 198.839L1455.3 197.862L1451.14 204.776L1452.76 205.752Z" fill="white"/>
<path d="M1489.55 232.719C1489.84 233.321 1489.91 233.926 1489.75 234.534C1489.59 235.143 1489.25 235.63 1488.74 235.994C1488.33 236.285 1487.87 236.437 1487.38 236.451C1486.88 236.473 1486.39 236.343 1485.91 236.062C1485.42 235.788 1484.99 235.378 1484.6 234.831L1482.38 231.694L1490.74 225.775L1492.86 228.767C1493.26 229.338 1493.51 229.893 1493.6 230.432C1493.69 230.97 1493.64 231.46 1493.45 231.9C1493.26 232.343 1492.96 232.715 1492.53 233.017C1492.07 233.347 1491.58 233.482 1491.06 233.423C1490.56 233.358 1490.05 233.123 1489.55 232.719ZM1487.88 229.444L1489.19 231.29C1489.55 231.796 1489.95 232.105 1490.39 232.216C1490.84 232.329 1491.28 232.237 1491.7 231.941C1492.13 231.639 1492.36 231.255 1492.4 230.789C1492.45 230.331 1492.3 229.849 1491.94 229.342L1490.63 227.497L1487.88 229.444ZM1485.42 234.156C1485.8 234.686 1486.23 235.007 1486.7 235.116C1487.18 235.234 1487.66 235.128 1488.13 234.797C1488.58 234.473 1488.83 234.052 1488.86 233.534C1488.9 233.025 1488.73 232.5 1488.34 231.961L1487 230.068L1484.02 232.177L1485.42 234.156Z" fill="white"/>
<path d="M1496.71 253.288L1498.1 256.6L1497.15 257.001L1495.24 252.449L1504.68 248.482L1505.2 249.722L1496.71 253.288Z" fill="white"/>
<path d="M1513.11 274.19C1513.27 275.133 1513.19 276.03 1512.88 276.88C1512.57 277.739 1512.06 278.462 1511.35 279.049C1510.65 279.634 1509.8 280.008 1508.81 280.171C1507.83 280.333 1506.9 280.25 1506.04 279.922C1505.18 279.595 1504.46 279.074 1503.88 278.36C1503.32 277.654 1502.95 276.829 1502.8 275.886C1502.64 274.943 1502.72 274.042 1503.03 273.182C1503.35 272.321 1503.86 271.597 1504.57 271.011C1505.29 270.424 1506.13 270.05 1507.12 269.888C1508.11 269.725 1509.03 269.808 1509.88 270.137C1510.75 270.465 1511.46 270.986 1512.03 271.702C1512.6 272.418 1512.96 273.247 1513.11 274.19ZM1511.93 274.384C1511.81 273.665 1511.54 273.041 1511.11 272.512C1510.7 271.991 1510.16 271.615 1509.5 271.383C1508.85 271.152 1508.12 271.101 1507.34 271.23C1506.55 271.36 1505.88 271.639 1505.33 272.069C1504.78 272.499 1504.39 273.028 1504.16 273.656C1503.92 274.294 1503.86 274.972 1503.98 275.692C1504.1 276.412 1504.37 277.031 1504.8 277.55C1505.22 278.07 1505.76 278.44 1506.42 278.662C1507.07 278.893 1507.8 278.944 1508.58 278.815C1509.37 278.685 1510.04 278.405 1510.59 277.976C1511.14 277.556 1511.53 277.032 1511.75 276.406C1511.99 275.778 1512.05 275.104 1511.93 274.384Z" fill="white"/>
<path d="M1514.81 304.815C1514.69 305.873 1514.33 306.785 1513.74 307.551C1513.15 308.328 1512.36 308.859 1511.38 309.145L1511.56 307.529C1512.15 307.298 1512.62 306.934 1512.97 306.439C1513.33 305.943 1513.54 305.357 1513.62 304.682C1513.7 303.957 1513.61 303.282 1513.34 302.657C1513.08 302.043 1512.67 301.535 1512.1 301.134C1511.53 300.743 1510.85 300.502 1510.05 300.413C1509.26 300.324 1508.54 300.407 1507.9 300.661C1507.25 300.926 1506.73 301.328 1506.33 301.869C1505.93 302.419 1505.69 303.056 1505.61 303.781C1505.5 304.819 1505.7 305.695 1506.24 306.41C1506.77 307.134 1507.55 307.609 1508.58 307.833L1509.05 303.632L1510.11 303.751L1509.48 309.362L1508.42 309.243C1507.57 309.058 1506.82 308.691 1506.18 308.143C1505.53 307.605 1505.06 306.941 1504.75 306.153C1504.44 305.375 1504.34 304.54 1504.44 303.649C1504.54 302.699 1504.86 301.852 1505.39 301.108C1505.93 300.366 1506.62 299.809 1507.46 299.437C1508.3 299.066 1509.22 298.936 1510.21 299.047C1511.2 299.159 1512.07 299.49 1512.8 300.038C1513.54 300.588 1514.09 301.284 1514.44 302.127C1514.79 302.969 1514.91 303.866 1514.81 304.815Z" fill="white"/>
<path d="M1500.53 333.54C1500.05 333.358 1499.64 333.062 1499.32 332.653C1498.99 332.243 1498.78 331.744 1498.7 331.154C1498.63 330.568 1498.72 329.934 1498.98 329.252C1499.21 328.644 1499.51 328.132 1499.89 327.718C1500.28 327.306 1500.71 327.028 1501.19 326.882C1501.67 326.749 1502.17 326.781 1502.69 326.977L1502.18 328.317C1501.73 328.189 1501.32 328.227 1500.93 328.43C1500.55 328.641 1500.24 329.047 1500.01 329.645C1499.78 330.263 1499.75 330.81 1499.93 331.289C1500.11 331.767 1500.44 332.099 1500.93 332.284C1501.29 332.424 1501.62 332.433 1501.91 332.31C1502.21 332.192 1502.47 332.001 1502.7 331.739C1502.92 331.477 1503.19 331.114 1503.49 330.649C1503.88 330.07 1504.23 329.611 1504.53 329.275C1504.84 328.947 1505.22 328.712 1505.67 328.568C1506.12 328.434 1506.66 328.484 1507.28 328.718C1507.81 328.921 1508.23 329.229 1508.54 329.64C1508.85 330.052 1509.02 330.54 1509.06 331.103C1509.1 331.678 1509 332.289 1508.76 332.934C1508.43 333.809 1507.94 334.436 1507.3 334.815C1506.67 335.207 1505.96 335.301 1505.17 335.097L1505.7 333.701C1506.09 333.808 1506.48 333.751 1506.87 333.53C1507.26 333.318 1507.55 332.945 1507.76 332.411C1507.96 331.867 1507.99 331.372 1507.84 330.927C1507.71 330.484 1507.38 330.163 1506.85 329.964C1506.47 329.821 1506.13 329.808 1505.84 329.927C1505.54 330.046 1505.28 330.232 1505.06 330.484C1504.83 330.746 1504.56 331.122 1504.23 331.611C1503.85 332.181 1503.5 332.63 1503.2 332.958C1502.91 333.289 1502.54 333.523 1502.09 333.661C1501.65 333.808 1501.13 333.767 1500.53 333.54Z" fill="white"/>
</svg>
