<svg width="322" height="273" viewBox="0 0 322 273" fill="none" xmlns="http://www.w3.org/2000/svg">
<rect x="11" y="78" width="34" height="31" rx="7" fill="#102E4A" fill-opacity="0.33"/>
<rect x="11" y="166" width="34" height="31" rx="7" fill="#102E4A" fill-opacity="0.33"/>
<rect x="11" y="242" width="34" height="31" rx="7" fill="#102E4A" fill-opacity="0.15"/>
<path d="M37.6233 87.3815C38.1256 87.8894 38.1256 88.7101 37.6233 89.218L27.337 99.6191C26.8348 100.127 26.0231 100.127 25.5208 99.6191L20.3766 94.4185C19.8745 93.9107 19.8745 93.0899 20.3766 92.5821C20.8788 92.0742 21.6928 92.0742 22.1951 92.5821L26.3928 96.8604L35.8071 87.3815C36.3094 86.8728 37.121 86.8728 37.6233 87.3815Z" fill="black"/>
<path d="M37.6233 175.382C38.1256 175.889 38.1256 176.71 37.6233 177.218L27.337 187.619C26.8348 188.127 26.0231 188.127 25.5208 187.619L20.3766 182.419C19.8745 181.911 19.8745 181.09 20.3766 180.582C20.8788 180.074 21.6928 180.074 22.1951 180.582L26.3928 184.86L35.8071 175.382C36.3094 174.873 37.121 174.873 37.6233 175.382Z" fill="black"/>
<path d="M37.6233 251.382C38.1256 251.889 38.1256 252.71 37.6233 253.218L27.337 263.619C26.8348 264.127 26.0231 264.127 25.5208 263.619L20.3766 258.419C19.8745 257.911 19.8745 257.09 20.3766 256.582C20.8788 256.074 21.6928 256.074 22.1951 256.582L26.3928 260.86L35.8071 251.382C36.3094 250.873 37.121 250.873 37.6233 251.382Z" fill="black" fill-opacity="0.27"/>
<path d="M30.7602 10.1L26.6402 24H24.0602L21.1402 13.48L18.0402 24L15.4802 24.02L11.5402 10.1H13.9602L16.8402 21.42L19.9602 10.1H22.5202L25.4202 21.36L28.3202 10.1H30.7602ZM38.4406 12.8C39.2406 12.8 39.9606 12.98 40.6006 13.34C41.254 13.7 41.7673 14.2333 42.1406 14.94C42.5273 15.6467 42.7206 16.5 42.7206 17.5V24H40.4606V17.84C40.4606 16.8533 40.214 16.1 39.7206 15.58C39.2273 15.0467 38.554 14.78 37.7006 14.78C36.8473 14.78 36.1673 15.0467 35.6606 15.58C35.1673 16.1 34.9206 16.8533 34.9206 17.84V24H32.6406V9.2H34.9206V14.72C35.2806 14.0933 35.7606 13.62 36.3606 13.3C36.974 12.9667 37.6673 12.8 38.4406 12.8ZM50.0689 12.8C50.9356 12.8 51.6956 13 52.3489 13.4C53.0156 13.7867 53.5289 14.3 53.8889 14.94V12.98H56.1889V24H53.8889V21.94C53.5156 22.62 53.0022 23.1667 52.3489 23.58C51.6956 23.98 50.9356 24.18 50.0689 24.18C49.1089 24.18 48.2289 23.94 47.4289 23.46C46.6422 22.9667 46.0156 22.2867 45.5489 21.42C45.0956 20.54 44.8689 19.5467 44.8689 18.44C44.8689 17.3333 45.0956 16.3533 45.5489 15.5C46.0156 14.6467 46.6422 13.9867 47.4289 13.52C48.2289 13.04 49.1089 12.8 50.0689 12.8ZM50.5489 14.78C49.9622 14.78 49.4156 14.9267 48.9089 15.22C48.4022 15.5 47.9889 15.92 47.6689 16.48C47.3622 17.0267 47.2089 17.68 47.2089 18.44C47.2089 19.2 47.3622 19.8667 47.6689 20.44C47.9889 21.0133 48.4022 21.4533 48.9089 21.76C49.4289 22.0533 49.9756 22.2 50.5489 22.2C51.1356 22.2 51.6822 22.0533 52.1889 21.76C52.6956 21.4667 53.1022 21.04 53.4089 20.48C53.7289 19.9067 53.8889 19.24 53.8889 18.48C53.8889 17.72 53.7289 17.06 53.4089 16.5C53.1022 15.94 52.6956 15.5133 52.1889 15.22C51.6822 14.9267 51.1356 14.78 50.5489 14.78ZM61.8436 14.84V20.94C61.8436 21.3533 61.9369 21.6533 62.1236 21.84C62.3236 22.0133 62.6569 22.1 63.1236 22.1H64.5236V24H62.7236C61.6969 24 60.9103 23.76 60.3636 23.28C59.8169 22.8 59.5436 22.02 59.5436 20.94V14.84H58.2436V12.98H59.5436V10.24H61.8436V12.98H64.5236V14.84H61.8436ZM73.8611 12.98L76.9611 21.38L80.1811 12.98H82.5411L75.7811 29.18H73.4211L75.6611 23.82L71.3211 12.98H73.8611ZM89.1417 12.8C90.1951 12.8 91.1484 13.0333 92.0017 13.5C92.8551 13.9667 93.5284 14.6333 94.0217 15.5C94.5151 16.3667 94.7617 17.36 94.7617 18.48C94.7617 19.6 94.5084 20.5933 94.0017 21.46C93.4951 22.3267 92.8017 23 91.9217 23.48C91.0551 23.9467 90.0951 24.18 89.0417 24.18C88.0017 24.18 87.0617 23.9467 86.2217 23.48C85.3817 23 84.7217 22.3333 84.2417 21.48C83.7617 20.6133 83.5217 19.6133 83.5217 18.48C83.5217 17.36 83.7684 16.3667 84.2617 15.5C84.7551 14.6333 85.4284 13.9667 86.2817 13.5C87.1351 13.0333 88.0884 12.8 89.1417 12.8ZM89.1017 14.72C88.5151 14.72 87.9751 14.8667 87.4817 15.16C86.9884 15.44 86.5884 15.8667 86.2817 16.44C85.9884 17 85.8417 17.68 85.8417 18.48C85.8417 19.28 85.9817 19.9667 86.2617 20.54C86.5551 21.1133 86.9417 21.5467 87.4217 21.84C87.9151 22.12 88.4551 22.26 89.0417 22.26C89.6284 22.26 90.1751 22.1133 90.6817 21.82C91.2017 21.5267 91.6217 21.1 91.9417 20.54C92.2617 19.9667 92.4217 19.28 92.4217 18.48C92.4217 17.68 92.2684 17 91.9617 16.44C91.6551 15.8667 91.2484 15.44 90.7417 15.16C90.2351 14.8667 89.6884 14.72 89.1017 14.72ZM106.996 12.98V24H104.716V22.26C104.356 22.8867 103.869 23.36 103.256 23.68C102.656 24 101.969 24.16 101.196 24.16C100.396 24.16 99.669 23.98 99.0156 23.62C98.3756 23.26 97.8623 22.7333 97.4756 22.04C97.1023 21.3333 96.9156 20.48 96.9156 19.48V12.98H99.1756V19.14C99.1756 20.1267 99.4223 20.8867 99.9156 21.42C100.409 21.94 101.082 22.2 101.936 22.2C102.789 22.2 103.462 21.94 103.956 21.42C104.462 20.8867 104.716 20.1267 104.716 19.14V12.98H106.996ZM120.44 12.8C121.307 12.8 122.067 13 122.72 13.4C123.387 13.7867 123.9 14.3 124.26 14.94V12.98H126.56V24.18C126.56 25.1933 126.347 26.0933 125.92 26.88C125.493 27.68 124.873 28.3067 124.06 28.76C123.26 29.2133 122.3 29.44 121.18 29.44C119.687 29.44 118.447 29.0867 117.46 28.38C116.473 27.6867 115.913 26.74 115.78 25.54H118.04C118.213 26.1133 118.58 26.5733 119.14 26.92C119.713 27.28 120.393 27.46 121.18 27.46C122.1 27.46 122.84 27.18 123.4 26.62C123.973 26.06 124.26 25.2467 124.26 24.18V21.94C123.887 22.62 123.373 23.1667 122.72 23.58C122.067 23.98 121.307 24.18 120.44 24.18C119.48 24.18 118.6 23.94 117.8 23.46C117.013 22.9667 116.387 22.2867 115.92 21.42C115.467 20.54 115.24 19.5467 115.24 18.44C115.24 17.3333 115.467 16.3533 115.92 15.5C116.387 14.6467 117.013 13.9867 117.8 13.52C118.6 13.04 119.48 12.8 120.44 12.8ZM120.92 14.78C120.333 14.78 119.787 14.9267 119.28 15.22C118.773 15.5 118.36 15.92 118.04 16.48C117.733 17.0267 117.58 17.68 117.58 18.44C117.58 19.2 117.733 19.8667 118.04 20.44C118.36 21.0133 118.773 21.4533 119.28 21.76C119.8 22.0533 120.347 22.2 120.92 22.2C121.507 22.2 122.053 22.0533 122.56 21.76C123.067 21.4667 123.473 21.04 123.78 20.48C124.1 19.9067 124.26 19.24 124.26 18.48C124.26 17.72 124.1 17.06 123.78 16.5C123.473 15.94 123.067 15.5133 122.56 15.22C122.053 14.9267 121.507 14.78 120.92 14.78ZM139.655 18.18C139.655 18.5667 139.628 18.9267 139.575 19.26H131.135C131.188 20.18 131.495 20.9133 132.055 21.46C132.628 21.9933 133.341 22.26 134.195 22.26C135.435 22.26 136.308 21.7467 136.815 20.72H139.275C138.941 21.7333 138.335 22.5667 137.455 23.22C136.575 23.86 135.488 24.18 134.195 24.18C133.141 24.18 132.208 23.9467 131.395 23.48C130.581 23 129.941 22.3333 129.475 21.48C129.021 20.6133 128.795 19.6133 128.795 18.48C128.795 17.3467 129.021 16.3533 129.475 15.5C129.941 14.6333 130.588 13.9667 131.415 13.5C132.255 13.0333 133.215 12.8 134.295 12.8C135.335 12.8 136.261 13.0267 137.075 13.48C137.888 13.9333 138.521 14.5667 138.975 15.38C139.428 16.1933 139.655 17.1267 139.655 18.18ZM137.275 17.7C137.261 16.7933 136.961 16.0733 136.375 15.54C135.788 14.9933 135.061 14.72 134.195 14.72C133.381 14.72 132.688 14.9933 132.115 15.54C131.555 16.0733 131.235 16.7933 131.155 17.7H137.275ZM144.558 14.84V20.94C144.558 21.3533 144.652 21.6533 144.838 21.84C145.038 22.0133 145.372 22.1 145.838 22.1H147.238V24H145.438C144.412 24 143.625 23.76 143.078 23.28C142.532 22.8 142.258 22.02 142.258 20.94V14.84H140.958V12.98H142.258V10.24H144.558V12.98H147.238V14.84H144.558Z" fill="black"/>
<path d="M80.296 74.912L76.936 86H75.304L72.808 77.04L70.136 86L68.52 86.016L65.384 74.912H66.92L69.384 84.336L72.072 74.912H73.672L76.152 84.304L78.76 74.912H80.296ZM86.2075 77.072C86.8368 77.072 87.4075 77.216 87.9195 77.504C88.4422 77.7813 88.8528 78.2027 89.1515 78.768C89.4608 79.3227 89.6155 80 89.6155 80.8V86H88.1755V81.04C88.1755 80.1547 87.9622 79.4827 87.5355 79.024C87.1088 78.5653 86.5168 78.336 85.7595 78.336C85.0128 78.336 84.4208 78.5653 83.9835 79.024C83.5568 79.4827 83.3435 80.1547 83.3435 81.04V86H81.8875V74.16H83.3435V78.64C83.6315 78.128 84.0262 77.7387 84.5275 77.472C85.0288 77.2053 85.5888 77.072 86.2075 77.072ZM91.6944 74.816C91.6944 74.5387 91.7904 74.304 91.9824 74.112C92.1744 73.92 92.4037 73.824 92.6704 73.824C92.9477 73.824 93.1824 73.92 93.3744 74.112C93.5664 74.304 93.6624 74.5387 93.6624 74.816C93.6624 75.0933 93.5664 75.328 93.3744 75.52C93.1824 75.712 92.9477 75.808 92.6704 75.808C92.393 75.808 92.1584 75.712 91.9664 75.52C91.785 75.328 91.6944 75.0933 91.6944 74.816ZM93.3904 77.216V86H91.9344V77.216H93.3904ZM99.8738 84.816V86H98.4018C97.6551 86 97.0844 85.8187 96.6898 85.456C96.3058 85.0933 96.1138 84.5227 96.1138 83.744V78.4H94.9778V77.216H96.1138V75.04H97.5858V77.216H99.8578V78.4H97.5858V83.744C97.5858 84.1387 97.6658 84.416 97.8258 84.576C97.9858 84.736 98.2684 84.816 98.6738 84.816H99.8738ZM109.449 81.248C109.449 81.5573 109.428 81.8453 109.385 82.112H102.393C102.436 82.9867 102.708 83.68 103.209 84.192C103.721 84.6933 104.372 84.944 105.161 84.944C105.759 84.944 106.26 84.8107 106.665 84.544C107.081 84.2773 107.385 83.9253 107.577 83.488H109.145C108.868 84.256 108.388 84.8907 107.705 85.392C107.033 85.8933 106.185 86.144 105.161 86.144C104.34 86.144 103.604 85.9573 102.953 85.584C102.313 85.2107 101.812 84.6827 101.449 84C101.087 83.3067 100.905 82.512 100.905 81.616C100.905 80.7093 101.087 79.9147 101.449 79.232C101.812 78.5387 102.324 78.0053 102.985 77.632C103.647 77.2587 104.409 77.072 105.273 77.072C106.095 77.072 106.82 77.2533 107.449 77.616C108.079 77.9787 108.569 78.4747 108.921 79.104C109.273 79.7333 109.449 80.448 109.449 81.248ZM107.929 81.056C107.929 80.4907 107.807 80 107.561 79.584C107.316 79.1573 106.98 78.832 106.553 78.608C106.137 78.384 105.673 78.272 105.161 78.272C104.404 78.272 103.769 78.5227 103.257 79.024C102.745 79.5147 102.463 80.192 102.409 81.056H107.929ZM115.967 77.072C116.756 77.072 117.465 77.2587 118.095 77.632C118.735 78.0053 119.236 78.5333 119.599 79.216C119.972 79.888 120.159 80.6667 120.159 81.552C120.159 82.4373 119.972 83.232 119.599 83.936C119.236 84.6293 118.735 85.1733 118.095 85.568C117.465 85.952 116.756 86.144 115.967 86.144C115.22 86.144 114.564 85.968 113.999 85.616C113.444 85.2533 113.017 84.784 112.719 84.208V86H111.263V74.16H112.719V78.976C113.017 78.4107 113.444 77.952 113.999 77.6C114.564 77.248 115.22 77.072 115.967 77.072ZM115.679 78.336C115.156 78.336 114.665 78.4693 114.207 78.736C113.759 79.0027 113.396 79.3867 113.119 79.888C112.852 80.3787 112.719 80.9547 112.719 81.616C112.719 82.2773 112.852 82.8587 113.119 83.36C113.396 83.8507 113.759 84.2293 114.207 84.496C114.665 84.7627 115.156 84.896 115.679 84.896C116.201 84.896 116.692 84.7627 117.151 84.496C117.609 84.2187 117.972 83.824 118.239 83.312C118.516 82.8 118.655 82.2133 118.655 81.552C118.655 80.8907 118.516 80.32 118.239 79.84C117.972 79.3493 117.609 78.976 117.151 78.72C116.703 78.464 116.212 78.336 115.679 78.336ZM125.837 77.072C126.669 77.072 127.421 77.2587 128.093 77.632C128.765 78.0053 129.293 78.5387 129.677 79.232C130.072 79.9253 130.269 80.72 130.269 81.616C130.269 82.5013 130.067 83.2907 129.661 83.984C129.256 84.6667 128.707 85.2 128.013 85.584C127.32 85.9573 126.552 86.144 125.709 86.144C124.888 86.144 124.147 85.9573 123.485 85.584C122.835 85.2107 122.323 84.6827 121.949 84C121.587 83.3067 121.405 82.512 121.405 81.616C121.405 80.7093 121.597 79.9147 121.981 79.232C122.376 78.5387 122.909 78.0053 123.581 77.632C124.253 77.2587 125.005 77.072 125.837 77.072ZM125.789 78.272C125.256 78.272 124.771 78.4 124.333 78.656C123.896 78.912 123.544 79.2907 123.277 79.792C123.021 80.2933 122.893 80.9013 122.893 81.616C122.893 82.32 123.016 82.9227 123.261 83.424C123.517 83.9253 123.859 84.304 124.285 84.56C124.712 84.816 125.187 84.944 125.709 84.944C126.243 84.944 126.739 84.816 127.197 84.56C127.667 84.2933 128.045 83.9093 128.333 83.408C128.621 82.9067 128.765 82.3093 128.765 81.616C128.765 80.912 128.627 80.3093 128.349 79.808C128.083 79.296 127.72 78.912 127.261 78.656C126.813 78.4 126.323 78.272 125.789 78.272ZM135.707 77.072C136.453 77.072 137.104 77.248 137.659 77.6C138.224 77.952 138.651 78.4107 138.939 78.976V77.216H140.411V86H138.939V84.208C138.651 84.784 138.224 85.2533 137.659 85.616C137.104 85.968 136.453 86.144 135.707 86.144C134.917 86.144 134.203 85.952 133.563 85.568C132.933 85.1733 132.432 84.6293 132.059 83.936C131.696 83.232 131.515 82.4373 131.515 81.552C131.515 80.6667 131.696 79.888 132.059 79.216C132.432 78.5333 132.933 78.0053 133.563 77.632C134.203 77.2587 134.917 77.072 135.707 77.072ZM135.963 78.336C135.44 78.336 134.949 78.464 134.491 78.72C134.043 78.976 133.68 79.3493 133.403 79.84C133.136 80.32 133.003 80.8907 133.003 81.552C133.003 82.2133 133.136 82.8 133.403 83.312C133.68 83.8133 134.043 84.2027 134.491 84.48C134.949 84.7573 135.44 84.896 135.963 84.896C136.496 84.896 136.987 84.7627 137.435 84.496C137.893 84.2293 138.256 83.8507 138.523 83.36C138.8 82.8587 138.939 82.2773 138.939 81.616C138.939 80.9547 138.8 80.3787 138.523 79.888C138.256 79.3867 137.893 79.0027 137.435 78.736C136.987 78.4693 136.496 78.336 135.963 78.336ZM144.265 78.704C144.788 77.616 145.679 77.072 146.937 77.072V78.592H146.553C145.807 78.592 145.236 78.7893 144.841 79.184C144.457 79.568 144.265 80.24 144.265 81.2V86H142.809V77.216H144.265V78.704ZM152.316 77.072C153.063 77.072 153.713 77.248 154.268 77.6C154.833 77.952 155.26 78.4107 155.548 78.976V74.16H157.02V86H155.548V84.208C155.26 84.784 154.833 85.2533 154.268 85.616C153.713 85.968 153.063 86.144 152.316 86.144C151.527 86.144 150.812 85.952 150.172 85.568C149.543 85.1733 149.041 84.6293 148.668 83.936C148.305 83.232 148.124 82.4373 148.124 81.552C148.124 80.6667 148.305 79.888 148.668 79.216C149.041 78.5333 149.543 78.0053 150.172 77.632C150.812 77.2587 151.527 77.072 152.316 77.072ZM152.572 78.336C152.049 78.336 151.559 78.464 151.1 78.72C150.652 78.976 150.289 79.3493 150.012 79.84C149.745 80.32 149.612 80.8907 149.612 81.552C149.612 82.2133 149.745 82.8 150.012 83.312C150.289 83.8133 150.652 84.2027 151.1 84.48C151.559 84.7573 152.049 84.896 152.572 84.896C153.105 84.896 153.596 84.7627 154.044 84.496C154.503 84.2293 154.865 83.8507 155.132 83.36C155.409 82.8587 155.548 82.2773 155.548 81.616C155.548 80.9547 155.409 80.3787 155.132 79.888C154.865 79.3867 154.503 79.0027 154.044 78.736C153.596 78.4693 153.105 78.336 152.572 78.336ZM171 83.568H166.072L165.208 86H163.72L167.752 74.912H169.352L173.368 86H171.864L171 83.568ZM170.584 82.416L168.536 76.688L166.488 82.416H170.584ZM179.598 77.072C180.227 77.072 180.798 77.216 181.31 77.504C181.833 77.7813 182.243 78.2027 182.542 78.768C182.851 79.3227 183.006 80 183.006 80.8V86H181.566V81.04C181.566 80.1547 181.353 79.4827 180.926 79.024C180.499 78.5653 179.907 78.336 179.15 78.336C178.403 78.336 177.811 78.5653 177.374 79.024C176.947 79.4827 176.734 80.1547 176.734 81.04V86H175.278V77.216H176.734V78.64C177.022 78.128 177.417 77.7387 177.918 77.472C178.419 77.2053 178.979 77.072 179.598 77.072ZM185.085 74.816C185.085 74.5387 185.181 74.304 185.373 74.112C185.565 73.92 185.794 73.824 186.061 73.824C186.338 73.824 186.573 73.92 186.765 74.112C186.957 74.304 187.053 74.5387 187.053 74.816C187.053 75.0933 186.957 75.328 186.765 75.52C186.573 75.712 186.338 75.808 186.061 75.808C185.784 75.808 185.549 75.712 185.357 75.52C185.176 75.328 185.085 75.0933 185.085 74.816ZM186.781 77.216V86H185.325V77.216H186.781ZM199.744 77.072C200.384 77.072 200.966 77.216 201.488 77.504C202.011 77.7813 202.422 78.2027 202.72 78.768C203.03 79.3227 203.184 80 203.184 80.8V86H201.744V81.04C201.744 80.1547 201.526 79.4827 201.088 79.024C200.662 78.5653 200.075 78.336 199.328 78.336C198.582 78.336 197.99 78.5653 197.552 79.024C197.126 79.4827 196.912 80.1547 196.912 81.04V86H195.472V81.04C195.472 80.1547 195.259 79.4827 194.832 79.024C194.406 78.5653 193.814 78.336 193.056 78.336C192.31 78.336 191.718 78.5653 191.28 79.024C190.854 79.4827 190.64 80.1547 190.64 81.04V86H189.184V77.216H190.64V78.64C190.928 78.128 191.323 77.7387 191.824 77.472C192.326 77.2053 192.886 77.072 193.504 77.072C194.176 77.072 194.784 77.2373 195.328 77.568C195.872 77.888 196.283 78.3573 196.56 78.976C196.88 78.3787 197.312 77.9147 197.856 77.584C198.411 77.2427 199.04 77.072 199.744 77.072ZM209.113 77.072C209.86 77.072 210.51 77.248 211.065 77.6C211.63 77.952 212.057 78.4107 212.345 78.976V77.216H213.817V86H212.345V84.208C212.057 84.784 211.63 85.2533 211.065 85.616C210.51 85.968 209.86 86.144 209.113 86.144C208.324 86.144 207.609 85.952 206.969 85.568C206.34 85.1733 205.838 84.6293 205.465 83.936C205.102 83.232 204.921 82.4373 204.921 81.552C204.921 80.6667 205.102 79.888 205.465 79.216C205.838 78.5333 206.34 78.0053 206.969 77.632C207.609 77.2587 208.324 77.072 209.113 77.072ZM209.369 78.336C208.846 78.336 208.356 78.464 207.897 78.72C207.449 78.976 207.086 79.3493 206.809 79.84C206.542 80.32 206.409 80.8907 206.409 81.552C206.409 82.2133 206.542 82.8 206.809 83.312C207.086 83.8133 207.449 84.2027 207.897 84.48C208.356 84.7573 208.846 84.896 209.369 84.896C209.902 84.896 210.393 84.7627 210.841 84.496C211.3 84.2293 211.662 83.8507 211.929 83.36C212.206 82.8587 212.345 82.2773 212.345 81.616C212.345 80.9547 212.206 80.3787 211.929 79.888C211.662 79.3867 211.3 79.0027 210.841 78.736C210.393 78.4693 209.902 78.336 209.369 78.336ZM220.296 84.816V86H218.824C218.077 86 217.506 85.8187 217.112 85.456C216.728 85.0933 216.536 84.5227 216.536 83.744V78.4H215.4V77.216H216.536V75.04H218.008V77.216H220.28V78.4H218.008V83.744C218.008 84.1387 218.088 84.416 218.248 84.576C218.408 84.736 218.69 84.816 219.096 84.816H220.296ZM221.663 74.816C221.663 74.5387 221.759 74.304 221.951 74.112C222.143 73.92 222.372 73.824 222.639 73.824C222.916 73.824 223.151 73.92 223.343 74.112C223.535 74.304 223.631 74.5387 223.631 74.816C223.631 75.0933 223.535 75.328 223.343 75.52C223.151 75.712 222.916 75.808 222.639 75.808C222.362 75.808 222.127 75.712 221.935 75.52C221.754 75.328 221.663 75.0933 221.663 74.816ZM223.359 77.216V86H221.903V77.216H223.359ZM229.619 77.072C230.451 77.072 231.203 77.2587 231.875 77.632C232.547 78.0053 233.075 78.5387 233.459 79.232C233.853 79.9253 234.051 80.72 234.051 81.616C234.051 82.5013 233.848 83.2907 233.443 83.984C233.037 84.6667 232.488 85.2 231.795 85.584C231.101 85.9573 230.333 86.144 229.491 86.144C228.669 86.144 227.928 85.9573 227.267 85.584C226.616 85.2107 226.104 84.6827 225.731 84C225.368 83.3067 225.187 82.512 225.187 81.616C225.187 80.7093 225.379 79.9147 225.763 79.232C226.157 78.5387 226.691 78.0053 227.363 77.632C228.035 77.2587 228.787 77.072 229.619 77.072ZM229.571 78.272C229.037 78.272 228.552 78.4 228.115 78.656C227.677 78.912 227.325 79.2907 227.059 79.792C226.803 80.2933 226.674 80.9013 226.674 81.616C226.674 82.32 226.797 82.9227 227.043 83.424C227.299 83.9253 227.64 84.304 228.067 84.56C228.493 84.816 228.968 84.944 229.491 84.944C230.024 84.944 230.52 84.816 230.979 84.56C231.448 84.2933 231.827 83.9093 232.115 83.408C232.403 82.9067 232.547 82.3093 232.547 81.616C232.547 80.912 232.408 80.3093 232.131 79.808C231.864 79.296 231.501 78.912 231.043 78.656C230.595 78.4 230.104 78.272 229.571 78.272ZM240.192 77.072C240.821 77.072 241.392 77.216 241.904 77.504C242.427 77.7813 242.837 78.2027 243.136 78.768C243.445 79.3227 243.6 80 243.6 80.8V86H242.16V81.04C242.16 80.1547 241.947 79.4827 241.52 79.024C241.093 78.5653 240.501 78.336 239.744 78.336C238.997 78.336 238.405 78.5653 237.968 79.024C237.541 79.4827 237.328 80.1547 237.328 81.04V86H235.872V77.216H237.328V78.64C237.616 78.128 238.011 77.7387 238.512 77.472C239.013 77.2053 239.573 77.072 240.192 77.072ZM254.572 77.072C255.404 77.072 256.156 77.2587 256.828 77.632C257.5 78.0053 258.028 78.5387 258.412 79.232C258.806 79.9253 259.004 80.72 259.004 81.616C259.004 82.5013 258.801 83.2907 258.396 83.984C257.99 84.6667 257.441 85.2 256.748 85.584C256.054 85.9573 255.286 86.144 254.444 86.144C253.622 86.144 252.881 85.9573 252.22 85.584C251.569 85.2107 251.057 84.6827 250.684 84C250.321 83.3067 250.14 82.512 250.14 81.616C250.14 80.7093 250.332 79.9147 250.716 79.232C251.11 78.5387 251.644 78.0053 252.316 77.632C252.988 77.2587 253.74 77.072 254.572 77.072ZM254.524 78.272C253.99 78.272 253.505 78.4 253.068 78.656C252.63 78.912 252.278 79.2907 252.012 79.792C251.756 80.2933 251.628 80.9013 251.628 81.616C251.628 82.32 251.75 82.9227 251.996 83.424C252.252 83.9253 252.593 84.304 253.02 84.56C253.446 84.816 253.921 84.944 254.444 84.944C254.977 84.944 255.473 84.816 255.932 84.56C256.401 84.2933 256.78 83.9093 257.068 83.408C257.356 82.9067 257.5 82.3093 257.5 81.616C257.5 80.912 257.361 80.3093 257.084 79.808C256.817 79.296 256.454 78.912 255.996 78.656C255.548 78.4 255.057 78.272 254.524 78.272ZM262.281 78.704C262.804 77.616 263.694 77.072 264.953 77.072V78.592H264.569C263.822 78.592 263.252 78.7893 262.857 79.184C262.473 79.568 262.281 80.24 262.281 81.2V86H260.825V77.216H262.281V78.704ZM77.512 101.912V113H76.04V104.92L72.328 113H71.384L67.656 104.92V113H66.2V101.912H67.688L71.864 111L76.024 101.912H77.512ZM83.7748 104.072C84.6068 104.072 85.3588 104.259 86.0308 104.632C86.7028 105.005 87.2308 105.539 87.6148 106.232C88.0094 106.925 88.2068 107.72 88.2068 108.616C88.2068 109.501 88.0041 110.291 87.5988 110.984C87.1934 111.667 86.6441 112.2 85.9508 112.584C85.2574 112.957 84.4894 113.144 83.6468 113.144C82.8254 113.144 82.0841 112.957 81.4228 112.584C80.7721 112.211 80.2601 111.683 79.8868 111C79.5241 110.307 79.3428 109.512 79.3428 108.616C79.3428 107.709 79.5348 106.915 79.9188 106.232C80.3134 105.539 80.8468 105.005 81.5188 104.632C82.1908 104.259 82.9428 104.072 83.7748 104.072ZM83.7268 105.272C83.1934 105.272 82.7081 105.4 82.2708 105.656C81.8334 105.912 81.4814 106.291 81.2148 106.792C80.9588 107.293 80.8307 107.901 80.8307 108.616C80.8307 109.32 80.9534 109.923 81.1988 110.424C81.4548 110.925 81.7961 111.304 82.2228 111.56C82.6494 111.816 83.1241 111.944 83.6468 111.944C84.1801 111.944 84.6761 111.816 85.1348 111.56C85.6041 111.293 85.9828 110.909 86.2708 110.408C86.5588 109.907 86.7028 109.309 86.7028 108.616C86.7028 107.912 86.5641 107.309 86.2868 106.808C86.0201 106.296 85.6574 105.912 85.1988 105.656C84.7508 105.4 84.2601 105.272 83.7268 105.272ZM94.1081 111.816V113H92.6361C91.8895 113 91.3188 112.819 90.9241 112.456C90.5401 112.093 90.3481 111.523 90.3481 110.744V105.4H89.2121V104.216H90.3481V102.04H91.8201V104.216H94.0921V105.4H91.8201V110.744C91.8201 111.139 91.9001 111.416 92.0601 111.576C92.2201 111.736 92.5028 111.816 92.9081 111.816H94.1081ZM95.4756 101.816C95.4756 101.539 95.5716 101.304 95.7636 101.112C95.9556 100.92 96.185 100.824 96.4516 100.824C96.729 100.824 96.9636 100.92 97.1556 101.112C97.3476 101.304 97.4436 101.539 97.4436 101.816C97.4436 102.093 97.3476 102.328 97.1556 102.52C96.9636 102.712 96.729 102.808 96.4516 102.808C96.1743 102.808 95.9396 102.712 95.7476 102.52C95.5663 102.328 95.4756 102.093 95.4756 101.816ZM97.1716 104.216V113H95.7156V104.216H97.1716ZM103.431 104.072C104.263 104.072 105.015 104.259 105.687 104.632C106.359 105.005 106.887 105.539 107.271 106.232C107.666 106.925 107.863 107.72 107.863 108.616C107.863 109.501 107.66 110.291 107.255 110.984C106.85 111.667 106.3 112.2 105.607 112.584C104.914 112.957 104.146 113.144 103.303 113.144C102.482 113.144 101.74 112.957 101.079 112.584C100.428 112.211 99.9163 111.683 99.543 111C99.1803 110.307 98.999 109.512 98.999 108.616C98.999 107.709 99.191 106.915 99.575 106.232C99.9697 105.539 100.503 105.005 101.175 104.632C101.847 104.259 102.599 104.072 103.431 104.072ZM103.383 105.272C102.85 105.272 102.364 105.4 101.927 105.656C101.49 105.912 101.138 106.291 100.871 106.792C100.615 107.293 100.487 107.901 100.487 108.616C100.487 109.32 100.61 109.923 100.855 110.424C101.111 110.925 101.452 111.304 101.879 111.56C102.306 111.816 102.78 111.944 103.303 111.944C103.836 111.944 104.332 111.816 104.791 111.56C105.26 111.293 105.639 110.909 105.927 110.408C106.215 109.907 106.359 109.309 106.359 108.616C106.359 107.912 106.22 107.309 105.943 106.808C105.676 106.296 105.314 105.912 104.855 105.656C104.407 105.4 103.916 105.272 103.383 105.272ZM114.004 104.072C114.634 104.072 115.204 104.216 115.716 104.504C116.239 104.781 116.65 105.203 116.948 105.768C117.258 106.323 117.412 107 117.412 107.8V113H115.972V108.04C115.972 107.155 115.759 106.483 115.332 106.024C114.906 105.565 114.314 105.336 113.556 105.336C112.81 105.336 112.218 105.565 111.78 106.024C111.354 106.483 111.14 107.155 111.14 108.04V113H109.684V104.216H111.14V105.64C111.428 105.128 111.823 104.739 112.324 104.472C112.826 104.205 113.386 104.072 114.004 104.072ZM129.6 101.8C130.752 101.8 131.776 102.072 132.672 102.616C133.579 103.16 134.245 103.944 134.672 104.968H132.912C132.592 104.36 132.144 103.896 131.568 103.576C130.992 103.256 130.336 103.096 129.6 103.096C128.811 103.096 128.096 103.277 127.456 103.64C126.827 103.992 126.331 104.499 125.968 105.16C125.616 105.821 125.44 106.584 125.44 107.448C125.44 108.312 125.616 109.075 125.968 109.736C126.331 110.397 126.827 110.909 127.456 111.272C128.096 111.635 128.811 111.816 129.6 111.816C130.731 111.816 131.648 111.485 132.352 110.824C133.067 110.163 133.483 109.267 133.6 108.136H129.024V106.984H135.136V108.136C135.04 109.075 134.736 109.923 134.224 110.68C133.723 111.437 133.067 112.029 132.256 112.456C131.456 112.883 130.571 113.096 129.6 113.096C128.565 113.096 127.616 112.856 126.752 112.376C125.888 111.885 125.205 111.213 124.704 110.36C124.203 109.496 123.952 108.525 123.952 107.448C123.952 106.36 124.203 105.389 124.704 104.536C125.205 103.672 125.888 103 126.752 102.52C127.616 102.04 128.565 101.8 129.6 101.8ZM138.422 105.704C138.944 104.616 139.835 104.072 141.094 104.072V105.592H140.71C139.963 105.592 139.392 105.789 138.998 106.184C138.614 106.568 138.422 107.24 138.422 108.2V113H136.966V104.216H138.422V105.704ZM146.472 104.072C147.219 104.072 147.87 104.248 148.424 104.6C148.99 104.952 149.416 105.411 149.704 105.976V104.216H151.176V113H149.704V111.208C149.416 111.784 148.99 112.253 148.424 112.616C147.87 112.968 147.219 113.144 146.472 113.144C145.683 113.144 144.968 112.952 144.328 112.568C143.699 112.173 143.198 111.629 142.824 110.936C142.462 110.232 142.28 109.437 142.28 108.552C142.28 107.667 142.462 106.888 142.824 106.216C143.198 105.533 143.699 105.005 144.328 104.632C144.968 104.259 145.683 104.072 146.472 104.072ZM146.728 105.336C146.206 105.336 145.715 105.464 145.256 105.72C144.808 105.976 144.446 106.349 144.168 106.84C143.902 107.32 143.768 107.891 143.768 108.552C143.768 109.213 143.902 109.8 144.168 110.312C144.446 110.813 144.808 111.203 145.256 111.48C145.715 111.757 146.206 111.896 146.728 111.896C147.262 111.896 147.752 111.763 148.2 111.496C148.659 111.229 149.022 110.851 149.288 110.36C149.566 109.859 149.704 109.277 149.704 108.616C149.704 107.955 149.566 107.379 149.288 106.888C149.022 106.387 148.659 106.003 148.2 105.736C147.752 105.469 147.262 105.336 146.728 105.336ZM158.279 104.072C159.068 104.072 159.778 104.259 160.407 104.632C161.047 105.005 161.548 105.533 161.911 106.216C162.284 106.888 162.471 107.667 162.471 108.552C162.471 109.437 162.284 110.232 161.911 110.936C161.548 111.629 161.047 112.173 160.407 112.568C159.778 112.952 159.068 113.144 158.279 113.144C157.532 113.144 156.876 112.968 156.311 112.616C155.756 112.253 155.33 111.784 155.031 111.208V117.16H153.575V104.216H155.031V105.976C155.33 105.411 155.756 104.952 156.311 104.6C156.876 104.248 157.532 104.072 158.279 104.072ZM157.991 105.336C157.468 105.336 156.978 105.469 156.519 105.736C156.071 106.003 155.708 106.387 155.431 106.888C155.164 107.379 155.031 107.955 155.031 108.616C155.031 109.277 155.164 109.859 155.431 110.36C155.708 110.851 156.071 111.229 156.519 111.496C156.978 111.763 157.468 111.896 157.991 111.896C158.514 111.896 159.004 111.763 159.463 111.496C159.922 111.219 160.284 110.824 160.551 110.312C160.828 109.8 160.967 109.213 160.967 108.552C160.967 107.891 160.828 107.32 160.551 106.84C160.284 106.349 159.922 105.976 159.463 105.72C159.015 105.464 158.524 105.336 157.991 105.336ZM168.614 104.072C169.243 104.072 169.814 104.216 170.326 104.504C170.848 104.781 171.259 105.203 171.558 105.768C171.867 106.323 172.022 107 172.022 107.8V113H170.582V108.04C170.582 107.155 170.368 106.483 169.942 106.024C169.515 105.565 168.923 105.336 168.166 105.336C167.419 105.336 166.827 105.565 166.39 106.024C165.963 106.483 165.75 107.155 165.75 108.04V113H164.294V101.16H165.75V105.64C166.038 105.128 166.432 104.739 166.934 104.472C167.435 104.205 167.995 104.072 168.614 104.072ZM174.101 101.816C174.101 101.539 174.197 101.304 174.389 101.112C174.581 100.92 174.81 100.824 175.077 100.824C175.354 100.824 175.589 100.92 175.781 101.112C175.973 101.304 176.069 101.539 176.069 101.816C176.069 102.093 175.973 102.328 175.781 102.52C175.589 102.712 175.354 102.808 175.077 102.808C174.799 102.808 174.565 102.712 174.373 102.52C174.191 102.328 174.101 102.093 174.101 101.816ZM175.797 104.216V113H174.341V104.216H175.797ZM181.88 104.072C182.936 104.072 183.795 104.317 184.456 104.808C185.128 105.299 185.597 105.997 185.864 106.904H184.296C184.125 106.392 183.832 105.992 183.416 105.704C183 105.416 182.488 105.272 181.88 105.272C181.048 105.272 180.376 105.565 179.864 106.152C179.363 106.728 179.112 107.549 179.112 108.616C179.112 109.672 179.363 110.493 179.864 111.08C180.376 111.656 181.048 111.944 181.88 111.944C182.499 111.944 183.011 111.805 183.416 111.528C183.821 111.251 184.115 110.845 184.296 110.312H185.864C185.597 111.176 185.123 111.864 184.44 112.376C183.768 112.888 182.915 113.144 181.88 113.144C181.059 113.144 180.323 112.957 179.672 112.584C179.032 112.211 178.531 111.683 178.168 111C177.805 110.307 177.624 109.512 177.624 108.616C177.624 107.709 177.805 106.915 178.168 106.232C178.531 105.539 179.032 105.005 179.672 104.632C180.312 104.259 181.048 104.072 181.88 104.072ZM190.818 104.072C191.767 104.072 192.519 104.323 193.074 104.824C193.628 105.315 193.932 105.992 193.986 106.856H192.482C192.46 106.365 192.295 105.971 191.986 105.672C191.676 105.373 191.25 105.224 190.706 105.224C190.151 105.224 189.714 105.357 189.394 105.624C189.084 105.88 188.93 106.205 188.93 106.6C188.93 106.931 189.026 107.197 189.218 107.4C189.42 107.592 189.666 107.736 189.954 107.832C190.252 107.928 190.652 108.029 191.154 108.136C191.794 108.285 192.306 108.435 192.69 108.584C193.084 108.723 193.42 108.963 193.698 109.304C193.975 109.635 194.114 110.088 194.114 110.664C194.114 111.144 193.975 111.576 193.698 111.96C193.42 112.333 193.031 112.627 192.53 112.84C192.028 113.043 191.452 113.144 190.802 113.144C189.82 113.144 189.031 112.899 188.434 112.408C187.847 111.917 187.527 111.24 187.474 110.376H188.978C188.999 110.867 189.17 111.261 189.49 111.56C189.82 111.848 190.258 111.992 190.802 111.992C191.399 111.992 191.858 111.869 192.178 111.624C192.508 111.379 192.674 111.053 192.674 110.648C192.674 110.317 192.572 110.056 192.37 109.864C192.178 109.661 191.932 109.512 191.634 109.416C191.335 109.309 190.924 109.197 190.402 109.08C189.772 108.941 189.26 108.803 188.866 108.664C188.482 108.515 188.151 108.285 187.874 107.976C187.607 107.667 187.474 107.24 187.474 106.696C187.474 106.216 187.607 105.779 187.874 105.384C188.151 104.979 188.54 104.659 189.042 104.424C189.554 104.189 190.146 104.072 190.818 104.072ZM202.245 106.552C202.245 105.24 202.421 103.987 202.773 102.792C203.125 101.587 203.615 100.504 204.245 99.544C204.885 98.584 205.626 97.7947 206.469 97.176H208.021V97.32C206.549 98.472 205.45 99.8587 204.725 101.48C204.01 103.091 203.653 104.781 203.653 106.552C203.653 108.333 204.01 110.035 204.725 111.656C205.45 113.277 206.549 114.659 208.021 115.8V115.944H206.469C205.626 115.325 204.885 114.536 204.245 113.576C203.615 112.616 203.125 111.533 202.773 110.328C202.421 109.123 202.245 107.864 202.245 106.552ZM213.597 104.072C214.344 104.072 214.995 104.248 215.549 104.6C216.115 104.952 216.541 105.411 216.829 105.976V104.216H218.301V113H216.829V111.208C216.541 111.784 216.115 112.253 215.549 112.616C214.995 112.968 214.344 113.144 213.597 113.144C212.808 113.144 212.093 112.952 211.453 112.568C210.824 112.173 210.323 111.629 209.949 110.936C209.587 110.232 209.405 109.437 209.405 108.552C209.405 107.667 209.587 106.888 209.949 106.216C210.323 105.533 210.824 105.005 211.453 104.632C212.093 104.259 212.808 104.072 213.597 104.072ZM213.853 105.336C213.331 105.336 212.84 105.464 212.381 105.72C211.933 105.976 211.571 106.349 211.293 106.84C211.027 107.32 210.893 107.891 210.893 108.552C210.893 109.213 211.027 109.8 211.293 110.312C211.571 110.813 211.933 111.203 212.381 111.48C212.84 111.757 213.331 111.896 213.853 111.896C214.387 111.896 214.877 111.763 215.325 111.496C215.784 111.229 216.147 110.851 216.413 110.36C216.691 109.859 216.829 109.277 216.829 108.616C216.829 107.955 216.691 107.379 216.413 106.888C216.147 106.387 215.784 106.003 215.325 105.736C214.877 105.469 214.387 105.336 213.853 105.336ZM225.02 104.072C225.649 104.072 226.22 104.216 226.732 104.504C227.255 104.781 227.665 105.203 227.964 105.768C228.273 106.323 228.428 107 228.428 107.8V113H226.988V108.04C226.988 107.155 226.775 106.483 226.348 106.024C225.921 105.565 225.329 105.336 224.572 105.336C223.825 105.336 223.233 105.565 222.796 106.024C222.369 106.483 222.156 107.155 222.156 108.04V113H220.7V104.216H222.156V105.64C222.444 105.128 222.839 104.739 223.34 104.472C223.841 104.205 224.401 104.072 225.02 104.072ZM231.339 104.216L234.027 111.32L236.763 104.216H238.267L232.971 117.112H231.467L233.211 112.856L229.739 104.216H231.339ZM248.306 104.072C249.138 104.072 249.89 104.259 250.562 104.632C251.234 105.005 251.762 105.539 252.146 106.232C252.541 106.925 252.738 107.72 252.738 108.616C252.738 109.501 252.535 110.291 252.13 110.984C251.725 111.667 251.175 112.2 250.482 112.584C249.789 112.957 249.021 113.144 248.178 113.144C247.357 113.144 246.615 112.957 245.954 112.584C245.303 112.211 244.791 111.683 244.418 111C244.055 110.307 243.874 109.512 243.874 108.616C243.874 107.709 244.066 106.915 244.45 106.232C244.845 105.539 245.378 105.005 246.05 104.632C246.722 104.259 247.474 104.072 248.306 104.072ZM248.258 105.272C247.725 105.272 247.239 105.4 246.802 105.656C246.365 105.912 246.013 106.291 245.746 106.792C245.49 107.293 245.362 107.901 245.362 108.616C245.362 109.32 245.485 109.923 245.73 110.424C245.986 110.925 246.327 111.304 246.754 111.56C247.181 111.816 247.655 111.944 248.178 111.944C248.711 111.944 249.207 111.816 249.666 111.56C250.135 111.293 250.514 110.909 250.802 110.408C251.09 109.907 251.234 109.309 251.234 108.616C251.234 107.912 251.095 107.309 250.818 106.808C250.551 106.296 250.189 105.912 249.73 105.656C249.282 105.4 248.791 105.272 248.258 105.272ZM258.879 104.072C259.509 104.072 260.079 104.216 260.591 104.504C261.114 104.781 261.525 105.203 261.823 105.768C262.133 106.323 262.287 107 262.287 107.8V113H260.847V108.04C260.847 107.155 260.634 106.483 260.207 106.024C259.781 105.565 259.189 105.336 258.431 105.336C257.685 105.336 257.093 105.565 256.655 106.024C256.229 106.483 256.015 107.155 256.015 108.04V113H254.559V104.216H256.015V105.64C256.303 105.128 256.698 104.739 257.199 104.472C257.701 104.205 258.261 104.072 258.879 104.072ZM272.574 108.248C272.574 108.557 272.553 108.845 272.51 109.112H265.518C265.561 109.987 265.833 110.68 266.334 111.192C266.846 111.693 267.497 111.944 268.286 111.944C268.884 111.944 269.385 111.811 269.79 111.544C270.206 111.277 270.51 110.925 270.702 110.488H272.27C271.993 111.256 271.513 111.891 270.83 112.392C270.158 112.893 269.31 113.144 268.286 113.144C267.465 113.144 266.729 112.957 266.078 112.584C265.438 112.211 264.937 111.683 264.574 111C264.212 110.307 264.03 109.512 264.03 108.616C264.03 107.709 264.212 106.915 264.574 106.232C264.937 105.539 265.449 105.005 266.11 104.632C266.772 104.259 267.534 104.072 268.398 104.072C269.22 104.072 269.945 104.253 270.574 104.616C271.204 104.979 271.694 105.475 272.046 106.104C272.398 106.733 272.574 107.448 272.574 108.248ZM271.054 108.056C271.054 107.491 270.932 107 270.686 106.584C270.441 106.157 270.105 105.832 269.678 105.608C269.262 105.384 268.798 105.272 268.286 105.272C267.529 105.272 266.894 105.523 266.382 106.024C265.87 106.515 265.588 107.192 265.534 108.056H271.054ZM279.748 106.552C279.748 107.864 279.572 109.123 279.22 110.328C278.868 111.533 278.372 112.616 277.732 113.576C277.102 114.536 276.366 115.325 275.524 115.944H273.972V115.8C275.433 114.659 276.526 113.277 277.252 111.656C277.977 110.035 278.34 108.333 278.34 106.552C278.34 104.781 277.977 103.091 277.252 101.48C276.526 99.8587 275.433 98.472 273.972 97.32V97.176H275.524C276.366 97.7947 277.102 98.584 277.732 99.544C278.372 100.504 278.868 101.587 279.22 102.792C279.572 103.987 279.748 105.24 279.748 106.552Z" fill="black"/>
<path d="M71.592 179.304C72.3067 179.421 72.8827 179.741 73.32 180.264C73.7573 180.787 73.976 181.389 73.976 182.072C73.976 182.616 73.8267 183.112 73.528 183.56C73.24 184.008 72.8187 184.36 72.264 184.616C71.72 184.872 71.0853 185 70.36 185H66.2V173.912H70.168C70.9253 173.912 71.5707 174.04 72.104 174.296C72.6373 174.552 73.0373 174.904 73.304 175.352C73.5813 175.789 73.72 176.291 73.72 176.856C73.72 177.475 73.5333 177.992 73.16 178.408C72.7867 178.813 72.264 179.112 71.592 179.304ZM67.656 178.728H70.104C70.776 178.728 71.2987 178.568 71.672 178.248C72.056 177.917 72.248 177.475 72.248 176.92C72.248 176.355 72.056 175.907 71.672 175.576C71.2987 175.245 70.776 175.08 70.104 175.08H67.656V178.728ZM70.28 183.848C70.984 183.848 71.5333 183.672 71.928 183.32C72.3333 182.968 72.536 182.483 72.536 181.864C72.536 181.256 72.3173 180.776 71.88 180.424C71.4533 180.072 70.8827 179.896 70.168 179.896H67.656V183.848H70.28ZM79.6129 176.072C80.3595 176.072 81.0102 176.248 81.5649 176.6C82.1302 176.952 82.5569 177.411 82.8449 177.976V176.216H84.3169V185H82.8449V183.208C82.5569 183.784 82.1302 184.253 81.5649 184.616C81.0102 184.968 80.3595 185.144 79.6129 185.144C78.8235 185.144 78.1089 184.952 77.4689 184.568C76.8395 184.173 76.3382 183.629 75.9649 182.936C75.6022 182.232 75.4209 181.437 75.4209 180.552C75.4209 179.667 75.6022 178.888 75.9649 178.216C76.3382 177.533 76.8395 177.005 77.4689 176.632C78.1089 176.259 78.8235 176.072 79.6129 176.072ZM79.8689 177.336C79.3462 177.336 78.8555 177.464 78.3969 177.72C77.9489 177.976 77.5862 178.349 77.3089 178.84C77.0422 179.32 76.9089 179.891 76.9089 180.552C76.9089 181.213 77.0422 181.8 77.3089 182.312C77.5862 182.813 77.9489 183.203 78.3969 183.48C78.8555 183.757 79.3462 183.896 79.8689 183.896C80.4022 183.896 80.8929 183.763 81.3409 183.496C81.7995 183.229 82.1622 182.851 82.4289 182.36C82.7062 181.859 82.8449 181.277 82.8449 180.616C82.8449 179.955 82.7062 179.379 82.4289 178.888C82.1622 178.387 81.7995 178.003 81.3409 177.736C80.8929 177.469 80.4022 177.336 79.8689 177.336ZM90.3956 176.072C91.4516 176.072 92.3103 176.317 92.9716 176.808C93.6436 177.299 94.113 177.997 94.3796 178.904H92.8116C92.641 178.392 92.3476 177.992 91.9316 177.704C91.5156 177.416 91.0036 177.272 90.3956 177.272C89.5636 177.272 88.8916 177.565 88.3796 178.152C87.8783 178.728 87.6276 179.549 87.6276 180.616C87.6276 181.672 87.8783 182.493 88.3796 183.08C88.8916 183.656 89.5636 183.944 90.3956 183.944C91.0143 183.944 91.5263 183.805 91.9316 183.528C92.337 183.251 92.6303 182.845 92.8116 182.312H94.3796C94.113 183.176 93.6383 183.864 92.9556 184.376C92.2836 184.888 91.4303 185.144 90.3956 185.144C89.5743 185.144 88.8383 184.957 88.1876 184.584C87.5476 184.211 87.0463 183.683 86.6836 183C86.321 182.307 86.1396 181.512 86.1396 180.616C86.1396 179.709 86.321 178.915 86.6836 178.232C87.0463 177.539 87.5476 177.005 88.1876 176.632C88.8276 176.259 89.5636 176.072 90.3956 176.072ZM99.0294 180.584L103.173 185H101.205L97.7654 181.144V185H96.3094V173.16H97.7654V180.104L101.125 176.216H103.173L99.0294 180.584ZM108.129 176.072C108.875 176.072 109.526 176.248 110.081 176.6C110.646 176.952 111.073 177.411 111.361 177.976V176.216H112.833V185.224C112.833 186.024 112.657 186.733 112.305 187.352C111.953 187.971 111.457 188.451 110.817 188.792C110.177 189.144 109.435 189.32 108.593 189.32C107.857 189.32 107.185 189.192 106.577 188.936C105.969 188.691 105.473 188.339 105.089 187.88C104.705 187.421 104.475 186.899 104.401 186.312H105.825C105.963 186.813 106.289 187.229 106.801 187.56C107.313 187.891 107.91 188.056 108.593 188.056C109.425 188.056 110.091 187.805 110.593 187.304C111.105 186.813 111.361 186.12 111.361 185.224V183.208C111.073 183.784 110.646 184.253 110.081 184.616C109.526 184.968 108.875 185.144 108.129 185.144C107.339 185.144 106.625 184.952 105.985 184.568C105.355 184.173 104.854 183.629 104.481 182.936C104.118 182.232 103.937 181.437 103.937 180.552C103.937 179.667 104.118 178.888 104.481 178.216C104.854 177.533 105.355 177.005 105.985 176.632C106.625 176.259 107.339 176.072 108.129 176.072ZM108.385 177.336C107.862 177.336 107.371 177.464 106.913 177.72C106.465 177.976 106.102 178.349 105.825 178.84C105.558 179.32 105.424 179.891 105.424 180.552C105.424 181.213 105.558 181.8 105.825 182.312C106.102 182.813 106.465 183.203 106.913 183.48C107.371 183.757 107.862 183.896 108.385 183.896C108.918 183.896 109.409 183.763 109.857 183.496C110.315 183.229 110.678 182.851 110.945 182.36C111.222 181.859 111.361 181.277 111.361 180.616C111.361 179.955 111.222 179.379 110.945 178.888C110.678 178.387 110.315 178.003 109.857 177.736C109.409 177.469 108.918 177.336 108.385 177.336ZM116.687 177.704C117.21 176.616 118.101 176.072 119.359 176.072V177.592H118.975C118.229 177.592 117.658 177.789 117.263 178.184C116.879 178.568 116.687 179.24 116.687 180.2V185H115.231V176.216H116.687V177.704ZM124.978 176.072C125.81 176.072 126.562 176.259 127.234 176.632C127.906 177.005 128.434 177.539 128.818 178.232C129.213 178.925 129.41 179.72 129.41 180.616C129.41 181.501 129.207 182.291 128.802 182.984C128.397 183.667 127.847 184.2 127.154 184.584C126.461 184.957 125.693 185.144 124.85 185.144C124.029 185.144 123.287 184.957 122.626 184.584C121.975 184.211 121.463 183.683 121.09 183C120.727 182.307 120.546 181.512 120.546 180.616C120.546 179.709 120.738 178.915 121.122 178.232C121.517 177.539 122.05 177.005 122.722 176.632C123.394 176.259 124.146 176.072 124.978 176.072ZM124.93 177.272C124.397 177.272 123.911 177.4 123.474 177.656C123.037 177.912 122.685 178.291 122.418 178.792C122.162 179.293 122.034 179.901 122.034 180.616C122.034 181.32 122.157 181.923 122.402 182.424C122.658 182.925 122.999 183.304 123.426 183.56C123.853 183.816 124.327 183.944 124.85 183.944C125.383 183.944 125.879 183.816 126.338 183.56C126.807 183.293 127.186 182.909 127.474 182.408C127.762 181.907 127.906 181.309 127.906 180.616C127.906 179.912 127.767 179.309 127.49 178.808C127.223 178.296 126.861 177.912 126.402 177.656C125.954 177.4 125.463 177.272 124.93 177.272ZM138.879 176.216V185H137.423V183.592C137.135 184.104 136.741 184.493 136.239 184.76C135.738 185.016 135.178 185.144 134.559 185.144C133.93 185.144 133.354 185.005 132.831 184.728C132.319 184.44 131.909 184.019 131.599 183.464C131.301 182.909 131.151 182.232 131.151 181.432V176.216H132.591V181.192C132.591 182.067 132.805 182.739 133.231 183.208C133.669 183.667 134.261 183.896 135.007 183.896C135.754 183.896 136.341 183.667 136.767 183.208C137.205 182.739 137.423 182.067 137.423 181.192V176.216H138.879ZM145.598 176.072C146.227 176.072 146.798 176.216 147.31 176.504C147.833 176.781 148.243 177.203 148.542 177.768C148.851 178.323 149.006 179 149.006 179.8V185H147.566V180.04C147.566 179.155 147.353 178.483 146.926 178.024C146.499 177.565 145.907 177.336 145.15 177.336C144.403 177.336 143.811 177.565 143.374 178.024C142.947 178.483 142.734 179.155 142.734 180.04V185H141.278V176.216H142.734V177.64C143.022 177.128 143.417 176.739 143.918 176.472C144.419 176.205 144.979 176.072 145.598 176.072ZM154.941 176.072C155.688 176.072 156.338 176.248 156.893 176.6C157.458 176.952 157.885 177.411 158.173 177.976V173.16H159.645V185H158.173V183.208C157.885 183.784 157.458 184.253 156.893 184.616C156.338 184.968 155.688 185.144 154.941 185.144C154.152 185.144 153.437 184.952 152.797 184.568C152.168 184.173 151.666 183.629 151.293 182.936C150.93 182.232 150.749 181.437 150.749 180.552C150.749 179.667 150.93 178.888 151.293 178.216C151.666 177.533 152.168 177.005 152.797 176.632C153.437 176.259 154.152 176.072 154.941 176.072ZM155.197 177.336C154.674 177.336 154.184 177.464 153.725 177.72C153.277 177.976 152.914 178.349 152.637 178.84C152.37 179.32 152.237 179.891 152.237 180.552C152.237 181.213 152.37 181.8 152.637 182.312C152.914 182.813 153.277 183.203 153.725 183.48C154.184 183.757 154.674 183.896 155.197 183.896C155.73 183.896 156.221 183.763 156.669 183.496C157.128 183.229 157.49 182.851 157.757 182.36C158.034 181.859 158.173 181.277 158.173 180.616C158.173 179.955 158.034 179.379 157.757 178.888C157.49 178.387 157.128 178.003 156.669 177.736C156.221 177.469 155.73 177.336 155.197 177.336ZM178.153 173.912V185H176.681V176.92L172.969 185H172.025L168.297 176.92V185H166.841V173.912H168.329L172.505 183L176.665 173.912H178.153ZM188.207 176.216V185H186.751V183.592C186.463 184.104 186.069 184.493 185.567 184.76C185.066 185.016 184.506 185.144 183.887 185.144C183.258 185.144 182.682 185.005 182.159 184.728C181.647 184.44 181.237 184.019 180.927 183.464C180.629 182.909 180.479 182.232 180.479 181.432V176.216H181.919V181.192C181.919 182.067 182.133 182.739 182.559 183.208C182.997 183.667 183.589 183.896 184.335 183.896C185.082 183.896 185.669 183.667 186.095 183.208C186.533 182.739 186.751 182.067 186.751 181.192V176.216H188.207ZM193.63 176.072C194.58 176.072 195.332 176.323 195.886 176.824C196.441 177.315 196.745 177.992 196.798 178.856H195.294C195.273 178.365 195.108 177.971 194.798 177.672C194.489 177.373 194.062 177.224 193.518 177.224C192.964 177.224 192.526 177.357 192.206 177.624C191.897 177.88 191.742 178.205 191.742 178.6C191.742 178.931 191.838 179.197 192.03 179.4C192.233 179.592 192.478 179.736 192.766 179.832C193.065 179.928 193.465 180.029 193.966 180.136C194.606 180.285 195.118 180.435 195.502 180.584C195.897 180.723 196.233 180.963 196.51 181.304C196.788 181.635 196.926 182.088 196.926 182.664C196.926 183.144 196.788 183.576 196.51 183.96C196.233 184.333 195.844 184.627 195.342 184.84C194.841 185.043 194.265 185.144 193.614 185.144C192.633 185.144 191.844 184.899 191.246 184.408C190.66 183.917 190.34 183.24 190.286 182.376H191.79C191.812 182.867 191.982 183.261 192.302 183.56C192.633 183.848 193.07 183.992 193.614 183.992C194.212 183.992 194.67 183.869 194.99 183.624C195.321 183.379 195.486 183.053 195.486 182.648C195.486 182.317 195.385 182.056 195.182 181.864C194.99 181.661 194.745 181.512 194.446 181.416C194.148 181.309 193.737 181.197 193.214 181.08C192.585 180.941 192.073 180.803 191.678 180.664C191.294 180.515 190.964 180.285 190.686 179.976C190.42 179.667 190.286 179.24 190.286 178.696C190.286 178.216 190.42 177.779 190.686 177.384C190.964 176.979 191.353 176.659 191.854 176.424C192.366 176.189 192.958 176.072 193.63 176.072ZM198.788 173.816C198.788 173.539 198.884 173.304 199.076 173.112C199.268 172.92 199.497 172.824 199.764 172.824C200.041 172.824 200.276 172.92 200.468 173.112C200.66 173.304 200.756 173.539 200.756 173.816C200.756 174.093 200.66 174.328 200.468 174.52C200.276 174.712 200.041 174.808 199.764 174.808C199.487 174.808 199.252 174.712 199.06 174.52C198.879 174.328 198.788 174.093 198.788 173.816ZM200.484 176.216V185H199.028V176.216H200.484ZM206.568 176.072C207.624 176.072 208.482 176.317 209.144 176.808C209.816 177.299 210.285 177.997 210.552 178.904H208.984C208.813 178.392 208.52 177.992 208.104 177.704C207.688 177.416 207.176 177.272 206.568 177.272C205.736 177.272 205.064 177.565 204.552 178.152C204.05 178.728 203.799 179.549 203.799 180.616C203.799 181.672 204.05 182.493 204.552 183.08C205.064 183.656 205.736 183.944 206.568 183.944C207.186 183.944 207.698 183.805 208.104 183.528C208.509 183.251 208.802 182.845 208.984 182.312H210.552C210.285 183.176 209.81 183.864 209.128 184.376C208.456 184.888 207.602 185.144 206.568 185.144C205.746 185.144 205.01 184.957 204.36 184.584C203.72 184.211 203.218 183.683 202.856 183C202.493 182.307 202.312 181.512 202.312 180.616C202.312 179.709 202.493 178.915 202.856 178.232C203.218 177.539 203.72 177.005 204.36 176.632C205 176.259 205.736 176.072 206.568 176.072Z" fill="black"/>
<path d="M66.936 249.912L70.424 259.448L73.944 249.912H75.496L71.224 261H69.656L65.384 249.912H66.936ZM80.931 252.072C81.763 252.072 82.515 252.259 83.187 252.632C83.859 253.005 84.387 253.539 84.771 254.232C85.1657 254.925 85.363 255.72 85.363 256.616C85.363 257.501 85.1603 258.291 84.755 258.984C84.3497 259.667 83.8003 260.2 83.107 260.584C82.4137 260.957 81.6457 261.144 80.803 261.144C79.9817 261.144 79.2403 260.957 78.579 260.584C77.9283 260.211 77.4163 259.683 77.043 259C76.6803 258.307 76.499 257.512 76.499 256.616C76.499 255.709 76.691 254.915 77.075 254.232C77.4697 253.539 78.003 253.005 78.675 252.632C79.347 252.259 80.099 252.072 80.931 252.072ZM80.883 253.272C80.3497 253.272 79.8643 253.4 79.427 253.656C78.9897 253.912 78.6377 254.291 78.371 254.792C78.115 255.293 77.987 255.901 77.987 256.616C77.987 257.32 78.1097 257.923 78.355 258.424C78.611 258.925 78.9523 259.304 79.379 259.56C79.8057 259.816 80.2803 259.944 80.803 259.944C81.3363 259.944 81.8323 259.816 82.291 259.56C82.7603 259.293 83.139 258.909 83.427 258.408C83.715 257.907 83.859 257.309 83.859 256.616C83.859 255.912 83.7203 255.309 83.443 254.808C83.1763 254.296 82.8137 253.912 82.355 253.656C81.907 253.4 81.4163 253.272 80.883 253.272ZM86.9444 249.816C86.9444 249.539 87.0404 249.304 87.2324 249.112C87.4244 248.92 87.6537 248.824 87.9204 248.824C88.1977 248.824 88.4324 248.92 88.6244 249.112C88.8164 249.304 88.9124 249.539 88.9124 249.816C88.9124 250.093 88.8164 250.328 88.6244 250.52C88.4324 250.712 88.1977 250.808 87.9204 250.808C87.643 250.808 87.4084 250.712 87.2164 250.52C87.035 250.328 86.9444 250.093 86.9444 249.816ZM88.6404 252.216V261H87.1844V252.216H88.6404ZM94.7238 252.072C95.7798 252.072 96.6384 252.317 97.2998 252.808C97.9718 253.299 98.4411 253.997 98.7078 254.904H97.1398C96.9691 254.392 96.6758 253.992 96.2598 253.704C95.8438 253.416 95.3318 253.272 94.7238 253.272C93.8918 253.272 93.2198 253.565 92.7078 254.152C92.2064 254.728 91.9557 255.549 91.9557 256.616C91.9557 257.672 92.2064 258.493 92.7078 259.08C93.2198 259.656 93.8918 259.944 94.7238 259.944C95.3424 259.944 95.8544 259.805 96.2598 259.528C96.6651 259.251 96.9584 258.845 97.1398 258.312H98.7078C98.4411 259.176 97.9664 259.864 97.2838 260.376C96.6118 260.888 95.7584 261.144 94.7238 261.144C93.9024 261.144 93.1664 260.957 92.5158 260.584C91.8758 260.211 91.3744 259.683 91.0118 259C90.6491 258.307 90.4678 257.512 90.4678 256.616C90.4678 255.709 90.6491 254.915 91.0118 254.232C91.3744 253.539 91.8758 253.005 92.5158 252.632C93.1558 252.259 93.8918 252.072 94.7238 252.072ZM108.606 256.248C108.606 256.557 108.584 256.845 108.542 257.112H101.549C101.592 257.987 101.864 258.68 102.366 259.192C102.878 259.693 103.528 259.944 104.318 259.944C104.915 259.944 105.416 259.811 105.822 259.544C106.238 259.277 106.542 258.925 106.734 258.488H108.302C108.024 259.256 107.544 259.891 106.862 260.392C106.19 260.893 105.342 261.144 104.318 261.144C103.496 261.144 102.76 260.957 102.11 260.584C101.47 260.211 100.968 259.683 100.606 259C100.243 258.307 100.062 257.512 100.062 256.616C100.062 255.709 100.243 254.915 100.606 254.232C100.968 253.539 101.48 253.005 102.142 252.632C102.803 252.259 103.566 252.072 104.43 252.072C105.251 252.072 105.976 252.253 106.606 252.616C107.235 252.979 107.726 253.475 108.078 254.104C108.43 254.733 108.606 255.448 108.606 256.248ZM107.086 256.056C107.086 255.491 106.963 255 106.718 254.584C106.472 254.157 106.136 253.832 105.71 253.608C105.294 253.384 104.83 253.272 104.318 253.272C103.56 253.272 102.926 253.523 102.414 254.024C101.902 254.515 101.619 255.192 101.566 256.056H107.086ZM120.288 249.8C121.322 249.8 122.266 250.04 123.12 250.52C123.984 251 124.666 251.672 125.168 252.536C125.669 253.389 125.92 254.36 125.92 255.448C125.92 256.525 125.669 257.496 125.168 258.36C124.666 259.224 123.984 259.901 123.12 260.392C122.266 260.872 121.322 261.112 120.288 261.112C119.253 261.112 118.304 260.872 117.44 260.392C116.576 259.901 115.893 259.224 115.392 258.36C114.89 257.496 114.64 256.525 114.64 255.448C114.64 254.36 114.89 253.389 115.392 252.536C115.893 251.672 116.576 251 117.44 250.52C118.304 250.04 119.253 249.8 120.288 249.8ZM120.288 251.096C119.498 251.096 118.784 251.277 118.144 251.64C117.514 251.992 117.018 252.499 116.656 253.16C116.293 253.821 116.112 254.584 116.112 255.448C116.112 256.312 116.293 257.075 116.656 257.736C117.018 258.397 117.514 258.909 118.144 259.272C118.784 259.635 119.498 259.816 120.288 259.816C121.077 259.816 121.786 259.635 122.416 259.272C123.045 258.909 123.536 258.397 123.888 257.736C124.25 257.075 124.432 256.312 124.432 255.448C124.432 254.584 124.25 253.821 123.888 253.16C123.536 252.499 123.045 251.992 122.416 251.64C121.786 251.277 121.077 251.096 120.288 251.096ZM130.963 259.64L133.667 252.216H135.235L131.795 261H130.147L126.723 252.216H128.275L130.963 259.64ZM144.59 256.248C144.59 256.557 144.569 256.845 144.526 257.112H137.534C137.577 257.987 137.849 258.68 138.35 259.192C138.862 259.693 139.513 259.944 140.302 259.944C140.899 259.944 141.401 259.811 141.806 259.544C142.222 259.277 142.526 258.925 142.718 258.488H144.286C144.009 259.256 143.529 259.891 142.846 260.392C142.174 260.893 141.326 261.144 140.302 261.144C139.481 261.144 138.745 260.957 138.094 260.584C137.454 260.211 136.953 259.683 136.59 259C136.227 258.307 136.046 257.512 136.046 256.616C136.046 255.709 136.227 254.915 136.59 254.232C136.953 253.539 137.465 253.005 138.126 252.632C138.787 252.259 139.55 252.072 140.414 252.072C141.235 252.072 141.961 252.253 142.59 252.616C143.219 252.979 143.71 253.475 144.062 254.104C144.414 254.733 144.59 255.448 144.59 256.248ZM143.07 256.056C143.07 255.491 142.947 255 142.702 254.584C142.457 254.157 142.121 253.832 141.694 253.608C141.278 253.384 140.814 253.272 140.302 253.272C139.545 253.272 138.91 253.523 138.398 254.024C137.886 254.515 137.603 255.192 137.55 256.056H143.07ZM147.859 253.704C148.382 252.616 149.272 252.072 150.531 252.072V253.592H150.147C149.4 253.592 148.83 253.789 148.435 254.184C148.051 254.568 147.859 255.24 147.859 256.2V261H146.403V252.216H147.859V253.704Z" fill="black" fill-opacity="0.27"/>
<line x1="0.00294113" y1="256.5" x2="170.003" y2="257.5" stroke="black" stroke-opacity="0.28"/>
</svg>
