<svg width="311" height="273" viewBox="0 0 311 273" fill="none" xmlns="http://www.w3.org/2000/svg">
<rect y="78" width="34" height="31" rx="7" fill="white" fill-opacity="0.33"/>
<rect y="166" width="34" height="31" rx="7" fill="white" fill-opacity="0.33"/>
<path d="M26.6233 87.3815C27.1256 87.8894 27.1256 88.7101 26.6233 89.218L16.337 99.6191C15.8348 100.127 15.0231 100.127 14.5208 99.6191L9.37657 94.4185C8.87448 93.9107 8.87448 93.0899 9.37657 92.5821C9.87875 92.0742 10.6928 92.0742 11.1951 92.5821L15.3928 96.8604L24.8071 87.3815C25.3094 86.8728 26.121 86.8728 26.6233 87.3815Z" fill="white"/>
<path d="M26.6233 175.382C27.1256 175.889 27.1256 176.71 26.6233 177.218L16.337 187.619C15.8348 188.127 15.0231 188.127 14.5208 187.619L9.37657 182.419C8.87448 181.911 8.87448 181.09 9.37657 180.582C9.87875 180.074 10.6928 180.074 11.1951 180.582L15.3928 184.86L24.8071 175.382C25.3094 174.873 26.121 174.873 26.6233 175.382Z" fill="white"/>
<path d="M26.6233 251.382C27.1256 251.889 27.1256 252.71 26.6233 253.218L16.337 263.619C15.8348 264.127 15.0231 264.127 14.5208 263.619L9.37657 258.419C8.87448 257.911 8.87448 257.09 9.37657 256.582C9.87875 256.074 10.6928 256.074 11.1951 256.582L15.3928 260.86L24.8071 251.382C25.3094 250.873 26.121 250.873 26.6233 251.382Z" fill="white"/>
<path d="M19.7602 10.1L15.6402 24H13.0602L10.1402 13.48L7.04016 24L4.48016 24.02L0.540156 10.1H2.96016L5.84016 21.42L8.96016 10.1H11.5202L14.4202 21.36L17.3202 10.1H19.7602ZM27.4406 12.8C28.2406 12.8 28.9606 12.98 29.6006 13.34C30.254 13.7 30.7673 14.2333 31.1406 14.94C31.5273 15.6467 31.7206 16.5 31.7206 17.5V24H29.4606V17.84C29.4606 16.8533 29.214 16.1 28.7206 15.58C28.2273 15.0467 27.554 14.78 26.7006 14.78C25.8473 14.78 25.1673 15.0467 24.6606 15.58C24.1673 16.1 23.9206 16.8533 23.9206 17.84V24H21.6406V9.2H23.9206V14.72C24.2806 14.0933 24.7606 13.62 25.3606 13.3C25.974 12.9667 26.6673 12.8 27.4406 12.8ZM39.0689 12.8C39.9356 12.8 40.6956 13 41.3489 13.4C42.0156 13.7867 42.5289 14.3 42.8889 14.94V12.98H45.1889V24H42.8889V21.94C42.5156 22.62 42.0022 23.1667 41.3489 23.58C40.6956 23.98 39.9356 24.18 39.0689 24.18C38.1089 24.18 37.2289 23.94 36.4289 23.46C35.6422 22.9667 35.0156 22.2867 34.5489 21.42C34.0956 20.54 33.8689 19.5467 33.8689 18.44C33.8689 17.3333 34.0956 16.3533 34.5489 15.5C35.0156 14.6467 35.6422 13.9867 36.4289 13.52C37.2289 13.04 38.1089 12.8 39.0689 12.8ZM39.5489 14.78C38.9622 14.78 38.4156 14.9267 37.9089 15.22C37.4022 15.5 36.9889 15.92 36.6689 16.48C36.3622 17.0267 36.2089 17.68 36.2089 18.44C36.2089 19.2 36.3622 19.8667 36.6689 20.44C36.9889 21.0133 37.4022 21.4533 37.9089 21.76C38.4289 22.0533 38.9756 22.2 39.5489 22.2C40.1356 22.2 40.6822 22.0533 41.1889 21.76C41.6956 21.4667 42.1022 21.04 42.4089 20.48C42.7289 19.9067 42.8889 19.24 42.8889 18.48C42.8889 17.72 42.7289 17.06 42.4089 16.5C42.1022 15.94 41.6956 15.5133 41.1889 15.22C40.6822 14.9267 40.1356 14.78 39.5489 14.78ZM50.8436 14.84V20.94C50.8436 21.3533 50.9369 21.6533 51.1236 21.84C51.3236 22.0133 51.6569 22.1 52.1236 22.1H53.5236V24H51.7236C50.6969 24 49.9103 23.76 49.3636 23.28C48.8169 22.8 48.5436 22.02 48.5436 20.94V14.84H47.2436V12.98H48.5436V10.24H50.8436V12.98H53.5236V14.84H50.8436ZM62.8611 12.98L65.9611 21.38L69.1811 12.98H71.5411L64.7811 29.18H62.4211L64.6611 23.82L60.3211 12.98H62.8611ZM78.1417 12.8C79.1951 12.8 80.1484 13.0333 81.0017 13.5C81.8551 13.9667 82.5284 14.6333 83.0217 15.5C83.5151 16.3667 83.7617 17.36 83.7617 18.48C83.7617 19.6 83.5084 20.5933 83.0017 21.46C82.4951 22.3267 81.8017 23 80.9217 23.48C80.0551 23.9467 79.0951 24.18 78.0417 24.18C77.0017 24.18 76.0617 23.9467 75.2217 23.48C74.3817 23 73.7217 22.3333 73.2417 21.48C72.7617 20.6133 72.5217 19.6133 72.5217 18.48C72.5217 17.36 72.7684 16.3667 73.2617 15.5C73.7551 14.6333 74.4284 13.9667 75.2817 13.5C76.1351 13.0333 77.0884 12.8 78.1417 12.8ZM78.1017 14.72C77.5151 14.72 76.9751 14.8667 76.4817 15.16C75.9884 15.44 75.5884 15.8667 75.2817 16.44C74.9884 17 74.8417 17.68 74.8417 18.48C74.8417 19.28 74.9817 19.9667 75.2617 20.54C75.5551 21.1133 75.9417 21.5467 76.4217 21.84C76.9151 22.12 77.4551 22.26 78.0417 22.26C78.6284 22.26 79.1751 22.1133 79.6817 21.82C80.2017 21.5267 80.6217 21.1 80.9417 20.54C81.2617 19.9667 81.4217 19.28 81.4217 18.48C81.4217 17.68 81.2684 17 80.9617 16.44C80.6551 15.8667 80.2484 15.44 79.7417 15.16C79.2351 14.8667 78.6884 14.72 78.1017 14.72ZM95.9956 12.98V24H93.7156V22.26C93.3556 22.8867 92.869 23.36 92.2556 23.68C91.6556 24 90.969 24.16 90.1956 24.16C89.3956 24.16 88.669 23.98 88.0156 23.62C87.3756 23.26 86.8623 22.7333 86.4756 22.04C86.1023 21.3333 85.9156 20.48 85.9156 19.48V12.98H88.1756V19.14C88.1756 20.1267 88.4223 20.8867 88.9156 21.42C89.409 21.94 90.0823 22.2 90.9356 22.2C91.789 22.2 92.4623 21.94 92.9556 21.42C93.4623 20.8867 93.7156 20.1267 93.7156 19.14V12.98H95.9956ZM109.44 12.8C110.307 12.8 111.067 13 111.72 13.4C112.387 13.7867 112.9 14.3 113.26 14.94V12.98H115.56V24.18C115.56 25.1933 115.347 26.0933 114.92 26.88C114.493 27.68 113.873 28.3067 113.06 28.76C112.26 29.2133 111.3 29.44 110.18 29.44C108.687 29.44 107.447 29.0867 106.46 28.38C105.473 27.6867 104.913 26.74 104.78 25.54H107.04C107.213 26.1133 107.58 26.5733 108.14 26.92C108.713 27.28 109.393 27.46 110.18 27.46C111.1 27.46 111.84 27.18 112.4 26.62C112.973 26.06 113.26 25.2467 113.26 24.18V21.94C112.887 22.62 112.373 23.1667 111.72 23.58C111.067 23.98 110.307 24.18 109.44 24.18C108.48 24.18 107.6 23.94 106.8 23.46C106.013 22.9667 105.387 22.2867 104.92 21.42C104.467 20.54 104.24 19.5467 104.24 18.44C104.24 17.3333 104.467 16.3533 104.92 15.5C105.387 14.6467 106.013 13.9867 106.8 13.52C107.6 13.04 108.48 12.8 109.44 12.8ZM109.92 14.78C109.333 14.78 108.787 14.9267 108.28 15.22C107.773 15.5 107.36 15.92 107.04 16.48C106.733 17.0267 106.58 17.68 106.58 18.44C106.58 19.2 106.733 19.8667 107.04 20.44C107.36 21.0133 107.773 21.4533 108.28 21.76C108.8 22.0533 109.347 22.2 109.92 22.2C110.507 22.2 111.053 22.0533 111.56 21.76C112.067 21.4667 112.473 21.04 112.78 20.48C113.1 19.9067 113.26 19.24 113.26 18.48C113.26 17.72 113.1 17.06 112.78 16.5C112.473 15.94 112.067 15.5133 111.56 15.22C111.053 14.9267 110.507 14.78 109.92 14.78ZM128.655 18.18C128.655 18.5667 128.628 18.9267 128.575 19.26H120.135C120.188 20.18 120.495 20.9133 121.055 21.46C121.628 21.9933 122.341 22.26 123.195 22.26C124.435 22.26 125.308 21.7467 125.815 20.72H128.275C127.941 21.7333 127.335 22.5667 126.455 23.22C125.575 23.86 124.488 24.18 123.195 24.18C122.141 24.18 121.208 23.9467 120.395 23.48C119.581 23 118.941 22.3333 118.475 21.48C118.021 20.6133 117.795 19.6133 117.795 18.48C117.795 17.3467 118.021 16.3533 118.475 15.5C118.941 14.6333 119.588 13.9667 120.415 13.5C121.255 13.0333 122.215 12.8 123.295 12.8C124.335 12.8 125.261 13.0267 126.075 13.48C126.888 13.9333 127.521 14.5667 127.975 15.38C128.428 16.1933 128.655 17.1267 128.655 18.18ZM126.275 17.7C126.261 16.7933 125.961 16.0733 125.375 15.54C124.788 14.9933 124.061 14.72 123.195 14.72C122.381 14.72 121.688 14.9933 121.115 15.54C120.555 16.0733 120.235 16.7933 120.155 17.7H126.275ZM133.558 14.84V20.94C133.558 21.3533 133.652 21.6533 133.838 21.84C134.038 22.0133 134.372 22.1 134.838 22.1H136.238V24H134.438C133.412 24 132.625 23.76 132.078 23.28C131.532 22.8 131.258 22.02 131.258 20.94V14.84H129.958V12.98H131.258V10.24H133.558V12.98H136.238V14.84H133.558Z" fill="white"/>
<path d="M69.296 74.912L65.936 86H64.304L61.808 77.04L59.136 86L57.52 86.016L54.384 74.912H55.92L58.384 84.336L61.072 74.912H62.672L65.152 84.304L67.76 74.912H69.296ZM75.2075 77.072C75.8368 77.072 76.4075 77.216 76.9195 77.504C77.4422 77.7813 77.8528 78.2027 78.1515 78.768C78.4608 79.3227 78.6155 80 78.6155 80.8V86H77.1755V81.04C77.1755 80.1547 76.9622 79.4827 76.5355 79.024C76.1088 78.5653 75.5168 78.336 74.7595 78.336C74.0128 78.336 73.4208 78.5653 72.9835 79.024C72.5568 79.4827 72.3435 80.1547 72.3435 81.04V86H70.8875V74.16H72.3435V78.64C72.6315 78.128 73.0262 77.7387 73.5275 77.472C74.0288 77.2053 74.5888 77.072 75.2075 77.072ZM80.6944 74.816C80.6944 74.5387 80.7904 74.304 80.9824 74.112C81.1744 73.92 81.4037 73.824 81.6704 73.824C81.9477 73.824 82.1824 73.92 82.3744 74.112C82.5664 74.304 82.6624 74.5387 82.6624 74.816C82.6624 75.0933 82.5664 75.328 82.3744 75.52C82.1824 75.712 81.9477 75.808 81.6704 75.808C81.393 75.808 81.1584 75.712 80.9664 75.52C80.785 75.328 80.6944 75.0933 80.6944 74.816ZM82.3904 77.216V86H80.9344V77.216H82.3904ZM88.8738 84.816V86H87.4018C86.6551 86 86.0844 85.8187 85.6898 85.456C85.3058 85.0933 85.1138 84.5227 85.1138 83.744V78.4H83.9778V77.216H85.1138V75.04H86.5858V77.216H88.8578V78.4H86.5858V83.744C86.5858 84.1387 86.6658 84.416 86.8258 84.576C86.9858 84.736 87.2684 84.816 87.6738 84.816H88.8738ZM98.4493 81.248C98.4493 81.5573 98.4279 81.8453 98.3853 82.112H91.3932C91.4359 82.9867 91.7079 83.68 92.2093 84.192C92.7213 84.6933 93.3719 84.944 94.1613 84.944C94.7586 84.944 95.2599 84.8107 95.6653 84.544C96.0813 84.2773 96.3853 83.9253 96.5773 83.488H98.1453C97.8679 84.256 97.3879 84.8907 96.7053 85.392C96.0333 85.8933 95.1853 86.144 94.1613 86.144C93.3399 86.144 92.6039 85.9573 91.9533 85.584C91.3133 85.2107 90.8119 84.6827 90.4493 84C90.0866 83.3067 89.9053 82.512 89.9053 81.616C89.9053 80.7093 90.0866 79.9147 90.4493 79.232C90.8119 78.5387 91.3239 78.0053 91.9853 77.632C92.6466 77.2587 93.4093 77.072 94.2733 77.072C95.0946 77.072 95.8199 77.2533 96.4493 77.616C97.0786 77.9787 97.5693 78.4747 97.9213 79.104C98.2733 79.7333 98.4493 80.448 98.4493 81.248ZM96.9293 81.056C96.9293 80.4907 96.8066 80 96.5613 79.584C96.3159 79.1573 95.9799 78.832 95.5533 78.608C95.1373 78.384 94.6733 78.272 94.1613 78.272C93.4039 78.272 92.7693 78.5227 92.2573 79.024C91.7453 79.5147 91.4626 80.192 91.4093 81.056H96.9293ZM104.967 77.072C105.756 77.072 106.465 77.2587 107.095 77.632C107.735 78.0053 108.236 78.5333 108.599 79.216C108.972 79.888 109.159 80.6667 109.159 81.552C109.159 82.4373 108.972 83.232 108.599 83.936C108.236 84.6293 107.735 85.1733 107.095 85.568C106.465 85.952 105.756 86.144 104.967 86.144C104.22 86.144 103.564 85.968 102.999 85.616C102.444 85.2533 102.017 84.784 101.719 84.208V86H100.263V74.16H101.719V78.976C102.017 78.4107 102.444 77.952 102.999 77.6C103.564 77.248 104.22 77.072 104.967 77.072ZM104.679 78.336C104.156 78.336 103.665 78.4693 103.207 78.736C102.759 79.0027 102.396 79.3867 102.119 79.888C101.852 80.3787 101.719 80.9547 101.719 81.616C101.719 82.2773 101.852 82.8587 102.119 83.36C102.396 83.8507 102.759 84.2293 103.207 84.496C103.665 84.7627 104.156 84.896 104.679 84.896C105.201 84.896 105.692 84.7627 106.151 84.496C106.609 84.2187 106.972 83.824 107.239 83.312C107.516 82.8 107.655 82.2133 107.655 81.552C107.655 80.8907 107.516 80.32 107.239 79.84C106.972 79.3493 106.609 78.976 106.151 78.72C105.703 78.464 105.212 78.336 104.679 78.336ZM114.837 77.072C115.669 77.072 116.421 77.2587 117.093 77.632C117.765 78.0053 118.293 78.5387 118.677 79.232C119.072 79.9253 119.269 80.72 119.269 81.616C119.269 82.5013 119.067 83.2907 118.661 83.984C118.256 84.6667 117.707 85.2 117.013 85.584C116.32 85.9573 115.552 86.144 114.709 86.144C113.888 86.144 113.147 85.9573 112.485 85.584C111.835 85.2107 111.323 84.6827 110.949 84C110.587 83.3067 110.405 82.512 110.405 81.616C110.405 80.7093 110.597 79.9147 110.981 79.232C111.376 78.5387 111.909 78.0053 112.581 77.632C113.253 77.2587 114.005 77.072 114.837 77.072ZM114.789 78.272C114.256 78.272 113.771 78.4 113.333 78.656C112.896 78.912 112.544 79.2907 112.277 79.792C112.021 80.2933 111.893 80.9013 111.893 81.616C111.893 82.32 112.016 82.9227 112.261 83.424C112.517 83.9253 112.859 84.304 113.285 84.56C113.712 84.816 114.187 84.944 114.709 84.944C115.243 84.944 115.739 84.816 116.197 84.56C116.667 84.2933 117.045 83.9093 117.333 83.408C117.621 82.9067 117.765 82.3093 117.765 81.616C117.765 80.912 117.627 80.3093 117.349 79.808C117.083 79.296 116.72 78.912 116.261 78.656C115.813 78.4 115.323 78.272 114.789 78.272ZM124.707 77.072C125.453 77.072 126.104 77.248 126.659 77.6C127.224 77.952 127.651 78.4107 127.939 78.976V77.216H129.411V86H127.939V84.208C127.651 84.784 127.224 85.2533 126.659 85.616C126.104 85.968 125.453 86.144 124.707 86.144C123.917 86.144 123.203 85.952 122.563 85.568C121.933 85.1733 121.432 84.6293 121.059 83.936C120.696 83.232 120.515 82.4373 120.515 81.552C120.515 80.6667 120.696 79.888 121.059 79.216C121.432 78.5333 121.933 78.0053 122.563 77.632C123.203 77.2587 123.917 77.072 124.707 77.072ZM124.963 78.336C124.44 78.336 123.949 78.464 123.491 78.72C123.043 78.976 122.68 79.3493 122.403 79.84C122.136 80.32 122.003 80.8907 122.003 81.552C122.003 82.2133 122.136 82.8 122.403 83.312C122.68 83.8133 123.043 84.2027 123.491 84.48C123.949 84.7573 124.44 84.896 124.963 84.896C125.496 84.896 125.987 84.7627 126.435 84.496C126.893 84.2293 127.256 83.8507 127.523 83.36C127.8 82.8587 127.939 82.2773 127.939 81.616C127.939 80.9547 127.8 80.3787 127.523 79.888C127.256 79.3867 126.893 79.0027 126.435 78.736C125.987 78.4693 125.496 78.336 124.963 78.336ZM133.265 78.704C133.788 77.616 134.679 77.072 135.937 77.072V78.592H135.553C134.807 78.592 134.236 78.7893 133.841 79.184C133.457 79.568 133.265 80.24 133.265 81.2V86H131.809V77.216H133.265V78.704ZM141.316 77.072C142.063 77.072 142.713 77.248 143.268 77.6C143.833 77.952 144.26 78.4107 144.548 78.976V74.16H146.02V86H144.548V84.208C144.26 84.784 143.833 85.2533 143.268 85.616C142.713 85.968 142.063 86.144 141.316 86.144C140.527 86.144 139.812 85.952 139.172 85.568C138.543 85.1733 138.041 84.6293 137.668 83.936C137.305 83.232 137.124 82.4373 137.124 81.552C137.124 80.6667 137.305 79.888 137.668 79.216C138.041 78.5333 138.543 78.0053 139.172 77.632C139.812 77.2587 140.527 77.072 141.316 77.072ZM141.572 78.336C141.049 78.336 140.559 78.464 140.1 78.72C139.652 78.976 139.289 79.3493 139.012 79.84C138.745 80.32 138.612 80.8907 138.612 81.552C138.612 82.2133 138.745 82.8 139.012 83.312C139.289 83.8133 139.652 84.2027 140.1 84.48C140.559 84.7573 141.049 84.896 141.572 84.896C142.105 84.896 142.596 84.7627 143.044 84.496C143.503 84.2293 143.865 83.8507 144.132 83.36C144.409 82.8587 144.548 82.2773 144.548 81.616C144.548 80.9547 144.409 80.3787 144.132 79.888C143.865 79.3867 143.503 79.0027 143.044 78.736C142.596 78.4693 142.105 78.336 141.572 78.336ZM160 83.568H155.072L154.208 86H152.72L156.752 74.912H158.352L162.368 86H160.864L160 83.568ZM159.584 82.416L157.536 76.688L155.488 82.416H159.584ZM168.598 77.072C169.227 77.072 169.798 77.216 170.31 77.504C170.833 77.7813 171.243 78.2027 171.542 78.768C171.851 79.3227 172.006 80 172.006 80.8V86H170.566V81.04C170.566 80.1547 170.353 79.4827 169.926 79.024C169.499 78.5653 168.907 78.336 168.15 78.336C167.403 78.336 166.811 78.5653 166.374 79.024C165.947 79.4827 165.734 80.1547 165.734 81.04V86H164.278V77.216H165.734V78.64C166.022 78.128 166.417 77.7387 166.918 77.472C167.419 77.2053 167.979 77.072 168.598 77.072ZM174.085 74.816C174.085 74.5387 174.181 74.304 174.373 74.112C174.565 73.92 174.794 73.824 175.061 73.824C175.338 73.824 175.573 73.92 175.765 74.112C175.957 74.304 176.053 74.5387 176.053 74.816C176.053 75.0933 175.957 75.328 175.765 75.52C175.573 75.712 175.338 75.808 175.061 75.808C174.784 75.808 174.549 75.712 174.357 75.52C174.176 75.328 174.085 75.0933 174.085 74.816ZM175.781 77.216V86H174.325V77.216H175.781ZM188.744 77.072C189.384 77.072 189.966 77.216 190.488 77.504C191.011 77.7813 191.422 78.2027 191.72 78.768C192.03 79.3227 192.184 80 192.184 80.8V86H190.744V81.04C190.744 80.1547 190.526 79.4827 190.088 79.024C189.662 78.5653 189.075 78.336 188.328 78.336C187.582 78.336 186.99 78.5653 186.552 79.024C186.126 79.4827 185.912 80.1547 185.912 81.04V86H184.472V81.04C184.472 80.1547 184.259 79.4827 183.832 79.024C183.406 78.5653 182.814 78.336 182.056 78.336C181.31 78.336 180.718 78.5653 180.28 79.024C179.854 79.4827 179.64 80.1547 179.64 81.04V86H178.184V77.216H179.64V78.64C179.928 78.128 180.323 77.7387 180.824 77.472C181.326 77.2053 181.886 77.072 182.504 77.072C183.176 77.072 183.784 77.2373 184.328 77.568C184.872 77.888 185.283 78.3573 185.56 78.976C185.88 78.3787 186.312 77.9147 186.856 77.584C187.411 77.2427 188.04 77.072 188.744 77.072ZM198.113 77.072C198.86 77.072 199.51 77.248 200.065 77.6C200.63 77.952 201.057 78.4107 201.345 78.976V77.216H202.817V86H201.345V84.208C201.057 84.784 200.63 85.2533 200.065 85.616C199.51 85.968 198.86 86.144 198.113 86.144C197.324 86.144 196.609 85.952 195.969 85.568C195.34 85.1733 194.838 84.6293 194.465 83.936C194.102 83.232 193.921 82.4373 193.921 81.552C193.921 80.6667 194.102 79.888 194.465 79.216C194.838 78.5333 195.34 78.0053 195.969 77.632C196.609 77.2587 197.324 77.072 198.113 77.072ZM198.369 78.336C197.846 78.336 197.356 78.464 196.897 78.72C196.449 78.976 196.086 79.3493 195.809 79.84C195.542 80.32 195.409 80.8907 195.409 81.552C195.409 82.2133 195.542 82.8 195.809 83.312C196.086 83.8133 196.449 84.2027 196.897 84.48C197.356 84.7573 197.846 84.896 198.369 84.896C198.902 84.896 199.393 84.7627 199.841 84.496C200.3 84.2293 200.662 83.8507 200.929 83.36C201.206 82.8587 201.345 82.2773 201.345 81.616C201.345 80.9547 201.206 80.3787 200.929 79.888C200.662 79.3867 200.3 79.0027 199.841 78.736C199.393 78.4693 198.902 78.336 198.369 78.336ZM209.296 84.816V86H207.824C207.077 86 206.506 85.8187 206.112 85.456C205.728 85.0933 205.536 84.5227 205.536 83.744V78.4H204.4V77.216H205.536V75.04H207.008V77.216H209.28V78.4H207.008V83.744C207.008 84.1387 207.088 84.416 207.248 84.576C207.408 84.736 207.69 84.816 208.096 84.816H209.296ZM210.663 74.816C210.663 74.5387 210.759 74.304 210.951 74.112C211.143 73.92 211.372 73.824 211.639 73.824C211.916 73.824 212.151 73.92 212.343 74.112C212.535 74.304 212.631 74.5387 212.631 74.816C212.631 75.0933 212.535 75.328 212.343 75.52C212.151 75.712 211.916 75.808 211.639 75.808C211.362 75.808 211.127 75.712 210.935 75.52C210.754 75.328 210.663 75.0933 210.663 74.816ZM212.359 77.216V86H210.903V77.216H212.359ZM218.619 77.072C219.451 77.072 220.203 77.2587 220.875 77.632C221.547 78.0053 222.075 78.5387 222.459 79.232C222.853 79.9253 223.051 80.72 223.051 81.616C223.051 82.5013 222.848 83.2907 222.443 83.984C222.037 84.6667 221.488 85.2 220.795 85.584C220.101 85.9573 219.333 86.144 218.491 86.144C217.669 86.144 216.928 85.9573 216.267 85.584C215.616 85.2107 215.104 84.6827 214.731 84C214.368 83.3067 214.187 82.512 214.187 81.616C214.187 80.7093 214.379 79.9147 214.763 79.232C215.157 78.5387 215.691 78.0053 216.363 77.632C217.035 77.2587 217.787 77.072 218.619 77.072ZM218.571 78.272C218.037 78.272 217.552 78.4 217.115 78.656C216.677 78.912 216.325 79.2907 216.059 79.792C215.803 80.2933 215.674 80.9013 215.674 81.616C215.674 82.32 215.797 82.9227 216.043 83.424C216.299 83.9253 216.64 84.304 217.067 84.56C217.493 84.816 217.968 84.944 218.491 84.944C219.024 84.944 219.52 84.816 219.979 84.56C220.448 84.2933 220.827 83.9093 221.115 83.408C221.403 82.9067 221.547 82.3093 221.547 81.616C221.547 80.912 221.408 80.3093 221.131 79.808C220.864 79.296 220.501 78.912 220.043 78.656C219.595 78.4 219.104 78.272 218.571 78.272ZM229.192 77.072C229.821 77.072 230.392 77.216 230.904 77.504C231.427 77.7813 231.837 78.2027 232.136 78.768C232.445 79.3227 232.6 80 232.6 80.8V86H231.16V81.04C231.16 80.1547 230.947 79.4827 230.52 79.024C230.093 78.5653 229.501 78.336 228.744 78.336C227.997 78.336 227.405 78.5653 226.968 79.024C226.541 79.4827 226.328 80.1547 226.328 81.04V86H224.872V77.216H226.328V78.64C226.616 78.128 227.011 77.7387 227.512 77.472C228.013 77.2053 228.573 77.072 229.192 77.072ZM243.572 77.072C244.404 77.072 245.156 77.2587 245.828 77.632C246.5 78.0053 247.028 78.5387 247.412 79.232C247.806 79.9253 248.004 80.72 248.004 81.616C248.004 82.5013 247.801 83.2907 247.396 83.984C246.99 84.6667 246.441 85.2 245.748 85.584C245.054 85.9573 244.286 86.144 243.444 86.144C242.622 86.144 241.881 85.9573 241.22 85.584C240.569 85.2107 240.057 84.6827 239.684 84C239.321 83.3067 239.14 82.512 239.14 81.616C239.14 80.7093 239.332 79.9147 239.716 79.232C240.11 78.5387 240.644 78.0053 241.316 77.632C241.988 77.2587 242.74 77.072 243.572 77.072ZM243.524 78.272C242.99 78.272 242.505 78.4 242.068 78.656C241.63 78.912 241.278 79.2907 241.012 79.792C240.756 80.2933 240.628 80.9013 240.628 81.616C240.628 82.32 240.75 82.9227 240.996 83.424C241.252 83.9253 241.593 84.304 242.02 84.56C242.446 84.816 242.921 84.944 243.444 84.944C243.977 84.944 244.473 84.816 244.932 84.56C245.401 84.2933 245.78 83.9093 246.068 83.408C246.356 82.9067 246.5 82.3093 246.5 81.616C246.5 80.912 246.361 80.3093 246.084 79.808C245.817 79.296 245.454 78.912 244.996 78.656C244.548 78.4 244.057 78.272 243.524 78.272ZM251.281 78.704C251.804 77.616 252.694 77.072 253.953 77.072V78.592H253.569C252.822 78.592 252.252 78.7893 251.857 79.184C251.473 79.568 251.281 80.24 251.281 81.2V86H249.825V77.216H251.281V78.704ZM66.512 101.912V113H65.04V104.92L61.328 113H60.384L56.656 104.92V113H55.2V101.912H56.688L60.864 111L65.024 101.912H66.512ZM72.7748 104.072C73.6068 104.072 74.3588 104.259 75.0308 104.632C75.7028 105.005 76.2308 105.539 76.6148 106.232C77.0094 106.925 77.2068 107.72 77.2068 108.616C77.2068 109.501 77.0041 110.291 76.5988 110.984C76.1934 111.667 75.6441 112.2 74.9508 112.584C74.2574 112.957 73.4894 113.144 72.6468 113.144C71.8254 113.144 71.0841 112.957 70.4228 112.584C69.7721 112.211 69.2601 111.683 68.8868 111C68.5241 110.307 68.3428 109.512 68.3428 108.616C68.3428 107.709 68.5348 106.915 68.9188 106.232C69.3134 105.539 69.8468 105.005 70.5188 104.632C71.1908 104.259 71.9428 104.072 72.7748 104.072ZM72.7268 105.272C72.1934 105.272 71.7081 105.4 71.2708 105.656C70.8334 105.912 70.4814 106.291 70.2148 106.792C69.9588 107.293 69.8307 107.901 69.8307 108.616C69.8307 109.32 69.9534 109.923 70.1988 110.424C70.4548 110.925 70.7961 111.304 71.2228 111.56C71.6494 111.816 72.1241 111.944 72.6468 111.944C73.1801 111.944 73.6761 111.816 74.1348 111.56C74.6041 111.293 74.9828 110.909 75.2708 110.408C75.5588 109.907 75.7028 109.309 75.7028 108.616C75.7028 107.912 75.5641 107.309 75.2868 106.808C75.0201 106.296 74.6574 105.912 74.1988 105.656C73.7508 105.4 73.2601 105.272 72.7268 105.272ZM83.1081 111.816V113H81.6361C80.8895 113 80.3188 112.819 79.9241 112.456C79.5401 112.093 79.3481 111.523 79.3481 110.744V105.4H78.2121V104.216H79.3481V102.04H80.8201V104.216H83.0921V105.4H80.8201V110.744C80.8201 111.139 80.9001 111.416 81.0601 111.576C81.2201 111.736 81.5028 111.816 81.9081 111.816H83.1081ZM84.4756 101.816C84.4756 101.539 84.5716 101.304 84.7636 101.112C84.9556 100.92 85.185 100.824 85.4516 100.824C85.729 100.824 85.9636 100.92 86.1556 101.112C86.3476 101.304 86.4436 101.539 86.4436 101.816C86.4436 102.093 86.3476 102.328 86.1556 102.52C85.9636 102.712 85.729 102.808 85.4516 102.808C85.1743 102.808 84.9396 102.712 84.7476 102.52C84.5663 102.328 84.4756 102.093 84.4756 101.816ZM86.1716 104.216V113H84.7156V104.216H86.1716ZM92.431 104.072C93.263 104.072 94.015 104.259 94.687 104.632C95.359 105.005 95.887 105.539 96.271 106.232C96.6657 106.925 96.863 107.72 96.863 108.616C96.863 109.501 96.6603 110.291 96.255 110.984C95.8497 111.667 95.3003 112.2 94.607 112.584C93.9137 112.957 93.1457 113.144 92.303 113.144C91.4817 113.144 90.7403 112.957 90.079 112.584C89.4283 112.211 88.9163 111.683 88.543 111C88.1803 110.307 87.999 109.512 87.999 108.616C87.999 107.709 88.191 106.915 88.575 106.232C88.9697 105.539 89.503 105.005 90.175 104.632C90.847 104.259 91.599 104.072 92.431 104.072ZM92.383 105.272C91.8497 105.272 91.3643 105.4 90.927 105.656C90.4897 105.912 90.1377 106.291 89.871 106.792C89.615 107.293 89.487 107.901 89.487 108.616C89.487 109.32 89.6097 109.923 89.855 110.424C90.111 110.925 90.4523 111.304 90.879 111.56C91.3057 111.816 91.7803 111.944 92.303 111.944C92.8363 111.944 93.3323 111.816 93.791 111.56C94.2603 111.293 94.639 110.909 94.927 110.408C95.215 109.907 95.359 109.309 95.359 108.616C95.359 107.912 95.2203 107.309 94.943 106.808C94.6763 106.296 94.3137 105.912 93.855 105.656C93.407 105.4 92.9163 105.272 92.383 105.272ZM103.004 104.072C103.634 104.072 104.204 104.216 104.716 104.504C105.239 104.781 105.65 105.203 105.948 105.768C106.258 106.323 106.412 107 106.412 107.8V113H104.972V108.04C104.972 107.155 104.759 106.483 104.332 106.024C103.906 105.565 103.314 105.336 102.556 105.336C101.81 105.336 101.218 105.565 100.78 106.024C100.354 106.483 100.14 107.155 100.14 108.04V113H98.6844V104.216H100.14V105.64C100.428 105.128 100.823 104.739 101.324 104.472C101.826 104.205 102.386 104.072 103.004 104.072ZM118.6 101.8C119.752 101.8 120.776 102.072 121.672 102.616C122.579 103.16 123.245 103.944 123.672 104.968H121.912C121.592 104.36 121.144 103.896 120.568 103.576C119.992 103.256 119.336 103.096 118.6 103.096C117.811 103.096 117.096 103.277 116.456 103.64C115.827 103.992 115.331 104.499 114.968 105.16C114.616 105.821 114.44 106.584 114.44 107.448C114.44 108.312 114.616 109.075 114.968 109.736C115.331 110.397 115.827 110.909 116.456 111.272C117.096 111.635 117.811 111.816 118.6 111.816C119.731 111.816 120.648 111.485 121.352 110.824C122.067 110.163 122.483 109.267 122.6 108.136H118.024V106.984H124.136V108.136C124.04 109.075 123.736 109.923 123.224 110.68C122.723 111.437 122.067 112.029 121.256 112.456C120.456 112.883 119.571 113.096 118.6 113.096C117.565 113.096 116.616 112.856 115.752 112.376C114.888 111.885 114.205 111.213 113.704 110.36C113.203 109.496 112.952 108.525 112.952 107.448C112.952 106.36 113.203 105.389 113.704 104.536C114.205 103.672 114.888 103 115.752 102.52C116.616 102.04 117.565 101.8 118.6 101.8ZM127.422 105.704C127.944 104.616 128.835 104.072 130.094 104.072V105.592H129.71C128.963 105.592 128.392 105.789 127.998 106.184C127.614 106.568 127.422 107.24 127.422 108.2V113H125.966V104.216H127.422V105.704ZM135.472 104.072C136.219 104.072 136.87 104.248 137.424 104.6C137.99 104.952 138.416 105.411 138.704 105.976V104.216H140.176V113H138.704V111.208C138.416 111.784 137.99 112.253 137.424 112.616C136.87 112.968 136.219 113.144 135.472 113.144C134.683 113.144 133.968 112.952 133.328 112.568C132.699 112.173 132.198 111.629 131.824 110.936C131.462 110.232 131.28 109.437 131.28 108.552C131.28 107.667 131.462 106.888 131.824 106.216C132.198 105.533 132.699 105.005 133.328 104.632C133.968 104.259 134.683 104.072 135.472 104.072ZM135.728 105.336C135.206 105.336 134.715 105.464 134.256 105.72C133.808 105.976 133.446 106.349 133.168 106.84C132.902 107.32 132.768 107.891 132.768 108.552C132.768 109.213 132.902 109.8 133.168 110.312C133.446 110.813 133.808 111.203 134.256 111.48C134.715 111.757 135.206 111.896 135.728 111.896C136.262 111.896 136.752 111.763 137.2 111.496C137.659 111.229 138.022 110.851 138.288 110.36C138.566 109.859 138.704 109.277 138.704 108.616C138.704 107.955 138.566 107.379 138.288 106.888C138.022 106.387 137.659 106.003 137.2 105.736C136.752 105.469 136.262 105.336 135.728 105.336ZM147.279 104.072C148.068 104.072 148.778 104.259 149.407 104.632C150.047 105.005 150.548 105.533 150.911 106.216C151.284 106.888 151.471 107.667 151.471 108.552C151.471 109.437 151.284 110.232 150.911 110.936C150.548 111.629 150.047 112.173 149.407 112.568C148.778 112.952 148.068 113.144 147.279 113.144C146.532 113.144 145.876 112.968 145.311 112.616C144.756 112.253 144.33 111.784 144.031 111.208V117.16H142.575V104.216H144.031V105.976C144.33 105.411 144.756 104.952 145.311 104.6C145.876 104.248 146.532 104.072 147.279 104.072ZM146.991 105.336C146.468 105.336 145.978 105.469 145.519 105.736C145.071 106.003 144.708 106.387 144.431 106.888C144.164 107.379 144.031 107.955 144.031 108.616C144.031 109.277 144.164 109.859 144.431 110.36C144.708 110.851 145.071 111.229 145.519 111.496C145.978 111.763 146.468 111.896 146.991 111.896C147.514 111.896 148.004 111.763 148.463 111.496C148.922 111.219 149.284 110.824 149.551 110.312C149.828 109.8 149.967 109.213 149.967 108.552C149.967 107.891 149.828 107.32 149.551 106.84C149.284 106.349 148.922 105.976 148.463 105.72C148.015 105.464 147.524 105.336 146.991 105.336ZM157.614 104.072C158.243 104.072 158.814 104.216 159.326 104.504C159.848 104.781 160.259 105.203 160.558 105.768C160.867 106.323 161.022 107 161.022 107.8V113H159.582V108.04C159.582 107.155 159.368 106.483 158.942 106.024C158.515 105.565 157.923 105.336 157.166 105.336C156.419 105.336 155.827 105.565 155.39 106.024C154.963 106.483 154.75 107.155 154.75 108.04V113H153.294V101.16H154.75V105.64C155.038 105.128 155.432 104.739 155.934 104.472C156.435 104.205 156.995 104.072 157.614 104.072ZM163.101 101.816C163.101 101.539 163.197 101.304 163.389 101.112C163.581 100.92 163.81 100.824 164.077 100.824C164.354 100.824 164.589 100.92 164.781 101.112C164.973 101.304 165.069 101.539 165.069 101.816C165.069 102.093 164.973 102.328 164.781 102.52C164.589 102.712 164.354 102.808 164.077 102.808C163.799 102.808 163.565 102.712 163.373 102.52C163.191 102.328 163.101 102.093 163.101 101.816ZM164.797 104.216V113H163.341V104.216H164.797ZM170.88 104.072C171.936 104.072 172.795 104.317 173.456 104.808C174.128 105.299 174.597 105.997 174.864 106.904H173.296C173.125 106.392 172.832 105.992 172.416 105.704C172 105.416 171.488 105.272 170.88 105.272C170.048 105.272 169.376 105.565 168.864 106.152C168.363 106.728 168.112 107.549 168.112 108.616C168.112 109.672 168.363 110.493 168.864 111.08C169.376 111.656 170.048 111.944 170.88 111.944C171.499 111.944 172.011 111.805 172.416 111.528C172.821 111.251 173.115 110.845 173.296 110.312H174.864C174.597 111.176 174.123 111.864 173.44 112.376C172.768 112.888 171.915 113.144 170.88 113.144C170.059 113.144 169.323 112.957 168.672 112.584C168.032 112.211 167.531 111.683 167.168 111C166.805 110.307 166.624 109.512 166.624 108.616C166.624 107.709 166.805 106.915 167.168 106.232C167.531 105.539 168.032 105.005 168.672 104.632C169.312 104.259 170.048 104.072 170.88 104.072ZM179.818 104.072C180.767 104.072 181.519 104.323 182.074 104.824C182.628 105.315 182.932 105.992 182.986 106.856H181.482C181.46 106.365 181.295 105.971 180.986 105.672C180.676 105.373 180.25 105.224 179.706 105.224C179.151 105.224 178.714 105.357 178.394 105.624C178.084 105.88 177.93 106.205 177.93 106.6C177.93 106.931 178.026 107.197 178.218 107.4C178.42 107.592 178.666 107.736 178.954 107.832C179.252 107.928 179.652 108.029 180.154 108.136C180.794 108.285 181.306 108.435 181.69 108.584C182.084 108.723 182.42 108.963 182.698 109.304C182.975 109.635 183.114 110.088 183.114 110.664C183.114 111.144 182.975 111.576 182.698 111.96C182.42 112.333 182.031 112.627 181.53 112.84C181.028 113.043 180.452 113.144 179.802 113.144C178.82 113.144 178.031 112.899 177.434 112.408C176.847 111.917 176.527 111.24 176.474 110.376H177.978C177.999 110.867 178.17 111.261 178.49 111.56C178.82 111.848 179.258 111.992 179.802 111.992C180.399 111.992 180.858 111.869 181.178 111.624C181.508 111.379 181.674 111.053 181.674 110.648C181.674 110.317 181.572 110.056 181.37 109.864C181.178 109.661 180.932 109.512 180.634 109.416C180.335 109.309 179.924 109.197 179.402 109.08C178.772 108.941 178.26 108.803 177.866 108.664C177.482 108.515 177.151 108.285 176.874 107.976C176.607 107.667 176.474 107.24 176.474 106.696C176.474 106.216 176.607 105.779 176.874 105.384C177.151 104.979 177.54 104.659 178.042 104.424C178.554 104.189 179.146 104.072 179.818 104.072ZM191.245 106.552C191.245 105.24 191.421 103.987 191.773 102.792C192.125 101.587 192.615 100.504 193.245 99.544C193.885 98.584 194.626 97.7947 195.469 97.176H197.021V97.32C195.549 98.472 194.45 99.8587 193.725 101.48C193.01 103.091 192.653 104.781 192.653 106.552C192.653 108.333 193.01 110.035 193.725 111.656C194.45 113.277 195.549 114.659 197.021 115.8V115.944H195.469C194.626 115.325 193.885 114.536 193.245 113.576C192.615 112.616 192.125 111.533 191.773 110.328C191.421 109.123 191.245 107.864 191.245 106.552ZM202.597 104.072C203.344 104.072 203.995 104.248 204.549 104.6C205.115 104.952 205.541 105.411 205.829 105.976V104.216H207.301V113H205.829V111.208C205.541 111.784 205.115 112.253 204.549 112.616C203.995 112.968 203.344 113.144 202.597 113.144C201.808 113.144 201.093 112.952 200.453 112.568C199.824 112.173 199.323 111.629 198.949 110.936C198.587 110.232 198.405 109.437 198.405 108.552C198.405 107.667 198.587 106.888 198.949 106.216C199.323 105.533 199.824 105.005 200.453 104.632C201.093 104.259 201.808 104.072 202.597 104.072ZM202.853 105.336C202.331 105.336 201.84 105.464 201.381 105.72C200.933 105.976 200.571 106.349 200.293 106.84C200.027 107.32 199.893 107.891 199.893 108.552C199.893 109.213 200.027 109.8 200.293 110.312C200.571 110.813 200.933 111.203 201.381 111.48C201.84 111.757 202.331 111.896 202.853 111.896C203.387 111.896 203.877 111.763 204.325 111.496C204.784 111.229 205.147 110.851 205.413 110.36C205.691 109.859 205.829 109.277 205.829 108.616C205.829 107.955 205.691 107.379 205.413 106.888C205.147 106.387 204.784 106.003 204.325 105.736C203.877 105.469 203.387 105.336 202.853 105.336ZM214.02 104.072C214.649 104.072 215.22 104.216 215.732 104.504C216.255 104.781 216.665 105.203 216.964 105.768C217.273 106.323 217.428 107 217.428 107.8V113H215.988V108.04C215.988 107.155 215.775 106.483 215.348 106.024C214.921 105.565 214.329 105.336 213.572 105.336C212.825 105.336 212.233 105.565 211.796 106.024C211.369 106.483 211.156 107.155 211.156 108.04V113H209.7V104.216H211.156V105.64C211.444 105.128 211.839 104.739 212.34 104.472C212.841 104.205 213.401 104.072 214.02 104.072ZM220.339 104.216L223.027 111.32L225.763 104.216H227.267L221.971 117.112H220.467L222.211 112.856L218.739 104.216H220.339ZM237.306 104.072C238.138 104.072 238.89 104.259 239.562 104.632C240.234 105.005 240.762 105.539 241.146 106.232C241.541 106.925 241.738 107.72 241.738 108.616C241.738 109.501 241.535 110.291 241.13 110.984C240.725 111.667 240.175 112.2 239.482 112.584C238.789 112.957 238.021 113.144 237.178 113.144C236.357 113.144 235.615 112.957 234.954 112.584C234.303 112.211 233.791 111.683 233.418 111C233.055 110.307 232.874 109.512 232.874 108.616C232.874 107.709 233.066 106.915 233.45 106.232C233.845 105.539 234.378 105.005 235.05 104.632C235.722 104.259 236.474 104.072 237.306 104.072ZM237.258 105.272C236.725 105.272 236.239 105.4 235.802 105.656C235.365 105.912 235.013 106.291 234.746 106.792C234.49 107.293 234.362 107.901 234.362 108.616C234.362 109.32 234.485 109.923 234.73 110.424C234.986 110.925 235.327 111.304 235.754 111.56C236.181 111.816 236.655 111.944 237.178 111.944C237.711 111.944 238.207 111.816 238.666 111.56C239.135 111.293 239.514 110.909 239.802 110.408C240.09 109.907 240.234 109.309 240.234 108.616C240.234 107.912 240.095 107.309 239.818 106.808C239.551 106.296 239.189 105.912 238.73 105.656C238.282 105.4 237.791 105.272 237.258 105.272ZM247.879 104.072C248.509 104.072 249.079 104.216 249.591 104.504C250.114 104.781 250.525 105.203 250.823 105.768C251.133 106.323 251.287 107 251.287 107.8V113H249.847V108.04C249.847 107.155 249.634 106.483 249.207 106.024C248.781 105.565 248.189 105.336 247.431 105.336C246.685 105.336 246.093 105.565 245.655 106.024C245.229 106.483 245.015 107.155 245.015 108.04V113H243.559V104.216H245.015V105.64C245.303 105.128 245.698 104.739 246.199 104.472C246.701 104.205 247.261 104.072 247.879 104.072ZM261.574 108.248C261.574 108.557 261.553 108.845 261.51 109.112H254.518C254.561 109.987 254.833 110.68 255.334 111.192C255.846 111.693 256.497 111.944 257.286 111.944C257.884 111.944 258.385 111.811 258.79 111.544C259.206 111.277 259.51 110.925 259.702 110.488H261.27C260.993 111.256 260.513 111.891 259.83 112.392C259.158 112.893 258.31 113.144 257.286 113.144C256.465 113.144 255.729 112.957 255.078 112.584C254.438 112.211 253.937 111.683 253.574 111C253.212 110.307 253.03 109.512 253.03 108.616C253.03 107.709 253.212 106.915 253.574 106.232C253.937 105.539 254.449 105.005 255.11 104.632C255.772 104.259 256.534 104.072 257.398 104.072C258.22 104.072 258.945 104.253 259.574 104.616C260.204 104.979 260.694 105.475 261.046 106.104C261.398 106.733 261.574 107.448 261.574 108.248ZM260.054 108.056C260.054 107.491 259.932 107 259.686 106.584C259.441 106.157 259.105 105.832 258.678 105.608C258.262 105.384 257.798 105.272 257.286 105.272C256.529 105.272 255.894 105.523 255.382 106.024C254.87 106.515 254.588 107.192 254.534 108.056H260.054ZM268.748 106.552C268.748 107.864 268.572 109.123 268.22 110.328C267.868 111.533 267.372 112.616 266.732 113.576C266.102 114.536 265.366 115.325 264.524 115.944H262.972V115.8C264.433 114.659 265.526 113.277 266.252 111.656C266.977 110.035 267.34 108.333 267.34 106.552C267.34 104.781 266.977 103.091 266.252 101.48C265.526 99.8587 264.433 98.472 262.972 97.32V97.176H264.524C265.366 97.7947 266.102 98.584 266.732 99.544C267.372 100.504 267.868 101.587 268.22 102.792C268.572 103.987 268.748 105.24 268.748 106.552Z" fill="white"/>
<path d="M60.592 179.304C61.3067 179.421 61.8827 179.741 62.32 180.264C62.7573 180.787 62.976 181.389 62.976 182.072C62.976 182.616 62.8267 183.112 62.528 183.56C62.24 184.008 61.8187 184.36 61.264 184.616C60.72 184.872 60.0853 185 59.36 185H55.2V173.912H59.168C59.9253 173.912 60.5707 174.04 61.104 174.296C61.6373 174.552 62.0373 174.904 62.304 175.352C62.5813 175.789 62.72 176.291 62.72 176.856C62.72 177.475 62.5333 177.992 62.16 178.408C61.7867 178.813 61.264 179.112 60.592 179.304ZM56.656 178.728H59.104C59.776 178.728 60.2987 178.568 60.672 178.248C61.056 177.917 61.248 177.475 61.248 176.92C61.248 176.355 61.056 175.907 60.672 175.576C60.2987 175.245 59.776 175.08 59.104 175.08H56.656V178.728ZM59.28 183.848C59.984 183.848 60.5333 183.672 60.928 183.32C61.3333 182.968 61.536 182.483 61.536 181.864C61.536 181.256 61.3173 180.776 60.88 180.424C60.4533 180.072 59.8827 179.896 59.168 179.896H56.656V183.848H59.28ZM68.6129 176.072C69.3595 176.072 70.0102 176.248 70.5649 176.6C71.1302 176.952 71.5569 177.411 71.8449 177.976V176.216H73.3169V185H71.8449V183.208C71.5569 183.784 71.1302 184.253 70.5649 184.616C70.0102 184.968 69.3595 185.144 68.6129 185.144C67.8235 185.144 67.1089 184.952 66.4689 184.568C65.8395 184.173 65.3382 183.629 64.9649 182.936C64.6022 182.232 64.4209 181.437 64.4209 180.552C64.4209 179.667 64.6022 178.888 64.9649 178.216C65.3382 177.533 65.8395 177.005 66.4689 176.632C67.1089 176.259 67.8235 176.072 68.6129 176.072ZM68.8689 177.336C68.3462 177.336 67.8555 177.464 67.3969 177.72C66.9489 177.976 66.5862 178.349 66.3089 178.84C66.0422 179.32 65.9089 179.891 65.9089 180.552C65.9089 181.213 66.0422 181.8 66.3089 182.312C66.5862 182.813 66.9489 183.203 67.3969 183.48C67.8555 183.757 68.3462 183.896 68.8689 183.896C69.4022 183.896 69.8929 183.763 70.3409 183.496C70.7995 183.229 71.1622 182.851 71.4289 182.36C71.7062 181.859 71.8449 181.277 71.8449 180.616C71.8449 179.955 71.7062 179.379 71.4289 178.888C71.1622 178.387 70.7995 178.003 70.3409 177.736C69.8929 177.469 69.4022 177.336 68.8689 177.336ZM79.3956 176.072C80.4516 176.072 81.3103 176.317 81.9716 176.808C82.6436 177.299 83.113 177.997 83.3796 178.904H81.8116C81.641 178.392 81.3476 177.992 80.9316 177.704C80.5156 177.416 80.0036 177.272 79.3956 177.272C78.5636 177.272 77.8916 177.565 77.3796 178.152C76.8783 178.728 76.6276 179.549 76.6276 180.616C76.6276 181.672 76.8783 182.493 77.3796 183.08C77.8916 183.656 78.5636 183.944 79.3956 183.944C80.0143 183.944 80.5263 183.805 80.9316 183.528C81.337 183.251 81.6303 182.845 81.8116 182.312H83.3796C83.113 183.176 82.6383 183.864 81.9556 184.376C81.2836 184.888 80.4303 185.144 79.3956 185.144C78.5743 185.144 77.8383 184.957 77.1876 184.584C76.5476 184.211 76.0463 183.683 75.6836 183C75.321 182.307 75.1396 181.512 75.1396 180.616C75.1396 179.709 75.321 178.915 75.6836 178.232C76.0463 177.539 76.5476 177.005 77.1876 176.632C77.8276 176.259 78.5636 176.072 79.3956 176.072ZM88.0294 180.584L92.1734 185H90.2054L86.7654 181.144V185H85.3094V173.16H86.7654V180.104L90.1254 176.216H92.1734L88.0294 180.584ZM97.1285 176.072C97.8752 176.072 98.5258 176.248 99.0805 176.6C99.6458 176.952 100.073 177.411 100.361 177.976V176.216H101.833V185.224C101.833 186.024 101.657 186.733 101.305 187.352C100.953 187.971 100.457 188.451 99.8165 188.792C99.1765 189.144 98.4352 189.32 97.5925 189.32C96.8565 189.32 96.1845 189.192 95.5765 188.936C94.9685 188.691 94.4725 188.339 94.0885 187.88C93.7045 187.421 93.4752 186.899 93.4005 186.312H94.8245C94.9632 186.813 95.2885 187.229 95.8005 187.56C96.3125 187.891 96.9098 188.056 97.5925 188.056C98.4245 188.056 99.0912 187.805 99.5925 187.304C100.105 186.813 100.361 186.12 100.361 185.224V183.208C100.073 183.784 99.6458 184.253 99.0805 184.616C98.5258 184.968 97.8752 185.144 97.1285 185.144C96.3392 185.144 95.6245 184.952 94.9845 184.568C94.3552 184.173 93.8538 183.629 93.4805 182.936C93.1178 182.232 92.9365 181.437 92.9365 180.552C92.9365 179.667 93.1178 178.888 93.4805 178.216C93.8538 177.533 94.3552 177.005 94.9845 176.632C95.6245 176.259 96.3392 176.072 97.1285 176.072ZM97.3845 177.336C96.8618 177.336 96.3712 177.464 95.9125 177.72C95.4645 177.976 95.1018 178.349 94.8245 178.84C94.5578 179.32 94.4245 179.891 94.4245 180.552C94.4245 181.213 94.5578 181.8 94.8245 182.312C95.1018 182.813 95.4645 183.203 95.9125 183.48C96.3712 183.757 96.8618 183.896 97.3845 183.896C97.9178 183.896 98.4085 183.763 98.8565 183.496C99.3152 183.229 99.6778 182.851 99.9445 182.36C100.222 181.859 100.361 181.277 100.361 180.616C100.361 179.955 100.222 179.379 99.9445 178.888C99.6778 178.387 99.3152 178.003 98.8565 177.736C98.4085 177.469 97.9178 177.336 97.3845 177.336ZM105.687 177.704C106.21 176.616 107.101 176.072 108.359 176.072V177.592H107.975C107.229 177.592 106.658 177.789 106.263 178.184C105.879 178.568 105.687 179.24 105.687 180.2V185H104.231V176.216H105.687V177.704ZM113.978 176.072C114.81 176.072 115.562 176.259 116.234 176.632C116.906 177.005 117.434 177.539 117.818 178.232C118.213 178.925 118.41 179.72 118.41 180.616C118.41 181.501 118.207 182.291 117.802 182.984C117.397 183.667 116.847 184.2 116.154 184.584C115.461 184.957 114.693 185.144 113.85 185.144C113.029 185.144 112.287 184.957 111.626 184.584C110.975 184.211 110.463 183.683 110.09 183C109.727 182.307 109.546 181.512 109.546 180.616C109.546 179.709 109.738 178.915 110.122 178.232C110.517 177.539 111.05 177.005 111.722 176.632C112.394 176.259 113.146 176.072 113.978 176.072ZM113.93 177.272C113.397 177.272 112.911 177.4 112.474 177.656C112.037 177.912 111.685 178.291 111.418 178.792C111.162 179.293 111.034 179.901 111.034 180.616C111.034 181.32 111.157 181.923 111.402 182.424C111.658 182.925 111.999 183.304 112.426 183.56C112.853 183.816 113.327 183.944 113.85 183.944C114.383 183.944 114.879 183.816 115.338 183.56C115.807 183.293 116.186 182.909 116.474 182.408C116.762 181.907 116.906 181.309 116.906 180.616C116.906 179.912 116.767 179.309 116.49 178.808C116.223 178.296 115.861 177.912 115.402 177.656C114.954 177.4 114.463 177.272 113.93 177.272ZM127.879 176.216V185H126.423V183.592C126.135 184.104 125.741 184.493 125.239 184.76C124.738 185.016 124.178 185.144 123.559 185.144C122.93 185.144 122.354 185.005 121.831 184.728C121.319 184.44 120.909 184.019 120.599 183.464C120.301 182.909 120.151 182.232 120.151 181.432V176.216H121.591V181.192C121.591 182.067 121.805 182.739 122.231 183.208C122.669 183.667 123.261 183.896 124.007 183.896C124.754 183.896 125.341 183.667 125.767 183.208C126.205 182.739 126.423 182.067 126.423 181.192V176.216H127.879ZM134.598 176.072C135.227 176.072 135.798 176.216 136.31 176.504C136.833 176.781 137.243 177.203 137.542 177.768C137.851 178.323 138.006 179 138.006 179.8V185H136.566V180.04C136.566 179.155 136.353 178.483 135.926 178.024C135.499 177.565 134.907 177.336 134.15 177.336C133.403 177.336 132.811 177.565 132.374 178.024C131.947 178.483 131.734 179.155 131.734 180.04V185H130.278V176.216H131.734V177.64C132.022 177.128 132.417 176.739 132.918 176.472C133.419 176.205 133.979 176.072 134.598 176.072ZM143.941 176.072C144.688 176.072 145.338 176.248 145.893 176.6C146.458 176.952 146.885 177.411 147.173 177.976V173.16H148.645V185H147.173V183.208C146.885 183.784 146.458 184.253 145.893 184.616C145.338 184.968 144.688 185.144 143.941 185.144C143.152 185.144 142.437 184.952 141.797 184.568C141.168 184.173 140.666 183.629 140.293 182.936C139.93 182.232 139.749 181.437 139.749 180.552C139.749 179.667 139.93 178.888 140.293 178.216C140.666 177.533 141.168 177.005 141.797 176.632C142.437 176.259 143.152 176.072 143.941 176.072ZM144.197 177.336C143.674 177.336 143.184 177.464 142.725 177.72C142.277 177.976 141.914 178.349 141.637 178.84C141.37 179.32 141.237 179.891 141.237 180.552C141.237 181.213 141.37 181.8 141.637 182.312C141.914 182.813 142.277 183.203 142.725 183.48C143.184 183.757 143.674 183.896 144.197 183.896C144.73 183.896 145.221 183.763 145.669 183.496C146.128 183.229 146.49 182.851 146.757 182.36C147.034 181.859 147.173 181.277 147.173 180.616C147.173 179.955 147.034 179.379 146.757 178.888C146.49 178.387 146.128 178.003 145.669 177.736C145.221 177.469 144.73 177.336 144.197 177.336ZM167.153 173.912V185H165.681V176.92L161.969 185H161.025L157.297 176.92V185H155.841V173.912H157.329L161.505 183L165.665 173.912H167.153ZM177.207 176.216V185H175.751V183.592C175.463 184.104 175.069 184.493 174.567 184.76C174.066 185.016 173.506 185.144 172.887 185.144C172.258 185.144 171.682 185.005 171.159 184.728C170.647 184.44 170.237 184.019 169.927 183.464C169.629 182.909 169.479 182.232 169.479 181.432V176.216H170.919V181.192C170.919 182.067 171.133 182.739 171.559 183.208C171.997 183.667 172.589 183.896 173.335 183.896C174.082 183.896 174.669 183.667 175.095 183.208C175.533 182.739 175.751 182.067 175.751 181.192V176.216H177.207ZM182.63 176.072C183.58 176.072 184.332 176.323 184.886 176.824C185.441 177.315 185.745 177.992 185.798 178.856H184.294C184.273 178.365 184.108 177.971 183.798 177.672C183.489 177.373 183.062 177.224 182.518 177.224C181.964 177.224 181.526 177.357 181.206 177.624C180.897 177.88 180.742 178.205 180.742 178.6C180.742 178.931 180.838 179.197 181.03 179.4C181.233 179.592 181.478 179.736 181.766 179.832C182.065 179.928 182.465 180.029 182.966 180.136C183.606 180.285 184.118 180.435 184.502 180.584C184.897 180.723 185.233 180.963 185.51 181.304C185.788 181.635 185.926 182.088 185.926 182.664C185.926 183.144 185.788 183.576 185.51 183.96C185.233 184.333 184.844 184.627 184.342 184.84C183.841 185.043 183.265 185.144 182.614 185.144C181.633 185.144 180.844 184.899 180.246 184.408C179.66 183.917 179.34 183.24 179.286 182.376H180.79C180.812 182.867 180.982 183.261 181.302 183.56C181.633 183.848 182.07 183.992 182.614 183.992C183.212 183.992 183.67 183.869 183.99 183.624C184.321 183.379 184.486 183.053 184.486 182.648C184.486 182.317 184.385 182.056 184.182 181.864C183.99 181.661 183.745 181.512 183.446 181.416C183.148 181.309 182.737 181.197 182.214 181.08C181.585 180.941 181.073 180.803 180.678 180.664C180.294 180.515 179.964 180.285 179.686 179.976C179.42 179.667 179.286 179.24 179.286 178.696C179.286 178.216 179.42 177.779 179.686 177.384C179.964 176.979 180.353 176.659 180.854 176.424C181.366 176.189 181.958 176.072 182.63 176.072ZM187.788 173.816C187.788 173.539 187.884 173.304 188.076 173.112C188.268 172.92 188.497 172.824 188.764 172.824C189.041 172.824 189.276 172.92 189.468 173.112C189.66 173.304 189.756 173.539 189.756 173.816C189.756 174.093 189.66 174.328 189.468 174.52C189.276 174.712 189.041 174.808 188.764 174.808C188.487 174.808 188.252 174.712 188.06 174.52C187.879 174.328 187.788 174.093 187.788 173.816ZM189.484 176.216V185H188.028V176.216H189.484ZM195.568 176.072C196.624 176.072 197.482 176.317 198.144 176.808C198.816 177.299 199.285 177.997 199.552 178.904H197.984C197.813 178.392 197.52 177.992 197.104 177.704C196.688 177.416 196.176 177.272 195.568 177.272C194.736 177.272 194.064 177.565 193.552 178.152C193.05 178.728 192.799 179.549 192.799 180.616C192.799 181.672 193.05 182.493 193.552 183.08C194.064 183.656 194.736 183.944 195.568 183.944C196.186 183.944 196.698 183.805 197.104 183.528C197.509 183.251 197.802 182.845 197.984 182.312H199.552C199.285 183.176 198.81 183.864 198.128 184.376C197.456 184.888 196.602 185.144 195.568 185.144C194.746 185.144 194.01 184.957 193.36 184.584C192.72 184.211 192.218 183.683 191.856 183C191.493 182.307 191.312 181.512 191.312 180.616C191.312 179.709 191.493 178.915 191.856 178.232C192.218 177.539 192.72 177.005 193.36 176.632C194 176.259 194.736 176.072 195.568 176.072Z" fill="white"/>
<path d="M55.936 249.912L59.424 259.448L62.944 249.912H64.496L60.224 261H58.656L54.384 249.912H55.936ZM69.931 252.072C70.763 252.072 71.515 252.259 72.187 252.632C72.859 253.005 73.387 253.539 73.771 254.232C74.1657 254.925 74.363 255.72 74.363 256.616C74.363 257.501 74.1603 258.291 73.755 258.984C73.3497 259.667 72.8003 260.2 72.107 260.584C71.4137 260.957 70.6457 261.144 69.803 261.144C68.9817 261.144 68.2403 260.957 67.579 260.584C66.9283 260.211 66.4163 259.683 66.043 259C65.6803 258.307 65.499 257.512 65.499 256.616C65.499 255.709 65.691 254.915 66.075 254.232C66.4697 253.539 67.003 253.005 67.675 252.632C68.347 252.259 69.099 252.072 69.931 252.072ZM69.883 253.272C69.3497 253.272 68.8643 253.4 68.427 253.656C67.9897 253.912 67.6377 254.291 67.371 254.792C67.115 255.293 66.987 255.901 66.987 256.616C66.987 257.32 67.1097 257.923 67.355 258.424C67.611 258.925 67.9523 259.304 68.379 259.56C68.8057 259.816 69.2803 259.944 69.803 259.944C70.3363 259.944 70.8323 259.816 71.291 259.56C71.7603 259.293 72.139 258.909 72.427 258.408C72.715 257.907 72.859 257.309 72.859 256.616C72.859 255.912 72.7203 255.309 72.443 254.808C72.1763 254.296 71.8137 253.912 71.355 253.656C70.907 253.4 70.4163 253.272 69.883 253.272ZM75.9444 249.816C75.9444 249.539 76.0404 249.304 76.2324 249.112C76.4244 248.92 76.6537 248.824 76.9204 248.824C77.1977 248.824 77.4324 248.92 77.6244 249.112C77.8164 249.304 77.9124 249.539 77.9124 249.816C77.9124 250.093 77.8164 250.328 77.6244 250.52C77.4324 250.712 77.1977 250.808 76.9204 250.808C76.643 250.808 76.4084 250.712 76.2164 250.52C76.035 250.328 75.9444 250.093 75.9444 249.816ZM77.6404 252.216V261H76.1844V252.216H77.6404ZM83.7238 252.072C84.7798 252.072 85.6384 252.317 86.2998 252.808C86.9718 253.299 87.4411 253.997 87.7078 254.904H86.1398C85.9691 254.392 85.6758 253.992 85.2598 253.704C84.8438 253.416 84.3318 253.272 83.7238 253.272C82.8918 253.272 82.2198 253.565 81.7078 254.152C81.2064 254.728 80.9557 255.549 80.9557 256.616C80.9557 257.672 81.2064 258.493 81.7078 259.08C82.2198 259.656 82.8918 259.944 83.7238 259.944C84.3424 259.944 84.8544 259.805 85.2598 259.528C85.6651 259.251 85.9584 258.845 86.1398 258.312H87.7078C87.4411 259.176 86.9664 259.864 86.2838 260.376C85.6118 260.888 84.7584 261.144 83.7238 261.144C82.9024 261.144 82.1664 260.957 81.5158 260.584C80.8758 260.211 80.3744 259.683 80.0118 259C79.6491 258.307 79.4678 257.512 79.4678 256.616C79.4678 255.709 79.6491 254.915 80.0118 254.232C80.3744 253.539 80.8758 253.005 81.5158 252.632C82.1558 252.259 82.8918 252.072 83.7238 252.072ZM97.6055 256.248C97.6055 256.557 97.5842 256.845 97.5415 257.112H90.5495C90.5922 257.987 90.8642 258.68 91.3655 259.192C91.8775 259.693 92.5282 259.944 93.3175 259.944C93.9148 259.944 94.4162 259.811 94.8215 259.544C95.2375 259.277 95.5415 258.925 95.7335 258.488H97.3015C97.0242 259.256 96.5442 259.891 95.8615 260.392C95.1895 260.893 94.3415 261.144 93.3175 261.144C92.4962 261.144 91.7602 260.957 91.1095 260.584C90.4695 260.211 89.9682 259.683 89.6055 259C89.2428 258.307 89.0615 257.512 89.0615 256.616C89.0615 255.709 89.2428 254.915 89.6055 254.232C89.9682 253.539 90.4802 253.005 91.1415 252.632C91.8028 252.259 92.5655 252.072 93.4295 252.072C94.2508 252.072 94.9762 252.253 95.6055 252.616C96.2348 252.979 96.7255 253.475 97.0775 254.104C97.4295 254.733 97.6055 255.448 97.6055 256.248ZM96.0855 256.056C96.0855 255.491 95.9628 255 95.7175 254.584C95.4722 254.157 95.1362 253.832 94.7095 253.608C94.2935 253.384 93.8295 253.272 93.3175 253.272C92.5602 253.272 91.9255 253.523 91.4135 254.024C90.9015 254.515 90.6188 255.192 90.5655 256.056H96.0855ZM109.288 249.8C110.322 249.8 111.266 250.04 112.12 250.52C112.984 251 113.666 251.672 114.168 252.536C114.669 253.389 114.92 254.36 114.92 255.448C114.92 256.525 114.669 257.496 114.168 258.36C113.666 259.224 112.984 259.901 112.12 260.392C111.266 260.872 110.322 261.112 109.288 261.112C108.253 261.112 107.304 260.872 106.44 260.392C105.576 259.901 104.893 259.224 104.392 258.36C103.89 257.496 103.64 256.525 103.64 255.448C103.64 254.36 103.89 253.389 104.392 252.536C104.893 251.672 105.576 251 106.44 250.52C107.304 250.04 108.253 249.8 109.288 249.8ZM109.288 251.096C108.498 251.096 107.784 251.277 107.144 251.64C106.514 251.992 106.018 252.499 105.656 253.16C105.293 253.821 105.112 254.584 105.112 255.448C105.112 256.312 105.293 257.075 105.656 257.736C106.018 258.397 106.514 258.909 107.144 259.272C107.784 259.635 108.498 259.816 109.288 259.816C110.077 259.816 110.786 259.635 111.416 259.272C112.045 258.909 112.536 258.397 112.888 257.736C113.25 257.075 113.432 256.312 113.432 255.448C113.432 254.584 113.25 253.821 112.888 253.16C112.536 252.499 112.045 251.992 111.416 251.64C110.786 251.277 110.077 251.096 109.288 251.096ZM119.963 259.64L122.667 252.216H124.235L120.795 261H119.147L115.723 252.216H117.275L119.963 259.64ZM133.59 256.248C133.59 256.557 133.569 256.845 133.526 257.112H126.534C126.577 257.987 126.849 258.68 127.35 259.192C127.862 259.693 128.513 259.944 129.302 259.944C129.899 259.944 130.401 259.811 130.806 259.544C131.222 259.277 131.526 258.925 131.718 258.488H133.286C133.009 259.256 132.529 259.891 131.846 260.392C131.174 260.893 130.326 261.144 129.302 261.144C128.481 261.144 127.745 260.957 127.094 260.584C126.454 260.211 125.953 259.683 125.59 259C125.227 258.307 125.046 257.512 125.046 256.616C125.046 255.709 125.227 254.915 125.59 254.232C125.953 253.539 126.465 253.005 127.126 252.632C127.787 252.259 128.55 252.072 129.414 252.072C130.235 252.072 130.961 252.253 131.59 252.616C132.219 252.979 132.71 253.475 133.062 254.104C133.414 254.733 133.59 255.448 133.59 256.248ZM132.07 256.056C132.07 255.491 131.947 255 131.702 254.584C131.457 254.157 131.121 253.832 130.694 253.608C130.278 253.384 129.814 253.272 129.302 253.272C128.545 253.272 127.91 253.523 127.398 254.024C126.886 254.515 126.603 255.192 126.55 256.056H132.07ZM136.859 253.704C137.382 252.616 138.272 252.072 139.531 252.072V253.592H139.147C138.4 253.592 137.83 253.789 137.435 254.184C137.051 254.568 136.859 255.24 136.859 256.2V261H135.403V252.216H136.859V253.704Z" fill="white"/>
<rect y="242" width="34" height="31" rx="7" fill="white" fill-opacity="0.15"/>
</svg>
