<svg width="314" height="372" viewBox="0 0 314 372" fill="none" xmlns="http://www.w3.org/2000/svg">
<rect x="3" y="78" width="34" height="31" rx="7" fill="#102E4A" fill-opacity="0.33"/>
<rect y="162" width="34" height="31" rx="7" fill="#102E4A" fill-opacity="0.33"/>
<rect x="3" y="242" width="34" height="31" rx="7" fill="#102E4A" fill-opacity="0.33"/>
<rect x="3" y="318" width="34" height="31" rx="7" fill="#102E4A" fill-opacity="0.33"/>
<path d="M29.6233 87.3815C30.1256 87.8894 30.1256 88.7101 29.6233 89.218L19.337 99.6191C18.8348 100.127 18.0231 100.127 17.5208 99.6191L12.3766 94.4185C11.8745 93.9107 11.8745 93.0899 12.3766 92.5821C12.8788 92.0742 13.6928 92.0742 14.1951 92.5821L18.3928 96.8604L27.8071 87.3815C28.3094 86.8728 29.121 86.8728 29.6233 87.3815Z" fill="black"/>
<path d="M26.6233 171.382C27.1256 171.889 27.1256 172.71 26.6233 173.218L16.337 183.619C15.8348 184.127 15.0231 184.127 14.5208 183.619L9.37657 178.419C8.87448 177.911 8.87448 177.09 9.37657 176.582C9.87875 176.074 10.6928 176.074 11.1951 176.582L15.3928 180.86L24.8071 171.382C25.3094 170.873 26.121 170.873 26.6233 171.382Z" fill="black"/>
<path d="M29.6233 251.382C30.1256 251.889 30.1256 252.71 29.6233 253.218L19.337 263.619C18.8348 264.127 18.0231 264.127 17.5208 263.619L12.3766 258.419C11.8745 257.911 11.8745 257.09 12.3766 256.582C12.8788 256.074 13.6928 256.074 14.1951 256.582L18.3928 260.86L27.8071 251.382C28.3094 250.873 29.121 250.873 29.6233 251.382Z" fill="black"/>
<path d="M29.6233 327.382C30.1256 327.889 30.1256 328.71 29.6233 329.218L19.337 339.619C18.8348 340.127 18.0231 340.127 17.5208 339.619L12.3766 334.419C11.8745 333.911 11.8745 333.09 12.3766 332.582C12.8788 332.074 13.6928 332.074 14.1951 332.582L18.3928 336.86L27.8071 327.382C28.3094 326.873 29.121 326.873 29.6233 327.382Z" fill="black"/>
<path d="M22.7602 10.1L18.6402 24H16.0602L13.1402 13.48L10.0402 24L7.48016 24.02L3.54016 10.1H5.96016L8.84016 21.42L11.9602 10.1H14.5202L17.4202 21.36L20.3202 10.1H22.7602ZM30.4406 12.8C31.2406 12.8 31.9606 12.98 32.6006 13.34C33.254 13.7 33.7673 14.2333 34.1406 14.94C34.5273 15.6467 34.7206 16.5 34.7206 17.5V24H32.4606V17.84C32.4606 16.8533 32.214 16.1 31.7206 15.58C31.2273 15.0467 30.554 14.78 29.7006 14.78C28.8473 14.78 28.1673 15.0467 27.6606 15.58C27.1673 16.1 26.9206 16.8533 26.9206 17.84V24H24.6406V9.2H26.9206V14.72C27.2806 14.0933 27.7606 13.62 28.3606 13.3C28.974 12.9667 29.6673 12.8 30.4406 12.8ZM42.0689 12.8C42.9356 12.8 43.6956 13 44.3489 13.4C45.0156 13.7867 45.5289 14.3 45.8889 14.94V12.98H48.1889V24H45.8889V21.94C45.5156 22.62 45.0022 23.1667 44.3489 23.58C43.6956 23.98 42.9356 24.18 42.0689 24.18C41.1089 24.18 40.2289 23.94 39.4289 23.46C38.6422 22.9667 38.0156 22.2867 37.5489 21.42C37.0956 20.54 36.8689 19.5467 36.8689 18.44C36.8689 17.3333 37.0956 16.3533 37.5489 15.5C38.0156 14.6467 38.6422 13.9867 39.4289 13.52C40.2289 13.04 41.1089 12.8 42.0689 12.8ZM42.5489 14.78C41.9622 14.78 41.4156 14.9267 40.9089 15.22C40.4022 15.5 39.9889 15.92 39.6689 16.48C39.3622 17.0267 39.2089 17.68 39.2089 18.44C39.2089 19.2 39.3622 19.8667 39.6689 20.44C39.9889 21.0133 40.4022 21.4533 40.9089 21.76C41.4289 22.0533 41.9756 22.2 42.5489 22.2C43.1356 22.2 43.6822 22.0533 44.1889 21.76C44.6956 21.4667 45.1022 21.04 45.4089 20.48C45.7289 19.9067 45.8889 19.24 45.8889 18.48C45.8889 17.72 45.7289 17.06 45.4089 16.5C45.1022 15.94 44.6956 15.5133 44.1889 15.22C43.6822 14.9267 43.1356 14.78 42.5489 14.78ZM53.8436 14.84V20.94C53.8436 21.3533 53.9369 21.6533 54.1236 21.84C54.3236 22.0133 54.6569 22.1 55.1236 22.1H56.5236V24H54.7236C53.6969 24 52.9103 23.76 52.3636 23.28C51.8169 22.8 51.5436 22.02 51.5436 20.94V14.84H50.2436V12.98H51.5436V10.24H53.8436V12.98H56.5236V14.84H53.8436ZM65.8611 12.98L68.9611 21.38L72.1811 12.98H74.5411L67.7811 29.18H65.4211L67.6611 23.82L63.3211 12.98H65.8611ZM81.1417 12.8C82.1951 12.8 83.1484 13.0333 84.0017 13.5C84.8551 13.9667 85.5284 14.6333 86.0217 15.5C86.5151 16.3667 86.7617 17.36 86.7617 18.48C86.7617 19.6 86.5084 20.5933 86.0017 21.46C85.4951 22.3267 84.8017 23 83.9217 23.48C83.0551 23.9467 82.0951 24.18 81.0417 24.18C80.0017 24.18 79.0617 23.9467 78.2217 23.48C77.3817 23 76.7217 22.3333 76.2417 21.48C75.7617 20.6133 75.5217 19.6133 75.5217 18.48C75.5217 17.36 75.7684 16.3667 76.2617 15.5C76.7551 14.6333 77.4284 13.9667 78.2817 13.5C79.1351 13.0333 80.0884 12.8 81.1417 12.8ZM81.1017 14.72C80.5151 14.72 79.9751 14.8667 79.4817 15.16C78.9884 15.44 78.5884 15.8667 78.2817 16.44C77.9884 17 77.8417 17.68 77.8417 18.48C77.8417 19.28 77.9817 19.9667 78.2617 20.54C78.5551 21.1133 78.9417 21.5467 79.4217 21.84C79.9151 22.12 80.4551 22.26 81.0417 22.26C81.6284 22.26 82.1751 22.1133 82.6817 21.82C83.2017 21.5267 83.6217 21.1 83.9417 20.54C84.2617 19.9667 84.4217 19.28 84.4217 18.48C84.4217 17.68 84.2684 17 83.9617 16.44C83.6551 15.8667 83.2484 15.44 82.7417 15.16C82.2351 14.8667 81.6884 14.72 81.1017 14.72ZM98.9956 12.98V24H96.7156V22.26C96.3556 22.8867 95.869 23.36 95.2556 23.68C94.6556 24 93.969 24.16 93.1956 24.16C92.3956 24.16 91.669 23.98 91.0156 23.62C90.3756 23.26 89.8623 22.7333 89.4756 22.04C89.1023 21.3333 88.9156 20.48 88.9156 19.48V12.98H91.1756V19.14C91.1756 20.1267 91.4223 20.8867 91.9156 21.42C92.409 21.94 93.0823 22.2 93.9356 22.2C94.789 22.2 95.4623 21.94 95.9556 21.42C96.4623 20.8867 96.7156 20.1267 96.7156 19.14V12.98H98.9956ZM112.44 12.8C113.307 12.8 114.067 13 114.72 13.4C115.387 13.7867 115.9 14.3 116.26 14.94V12.98H118.56V24.18C118.56 25.1933 118.347 26.0933 117.92 26.88C117.493 27.68 116.873 28.3067 116.06 28.76C115.26 29.2133 114.3 29.44 113.18 29.44C111.687 29.44 110.447 29.0867 109.46 28.38C108.473 27.6867 107.913 26.74 107.78 25.54H110.04C110.213 26.1133 110.58 26.5733 111.14 26.92C111.713 27.28 112.393 27.46 113.18 27.46C114.1 27.46 114.84 27.18 115.4 26.62C115.973 26.06 116.26 25.2467 116.26 24.18V21.94C115.887 22.62 115.373 23.1667 114.72 23.58C114.067 23.98 113.307 24.18 112.44 24.18C111.48 24.18 110.6 23.94 109.8 23.46C109.013 22.9667 108.387 22.2867 107.92 21.42C107.467 20.54 107.24 19.5467 107.24 18.44C107.24 17.3333 107.467 16.3533 107.92 15.5C108.387 14.6467 109.013 13.9867 109.8 13.52C110.6 13.04 111.48 12.8 112.44 12.8ZM112.92 14.78C112.333 14.78 111.787 14.9267 111.28 15.22C110.773 15.5 110.36 15.92 110.04 16.48C109.733 17.0267 109.58 17.68 109.58 18.44C109.58 19.2 109.733 19.8667 110.04 20.44C110.36 21.0133 110.773 21.4533 111.28 21.76C111.8 22.0533 112.347 22.2 112.92 22.2C113.507 22.2 114.053 22.0533 114.56 21.76C115.067 21.4667 115.473 21.04 115.78 20.48C116.1 19.9067 116.26 19.24 116.26 18.48C116.26 17.72 116.1 17.06 115.78 16.5C115.473 15.94 115.067 15.5133 114.56 15.22C114.053 14.9267 113.507 14.78 112.92 14.78ZM131.655 18.18C131.655 18.5667 131.628 18.9267 131.575 19.26H123.135C123.188 20.18 123.495 20.9133 124.055 21.46C124.628 21.9933 125.341 22.26 126.195 22.26C127.435 22.26 128.308 21.7467 128.815 20.72H131.275C130.941 21.7333 130.335 22.5667 129.455 23.22C128.575 23.86 127.488 24.18 126.195 24.18C125.141 24.18 124.208 23.9467 123.395 23.48C122.581 23 121.941 22.3333 121.475 21.48C121.021 20.6133 120.795 19.6133 120.795 18.48C120.795 17.3467 121.021 16.3533 121.475 15.5C121.941 14.6333 122.588 13.9667 123.415 13.5C124.255 13.0333 125.215 12.8 126.295 12.8C127.335 12.8 128.261 13.0267 129.075 13.48C129.888 13.9333 130.521 14.5667 130.975 15.38C131.428 16.1933 131.655 17.1267 131.655 18.18ZM129.275 17.7C129.261 16.7933 128.961 16.0733 128.375 15.54C127.788 14.9933 127.061 14.72 126.195 14.72C125.381 14.72 124.688 14.9933 124.115 15.54C123.555 16.0733 123.235 16.7933 123.155 17.7H129.275ZM136.558 14.84V20.94C136.558 21.3533 136.652 21.6533 136.838 21.84C137.038 22.0133 137.372 22.1 137.838 22.1H139.238V24H137.438C136.412 24 135.625 23.76 135.078 23.28C134.532 22.8 134.258 22.02 134.258 20.94V14.84H132.958V12.98H134.258V10.24H136.558V12.98H139.238V14.84H136.558Z" fill="black"/>
<path d="M59.656 95.88H63.544V97H58.2V85.912H59.656V95.88ZM64.8194 85.816C64.8194 85.5387 64.9154 85.304 65.1074 85.112C65.2994 84.92 65.5287 84.824 65.7954 84.824C66.0727 84.824 66.3074 84.92 66.4994 85.112C66.6914 85.304 66.7874 85.5387 66.7874 85.816C66.7874 86.0933 66.6914 86.328 66.4994 86.52C66.3074 86.712 66.0727 86.808 65.7954 86.808C65.518 86.808 65.2834 86.712 65.0914 86.52C64.91 86.328 64.8194 86.0933 64.8194 85.816ZM66.5154 88.216V97H65.0594V88.216H66.5154ZM72.1508 95.64L74.8548 88.216H76.4228L72.9828 97H71.3348L67.9108 88.216H69.4628L72.1508 95.64ZM85.7774 92.248C85.7774 92.5573 85.756 92.8453 85.7134 93.112H78.7214C78.764 93.9867 79.036 94.68 79.5374 95.192C80.0494 95.6933 80.7 95.944 81.4894 95.944C82.0867 95.944 82.588 95.8107 82.9934 95.544C83.4094 95.2773 83.7134 94.9253 83.9054 94.488H85.4734C85.196 95.256 84.716 95.8907 84.0334 96.392C83.3614 96.8933 82.5134 97.144 81.4894 97.144C80.668 97.144 79.932 96.9573 79.2814 96.584C78.6414 96.2107 78.14 95.6827 77.7774 95C77.4147 94.3067 77.2334 93.512 77.2334 92.616C77.2334 91.7093 77.4147 90.9147 77.7774 90.232C78.14 89.5387 78.652 89.0053 79.3134 88.632C79.9747 88.2587 80.7374 88.072 81.6014 88.072C82.4227 88.072 83.148 88.2533 83.7774 88.616C84.4067 88.9787 84.8974 89.4747 85.2494 90.104C85.6014 90.7333 85.7774 91.448 85.7774 92.248ZM84.2574 92.056C84.2574 91.4907 84.1347 91 83.8894 90.584C83.644 90.1573 83.308 89.832 82.8814 89.608C82.4654 89.384 82.0014 89.272 81.4894 89.272C80.732 89.272 80.0974 89.5227 79.5854 90.024C79.0734 90.5147 78.7907 91.192 78.7374 92.056H84.2574ZM92.1475 85.816C92.1475 85.5387 92.2435 85.304 92.4355 85.112C92.6275 84.92 92.8568 84.824 93.1235 84.824C93.4008 84.824 93.6355 84.92 93.8275 85.112C94.0195 85.304 94.1155 85.5387 94.1155 85.816C94.1155 86.0933 94.0195 86.328 93.8275 86.52C93.6355 86.712 93.4008 86.808 93.1235 86.808C92.8462 86.808 92.6115 86.712 92.4195 86.52C92.2382 86.328 92.1475 86.0933 92.1475 85.816ZM93.8435 88.216V97H92.3875V88.216H93.8435ZM106.807 88.072C107.447 88.072 108.028 88.216 108.551 88.504C109.074 88.7813 109.484 89.2027 109.783 89.768C110.092 90.3227 110.247 91 110.247 91.8V97H108.807V92.04C108.807 91.1547 108.588 90.4827 108.151 90.024C107.724 89.5653 107.138 89.336 106.391 89.336C105.644 89.336 105.052 89.5653 104.615 90.024C104.188 90.4827 103.975 91.1547 103.975 92.04V97H102.535V92.04C102.535 91.1547 102.322 90.4827 101.895 90.024C101.468 89.5653 100.876 89.336 100.119 89.336C99.3722 89.336 98.7802 89.5653 98.3429 90.024C97.9162 90.4827 97.7029 91.1547 97.7029 92.04V97H96.2469V88.216H97.7029V89.64C97.9909 89.128 98.3855 88.7387 98.8869 88.472C99.3882 88.2053 99.9482 88.072 100.567 88.072C101.239 88.072 101.847 88.2373 102.391 88.568C102.935 88.888 103.346 89.3573 103.623 89.976C103.943 89.3787 104.375 88.9147 104.919 88.584C105.474 88.2427 106.103 88.072 106.807 88.072ZM116.175 88.072C116.922 88.072 117.573 88.248 118.127 88.6C118.693 88.952 119.119 89.4107 119.407 89.976V88.216H120.879V97H119.407V95.208C119.119 95.784 118.693 96.2533 118.127 96.616C117.573 96.968 116.922 97.144 116.175 97.144C115.386 97.144 114.671 96.952 114.031 96.568C113.402 96.1733 112.901 95.6293 112.527 94.936C112.165 94.232 111.983 93.4373 111.983 92.552C111.983 91.6667 112.165 90.888 112.527 90.216C112.901 89.5333 113.402 89.0053 114.031 88.632C114.671 88.2587 115.386 88.072 116.175 88.072ZM116.431 89.336C115.909 89.336 115.418 89.464 114.959 89.72C114.511 89.976 114.149 90.3493 113.871 90.84C113.605 91.32 113.471 91.8907 113.471 92.552C113.471 93.2133 113.605 93.8 113.871 94.312C114.149 94.8133 114.511 95.2027 114.959 95.48C115.418 95.7573 115.909 95.896 116.431 95.896C116.965 95.896 117.455 95.7627 117.903 95.496C118.362 95.2293 118.725 94.8507 118.991 94.36C119.269 93.8587 119.407 93.2773 119.407 92.616C119.407 91.9547 119.269 91.3787 118.991 90.888C118.725 90.3867 118.362 90.0027 117.903 89.736C117.455 89.4693 116.965 89.336 116.431 89.336ZM126.894 88.072C127.641 88.072 128.291 88.248 128.846 88.6C129.411 88.952 129.838 89.4107 130.126 89.976V88.216H131.598V97.224C131.598 98.024 131.422 98.7333 131.07 99.352C130.718 99.9707 130.222 100.451 129.582 100.792C128.942 101.144 128.201 101.32 127.358 101.32C126.622 101.32 125.95 101.192 125.342 100.936C124.734 100.691 124.238 100.339 123.854 99.88C123.47 99.4213 123.241 98.8987 123.166 98.312H124.59C124.729 98.8133 125.054 99.2293 125.566 99.56C126.078 99.8907 126.675 100.056 127.358 100.056C128.19 100.056 128.857 99.8053 129.358 99.304C129.87 98.8133 130.126 98.12 130.126 97.224V95.208C129.838 95.784 129.411 96.2533 128.846 96.616C128.291 96.968 127.641 97.144 126.894 97.144C126.105 97.144 125.39 96.952 124.75 96.568C124.121 96.1733 123.619 95.6293 123.246 94.936C122.883 94.232 122.702 93.4373 122.702 92.552C122.702 91.6667 122.883 90.888 123.246 90.216C123.619 89.5333 124.121 89.0053 124.75 88.632C125.39 88.2587 126.105 88.072 126.894 88.072ZM127.15 89.336C126.627 89.336 126.137 89.464 125.678 89.72C125.23 89.976 124.867 90.3493 124.59 90.84C124.323 91.32 124.19 91.8907 124.19 92.552C124.19 93.2133 124.323 93.8 124.59 94.312C124.867 94.8133 125.23 95.2027 125.678 95.48C126.137 95.7573 126.627 95.896 127.15 95.896C127.683 95.896 128.174 95.7627 128.622 95.496C129.081 95.2293 129.443 94.8507 129.71 94.36C129.987 93.8587 130.126 93.2773 130.126 92.616C130.126 91.9547 129.987 91.3787 129.71 90.888C129.443 90.3867 129.081 90.0027 128.622 89.736C128.174 89.4693 127.683 89.336 127.15 89.336ZM141.965 92.248C141.965 92.5573 141.944 92.8453 141.901 93.112H134.909C134.952 93.9867 135.224 94.68 135.725 95.192C136.237 95.6933 136.888 95.944 137.677 95.944C138.274 95.944 138.776 95.8107 139.181 95.544C139.597 95.2773 139.901 94.9253 140.093 94.488H141.661C141.384 95.256 140.904 95.8907 140.221 96.392C139.549 96.8933 138.701 97.144 137.677 97.144C136.856 97.144 136.12 96.9573 135.469 96.584C134.829 96.2107 134.328 95.6827 133.965 95C133.602 94.3067 133.421 93.512 133.421 92.616C133.421 91.7093 133.602 90.9147 133.965 90.232C134.328 89.5387 134.84 89.0053 135.501 88.632C136.162 88.2587 136.925 88.072 137.789 88.072C138.61 88.072 139.336 88.2533 139.965 88.616C140.594 88.9787 141.085 89.4747 141.437 90.104C141.789 90.7333 141.965 91.448 141.965 92.248ZM140.445 92.056C140.445 91.4907 140.322 91 140.077 90.584C139.832 90.1573 139.496 89.832 139.069 89.608C138.653 89.384 138.189 89.272 137.677 89.272C136.92 89.272 136.285 89.5227 135.773 90.024C135.261 90.5147 134.978 91.192 134.925 92.056H140.445ZM146.802 88.072C147.751 88.072 148.503 88.3227 149.058 88.824C149.613 89.3147 149.917 89.992 149.97 90.856H148.466C148.445 90.3653 148.279 89.9707 147.97 89.672C147.661 89.3733 147.234 89.224 146.69 89.224C146.135 89.224 145.698 89.3573 145.378 89.624C145.069 89.88 144.914 90.2053 144.914 90.6C144.914 90.9307 145.01 91.1973 145.202 91.4C145.405 91.592 145.65 91.736 145.938 91.832C146.237 91.928 146.637 92.0293 147.138 92.136C147.778 92.2853 148.29 92.4347 148.674 92.584C149.069 92.7227 149.405 92.9627 149.682 93.304C149.959 93.6347 150.098 94.088 150.098 94.664C150.098 95.144 149.959 95.576 149.682 95.96C149.405 96.3333 149.015 96.6267 148.514 96.84C148.013 97.0427 147.437 97.144 146.786 97.144C145.805 97.144 145.015 96.8987 144.418 96.408C143.831 95.9173 143.511 95.24 143.458 94.376H144.962C144.983 94.8667 145.154 95.2613 145.474 95.56C145.805 95.848 146.242 95.992 146.786 95.992C147.383 95.992 147.842 95.8693 148.162 95.624C148.493 95.3787 148.658 95.0533 148.658 94.648C148.658 94.3173 148.557 94.056 148.354 93.864C148.162 93.6613 147.917 93.512 147.618 93.416C147.319 93.3093 146.909 93.1973 146.386 93.08C145.757 92.9413 145.245 92.8027 144.85 92.664C144.466 92.5147 144.135 92.2853 143.858 91.976C143.591 91.6667 143.458 91.24 143.458 90.696C143.458 90.216 143.591 89.7787 143.858 89.384C144.135 88.9787 144.525 88.6587 145.026 88.424C145.538 88.1893 146.13 88.072 146.802 88.072ZM162.917 81.928L158.549 99.72H157.109L161.477 81.928H162.917ZM173.651 95.64L176.355 88.216H177.923L174.483 97H172.835L169.411 88.216H170.963L173.651 95.64ZM179.069 85.816C179.069 85.5387 179.165 85.304 179.357 85.112C179.549 84.92 179.779 84.824 180.045 84.824C180.323 84.824 180.557 84.92 180.749 85.112C180.941 85.304 181.037 85.5387 181.037 85.816C181.037 86.0933 180.941 86.328 180.749 86.52C180.557 86.712 180.323 86.808 180.045 86.808C179.768 86.808 179.533 86.712 179.341 86.52C179.16 86.328 179.069 86.0933 179.069 85.816ZM180.765 88.216V97H179.309V88.216H180.765ZM186.785 88.072C187.531 88.072 188.182 88.248 188.737 88.6C189.302 88.952 189.729 89.4107 190.017 89.976V85.16H191.489V97H190.017V95.208C189.729 95.784 189.302 96.2533 188.737 96.616C188.182 96.968 187.531 97.144 186.785 97.144C185.995 97.144 185.281 96.952 184.641 96.568C184.011 96.1733 183.51 95.6293 183.137 94.936C182.774 94.232 182.593 93.4373 182.593 92.552C182.593 91.6667 182.774 90.888 183.137 90.216C183.51 89.5333 184.011 89.0053 184.641 88.632C185.281 88.2587 185.995 88.072 186.785 88.072ZM187.041 89.336C186.518 89.336 186.027 89.464 185.569 89.72C185.121 89.976 184.758 90.3493 184.481 90.84C184.214 91.32 184.081 91.8907 184.081 92.552C184.081 93.2133 184.214 93.8 184.481 94.312C184.758 94.8133 185.121 95.2027 185.569 95.48C186.027 95.7573 186.518 95.896 187.041 95.896C187.574 95.896 188.065 95.7627 188.513 95.496C188.971 95.2293 189.334 94.8507 189.601 94.36C189.878 93.8587 190.017 93.2773 190.017 92.616C190.017 91.9547 189.878 91.3787 189.601 90.888C189.334 90.3867 188.971 90.0027 188.513 89.736C188.065 89.4693 187.574 89.336 187.041 89.336ZM201.856 92.248C201.856 92.5573 201.834 92.8453 201.792 93.112H194.799C194.842 93.9867 195.114 94.68 195.616 95.192C196.128 95.6933 196.778 95.944 197.568 95.944C198.165 95.944 198.666 95.8107 199.072 95.544C199.488 95.2773 199.792 94.9253 199.984 94.488H201.552C201.274 95.256 200.794 95.8907 200.112 96.392C199.44 96.8933 198.592 97.144 197.568 97.144C196.746 97.144 196.01 96.9573 195.36 96.584C194.72 96.2107 194.218 95.6827 193.856 95C193.493 94.3067 193.312 93.512 193.312 92.616C193.312 91.7093 193.493 90.9147 193.856 90.232C194.218 89.5387 194.73 89.0053 195.392 88.632C196.053 88.2587 196.816 88.072 197.68 88.072C198.501 88.072 199.226 88.2533 199.856 88.616C200.485 88.9787 200.976 89.4747 201.328 90.104C201.68 90.7333 201.856 91.448 201.856 92.248ZM200.336 92.056C200.336 91.4907 200.213 91 199.968 90.584C199.722 90.1573 199.386 89.832 198.96 89.608C198.544 89.384 198.08 89.272 197.568 89.272C196.81 89.272 196.176 89.5227 195.664 90.024C195.152 90.5147 194.869 91.192 194.816 92.056H200.336ZM207.525 88.072C208.357 88.072 209.109 88.2587 209.781 88.632C210.453 89.0053 210.981 89.5387 211.365 90.232C211.759 90.9253 211.957 91.72 211.957 92.616C211.957 93.5013 211.754 94.2907 211.349 94.984C210.943 95.6667 210.394 96.2 209.701 96.584C209.007 96.9573 208.239 97.144 207.397 97.144C206.575 97.144 205.834 96.9573 205.173 96.584C204.522 96.2107 204.01 95.6827 203.637 95C203.274 94.3067 203.093 93.512 203.093 92.616C203.093 91.7093 203.285 90.9147 203.669 90.232C204.063 89.5387 204.597 89.0053 205.269 88.632C205.941 88.2587 206.693 88.072 207.525 88.072ZM207.477 89.272C206.943 89.272 206.458 89.4 206.021 89.656C205.583 89.912 205.231 90.2907 204.965 90.792C204.709 91.2933 204.581 91.9013 204.581 92.616C204.581 93.32 204.703 93.9227 204.949 94.424C205.205 94.9253 205.546 95.304 205.973 95.56C206.399 95.816 206.874 95.944 207.397 95.944C207.93 95.944 208.426 95.816 208.885 95.56C209.354 95.2933 209.733 94.9093 210.021 94.408C210.309 93.9067 210.453 93.3093 210.453 92.616C210.453 91.912 210.314 91.3093 210.037 90.808C209.77 90.296 209.407 89.912 208.949 89.656C208.501 89.4 208.01 89.272 207.477 89.272ZM216.802 88.072C217.751 88.072 218.503 88.3227 219.058 88.824C219.613 89.3147 219.917 89.992 219.97 90.856H218.466C218.445 90.3653 218.279 89.9707 217.97 89.672C217.661 89.3733 217.234 89.224 216.69 89.224C216.135 89.224 215.698 89.3573 215.378 89.624C215.069 89.88 214.914 90.2053 214.914 90.6C214.914 90.9307 215.01 91.1973 215.202 91.4C215.405 91.592 215.65 91.736 215.938 91.832C216.237 91.928 216.637 92.0293 217.138 92.136C217.778 92.2853 218.29 92.4347 218.674 92.584C219.069 92.7227 219.405 92.9627 219.682 93.304C219.959 93.6347 220.098 94.088 220.098 94.664C220.098 95.144 219.959 95.576 219.682 95.96C219.405 96.3333 219.015 96.6267 218.514 96.84C218.013 97.0427 217.437 97.144 216.786 97.144C215.805 97.144 215.015 96.8987 214.418 96.408C213.831 95.9173 213.511 95.24 213.458 94.376H214.962C214.983 94.8667 215.154 95.2613 215.474 95.56C215.805 95.848 216.242 95.992 216.786 95.992C217.383 95.992 217.842 95.8693 218.162 95.624C218.493 95.3787 218.658 95.0533 218.658 94.648C218.658 94.3173 218.557 94.056 218.354 93.864C218.162 93.6613 217.917 93.512 217.618 93.416C217.319 93.3093 216.909 93.1973 216.386 93.08C215.757 92.9413 215.245 92.8027 214.85 92.664C214.466 92.5147 214.135 92.2853 213.858 91.976C213.591 91.6667 213.458 91.24 213.458 90.696C213.458 90.216 213.591 89.7787 213.858 89.384C214.135 88.9787 214.525 88.6587 215.026 88.424C215.538 88.1893 216.13 88.072 216.802 88.072Z" fill="black"/>
<path d="M56.656 176.424V181H55.2V169.912H58.8C59.632 169.912 60.336 170.056 60.912 170.344C61.488 170.621 61.92 171.011 62.208 171.512C62.496 172.003 62.64 172.557 62.64 173.176C62.64 174.115 62.32 174.893 61.68 175.512C61.0507 176.12 60.0907 176.424 58.8 176.424H56.656ZM58.8 175.272C59.6 175.272 60.192 175.091 60.576 174.728C60.9707 174.355 61.168 173.837 61.168 173.176C61.168 172.515 60.976 172.003 60.592 171.64C60.208 171.267 59.6107 171.08 58.8 171.08H56.656V175.272H58.8ZM65.906 173.704C66.4287 172.616 67.3193 172.072 68.578 172.072V173.592H68.194C67.4473 173.592 66.8767 173.789 66.482 174.184C66.098 174.568 65.906 175.24 65.906 176.2V181H64.45V172.216H65.906V173.704ZM74.1966 172.072C75.0286 172.072 75.7806 172.259 76.4526 172.632C77.1246 173.005 77.6526 173.539 78.0366 174.232C78.4313 174.925 78.6286 175.72 78.6286 176.616C78.6286 177.501 78.426 178.291 78.0206 178.984C77.6153 179.667 77.066 180.2 76.3726 180.584C75.6793 180.957 74.9113 181.144 74.0686 181.144C73.2473 181.144 72.506 180.957 71.8446 180.584C71.194 180.211 70.682 179.683 70.3086 179C69.946 178.307 69.7646 177.512 69.7646 176.616C69.7646 175.709 69.9566 174.915 70.3406 174.232C70.7353 173.539 71.2686 173.005 71.9406 172.632C72.6126 172.259 73.3646 172.072 74.1966 172.072ZM74.1486 173.272C73.6153 173.272 73.13 173.4 72.6926 173.656C72.2553 173.912 71.9033 174.291 71.6366 174.792C71.3806 175.293 71.2526 175.901 71.2526 176.616C71.2526 177.32 71.3753 177.923 71.6206 178.424C71.8766 178.925 72.218 179.304 72.6446 179.56C73.0713 179.816 73.546 179.944 74.0686 179.944C74.602 179.944 75.098 179.816 75.5566 179.56C76.026 179.293 76.4046 178.909 76.6926 178.408C76.9806 177.907 77.1246 177.309 77.1246 176.616C77.1246 175.912 76.986 175.309 76.7086 174.808C76.442 174.296 76.0793 173.912 75.6206 173.656C75.1726 173.4 74.682 173.272 74.1486 173.272ZM84.066 173.4H82.226V181H80.754V173.4H79.618V172.216H80.754V171.48C80.754 170.52 81.01 169.821 81.522 169.384C82.034 168.947 82.8393 168.728 83.938 168.728V169.912C83.298 169.912 82.85 170.035 82.594 170.28C82.3487 170.515 82.226 170.915 82.226 171.48V172.216H84.066V173.4ZM93.6993 176.248C93.6993 176.557 93.6779 176.845 93.6353 177.112H86.6432C86.6859 177.987 86.9579 178.68 87.4593 179.192C87.9713 179.693 88.6219 179.944 89.4113 179.944C90.0086 179.944 90.5099 179.811 90.9153 179.544C91.3313 179.277 91.6353 178.925 91.8273 178.488H93.3953C93.1179 179.256 92.6379 179.891 91.9553 180.392C91.2833 180.893 90.4353 181.144 89.4113 181.144C88.5899 181.144 87.8539 180.957 87.2033 180.584C86.5633 180.211 86.0619 179.683 85.6993 179C85.3366 178.307 85.1553 177.512 85.1553 176.616C85.1553 175.709 85.3366 174.915 85.6993 174.232C86.0619 173.539 86.5739 173.005 87.2353 172.632C87.8966 172.259 88.6593 172.072 89.5233 172.072C90.3446 172.072 91.0699 172.253 91.6993 172.616C92.3286 172.979 92.8193 173.475 93.1713 174.104C93.5233 174.733 93.6993 175.448 93.6993 176.248ZM92.1793 176.056C92.1793 175.491 92.0566 175 91.8113 174.584C91.5659 174.157 91.2299 173.832 90.8033 173.608C90.3873 173.384 89.9233 173.272 89.4113 173.272C88.6539 173.272 88.0193 173.523 87.5073 174.024C86.9953 174.515 86.7126 175.192 86.6593 176.056H92.1793ZM98.5365 172.072C99.4858 172.072 100.238 172.323 100.793 172.824C101.347 173.315 101.651 173.992 101.705 174.856H100.201C100.179 174.365 100.014 173.971 99.7045 173.672C99.3952 173.373 98.9685 173.224 98.4245 173.224C97.8698 173.224 97.4325 173.357 97.1125 173.624C96.8032 173.88 96.6485 174.205 96.6485 174.6C96.6485 174.931 96.7445 175.197 96.9365 175.4C97.1392 175.592 97.3845 175.736 97.6725 175.832C97.9712 175.928 98.3712 176.029 98.8725 176.136C99.5125 176.285 100.025 176.435 100.409 176.584C100.803 176.723 101.139 176.963 101.417 177.304C101.694 177.635 101.833 178.088 101.833 178.664C101.833 179.144 101.694 179.576 101.417 179.96C101.139 180.333 100.75 180.627 100.249 180.84C99.7472 181.043 99.1712 181.144 98.5205 181.144C97.5392 181.144 96.7498 180.899 96.1525 180.408C95.5658 179.917 95.2458 179.24 95.1925 178.376H96.6965C96.7178 178.867 96.8885 179.261 97.2085 179.56C97.5392 179.848 97.9765 179.992 98.5205 179.992C99.1178 179.992 99.5765 179.869 99.8965 179.624C100.227 179.379 100.393 179.053 100.393 178.648C100.393 178.317 100.291 178.056 100.089 177.864C99.8965 177.661 99.6512 177.512 99.3525 177.416C99.0538 177.309 98.6432 177.197 98.1205 177.08C97.4912 176.941 96.9792 176.803 96.5845 176.664C96.2005 176.515 95.8698 176.285 95.5925 175.976C95.3258 175.667 95.1925 175.24 95.1925 174.696C95.1925 174.216 95.3258 173.779 95.5925 173.384C95.8698 172.979 96.2592 172.659 96.7605 172.424C97.2725 172.189 97.8645 172.072 98.5365 172.072ZM106.958 172.072C107.908 172.072 108.66 172.323 109.214 172.824C109.769 173.315 110.073 173.992 110.126 174.856H108.622C108.601 174.365 108.436 173.971 108.126 173.672C107.817 173.373 107.39 173.224 106.846 173.224C106.292 173.224 105.854 173.357 105.534 173.624C105.225 173.88 105.07 174.205 105.07 174.6C105.07 174.931 105.166 175.197 105.358 175.4C105.561 175.592 105.806 175.736 106.094 175.832C106.393 175.928 106.793 176.029 107.294 176.136C107.934 176.285 108.446 176.435 108.83 176.584C109.225 176.723 109.561 176.963 109.838 177.304C110.116 177.635 110.254 178.088 110.254 178.664C110.254 179.144 110.116 179.576 109.838 179.96C109.561 180.333 109.172 180.627 108.67 180.84C108.169 181.043 107.593 181.144 106.942 181.144C105.961 181.144 105.172 180.899 104.574 180.408C103.988 179.917 103.668 179.24 103.614 178.376H105.118C105.14 178.867 105.31 179.261 105.63 179.56C105.961 179.848 106.398 179.992 106.942 179.992C107.54 179.992 107.998 179.869 108.318 179.624C108.649 179.379 108.814 179.053 108.814 178.648C108.814 178.317 108.713 178.056 108.51 177.864C108.318 177.661 108.073 177.512 107.774 177.416C107.476 177.309 107.065 177.197 106.542 177.08C105.913 176.941 105.401 176.803 105.006 176.664C104.622 176.515 104.292 176.285 104.014 175.976C103.748 175.667 103.614 175.24 103.614 174.696C103.614 174.216 103.748 173.779 104.014 173.384C104.292 172.979 104.681 172.659 105.182 172.424C105.694 172.189 106.286 172.072 106.958 172.072ZM112.116 169.816C112.116 169.539 112.212 169.304 112.404 169.112C112.596 168.92 112.826 168.824 113.092 168.824C113.37 168.824 113.604 168.92 113.796 169.112C113.988 169.304 114.084 169.539 114.084 169.816C114.084 170.093 113.988 170.328 113.796 170.52C113.604 170.712 113.37 170.808 113.092 170.808C112.815 170.808 112.58 170.712 112.388 170.52C112.207 170.328 112.116 170.093 112.116 169.816ZM113.812 172.216V181H112.356V172.216H113.812ZM120.072 172.072C120.904 172.072 121.656 172.259 122.328 172.632C123 173.005 123.528 173.539 123.912 174.232C124.306 174.925 124.504 175.72 124.504 176.616C124.504 177.501 124.301 178.291 123.896 178.984C123.49 179.667 122.941 180.2 122.248 180.584C121.554 180.957 120.786 181.144 119.944 181.144C119.122 181.144 118.381 180.957 117.72 180.584C117.069 180.211 116.557 179.683 116.184 179C115.821 178.307 115.64 177.512 115.64 176.616C115.64 175.709 115.832 174.915 116.216 174.232C116.61 173.539 117.144 173.005 117.816 172.632C118.488 172.259 119.24 172.072 120.072 172.072ZM120.024 173.272C119.49 173.272 119.005 173.4 118.568 173.656C118.13 173.912 117.778 174.291 117.512 174.792C117.256 175.293 117.128 175.901 117.128 176.616C117.128 177.32 117.25 177.923 117.496 178.424C117.752 178.925 118.093 179.304 118.52 179.56C118.946 179.816 119.421 179.944 119.944 179.944C120.477 179.944 120.973 179.816 121.432 179.56C121.901 179.293 122.28 178.909 122.568 178.408C122.856 177.907 123 177.309 123 176.616C123 175.912 122.861 175.309 122.584 174.808C122.317 174.296 121.954 173.912 121.496 173.656C121.048 173.4 120.557 173.272 120.024 173.272ZM130.645 172.072C131.274 172.072 131.845 172.216 132.357 172.504C132.88 172.781 133.29 173.203 133.589 173.768C133.898 174.323 134.053 175 134.053 175.8V181H132.613V176.04C132.613 175.155 132.4 174.483 131.973 174.024C131.546 173.565 130.954 173.336 130.197 173.336C129.45 173.336 128.858 173.565 128.421 174.024C127.994 174.483 127.781 175.155 127.781 176.04V181H126.325V172.216H127.781V173.64C128.069 173.128 128.464 172.739 128.965 172.472C129.466 172.205 130.026 172.072 130.645 172.072ZM139.988 172.072C140.735 172.072 141.385 172.248 141.94 172.6C142.505 172.952 142.932 173.411 143.22 173.976V172.216H144.692V181H143.22V179.208C142.932 179.784 142.505 180.253 141.94 180.616C141.385 180.968 140.735 181.144 139.988 181.144C139.199 181.144 138.484 180.952 137.844 180.568C137.215 180.173 136.713 179.629 136.34 178.936C135.977 178.232 135.796 177.437 135.796 176.552C135.796 175.667 135.977 174.888 136.34 174.216C136.713 173.533 137.215 173.005 137.844 172.632C138.484 172.259 139.199 172.072 139.988 172.072ZM140.244 173.336C139.721 173.336 139.231 173.464 138.772 173.72C138.324 173.976 137.961 174.349 137.684 174.84C137.417 175.32 137.284 175.891 137.284 176.552C137.284 177.213 137.417 177.8 137.684 178.312C137.961 178.813 138.324 179.203 138.772 179.48C139.231 179.757 139.721 179.896 140.244 179.896C140.777 179.896 141.268 179.763 141.716 179.496C142.175 179.229 142.537 178.851 142.804 178.36C143.081 177.859 143.22 177.277 143.22 176.616C143.22 175.955 143.081 175.379 142.804 174.888C142.537 174.387 142.175 174.003 141.716 173.736C141.268 173.469 140.777 173.336 140.244 173.336ZM148.547 169.16V181H147.091V169.16H148.547ZM157.203 171.064V174.84H161.139V175.976H157.203V179.848H161.619V181H155.747V169.912H161.619V171.064H157.203ZM167.441 172.072C168.188 172.072 168.838 172.248 169.393 172.6C169.958 172.952 170.385 173.411 170.673 173.976V169.16H172.145V181H170.673V179.208C170.385 179.784 169.958 180.253 169.393 180.616C168.838 180.968 168.188 181.144 167.441 181.144C166.652 181.144 165.937 180.952 165.297 180.568C164.668 180.173 164.166 179.629 163.793 178.936C163.43 178.232 163.249 177.437 163.249 176.552C163.249 175.667 163.43 174.888 163.793 174.216C164.166 173.533 164.668 173.005 165.297 172.632C165.937 172.259 166.652 172.072 167.441 172.072ZM167.697 173.336C167.174 173.336 166.684 173.464 166.225 173.72C165.777 173.976 165.414 174.349 165.137 174.84C164.87 175.32 164.737 175.891 164.737 176.552C164.737 177.213 164.87 177.8 165.137 178.312C165.414 178.813 165.777 179.203 166.225 179.48C166.684 179.757 167.174 179.896 167.697 179.896C168.23 179.896 168.721 179.763 169.169 179.496C169.628 179.229 169.99 178.851 170.257 178.36C170.534 177.859 170.673 177.277 170.673 176.616C170.673 175.955 170.534 175.379 170.257 174.888C169.99 174.387 169.628 174.003 169.169 173.736C168.721 173.469 168.23 173.336 167.697 173.336ZM174.304 169.816C174.304 169.539 174.4 169.304 174.592 169.112C174.784 168.92 175.013 168.824 175.28 168.824C175.557 168.824 175.792 168.92 175.984 169.112C176.176 169.304 176.272 169.539 176.272 169.816C176.272 170.093 176.176 170.328 175.984 170.52C175.792 170.712 175.557 170.808 175.28 170.808C175.002 170.808 174.768 170.712 174.576 170.52C174.394 170.328 174.304 170.093 174.304 169.816ZM176 172.216V181H174.544V172.216H176ZM182.483 179.816V181H181.011C180.264 181 179.694 180.819 179.299 180.456C178.915 180.093 178.723 179.523 178.723 178.744V173.4H177.587V172.216H178.723V170.04H180.195V172.216H182.467V173.4H180.195V178.744C180.195 179.139 180.275 179.416 180.435 179.576C180.595 179.736 180.878 179.816 181.283 179.816H182.483ZM183.851 169.816C183.851 169.539 183.947 169.304 184.139 169.112C184.331 168.92 184.56 168.824 184.827 168.824C185.104 168.824 185.339 168.92 185.531 169.112C185.723 169.304 185.819 169.539 185.819 169.816C185.819 170.093 185.723 170.328 185.531 170.52C185.339 170.712 185.104 170.808 184.827 170.808C184.549 170.808 184.315 170.712 184.123 170.52C183.941 170.328 183.851 170.093 183.851 169.816ZM185.547 172.216V181H184.091V172.216H185.547ZM192.27 172.072C192.899 172.072 193.47 172.216 193.982 172.504C194.505 172.781 194.915 173.203 195.214 173.768C195.523 174.323 195.678 175 195.678 175.8V181H194.238V176.04C194.238 175.155 194.025 174.483 193.598 174.024C193.171 173.565 192.579 173.336 191.822 173.336C191.075 173.336 190.483 173.565 190.046 174.024C189.619 174.483 189.406 175.155 189.406 176.04V181H187.95V172.216H189.406V173.64C189.694 173.128 190.089 172.739 190.59 172.472C191.091 172.205 191.651 172.072 192.27 172.072ZM201.613 172.072C202.36 172.072 203.01 172.248 203.565 172.6C204.13 172.952 204.557 173.411 204.845 173.976V172.216H206.317V181.224C206.317 182.024 206.141 182.733 205.789 183.352C205.437 183.971 204.941 184.451 204.301 184.792C203.661 185.144 202.92 185.32 202.077 185.32C201.341 185.32 200.669 185.192 200.061 184.936C199.453 184.691 198.957 184.339 198.573 183.88C198.189 183.421 197.96 182.899 197.885 182.312H199.309C199.448 182.813 199.773 183.229 200.285 183.56C200.797 183.891 201.394 184.056 202.077 184.056C202.909 184.056 203.576 183.805 204.077 183.304C204.589 182.813 204.845 182.12 204.845 181.224V179.208C204.557 179.784 204.13 180.253 203.565 180.616C203.01 180.968 202.36 181.144 201.613 181.144C200.824 181.144 200.109 180.952 199.469 180.568C198.84 180.173 198.338 179.629 197.965 178.936C197.602 178.232 197.421 177.437 197.421 176.552C197.421 175.667 197.602 174.888 197.965 174.216C198.338 173.533 198.84 173.005 199.469 172.632C200.109 172.259 200.824 172.072 201.613 172.072ZM201.869 173.336C201.346 173.336 200.856 173.464 200.397 173.72C199.949 173.976 199.586 174.349 199.309 174.84C199.042 175.32 198.909 175.891 198.909 176.552C198.909 177.213 199.042 177.8 199.309 178.312C199.586 178.813 199.949 179.203 200.397 179.48C200.856 179.757 201.346 179.896 201.869 179.896C202.402 179.896 202.893 179.763 203.341 179.496C203.8 179.229 204.162 178.851 204.429 178.36C204.706 177.859 204.845 177.277 204.845 176.616C204.845 175.955 204.706 175.379 204.429 174.888C204.162 174.387 203.8 174.003 203.341 173.736C202.893 173.469 202.402 173.336 201.869 173.336Z" fill="black"/>
<path d="M63.592 255.304C64.3067 255.421 64.8827 255.741 65.32 256.264C65.7573 256.787 65.976 257.389 65.976 258.072C65.976 258.616 65.8267 259.112 65.528 259.56C65.24 260.008 64.8187 260.36 64.264 260.616C63.72 260.872 63.0853 261 62.36 261H58.2V249.912H62.168C62.9253 249.912 63.5707 250.04 64.104 250.296C64.6373 250.552 65.0373 250.904 65.304 251.352C65.5813 251.789 65.72 252.291 65.72 252.856C65.72 253.475 65.5333 253.992 65.16 254.408C64.7867 254.813 64.264 255.112 63.592 255.304ZM59.656 254.728H62.104C62.776 254.728 63.2987 254.568 63.672 254.248C64.056 253.917 64.248 253.475 64.248 252.92C64.248 252.355 64.056 251.907 63.672 251.576C63.2987 251.245 62.776 251.08 62.104 251.08H59.656V254.728ZM62.28 259.848C62.984 259.848 63.5333 259.672 63.928 259.32C64.3333 258.968 64.536 258.483 64.536 257.864C64.536 257.256 64.3173 256.776 63.88 256.424C63.4533 256.072 62.8827 255.896 62.168 255.896H59.656V259.848H62.28ZM71.6129 252.072C72.3595 252.072 73.0102 252.248 73.5649 252.6C74.1302 252.952 74.5569 253.411 74.8449 253.976V252.216H76.3169V261H74.8449V259.208C74.5569 259.784 74.1302 260.253 73.5649 260.616C73.0102 260.968 72.3595 261.144 71.6129 261.144C70.8235 261.144 70.1089 260.952 69.4689 260.568C68.8395 260.173 68.3382 259.629 67.9649 258.936C67.6022 258.232 67.4209 257.437 67.4209 256.552C67.4209 255.667 67.6022 254.888 67.9649 254.216C68.3382 253.533 68.8395 253.005 69.4689 252.632C70.1089 252.259 70.8235 252.072 71.6129 252.072ZM71.8689 253.336C71.3462 253.336 70.8555 253.464 70.3969 253.72C69.9489 253.976 69.5862 254.349 69.3089 254.84C69.0422 255.32 68.9089 255.891 68.9089 256.552C68.9089 257.213 69.0422 257.8 69.3089 258.312C69.5862 258.813 69.9489 259.203 70.3969 259.48C70.8555 259.757 71.3462 259.896 71.8689 259.896C72.4022 259.896 72.8929 259.763 73.3409 259.496C73.7995 259.229 74.1622 258.851 74.4289 258.36C74.7062 257.859 74.8449 257.277 74.8449 256.616C74.8449 255.955 74.7062 255.379 74.4289 254.888C74.1622 254.387 73.7995 254.003 73.3409 253.736C72.8929 253.469 72.4022 253.336 71.8689 253.336ZM82.3956 252.072C83.4516 252.072 84.3103 252.317 84.9716 252.808C85.6436 253.299 86.113 253.997 86.3796 254.904H84.8116C84.641 254.392 84.3476 253.992 83.9316 253.704C83.5156 253.416 83.0036 253.272 82.3956 253.272C81.5636 253.272 80.8916 253.565 80.3796 254.152C79.8783 254.728 79.6276 255.549 79.6276 256.616C79.6276 257.672 79.8783 258.493 80.3796 259.08C80.8916 259.656 81.5636 259.944 82.3956 259.944C83.0143 259.944 83.5263 259.805 83.9316 259.528C84.337 259.251 84.6303 258.845 84.8116 258.312H86.3796C86.113 259.176 85.6383 259.864 84.9556 260.376C84.2836 260.888 83.4303 261.144 82.3956 261.144C81.5743 261.144 80.8383 260.957 80.1876 260.584C79.5476 260.211 79.0463 259.683 78.6836 259C78.321 258.307 78.1396 257.512 78.1396 256.616C78.1396 255.709 78.321 254.915 78.6836 254.232C79.0463 253.539 79.5476 253.005 80.1876 252.632C80.8276 252.259 81.5636 252.072 82.3956 252.072ZM91.0294 256.584L95.1734 261H93.2054L89.7654 257.144V261H88.3094V249.16H89.7654V256.104L93.1254 252.216H95.1734L91.0294 256.584ZM100.129 252.072C100.875 252.072 101.526 252.248 102.081 252.6C102.646 252.952 103.073 253.411 103.361 253.976V252.216H104.833V261.224C104.833 262.024 104.657 262.733 104.305 263.352C103.953 263.971 103.457 264.451 102.817 264.792C102.177 265.144 101.435 265.32 100.593 265.32C99.8565 265.32 99.1845 265.192 98.5765 264.936C97.9685 264.691 97.4725 264.339 97.0885 263.88C96.7045 263.421 96.4752 262.899 96.4005 262.312H97.8245C97.9632 262.813 98.2885 263.229 98.8005 263.56C99.3125 263.891 99.9098 264.056 100.593 264.056C101.425 264.056 102.091 263.805 102.593 263.304C103.105 262.813 103.361 262.12 103.361 261.224V259.208C103.073 259.784 102.646 260.253 102.081 260.616C101.526 260.968 100.875 261.144 100.129 261.144C99.3392 261.144 98.6245 260.952 97.9845 260.568C97.3552 260.173 96.8538 259.629 96.4805 258.936C96.1178 258.232 95.9365 257.437 95.9365 256.552C95.9365 255.667 96.1178 254.888 96.4805 254.216C96.8538 253.533 97.3552 253.005 97.9845 252.632C98.6245 252.259 99.3392 252.072 100.129 252.072ZM100.385 253.336C99.8618 253.336 99.3712 253.464 98.9125 253.72C98.4645 253.976 98.1018 254.349 97.8245 254.84C97.5578 255.32 97.4245 255.891 97.4245 256.552C97.4245 257.213 97.5578 257.8 97.8245 258.312C98.1018 258.813 98.4645 259.203 98.9125 259.48C99.3712 259.757 99.8618 259.896 100.385 259.896C100.918 259.896 101.409 259.763 101.857 259.496C102.315 259.229 102.678 258.851 102.945 258.36C103.222 257.859 103.361 257.277 103.361 256.616C103.361 255.955 103.222 255.379 102.945 254.888C102.678 254.387 102.315 254.003 101.857 253.736C101.409 253.469 100.918 253.336 100.385 253.336ZM108.687 253.704C109.21 252.616 110.101 252.072 111.359 252.072V253.592H110.975C110.229 253.592 109.658 253.789 109.263 254.184C108.879 254.568 108.687 255.24 108.687 256.2V261H107.231V252.216H108.687V253.704ZM116.978 252.072C117.81 252.072 118.562 252.259 119.234 252.632C119.906 253.005 120.434 253.539 120.818 254.232C121.213 254.925 121.41 255.72 121.41 256.616C121.41 257.501 121.207 258.291 120.802 258.984C120.397 259.667 119.847 260.2 119.154 260.584C118.461 260.957 117.693 261.144 116.85 261.144C116.029 261.144 115.287 260.957 114.626 260.584C113.975 260.211 113.463 259.683 113.09 259C112.727 258.307 112.546 257.512 112.546 256.616C112.546 255.709 112.738 254.915 113.122 254.232C113.517 253.539 114.05 253.005 114.722 252.632C115.394 252.259 116.146 252.072 116.978 252.072ZM116.93 253.272C116.397 253.272 115.911 253.4 115.474 253.656C115.037 253.912 114.685 254.291 114.418 254.792C114.162 255.293 114.034 255.901 114.034 256.616C114.034 257.32 114.157 257.923 114.402 258.424C114.658 258.925 114.999 259.304 115.426 259.56C115.853 259.816 116.327 259.944 116.85 259.944C117.383 259.944 117.879 259.816 118.338 259.56C118.807 259.293 119.186 258.909 119.474 258.408C119.762 257.907 119.906 257.309 119.906 256.616C119.906 255.912 119.767 255.309 119.49 254.808C119.223 254.296 118.861 253.912 118.402 253.656C117.954 253.4 117.463 253.272 116.93 253.272ZM130.879 252.216V261H129.423V259.592C129.135 260.104 128.741 260.493 128.239 260.76C127.738 261.016 127.178 261.144 126.559 261.144C125.93 261.144 125.354 261.005 124.831 260.728C124.319 260.44 123.909 260.019 123.599 259.464C123.301 258.909 123.151 258.232 123.151 257.432V252.216H124.591V257.192C124.591 258.067 124.805 258.739 125.231 259.208C125.669 259.667 126.261 259.896 127.007 259.896C127.754 259.896 128.341 259.667 128.767 259.208C129.205 258.739 129.423 258.067 129.423 257.192V252.216H130.879ZM137.598 252.072C138.227 252.072 138.798 252.216 139.31 252.504C139.833 252.781 140.243 253.203 140.542 253.768C140.851 254.323 141.006 255 141.006 255.8V261H139.566V256.04C139.566 255.155 139.353 254.483 138.926 254.024C138.499 253.565 137.907 253.336 137.15 253.336C136.403 253.336 135.811 253.565 135.374 254.024C134.947 254.483 134.734 255.155 134.734 256.04V261H133.278V252.216H134.734V253.64C135.022 253.128 135.417 252.739 135.918 252.472C136.419 252.205 136.979 252.072 137.598 252.072ZM146.941 252.072C147.688 252.072 148.338 252.248 148.893 252.6C149.458 252.952 149.885 253.411 150.173 253.976V249.16H151.645V261H150.173V259.208C149.885 259.784 149.458 260.253 148.893 260.616C148.338 260.968 147.688 261.144 146.941 261.144C146.152 261.144 145.437 260.952 144.797 260.568C144.168 260.173 143.666 259.629 143.293 258.936C142.93 258.232 142.749 257.437 142.749 256.552C142.749 255.667 142.93 254.888 143.293 254.216C143.666 253.533 144.168 253.005 144.797 252.632C145.437 252.259 146.152 252.072 146.941 252.072ZM147.197 253.336C146.674 253.336 146.184 253.464 145.725 253.72C145.277 253.976 144.914 254.349 144.637 254.84C144.37 255.32 144.237 255.891 144.237 256.552C144.237 257.213 144.37 257.8 144.637 258.312C144.914 258.813 145.277 259.203 145.725 259.48C146.184 259.757 146.674 259.896 147.197 259.896C147.73 259.896 148.221 259.763 148.669 259.496C149.128 259.229 149.49 258.851 149.757 258.36C150.034 257.859 150.173 257.277 150.173 256.616C150.173 255.955 150.034 255.379 149.757 254.888C149.49 254.387 149.128 254.003 148.669 253.736C148.221 253.469 147.73 253.336 147.197 253.336ZM170.153 249.912V261H168.681V252.92L164.969 261H164.025L160.297 252.92V261H158.841V249.912H160.329L164.505 259L168.665 249.912H170.153ZM180.207 252.216V261H178.751V259.592C178.463 260.104 178.069 260.493 177.567 260.76C177.066 261.016 176.506 261.144 175.887 261.144C175.258 261.144 174.682 261.005 174.159 260.728C173.647 260.44 173.237 260.019 172.927 259.464C172.629 258.909 172.479 258.232 172.479 257.432V252.216H173.919V257.192C173.919 258.067 174.133 258.739 174.559 259.208C174.997 259.667 175.589 259.896 176.335 259.896C177.082 259.896 177.669 259.667 178.095 259.208C178.533 258.739 178.751 258.067 178.751 257.192V252.216H180.207ZM185.63 252.072C186.58 252.072 187.332 252.323 187.886 252.824C188.441 253.315 188.745 253.992 188.798 254.856H187.294C187.273 254.365 187.108 253.971 186.798 253.672C186.489 253.373 186.062 253.224 185.518 253.224C184.964 253.224 184.526 253.357 184.206 253.624C183.897 253.88 183.742 254.205 183.742 254.6C183.742 254.931 183.838 255.197 184.03 255.4C184.233 255.592 184.478 255.736 184.766 255.832C185.065 255.928 185.465 256.029 185.966 256.136C186.606 256.285 187.118 256.435 187.502 256.584C187.897 256.723 188.233 256.963 188.51 257.304C188.788 257.635 188.926 258.088 188.926 258.664C188.926 259.144 188.788 259.576 188.51 259.96C188.233 260.333 187.844 260.627 187.342 260.84C186.841 261.043 186.265 261.144 185.614 261.144C184.633 261.144 183.844 260.899 183.246 260.408C182.66 259.917 182.34 259.24 182.286 258.376H183.79C183.812 258.867 183.982 259.261 184.302 259.56C184.633 259.848 185.07 259.992 185.614 259.992C186.212 259.992 186.67 259.869 186.99 259.624C187.321 259.379 187.486 259.053 187.486 258.648C187.486 258.317 187.385 258.056 187.182 257.864C186.99 257.661 186.745 257.512 186.446 257.416C186.148 257.309 185.737 257.197 185.214 257.08C184.585 256.941 184.073 256.803 183.678 256.664C183.294 256.515 182.964 256.285 182.686 255.976C182.42 255.667 182.286 255.24 182.286 254.696C182.286 254.216 182.42 253.779 182.686 253.384C182.964 252.979 183.353 252.659 183.854 252.424C184.366 252.189 184.958 252.072 185.63 252.072ZM190.788 249.816C190.788 249.539 190.884 249.304 191.076 249.112C191.268 248.92 191.497 248.824 191.764 248.824C192.041 248.824 192.276 248.92 192.468 249.112C192.66 249.304 192.756 249.539 192.756 249.816C192.756 250.093 192.66 250.328 192.468 250.52C192.276 250.712 192.041 250.808 191.764 250.808C191.487 250.808 191.252 250.712 191.06 250.52C190.879 250.328 190.788 250.093 190.788 249.816ZM192.484 252.216V261H191.028V252.216H192.484ZM198.568 252.072C199.624 252.072 200.482 252.317 201.144 252.808C201.816 253.299 202.285 253.997 202.552 254.904H200.984C200.813 254.392 200.52 253.992 200.104 253.704C199.688 253.416 199.176 253.272 198.568 253.272C197.736 253.272 197.064 253.565 196.552 254.152C196.05 254.728 195.799 255.549 195.799 256.616C195.799 257.672 196.05 258.493 196.552 259.08C197.064 259.656 197.736 259.944 198.568 259.944C199.186 259.944 199.698 259.805 200.104 259.528C200.509 259.251 200.802 258.845 200.984 258.312H202.552C202.285 259.176 201.81 259.864 201.128 260.376C200.456 260.888 199.602 261.144 198.568 261.144C197.746 261.144 197.01 260.957 196.36 260.584C195.72 260.211 195.218 259.683 194.856 259C194.493 258.307 194.312 257.512 194.312 256.616C194.312 255.709 194.493 254.915 194.856 254.232C195.218 253.539 195.72 253.005 196.36 252.632C197 252.259 197.736 252.072 198.568 252.072Z" fill="black"/>
<path d="M58.936 325.912L62.424 335.448L65.944 325.912H67.496L63.224 337H61.656L57.384 325.912H58.936ZM72.931 328.072C73.763 328.072 74.515 328.259 75.187 328.632C75.859 329.005 76.387 329.539 76.771 330.232C77.1657 330.925 77.363 331.72 77.363 332.616C77.363 333.501 77.1603 334.291 76.755 334.984C76.3497 335.667 75.8003 336.2 75.107 336.584C74.4137 336.957 73.6457 337.144 72.803 337.144C71.9817 337.144 71.2403 336.957 70.579 336.584C69.9283 336.211 69.4163 335.683 69.043 335C68.6803 334.307 68.499 333.512 68.499 332.616C68.499 331.709 68.691 330.915 69.075 330.232C69.4697 329.539 70.003 329.005 70.675 328.632C71.347 328.259 72.099 328.072 72.931 328.072ZM72.883 329.272C72.3497 329.272 71.8643 329.4 71.427 329.656C70.9897 329.912 70.6377 330.291 70.371 330.792C70.115 331.293 69.987 331.901 69.987 332.616C69.987 333.32 70.1097 333.923 70.355 334.424C70.611 334.925 70.9523 335.304 71.379 335.56C71.8057 335.816 72.2803 335.944 72.803 335.944C73.3363 335.944 73.8323 335.816 74.291 335.56C74.7603 335.293 75.139 334.909 75.427 334.408C75.715 333.907 75.859 333.309 75.859 332.616C75.859 331.912 75.7203 331.309 75.443 330.808C75.1763 330.296 74.8137 329.912 74.355 329.656C73.907 329.4 73.4163 329.272 72.883 329.272ZM78.9444 325.816C78.9444 325.539 79.0404 325.304 79.2324 325.112C79.4244 324.92 79.6537 324.824 79.9204 324.824C80.1977 324.824 80.4324 324.92 80.6244 325.112C80.8164 325.304 80.9124 325.539 80.9124 325.816C80.9124 326.093 80.8164 326.328 80.6244 326.52C80.4324 326.712 80.1977 326.808 79.9204 326.808C79.643 326.808 79.4084 326.712 79.2164 326.52C79.035 326.328 78.9444 326.093 78.9444 325.816ZM80.6404 328.216V337H79.1844V328.216H80.6404ZM86.7238 328.072C87.7798 328.072 88.6384 328.317 89.2998 328.808C89.9718 329.299 90.4411 329.997 90.7078 330.904H89.1398C88.9691 330.392 88.6758 329.992 88.2598 329.704C87.8438 329.416 87.3318 329.272 86.7238 329.272C85.8918 329.272 85.2198 329.565 84.7078 330.152C84.2064 330.728 83.9557 331.549 83.9557 332.616C83.9557 333.672 84.2064 334.493 84.7078 335.08C85.2198 335.656 85.8918 335.944 86.7238 335.944C87.3424 335.944 87.8544 335.805 88.2598 335.528C88.6651 335.251 88.9584 334.845 89.1398 334.312H90.7078C90.4411 335.176 89.9664 335.864 89.2838 336.376C88.6118 336.888 87.7584 337.144 86.7238 337.144C85.9024 337.144 85.1664 336.957 84.5158 336.584C83.8758 336.211 83.3744 335.683 83.0118 335C82.6491 334.307 82.4678 333.512 82.4678 332.616C82.4678 331.709 82.6491 330.915 83.0118 330.232C83.3744 329.539 83.8758 329.005 84.5158 328.632C85.1558 328.259 85.8918 328.072 86.7238 328.072ZM100.606 332.248C100.606 332.557 100.584 332.845 100.542 333.112H93.5495C93.5922 333.987 93.8642 334.68 94.3655 335.192C94.8775 335.693 95.5282 335.944 96.3175 335.944C96.9148 335.944 97.4162 335.811 97.8215 335.544C98.2375 335.277 98.5415 334.925 98.7335 334.488H100.302C100.024 335.256 99.5442 335.891 98.8615 336.392C98.1895 336.893 97.3415 337.144 96.3175 337.144C95.4962 337.144 94.7602 336.957 94.1095 336.584C93.4695 336.211 92.9682 335.683 92.6055 335C92.2428 334.307 92.0615 333.512 92.0615 332.616C92.0615 331.709 92.2428 330.915 92.6055 330.232C92.9682 329.539 93.4802 329.005 94.1415 328.632C94.8028 328.259 95.5655 328.072 96.4295 328.072C97.2508 328.072 97.9762 328.253 98.6055 328.616C99.2348 328.979 99.7255 329.475 100.078 330.104C100.43 330.733 100.606 331.448 100.606 332.248ZM99.0855 332.056C99.0855 331.491 98.9628 331 98.7175 330.584C98.4722 330.157 98.1362 329.832 97.7095 329.608C97.2935 329.384 96.8295 329.272 96.3175 329.272C95.5602 329.272 94.9255 329.523 94.4135 330.024C93.9015 330.515 93.6188 331.192 93.5655 332.056H99.0855ZM112.288 325.8C113.322 325.8 114.266 326.04 115.12 326.52C115.984 327 116.666 327.672 117.168 328.536C117.669 329.389 117.92 330.36 117.92 331.448C117.92 332.525 117.669 333.496 117.168 334.36C116.666 335.224 115.984 335.901 115.12 336.392C114.266 336.872 113.322 337.112 112.288 337.112C111.253 337.112 110.304 336.872 109.44 336.392C108.576 335.901 107.893 335.224 107.392 334.36C106.89 333.496 106.64 332.525 106.64 331.448C106.64 330.36 106.89 329.389 107.392 328.536C107.893 327.672 108.576 327 109.44 326.52C110.304 326.04 111.253 325.8 112.288 325.8ZM112.288 327.096C111.498 327.096 110.784 327.277 110.144 327.64C109.514 327.992 109.018 328.499 108.656 329.16C108.293 329.821 108.112 330.584 108.112 331.448C108.112 332.312 108.293 333.075 108.656 333.736C109.018 334.397 109.514 334.909 110.144 335.272C110.784 335.635 111.498 335.816 112.288 335.816C113.077 335.816 113.786 335.635 114.416 335.272C115.045 334.909 115.536 334.397 115.888 333.736C116.25 333.075 116.432 332.312 116.432 331.448C116.432 330.584 116.25 329.821 115.888 329.16C115.536 328.499 115.045 327.992 114.416 327.64C113.786 327.277 113.077 327.096 112.288 327.096ZM122.963 335.64L125.667 328.216H127.235L123.795 337H122.147L118.723 328.216H120.275L122.963 335.64ZM136.59 332.248C136.59 332.557 136.569 332.845 136.526 333.112H129.534C129.577 333.987 129.849 334.68 130.35 335.192C130.862 335.693 131.513 335.944 132.302 335.944C132.899 335.944 133.401 335.811 133.806 335.544C134.222 335.277 134.526 334.925 134.718 334.488H136.286C136.009 335.256 135.529 335.891 134.846 336.392C134.174 336.893 133.326 337.144 132.302 337.144C131.481 337.144 130.745 336.957 130.094 336.584C129.454 336.211 128.953 335.683 128.59 335C128.227 334.307 128.046 333.512 128.046 332.616C128.046 331.709 128.227 330.915 128.59 330.232C128.953 329.539 129.465 329.005 130.126 328.632C130.787 328.259 131.55 328.072 132.414 328.072C133.235 328.072 133.961 328.253 134.59 328.616C135.219 328.979 135.71 329.475 136.062 330.104C136.414 330.733 136.59 331.448 136.59 332.248ZM135.07 332.056C135.07 331.491 134.947 331 134.702 330.584C134.457 330.157 134.121 329.832 133.694 329.608C133.278 329.384 132.814 329.272 132.302 329.272C131.545 329.272 130.91 329.523 130.398 330.024C129.886 330.515 129.603 331.192 129.55 332.056H135.07ZM139.859 329.704C140.382 328.616 141.272 328.072 142.531 328.072V329.592H142.147C141.4 329.592 140.83 329.789 140.435 330.184C140.051 330.568 139.859 331.24 139.859 332.2V337H138.403V328.216H139.859V329.704ZM150.323 330.552C150.323 329.24 150.499 327.987 150.851 326.792C151.203 325.587 151.693 324.504 152.323 323.544C152.963 322.584 153.704 321.795 154.547 321.176H156.099V321.32C154.627 322.472 153.528 323.859 152.803 325.48C152.088 327.091 151.731 328.781 151.731 330.552C151.731 332.333 152.088 334.035 152.803 335.656C153.528 337.277 154.627 338.659 156.099 339.8V339.944H154.547C153.704 339.325 152.963 338.536 152.323 337.576C151.693 336.616 151.203 335.533 150.851 334.328C150.499 333.123 150.323 331.864 150.323 330.552ZM163.131 325.8C164.166 325.8 165.11 326.04 165.963 326.52C166.827 327 167.51 327.672 168.011 328.536C168.513 329.389 168.763 330.36 168.763 331.448C168.763 332.525 168.513 333.496 168.011 334.36C167.51 335.224 166.827 335.901 165.963 336.392C165.11 336.872 164.166 337.112 163.131 337.112C162.097 337.112 161.147 336.872 160.283 336.392C159.419 335.901 158.737 335.224 158.235 334.36C157.734 333.496 157.483 332.525 157.483 331.448C157.483 330.36 157.734 329.389 158.235 328.536C158.737 327.672 159.419 327 160.283 326.52C161.147 326.04 162.097 325.8 163.131 325.8ZM163.131 327.096C162.342 327.096 161.627 327.277 160.987 327.64C160.358 327.992 159.862 328.499 159.499 329.16C159.137 329.821 158.955 330.584 158.955 331.448C158.955 332.312 159.137 333.075 159.499 333.736C159.862 334.397 160.358 334.909 160.987 335.272C161.627 335.635 162.342 335.816 163.131 335.816C163.921 335.816 164.63 335.635 165.259 335.272C165.889 334.909 166.379 334.397 166.731 333.736C167.094 333.075 167.275 332.312 167.275 331.448C167.275 330.584 167.094 329.821 166.731 329.16C166.379 328.499 165.889 327.992 165.259 327.64C164.63 327.277 163.921 327.096 163.131 327.096ZM175.279 328.072C176.068 328.072 176.778 328.259 177.407 328.632C178.047 329.005 178.548 329.533 178.911 330.216C179.284 330.888 179.471 331.667 179.471 332.552C179.471 333.437 179.284 334.232 178.911 334.936C178.548 335.629 178.047 336.173 177.407 336.568C176.778 336.952 176.068 337.144 175.279 337.144C174.532 337.144 173.876 336.968 173.311 336.616C172.756 336.253 172.33 335.784 172.031 335.208V341.16H170.575V328.216H172.031V329.976C172.33 329.411 172.756 328.952 173.311 328.6C173.876 328.248 174.532 328.072 175.279 328.072ZM174.991 329.336C174.468 329.336 173.978 329.469 173.519 329.736C173.071 330.003 172.708 330.387 172.431 330.888C172.164 331.379 172.031 331.955 172.031 332.616C172.031 333.277 172.164 333.859 172.431 334.36C172.708 334.851 173.071 335.229 173.519 335.496C173.978 335.763 174.468 335.896 174.991 335.896C175.514 335.896 176.004 335.763 176.463 335.496C176.922 335.219 177.284 334.824 177.551 334.312C177.828 333.8 177.967 333.213 177.967 332.552C177.967 331.891 177.828 331.32 177.551 330.84C177.284 330.349 176.922 329.976 176.463 329.72C176.015 329.464 175.524 329.336 174.991 329.336ZM185.374 335.816V337H183.902C183.155 337 182.584 336.819 182.19 336.456C181.806 336.093 181.614 335.523 181.614 334.744V329.4H180.478V328.216H181.614V326.04H183.086V328.216H185.358V329.4H183.086V334.744C183.086 335.139 183.166 335.416 183.326 335.576C183.486 335.736 183.768 335.816 184.174 335.816H185.374ZM186.741 325.816C186.741 325.539 186.837 325.304 187.029 325.112C187.221 324.92 187.451 324.824 187.717 324.824C187.995 324.824 188.229 324.92 188.421 325.112C188.613 325.304 188.709 325.539 188.709 325.816C188.709 326.093 188.613 326.328 188.421 326.52C188.229 326.712 187.995 326.808 187.717 326.808C187.44 326.808 187.205 326.712 187.013 326.52C186.832 326.328 186.741 326.093 186.741 325.816ZM188.437 328.216V337H186.981V328.216H188.437ZM194.697 328.072C195.529 328.072 196.281 328.259 196.953 328.632C197.625 329.005 198.153 329.539 198.537 330.232C198.931 330.925 199.129 331.72 199.129 332.616C199.129 333.501 198.926 334.291 198.521 334.984C198.115 335.667 197.566 336.2 196.873 336.584C196.179 336.957 195.411 337.144 194.569 337.144C193.747 337.144 193.006 336.957 192.345 336.584C191.694 336.211 191.182 335.683 190.809 335C190.446 334.307 190.265 333.512 190.265 332.616C190.265 331.709 190.457 330.915 190.841 330.232C191.235 329.539 191.769 329.005 192.441 328.632C193.113 328.259 193.865 328.072 194.697 328.072ZM194.649 329.272C194.115 329.272 193.63 329.4 193.193 329.656C192.755 329.912 192.403 330.291 192.137 330.792C191.881 331.293 191.753 331.901 191.753 332.616C191.753 333.32 191.875 333.923 192.121 334.424C192.377 334.925 192.718 335.304 193.145 335.56C193.571 335.816 194.046 335.944 194.569 335.944C195.102 335.944 195.598 335.816 196.057 335.56C196.526 335.293 196.905 334.909 197.193 334.408C197.481 333.907 197.625 333.309 197.625 332.616C197.625 331.912 197.486 331.309 197.209 330.808C196.942 330.296 196.579 329.912 196.121 329.656C195.673 329.4 195.182 329.272 194.649 329.272ZM205.27 328.072C205.899 328.072 206.47 328.216 206.982 328.504C207.505 328.781 207.915 329.203 208.214 329.768C208.523 330.323 208.678 331 208.678 331.8V337H207.238V332.04C207.238 331.155 207.025 330.483 206.598 330.024C206.171 329.565 205.579 329.336 204.822 329.336C204.075 329.336 203.483 329.565 203.046 330.024C202.619 330.483 202.406 331.155 202.406 332.04V337H200.95V328.216H202.406V329.64C202.694 329.128 203.089 328.739 203.59 328.472C204.091 328.205 204.651 328.072 205.27 328.072ZM214.613 328.072C215.36 328.072 216.01 328.248 216.565 328.6C217.13 328.952 217.557 329.411 217.845 329.976V328.216H219.317V337H217.845V335.208C217.557 335.784 217.13 336.253 216.565 336.616C216.01 336.968 215.36 337.144 214.613 337.144C213.824 337.144 213.109 336.952 212.469 336.568C211.84 336.173 211.338 335.629 210.965 334.936C210.602 334.232 210.421 333.437 210.421 332.552C210.421 331.667 210.602 330.888 210.965 330.216C211.338 329.533 211.84 329.005 212.469 328.632C213.109 328.259 213.824 328.072 214.613 328.072ZM214.869 329.336C214.346 329.336 213.856 329.464 213.397 329.72C212.949 329.976 212.586 330.349 212.309 330.84C212.042 331.32 211.909 331.891 211.909 332.552C211.909 333.213 212.042 333.8 212.309 334.312C212.586 334.813 212.949 335.203 213.397 335.48C213.856 335.757 214.346 335.896 214.869 335.896C215.402 335.896 215.893 335.763 216.341 335.496C216.8 335.229 217.162 334.851 217.429 334.36C217.706 333.859 217.845 333.277 217.845 332.616C217.845 331.955 217.706 331.379 217.429 330.888C217.162 330.387 216.8 330.003 216.341 329.736C215.893 329.469 215.402 329.336 214.869 329.336ZM223.172 325.16V337H221.716V325.16H223.172ZM241.908 328.216L239.14 337H237.636L235.652 330.024L233.668 337H232.148L229.364 328.216H230.868L232.9 335.544L234.964 328.216H236.468L238.42 335.56L240.436 328.216H241.908ZM243.054 325.816C243.054 325.539 243.15 325.304 243.342 325.112C243.534 324.92 243.763 324.824 244.03 324.824C244.307 324.824 244.542 324.92 244.734 325.112C244.926 325.304 245.022 325.539 245.022 325.816C245.022 326.093 244.926 326.328 244.734 326.52C244.542 326.712 244.307 326.808 244.03 326.808C243.752 326.808 243.518 326.712 243.326 326.52C243.144 326.328 243.054 326.093 243.054 325.816ZM244.75 328.216V337H243.294V328.216H244.75ZM251.233 335.816V337H249.761C249.014 337 248.444 336.819 248.049 336.456C247.665 336.093 247.473 335.523 247.473 334.744V329.4H246.337V328.216H247.473V326.04H248.945V328.216H251.217V329.4H248.945V334.744C248.945 335.139 249.025 335.416 249.185 335.576C249.345 335.736 249.628 335.816 250.033 335.816H251.233ZM257.161 328.072C257.79 328.072 258.361 328.216 258.873 328.504C259.395 328.781 259.806 329.203 260.105 329.768C260.414 330.323 260.569 331 260.569 331.8V337H259.129V332.04C259.129 331.155 258.915 330.483 258.489 330.024C258.062 329.565 257.47 329.336 256.713 329.336C255.966 329.336 255.374 329.565 254.937 330.024C254.51 330.483 254.297 331.155 254.297 332.04V337H252.841V325.16H254.297V329.64C254.585 329.128 254.979 328.739 255.481 328.472C255.982 328.205 256.542 328.072 257.161 328.072ZM275.652 332.248C275.652 332.557 275.631 332.845 275.588 333.112H268.596C268.639 333.987 268.911 334.68 269.412 335.192C269.924 335.693 270.575 335.944 271.364 335.944C271.962 335.944 272.463 335.811 272.868 335.544C273.284 335.277 273.588 334.925 273.78 334.488H275.348C275.071 335.256 274.591 335.891 273.908 336.392C273.236 336.893 272.388 337.144 271.364 337.144C270.543 337.144 269.807 336.957 269.156 336.584C268.516 336.211 268.015 335.683 267.652 335C267.29 334.307 267.108 333.512 267.108 332.616C267.108 331.709 267.29 330.915 267.652 330.232C268.015 329.539 268.527 329.005 269.188 328.632C269.85 328.259 270.612 328.072 271.476 328.072C272.298 328.072 273.023 328.253 273.652 328.616C274.282 328.979 274.772 329.475 275.124 330.104C275.476 330.733 275.652 331.448 275.652 332.248ZM274.132 332.056C274.132 331.491 274.01 331 273.764 330.584C273.519 330.157 273.183 329.832 272.756 329.608C272.34 329.384 271.876 329.272 271.364 329.272C270.607 329.272 269.972 329.523 269.46 330.024C268.948 330.515 268.666 331.192 268.612 332.056H274.132ZM280.89 332.6L283.706 337H282.058L279.978 333.736L278.042 337H276.458L279.29 332.648L276.458 328.216H278.106L280.202 331.496L282.154 328.216H283.722L280.89 332.6ZM289.186 335.816V337H287.714C286.968 337 286.397 336.819 286.002 336.456C285.618 336.093 285.426 335.523 285.426 334.744V329.4H284.29V328.216H285.426V326.04H286.898V328.216H289.17V329.4H286.898V334.744C286.898 335.139 286.978 335.416 287.138 335.576C287.298 335.736 287.581 335.816 287.986 335.816H289.186ZM292.25 329.704C292.772 328.616 293.663 328.072 294.922 328.072V329.592H294.538C293.791 329.592 293.22 329.789 292.826 330.184C292.442 330.568 292.25 331.24 292.25 332.2V337H290.794V328.216H292.25V329.704ZM300.3 328.072C301.047 328.072 301.698 328.248 302.252 328.6C302.818 328.952 303.244 329.411 303.532 329.976V328.216H305.004V337H303.532V335.208C303.244 335.784 302.818 336.253 302.252 336.616C301.698 336.968 301.047 337.144 300.3 337.144C299.511 337.144 298.796 336.952 298.156 336.568C297.527 336.173 297.026 335.629 296.652 334.936C296.29 334.232 296.108 333.437 296.108 332.552C296.108 331.667 296.29 330.888 296.652 330.216C297.026 329.533 297.527 329.005 298.156 328.632C298.796 328.259 299.511 328.072 300.3 328.072ZM300.556 329.336C300.034 329.336 299.543 329.464 299.084 329.72C298.636 329.976 298.274 330.349 297.996 330.84C297.73 331.32 297.596 331.891 297.596 332.552C297.596 333.213 297.73 333.8 297.996 334.312C298.274 334.813 298.636 335.203 299.084 335.48C299.543 335.757 300.034 335.896 300.556 335.896C301.09 335.896 301.58 335.763 302.028 335.496C302.487 335.229 302.85 334.851 303.116 334.36C303.394 333.859 303.532 333.277 303.532 332.616C303.532 331.955 303.394 331.379 303.116 330.888C302.85 330.387 302.487 330.003 302.028 329.736C301.58 329.469 301.09 329.336 300.556 329.336ZM61.88 355.072C62.936 355.072 63.7947 355.317 64.456 355.808C65.128 356.299 65.5973 356.997 65.864 357.904H64.296C64.1253 357.392 63.832 356.992 63.416 356.704C63 356.416 62.488 356.272 61.88 356.272C61.048 356.272 60.376 356.565 59.864 357.152C59.3627 357.728 59.112 358.549 59.112 359.616C59.112 360.672 59.3627 361.493 59.864 362.08C60.376 362.656 61.048 362.944 61.88 362.944C62.4987 362.944 63.0107 362.805 63.416 362.528C63.8213 362.251 64.1147 361.845 64.296 361.312H65.864C65.5973 362.176 65.1227 362.864 64.44 363.376C63.768 363.888 62.9147 364.144 61.88 364.144C61.0587 364.144 60.3227 363.957 59.672 363.584C59.032 363.211 58.5307 362.683 58.168 362C57.8053 361.307 57.624 360.512 57.624 359.616C57.624 358.709 57.8053 357.915 58.168 357.232C58.5307 356.539 59.032 356.005 59.672 355.632C60.312 355.259 61.048 355.072 61.88 355.072ZM72.1138 355.072C72.7431 355.072 73.3138 355.216 73.8258 355.504C74.3484 355.781 74.7591 356.203 75.0578 356.768C75.3671 357.323 75.5218 358 75.5218 358.8V364H74.0818V359.04C74.0818 358.155 73.8684 357.483 73.4418 357.024C73.0151 356.565 72.4231 356.336 71.6658 356.336C70.9191 356.336 70.3271 356.565 69.8898 357.024C69.4631 357.483 69.2498 358.155 69.2498 359.04V364H67.7938V352.16H69.2498V356.64C69.5378 356.128 69.9324 355.739 70.4338 355.472C70.9351 355.205 71.4951 355.072 72.1138 355.072ZM81.4566 355.072C82.2033 355.072 82.854 355.248 83.4086 355.6C83.974 355.952 84.4006 356.411 84.6886 356.976V355.216H86.1606V364H84.6886V362.208C84.4006 362.784 83.974 363.253 83.4086 363.616C82.854 363.968 82.2033 364.144 81.4566 364.144C80.6673 364.144 79.9526 363.952 79.3126 363.568C78.6833 363.173 78.182 362.629 77.8086 361.936C77.446 361.232 77.2646 360.437 77.2646 359.552C77.2646 358.667 77.446 357.888 77.8086 357.216C78.182 356.533 78.6833 356.005 79.3126 355.632C79.9526 355.259 80.6673 355.072 81.4566 355.072ZM81.7126 356.336C81.19 356.336 80.6993 356.464 80.2406 356.72C79.7926 356.976 79.43 357.349 79.1526 357.84C78.886 358.32 78.7526 358.891 78.7526 359.552C78.7526 360.213 78.886 360.8 79.1526 361.312C79.43 361.813 79.7926 362.203 80.2406 362.48C80.6993 362.757 81.19 362.896 81.7126 362.896C82.246 362.896 82.7366 362.763 83.1846 362.496C83.6433 362.229 84.006 361.851 84.2726 361.36C84.55 360.859 84.6886 360.277 84.6886 359.616C84.6886 358.955 84.55 358.379 84.2726 357.888C84.006 357.387 83.6433 357.003 83.1846 356.736C82.7366 356.469 82.246 356.336 81.7126 356.336ZM90.0154 356.704C90.538 355.616 91.4287 355.072 92.6874 355.072V356.592H92.3034C91.5567 356.592 90.986 356.789 90.5914 357.184C90.2074 357.568 90.0154 358.24 90.0154 359.2V364H88.5594V355.216H90.0154V356.704ZM98.066 355.072C98.8127 355.072 99.4633 355.248 100.018 355.6C100.583 355.952 101.01 356.411 101.298 356.976V355.216H102.77V364.224C102.77 365.024 102.594 365.733 102.242 366.352C101.89 366.971 101.394 367.451 100.754 367.792C100.114 368.144 99.3727 368.32 98.53 368.32C97.794 368.32 97.122 368.192 96.514 367.936C95.906 367.691 95.41 367.339 95.026 366.88C94.642 366.421 94.4127 365.899 94.338 365.312H95.762C95.9007 365.813 96.226 366.229 96.738 366.56C97.25 366.891 97.8473 367.056 98.53 367.056C99.362 367.056 100.029 366.805 100.53 366.304C101.042 365.813 101.298 365.12 101.298 364.224V362.208C101.01 362.784 100.583 363.253 100.018 363.616C99.4633 363.968 98.8127 364.144 98.066 364.144C97.2767 364.144 96.562 363.952 95.922 363.568C95.2927 363.173 94.7913 362.629 94.418 361.936C94.0553 361.232 93.874 360.437 93.874 359.552C93.874 358.667 94.0553 357.888 94.418 357.216C94.7913 356.533 95.2927 356.005 95.922 355.632C96.562 355.259 97.2767 355.072 98.066 355.072ZM98.322 356.336C97.7993 356.336 97.3087 356.464 96.85 356.72C96.402 356.976 96.0393 357.349 95.762 357.84C95.4953 358.32 95.362 358.891 95.362 359.552C95.362 360.213 95.4953 360.8 95.762 361.312C96.0393 361.813 96.402 362.203 96.85 362.48C97.3087 362.757 97.7993 362.896 98.322 362.896C98.8553 362.896 99.346 362.763 99.794 362.496C100.253 362.229 100.615 361.851 100.882 361.36C101.159 360.859 101.298 360.277 101.298 359.616C101.298 358.955 101.159 358.379 100.882 357.888C100.615 357.387 100.253 357.003 99.794 356.736C99.346 356.469 98.8553 356.336 98.322 356.336ZM113.137 359.248C113.137 359.557 113.115 359.845 113.073 360.112H106.081C106.123 360.987 106.395 361.68 106.897 362.192C107.409 362.693 108.059 362.944 108.849 362.944C109.446 362.944 109.947 362.811 110.353 362.544C110.769 362.277 111.073 361.925 111.265 361.488H112.833C112.555 362.256 112.075 362.891 111.393 363.392C110.721 363.893 109.873 364.144 108.849 364.144C108.027 364.144 107.291 363.957 106.641 363.584C106.001 363.211 105.499 362.683 105.137 362C104.774 361.307 104.593 360.512 104.593 359.616C104.593 358.709 104.774 357.915 105.137 357.232C105.499 356.539 106.011 356.005 106.673 355.632C107.334 355.259 108.097 355.072 108.961 355.072C109.782 355.072 110.507 355.253 111.137 355.616C111.766 355.979 112.257 356.475 112.609 357.104C112.961 357.733 113.137 358.448 113.137 359.248ZM111.617 359.056C111.617 358.491 111.494 358 111.249 357.584C111.003 357.157 110.667 356.832 110.241 356.608C109.825 356.384 109.361 356.272 108.849 356.272C108.091 356.272 107.457 356.523 106.945 357.024C106.433 357.515 106.15 358.192 106.097 359.056H111.617ZM120.31 357.552C120.31 358.864 120.134 360.123 119.782 361.328C119.43 362.533 118.934 363.616 118.294 364.576C117.665 365.536 116.929 366.325 116.086 366.944H114.534V366.8C115.995 365.659 117.089 364.277 117.814 362.656C118.539 361.035 118.902 359.333 118.902 357.552C118.902 355.781 118.539 354.091 117.814 352.48C117.089 350.859 115.995 349.472 114.534 348.32V348.176H116.086C116.929 348.795 117.665 349.584 118.294 350.544C118.934 351.504 119.43 352.587 119.782 353.792C120.134 354.987 120.31 356.24 120.31 357.552Z" fill="black"/>
</svg>
