<svg width="1727" height="1140" viewBox="0 0 1727 1140" fill="none" xmlns="http://www.w3.org/2000/svg">
<path d="M206.012 159.939L201.959 172H199.117L204.43 157.781H206.246L206.012 159.939ZM209.4 172L205.328 159.939L205.084 157.781H206.91L212.252 172H209.4ZM209.215 166.717V168.836H201.588V166.717H209.215ZM234.543 157.781V172H231.847L225.802 162.137V172H223.117V157.781H225.802L231.867 167.654V157.781H234.543ZM248.064 157.781L251.189 164.412L254.333 157.781H257.282L252.556 166.795V172H249.831V166.795L245.095 157.781H248.064ZM290.116 169.998L293.905 173.006L292.186 174.5L288.455 171.512L290.116 169.998ZM293.973 164.529V165.262C293.973 166.336 293.83 167.303 293.543 168.162C293.257 169.015 292.847 169.741 292.313 170.34C291.786 170.939 291.157 171.398 290.428 171.717C289.699 172.036 288.892 172.195 288.006 172.195C287.127 172.195 286.32 172.036 285.584 171.717C284.855 171.398 284.224 170.939 283.69 170.34C283.156 169.741 282.743 169.015 282.45 168.162C282.157 167.303 282.01 166.336 282.01 165.262V164.529C282.01 163.449 282.153 162.482 282.44 161.629C282.733 160.776 283.143 160.05 283.67 159.451C284.204 158.846 284.836 158.383 285.565 158.064C286.301 157.745 287.108 157.586 287.987 157.586C288.872 157.586 289.679 157.745 290.409 158.064C291.144 158.383 291.776 158.846 292.303 159.451C292.837 160.05 293.247 160.776 293.534 161.629C293.827 162.482 293.973 163.449 293.973 164.529ZM291.258 165.262V164.51C291.258 163.735 291.187 163.055 291.043 162.469C290.9 161.876 290.685 161.378 290.399 160.975C290.119 160.571 289.777 160.268 289.373 160.066C288.97 159.858 288.508 159.754 287.987 159.754C287.472 159.754 287.013 159.858 286.61 160.066C286.206 160.268 285.864 160.571 285.584 160.975C285.304 161.378 285.09 161.876 284.94 162.469C284.797 163.055 284.725 163.735 284.725 164.51V165.262C284.725 166.03 284.797 166.71 284.94 167.303C285.09 167.895 285.304 168.396 285.584 168.807C285.871 169.21 286.216 169.516 286.62 169.725C287.03 169.933 287.492 170.037 288.006 170.037C288.527 170.037 288.989 169.933 289.393 169.725C289.797 169.516 290.135 169.21 290.409 168.807C290.689 168.396 290.9 167.895 291.043 167.303C291.187 166.71 291.258 166.03 291.258 165.262ZM313.588 157.781H316.273V167.225C316.273 168.312 316.039 169.227 315.57 169.969C315.102 170.704 314.464 171.261 313.656 171.639C312.849 172.01 311.931 172.195 310.902 172.195C309.861 172.195 308.933 172.01 308.119 171.639C307.305 171.261 306.667 170.704 306.205 169.969C305.743 169.227 305.512 168.312 305.512 167.225V157.781H308.197V167.225C308.197 167.889 308.308 168.432 308.529 168.855C308.751 169.272 309.063 169.581 309.467 169.783C309.87 169.985 310.349 170.086 310.902 170.086C311.462 170.086 311.941 169.985 312.338 169.783C312.742 169.581 313.051 169.272 313.266 168.855C313.48 168.432 313.588 167.889 313.588 167.225V157.781ZM337.646 169.891V172H330.087V169.891H337.646ZM330.908 157.781V172H328.222V157.781H330.908ZM336.66 163.65V165.711H330.087V163.65H336.66ZM337.617 157.781V159.9H330.087V157.781H337.617ZM356.353 168.309C356.353 168.035 356.31 167.791 356.226 167.576C356.148 167.355 356.001 167.156 355.786 166.98C355.578 166.798 355.282 166.622 354.898 166.453C354.52 166.277 354.032 166.095 353.433 165.906C352.769 165.698 352.15 165.464 351.577 165.203C351.004 164.943 350.5 164.64 350.064 164.295C349.634 163.95 349.299 163.553 349.058 163.104C348.817 162.648 348.696 162.12 348.696 161.521C348.696 160.936 348.82 160.402 349.068 159.92C349.321 159.438 349.68 159.025 350.142 158.68C350.604 158.328 351.148 158.058 351.773 157.869C352.404 157.68 353.101 157.586 353.863 157.586C354.917 157.586 355.829 157.778 356.597 158.162C357.372 158.546 357.971 159.067 358.394 159.725C358.817 160.382 359.029 161.121 359.029 161.941H356.353C356.353 161.499 356.258 161.108 356.07 160.77C355.887 160.431 355.607 160.164 355.23 159.969C354.859 159.773 354.39 159.676 353.823 159.676C353.277 159.676 352.821 159.757 352.456 159.92C352.098 160.083 351.828 160.304 351.646 160.584C351.47 160.864 351.382 161.176 351.382 161.521C351.382 161.782 351.444 162.016 351.568 162.225C351.691 162.426 351.877 162.618 352.124 162.801C352.372 162.977 352.678 163.143 353.042 163.299C353.413 163.449 353.843 163.598 354.331 163.748C355.113 163.982 355.796 164.243 356.382 164.529C356.974 164.816 357.466 165.141 357.857 165.506C358.254 165.87 358.55 166.281 358.745 166.736C358.947 167.192 359.048 167.71 359.048 168.289C359.048 168.901 358.928 169.448 358.687 169.93C358.446 170.411 358.101 170.822 357.652 171.16C357.202 171.499 356.662 171.756 356.03 171.932C355.405 172.107 354.706 172.195 353.931 172.195C353.241 172.195 352.557 172.104 351.88 171.922C351.21 171.733 350.601 171.453 350.054 171.082C349.507 170.704 349.071 170.229 348.745 169.656C348.42 169.077 348.257 168.4 348.257 167.625H350.952C350.952 168.074 351.024 168.458 351.167 168.777C351.317 169.09 351.525 169.347 351.792 169.549C352.066 169.744 352.385 169.887 352.749 169.979C353.114 170.07 353.508 170.115 353.931 170.115C354.478 170.115 354.927 170.04 355.279 169.891C355.637 169.734 355.904 169.52 356.079 169.246C356.262 168.973 356.353 168.66 356.353 168.309ZM376.622 157.781V172H373.946V157.781H376.622ZM381.036 157.781V159.9H369.581V157.781H381.036ZM395.084 157.781V172H392.399V157.781H395.084ZM418.898 164.529V165.262C418.898 166.336 418.755 167.303 418.469 168.162C418.182 169.015 417.775 169.741 417.248 170.34C416.721 170.939 416.092 171.398 415.363 171.717C414.634 172.036 413.824 172.195 412.932 172.195C412.053 172.195 411.245 172.036 410.51 171.717C409.781 171.398 409.149 170.939 408.615 170.34C408.081 169.741 407.668 169.015 407.375 168.162C407.082 167.303 406.936 166.336 406.936 165.262V164.529C406.936 163.449 407.082 162.482 407.375 161.629C407.668 160.776 408.078 160.05 408.605 159.451C409.133 158.846 409.761 158.383 410.49 158.064C411.226 157.745 412.033 157.586 412.912 157.586C413.804 157.586 414.615 157.745 415.344 158.064C416.073 158.383 416.701 158.846 417.229 159.451C417.762 160.05 418.173 160.776 418.459 161.629C418.752 162.482 418.898 163.449 418.898 164.529ZM416.184 165.262V164.51C416.184 163.735 416.112 163.055 415.969 162.469C415.826 161.876 415.614 161.378 415.334 160.975C415.054 160.571 414.709 160.268 414.299 160.066C413.889 159.858 413.426 159.754 412.912 159.754C412.391 159.754 411.929 159.858 411.525 160.066C411.128 160.268 410.79 160.571 410.51 160.975C410.23 161.378 410.015 161.876 409.865 162.469C409.722 163.055 409.65 163.735 409.65 164.51V165.262C409.65 166.03 409.722 166.71 409.865 167.303C410.015 167.895 410.23 168.396 410.51 168.807C410.796 169.21 411.141 169.516 411.545 169.725C411.949 169.933 412.411 170.037 412.932 170.037C413.452 170.037 413.915 169.933 414.318 169.725C414.722 169.516 415.061 169.21 415.334 168.807C415.614 168.396 415.826 167.895 415.969 167.303C416.112 166.71 416.184 166.03 416.184 165.262ZM442 157.781V172H439.304L433.259 162.137V172H430.574V157.781H433.259L439.324 167.654V157.781H442ZM461.575 168.309C461.575 168.035 461.533 167.791 461.448 167.576C461.37 167.355 461.224 167.156 461.009 166.98C460.801 166.798 460.504 166.622 460.12 166.453C459.743 166.277 459.254 166.095 458.655 165.906C457.991 165.698 457.373 165.464 456.8 165.203C456.227 164.943 455.723 164.64 455.286 164.295C454.857 163.95 454.521 163.553 454.28 163.104C454.04 162.648 453.919 162.12 453.919 161.521C453.919 160.936 454.043 160.402 454.29 159.92C454.544 159.438 454.902 159.025 455.364 158.68C455.827 158.328 456.37 158.058 456.995 157.869C457.627 157.68 458.323 157.586 459.085 157.586C460.14 157.586 461.051 157.778 461.82 158.162C462.594 158.546 463.193 159.067 463.616 159.725C464.04 160.382 464.251 161.121 464.251 161.941H461.575C461.575 161.499 461.481 161.108 461.292 160.77C461.11 160.431 460.83 160.164 460.452 159.969C460.081 159.773 459.612 159.676 459.046 159.676C458.499 159.676 458.043 159.757 457.679 159.92C457.321 160.083 457.051 160.304 456.868 160.584C456.693 160.864 456.605 161.176 456.605 161.521C456.605 161.782 456.667 162.016 456.79 162.225C456.914 162.426 457.099 162.618 457.347 162.801C457.594 162.977 457.9 163.143 458.265 163.299C458.636 163.449 459.066 163.598 459.554 163.748C460.335 163.982 461.019 164.243 461.605 164.529C462.197 164.816 462.689 165.141 463.079 165.506C463.476 165.87 463.773 166.281 463.968 166.736C464.17 167.192 464.271 167.71 464.271 168.289C464.271 168.901 464.15 169.448 463.909 169.93C463.668 170.411 463.323 170.822 462.874 171.16C462.425 171.499 461.885 171.756 461.253 171.932C460.628 172.107 459.928 172.195 459.154 172.195C458.463 172.195 457.78 172.104 457.103 171.922C456.432 171.733 455.823 171.453 455.277 171.082C454.73 170.704 454.293 170.229 453.968 169.656C453.642 169.077 453.48 168.4 453.48 167.625H456.175C456.175 168.074 456.247 168.458 456.39 168.777C456.54 169.09 456.748 169.347 457.015 169.549C457.288 169.744 457.607 169.887 457.972 169.979C458.336 170.07 458.73 170.115 459.154 170.115C459.7 170.115 460.15 170.04 460.501 169.891C460.859 169.734 461.126 169.52 461.302 169.246C461.484 168.973 461.575 168.66 461.575 168.309ZM501.635 164.529V165.262C501.635 166.336 501.492 167.303 501.205 168.162C500.919 169.015 500.512 169.741 499.985 170.34C499.457 170.939 498.829 171.398 498.1 171.717C497.371 172.036 496.56 172.195 495.668 172.195C494.789 172.195 493.982 172.036 493.246 171.717C492.517 171.398 491.886 170.939 491.352 170.34C490.818 169.741 490.405 169.015 490.112 168.162C489.819 167.303 489.672 166.336 489.672 165.262V164.529C489.672 163.449 489.819 162.482 490.112 161.629C490.405 160.776 490.815 160.05 491.342 159.451C491.87 158.846 492.498 158.383 493.227 158.064C493.963 157.745 494.77 157.586 495.649 157.586C496.541 157.586 497.351 157.745 498.08 158.064C498.81 158.383 499.438 158.846 499.965 159.451C500.499 160.05 500.909 160.776 501.196 161.629C501.489 162.482 501.635 163.449 501.635 164.529ZM498.92 165.262V164.51C498.92 163.735 498.849 163.055 498.705 162.469C498.562 161.876 498.351 161.378 498.071 160.975C497.791 160.571 497.446 160.268 497.036 160.066C496.625 159.858 496.163 159.754 495.649 159.754C495.128 159.754 494.666 159.858 494.262 160.066C493.865 160.268 493.526 160.571 493.246 160.975C492.967 161.378 492.752 161.876 492.602 162.469C492.459 163.055 492.387 163.735 492.387 164.51V165.262C492.387 166.03 492.459 166.71 492.602 167.303C492.752 167.895 492.967 168.396 493.246 168.807C493.533 169.21 493.878 169.516 494.282 169.725C494.685 169.933 495.148 170.037 495.668 170.037C496.189 170.037 496.651 169.933 497.055 169.725C497.459 169.516 497.797 169.21 498.071 168.807C498.351 168.396 498.562 167.895 498.705 167.303C498.849 166.71 498.92 166.03 498.92 165.262ZM513.311 157.781H518.477C519.557 157.781 520.485 157.944 521.26 158.27C522.035 158.595 522.63 159.077 523.047 159.715C523.464 160.353 523.672 161.137 523.672 162.068C523.672 162.804 523.542 163.442 523.281 163.982C523.021 164.523 522.653 164.975 522.178 165.34C521.709 165.704 521.156 165.991 520.518 166.199L519.678 166.629H515.117L515.098 164.51H518.506C519.059 164.51 519.518 164.412 519.883 164.217C520.247 164.021 520.521 163.751 520.703 163.406C520.892 163.061 520.986 162.667 520.986 162.225C520.986 161.749 520.895 161.339 520.713 160.994C520.531 160.643 520.254 160.372 519.883 160.184C519.512 159.995 519.043 159.9 518.477 159.9H515.996V172H513.311V157.781ZM521.338 172L518.047 165.633L520.889 165.623L524.219 171.863V172H521.338ZM549.806 157.781H554.972C556.053 157.781 556.98 157.944 557.755 158.27C558.53 158.595 559.126 159.077 559.542 159.715C559.959 160.353 560.167 161.137 560.167 162.068C560.167 162.804 560.037 163.442 559.777 163.982C559.516 164.523 559.148 164.975 558.673 165.34C558.204 165.704 557.651 165.991 557.013 166.199L556.173 166.629H551.612L551.593 164.51H555.001C555.555 164.51 556.014 164.412 556.378 164.217C556.743 164.021 557.016 163.751 557.198 163.406C557.387 163.061 557.482 162.667 557.482 162.225C557.482 161.749 557.39 161.339 557.208 160.994C557.026 160.643 556.749 160.372 556.378 160.184C556.007 159.995 555.538 159.9 554.972 159.9H552.491V172H549.806V157.781ZM557.833 172L554.542 165.633L557.384 165.623L560.714 171.863V172H557.833ZM581.345 169.891V172H573.786V169.891H581.345ZM574.606 157.781V172H571.921V157.781H574.606ZM580.358 163.65V165.711H573.786V163.65H580.358ZM581.315 157.781V159.9H573.786V157.781H581.315ZM593.782 157.781H596.106L599.993 168.484L603.87 157.781H606.204L600.92 172H599.055L593.782 157.781ZM592.61 157.781H594.885L595.295 167.615V172H592.61V157.781ZM605.09 157.781H607.375V172H604.69V167.615L605.09 157.781ZM625.34 159.939L621.287 172H618.445L623.758 157.781H625.574L625.34 159.939ZM628.729 172L624.656 159.939L624.412 157.781H626.238L631.58 172H628.729ZM628.543 166.717V168.836H620.916V166.717H628.543ZM642.445 157.781H647.611C648.692 157.781 649.619 157.944 650.394 158.27C651.169 158.595 651.765 159.077 652.181 159.715C652.598 160.353 652.806 161.137 652.806 162.068C652.806 162.804 652.676 163.442 652.416 163.982C652.155 164.523 651.787 164.975 651.312 165.34C650.843 165.704 650.29 165.991 649.652 166.199L648.812 166.629H644.252L644.232 164.51H647.64C648.194 164.51 648.653 164.412 649.017 164.217C649.382 164.021 649.655 163.751 649.837 163.406C650.026 163.061 650.121 162.667 650.121 162.225C650.121 161.749 650.03 161.339 649.847 160.994C649.665 160.643 649.388 160.372 649.017 160.184C648.646 159.995 648.177 159.9 647.611 159.9H645.13V172H642.445V157.781ZM650.472 172L647.181 165.633L650.023 165.623L653.353 171.863V172H650.472ZM667.245 157.781V172H664.56V157.781H667.245ZM675.78 157.781L670.077 164.715L666.816 168.201L666.337 165.594L668.603 162.654L672.489 157.781H675.78ZM672.792 172L668.368 165.34L670.292 163.602L675.986 172H672.792ZM694.077 168.309C694.077 168.035 694.035 167.791 693.95 167.576C693.872 167.355 693.725 167.156 693.511 166.98C693.302 166.798 693.006 166.622 692.622 166.453C692.244 166.277 691.756 166.095 691.157 165.906C690.493 165.698 689.874 165.464 689.302 165.203C688.729 164.943 688.224 164.64 687.788 164.295C687.358 163.95 687.023 163.553 686.782 163.104C686.541 162.648 686.421 162.12 686.421 161.521C686.421 160.936 686.544 160.402 686.792 159.92C687.046 159.438 687.404 159.025 687.866 158.68C688.328 158.328 688.872 158.058 689.497 157.869C690.128 157.68 690.825 157.586 691.587 157.586C692.641 157.586 693.553 157.778 694.321 158.162C695.096 158.546 695.695 159.067 696.118 159.725C696.541 160.382 696.753 161.121 696.753 161.941H694.077C694.077 161.499 693.983 161.108 693.794 160.77C693.611 160.431 693.331 160.164 692.954 159.969C692.583 159.773 692.114 159.676 691.548 159.676C691.001 159.676 690.545 159.757 690.18 159.92C689.822 160.083 689.552 160.304 689.37 160.584C689.194 160.864 689.106 161.176 689.106 161.521C689.106 161.782 689.168 162.016 689.292 162.225C689.415 162.426 689.601 162.618 689.848 162.801C690.096 162.977 690.402 163.143 690.766 163.299C691.137 163.449 691.567 163.598 692.055 163.748C692.837 163.982 693.52 164.243 694.106 164.529C694.699 164.816 695.19 165.141 695.581 165.506C695.978 165.87 696.274 166.281 696.47 166.736C696.671 167.192 696.772 167.71 696.772 168.289C696.772 168.901 696.652 169.448 696.411 169.93C696.17 170.411 695.825 170.822 695.376 171.16C694.927 171.499 694.386 171.756 693.755 171.932C693.13 172.107 692.43 172.195 691.655 172.195C690.965 172.195 690.281 172.104 689.604 171.922C688.934 171.733 688.325 171.453 687.778 171.082C687.231 170.704 686.795 170.229 686.47 169.656C686.144 169.077 685.981 168.4 685.981 167.625H688.677C688.677 168.074 688.748 168.458 688.891 168.777C689.041 169.09 689.249 169.347 689.516 169.549C689.79 169.744 690.109 169.887 690.473 169.979C690.838 170.07 691.232 170.115 691.655 170.115C692.202 170.115 692.651 170.04 693.003 169.891C693.361 169.734 693.628 169.52 693.803 169.246C693.986 168.973 694.077 168.66 694.077 168.309ZM712.637 167.732H710.303C710.31 167.14 710.358 166.632 710.45 166.209C710.547 165.786 710.707 165.405 710.928 165.066C711.149 164.721 711.449 164.37 711.827 164.012C712.126 163.732 712.393 163.468 712.627 163.221C712.868 162.967 713.057 162.703 713.194 162.43C713.33 162.15 713.399 161.834 713.399 161.482C713.399 161.085 713.334 160.753 713.203 160.486C713.08 160.219 712.894 160.018 712.647 159.881C712.406 159.738 712.103 159.666 711.739 159.666C711.439 159.666 711.156 159.728 710.889 159.852C710.622 159.975 710.407 160.167 710.245 160.428C710.082 160.682 709.994 161.014 709.981 161.424H707.393C707.412 160.571 707.614 159.861 707.998 159.295C708.383 158.722 708.9 158.296 709.551 158.016C710.202 157.729 710.931 157.586 711.739 157.586C712.631 157.586 713.392 157.736 714.024 158.035C714.662 158.328 715.147 158.758 715.479 159.324C715.817 159.891 715.987 160.574 715.987 161.375C715.987 161.948 715.876 162.462 715.655 162.918C715.433 163.367 715.14 163.787 714.776 164.178C714.411 164.568 714.017 164.962 713.594 165.359C713.223 165.691 712.972 166.046 712.842 166.424C712.712 166.801 712.644 167.238 712.637 167.732ZM710.059 170.77C710.059 170.379 710.189 170.053 710.45 169.793C710.717 169.533 711.075 169.402 711.524 169.402C711.973 169.402 712.328 169.533 712.588 169.793C712.855 170.053 712.989 170.379 712.989 170.77C712.989 171.147 712.855 171.466 712.588 171.727C712.328 171.987 711.973 172.117 711.524 172.117C711.075 172.117 710.717 171.987 710.45 171.727C710.189 171.466 710.059 171.147 710.059 170.77Z" fill="#102E4A"/>
<g clip-path="url(#clip0_488_43)">
<rect x="199" y="236" width="598" height="750" rx="12" fill="#102E4A"/>
<path d="M279.112 320.656C281.776 320.656 284.14 321.316 286.204 322.636C288.292 323.932 289.804 325.78 290.74 328.18H285.808C285.16 326.932 284.26 325.996 283.108 325.372C281.956 324.724 280.624 324.4 279.112 324.4C277.456 324.4 275.98 324.772 274.684 325.516C273.388 326.26 272.368 327.316 271.624 328.684C270.904 330.052 270.544 331.636 270.544 333.436C270.544 335.236 270.904 336.832 271.624 338.224C272.368 339.592 273.388 340.648 274.684 341.392C275.98 342.136 277.456 342.508 279.112 342.508C280.624 342.508 281.956 342.196 283.108 341.572C284.26 340.924 285.16 339.976 285.808 338.728H290.74C289.804 341.128 288.292 342.976 286.204 344.272C284.14 345.568 281.776 346.216 279.112 346.216C276.76 346.216 274.612 345.676 272.668 344.596C270.724 343.492 269.176 341.968 268.024 340.024C266.896 338.08 266.332 335.884 266.332 333.436C266.332 330.988 266.896 328.792 268.024 326.848C269.176 324.904 270.724 323.392 272.668 322.312C274.636 321.208 276.784 320.656 279.112 320.656ZM304.328 325.84C306.224 325.84 307.94 326.26 309.476 327.1C311.012 327.94 312.224 329.14 313.112 330.7C314 332.26 314.444 334.048 314.444 336.064C314.444 338.08 313.988 339.868 313.076 341.428C312.164 342.988 310.916 344.2 309.332 345.064C307.772 345.904 306.044 346.324 304.148 346.324C302.276 346.324 300.584 345.904 299.072 345.064C297.56 344.2 296.372 343 295.508 341.464C294.644 339.904 294.212 338.104 294.212 336.064C294.212 334.048 294.656 332.26 295.544 330.7C296.432 329.14 297.644 327.94 299.18 327.1C300.716 326.26 302.432 325.84 304.328 325.84ZM304.256 329.296C303.2 329.296 302.228 329.56 301.34 330.088C300.452 330.592 299.732 331.36 299.18 332.392C298.652 333.4 298.388 334.624 298.388 336.064C298.388 337.504 298.64 338.74 299.144 339.772C299.672 340.804 300.368 341.584 301.232 342.112C302.12 342.616 303.092 342.868 304.148 342.868C305.204 342.868 306.188 342.604 307.1 342.076C308.036 341.548 308.792 340.78 309.368 339.772C309.944 338.74 310.232 337.504 310.232 336.064C310.232 334.624 309.956 333.4 309.404 332.392C308.852 331.36 308.12 330.592 307.208 330.088C306.296 329.56 305.312 329.296 304.256 329.296ZM328.941 325.84C330.381 325.84 331.677 326.164 332.829 326.812C334.005 327.46 334.929 328.42 335.601 329.692C336.297 330.964 336.645 332.5 336.645 334.3V346H332.577V334.912C332.577 333.136 332.133 331.78 331.245 330.844C330.357 329.884 329.145 329.404 327.609 329.404C326.073 329.404 324.849 329.884 323.937 330.844C323.049 331.78 322.605 333.136 322.605 334.912V346H318.501V326.164H322.605V329.296C323.253 328.168 324.117 327.316 325.197 326.74C326.301 326.14 327.549 325.84 328.941 325.84ZM346.668 329.512V340.492C346.668 341.236 346.836 341.776 347.172 342.112C347.532 342.424 348.132 342.58 348.972 342.58H351.492V346H348.252C346.404 346 344.988 345.568 344.004 344.704C343.02 343.84 342.528 342.436 342.528 340.492V329.512H340.188V326.164H342.528V321.232H346.668V326.164H351.492V329.512H346.668ZM363.266 325.84C364.826 325.84 366.194 326.2 367.37 326.92C368.57 327.616 369.494 328.54 370.142 329.692V326.164H374.282V346H370.142V342.292C369.47 343.516 368.546 344.5 367.37 345.244C366.194 345.964 364.826 346.324 363.266 346.324C361.538 346.324 359.954 345.892 358.514 345.028C357.098 344.14 355.97 342.916 355.13 341.356C354.314 339.772 353.906 337.984 353.906 335.992C353.906 334 354.314 332.236 355.13 330.7C355.97 329.164 357.098 327.976 358.514 327.136C359.954 326.272 361.538 325.84 363.266 325.84ZM364.13 329.404C363.074 329.404 362.09 329.668 361.178 330.196C360.266 330.7 359.522 331.456 358.946 332.464C358.394 333.448 358.118 334.624 358.118 335.992C358.118 337.36 358.394 338.56 358.946 339.592C359.522 340.624 360.266 341.416 361.178 341.968C362.114 342.496 363.098 342.76 364.13 342.76C365.186 342.76 366.17 342.496 367.082 341.968C367.994 341.44 368.726 340.672 369.278 339.664C369.854 338.632 370.142 337.432 370.142 336.064C370.142 334.696 369.854 333.508 369.278 332.5C368.726 331.492 367.994 330.724 367.082 330.196C366.17 329.668 365.186 329.404 364.13 329.404ZM388.025 325.84C390.425 325.84 392.405 326.416 393.965 327.568C395.549 328.696 396.617 330.316 397.169 332.428H392.741C392.381 331.444 391.805 330.676 391.013 330.124C390.221 329.572 389.225 329.296 388.025 329.296C386.345 329.296 385.001 329.896 383.993 331.096C383.009 332.272 382.517 333.928 382.517 336.064C382.517 338.2 383.009 339.868 383.993 341.068C385.001 342.268 386.345 342.868 388.025 342.868C390.401 342.868 391.973 341.824 392.741 339.736H397.169C396.593 341.752 395.513 343.36 393.929 344.56C392.345 345.736 390.377 346.324 388.025 346.324C386.129 346.324 384.449 345.904 382.985 345.064C381.521 344.2 380.369 343 379.529 341.464C378.713 339.904 378.305 338.104 378.305 336.064C378.305 334.024 378.713 332.236 379.529 330.7C380.369 329.14 381.521 327.94 382.985 327.1C384.449 326.26 386.129 325.84 388.025 325.84ZM406.047 329.512V340.492C406.047 341.236 406.215 341.776 406.551 342.112C406.911 342.424 407.511 342.58 408.351 342.58H410.871V346H407.631C405.783 346 404.367 345.568 403.383 344.704C402.399 343.84 401.907 342.436 401.907 340.492V329.512H399.567V326.164H401.907V321.232H406.047V326.164H410.871V329.512H406.047ZM429.55 320.98V346H425.446V320.98H429.55ZM445.378 325.84C446.818 325.84 448.114 326.164 449.266 326.812C450.442 327.46 451.366 328.42 452.038 329.692C452.734 330.964 453.082 332.5 453.082 334.3V346H449.014V334.912C449.014 333.136 448.57 331.78 447.682 330.844C446.794 329.884 445.582 329.404 444.046 329.404C442.51 329.404 441.286 329.884 440.374 330.844C439.486 331.78 439.042 333.136 439.042 334.912V346H434.938V326.164H439.042V329.296C439.69 328.168 440.554 327.316 441.634 326.74C442.738 326.14 443.986 325.84 445.378 325.84ZM466.633 329.512H462.961V346H458.821V329.512H456.481V326.164H458.821V324.76C458.821 322.48 459.421 320.824 460.621 319.792C461.845 318.736 463.753 318.208 466.345 318.208V321.628C465.097 321.628 464.221 321.868 463.717 322.348C463.213 322.804 462.961 323.608 462.961 324.76V326.164H466.633V329.512ZM479.054 325.84C480.95 325.84 482.666 326.26 484.202 327.1C485.738 327.94 486.95 329.14 487.838 330.7C488.726 332.26 489.17 334.048 489.17 336.064C489.17 338.08 488.714 339.868 487.802 341.428C486.89 342.988 485.642 344.2 484.058 345.064C482.498 345.904 480.77 346.324 478.874 346.324C477.002 346.324 475.31 345.904 473.798 345.064C472.286 344.2 471.098 343 470.234 341.464C469.37 339.904 468.938 338.104 468.938 336.064C468.938 334.048 469.382 332.26 470.27 330.7C471.158 329.14 472.37 327.94 473.906 327.1C475.442 326.26 477.158 325.84 479.054 325.84ZM478.982 329.296C477.926 329.296 476.954 329.56 476.066 330.088C475.178 330.592 474.458 331.36 473.906 332.392C473.378 333.4 473.114 334.624 473.114 336.064C473.114 337.504 473.366 338.74 473.87 339.772C474.398 340.804 475.094 341.584 475.958 342.112C476.846 342.616 477.818 342.868 478.874 342.868C479.93 342.868 480.914 342.604 481.826 342.076C482.762 341.548 483.518 340.78 484.094 339.772C484.67 338.74 484.958 337.504 484.958 336.064C484.958 334.624 484.682 333.4 484.13 332.392C483.578 331.36 482.846 330.592 481.934 330.088C481.022 329.56 480.038 329.296 478.982 329.296ZM497.331 329.62C497.931 328.42 498.723 327.496 499.707 326.848C500.715 326.176 501.903 325.84 503.271 325.84V330.088H502.227C500.619 330.088 499.395 330.496 498.555 331.312C497.739 332.128 497.331 333.544 497.331 335.56V346H493.227V326.164H497.331V329.62ZM531.416 325.84C532.904 325.84 534.236 326.164 535.412 326.812C536.588 327.46 537.512 328.42 538.184 329.692C538.88 330.964 539.228 332.5 539.228 334.3V346H535.124V334.912C535.124 333.136 534.68 331.78 533.792 330.844C532.904 329.884 531.692 329.404 530.156 329.404C528.62 329.404 527.408 329.884 526.52 330.844C525.632 331.78 525.188 333.136 525.188 334.912V346H521.12V334.912C521.12 333.136 520.676 331.78 519.788 330.844C518.9 329.884 517.688 329.404 516.152 329.404C514.616 329.404 513.392 329.884 512.48 330.844C511.592 331.78 511.148 333.136 511.148 334.912V346H507.044V326.164H511.148V329.296C511.796 328.168 512.66 327.316 513.74 326.74C514.844 326.14 516.092 325.84 517.484 325.84C519.02 325.84 520.388 326.2 521.588 326.92C522.788 327.64 523.7 328.684 524.324 330.052C525.02 328.732 525.98 327.7 527.204 326.956C528.452 326.212 529.856 325.84 531.416 325.84ZM552.442 325.84C554.002 325.84 555.37 326.2 556.546 326.92C557.746 327.616 558.67 328.54 559.318 329.692V326.164H563.458V346H559.318V342.292C558.646 343.516 557.722 344.5 556.546 345.244C555.37 345.964 554.002 346.324 552.442 346.324C550.714 346.324 549.13 345.892 547.69 345.028C546.274 344.14 545.146 342.916 544.306 341.356C543.49 339.772 543.082 337.984 543.082 335.992C543.082 334 543.49 332.236 544.306 330.7C545.146 329.164 546.274 327.976 547.69 327.136C549.13 326.272 550.714 325.84 552.442 325.84ZM553.306 329.404C552.25 329.404 551.266 329.668 550.354 330.196C549.442 330.7 548.698 331.456 548.122 332.464C547.57 333.448 547.294 334.624 547.294 335.992C547.294 337.36 547.57 338.56 548.122 339.592C548.698 340.624 549.442 341.416 550.354 341.968C551.29 342.496 552.274 342.76 553.306 342.76C554.362 342.76 555.346 342.496 556.258 341.968C557.17 341.44 557.902 340.672 558.454 339.664C559.03 338.632 559.318 337.432 559.318 336.064C559.318 334.696 559.03 333.508 558.454 332.5C557.902 331.492 557.17 330.724 556.258 330.196C555.346 329.668 554.362 329.404 553.306 329.404ZM573.636 329.512V340.492C573.636 341.236 573.804 341.776 574.14 342.112C574.5 342.424 575.1 342.58 575.94 342.58H578.46V346H575.22C573.372 346 571.956 345.568 570.972 344.704C569.988 343.84 569.496 342.436 569.496 340.492V329.512H567.156V326.164H569.496V321.232H573.636V326.164H578.46V329.512H573.636ZM581.703 320.908C581.703 320.164 581.955 319.54 582.459 319.036C582.963 318.532 583.587 318.28 584.331 318.28C585.051 318.28 585.663 318.532 586.167 319.036C586.671 319.54 586.923 320.164 586.923 320.908C586.923 321.652 586.671 322.276 586.167 322.78C585.663 323.284 585.051 323.536 584.331 323.536C583.587 323.536 582.963 323.284 582.459 322.78C581.955 322.276 581.703 321.652 581.703 320.908ZM586.347 326.164V346H582.243V326.164H586.347ZM600.519 325.84C602.415 325.84 604.131 326.26 605.667 327.1C607.203 327.94 608.415 329.14 609.303 330.7C610.191 332.26 610.635 334.048 610.635 336.064C610.635 338.08 610.179 339.868 609.267 341.428C608.355 342.988 607.107 344.2 605.523 345.064C603.963 345.904 602.235 346.324 600.339 346.324C598.467 346.324 596.775 345.904 595.263 345.064C593.751 344.2 592.563 343 591.699 341.464C590.835 339.904 590.403 338.104 590.403 336.064C590.403 334.048 590.847 332.26 591.735 330.7C592.623 329.14 593.835 327.94 595.371 327.1C596.907 326.26 598.623 325.84 600.519 325.84ZM600.447 329.296C599.391 329.296 598.419 329.56 597.531 330.088C596.643 330.592 595.923 331.36 595.371 332.392C594.843 333.4 594.579 334.624 594.579 336.064C594.579 337.504 594.831 338.74 595.335 339.772C595.863 340.804 596.559 341.584 597.423 342.112C598.311 342.616 599.283 342.868 600.339 342.868C601.395 342.868 602.379 342.604 603.291 342.076C604.227 341.548 604.983 340.78 605.559 339.772C606.135 338.74 606.423 337.504 606.423 336.064C606.423 334.624 606.147 333.4 605.595 332.392C605.043 331.36 604.311 330.592 603.399 330.088C602.487 329.56 601.503 329.296 600.447 329.296ZM625.132 325.84C626.572 325.84 627.868 326.164 629.02 326.812C630.196 327.46 631.12 328.42 631.792 329.692C632.488 330.964 632.836 332.5 632.836 334.3V346H628.768V334.912C628.768 333.136 628.324 331.78 627.436 330.844C626.548 329.884 625.336 329.404 623.8 329.404C622.264 329.404 621.04 329.884 620.128 330.844C619.24 331.78 618.796 333.136 618.796 334.912V346H614.692V326.164H618.796V329.296C619.444 328.168 620.308 327.316 621.388 326.74C622.492 326.14 623.74 325.84 625.132 325.84Z" fill="white"/>
<path d="M272.744 386.88V388.304H268.024V391.68H271.704V393.088H268.024V398H266.2V386.88H272.744ZM274.194 386.848C274.194 386.517 274.306 386.24 274.53 386.016C274.754 385.792 275.032 385.68 275.362 385.68C275.682 385.68 275.954 385.792 276.178 386.016C276.402 386.24 276.514 386.517 276.514 386.848C276.514 387.179 276.402 387.456 276.178 387.68C275.954 387.904 275.682 388.016 275.362 388.016C275.032 388.016 274.754 387.904 274.53 387.68C274.306 387.456 274.194 387.179 274.194 386.848ZM276.258 389.184V398H274.434V389.184H276.258ZM280.477 386.16V398H278.653V386.16H280.477ZM284.696 386.16V398H282.872V386.16H284.696ZM299.872 389.184V398H298.048V396.608C297.76 397.109 297.37 397.488 296.88 397.744C296.4 398 295.85 398.128 295.232 398.128C294.592 398.128 294.01 397.984 293.488 397.696C292.976 397.408 292.565 396.987 292.256 396.432C291.957 395.867 291.808 395.184 291.808 394.384V389.184H293.616V394.112C293.616 394.901 293.813 395.509 294.208 395.936C294.602 396.352 295.141 396.56 295.824 396.56C296.506 396.56 297.045 396.352 297.44 395.936C297.845 395.509 298.048 394.901 298.048 394.112V389.184H299.872ZM307.174 389.04C307.942 389.04 308.641 389.232 309.27 389.616C309.91 389.989 310.411 390.517 310.774 391.2C311.137 391.883 311.318 392.667 311.318 393.552C311.318 394.437 311.137 395.232 310.774 395.936C310.411 396.629 309.91 397.173 309.27 397.568C308.641 397.952 307.942 398.144 307.174 398.144C306.481 398.144 305.873 397.984 305.35 397.664C304.827 397.333 304.411 396.896 304.102 396.352V402.192H302.278V389.184H304.102V390.752C304.401 390.24 304.811 389.829 305.334 389.52C305.867 389.2 306.481 389.04 307.174 389.04ZM306.774 390.624C306.315 390.624 305.878 390.741 305.462 390.976C305.057 391.211 304.726 391.552 304.47 392C304.225 392.448 304.102 392.976 304.102 393.584C304.102 394.192 304.225 394.725 304.47 395.184C304.726 395.632 305.057 395.973 305.462 396.208C305.878 396.443 306.315 396.56 306.774 396.56C307.243 396.56 307.681 396.443 308.086 396.208C308.502 395.963 308.833 395.611 309.078 395.152C309.334 394.693 309.462 394.16 309.462 393.552C309.462 392.944 309.334 392.421 309.078 391.984C308.833 391.536 308.502 391.2 308.086 390.976C307.681 390.741 307.243 390.624 306.774 390.624ZM320.047 390.672V395.552C320.047 395.883 320.121 396.123 320.271 396.272C320.431 396.411 320.697 396.48 321.071 396.48H322.191V398H320.751C319.929 398 319.3 397.808 318.863 397.424C318.425 397.04 318.207 396.416 318.207 395.552V390.672H317.167V389.184H318.207V386.992H320.047V389.184H322.191V390.672H320.047ZM328.512 389.04C329.152 389.04 329.728 389.184 330.24 389.472C330.763 389.76 331.173 390.187 331.472 390.752C331.781 391.317 331.936 392 331.936 392.8V398H330.128V393.072C330.128 392.283 329.931 391.68 329.536 391.264C329.141 390.837 328.603 390.624 327.92 390.624C327.237 390.624 326.693 390.837 326.288 391.264C325.893 391.68 325.696 392.283 325.696 393.072V398H323.872V386.16H325.696V390.576C325.984 390.075 326.368 389.696 326.848 389.44C327.339 389.173 327.893 389.04 328.512 389.04ZM342.343 393.344C342.343 393.653 342.321 393.941 342.279 394.208H335.527C335.569 394.944 335.815 395.531 336.263 395.968C336.721 396.395 337.292 396.608 337.975 396.608C338.967 396.608 339.665 396.197 340.071 395.376H342.039C341.772 396.187 341.287 396.853 340.583 397.376C339.879 397.888 339.009 398.144 337.975 398.144C337.132 398.144 336.385 397.957 335.735 397.584C335.084 397.2 334.572 396.667 334.199 395.984C333.836 395.291 333.655 394.491 333.655 393.584C333.655 392.677 333.836 391.883 334.199 391.2C334.572 390.507 335.089 389.973 335.751 389.6C336.423 389.227 337.191 389.04 338.055 389.04C338.887 389.04 339.628 389.221 340.279 389.584C340.929 389.947 341.436 390.453 341.799 391.104C342.161 391.755 342.343 392.501 342.343 393.344ZM340.439 392.96C340.428 392.235 340.188 391.659 339.719 391.232C339.249 390.795 338.668 390.576 337.975 390.576C337.324 390.576 336.769 390.795 336.311 391.232C335.863 391.659 335.607 392.235 335.543 392.96H340.439ZM352.63 390.672H350.998V398H349.158V390.672H348.118V389.184H349.158V388.56C349.158 387.547 349.425 386.811 349.958 386.352C350.502 385.883 351.35 385.648 352.502 385.648V387.168C351.948 387.168 351.558 387.275 351.334 387.488C351.11 387.691 350.998 388.048 350.998 388.56V389.184H352.63V390.672ZM358.151 389.04C358.994 389.04 359.756 389.227 360.439 389.6C361.122 389.973 361.66 390.507 362.055 391.2C362.45 391.893 362.647 392.688 362.647 393.584C362.647 394.48 362.444 395.275 362.039 395.968C361.634 396.661 361.079 397.2 360.375 397.584C359.682 397.957 358.914 398.144 358.071 398.144C357.239 398.144 356.487 397.957 355.815 397.584C355.143 397.2 354.615 396.667 354.231 395.984C353.847 395.291 353.655 394.491 353.655 393.584C353.655 392.688 353.852 391.893 354.247 391.2C354.642 390.507 355.18 389.973 355.863 389.6C356.546 389.227 357.308 389.04 358.151 389.04ZM358.119 390.576C357.65 390.576 357.218 390.693 356.823 390.928C356.428 391.152 356.108 391.493 355.863 391.952C355.628 392.4 355.511 392.944 355.511 393.584C355.511 394.224 355.623 394.773 355.847 395.232C356.082 395.691 356.391 396.037 356.775 396.272C357.17 396.496 357.602 396.608 358.071 396.608C358.54 396.608 358.978 396.491 359.383 396.256C359.799 396.021 360.135 395.68 360.391 395.232C360.647 394.773 360.775 394.224 360.775 393.584C360.775 392.944 360.652 392.4 360.407 391.952C360.162 391.493 359.836 391.152 359.431 390.928C359.026 390.693 358.588 390.576 358.119 390.576ZM366.274 390.72C366.541 390.187 366.893 389.776 367.33 389.488C367.778 389.189 368.306 389.04 368.914 389.04V390.928H368.45C367.735 390.928 367.191 391.109 366.818 391.472C366.455 391.835 366.274 392.464 366.274 393.36V398H364.45V389.184H366.274V390.72ZM381.423 389.04C382.084 389.04 382.676 389.184 383.199 389.472C383.721 389.76 384.132 390.187 384.431 390.752C384.74 391.317 384.895 392 384.895 392.8V398H383.071V393.072C383.071 392.283 382.873 391.68 382.479 391.264C382.084 390.837 381.545 390.624 380.863 390.624C380.18 390.624 379.641 390.837 379.247 391.264C378.852 391.68 378.655 392.283 378.655 393.072V398H376.847V393.072C376.847 392.283 376.649 391.68 376.255 391.264C375.86 390.837 375.321 390.624 374.639 390.624C373.956 390.624 373.412 390.837 373.007 391.264C372.612 391.68 372.415 392.283 372.415 393.072V398H370.591V389.184H372.415V390.576C372.703 390.075 373.087 389.696 373.567 389.44C374.057 389.173 374.612 389.04 375.231 389.04C375.913 389.04 376.521 389.2 377.055 389.52C377.588 389.84 377.993 390.304 378.271 390.912C378.58 390.325 379.007 389.867 379.551 389.536C380.105 389.205 380.729 389.04 381.423 389.04ZM395.565 389.04C396.258 389.04 396.866 389.2 397.389 389.52C397.922 389.829 398.333 390.24 398.621 390.752V389.184H400.461V398H398.621V396.352C398.322 396.896 397.911 397.333 397.389 397.664C396.866 397.984 396.258 398.144 395.565 398.144C394.797 398.144 394.093 397.952 393.453 397.568C392.823 397.173 392.322 396.629 391.949 395.936C391.586 395.232 391.405 394.437 391.405 393.552C391.405 392.667 391.586 391.883 391.949 391.2C392.322 390.517 392.823 389.989 393.453 389.616C394.093 389.232 394.797 389.04 395.565 389.04ZM395.949 390.624C395.479 390.624 395.042 390.741 394.637 390.976C394.231 391.2 393.901 391.536 393.645 391.984C393.399 392.421 393.277 392.944 393.277 393.552C393.277 394.16 393.399 394.693 393.645 395.152C393.901 395.611 394.231 395.963 394.637 396.208C395.053 396.443 395.49 396.56 395.949 396.56C396.418 396.56 396.855 396.443 397.261 396.208C397.666 395.973 397.991 395.632 398.237 395.184C398.493 394.725 398.621 394.192 398.621 393.584C398.621 392.976 398.493 392.448 398.237 392C397.991 391.552 397.666 391.211 397.261 390.976C396.855 390.741 396.418 390.624 395.949 390.624ZM407.496 389.04C408.136 389.04 408.712 389.184 409.224 389.472C409.747 389.76 410.158 390.187 410.456 390.752C410.766 391.317 410.92 392 410.92 392.8V398H409.112V393.072C409.112 392.283 408.915 391.68 408.52 391.264C408.126 390.837 407.587 390.624 406.904 390.624C406.222 390.624 405.678 390.837 405.272 391.264C404.878 391.68 404.68 392.283 404.68 393.072V398H402.856V389.184H404.68V390.576C404.968 390.075 405.352 389.696 405.832 389.44C406.323 389.173 406.878 389.04 407.496 389.04ZM416.799 389.04C417.492 389.04 418.1 389.2 418.623 389.52C419.156 389.829 419.567 390.24 419.855 390.752V386.16H421.695V398H419.855V396.352C419.556 396.896 419.146 397.333 418.623 397.664C418.1 397.984 417.492 398.144 416.799 398.144C416.031 398.144 415.327 397.952 414.687 397.568C414.058 397.173 413.556 396.629 413.183 395.936C412.82 395.232 412.639 394.437 412.639 393.552C412.639 392.667 412.82 391.883 413.183 391.2C413.556 390.517 414.058 389.989 414.687 389.616C415.327 389.232 416.031 389.04 416.799 389.04ZM417.183 390.624C416.714 390.624 416.276 390.741 415.871 390.976C415.466 391.2 415.135 391.536 414.879 391.984C414.634 392.421 414.511 392.944 414.511 393.552C414.511 394.16 414.634 394.693 414.879 395.152C415.135 395.611 415.466 395.963 415.871 396.208C416.287 396.443 416.724 396.56 417.183 396.56C417.652 396.56 418.09 396.443 418.495 396.208C418.9 395.973 419.226 395.632 419.471 395.184C419.727 394.725 419.855 394.192 419.855 393.584C419.855 392.976 419.727 392.448 419.471 392C419.226 391.552 418.9 391.211 418.495 390.976C418.09 390.741 417.652 390.624 417.183 390.624ZM432.792 389.04C433.634 389.04 434.397 389.227 435.08 389.6C435.762 389.973 436.301 390.507 436.696 391.2C437.09 391.893 437.288 392.688 437.288 393.584C437.288 394.48 437.085 395.275 436.68 395.968C436.274 396.661 435.72 397.2 435.016 397.584C434.322 397.957 433.554 398.144 432.712 398.144C431.88 398.144 431.128 397.957 430.456 397.584C429.784 397.2 429.256 396.667 428.872 395.984C428.488 395.291 428.296 394.491 428.296 393.584C428.296 392.688 428.493 391.893 428.888 391.2C429.282 390.507 429.821 389.973 430.504 389.6C431.186 389.227 431.949 389.04 432.792 389.04ZM432.76 390.576C432.29 390.576 431.858 390.693 431.464 390.928C431.069 391.152 430.749 391.493 430.504 391.952C430.269 392.4 430.152 392.944 430.152 393.584C430.152 394.224 430.264 394.773 430.488 395.232C430.722 395.691 431.032 396.037 431.416 396.272C431.81 396.496 432.242 396.608 432.712 396.608C433.181 396.608 433.618 396.491 434.024 396.256C434.44 396.021 434.776 395.68 435.032 395.232C435.288 394.773 435.416 394.224 435.416 393.584C435.416 392.944 435.293 392.4 435.048 391.952C434.802 391.493 434.477 391.152 434.072 390.928C433.666 390.693 433.229 390.576 432.76 390.576ZM447.075 389.184V398H445.251V396.608C444.963 397.109 444.573 397.488 444.083 397.744C443.603 398 443.053 398.128 442.435 398.128C441.795 398.128 441.213 397.984 440.691 397.696C440.179 397.408 439.768 396.987 439.459 396.432C439.16 395.867 439.011 395.184 439.011 394.384V389.184H440.819V394.112C440.819 394.901 441.016 395.509 441.411 395.936C441.805 396.352 442.344 396.56 443.027 396.56C443.709 396.56 444.248 396.352 444.643 395.936C445.048 395.509 445.251 394.901 445.251 394.112V389.184H447.075ZM451.305 390.72C451.572 390.187 451.924 389.776 452.361 389.488C452.809 389.189 453.337 389.04 453.945 389.04V390.928H453.481C452.767 390.928 452.223 391.109 451.849 391.472C451.487 391.835 451.305 392.464 451.305 393.36V398H449.481V389.184H451.305V390.72ZM467.603 386.88V388.304H464.643V398H462.819V388.304H459.843V386.88H467.603ZM477.53 393.344C477.53 393.653 477.509 393.941 477.466 394.208H470.714C470.757 394.944 471.002 395.531 471.45 395.968C471.909 396.395 472.479 396.608 473.162 396.608C474.154 396.608 474.853 396.197 475.258 395.376H477.226C476.959 396.187 476.474 396.853 475.77 397.376C475.066 397.888 474.197 398.144 473.162 398.144C472.319 398.144 471.573 397.957 470.922 397.584C470.271 397.2 469.759 396.667 469.386 395.984C469.023 395.291 468.842 394.491 468.842 393.584C468.842 392.677 469.023 391.883 469.386 391.2C469.759 390.507 470.277 389.973 470.938 389.6C471.61 389.227 472.378 389.04 473.242 389.04C474.074 389.04 474.815 389.221 475.466 389.584C476.117 389.947 476.623 390.453 476.986 391.104C477.349 391.755 477.53 392.501 477.53 393.344ZM475.626 392.96C475.615 392.235 475.375 391.659 474.906 391.232C474.437 390.795 473.855 390.576 473.162 390.576C472.511 390.576 471.957 390.795 471.498 391.232C471.05 391.659 470.794 392.235 470.73 392.96H475.626ZM482.877 389.04C483.57 389.04 484.178 389.2 484.701 389.52C485.234 389.829 485.645 390.24 485.933 390.752V389.184H487.773V398H485.933V396.352C485.634 396.896 485.224 397.333 484.701 397.664C484.178 397.984 483.57 398.144 482.877 398.144C482.109 398.144 481.405 397.952 480.765 397.568C480.136 397.173 479.634 396.629 479.261 395.936C478.898 395.232 478.717 394.437 478.717 393.552C478.717 392.667 478.898 391.883 479.261 391.2C479.634 390.517 480.136 389.989 480.765 389.616C481.405 389.232 482.109 389.04 482.877 389.04ZM483.261 390.624C482.792 390.624 482.354 390.741 481.949 390.976C481.544 391.2 481.213 391.536 480.957 391.984C480.712 392.421 480.589 392.944 480.589 393.552C480.589 394.16 480.712 394.693 480.957 395.152C481.213 395.611 481.544 395.963 481.949 396.208C482.365 396.443 482.802 396.56 483.261 396.56C483.73 396.56 484.168 396.443 484.573 396.208C484.978 395.973 485.304 395.632 485.549 395.184C485.805 394.725 485.933 394.192 485.933 393.584C485.933 392.976 485.805 392.448 485.549 392C485.304 391.552 484.978 391.211 484.573 390.976C484.168 390.741 483.73 390.624 483.261 390.624ZM501.001 389.04C501.662 389.04 502.254 389.184 502.777 389.472C503.299 389.76 503.71 390.187 504.009 390.752C504.318 391.317 504.473 392 504.473 392.8V398H502.649V393.072C502.649 392.283 502.451 391.68 502.057 391.264C501.662 390.837 501.123 390.624 500.441 390.624C499.758 390.624 499.219 390.837 498.825 391.264C498.43 391.68 498.233 392.283 498.233 393.072V398H496.425V393.072C496.425 392.283 496.227 391.68 495.833 391.264C495.438 390.837 494.899 390.624 494.217 390.624C493.534 390.624 492.99 390.837 492.585 391.264C492.19 391.68 491.993 392.283 491.993 393.072V398H490.169V389.184H491.993V390.576C492.281 390.075 492.665 389.696 493.145 389.44C493.635 389.173 494.19 389.04 494.809 389.04C495.491 389.04 496.099 389.2 496.633 389.52C497.166 389.84 497.571 390.304 497.849 390.912C498.158 390.325 498.585 389.867 499.129 389.536C499.683 389.205 500.307 389.04 501.001 389.04ZM523.431 389.184L520.695 398H518.775L516.999 391.488L515.223 398H513.303L510.551 389.184H512.407L514.247 396.272L516.119 389.184H518.023L519.815 396.24L521.639 389.184H523.431ZM524.554 386.848C524.554 386.517 524.666 386.24 524.89 386.016C525.114 385.792 525.391 385.68 525.722 385.68C526.042 385.68 526.314 385.792 526.538 386.016C526.762 386.24 526.874 386.517 526.874 386.848C526.874 387.179 526.762 387.456 526.538 387.68C526.314 387.904 526.042 388.016 525.722 388.016C525.391 388.016 525.114 387.904 524.89 387.68C524.666 387.456 524.554 387.179 524.554 386.848ZM526.618 389.184V398H524.794V389.184H526.618ZM530.837 386.16V398H529.013V386.16H530.837ZM535.055 386.16V398H533.231V386.16H535.055ZM545.799 389.04C546.492 389.04 547.1 389.2 547.623 389.52C548.156 389.829 548.567 390.24 548.855 390.752V389.184H550.695V398.144C550.695 398.955 550.524 399.675 550.183 400.304C549.842 400.944 549.346 401.445 548.695 401.808C548.055 402.171 547.287 402.352 546.391 402.352C545.196 402.352 544.204 402.069 543.415 401.504C542.626 400.949 542.178 400.192 542.071 399.232H543.879C544.018 399.691 544.311 400.059 544.759 400.336C545.218 400.624 545.762 400.768 546.391 400.768C547.127 400.768 547.719 400.544 548.167 400.096C548.626 399.648 548.855 398.997 548.855 398.144V396.352C548.556 396.896 548.146 397.333 547.623 397.664C547.1 397.984 546.492 398.144 545.799 398.144C545.031 398.144 544.327 397.952 543.687 397.568C543.058 397.173 542.556 396.629 542.183 395.936C541.82 395.232 541.639 394.437 541.639 393.552C541.639 392.667 541.82 391.883 542.183 391.2C542.556 390.517 543.058 389.989 543.687 389.616C544.327 389.232 545.031 389.04 545.799 389.04ZM546.183 390.624C545.714 390.624 545.276 390.741 544.871 390.976C544.466 391.2 544.135 391.536 543.879 391.984C543.634 392.421 543.511 392.944 543.511 393.552C543.511 394.16 543.634 394.693 543.879 395.152C544.135 395.611 544.466 395.963 544.871 396.208C545.287 396.443 545.724 396.56 546.183 396.56C546.652 396.56 547.09 396.443 547.495 396.208C547.9 395.973 548.226 395.632 548.471 395.184C548.727 394.725 548.855 394.192 548.855 393.584C548.855 392.976 548.727 392.448 548.471 392C548.226 391.552 547.9 391.211 547.495 390.976C547.09 390.741 546.652 390.624 546.183 390.624ZM561.171 393.344C561.171 393.653 561.149 393.941 561.107 394.208H554.355C554.397 394.944 554.643 395.531 555.091 395.968C555.549 396.395 556.12 396.608 556.803 396.608C557.795 396.608 558.493 396.197 558.899 395.376H560.867C560.6 396.187 560.115 396.853 559.411 397.376C558.707 397.888 557.837 398.144 556.803 398.144C555.96 398.144 555.213 397.957 554.563 397.584C553.912 397.2 553.4 396.667 553.027 395.984C552.664 395.291 552.483 394.491 552.483 393.584C552.483 392.677 552.664 391.883 553.027 391.2C553.4 390.507 553.917 389.973 554.579 389.6C555.251 389.227 556.019 389.04 556.883 389.04C557.715 389.04 558.456 389.221 559.107 389.584C559.757 389.947 560.264 390.453 560.627 391.104C560.989 391.755 561.171 392.501 561.171 393.344ZM559.267 392.96C559.256 392.235 559.016 391.659 558.547 391.232C558.077 390.795 557.496 390.576 556.803 390.576C556.152 390.576 555.597 390.795 555.139 391.232C554.691 391.659 554.435 392.235 554.371 392.96H559.267ZM565.094 390.672V395.552C565.094 395.883 565.168 396.123 565.318 396.272C565.478 396.411 565.744 396.48 566.118 396.48H567.238V398H565.798C564.976 398 564.347 397.808 563.91 397.424C563.472 397.04 563.254 396.416 563.254 395.552V390.672H562.214V389.184H563.254V386.992H565.094V389.184H567.238V390.672H565.094ZM578.612 389.04C579.38 389.04 580.078 389.232 580.708 389.616C581.348 389.989 581.849 390.517 582.212 391.2C582.574 391.883 582.756 392.667 582.756 393.552C582.756 394.437 582.574 395.232 582.212 395.936C581.849 396.629 581.348 397.173 580.708 397.568C580.078 397.952 579.38 398.144 578.612 398.144C577.918 398.144 577.31 397.984 576.788 397.664C576.265 397.333 575.849 396.896 575.54 396.352V398H573.716V386.16H575.54V390.752C575.838 390.24 576.249 389.829 576.772 389.52C577.305 389.2 577.918 389.04 578.612 389.04ZM578.212 390.624C577.753 390.624 577.316 390.741 576.9 390.976C576.494 391.211 576.164 391.552 575.908 392C575.662 392.448 575.54 392.976 575.54 393.584C575.54 394.192 575.662 394.725 575.908 395.184C576.164 395.632 576.494 395.973 576.9 396.208C577.316 396.443 577.753 396.56 578.212 396.56C578.681 396.56 579.118 396.443 579.524 396.208C579.94 395.963 580.27 395.611 580.516 395.152C580.772 394.693 580.9 394.16 580.9 393.552C580.9 392.944 580.772 392.421 580.516 391.984C580.27 391.536 579.94 391.2 579.524 390.976C579.118 390.741 578.681 390.624 578.212 390.624ZM588.111 389.04C588.805 389.04 589.413 389.2 589.935 389.52C590.469 389.829 590.879 390.24 591.167 390.752V389.184H593.007V398H591.167V396.352C590.869 396.896 590.458 397.333 589.935 397.664C589.413 397.984 588.805 398.144 588.111 398.144C587.343 398.144 586.639 397.952 585.999 397.568C585.37 397.173 584.869 396.629 584.495 395.936C584.133 395.232 583.951 394.437 583.951 393.552C583.951 392.667 584.133 391.883 584.495 391.2C584.869 390.517 585.37 389.989 585.999 389.616C586.639 389.232 587.343 389.04 588.111 389.04ZM588.495 390.624C588.026 390.624 587.589 390.741 587.183 390.976C586.778 391.2 586.447 391.536 586.191 391.984C585.946 392.421 585.823 392.944 585.823 393.552C585.823 394.16 585.946 394.693 586.191 395.152C586.447 395.611 586.778 395.963 587.183 396.208C587.599 396.443 588.037 396.56 588.495 396.56C588.965 396.56 589.402 396.443 589.807 396.208C590.213 395.973 590.538 395.632 590.783 395.184C591.039 394.725 591.167 394.192 591.167 393.584C591.167 392.976 591.039 392.448 590.783 392C590.538 391.552 590.213 391.211 589.807 390.976C589.402 390.741 588.965 390.624 588.495 390.624ZM599.115 389.04C600.182 389.04 601.062 389.296 601.755 389.808C602.459 390.309 602.934 391.029 603.179 391.968H601.211C601.051 391.531 600.795 391.189 600.443 390.944C600.091 390.699 599.648 390.576 599.115 390.576C598.368 390.576 597.771 390.843 597.323 391.376C596.886 391.899 596.667 392.635 596.667 393.584C596.667 394.533 596.886 395.275 597.323 395.808C597.771 396.341 598.368 396.608 599.115 396.608C600.171 396.608 600.87 396.144 601.211 395.216H603.179C602.923 396.112 602.443 396.827 601.739 397.36C601.035 397.883 600.16 398.144 599.115 398.144C598.272 398.144 597.526 397.957 596.875 397.584C596.224 397.2 595.712 396.667 595.339 395.984C594.976 395.291 594.795 394.491 594.795 393.584C594.795 392.677 594.976 391.883 595.339 391.2C595.712 390.507 596.224 389.973 596.875 389.6C597.526 389.227 598.272 389.04 599.115 389.04ZM608.485 393.6L612.549 398H610.085L606.821 394.208V398H604.997V386.16H606.821V393.04L610.021 389.184H612.549L608.485 393.6ZM620.781 390.672V395.552C620.781 395.883 620.856 396.123 621.005 396.272C621.165 396.411 621.432 396.48 621.805 396.48H622.925V398H621.485C620.664 398 620.034 397.808 619.597 397.424C619.16 397.04 618.941 396.416 618.941 395.552V390.672H617.901V389.184H618.941V386.992H620.781V389.184H622.925V390.672H620.781ZM628.51 389.04C629.353 389.04 630.116 389.227 630.798 389.6C631.481 389.973 632.02 390.507 632.414 391.2C632.809 391.893 633.006 392.688 633.006 393.584C633.006 394.48 632.804 395.275 632.398 395.968C631.993 396.661 631.438 397.2 630.734 397.584C630.041 397.957 629.273 398.144 628.43 398.144C627.598 398.144 626.846 397.957 626.174 397.584C625.502 397.2 624.974 396.667 624.59 395.984C624.206 395.291 624.014 394.491 624.014 393.584C624.014 392.688 624.212 391.893 624.606 391.2C625.001 390.507 625.54 389.973 626.222 389.6C626.905 389.227 627.668 389.04 628.51 389.04ZM628.478 390.576C628.009 390.576 627.577 390.693 627.182 390.928C626.788 391.152 626.468 391.493 626.222 391.952C625.988 392.4 625.87 392.944 625.87 393.584C625.87 394.224 625.982 394.773 626.206 395.232C626.441 395.691 626.75 396.037 627.134 396.272C627.529 396.496 627.961 396.608 628.43 396.608C628.9 396.608 629.337 396.491 629.742 396.256C630.158 396.021 630.494 395.68 630.75 395.232C631.006 394.773 631.134 394.224 631.134 393.584C631.134 392.944 631.012 392.4 630.766 391.952C630.521 391.493 630.196 391.152 629.79 390.928C629.385 390.693 628.948 390.576 628.478 390.576ZM640.598 389.184L643.078 395.904L645.654 389.184H647.542L642.134 402.144H640.246L642.038 397.856L638.566 389.184H640.598ZM652.823 389.04C653.665 389.04 654.428 389.227 655.111 389.6C655.793 389.973 656.332 390.507 656.727 391.2C657.121 391.893 657.319 392.688 657.319 393.584C657.319 394.48 657.116 395.275 656.711 395.968C656.305 396.661 655.751 397.2 655.047 397.584C654.353 397.957 653.585 398.144 652.743 398.144C651.911 398.144 651.159 397.957 650.487 397.584C649.815 397.2 649.287 396.667 648.903 395.984C648.519 395.291 648.327 394.491 648.327 393.584C648.327 392.688 648.524 391.893 648.919 391.2C649.313 390.507 649.852 389.973 650.535 389.6C651.217 389.227 651.98 389.04 652.823 389.04ZM652.791 390.576C652.321 390.576 651.889 390.693 651.495 390.928C651.1 391.152 650.78 391.493 650.535 391.952C650.3 392.4 650.183 392.944 650.183 393.584C650.183 394.224 650.295 394.773 650.519 395.232C650.753 395.691 651.063 396.037 651.447 396.272C651.841 396.496 652.273 396.608 652.743 396.608C653.212 396.608 653.649 396.491 654.055 396.256C654.471 396.021 654.807 395.68 655.063 395.232C655.319 394.773 655.447 394.224 655.447 393.584C655.447 392.944 655.324 392.4 655.079 391.952C654.833 391.493 654.508 391.152 654.103 390.928C653.697 390.693 653.26 390.576 652.791 390.576ZM667.106 389.184V398H665.282V396.608C664.994 397.109 664.605 397.488 664.114 397.744C663.634 398 663.085 398.128 662.466 398.128C661.826 398.128 661.245 397.984 660.722 397.696C660.21 397.408 659.799 396.987 659.49 396.432C659.191 395.867 659.042 395.184 659.042 394.384V389.184H660.85V394.112C660.85 394.901 661.047 395.509 661.442 395.936C661.837 396.352 662.375 396.56 663.058 396.56C663.741 396.56 664.279 396.352 664.674 395.936C665.079 395.509 665.282 394.901 665.282 394.112V389.184H667.106ZM686.149 389.184L683.413 398H681.493L679.717 391.488L677.941 398H676.021L673.269 389.184H675.125L676.965 396.272L678.837 389.184H680.741L682.533 396.24L684.357 389.184H686.149ZM687.273 386.848C687.273 386.517 687.385 386.24 687.609 386.016C687.833 385.792 688.11 385.68 688.441 385.68C688.761 385.68 689.033 385.792 689.257 386.016C689.481 386.24 689.593 386.517 689.593 386.848C689.593 387.179 689.481 387.456 689.257 387.68C689.033 387.904 688.761 388.016 688.441 388.016C688.11 388.016 687.833 387.904 687.609 387.68C687.385 387.456 687.273 387.179 687.273 386.848ZM689.337 389.184V398H687.513V389.184H689.337ZM693.859 390.672V395.552C693.859 395.883 693.934 396.123 694.083 396.272C694.243 396.411 694.51 396.48 694.883 396.48H696.003V398H694.563C693.742 398 693.113 397.808 692.675 397.424C692.238 397.04 692.019 396.416 692.019 395.552V390.672H690.979V389.184H692.019V386.992H693.859V389.184H696.003V390.672H693.859ZM702.324 389.04C702.964 389.04 703.54 389.184 704.052 389.472C704.575 389.76 704.986 390.187 705.284 390.752C705.594 391.317 705.748 392 705.748 392.8V398H703.94V393.072C703.94 392.283 703.743 391.68 703.348 391.264C702.954 390.837 702.415 390.624 701.732 390.624C701.05 390.624 700.506 390.837 700.1 391.264C699.706 391.68 699.508 392.283 699.508 393.072V398H697.684V386.16H699.508V390.576C699.796 390.075 700.18 389.696 700.66 389.44C701.151 389.173 701.706 389.04 702.324 389.04ZM707.835 386.848C707.835 386.517 707.947 386.24 708.171 386.016C708.395 385.792 708.672 385.68 709.003 385.68C709.323 385.68 709.595 385.792 709.819 386.016C710.043 386.24 710.155 386.517 710.155 386.848C710.155 387.179 710.043 387.456 709.819 387.68C709.595 387.904 709.323 388.016 709.003 388.016C708.672 388.016 708.395 387.904 708.171 387.68C707.947 387.456 707.835 387.179 707.835 386.848ZM709.899 389.184V398H708.075V389.184H709.899ZM716.934 389.04C717.574 389.04 718.15 389.184 718.662 389.472C719.184 389.76 719.595 390.187 719.894 390.752C720.203 391.317 720.358 392 720.358 392.8V398H718.55V393.072C718.55 392.283 718.352 391.68 717.958 391.264C717.563 390.837 717.024 390.624 716.342 390.624C715.659 390.624 715.115 390.837 714.71 391.264C714.315 391.68 714.118 392.283 714.118 393.072V398H712.294V389.184H714.118V390.576C714.406 390.075 714.79 389.696 715.27 389.44C715.76 389.173 716.315 389.04 716.934 389.04ZM267 419.488C268.024 418.613 268.829 417.893 269.416 417.328C270.003 416.763 270.488 416.181 270.872 415.584C271.267 414.976 271.464 414.379 271.464 413.792C271.464 413.184 271.309 412.704 271 412.352C270.701 412 270.227 411.824 269.576 411.824C268.947 411.824 268.456 412.027 268.104 412.432C267.763 412.827 267.581 413.36 267.56 414.032H265.8C265.832 412.816 266.195 411.888 266.888 411.248C267.592 410.597 268.483 410.272 269.56 410.272C270.339 410.272 271.005 410.416 271.56 410.704C272.115 410.992 272.536 411.397 272.824 411.92C273.123 412.443 273.272 413.04 273.272 413.712C273.272 414.448 273.075 415.163 272.68 415.856C272.296 416.549 271.837 417.173 271.304 417.728C270.771 418.283 270.088 418.928 269.256 419.664L268.52 420.32H273.592V421.84H265.816V420.512L267 419.488ZM274.97 419.568V418.192L280.346 410.48H282.554V417.984H284.042V419.568H282.554V422H280.762V419.568H274.97ZM280.842 412.336L277.066 417.984H280.842V412.336ZM295.231 413.04C295.871 413.04 296.447 413.184 296.959 413.472C297.481 413.76 297.892 414.187 298.191 414.752C298.5 415.317 298.655 416 298.655 416.8V422H296.847V417.072C296.847 416.283 296.649 415.68 296.255 415.264C295.86 414.837 295.321 414.624 294.639 414.624C293.956 414.624 293.412 414.837 293.007 415.264C292.612 415.68 292.415 416.283 292.415 417.072V422H290.591V410.16H292.415V414.576C292.703 414.075 293.087 413.696 293.567 413.44C294.057 413.173 294.612 413.04 295.231 413.04ZM304.885 413.04C305.728 413.04 306.491 413.227 307.173 413.6C307.856 413.973 308.395 414.507 308.789 415.2C309.184 415.893 309.381 416.688 309.381 417.584C309.381 418.48 309.179 419.275 308.773 419.968C308.368 420.661 307.813 421.2 307.109 421.584C306.416 421.957 305.648 422.144 304.805 422.144C303.973 422.144 303.221 421.957 302.549 421.584C301.877 421.2 301.349 420.667 300.965 419.984C300.581 419.291 300.389 418.491 300.389 417.584C300.389 416.688 300.587 415.893 300.981 415.2C301.376 414.507 301.915 413.973 302.597 413.6C303.28 413.227 304.043 413.04 304.885 413.04ZM304.853 414.576C304.384 414.576 303.952 414.693 303.557 414.928C303.163 415.152 302.843 415.493 302.597 415.952C302.363 416.4 302.245 416.944 302.245 417.584C302.245 418.224 302.357 418.773 302.581 419.232C302.816 419.691 303.125 420.037 303.509 420.272C303.904 420.496 304.336 420.608 304.805 420.608C305.275 420.608 305.712 420.491 306.117 420.256C306.533 420.021 306.869 419.68 307.125 419.232C307.381 418.773 307.509 418.224 307.509 417.584C307.509 416.944 307.387 416.4 307.141 415.952C306.896 415.493 306.571 415.152 306.165 414.928C305.76 414.693 305.323 414.576 304.853 414.576ZM319.168 413.184V422H317.344V420.608C317.056 421.109 316.667 421.488 316.176 421.744C315.696 422 315.147 422.128 314.528 422.128C313.888 422.128 313.307 421.984 312.784 421.696C312.272 421.408 311.862 420.987 311.552 420.432C311.254 419.867 311.104 419.184 311.104 418.384V413.184H312.912V418.112C312.912 418.901 313.11 419.509 313.504 419.936C313.899 420.352 314.438 420.56 315.12 420.56C315.803 420.56 316.342 420.352 316.736 419.936C317.142 419.509 317.344 418.901 317.344 418.112V413.184H319.168ZM323.399 414.72C323.666 414.187 324.018 413.776 324.455 413.488C324.903 413.189 325.431 413.04 326.039 413.04V414.928H325.575C324.86 414.928 324.316 415.109 323.943 415.472C323.58 415.835 323.399 416.464 323.399 417.36V422H321.575V413.184H323.399V414.72ZM330.804 413.04C331.785 413.04 332.574 413.296 333.172 413.808C333.78 414.309 334.105 414.997 334.148 415.872H332.276C332.244 415.435 332.089 415.093 331.812 414.848C331.545 414.603 331.166 414.48 330.676 414.48C330.185 414.48 329.801 414.592 329.524 414.816C329.246 415.029 329.108 415.307 329.108 415.648C329.108 415.925 329.198 416.149 329.38 416.32C329.561 416.491 329.79 416.624 330.068 416.72C330.356 416.805 330.74 416.901 331.22 417.008C331.87 417.157 332.393 417.307 332.788 417.456C333.193 417.605 333.54 417.851 333.828 418.192C334.116 418.523 334.26 418.976 334.26 419.552C334.26 420.053 334.11 420.501 333.812 420.896C333.524 421.291 333.118 421.6 332.596 421.824C332.073 422.037 331.481 422.144 330.82 422.144C329.796 422.144 328.969 421.899 328.34 421.408C327.71 420.917 327.364 420.219 327.3 419.312H329.188C329.22 419.749 329.38 420.091 329.668 420.336C329.956 420.581 330.34 420.704 330.82 420.704C331.332 420.704 331.732 420.597 332.02 420.384C332.318 420.16 332.468 419.872 332.468 419.52C332.468 419.232 332.372 419.003 332.18 418.832C331.998 418.661 331.764 418.533 331.476 418.448C331.188 418.352 330.798 418.251 330.308 418.144C329.668 417.995 329.15 417.851 328.756 417.712C328.361 417.563 328.02 417.328 327.732 417.008C327.454 416.688 327.316 416.256 327.316 415.712C327.316 415.221 327.454 414.773 327.732 414.368C328.009 413.963 328.409 413.643 328.932 413.408C329.465 413.163 330.089 413.04 330.804 413.04Z" fill="white" fill-opacity="0.35"/>
<circle cx="732" cy="890" r="135" fill="#184E81"/>
<circle cx="643.5" cy="801.5" r="89.5" fill="#20476B" fill-opacity="0.73"/>
<path d="M290.316 527.79L285.065 525.562C284.841 525.468 284.592 525.448 284.355 525.505C284.118 525.563 283.907 525.696 283.753 525.883L281.428 528.695C277.779 526.992 274.842 524.084 273.122 520.472L275.963 518.17C276.152 518.018 276.286 517.808 276.344 517.574C276.403 517.339 276.382 517.093 276.286 516.871L274.036 511.673C273.931 511.434 273.744 511.238 273.509 511.121C273.274 511.003 273.004 510.97 272.747 511.028L267.872 512.142C267.624 512.198 267.403 512.337 267.244 512.534C267.086 512.731 267 512.975 267 513.227C267 525.131 276.745 534.76 288.75 534.76C289.005 534.76 289.252 534.675 289.451 534.518C289.65 534.362 289.79 534.143 289.847 533.897L290.972 529.071C291.03 528.815 290.997 528.547 290.877 528.313C290.757 528.08 290.558 527.894 290.316 527.79Z" fill="white"/>
<path d="M275.113 721.391C264.896 707.791 263 706.395 263 701.397C263 694.55 269.044 689 276.5 689C283.956 689 290 694.55 290 701.397C290 706.395 288.104 707.791 277.887 721.391C277.217 722.28 275.783 722.28 275.113 721.391ZM276.5 706.562C279.607 706.562 282.125 704.249 282.125 701.397C282.125 698.544 279.607 696.231 276.5 696.231C273.393 696.231 270.875 698.544 270.875 701.397C270.875 704.249 273.393 706.562 276.5 706.562Z" fill="white"/>
<path d="M290.488 612.481C290.694 612.323 291 612.471 291 612.722V623.175C291 624.529 289.866 625.628 288.469 625.628H266.531C265.134 625.628 264 624.529 264 623.175V612.727C264 612.471 264.301 612.328 264.512 612.486C265.693 613.376 267.259 614.506 272.638 618.293C273.751 619.08 275.628 620.736 277.5 620.726C279.383 620.742 281.297 619.05 282.367 618.293C287.746 614.506 289.307 613.371 290.488 612.481ZM277.5 619.085C278.723 619.106 280.485 617.593 281.371 616.969C288.369 612.047 288.901 611.618 290.515 610.391C290.821 610.161 291 609.803 291 609.425V608.454C291 607.099 289.866 606 288.469 606H266.531C265.134 606 264 607.099 264 608.454V609.425C264 609.803 264.179 610.156 264.485 610.391C266.099 611.612 266.631 612.047 273.629 616.969C274.515 617.593 276.277 619.106 277.5 619.085Z" fill="white"/>
<path d="M343.016 525.42H339.398V529.092H337.454V525.42H333.836V523.584H337.454V519.912H339.398V523.584H343.016V525.42ZM345.93 524.412C345.93 526.452 346.278 528.054 346.974 529.218C347.682 530.382 348.894 530.964 350.61 530.964C352.326 530.964 353.532 530.382 354.228 529.218C354.936 528.054 355.29 526.452 355.29 524.412C355.29 522.384 354.936 520.788 354.228 519.624C353.532 518.46 352.326 517.878 350.61 517.878C348.894 517.878 347.682 518.46 346.974 519.624C346.278 520.788 345.93 522.384 345.93 524.412ZM353.274 524.412C353.274 525.372 353.208 526.182 353.076 526.842C352.956 527.502 352.704 528.042 352.32 528.462C351.936 528.882 351.366 529.092 350.61 529.092C349.854 529.092 349.284 528.882 348.9 528.462C348.516 528.042 348.258 527.502 348.126 526.842C348.006 526.182 347.946 525.372 347.946 524.412C347.946 523.464 348.006 522.66 348.126 522C348.258 521.34 348.516 520.8 348.9 520.38C349.284 519.96 349.854 519.75 350.61 519.75C351.366 519.75 351.936 519.96 352.32 520.38C352.704 520.8 352.956 521.34 353.076 522C353.208 522.66 353.274 523.464 353.274 524.412ZM365.921 519.642H359.891V523.224C360.143 522.888 360.515 522.606 361.007 522.378C361.511 522.15 362.045 522.036 362.609 522.036C363.617 522.036 364.433 522.252 365.057 522.684C365.693 523.116 366.143 523.662 366.407 524.322C366.683 524.982 366.821 525.678 366.821 526.41C366.821 527.298 366.647 528.09 366.299 528.786C365.963 529.47 365.453 530.01 364.769 530.406C364.097 530.802 363.269 531 362.285 531C360.977 531 359.927 530.676 359.135 530.028C358.343 529.38 357.869 528.522 357.713 527.454H359.711C359.843 528.018 360.137 528.468 360.593 528.804C361.049 529.128 361.619 529.29 362.303 529.29C363.155 529.29 363.791 529.032 364.211 528.516C364.643 528 364.859 527.316 364.859 526.464C364.859 525.6 364.643 524.94 364.211 524.484C363.779 524.016 363.143 523.782 362.303 523.782C361.715 523.782 361.217 523.932 360.809 524.232C360.413 524.52 360.125 524.916 359.945 525.42H358.001V517.842H365.921V519.642ZM377.417 519.642H371.387V523.224C371.639 522.888 372.011 522.606 372.503 522.378C373.007 522.15 373.541 522.036 374.105 522.036C375.113 522.036 375.929 522.252 376.553 522.684C377.189 523.116 377.639 523.662 377.903 524.322C378.179 524.982 378.317 525.678 378.317 526.41C378.317 527.298 378.143 528.09 377.795 528.786C377.459 529.47 376.949 530.01 376.265 530.406C375.593 530.802 374.765 531 373.781 531C372.473 531 371.423 530.676 370.631 530.028C369.839 529.38 369.365 528.522 369.209 527.454H371.207C371.339 528.018 371.633 528.468 372.089 528.804C372.545 529.128 373.115 529.29 373.799 529.29C374.651 529.29 375.287 529.032 375.707 528.516C376.139 528 376.355 527.316 376.355 526.464C376.355 525.6 376.139 524.94 375.707 524.484C375.275 524.016 374.639 523.782 373.799 523.782C373.211 523.782 372.713 523.932 372.305 524.232C371.909 524.52 371.621 524.916 371.441 525.42H369.497V517.842H377.417V519.642ZM388.913 519.642H382.883V523.224C383.135 522.888 383.507 522.606 383.999 522.378C384.503 522.15 385.037 522.036 385.601 522.036C386.609 522.036 387.425 522.252 388.049 522.684C388.685 523.116 389.135 523.662 389.399 524.322C389.675 524.982 389.813 525.678 389.813 526.41C389.813 527.298 389.639 528.09 389.291 528.786C388.955 529.47 388.445 530.01 387.761 530.406C387.089 530.802 386.261 531 385.277 531C383.969 531 382.919 530.676 382.127 530.028C381.335 529.38 380.861 528.522 380.705 527.454H382.703C382.835 528.018 383.129 528.468 383.585 528.804C384.041 529.128 384.611 529.29 385.295 529.29C386.147 529.29 386.783 529.032 387.203 528.516C387.635 528 387.851 527.316 387.851 526.464C387.851 525.6 387.635 524.94 387.203 524.484C386.771 524.016 386.135 523.782 385.295 523.782C384.707 523.782 384.209 523.932 383.801 524.232C383.405 524.52 383.117 524.916 382.937 525.42H380.993V517.842H388.913V519.642ZM398.516 528.174C399.668 527.19 400.574 526.38 401.234 525.744C401.894 525.108 402.44 524.454 402.872 523.782C403.316 523.098 403.538 522.426 403.538 521.766C403.538 521.082 403.364 520.542 403.016 520.146C402.68 519.75 402.146 519.552 401.414 519.552C400.706 519.552 400.154 519.78 399.758 520.236C399.374 520.68 399.17 521.28 399.146 522.036H397.166C397.202 520.668 397.61 519.624 398.39 518.904C399.182 518.172 400.184 517.806 401.396 517.806C402.272 517.806 403.022 517.968 403.646 518.292C404.27 518.616 404.744 519.072 405.068 519.66C405.404 520.248 405.572 520.92 405.572 521.676C405.572 522.504 405.35 523.308 404.906 524.088C404.474 524.868 403.958 525.57 403.358 526.194C402.758 526.818 401.99 527.544 401.054 528.372L400.226 529.11H405.932V530.82H397.184V529.326L398.516 528.174ZM408.904 528.174C410.056 527.19 410.962 526.38 411.622 525.744C412.282 525.108 412.828 524.454 413.26 523.782C413.704 523.098 413.926 522.426 413.926 521.766C413.926 521.082 413.752 520.542 413.404 520.146C413.068 519.75 412.534 519.552 411.802 519.552C411.094 519.552 410.542 519.78 410.146 520.236C409.762 520.68 409.558 521.28 409.534 522.036H407.554C407.59 520.668 407.998 519.624 408.778 518.904C409.57 518.172 410.572 517.806 411.784 517.806C412.66 517.806 413.41 517.968 414.034 518.292C414.658 518.616 415.132 519.072 415.456 519.66C415.792 520.248 415.96 520.92 415.96 521.676C415.96 522.504 415.738 523.308 415.294 524.088C414.862 524.868 414.346 525.57 413.746 526.194C413.146 526.818 412.378 527.544 411.442 528.372L410.614 529.11H416.32V530.82H407.572V529.326L408.904 528.174ZM419.293 528.174C420.445 527.19 421.351 526.38 422.011 525.744C422.671 525.108 423.217 524.454 423.649 523.782C424.093 523.098 424.315 522.426 424.315 521.766C424.315 521.082 424.141 520.542 423.793 520.146C423.457 519.75 422.923 519.552 422.191 519.552C421.483 519.552 420.931 519.78 420.535 520.236C420.151 520.68 419.947 521.28 419.923 522.036H417.943C417.979 520.668 418.387 519.624 419.167 518.904C419.959 518.172 420.961 517.806 422.173 517.806C423.049 517.806 423.799 517.968 424.423 518.292C425.047 518.616 425.521 519.072 425.845 519.66C426.181 520.248 426.349 520.92 426.349 521.676C426.349 522.504 426.127 523.308 425.683 524.088C425.251 524.868 424.735 525.57 424.135 526.194C423.535 526.818 422.767 527.544 421.831 528.372L421.003 529.11H426.709V530.82H417.961V529.326L419.293 528.174ZM440.964 520.92C440.832 520.368 440.592 519.954 440.244 519.678C439.896 519.402 439.41 519.264 438.786 519.264C437.838 519.264 437.13 519.63 436.662 520.362C436.194 521.082 435.948 522.282 435.924 523.962C436.236 523.434 436.692 523.026 437.292 522.738C437.892 522.45 438.54 522.306 439.236 522.306C440.028 522.306 440.724 522.48 441.324 522.828C441.936 523.164 442.41 523.656 442.746 524.304C443.094 524.952 443.268 525.726 443.268 526.626C443.268 527.466 443.1 528.216 442.764 528.876C442.44 529.536 441.954 530.058 441.306 530.442C440.658 530.814 439.878 531 438.966 531C437.73 531 436.758 530.73 436.05 530.19C435.354 529.638 434.862 528.864 434.574 527.868C434.298 526.872 434.16 525.63 434.16 524.142C434.16 519.75 435.708 517.554 438.804 517.554C440.004 517.554 440.946 517.878 441.63 518.526C442.326 519.174 442.734 519.972 442.854 520.92H440.964ZM436.158 526.59C436.158 527.418 436.392 528.078 436.86 528.57C437.34 529.05 438.006 529.29 438.858 529.29C439.614 529.29 440.208 529.056 440.64 528.588C441.084 528.12 441.306 527.496 441.306 526.716C441.306 525.9 441.09 525.252 440.658 524.772C440.238 524.28 439.614 524.034 438.786 524.034C438.054 524.034 437.43 524.256 436.914 524.7C436.41 525.132 436.158 525.762 436.158 526.59ZM452.513 520.92C452.381 520.368 452.141 519.954 451.793 519.678C451.445 519.402 450.959 519.264 450.335 519.264C449.387 519.264 448.679 519.63 448.211 520.362C447.743 521.082 447.497 522.282 447.473 523.962C447.785 523.434 448.241 523.026 448.841 522.738C449.441 522.45 450.089 522.306 450.785 522.306C451.577 522.306 452.273 522.48 452.873 522.828C453.485 523.164 453.959 523.656 454.295 524.304C454.643 524.952 454.817 525.726 454.817 526.626C454.817 527.466 454.649 528.216 454.313 528.876C453.989 529.536 453.503 530.058 452.855 530.442C452.207 530.814 451.427 531 450.515 531C449.279 531 448.307 530.73 447.599 530.19C446.903 529.638 446.411 528.864 446.123 527.868C445.847 526.872 445.709 525.63 445.709 524.142C445.709 519.75 447.257 517.554 450.353 517.554C451.553 517.554 452.495 517.878 453.179 518.526C453.875 519.174 454.283 519.972 454.403 520.92H452.513ZM447.707 526.59C447.707 527.418 447.941 528.078 448.409 528.57C448.889 529.05 449.555 529.29 450.407 529.29C451.163 529.29 451.757 529.056 452.189 528.588C452.633 528.12 452.855 527.496 452.855 526.716C452.855 525.9 452.639 525.252 452.207 524.772C451.787 524.28 451.163 524.034 450.335 524.034C449.603 524.034 448.979 524.256 448.463 524.7C447.959 525.132 447.707 525.762 447.707 526.59ZM464.062 520.92C463.93 520.368 463.69 519.954 463.342 519.678C462.994 519.402 462.508 519.264 461.884 519.264C460.936 519.264 460.228 519.63 459.76 520.362C459.292 521.082 459.046 522.282 459.022 523.962C459.334 523.434 459.79 523.026 460.39 522.738C460.99 522.45 461.638 522.306 462.334 522.306C463.126 522.306 463.822 522.48 464.422 522.828C465.034 523.164 465.508 523.656 465.844 524.304C466.192 524.952 466.366 525.726 466.366 526.626C466.366 527.466 466.198 528.216 465.862 528.876C465.538 529.536 465.052 530.058 464.404 530.442C463.756 530.814 462.976 531 462.064 531C460.828 531 459.856 530.73 459.148 530.19C458.452 529.638 457.96 528.864 457.672 527.868C457.396 526.872 457.258 525.63 457.258 524.142C457.258 519.75 458.806 517.554 461.902 517.554C463.102 517.554 464.044 517.878 464.728 518.526C465.424 519.174 465.832 519.972 465.952 520.92H464.062ZM459.256 526.59C459.256 527.418 459.49 528.078 459.958 528.57C460.438 529.05 461.104 529.29 461.956 529.29C462.712 529.29 463.306 529.056 463.738 528.588C464.182 528.12 464.404 527.496 464.404 526.716C464.404 525.9 464.188 525.252 463.756 524.772C463.336 524.28 462.712 524.034 461.884 524.034C461.152 524.034 460.528 524.256 460.012 524.7C459.508 525.132 459.256 525.762 459.256 526.59Z" fill="white"/>
<path d="M337.346 611.92C338.126 611.92 338.81 612.1 339.398 612.46C339.998 612.808 340.46 613.27 340.784 613.846V608.68H342.854V622H340.784V620.146C340.448 620.758 339.986 621.25 339.398 621.622C338.81 621.982 338.126 622.162 337.346 622.162C336.482 622.162 335.69 621.946 334.97 621.514C334.262 621.07 333.698 620.458 333.278 619.678C332.87 618.886 332.666 617.992 332.666 616.996C332.666 616 332.87 615.118 333.278 614.35C333.698 613.582 334.262 612.988 334.97 612.568C335.69 612.136 336.482 611.92 337.346 611.92ZM337.778 613.702C337.25 613.702 336.758 613.834 336.302 614.098C335.846 614.35 335.474 614.728 335.186 615.232C334.91 615.724 334.772 616.312 334.772 616.996C334.772 617.68 334.91 618.28 335.186 618.796C335.474 619.312 335.846 619.708 336.302 619.984C336.77 620.248 337.262 620.38 337.778 620.38C338.306 620.38 338.798 620.248 339.254 619.984C339.71 619.72 340.076 619.336 340.352 618.832C340.64 618.316 340.784 617.716 340.784 617.032C340.784 616.348 340.64 615.754 340.352 615.25C340.076 614.746 339.71 614.362 339.254 614.098C338.798 613.834 338.306 613.702 337.778 613.702ZM345.279 609.454C345.279 609.082 345.405 608.77 345.657 608.518C345.909 608.266 346.221 608.14 346.593 608.14C346.953 608.14 347.259 608.266 347.511 608.518C347.763 608.77 347.889 609.082 347.889 609.454C347.889 609.826 347.763 610.138 347.511 610.39C347.259 610.642 346.953 610.768 346.593 610.768C346.221 610.768 345.909 610.642 345.657 610.39C345.405 610.138 345.279 609.826 345.279 609.454ZM347.601 612.082V622H345.549V612.082H347.601ZM354.291 611.92C355.071 611.92 355.755 612.1 356.343 612.46C356.943 612.808 357.405 613.27 357.729 613.846V612.082H359.799V622.162C359.799 623.074 359.607 623.884 359.223 624.592C358.839 625.312 358.281 625.876 357.549 626.284C356.829 626.692 355.965 626.896 354.957 626.896C353.613 626.896 352.497 626.578 351.609 625.942C350.721 625.318 350.217 624.466 350.097 623.386H352.131C352.287 623.902 352.617 624.316 353.121 624.628C353.637 624.952 354.249 625.114 354.957 625.114C355.785 625.114 356.451 624.862 356.955 624.358C357.471 623.854 357.729 623.122 357.729 622.162V620.146C357.393 620.758 356.931 621.25 356.343 621.622C355.755 621.982 355.071 622.162 354.291 622.162C353.427 622.162 352.635 621.946 351.915 621.514C351.207 621.07 350.643 620.458 350.223 619.678C349.815 618.886 349.611 617.992 349.611 616.996C349.611 616 349.815 615.118 350.223 614.35C350.643 613.582 351.207 612.988 351.915 612.568C352.635 612.136 353.427 611.92 354.291 611.92ZM354.723 613.702C354.195 613.702 353.703 613.834 353.247 614.098C352.791 614.35 352.419 614.728 352.131 615.232C351.855 615.724 351.717 616.312 351.717 616.996C351.717 617.68 351.855 618.28 352.131 618.796C352.419 619.312 352.791 619.708 353.247 619.984C353.715 620.248 354.207 620.38 354.723 620.38C355.251 620.38 355.743 620.248 356.199 619.984C356.655 619.72 357.021 619.336 357.297 618.832C357.585 618.316 357.729 617.716 357.729 617.032C357.729 616.348 357.585 615.754 357.297 615.25C357.021 614.746 356.655 614.362 356.199 614.098C355.743 613.834 355.251 613.702 354.723 613.702ZM362.225 609.454C362.225 609.082 362.351 608.77 362.603 608.518C362.855 608.266 363.167 608.14 363.539 608.14C363.899 608.14 364.205 608.266 364.457 608.518C364.709 608.77 364.835 609.082 364.835 609.454C364.835 609.826 364.709 610.138 364.457 610.39C364.205 610.642 363.899 610.768 363.539 610.768C363.167 610.768 362.855 610.642 362.603 610.39C362.351 610.138 362.225 609.826 362.225 609.454ZM364.547 612.082V622H362.495V612.082H364.547ZM369.635 613.756V619.246C369.635 619.618 369.719 619.888 369.887 620.056C370.067 620.212 370.367 620.29 370.787 620.29H372.047V622H370.427C369.503 622 368.795 621.784 368.303 621.352C367.811 620.92 367.565 620.218 367.565 619.246V613.756H366.395V612.082H367.565V609.616H369.635V612.082H372.047V613.756H369.635ZM377.934 611.92C378.714 611.92 379.398 612.1 379.986 612.46C380.586 612.808 381.048 613.27 381.372 613.846V612.082H383.442V622H381.372V620.146C381.036 620.758 380.574 621.25 379.986 621.622C379.398 621.982 378.714 622.162 377.934 622.162C377.07 622.162 376.278 621.946 375.558 621.514C374.85 621.07 374.286 620.458 373.866 619.678C373.458 618.886 373.254 617.992 373.254 616.996C373.254 616 373.458 615.118 373.866 614.35C374.286 613.582 374.85 612.988 375.558 612.568C376.278 612.136 377.07 611.92 377.934 611.92ZM378.366 613.702C377.838 613.702 377.346 613.834 376.89 614.098C376.434 614.35 376.062 614.728 375.774 615.232C375.498 615.724 375.36 616.312 375.36 616.996C375.36 617.68 375.498 618.28 375.774 618.796C376.062 619.312 376.434 619.708 376.89 619.984C377.358 620.248 377.85 620.38 378.366 620.38C378.894 620.38 379.386 620.248 379.842 619.984C380.298 619.72 380.664 619.336 380.94 618.832C381.228 618.316 381.372 617.716 381.372 617.032C381.372 616.348 381.228 615.754 380.94 615.25C380.664 614.746 380.298 614.362 379.842 614.098C379.386 613.834 378.894 613.702 378.366 613.702ZM388.189 608.68V622H386.137V608.68H388.189ZM396.391 611.92C397.255 611.92 398.041 612.136 398.749 612.568C399.469 612.988 400.033 613.582 400.441 614.35C400.849 615.118 401.053 616 401.053 616.996C401.053 617.992 400.849 618.886 400.441 619.678C400.033 620.458 399.469 621.07 398.749 621.514C398.041 621.946 397.255 622.162 396.391 622.162C395.611 622.162 394.927 621.982 394.339 621.622C393.751 621.25 393.283 620.758 392.935 620.146V622H390.883V608.68H392.935V613.846C393.271 613.27 393.733 612.808 394.321 612.46C394.921 612.1 395.611 611.92 396.391 611.92ZM395.941 613.702C395.425 613.702 394.933 613.834 394.465 614.098C394.009 614.362 393.637 614.746 393.349 615.25C393.073 615.754 392.935 616.348 392.935 617.032C392.935 617.716 393.073 618.316 393.349 618.832C393.637 619.336 394.009 619.72 394.465 619.984C394.933 620.248 395.425 620.38 395.941 620.38C396.469 620.38 396.961 620.248 397.417 619.984C397.885 619.708 398.257 619.312 398.533 618.796C398.821 618.28 398.965 617.68 398.965 616.996C398.965 616.312 398.821 615.724 398.533 615.232C398.257 614.728 397.885 614.35 397.417 614.098C396.961 613.834 396.469 613.702 395.941 613.702ZM405.134 613.81C405.434 613.21 405.83 612.748 406.322 612.424C406.826 612.088 407.42 611.92 408.104 611.92V614.044H407.582C406.778 614.044 406.166 614.248 405.746 614.656C405.338 615.064 405.134 615.772 405.134 616.78V622H403.082V612.082H405.134V613.81ZM419.081 616.762C419.081 617.11 419.057 617.434 419.009 617.734H411.413C411.461 618.562 411.737 619.222 412.241 619.714C412.757 620.194 413.399 620.434 414.167 620.434C415.283 620.434 416.069 619.972 416.525 619.048H418.739C418.439 619.96 417.893 620.71 417.101 621.298C416.309 621.874 415.331 622.162 414.167 622.162C413.219 622.162 412.379 621.952 411.647 621.532C410.915 621.1 410.339 620.5 409.919 619.732C409.511 618.952 409.307 618.052 409.307 617.032C409.307 616.012 409.511 615.118 409.919 614.35C410.339 613.57 410.921 612.97 411.665 612.55C412.421 612.13 413.285 611.92 414.257 611.92C415.193 611.92 416.027 612.124 416.759 612.532C417.491 612.94 418.061 613.51 418.469 614.242C418.877 614.974 419.081 615.814 419.081 616.762ZM416.939 616.33C416.927 615.514 416.657 614.866 416.129 614.386C415.601 613.894 414.947 613.648 414.167 613.648C413.435 613.648 412.811 613.894 412.295 614.386C411.791 614.866 411.503 615.514 411.431 616.33H416.939ZM434.42 612.082L431.342 622H429.182L427.184 614.674L425.186 622H423.026L419.93 612.082H422.018L424.088 620.056L426.194 612.082H428.336L430.352 620.02L432.404 612.082H434.42ZM446.646 607.726C448.338 607.726 449.826 608.05 451.11 608.698C452.394 609.334 453.39 610.24 454.098 611.416C454.818 612.592 455.178 613.966 455.178 615.538C455.178 616.762 454.932 617.884 454.44 618.904C453.948 619.912 453.306 620.71 452.514 621.298C451.734 621.874 450.924 622.162 450.084 622.162C449.328 622.162 448.758 621.958 448.374 621.55C448.002 621.142 447.804 620.608 447.78 619.948C446.892 621.424 445.68 622.162 444.144 622.162C443.424 622.162 442.764 621.982 442.164 621.622C441.564 621.262 441.09 620.752 440.742 620.092C440.406 619.432 440.238 618.682 440.238 617.842C440.238 617.566 440.256 617.278 440.292 616.978C440.436 615.994 440.778 615.118 441.318 614.35C441.87 613.582 442.548 612.988 443.352 612.568C444.168 612.148 445.032 611.938 445.944 611.938C446.748 611.938 447.456 612.106 448.068 612.442C448.692 612.778 449.172 613.252 449.508 613.864C449.856 614.464 450.03 615.154 450.03 615.934C450.03 616.198 450.012 616.468 449.976 616.744L449.58 619.426C449.568 619.486 449.562 619.564 449.562 619.66C449.562 619.9 449.622 620.086 449.742 620.218C449.862 620.338 450.03 620.398 450.246 620.398C450.654 620.398 451.074 620.194 451.506 619.786C451.95 619.366 452.316 618.784 452.604 618.04C452.904 617.296 453.054 616.456 453.054 615.52C453.054 614.296 452.79 613.222 452.262 612.298C451.734 611.374 450.966 610.66 449.958 610.156C448.95 609.64 447.756 609.382 446.376 609.382C444.696 609.382 443.19 609.772 441.858 610.552C440.526 611.332 439.482 612.394 438.726 613.738C437.97 615.07 437.592 616.546 437.592 618.166C437.592 619.57 437.892 620.776 438.492 621.784C439.092 622.792 439.944 623.56 441.048 624.088C442.164 624.628 443.484 624.916 445.008 624.952L444.594 626.608C442.806 626.572 441.222 626.212 439.842 625.528C438.474 624.856 437.406 623.89 436.638 622.63C435.87 621.37 435.486 619.882 435.486 618.166C435.486 616.186 435.972 614.404 436.944 612.82C437.916 611.224 439.254 609.976 440.958 609.076C442.662 608.176 444.558 607.726 446.646 607.726ZM444.648 620.398C445.14 620.398 445.62 620.254 446.088 619.966C446.556 619.678 446.952 619.282 447.276 618.778C447.612 618.262 447.828 617.68 447.924 617.032C447.948 616.888 447.96 616.684 447.96 616.42C447.96 615.892 447.852 615.424 447.636 615.016C447.432 614.596 447.15 614.272 446.79 614.044C446.442 613.816 446.052 613.702 445.62 613.702C445.128 613.702 444.648 613.846 444.18 614.134C443.712 614.422 443.31 614.824 442.974 615.34C442.65 615.844 442.44 616.414 442.344 617.05C442.308 617.266 442.29 617.47 442.29 617.662C442.29 618.478 442.512 619.138 442.956 619.642C443.412 620.146 443.976 620.398 444.648 620.398ZM461.412 611.92C462.192 611.92 462.876 612.1 463.464 612.46C464.064 612.808 464.526 613.27 464.85 613.846V612.082H466.92V622.162C466.92 623.074 466.728 623.884 466.344 624.592C465.96 625.312 465.402 625.876 464.67 626.284C463.95 626.692 463.086 626.896 462.078 626.896C460.734 626.896 459.618 626.578 458.73 625.942C457.842 625.318 457.338 624.466 457.218 623.386H459.252C459.408 623.902 459.738 624.316 460.242 624.628C460.758 624.952 461.37 625.114 462.078 625.114C462.906 625.114 463.572 624.862 464.076 624.358C464.592 623.854 464.85 623.122 464.85 622.162V620.146C464.514 620.758 464.052 621.25 463.464 621.622C462.876 621.982 462.192 622.162 461.412 622.162C460.548 622.162 459.756 621.946 459.036 621.514C458.328 621.07 457.764 620.458 457.344 619.678C456.936 618.886 456.732 617.992 456.732 616.996C456.732 616 456.936 615.118 457.344 614.35C457.764 613.582 458.328 612.988 459.036 612.568C459.756 612.136 460.548 611.92 461.412 611.92ZM461.844 613.702C461.316 613.702 460.824 613.834 460.368 614.098C459.912 614.35 459.54 614.728 459.252 615.232C458.976 615.724 458.838 616.312 458.838 616.996C458.838 617.68 458.976 618.28 459.252 618.796C459.54 619.312 459.912 619.708 460.368 619.984C460.836 620.248 461.328 620.38 461.844 620.38C462.372 620.38 462.864 620.248 463.32 619.984C463.776 619.72 464.142 619.336 464.418 618.832C464.706 618.316 464.85 617.716 464.85 617.032C464.85 616.348 464.706 615.754 464.418 615.25C464.142 614.746 463.776 614.362 463.32 614.098C462.864 613.834 462.372 613.702 461.844 613.702ZM481.802 611.92C482.546 611.92 483.212 612.082 483.8 612.406C484.388 612.73 484.85 613.21 485.186 613.846C485.534 614.482 485.708 615.25 485.708 616.15V622H483.656V616.456C483.656 615.568 483.434 614.89 482.99 614.422C482.546 613.942 481.94 613.702 481.172 613.702C480.404 613.702 479.798 613.942 479.354 614.422C478.91 614.89 478.688 615.568 478.688 616.456V622H476.654V616.456C476.654 615.568 476.432 614.89 475.988 614.422C475.544 613.942 474.938 613.702 474.17 613.702C473.402 613.702 472.79 613.942 472.334 614.422C471.89 614.89 471.668 615.568 471.668 616.456V622H469.616V612.082H471.668V613.648C471.992 613.084 472.424 612.658 472.964 612.37C473.516 612.07 474.14 611.92 474.836 611.92C475.604 611.92 476.288 612.1 476.888 612.46C477.488 612.82 477.944 613.342 478.256 614.026C478.604 613.366 479.084 612.85 479.696 612.478C480.32 612.106 481.022 611.92 481.802 611.92ZM492.315 611.92C493.095 611.92 493.779 612.1 494.367 612.46C494.967 612.808 495.429 613.27 495.753 613.846V612.082H497.823V622H495.753V620.146C495.417 620.758 494.955 621.25 494.367 621.622C493.779 621.982 493.095 622.162 492.315 622.162C491.451 622.162 490.659 621.946 489.939 621.514C489.231 621.07 488.667 620.458 488.247 619.678C487.839 618.886 487.635 617.992 487.635 616.996C487.635 616 487.839 615.118 488.247 614.35C488.667 613.582 489.231 612.988 489.939 612.568C490.659 612.136 491.451 611.92 492.315 611.92ZM492.747 613.702C492.219 613.702 491.727 613.834 491.271 614.098C490.815 614.35 490.443 614.728 490.155 615.232C489.879 615.724 489.741 616.312 489.741 616.996C489.741 617.68 489.879 618.28 490.155 618.796C490.443 619.312 490.815 619.708 491.271 619.984C491.739 620.248 492.231 620.38 492.747 620.38C493.275 620.38 493.767 620.248 494.223 619.984C494.679 619.72 495.045 619.336 495.321 618.832C495.609 618.316 495.753 617.716 495.753 617.032C495.753 616.348 495.609 615.754 495.321 615.25C495.045 614.746 494.679 614.362 494.223 614.098C493.767 613.834 493.275 613.702 492.747 613.702ZM500.248 609.454C500.248 609.082 500.374 608.77 500.626 608.518C500.878 608.266 501.19 608.14 501.562 608.14C501.922 608.14 502.228 608.266 502.48 608.518C502.732 608.77 502.858 609.082 502.858 609.454C502.858 609.826 502.732 610.138 502.48 610.39C502.228 610.642 501.922 610.768 501.562 610.768C501.19 610.768 500.878 610.642 500.626 610.39C500.374 610.138 500.248 609.826 500.248 609.454ZM502.57 612.082V622H500.518V612.082H502.57ZM507.316 608.68V622H505.264V608.68H507.316ZM509.542 620.776C509.542 620.428 509.656 620.134 509.884 619.894C510.124 619.654 510.418 619.534 510.766 619.534C511.114 619.534 511.408 619.654 511.648 619.894C511.888 620.134 512.008 620.428 512.008 620.776C512.008 621.124 511.888 621.418 511.648 621.658C511.408 621.886 511.114 622 510.766 622C510.43 622 510.142 621.88 509.902 621.64C509.662 621.4 509.542 621.112 509.542 620.776ZM518.422 611.92C519.622 611.92 520.612 612.208 521.392 612.784C522.184 613.348 522.718 614.158 522.994 615.214H520.78C520.6 614.722 520.312 614.338 519.916 614.062C519.52 613.786 519.022 613.648 518.422 613.648C517.582 613.648 516.91 613.948 516.406 614.548C515.914 615.136 515.668 615.964 515.668 617.032C515.668 618.1 515.914 618.934 516.406 619.534C516.91 620.134 517.582 620.434 518.422 620.434C519.61 620.434 520.396 619.912 520.78 618.868H522.994C522.706 619.876 522.166 620.68 521.374 621.28C520.582 621.868 519.598 622.162 518.422 622.162C517.474 622.162 516.634 621.952 515.902 621.532C515.17 621.1 514.594 620.5 514.174 619.732C513.766 618.952 513.562 618.052 513.562 617.032C513.562 616.012 513.766 615.118 514.174 614.35C514.594 613.57 515.17 612.97 515.902 612.55C516.634 612.13 517.474 611.92 518.422 611.92ZM529.431 611.92C530.379 611.92 531.237 612.13 532.005 612.55C532.773 612.97 533.379 613.57 533.823 614.35C534.267 615.13 534.489 616.024 534.489 617.032C534.489 618.04 534.261 618.934 533.805 619.714C533.349 620.494 532.725 621.1 531.933 621.532C531.153 621.952 530.289 622.162 529.341 622.162C528.405 622.162 527.559 621.952 526.803 621.532C526.047 621.1 525.453 620.5 525.021 619.732C524.589 618.952 524.373 618.052 524.373 617.032C524.373 616.024 524.595 615.13 525.039 614.35C525.483 613.57 526.089 612.97 526.857 612.55C527.625 612.13 528.483 611.92 529.431 611.92ZM529.395 613.648C528.867 613.648 528.381 613.78 527.937 614.044C527.493 614.296 527.133 614.68 526.857 615.196C526.593 615.7 526.461 616.312 526.461 617.032C526.461 617.752 526.587 618.37 526.839 618.886C527.103 619.402 527.451 619.792 527.883 620.056C528.327 620.308 528.813 620.434 529.341 620.434C529.869 620.434 530.361 620.302 530.817 620.038C531.285 619.774 531.663 619.39 531.951 618.886C532.239 618.37 532.383 617.752 532.383 617.032C532.383 616.312 532.245 615.7 531.969 615.196C531.693 614.68 531.327 614.296 530.871 614.044C530.415 613.78 529.923 613.648 529.395 613.648ZM548.704 611.92C549.448 611.92 550.114 612.082 550.702 612.406C551.29 612.73 551.752 613.21 552.088 613.846C552.436 614.482 552.61 615.25 552.61 616.15V622H550.558V616.456C550.558 615.568 550.336 614.89 549.892 614.422C549.448 613.942 548.842 613.702 548.074 613.702C547.306 613.702 546.7 613.942 546.256 614.422C545.812 614.89 545.59 615.568 545.59 616.456V622H543.556V616.456C543.556 615.568 543.334 614.89 542.89 614.422C542.446 613.942 541.84 613.702 541.072 613.702C540.304 613.702 539.692 613.942 539.236 614.422C538.792 614.89 538.57 615.568 538.57 616.456V622H536.518V612.082H538.57V613.648C538.894 613.084 539.326 612.658 539.866 612.37C540.418 612.07 541.042 611.92 541.738 611.92C542.506 611.92 543.19 612.1 543.79 612.46C544.39 612.82 544.846 613.342 545.158 614.026C545.506 613.366 545.986 612.85 546.598 612.478C547.222 612.106 547.924 611.92 548.704 611.92Z" fill="white"/>
<path d="M332.81 701.092V699.22H336.554V712H334.484V701.092H332.81ZM339.373 705.412C339.373 707.452 339.721 709.054 340.417 710.218C341.125 711.382 342.337 711.964 344.053 711.964C345.769 711.964 346.975 711.382 347.671 710.218C348.379 709.054 348.733 707.452 348.733 705.412C348.733 703.384 348.379 701.788 347.671 700.624C346.975 699.46 345.769 698.878 344.053 698.878C342.337 698.878 341.125 699.46 340.417 700.624C339.721 701.788 339.373 703.384 339.373 705.412ZM346.717 705.412C346.717 706.372 346.651 707.182 346.519 707.842C346.399 708.502 346.147 709.042 345.763 709.462C345.379 709.882 344.809 710.092 344.053 710.092C343.297 710.092 342.727 709.882 342.343 709.462C341.959 709.042 341.701 708.502 341.569 707.842C341.449 707.182 341.389 706.372 341.389 705.412C341.389 704.464 341.449 703.66 341.569 703C341.701 702.34 341.959 701.8 342.343 701.38C342.727 700.96 343.297 700.75 344.053 700.75C344.809 700.75 345.379 700.96 345.763 701.38C346.147 701.8 346.399 702.34 346.519 703C346.651 703.66 346.717 704.464 346.717 705.412ZM352.074 709.174C353.226 708.19 354.132 707.38 354.792 706.744C355.452 706.108 355.998 705.454 356.43 704.782C356.874 704.098 357.096 703.426 357.096 702.766C357.096 702.082 356.922 701.542 356.574 701.146C356.238 700.75 355.704 700.552 354.972 700.552C354.264 700.552 353.712 700.78 353.316 701.236C352.932 701.68 352.728 702.28 352.704 703.036H350.724C350.76 701.668 351.168 700.624 351.948 699.904C352.74 699.172 353.742 698.806 354.954 698.806C355.83 698.806 356.58 698.968 357.204 699.292C357.828 699.616 358.302 700.072 358.626 700.66C358.962 701.248 359.13 701.92 359.13 702.676C359.13 703.504 358.908 704.308 358.464 705.088C358.032 705.868 357.516 706.57 356.916 707.194C356.316 707.818 355.548 708.544 354.612 709.372L353.784 710.11H359.49V711.82H350.742V710.326L352.074 709.174ZM375.401 708.436C375.401 709.072 375.227 709.672 374.879 710.236C374.543 710.8 374.045 711.256 373.385 711.604C372.725 711.952 371.951 712.126 371.063 712.126C369.779 712.126 368.729 711.82 367.913 711.208C367.097 710.596 366.689 709.75 366.689 708.67H368.885C368.933 709.222 369.137 709.66 369.497 709.984C369.857 710.308 370.379 710.47 371.063 710.47C371.771 710.47 372.323 710.29 372.719 709.93C373.127 709.57 373.331 709.108 373.331 708.544C373.331 708.1 373.205 707.752 372.953 707.5C372.713 707.236 372.407 707.038 372.035 706.906C371.663 706.762 371.153 706.612 370.505 706.456C369.689 706.264 369.029 706.066 368.525 705.862C368.021 705.646 367.589 705.31 367.229 704.854C366.869 704.386 366.689 703.756 366.689 702.964C366.689 702.244 366.869 701.608 367.229 701.056C367.589 700.504 368.093 700.078 368.741 699.778C369.389 699.478 370.133 699.328 370.973 699.328C372.197 699.328 373.181 699.616 373.925 700.192C374.681 700.768 375.101 701.602 375.185 702.694H372.917C372.869 702.214 372.665 701.812 372.305 701.488C371.945 701.164 371.465 701.002 370.865 701.002C370.241 701.002 369.737 701.158 369.353 701.47C368.969 701.782 368.777 702.244 368.777 702.856C368.777 703.3 368.897 703.66 369.137 703.936C369.389 704.2 369.701 704.404 370.073 704.548C370.445 704.68 370.961 704.824 371.621 704.98C372.425 705.172 373.079 705.376 373.583 705.592C374.087 705.796 374.513 706.126 374.861 706.582C375.221 707.026 375.401 707.644 375.401 708.436ZM380.217 703.756V709.246C380.217 709.618 380.301 709.888 380.469 710.056C380.649 710.212 380.949 710.29 381.369 710.29H382.629V712H381.009C380.085 712 379.377 711.784 378.885 711.352C378.393 710.92 378.147 710.218 378.147 709.246V703.756H376.977V702.082H378.147V699.616H380.217V702.082H382.629V703.756H380.217ZM386.572 703.81C386.872 703.21 387.268 702.748 387.76 702.424C388.264 702.088 388.858 701.92 389.542 701.92V704.044H389.02C388.216 704.044 387.604 704.248 387.184 704.656C386.776 705.064 386.572 705.772 386.572 706.78V712H384.52V702.082H386.572V703.81ZM400.518 706.762C400.518 707.11 400.494 707.434 400.446 707.734H392.85C392.898 708.562 393.174 709.222 393.678 709.714C394.194 710.194 394.836 710.434 395.604 710.434C396.72 710.434 397.506 709.972 397.962 709.048H400.176C399.876 709.96 399.33 710.71 398.538 711.298C397.746 711.874 396.768 712.162 395.604 712.162C394.656 712.162 393.816 711.952 393.084 711.532C392.352 711.1 391.776 710.5 391.356 709.732C390.948 708.952 390.744 708.052 390.744 707.032C390.744 706.012 390.948 705.118 391.356 704.35C391.776 703.57 392.358 702.97 393.102 702.55C393.858 702.13 394.722 701.92 395.694 701.92C396.63 701.92 397.464 702.124 398.196 702.532C398.928 702.94 399.498 703.51 399.906 704.242C400.314 704.974 400.518 705.814 400.518 706.762ZM398.376 706.33C398.364 705.514 398.094 704.866 397.566 704.386C397.038 703.894 396.384 703.648 395.604 703.648C394.872 703.648 394.248 703.894 393.732 704.386C393.228 704.866 392.94 705.514 392.868 706.33H398.376ZM411.628 706.762C411.628 707.11 411.604 707.434 411.556 707.734H403.96C404.008 708.562 404.284 709.222 404.788 709.714C405.304 710.194 405.946 710.434 406.714 710.434C407.83 710.434 408.616 709.972 409.072 709.048H411.286C410.986 709.96 410.44 710.71 409.648 711.298C408.856 711.874 407.878 712.162 406.714 712.162C405.766 712.162 404.926 711.952 404.194 711.532C403.462 711.1 402.886 710.5 402.466 709.732C402.058 708.952 401.854 708.052 401.854 707.032C401.854 706.012 402.058 705.118 402.466 704.35C402.886 703.57 403.468 702.97 404.212 702.55C404.968 702.13 405.832 701.92 406.804 701.92C407.74 701.92 408.574 702.124 409.306 702.532C410.038 702.94 410.608 703.51 411.016 704.242C411.424 704.974 411.628 705.814 411.628 706.762ZM409.486 706.33C409.474 705.514 409.204 704.866 408.676 704.386C408.148 703.894 407.494 703.648 406.714 703.648C405.982 703.648 405.358 703.894 404.842 704.386C404.338 704.866 404.05 705.514 403.978 706.33H409.486ZM416.041 703.756V709.246C416.041 709.618 416.125 709.888 416.293 710.056C416.473 710.212 416.773 710.29 417.193 710.29H418.453V712H416.833C415.909 712 415.201 711.784 414.709 711.352C414.217 710.92 413.971 710.218 413.971 709.246V703.756H412.801V702.082H413.971V699.616H416.041V702.082H418.453V703.756H416.041ZM436.019 712H433.967L427.793 702.658V712H425.741V699.472H427.793L433.967 708.796V699.472H436.019V712ZM447.803 706.762C447.803 707.11 447.779 707.434 447.731 707.734H440.135C440.183 708.562 440.459 709.222 440.963 709.714C441.479 710.194 442.121 710.434 442.889 710.434C444.005 710.434 444.791 709.972 445.247 709.048H447.461C447.161 709.96 446.615 710.71 445.823 711.298C445.031 711.874 444.053 712.162 442.889 712.162C441.941 712.162 441.101 711.952 440.369 711.532C439.637 711.1 439.061 710.5 438.641 709.732C438.233 708.952 438.029 708.052 438.029 707.032C438.029 706.012 438.233 705.118 438.641 704.35C439.061 703.57 439.643 702.97 440.387 702.55C441.143 702.13 442.007 701.92 442.979 701.92C443.915 701.92 444.749 702.124 445.481 702.532C446.213 702.94 446.783 703.51 447.191 704.242C447.599 704.974 447.803 705.814 447.803 706.762ZM445.661 706.33C445.649 705.514 445.379 704.866 444.851 704.386C444.323 703.894 443.669 703.648 442.889 703.648C442.157 703.648 441.533 703.894 441.017 704.386C440.513 704.866 440.225 705.514 440.153 706.33H445.661ZM463.143 702.082L460.065 712H457.905L455.907 704.674L453.909 712H451.749L448.653 702.082H450.741L452.811 710.056L454.917 702.082H457.059L459.075 710.02L461.127 702.082H463.143ZM480.801 705.79C480.801 707.062 480.525 708.166 479.973 709.102C479.433 710.038 478.659 710.758 477.651 711.262C476.655 711.754 475.491 712 474.159 712H470.073V699.49H474.159C475.491 699.49 476.655 699.748 477.651 700.264C478.659 700.768 479.433 701.5 479.973 702.46C480.525 703.408 480.801 704.518 480.801 705.79ZM474.159 710.434C475.611 710.434 476.727 710.02 477.507 709.192C478.299 708.364 478.695 707.23 478.695 705.79C478.695 704.338 478.299 703.204 477.507 702.388C476.727 701.56 475.611 701.146 474.159 701.146H472.125V710.434H474.159ZM491.924 706.762C491.924 707.11 491.9 707.434 491.852 707.734H484.256C484.304 708.562 484.58 709.222 485.084 709.714C485.6 710.194 486.242 710.434 487.01 710.434C488.126 710.434 488.912 709.972 489.368 709.048H491.582C491.282 709.96 490.736 710.71 489.944 711.298C489.152 711.874 488.174 712.162 487.01 712.162C486.062 712.162 485.222 711.952 484.49 711.532C483.758 711.1 483.182 710.5 482.762 709.732C482.354 708.952 482.15 708.052 482.15 707.032C482.15 706.012 482.354 705.118 482.762 704.35C483.182 703.57 483.764 702.97 484.508 702.55C485.264 702.13 486.128 701.92 487.1 701.92C488.036 701.92 488.87 702.124 489.602 702.532C490.334 702.94 490.904 703.51 491.312 704.242C491.72 704.974 491.924 705.814 491.924 706.762ZM489.782 706.33C489.77 705.514 489.5 704.866 488.972 704.386C488.444 703.894 487.79 703.648 487.01 703.648C486.278 703.648 485.654 703.894 485.138 704.386C484.634 704.866 484.346 705.514 484.274 706.33H489.782ZM495.996 698.68V712H493.944V698.68H495.996ZM503.91 701.92C504.63 701.92 505.278 702.082 505.854 702.406C506.442 702.73 506.904 703.21 507.24 703.846C507.588 704.482 507.762 705.25 507.762 706.15V712H505.728V706.456C505.728 705.568 505.506 704.89 505.062 704.422C504.618 703.942 504.012 703.702 503.244 703.702C502.476 703.702 501.864 703.942 501.408 704.422C500.964 704.89 500.742 705.568 500.742 706.456V712H498.69V698.68H500.742V703.648C501.066 703.084 501.498 702.658 502.038 702.37C502.59 702.07 503.214 701.92 503.91 701.92ZM510.109 699.454C510.109 699.082 510.235 698.77 510.487 698.518C510.739 698.266 511.051 698.14 511.423 698.14C511.783 698.14 512.089 698.266 512.341 698.518C512.593 698.77 512.719 699.082 512.719 699.454C512.719 699.826 512.593 700.138 512.341 700.39C512.089 700.642 511.783 700.768 511.423 700.768C511.051 700.768 510.739 700.642 510.487 700.39C510.235 700.138 510.109 699.826 510.109 699.454ZM512.431 702.082V712H510.379V702.082H512.431ZM514.657 710.776C514.657 710.428 514.771 710.134 514.999 709.894C515.239 709.654 515.533 709.534 515.881 709.534C516.229 709.534 516.523 709.654 516.763 709.894C517.003 710.134 517.123 710.428 517.123 710.776C517.123 711.124 517.003 711.418 516.763 711.658C516.523 711.886 516.229 712 515.881 712C515.545 712 515.257 711.88 515.017 711.64C514.777 711.4 514.657 711.112 514.657 710.776Z" fill="white"/>
</g>
<defs>
<clipPath id="clip0_488_43">
<rect x="199" y="236" width="598" height="750" rx="12" fill="white"/>
</clipPath>
</defs>
</svg>
