<svg width="1806" height="953" viewBox="0 0 1806 953" fill="none" xmlns="http://www.w3.org/2000/svg">
<path d="M148.116 59.3335L118.405 162H94.8709L75.0142 90.3688L54.5692 162H31.0353L1.91213 59.3335H23.9751L43.6848 138.613L64.424 59.3335H87.8108L107.373 137.878L125.906 59.3335H148.116ZM236.447 120.08C236.447 122.924 236.25 125.572 235.858 128.023H176.435C176.925 133.318 178.887 137.584 182.319 140.82C185.751 144.055 190.114 145.673 195.409 145.673C199.528 145.673 202.813 144.889 205.264 143.32C207.716 141.751 209.726 139.594 211.295 136.848H233.652C231.298 144.595 226.739 150.919 219.973 155.822C213.207 160.725 205.019 163.177 195.409 163.177C187.663 163.177 180.75 161.461 174.67 158.029C168.591 154.499 163.835 149.596 160.403 143.32C156.971 136.946 155.255 129.543 155.255 121.11C155.255 112.677 156.971 105.323 160.403 99.0469C163.835 92.7712 168.591 87.9173 174.67 84.4853C180.848 81.0533 187.859 79.3373 195.703 79.3373C203.548 79.3373 210.51 81.0042 216.59 84.3382C222.767 87.6722 227.621 92.428 231.151 98.6056C234.681 104.685 236.447 111.843 236.447 120.08ZM214.972 114.638C214.678 109.245 212.667 104.93 208.941 101.694C205.313 98.4585 200.803 96.8406 195.409 96.8406C190.408 96.8406 186.143 98.4585 182.613 101.694C179.181 104.93 177.122 109.245 176.435 114.638H214.972ZM382.478 59.3335V162H361.739V118.021H317.613V162H296.874V59.3335H317.613V102.136H361.739V59.3335H382.478ZM480.059 120.08C480.059 122.924 479.863 125.572 479.471 128.023H420.048C420.538 133.318 422.499 137.584 425.931 140.82C429.363 144.055 433.727 145.673 439.022 145.673C443.14 145.673 446.425 144.889 448.877 143.32C451.328 141.751 453.338 139.594 454.907 136.848H477.264C474.911 144.595 470.351 150.919 463.585 155.822C456.819 160.725 448.631 163.177 439.022 163.177C431.275 163.177 424.362 161.461 418.282 158.029C412.203 154.499 407.447 149.596 404.015 143.32C400.583 136.946 398.867 129.543 398.867 121.11C398.867 112.677 400.583 105.323 404.015 99.0469C407.447 92.7712 412.203 87.9173 418.282 84.4853C424.46 81.0533 431.471 79.3373 439.316 79.3373C447.161 79.3373 454.123 81.0042 460.202 84.3382C466.38 87.6722 471.234 92.428 474.764 98.6056C478.294 104.685 480.059 111.843 480.059 120.08ZM458.584 114.638C458.29 109.245 456.28 104.93 452.554 101.694C448.926 98.4585 444.415 96.8406 439.022 96.8406C434.021 96.8406 429.755 98.4585 426.225 101.694C422.793 104.93 420.734 109.245 420.048 114.638H458.584ZM517.128 53.1558V162H496.389V53.1558H517.128ZM586.114 79.3373C593.076 79.3373 599.45 81.1023 605.236 84.6324C611.021 88.1625 615.581 93.1144 618.915 99.4881C622.249 105.764 623.916 112.971 623.916 121.11C623.916 129.249 622.249 136.554 618.915 143.026C615.581 149.4 611.021 154.351 605.236 157.882C599.45 161.412 593.076 163.177 586.114 163.177C580.231 163.177 575.083 161.853 570.67 159.205C566.356 156.558 562.776 152.93 559.933 148.321V200.831H539.194V80.5139H559.933V93.1634C562.58 88.8489 566.11 85.4659 570.523 83.0144C575.034 80.563 580.231 79.3373 586.114 79.3373ZM581.407 97.2818C577.681 97.2818 574.151 98.2134 570.817 100.076C567.581 101.94 564.934 104.685 562.875 108.313C560.913 111.941 559.933 116.256 559.933 121.257C559.933 126.258 560.913 130.572 562.875 134.201C564.934 137.829 567.581 140.574 570.817 142.437C574.151 144.301 577.681 145.232 581.407 145.232C585.134 145.232 588.615 144.301 591.851 142.437C595.185 140.574 597.832 137.829 599.793 134.201C601.853 130.474 602.882 126.111 602.882 121.11C602.882 116.109 601.853 111.794 599.793 108.166C597.832 104.538 595.185 101.842 591.851 100.076C588.615 98.2134 585.134 97.2818 581.407 97.2818ZM756.195 132.141C756.195 137.633 754.675 142.732 751.635 147.438C748.693 152.145 744.428 155.92 738.838 158.764C733.347 161.608 726.924 163.03 719.57 163.03C708.293 163.03 699.223 160.431 692.359 155.234C685.495 149.939 682.063 142.536 682.063 133.024H704.126C704.518 137.437 705.989 140.82 708.539 143.173C711.186 145.428 714.863 146.556 719.57 146.556C724.277 146.556 728.003 145.33 730.749 142.879C733.494 140.427 734.867 137.24 734.867 133.318C734.867 130.18 733.887 127.631 731.925 125.67C730.062 123.708 727.709 122.189 724.865 121.11C722.12 120.031 718.197 118.806 713.098 117.433C706.528 115.766 701.184 114.05 697.066 112.285C692.947 110.52 689.417 107.774 686.476 104.048C683.534 100.224 682.063 95.0755 682.063 88.6037C682.063 82.4261 683.583 77.0329 686.623 72.4242C689.761 67.7174 694.075 64.1383 699.566 61.6868C705.058 59.1373 711.284 57.8626 718.246 57.8626C728.935 57.8626 737.515 60.314 743.987 65.2169C750.458 70.0218 753.988 77.3761 754.577 87.2799H731.925C731.533 83.3576 730.062 80.2688 727.513 78.0135C724.963 75.6601 721.678 74.4834 717.658 74.4834C713.442 74.4834 710.009 75.562 707.362 77.7193C704.812 79.7785 703.538 82.9654 703.538 87.2799C703.538 90.5158 704.469 93.1634 706.332 95.2226C708.293 97.1838 710.696 98.7037 713.54 99.7823C716.383 100.861 720.306 102.038 725.306 103.312C731.876 104.979 737.221 106.695 741.339 108.46C745.457 110.225 748.938 113.02 751.782 116.844C754.724 120.571 756.195 125.67 756.195 132.141ZM878.28 79.3373C887.988 79.3373 895.783 82.377 901.667 88.4566C907.648 94.5362 910.639 103.067 910.639 114.05V162H890.047V116.991C890.047 110.618 888.429 105.764 885.193 102.43C881.957 98.9978 877.545 97.2818 871.955 97.2818C866.366 97.2818 861.905 98.9978 858.571 102.43C855.335 105.764 853.717 110.618 853.717 116.991V162H833.125V116.991C833.125 110.618 831.507 105.764 828.271 102.43C825.035 98.9978 820.622 97.2818 815.033 97.2818C809.444 97.2818 804.982 98.9978 801.648 102.43C798.412 105.764 796.794 110.618 796.794 116.991V162H776.055V80.5139H796.794V92.7221C799.344 88.4076 802.776 85.1227 807.09 82.8673C811.503 80.5139 816.504 79.3373 822.093 79.3373C828.271 79.3373 833.762 80.7591 838.567 83.6028C843.47 86.4464 847.245 90.5158 849.892 95.811C852.736 90.712 856.609 86.6916 861.512 83.7499C866.513 80.8081 872.103 79.3373 878.28 79.3373ZM963.969 79.3373C969.754 79.3373 974.902 80.563 979.413 83.0144C983.923 85.4659 987.551 88.8489 990.297 93.1634V80.5139H1010.89V162H990.297V148.321C987.453 152.93 983.776 156.558 979.266 159.205C974.853 161.853 969.754 163.177 963.969 163.177C957.006 163.177 950.633 161.412 944.847 157.882C939.16 154.253 934.6 149.252 931.168 142.879C927.834 136.505 926.167 129.249 926.167 121.11C926.167 112.971 927.834 105.764 931.168 99.4881C934.6 93.1144 939.16 88.1625 944.847 84.6324C950.633 81.1023 957.006 79.3373 963.969 79.3373ZM968.675 97.2818C965.047 97.2818 961.566 98.2134 958.232 100.076C954.996 101.94 952.349 104.685 950.289 108.313C948.23 111.843 947.201 116.109 947.201 121.11C947.201 126.111 948.23 130.474 950.289 134.201C952.349 137.829 954.996 140.574 958.232 142.437C961.566 144.301 965.047 145.232 968.675 145.232C972.402 145.232 975.883 144.301 979.118 142.437C982.452 140.574 985.149 137.829 987.208 134.201C989.267 130.572 990.297 126.258 990.297 121.257C990.297 116.256 989.267 111.941 987.208 108.313C985.149 104.685 982.452 101.94 979.118 100.076C975.883 98.2134 972.402 97.2818 968.675 97.2818ZM1053.62 53.1558V162H1032.88V53.1558H1053.62ZM1096.43 53.1558V162H1075.69V53.1558H1096.43ZM66.4832 330.49C73.2492 331.471 78.6424 334.412 82.6627 339.315C86.7812 344.12 88.8404 349.709 88.8404 356.083C88.8404 361.378 87.4676 366.085 84.722 370.203C82.0744 374.224 78.2011 377.362 73.1021 379.617C68.0031 381.872 61.9725 383 55.0104 383H11.0315V280.333H52.6571C59.6192 280.333 65.6497 281.51 70.7487 283.864C75.9458 286.217 79.8681 289.453 82.5157 293.571C85.1632 297.69 86.487 302.298 86.487 307.397C86.487 313.183 84.722 318.037 81.1919 321.959C77.7599 325.783 72.857 328.627 66.4832 330.49ZM31.7707 322.842H50.4508C55.0595 322.842 58.6876 321.714 61.3352 319.459C64.0808 317.105 65.4536 313.82 65.4536 309.604C65.4536 305.387 64.0808 302.102 61.3352 299.749C58.6876 297.396 55.0595 296.219 50.4508 296.219H31.7707V322.842ZM52.6571 367.115C57.2658 367.115 60.9429 365.889 63.6886 363.437C66.5322 360.888 67.9541 357.407 67.9541 352.994C67.9541 348.582 66.5322 345.101 63.6886 342.551C60.8449 340.002 57.1187 338.727 52.51 338.727H31.7707V367.115H52.6571ZM183.622 301.514V383H162.882V370.645C160.333 374.959 156.852 378.293 152.439 380.647C148.125 382.902 143.124 384.03 137.436 384.03C131.455 384.03 126.062 382.706 121.257 380.058C116.55 377.313 112.824 373.341 110.078 368.144C107.333 362.849 105.96 356.573 105.96 349.317V301.514H126.552V346.375C126.552 352.749 128.17 357.652 131.406 361.084C134.642 364.516 139.054 366.232 144.644 366.232C150.233 366.232 154.646 364.516 157.882 361.084C161.215 357.652 162.882 352.749 162.882 346.375V301.514H183.622ZM234.786 300.337C244.102 300.337 251.75 302.74 257.732 307.545C263.713 312.251 266.9 318.674 267.292 326.813H246.112C245.523 319.949 241.307 316.517 233.462 316.517C229.54 316.517 226.5 317.301 224.343 318.87C222.186 320.439 221.107 322.498 221.107 325.048C221.107 327.205 221.891 328.921 223.46 330.196C225.029 331.471 226.941 332.5 229.197 333.285C231.55 333.971 234.884 334.805 239.199 335.785C245.18 337.06 250.083 338.433 253.907 339.904C257.83 341.276 261.164 343.532 263.909 346.67C266.655 349.709 268.028 353.926 268.028 359.319C268.028 364.222 266.606 368.536 263.762 372.263C260.918 375.989 256.996 378.931 251.995 381.088C246.994 383.147 241.356 384.177 235.08 384.177C225.274 384.177 217.283 381.921 211.105 377.411C204.927 372.802 201.544 366.232 200.956 357.701H222.137C222.529 361.035 223.853 363.585 226.108 365.35C228.363 367.115 231.403 367.997 235.227 367.997C239.052 367.997 242.14 367.164 244.494 365.497C246.847 363.732 248.024 361.525 248.024 358.878C248.024 356.721 247.239 355.004 245.67 353.73C244.102 352.357 242.14 351.327 239.787 350.641C237.434 349.856 234.051 348.974 229.638 347.993C223.656 346.719 218.754 345.395 214.929 344.022C211.203 342.649 207.967 340.492 205.222 337.55C202.476 334.51 201.103 330.441 201.103 325.342C201.103 320.831 202.427 316.664 205.075 312.84C207.722 309.015 211.595 305.976 216.694 303.72C221.793 301.465 227.824 300.337 234.786 300.337ZM283.464 280.775C283.464 277.245 284.689 274.254 287.141 271.802C289.592 269.351 292.534 268.125 295.966 268.125C299.496 268.125 302.487 269.351 304.938 271.802C307.39 274.254 308.616 277.245 308.616 280.775C308.616 284.305 307.39 287.296 304.938 289.747C302.487 292.198 299.496 293.424 295.966 293.424C292.534 293.424 289.592 292.198 287.141 289.747C284.689 287.296 283.464 284.305 283.464 280.775ZM306.409 301.514V383H285.67V301.514H306.409ZM374.513 300.337C380.592 300.337 385.985 301.71 390.692 304.456C395.497 307.103 399.272 311.075 402.018 316.37C404.764 321.567 406.136 327.793 406.136 335.05V383H385.544V337.991C385.544 331.618 383.926 326.764 380.69 323.43C377.454 319.998 373.042 318.282 367.453 318.282C361.863 318.282 357.402 319.998 354.068 323.43C350.832 326.764 349.214 331.618 349.214 337.991V383H328.475V301.514H349.214V313.722C351.763 309.408 355.195 306.123 359.51 303.867C363.922 301.514 368.923 300.337 374.513 300.337ZM502.898 341.08C502.898 343.924 502.701 346.572 502.309 349.023H442.886C443.376 354.318 445.338 358.584 448.77 361.82C452.202 365.055 456.565 366.673 461.86 366.673C465.979 366.673 469.264 365.889 471.715 364.32C474.167 362.751 476.177 360.594 477.746 357.848H500.103C497.75 365.595 493.19 371.919 486.424 376.822C479.658 381.725 471.47 384.177 461.86 384.177C454.114 384.177 447.201 382.461 441.121 379.029C435.042 375.499 430.286 370.596 426.854 364.32C423.422 357.946 421.706 350.543 421.706 342.11C421.706 333.677 423.422 326.323 426.854 320.047C430.286 313.771 435.042 308.917 441.121 305.485C447.299 302.053 454.31 300.337 462.155 300.337C469.999 300.337 476.961 302.004 483.041 305.338C489.219 308.672 494.072 313.428 497.602 319.606C501.133 325.685 502.898 332.843 502.898 341.08ZM481.423 335.638C481.129 330.245 479.119 325.93 475.392 322.694C471.764 319.459 467.254 317.841 461.86 317.841C456.859 317.841 452.594 319.459 449.064 322.694C445.632 325.93 443.573 330.245 442.886 335.638H481.423ZM548.351 300.337C557.666 300.337 565.315 302.74 571.296 307.545C577.278 312.251 580.465 318.674 580.857 326.813H559.677C559.088 319.949 554.872 316.517 547.027 316.517C543.105 316.517 540.065 317.301 537.908 318.87C535.75 320.439 534.672 322.498 534.672 325.048C534.672 327.205 535.456 328.921 537.025 330.196C538.594 331.471 540.506 332.5 542.762 333.285C545.115 333.971 548.449 334.805 552.763 335.785C558.745 337.06 563.648 338.433 567.472 339.904C571.394 341.276 574.728 343.532 577.474 346.67C580.22 349.709 581.592 353.926 581.592 359.319C581.592 364.222 580.171 368.536 577.327 372.263C574.483 375.989 570.561 378.931 565.56 381.088C560.559 383.147 554.921 384.177 548.645 384.177C538.839 384.177 530.848 381.921 524.67 377.411C518.492 372.802 515.109 366.232 514.521 357.701H535.701C536.094 361.035 537.417 363.585 539.673 365.35C541.928 367.115 544.968 367.997 548.792 367.997C552.616 367.997 555.705 367.164 558.059 365.497C560.412 363.732 561.589 361.525 561.589 358.878C561.589 356.721 560.804 355.004 559.235 353.73C557.666 352.357 555.705 351.327 553.352 350.641C550.998 349.856 547.615 348.974 543.203 347.993C537.221 346.719 532.318 345.395 528.494 344.022C524.768 342.649 521.532 340.492 518.786 337.55C516.041 334.51 514.668 330.441 514.668 325.342C514.668 320.831 515.992 316.664 518.639 312.84C521.287 309.015 525.16 305.976 530.259 303.72C535.358 301.465 541.389 300.337 548.351 300.337ZM628.358 300.337C637.673 300.337 645.322 302.74 651.304 307.545C657.285 312.251 660.472 318.674 660.864 326.813H639.684C639.095 319.949 634.879 316.517 627.034 316.517C623.112 316.517 620.072 317.301 617.915 318.87C615.758 320.439 614.679 322.498 614.679 325.048C614.679 327.205 615.463 328.921 617.032 330.196C618.601 331.471 620.513 332.5 622.769 333.285C625.122 333.971 628.456 334.805 632.771 335.785C638.752 337.06 643.655 338.433 647.479 339.904C651.402 341.276 654.736 343.532 657.481 346.67C660.227 349.709 661.6 353.926 661.6 359.319C661.6 364.222 660.178 368.536 657.334 372.263C654.49 375.989 650.568 378.931 645.567 381.088C640.566 383.147 634.928 384.177 628.652 384.177C618.846 384.177 610.855 381.921 604.677 377.411C598.499 372.802 595.116 366.232 594.528 357.701H615.709C616.101 361.035 617.425 363.585 619.68 365.35C621.935 367.115 624.975 367.997 628.799 367.997C632.624 367.997 635.712 367.164 638.066 365.497C640.419 363.732 641.596 361.525 641.596 358.878C641.596 356.721 640.811 355.004 639.242 353.73C637.673 352.357 635.712 351.327 633.359 350.641C631.006 349.856 627.623 348.974 623.21 347.993C617.228 346.719 612.326 345.395 608.501 344.022C604.775 342.649 601.539 340.492 598.794 337.55C596.048 334.51 594.675 330.441 594.675 325.342C594.675 320.831 595.999 316.664 598.646 312.84C601.294 309.015 605.167 305.976 610.266 303.72C615.365 301.465 621.396 300.337 628.358 300.337ZM754.697 341.08C754.697 343.924 754.501 346.572 754.109 349.023H694.686C695.176 354.318 697.138 358.584 700.57 361.82C704.002 365.055 708.365 366.673 713.66 366.673C717.779 366.673 721.064 365.889 723.515 364.32C725.967 362.751 727.977 360.594 729.546 357.848H751.903C749.549 365.595 744.99 371.919 738.224 376.822C731.458 381.725 723.27 384.177 713.66 384.177C705.914 384.177 699.001 382.461 692.921 379.029C686.841 375.499 682.086 370.596 678.654 364.32C675.222 357.946 673.506 350.543 673.506 342.11C673.506 333.677 675.222 326.323 678.654 320.047C682.086 313.771 686.841 308.917 692.921 305.485C699.099 302.053 706.11 300.337 713.954 300.337C721.799 300.337 728.761 302.004 734.841 305.338C741.018 308.672 745.872 313.428 749.402 319.606C752.932 325.685 754.697 332.843 754.697 341.08ZM733.223 335.638C732.929 330.245 730.918 325.93 727.192 322.694C723.564 319.459 719.053 317.841 713.66 317.841C708.659 317.841 704.394 319.459 700.864 322.694C697.432 325.93 695.372 330.245 694.686 335.638H733.223ZM800.151 300.337C809.466 300.337 817.115 302.74 823.096 307.545C829.078 312.251 832.265 318.674 832.657 326.813H811.476C810.888 319.949 806.672 316.517 798.827 316.517C794.905 316.517 791.865 317.301 789.708 318.87C787.55 320.439 786.472 322.498 786.472 325.048C786.472 327.205 787.256 328.921 788.825 330.196C790.394 331.471 792.306 332.5 794.561 333.285C796.915 333.971 800.249 334.805 804.563 335.785C810.545 337.06 815.448 338.433 819.272 339.904C823.194 341.276 826.528 343.532 829.274 346.67C832.02 349.709 833.392 353.926 833.392 359.319C833.392 364.222 831.97 368.536 829.127 372.263C826.283 375.989 822.361 378.931 817.36 381.088C812.359 383.147 806.721 384.177 800.445 384.177C790.639 384.177 782.647 381.921 776.47 377.411C770.292 372.802 766.909 366.232 766.321 357.701H787.501C787.893 361.035 789.217 363.585 791.473 365.35C793.728 367.115 796.768 367.997 800.592 367.997C804.416 367.997 807.505 367.164 809.858 365.497C812.212 363.732 813.389 361.525 813.389 358.878C813.389 356.721 812.604 355.004 811.035 353.73C809.466 352.357 807.505 351.327 805.152 350.641C802.798 349.856 799.415 348.974 795.003 347.993C789.021 346.719 784.118 345.395 780.294 344.022C776.568 342.649 773.332 340.492 770.586 337.55C767.841 334.51 766.468 330.441 766.468 325.342C766.468 320.831 767.792 316.664 770.439 312.84C773.087 309.015 776.96 305.976 782.059 303.72C787.158 301.465 793.189 300.337 800.151 300.337ZM57.8051 499.863C68.9837 499.863 78.8875 502.706 87.5166 508.394C96.2438 514.081 102.47 522.073 106.197 532.369H81.339C76.7303 523.347 68.8856 518.837 57.8051 518.837C51.6274 518.837 46.1362 520.21 41.3314 522.955C36.6246 525.701 32.9474 529.623 30.2999 534.722C27.6523 539.821 26.3285 545.705 26.3285 552.373C26.3285 559.04 27.6523 564.924 30.2999 570.023C32.9474 575.122 36.6246 579.093 41.3314 581.937C46.1362 584.683 51.6274 586.055 57.8051 586.055C65.4536 586.055 71.6803 583.996 76.4851 579.878C81.388 575.661 84.4278 570.023 85.6045 562.963H51.4804V547.225H107.815V562.963C106.736 570.121 103.941 576.936 99.4306 583.408C94.92 589.782 89.0365 594.979 81.7802 598.999C74.622 602.921 66.6303 604.883 57.8051 604.883C48.1954 604.883 39.3702 602.676 31.3295 598.264C23.2887 593.753 16.915 587.526 12.2082 579.584C7.59948 571.543 5.29512 562.473 5.29512 552.373C5.29512 542.371 7.59948 533.398 12.2082 525.456C16.915 517.415 23.2887 511.139 31.3295 506.629C39.3702 502.118 48.1954 499.863 57.8051 499.863ZM144.815 536.928C147.364 532.026 150.649 528.201 154.67 525.456C158.788 522.71 163.446 521.337 168.643 521.337V542.518H163.495C157.317 542.518 152.66 544.087 149.522 547.225C146.384 550.264 144.815 555.559 144.815 563.11V604H124.076V522.514H144.815V536.928ZM219.876 521.337C227.623 521.337 234.683 523.053 241.057 526.485C247.431 529.917 252.481 534.82 256.207 541.194C259.933 547.47 261.796 554.775 261.796 563.11C261.796 571.445 259.933 578.799 256.207 585.173C252.481 591.547 247.381 596.499 240.91 600.029C234.536 603.461 227.427 605.177 219.582 605.177C211.836 605.177 204.775 603.461 198.402 600.029C192.028 596.499 186.978 591.547 183.252 585.173C179.624 578.799 177.809 571.445 177.809 563.11C177.809 554.775 179.673 547.47 183.399 541.194C187.125 534.82 192.175 529.917 198.549 526.485C204.922 523.053 212.032 521.337 219.876 521.337ZM219.729 538.841C213.846 538.841 208.894 540.949 204.873 545.165C200.853 549.382 198.843 555.412 198.843 563.257C198.843 568.552 199.774 573.063 201.638 576.789C203.599 580.417 206.148 583.163 209.286 585.026C212.424 586.791 215.856 587.673 219.582 587.673C223.21 587.673 226.642 586.742 229.878 584.879C233.114 583.016 235.713 580.27 237.674 576.642C239.733 572.916 240.763 568.454 240.763 563.257C240.763 557.962 239.782 553.5 237.821 549.872C235.86 546.146 233.261 543.4 230.025 541.635C226.887 539.772 223.455 538.841 219.729 538.841ZM390.428 522.514L365.423 604H343.36L329.387 549.284L315.267 604H293.204L268.199 522.514H289.085L304.088 584.437L319.091 522.514H340.86L355.568 584.29L370.571 522.514H390.428ZM583.487 501.333L553.776 604H530.242L510.385 532.369L489.94 604H466.406L437.283 501.333H459.346L479.056 580.613L499.795 501.333H523.182L542.744 579.878L561.277 501.333H583.487ZM594.156 501.775C594.156 498.245 595.381 495.254 597.833 492.802C600.284 490.351 603.226 489.125 606.658 489.125C610.188 489.125 613.179 490.351 615.63 492.802C618.082 495.254 619.308 498.245 619.308 501.775C619.308 505.305 618.082 508.296 615.63 510.747C613.179 513.198 610.188 514.424 606.658 514.424C603.226 514.424 600.284 513.198 597.833 510.747C595.381 508.296 594.156 505.305 594.156 501.775ZM617.101 522.514V604H596.362V522.514H617.101ZM680.645 586.644V604H667.554C659.219 604 652.797 602.088 648.286 598.264C643.775 594.439 641.52 588.115 641.52 579.289V539.429H632.842V522.514H641.52V502.363H662.259V522.514H680.498V539.429H662.259V579.289C662.259 581.937 662.897 583.849 664.171 585.026C665.446 586.104 667.652 586.644 670.79 586.644H680.645ZM742.804 521.337C748.884 521.337 754.277 522.71 758.984 525.456C763.788 528.103 767.564 532.075 770.309 537.37C773.055 542.567 774.428 548.793 774.428 556.05V604H753.836V558.991C753.836 552.618 752.218 547.764 748.982 544.43C745.746 540.998 741.333 539.282 735.744 539.282C730.155 539.282 725.693 540.998 722.359 544.43C719.123 547.764 717.505 552.618 717.505 558.991V604H696.766V495.156H717.505V534.722C720.055 530.408 723.487 527.123 727.801 524.867C732.214 522.514 737.215 521.337 742.804 521.337ZM951.764 501.333V604H931.172V539.135L903.225 604H888.369L860.57 539.429V604H839.831V501.333H862.923L895.871 577.377L928.818 501.333H951.764ZM1005.91 521.337C1011.7 521.337 1016.84 522.563 1021.36 525.014C1025.87 527.466 1029.49 530.849 1032.24 535.163V522.514H1052.83V604H1032.24V590.321C1029.4 594.93 1025.72 598.558 1021.21 601.205C1016.8 603.853 1011.7 605.177 1005.91 605.177C998.949 605.177 992.575 603.412 986.79 599.882C981.103 596.253 976.543 591.252 973.111 584.879C969.777 578.505 968.11 571.249 968.11 563.11C968.11 554.971 969.777 547.764 973.111 541.488C976.543 535.114 981.103 530.162 986.79 526.632C992.575 523.102 998.949 521.337 1005.91 521.337ZM1010.62 539.282C1006.99 539.282 1003.51 540.213 1000.17 542.076C996.939 543.94 994.291 546.685 992.232 550.313C990.173 553.843 989.143 558.109 989.143 563.11C989.143 568.111 990.173 572.474 992.232 576.201C994.291 579.829 996.939 582.574 1000.17 584.437C1003.51 586.301 1006.99 587.232 1010.62 587.232C1014.34 587.232 1017.83 586.301 1021.06 584.437C1024.4 582.574 1027.09 579.829 1029.15 576.201C1031.21 572.572 1032.24 568.258 1032.24 563.257C1032.24 558.256 1031.21 553.941 1029.15 550.313C1027.09 546.685 1024.4 543.94 1021.06 542.076C1017.83 540.213 1014.34 539.282 1010.62 539.282ZM1095.56 536.928C1098.11 532.026 1101.4 528.201 1105.42 525.456C1109.54 522.71 1114.2 521.337 1119.39 521.337V542.518H1114.24C1108.07 542.518 1103.41 544.087 1100.27 547.225C1097.13 550.264 1095.56 555.559 1095.56 563.11V604H1074.82V522.514H1095.56V536.928ZM1174.3 563.698L1210.49 604H1182.83L1154.89 570.023V604H1134.15V495.156H1154.89V557.374L1182.39 522.514H1210.49L1174.3 563.698ZM1297.8 562.08C1297.8 564.924 1297.6 567.572 1297.21 570.023H1237.79C1238.28 575.318 1240.24 579.584 1243.67 582.82C1247.1 586.055 1251.47 587.673 1256.76 587.673C1260.88 587.673 1264.16 586.889 1266.62 585.32C1269.07 583.751 1271.08 581.594 1272.65 578.848H1295C1292.65 586.595 1288.09 592.919 1281.32 597.822C1274.56 602.725 1266.37 605.177 1256.76 605.177C1249.01 605.177 1242.1 603.461 1236.02 600.029C1229.94 596.499 1225.19 591.596 1221.75 585.32C1218.32 578.946 1216.61 571.543 1216.61 563.11C1216.61 554.677 1218.32 547.323 1221.75 541.047C1225.19 534.771 1229.94 529.917 1236.02 526.485C1242.2 523.053 1249.21 521.337 1257.05 521.337C1264.9 521.337 1271.86 523.004 1277.94 526.338C1284.12 529.672 1288.97 534.428 1292.5 540.606C1296.03 546.685 1297.8 553.843 1297.8 562.08ZM1276.32 556.638C1276.03 551.245 1274.02 546.93 1270.29 543.694C1266.66 540.459 1262.15 538.841 1256.76 538.841C1251.76 538.841 1247.49 540.459 1243.96 543.694C1240.53 546.93 1238.47 551.245 1237.79 556.638H1276.32ZM1355.61 586.644V604H1342.52C1334.18 604 1327.76 602.088 1323.25 598.264C1318.74 594.439 1316.48 588.115 1316.48 579.289V539.429H1307.8V522.514H1316.48V502.363H1337.22V522.514H1355.46V539.429H1337.22V579.289C1337.22 581.937 1337.86 583.849 1339.13 585.026C1340.41 586.104 1342.61 586.644 1345.75 586.644H1355.61ZM1369.52 501.775C1369.52 498.245 1370.75 495.254 1373.2 492.802C1375.65 490.351 1378.59 489.125 1382.02 489.125C1385.55 489.125 1388.54 490.351 1391 492.802C1393.45 495.254 1394.67 498.245 1394.67 501.775C1394.67 505.305 1393.45 508.296 1391 510.747C1388.54 513.198 1385.55 514.424 1382.02 514.424C1378.59 514.424 1375.65 513.198 1373.2 510.747C1370.75 508.296 1369.52 505.305 1369.52 501.775ZM1392.47 522.514V604H1371.73V522.514H1392.47ZM1460.57 521.337C1466.65 521.337 1472.04 522.71 1476.75 525.456C1481.55 528.103 1485.33 532.075 1488.08 537.37C1490.82 542.567 1492.19 548.793 1492.19 556.05V604H1471.6V558.991C1471.6 552.618 1469.98 547.764 1466.75 544.43C1463.51 540.998 1459.1 539.282 1453.51 539.282C1447.92 539.282 1443.46 540.998 1440.13 544.43C1436.89 547.764 1435.27 552.618 1435.27 558.991V604H1414.53V522.514H1435.27V534.722C1437.82 530.408 1441.25 527.123 1445.57 524.867C1449.98 522.514 1454.98 521.337 1460.57 521.337ZM1545.56 521.337C1551.35 521.337 1556.5 522.563 1561.01 525.014C1565.52 527.466 1569.15 530.849 1571.89 535.163V522.514H1592.49V604.588C1592.49 612.139 1590.97 618.905 1587.93 624.886C1584.98 630.868 1580.47 635.575 1574.39 639.007C1568.41 642.537 1561.01 644.302 1552.18 644.302C1540.51 644.302 1531 641.703 1523.65 636.506C1516.39 631.407 1512.27 624.102 1511.29 614.59H1531.59C1532.87 618.218 1535.32 621.062 1538.95 623.121C1542.57 625.279 1546.99 626.357 1552.18 626.357C1557.97 626.357 1562.68 624.543 1566.3 620.915C1570.03 617.287 1571.89 611.845 1571.89 604.588V590.321C1569.05 594.93 1565.37 598.558 1560.86 601.205C1556.45 603.853 1551.35 605.177 1545.56 605.177C1538.6 605.177 1532.23 603.412 1526.44 599.882C1520.76 596.253 1516.2 591.252 1512.76 584.879C1509.43 578.505 1507.76 571.249 1507.76 563.11C1507.76 554.971 1509.43 547.764 1512.76 541.488C1516.2 535.114 1520.76 530.162 1526.44 526.632C1532.23 523.102 1538.6 521.337 1545.56 521.337ZM1550.27 539.282C1546.64 539.282 1543.16 540.213 1539.83 542.076C1536.59 543.94 1533.94 546.685 1531.89 550.313C1529.83 553.843 1528.8 558.109 1528.8 563.11C1528.8 568.111 1529.83 572.474 1531.89 576.201C1533.94 579.829 1536.59 582.574 1539.83 584.437C1543.16 586.301 1546.64 587.232 1550.27 587.232C1554 587.232 1557.48 586.301 1560.71 584.437C1564.05 582.574 1566.74 579.829 1568.8 576.201C1570.86 572.572 1571.89 568.258 1571.89 563.257C1571.89 558.256 1570.86 553.941 1568.8 550.313C1566.74 546.685 1564.05 543.94 1560.71 542.076C1557.48 540.213 1554 539.282 1550.27 539.282Z" fill="#1C1C1C"/>
<path d="M19.9193 810.388C23.578 810.388 26.8301 811.252 29.6757 812.98C32.5552 814.708 34.6725 817.197 36.0275 820.45H30.4379C29.4216 818.519 27.9988 817.045 26.1695 816.029C24.3402 815.012 22.2568 814.504 19.9193 814.504C17.4125 814.504 15.1427 815.08 13.1102 816.232C11.1115 817.35 9.5362 818.959 8.38441 821.059C7.26648 823.16 6.70752 825.582 6.70752 828.326C6.70752 831.07 7.26648 833.492 8.38441 835.592C9.5362 837.693 11.1115 839.319 13.1102 840.471C15.1427 841.622 17.4125 842.198 19.9193 842.198C23.5102 842.198 26.4236 841.148 28.6594 839.048C30.9291 836.947 32.2503 834.102 32.623 830.511H18.09V826.852H37.5012V830.511C37.1963 833.492 36.2308 836.185 34.6047 838.59C33.0125 840.996 30.9291 842.876 28.3545 844.231C25.8138 845.586 23.0021 846.263 19.9193 846.263C16.6333 846.263 13.6183 845.501 10.8743 843.977C8.13033 842.418 5.96224 840.284 4.37005 837.574C2.77786 834.83 1.98177 831.747 1.98177 828.326C1.98177 824.87 2.77786 821.788 4.37005 819.078C5.96224 816.334 8.13033 814.199 10.8743 812.675C13.6183 811.151 16.6333 810.388 19.9193 810.388ZM68.6172 830.867C68.6172 831.849 68.5494 832.764 68.4139 833.611H46.2079C46.3434 836.388 47.2073 838.59 48.7995 840.216C50.4255 841.809 52.492 842.605 54.9988 842.605C56.8959 842.605 58.4881 842.181 59.7754 841.334C61.0966 840.487 62.0621 839.37 62.6718 837.981H67.6517C66.7709 840.42 65.2465 842.435 63.0784 844.028C60.9442 845.62 58.251 846.416 54.9988 846.416C52.3904 846.416 50.0529 845.823 47.9864 844.637C45.9538 843.452 44.3617 841.775 43.2099 839.607C42.0581 837.405 41.4822 834.881 41.4822 832.035C41.4822 829.156 42.0581 826.632 43.2099 824.464C44.3617 822.262 45.9877 820.568 48.0881 819.382C50.1884 818.197 52.6106 817.604 55.3545 817.604C57.963 817.604 60.2666 818.18 62.2653 819.332C64.264 820.483 65.8224 822.059 66.9403 824.057C68.0582 826.056 68.6172 828.326 68.6172 830.867ZM63.7898 830.257C63.7898 828.461 63.4002 826.903 62.621 825.582C61.8419 824.227 60.7748 823.194 59.4197 822.482C58.0985 821.771 56.6249 821.415 54.9988 821.415C52.5936 821.415 50.578 822.211 48.9519 823.803C47.3258 825.362 46.4281 827.513 46.2587 830.257H63.7898ZM87.3336 842.198V845.958H82.6586C80.2873 845.958 78.4749 845.383 77.2215 844.231C76.0019 843.079 75.3922 841.267 75.3922 838.794V821.822H71.7843V818.061H75.3922V811.151H80.0671V818.061H87.2828V821.822H80.0671V838.794C80.0671 840.047 80.3212 840.928 80.8293 841.436C81.3375 841.944 82.2352 842.198 83.5225 842.198H87.3336ZM105.397 842.198V845.958H100.722C98.3503 845.958 96.5379 845.383 95.2845 844.231C94.0649 843.079 93.4552 841.267 93.4552 838.794V821.822H89.8473V818.061H93.4552V811.151H98.1301V818.061H105.346V821.822H98.1301V838.794C98.1301 840.047 98.3842 840.928 98.8923 841.436C99.4005 841.944 100.298 842.198 101.585 842.198H105.397ZM109.74 810.439C109.74 809.558 110.045 808.813 110.654 808.203C111.264 807.593 111.992 807.289 112.839 807.289C113.72 807.289 114.465 807.593 115.075 808.203C115.685 808.813 115.99 809.558 115.99 810.439C115.99 811.32 115.685 812.065 115.075 812.675C114.465 813.285 113.72 813.59 112.839 813.59C111.959 813.59 111.213 813.285 110.603 812.675C110.028 812.065 109.74 811.32 109.74 810.439ZM115.126 818.061V845.958H110.502V818.061H115.126ZM136.479 817.604C138.478 817.604 140.29 818.061 141.916 818.976C143.576 819.857 144.88 821.195 145.829 822.99C146.811 824.752 147.302 826.903 147.302 829.444V845.958H142.729V830.206C142.729 827.394 142.051 825.26 140.696 823.803C139.341 822.347 137.461 821.618 135.056 821.618C132.685 821.618 130.805 822.347 129.416 823.803C128.061 825.26 127.383 827.394 127.383 830.206V845.958H122.759V818.061H127.383V822.584C128.298 820.958 129.551 819.721 131.143 818.874C132.735 818.027 134.514 817.604 136.479 817.604ZM166.151 817.604C168.522 817.604 170.589 818.163 172.35 819.281C174.146 820.399 175.501 821.855 176.416 823.651V818.061H181.09V846.67C181.09 849.211 180.531 851.463 179.414 853.428C178.296 855.393 176.72 856.918 174.688 858.002C172.655 859.119 170.301 859.678 167.625 859.678C165.287 859.678 163.153 859.272 161.222 858.459C159.291 857.68 157.716 856.562 156.496 855.105C155.277 853.648 154.548 851.988 154.311 850.125H158.834C159.274 851.717 160.307 853.039 161.933 854.089C163.559 855.139 165.456 855.664 167.625 855.664C170.267 855.664 172.384 854.868 173.976 853.276C175.602 851.717 176.416 849.516 176.416 846.67V840.267C175.501 842.097 174.146 843.587 172.35 844.739C170.589 845.857 168.522 846.416 166.151 846.416C163.644 846.416 161.374 845.806 159.342 844.587C157.343 843.333 155.751 841.605 154.565 839.403C153.413 837.168 152.838 834.644 152.838 831.832C152.838 829.02 153.413 826.547 154.565 824.413C155.751 822.245 157.343 820.568 159.342 819.382C161.374 818.197 163.644 817.604 166.151 817.604ZM166.964 821.618C165.304 821.618 163.746 822.025 162.289 822.838C160.866 823.651 159.714 824.837 158.834 826.395C157.987 827.919 157.563 829.732 157.563 831.832C157.563 833.932 157.987 835.796 158.834 837.422C159.714 839.014 160.866 840.25 162.289 841.131C163.746 842.012 165.304 842.452 166.964 842.452C168.658 842.452 170.216 842.029 171.639 841.182C173.096 840.335 174.247 839.132 175.094 837.574C175.975 835.982 176.416 834.136 176.416 832.035C176.416 829.935 175.975 828.106 175.094 826.547C174.247 824.955 173.096 823.736 171.639 822.889C170.216 822.042 168.658 821.618 166.964 821.618ZM216.901 842.198V845.958H212.226C209.855 845.958 208.042 845.383 206.789 844.231C205.569 843.079 204.959 841.267 204.959 838.794V821.822H201.352V818.061H204.959V811.151H209.634V818.061H216.85V821.822H209.634V838.794C209.634 840.047 209.888 840.928 210.397 841.436C210.905 841.944 211.802 842.198 213.09 842.198H216.901ZM235.726 817.604C237.725 817.604 239.537 818.061 241.163 818.976C242.823 819.857 244.127 821.195 245.076 822.99C246.058 824.752 246.55 826.903 246.55 829.444V845.958H241.976V830.206C241.976 827.394 241.299 825.26 239.944 823.803C238.589 822.347 236.708 821.618 234.303 821.618C231.932 821.618 230.052 822.347 228.663 823.803C227.308 825.26 226.63 827.394 226.63 830.206V845.958H222.006V808.356H226.63V822.584C227.545 820.958 228.798 819.721 230.391 818.874C231.983 818.027 233.761 817.604 235.726 817.604ZM279.22 830.867C279.22 831.849 279.152 832.764 279.016 833.611H256.811C256.946 836.388 257.81 838.59 259.402 840.216C261.028 841.809 263.095 842.605 265.601 842.605C267.499 842.605 269.091 842.181 270.378 841.334C271.699 840.487 272.665 839.37 273.274 837.981H278.254C277.373 840.42 275.849 842.435 273.681 844.028C271.547 845.62 268.854 846.416 265.601 846.416C262.993 846.416 260.655 845.823 258.589 844.637C256.556 843.452 254.964 841.775 253.812 839.607C252.661 837.405 252.085 834.881 252.085 832.035C252.085 829.156 252.661 826.632 253.812 824.464C254.964 822.262 256.59 820.568 258.691 819.382C260.791 818.197 263.213 817.604 265.957 817.604C268.566 817.604 270.869 818.18 272.868 819.332C274.867 820.483 276.425 822.059 277.543 824.057C278.661 826.056 279.22 828.326 279.22 830.867ZM274.392 830.257C274.392 828.461 274.003 826.903 273.224 825.582C272.444 824.227 271.377 823.194 270.022 822.482C268.701 821.771 267.228 821.415 265.601 821.415C263.196 821.415 261.181 822.211 259.555 823.803C257.928 825.362 257.031 827.513 256.861 830.257H274.392ZM315.152 817.604C317.659 817.604 319.912 818.197 321.911 819.382C323.943 820.568 325.536 822.245 326.687 824.413C327.873 826.547 328.466 829.02 328.466 831.832C328.466 834.644 327.873 837.168 326.687 839.403C325.536 841.605 323.943 843.333 321.911 844.587C319.912 845.806 317.659 846.416 315.152 846.416C312.781 846.416 310.698 845.857 308.902 844.739C307.141 843.587 305.786 842.097 304.837 840.267V845.958H300.213V808.356H304.837V823.651C305.786 821.855 307.141 820.399 308.902 819.281C310.698 818.163 312.781 817.604 315.152 817.604ZM314.238 821.618C312.578 821.618 311.019 822.042 309.563 822.889C308.14 823.736 306.988 824.955 306.107 826.547C305.261 828.106 304.837 829.935 304.837 832.035C304.837 834.136 305.261 835.982 306.107 837.574C306.988 839.132 308.14 840.335 309.563 841.182C311.019 842.029 312.578 842.452 314.238 842.452C315.898 842.452 317.456 842.029 318.913 841.182C320.369 840.301 321.521 839.048 322.368 837.422C323.249 835.796 323.689 833.932 323.689 831.832C323.689 829.732 323.249 827.919 322.368 826.395C321.521 824.837 320.369 823.651 318.913 822.838C317.49 822.025 315.932 821.618 314.238 821.618ZM345.739 817.604C348.11 817.604 350.177 818.163 351.938 819.281C353.734 820.399 355.089 821.855 356.003 823.651V818.061H360.678V845.958H356.003V840.267C355.089 842.097 353.734 843.587 351.938 844.739C350.177 845.857 348.11 846.416 345.739 846.416C343.232 846.416 340.962 845.806 338.93 844.587C336.931 843.333 335.339 841.605 334.153 839.403C333.001 837.168 332.425 834.644 332.425 831.832C332.425 829.02 333.001 826.547 334.153 824.413C335.339 822.245 336.931 820.568 338.93 819.382C340.962 818.197 343.232 817.604 345.739 817.604ZM346.552 821.618C344.892 821.618 343.334 822.025 341.877 822.838C340.454 823.651 339.302 824.837 338.422 826.395C337.575 827.919 337.151 829.732 337.151 831.832C337.151 833.932 337.575 835.796 338.422 837.422C339.302 839.014 340.454 840.25 341.877 841.131C343.334 842.012 344.892 842.452 346.552 842.452C348.246 842.452 349.804 842.029 351.227 841.182C352.683 840.335 353.835 839.132 354.682 837.574C355.563 835.982 356.003 834.136 356.003 832.035C356.003 829.935 355.563 828.106 354.682 826.547C353.835 824.955 352.683 823.736 351.227 822.889C349.804 822.042 348.246 821.618 346.552 821.618ZM372.921 808.356V845.958H368.297V808.356H372.921ZM385.178 808.356V845.958H380.554V808.356H385.178ZM412.669 822.787C414.329 819.332 417.158 817.604 421.155 817.604V822.431H419.936C417.564 822.431 415.752 823.058 414.498 824.311C413.279 825.531 412.669 827.665 412.669 830.714V845.958H408.045V818.061H412.669V822.787ZM438.999 817.604C441.642 817.604 444.03 818.197 446.164 819.382C448.299 820.568 449.975 822.262 451.195 824.464C452.448 826.666 453.075 829.19 453.075 832.035C453.075 834.847 452.431 837.354 451.144 839.556C449.857 841.724 448.112 843.418 445.91 844.637C443.708 845.823 441.269 846.416 438.593 846.416C435.984 846.416 433.63 845.823 431.53 844.637C429.463 843.452 427.837 841.775 426.652 839.607C425.5 837.405 424.924 834.881 424.924 832.035C424.924 829.156 425.534 826.632 426.753 824.464C428.007 822.262 429.7 820.568 431.835 819.382C433.969 818.197 436.357 817.604 438.999 817.604ZM438.847 821.415C437.153 821.415 435.612 821.822 434.223 822.635C432.834 823.448 431.716 824.65 430.869 826.242C430.056 827.835 429.65 829.766 429.65 832.035C429.65 834.271 430.039 836.185 430.818 837.777C431.631 839.37 432.715 840.572 434.07 841.385C435.425 842.198 436.933 842.605 438.593 842.605C440.287 842.605 441.862 842.198 443.319 841.385C444.809 840.538 446.012 839.319 446.927 837.727C447.841 836.134 448.299 834.237 448.299 832.035C448.299 829.799 447.858 827.885 446.977 826.293C446.13 824.667 444.979 823.448 443.522 822.635C442.099 821.822 440.541 821.415 438.847 821.415ZM463.484 808.356V845.958H458.86V808.356H463.484ZM475.741 808.356V845.958H471.117V808.356H475.741ZM482.611 810.439C482.611 809.558 482.916 808.813 483.526 808.203C484.136 807.593 484.864 807.289 485.711 807.289C486.592 807.289 487.337 807.593 487.947 808.203C488.557 808.813 488.862 809.558 488.862 810.439C488.862 811.32 488.557 812.065 487.947 812.675C487.337 813.285 486.592 813.59 485.711 813.59C484.83 813.59 484.085 813.285 483.475 812.675C482.899 812.065 482.611 811.32 482.611 810.439ZM487.998 818.061V845.958H483.374V818.061H487.998ZM509.351 817.604C511.349 817.604 513.162 818.061 514.788 818.976C516.448 819.857 517.752 821.195 518.701 822.99C519.683 824.752 520.174 826.903 520.174 829.444V845.958H515.601V830.206C515.601 827.394 514.923 825.26 513.568 823.803C512.213 822.347 510.333 821.618 507.928 821.618C505.556 821.618 503.676 822.347 502.287 823.803C500.932 825.26 500.255 827.394 500.255 830.206V845.958H495.631V818.061H500.255V822.584C501.169 820.958 502.423 819.721 504.015 818.874C505.607 818.027 507.386 817.604 509.351 817.604ZM539.023 817.604C541.394 817.604 543.461 818.163 545.222 819.281C547.018 820.399 548.373 821.855 549.287 823.651V818.061H553.962V846.67C553.962 849.211 553.403 851.463 552.285 853.428C551.167 855.393 549.592 856.918 547.56 858.002C545.527 859.119 543.173 859.678 540.496 859.678C538.159 859.678 536.025 859.272 534.094 858.459C532.163 857.68 530.588 856.562 529.368 855.105C528.148 853.648 527.42 851.988 527.183 850.125H531.705C532.146 851.717 533.179 853.039 534.805 854.089C536.431 855.139 538.328 855.664 540.496 855.664C543.139 855.664 545.256 854.868 546.848 853.276C548.474 851.717 549.287 849.516 549.287 846.67V840.267C548.373 842.097 547.018 843.587 545.222 844.739C543.461 845.857 541.394 846.416 539.023 846.416C536.516 846.416 534.246 845.806 532.214 844.587C530.215 843.333 528.623 841.605 527.437 839.403C526.285 837.168 525.709 834.644 525.709 831.832C525.709 829.02 526.285 826.547 527.437 824.413C528.623 822.245 530.215 820.568 532.214 819.382C534.246 818.197 536.516 817.604 539.023 817.604ZM539.836 821.618C538.176 821.618 536.618 822.025 535.161 822.838C533.738 823.651 532.586 824.837 531.705 826.395C530.859 827.919 530.435 829.732 530.435 831.832C530.435 833.932 530.859 835.796 531.705 837.422C532.586 839.014 533.738 840.25 535.161 841.131C536.618 842.012 538.176 842.452 539.836 842.452C541.53 842.452 543.088 842.029 544.511 841.182C545.967 840.335 547.119 839.132 547.966 837.574C548.847 835.982 549.287 834.136 549.287 832.035C549.287 829.935 548.847 828.106 547.966 826.547C547.119 824.955 545.967 823.736 544.511 822.889C543.088 822.042 541.53 821.618 539.836 821.618ZM588.299 821.822H582.455V845.958H577.78V821.822H574.173V818.061H577.78V815.724C577.78 812.675 578.593 810.456 580.22 809.067C581.846 807.678 584.403 806.984 587.893 806.984V810.744C585.86 810.744 584.437 811.134 583.624 811.913C582.845 812.658 582.455 813.928 582.455 815.724V818.061H588.299V821.822ZM605.834 817.604C608.476 817.604 610.865 818.197 612.999 819.382C615.133 820.568 616.81 822.262 618.03 824.464C619.283 826.666 619.91 829.19 619.91 832.035C619.91 834.847 619.266 837.354 617.979 839.556C616.691 841.724 614.947 843.418 612.745 844.637C610.543 845.823 608.104 846.416 605.428 846.416C602.819 846.416 600.465 845.823 598.364 844.637C596.298 843.452 594.672 841.775 593.486 839.607C592.334 837.405 591.758 834.881 591.758 832.035C591.758 829.156 592.368 826.632 593.588 824.464C594.841 822.262 596.535 820.568 598.669 819.382C600.803 818.197 603.192 817.604 605.834 817.604ZM605.682 821.415C603.988 821.415 602.446 821.822 601.057 822.635C599.669 823.448 598.551 824.65 597.704 826.242C596.891 827.835 596.484 829.766 596.484 832.035C596.484 834.271 596.874 836.185 597.653 837.777C598.466 839.37 599.55 840.572 600.905 841.385C602.26 842.198 603.768 842.605 605.428 842.605C607.121 842.605 608.697 842.198 610.153 841.385C611.644 840.538 612.846 839.319 613.761 837.727C614.676 836.134 615.133 834.237 615.133 832.035C615.133 829.799 614.693 827.885 613.812 826.293C612.965 824.667 611.813 823.448 610.357 822.635C608.934 821.822 607.375 821.415 605.682 821.415ZM630.318 822.787C631.978 819.332 634.807 817.604 638.804 817.604V822.431H637.585C635.213 822.431 633.401 823.058 632.148 824.311C630.928 825.531 630.318 827.665 630.318 830.714V845.958H625.694V818.061H630.318V822.787ZM661.517 818.061L670.054 840.623L678.743 818.061H683.52L666.7 859.018H661.923L667.462 845.501L656.435 818.061H661.517ZM700.168 817.604C702.811 817.604 705.199 818.197 707.333 819.382C709.468 820.568 711.144 822.262 712.364 824.464C713.617 826.666 714.244 829.19 714.244 832.035C714.244 834.847 713.6 837.354 712.313 839.556C711.026 841.724 709.281 843.418 707.079 844.637C704.877 845.823 702.438 846.416 699.762 846.416C697.153 846.416 694.799 845.823 692.699 844.637C690.632 843.452 689.006 841.775 687.821 839.607C686.669 837.405 686.093 834.881 686.093 832.035C686.093 829.156 686.703 826.632 687.922 824.464C689.176 822.262 690.869 820.568 693.004 819.382C695.138 818.197 697.526 817.604 700.168 817.604ZM700.016 821.415C698.322 821.415 696.781 821.822 695.392 822.635C694.003 823.448 692.885 824.65 692.038 826.242C691.225 827.835 690.819 829.766 690.819 832.035C690.819 834.271 691.208 836.185 691.987 837.777C692.8 839.37 693.884 840.572 695.239 841.385C696.595 842.198 698.102 842.605 699.762 842.605C701.456 842.605 703.031 842.198 704.488 841.385C705.978 840.538 707.181 839.319 708.096 837.727C709.01 836.134 709.468 834.237 709.468 832.035C709.468 829.799 709.027 827.885 708.146 826.293C707.299 824.667 706.148 823.448 704.691 822.635C703.268 821.822 701.71 821.415 700.016 821.415ZM744.318 818.061V845.958H739.694V841.487C738.779 843.113 737.526 844.349 735.934 845.196C734.341 846.009 732.563 846.416 730.598 846.416C728.599 846.416 726.77 845.975 725.11 845.095C723.484 844.18 722.18 842.842 721.197 841.08C720.249 839.319 719.775 837.168 719.775 834.627V818.061H724.348V833.865C724.348 836.642 725.025 838.777 726.381 840.267C727.769 841.724 729.65 842.452 732.021 842.452C734.392 842.452 736.255 841.724 737.611 840.267C738.999 838.777 739.694 836.642 739.694 833.865V818.061H744.318ZM756.561 822.787C758.221 819.332 761.049 817.604 765.047 817.604V822.431H763.827C761.456 822.431 759.644 823.058 758.39 824.311C757.171 825.531 756.561 827.665 756.561 830.714V845.958H751.937V818.061H756.561V822.787ZM800.819 817.604C803.326 817.604 805.578 818.197 807.577 819.382C809.61 820.568 811.202 822.245 812.354 824.413C813.539 826.547 814.132 829.02 814.132 831.832C814.132 834.644 813.539 837.168 812.354 839.403C811.202 841.605 809.61 843.333 807.577 844.587C805.578 845.806 803.326 846.416 800.819 846.416C798.447 846.416 796.364 845.857 794.569 844.739C792.807 843.587 791.452 842.097 790.503 840.267V845.958H785.879V808.356H790.503V823.651C791.452 821.855 792.807 820.399 794.569 819.281C796.364 818.163 798.447 817.604 800.819 817.604ZM799.904 821.618C798.244 821.618 796.686 822.042 795.229 822.889C793.806 823.736 792.654 824.955 791.774 826.547C790.927 828.106 790.503 829.935 790.503 832.035C790.503 834.136 790.927 835.982 791.774 837.574C792.654 839.132 793.806 840.335 795.229 841.182C796.686 842.029 798.244 842.452 799.904 842.452C801.564 842.452 803.122 842.029 804.579 841.182C806.036 840.301 807.187 839.048 808.034 837.422C808.915 835.796 809.356 833.932 809.356 831.832C809.356 829.732 808.915 827.919 808.034 826.395C807.187 824.837 806.036 823.651 804.579 822.838C803.156 822.025 801.598 821.618 799.904 821.618ZM844.21 818.061V845.958H839.586V841.487C838.672 843.113 837.418 844.349 835.826 845.196C834.234 846.009 832.455 846.416 830.49 846.416C828.492 846.416 826.662 845.975 825.002 845.095C823.376 844.18 822.072 842.842 821.09 841.08C820.141 839.319 819.667 837.168 819.667 834.627V818.061H824.24V833.865C824.24 836.642 824.918 838.777 826.273 840.267C827.662 841.724 829.542 842.452 831.913 842.452C834.285 842.452 836.148 841.724 837.503 840.267C838.892 838.777 839.586 836.642 839.586 833.865V818.061H844.21ZM861.433 817.604C864.448 817.604 866.836 818.4 868.598 819.992C870.359 821.551 871.325 823.702 871.494 826.446H866.718C866.65 824.887 866.125 823.634 865.142 822.685C864.16 821.737 862.805 821.263 861.077 821.263C859.316 821.263 857.927 821.686 856.91 822.533C855.928 823.346 855.437 824.379 855.437 825.633C855.437 826.683 855.742 827.53 856.351 828.173C856.995 828.783 857.774 829.24 858.689 829.545C859.637 829.85 860.908 830.172 862.5 830.511C864.533 830.985 866.159 831.459 867.378 831.934C868.632 832.374 869.699 833.136 870.58 834.22C871.46 835.27 871.901 836.71 871.901 838.54C871.901 840.064 871.46 841.436 870.58 842.656C869.699 843.841 868.462 844.773 866.87 845.45C865.278 846.094 863.449 846.416 861.382 846.416C858.265 846.416 855.759 845.637 853.862 844.078C851.998 842.52 850.982 840.369 850.813 837.625H855.589C855.657 839.183 856.199 840.437 857.215 841.385C858.265 842.3 859.654 842.757 861.382 842.757C863.279 842.757 864.736 842.368 865.752 841.588C866.802 840.809 867.327 839.776 867.327 838.489C867.327 837.439 867.006 836.609 866.362 835.999C865.752 835.355 864.973 834.881 864.024 834.576C863.076 834.237 861.772 833.882 860.112 833.509C858.113 833.069 856.487 832.628 855.234 832.188C854.014 831.713 852.964 830.985 852.083 830.003C851.236 829.02 850.813 827.665 850.813 825.938C850.813 824.413 851.236 823.024 852.083 821.771C852.964 820.483 854.2 819.467 855.793 818.722C857.419 817.977 859.299 817.604 861.433 817.604ZM877.814 810.439C877.814 809.558 878.119 808.813 878.729 808.203C879.338 807.593 880.067 807.289 880.914 807.289C881.794 807.289 882.54 807.593 883.149 808.203C883.759 808.813 884.064 809.558 884.064 810.439C884.064 811.32 883.759 812.065 883.149 812.675C882.54 813.285 881.794 813.59 880.914 813.59C880.033 813.59 879.288 813.285 878.678 812.675C878.102 812.065 877.814 811.32 877.814 810.439ZM883.2 818.061V845.958H878.576V818.061H883.2ZM904.553 817.604C906.552 817.604 908.364 818.061 909.99 818.976C911.65 819.857 912.954 821.195 913.903 822.99C914.885 824.752 915.377 826.903 915.377 829.444V845.958H910.803V830.206C910.803 827.394 910.126 825.26 908.771 823.803C907.416 822.347 905.535 821.618 903.13 821.618C900.759 821.618 898.879 822.347 897.49 823.803C896.135 825.26 895.457 827.394 895.457 830.206V845.958H890.833V818.061H895.457V822.584C896.372 820.958 897.625 819.721 899.218 818.874C900.81 818.027 902.588 817.604 904.553 817.604ZM948.047 830.867C948.047 831.849 947.979 832.764 947.844 833.611H925.638C925.773 836.388 926.637 838.59 928.229 840.216C929.855 841.809 931.922 842.605 934.429 842.605C936.326 842.605 937.918 842.181 939.205 841.334C940.526 840.487 941.492 839.37 942.102 837.981H947.081C946.201 840.42 944.676 842.435 942.508 844.028C940.374 845.62 937.681 846.416 934.429 846.416C931.82 846.416 929.483 845.823 927.416 844.637C925.384 843.452 923.791 841.775 922.64 839.607C921.488 837.405 920.912 834.881 920.912 832.035C920.912 829.156 921.488 826.632 922.64 824.464C923.791 822.262 925.417 820.568 927.518 819.382C929.618 818.197 932.04 817.604 934.784 817.604C937.393 817.604 939.696 818.18 941.695 819.332C943.694 820.483 945.252 822.059 946.37 824.057C947.488 826.056 948.047 828.326 948.047 830.867ZM943.219 830.257C943.219 828.461 942.83 826.903 942.051 825.582C941.272 824.227 940.204 823.194 938.849 822.482C937.528 821.771 936.055 821.415 934.429 821.415C932.023 821.415 930.008 822.211 928.382 823.803C926.755 825.362 925.858 827.513 925.688 830.257H943.219ZM963.409 817.604C966.424 817.604 968.813 818.4 970.574 819.992C972.336 821.551 973.301 823.702 973.471 826.446H968.694C968.626 824.887 968.101 823.634 967.119 822.685C966.137 821.737 964.781 821.263 963.054 821.263C961.292 821.263 959.903 821.686 958.887 822.533C957.905 823.346 957.413 824.379 957.413 825.633C957.413 826.683 957.718 827.53 958.328 828.173C958.972 828.783 959.751 829.24 960.666 829.545C961.614 829.85 962.884 830.172 964.477 830.511C966.509 830.985 968.135 831.459 969.355 831.934C970.608 832.374 971.675 833.136 972.556 834.22C973.437 835.27 973.877 836.71 973.877 838.54C973.877 840.064 973.437 841.436 972.556 842.656C971.675 843.841 970.439 844.773 968.847 845.45C967.254 846.094 965.425 846.416 963.359 846.416C960.242 846.416 957.735 845.637 955.838 844.078C953.975 842.52 952.959 840.369 952.789 837.625H957.566C957.634 839.183 958.176 840.437 959.192 841.385C960.242 842.3 961.631 842.757 963.359 842.757C965.256 842.757 966.712 842.368 967.729 841.588C968.779 840.809 969.304 839.776 969.304 838.489C969.304 837.439 968.982 836.609 968.339 835.999C967.729 835.355 966.95 834.881 966.001 834.576C965.052 834.237 963.748 833.882 962.088 833.509C960.09 833.069 958.464 832.628 957.21 832.188C955.991 831.713 954.94 830.985 954.06 830.003C953.213 829.02 952.789 827.665 952.789 825.938C952.789 824.413 953.213 823.024 954.06 821.771C954.94 820.483 956.177 819.467 957.769 818.722C959.395 817.977 961.275 817.604 963.409 817.604ZM990.157 817.604C993.172 817.604 995.56 818.4 997.321 819.992C999.083 821.551 1000.05 823.702 1000.22 826.446H995.441C995.374 824.887 994.849 823.634 993.866 822.685C992.884 821.737 991.529 821.263 989.801 821.263C988.039 821.263 986.65 821.686 985.634 822.533C984.652 823.346 984.161 824.379 984.161 825.633C984.161 826.683 984.465 827.53 985.075 828.173C985.719 828.783 986.498 829.24 987.413 829.545C988.361 829.85 989.632 830.172 991.224 830.511C993.256 830.985 994.882 831.459 996.102 831.934C997.355 832.374 998.422 833.136 999.303 834.22C1000.18 835.27 1000.62 836.71 1000.62 838.54C1000.62 840.064 1000.18 841.436 999.303 842.656C998.422 843.841 997.186 844.773 995.594 845.45C994.002 846.094 992.172 846.416 990.106 846.416C986.989 846.416 984.482 845.637 982.585 844.078C980.722 842.52 979.706 840.369 979.536 837.625H984.313C984.381 839.183 984.923 840.437 985.939 841.385C986.989 842.3 988.378 842.757 990.106 842.757C992.003 842.757 993.46 842.368 994.476 841.588C995.526 840.809 996.051 839.776 996.051 838.489C996.051 837.439 995.729 836.609 995.086 835.999C994.476 835.355 993.697 834.881 992.748 834.576C991.8 834.237 990.495 833.882 988.835 833.509C986.837 833.069 985.211 832.628 983.957 832.188C982.738 831.713 981.688 830.985 980.807 830.003C979.96 829.02 979.536 827.665 979.536 825.938C979.536 824.413 979.96 823.024 980.807 821.771C981.688 820.483 982.924 819.467 984.516 818.722C986.142 817.977 988.022 817.604 990.157 817.604ZM1021.77 810.439C1021.77 809.558 1022.08 808.813 1022.69 808.203C1023.3 807.593 1024.02 807.289 1024.87 807.289C1025.75 807.289 1026.5 807.593 1027.11 808.203C1027.72 808.813 1028.02 809.558 1028.02 810.439C1028.02 811.32 1027.72 812.065 1027.11 812.675C1026.5 813.285 1025.75 813.59 1024.87 813.59C1023.99 813.59 1023.25 813.285 1022.64 812.675C1022.06 812.065 1021.77 811.32 1021.77 810.439ZM1027.16 818.061V845.958H1022.53V818.061H1027.16ZM1044.4 817.604C1047.41 817.604 1049.8 818.4 1051.56 819.992C1053.32 821.551 1054.29 823.702 1054.46 826.446H1049.68C1049.61 824.887 1049.09 823.634 1048.1 822.685C1047.12 821.737 1045.77 821.263 1044.04 821.263C1042.28 821.263 1040.89 821.686 1039.87 822.533C1038.89 823.346 1038.4 824.379 1038.4 825.633C1038.4 826.683 1038.7 827.53 1039.31 828.173C1039.96 828.783 1040.74 829.24 1041.65 829.545C1042.6 829.85 1043.87 830.172 1045.46 830.511C1047.49 830.985 1049.12 831.459 1050.34 831.934C1051.59 832.374 1052.66 833.136 1053.54 834.22C1054.42 835.27 1054.86 836.71 1054.86 838.54C1054.86 840.064 1054.42 841.436 1053.54 842.656C1052.66 843.841 1051.42 844.773 1049.83 845.45C1048.24 846.094 1046.41 846.416 1044.34 846.416C1041.23 846.416 1038.72 845.637 1036.82 844.078C1034.96 842.52 1033.94 840.369 1033.77 837.625H1038.55C1038.62 839.183 1039.16 840.437 1040.18 841.385C1041.23 842.3 1042.62 842.757 1044.34 842.757C1046.24 842.757 1047.7 842.368 1048.71 841.588C1049.76 840.809 1050.29 839.776 1050.29 838.489C1050.29 837.439 1049.97 836.609 1049.32 835.999C1048.71 835.355 1047.94 834.881 1046.99 834.576C1046.04 834.237 1044.73 833.882 1043.07 833.509C1041.08 833.069 1039.45 832.628 1038.2 832.188C1036.98 831.713 1035.93 830.985 1035.05 830.003C1034.2 829.02 1033.77 827.665 1033.77 825.938C1033.77 824.413 1034.2 823.024 1035.05 821.771C1035.93 820.483 1037.16 819.467 1038.75 818.722C1040.38 817.977 1042.26 817.604 1044.4 817.604ZM1089.73 842.198V845.958H1085.06C1082.68 845.958 1080.87 845.383 1079.62 844.231C1078.4 843.079 1077.79 841.267 1077.79 838.794V821.822H1074.18V818.061H1077.79V811.151H1082.46V818.061H1089.68V821.822H1082.46V838.794C1082.46 840.047 1082.72 840.928 1083.23 841.436C1083.73 841.944 1084.63 842.198 1085.92 842.198H1089.73ZM1108.56 817.604C1110.55 817.604 1112.37 818.061 1113.99 818.976C1115.65 819.857 1116.96 821.195 1117.91 822.99C1118.89 824.752 1119.38 826.903 1119.38 829.444V845.958H1114.81V830.206C1114.81 827.394 1114.13 825.26 1112.77 823.803C1111.42 822.347 1109.54 821.618 1107.13 821.618C1104.76 821.618 1102.88 822.347 1101.49 823.803C1100.14 825.26 1099.46 827.394 1099.46 830.206V845.958H1094.84V808.356H1099.46V822.584C1100.37 820.958 1101.63 819.721 1103.22 818.874C1104.81 818.027 1106.59 817.604 1108.56 817.604ZM1152.05 830.867C1152.05 831.849 1151.98 832.764 1151.85 833.611H1129.64C1129.78 836.388 1130.64 838.59 1132.23 840.216C1133.86 841.809 1135.92 842.605 1138.43 842.605C1140.33 842.605 1141.92 842.181 1143.21 841.334C1144.53 840.487 1145.49 839.37 1146.1 837.981H1151.08C1150.2 840.42 1148.68 842.435 1146.51 844.028C1144.38 845.62 1141.68 846.416 1138.43 846.416C1135.82 846.416 1133.49 845.823 1131.42 844.637C1129.39 843.452 1127.79 841.775 1126.64 839.607C1125.49 837.405 1124.91 834.881 1124.91 832.035C1124.91 829.156 1125.49 826.632 1126.64 824.464C1127.79 822.262 1129.42 820.568 1131.52 819.382C1133.62 818.197 1136.04 817.604 1138.79 817.604C1141.4 817.604 1143.7 818.18 1145.7 819.332C1147.7 820.483 1149.25 822.059 1150.37 824.057C1151.49 826.056 1152.05 828.326 1152.05 830.867ZM1147.22 830.257C1147.22 828.461 1146.83 826.903 1146.05 825.582C1145.27 824.227 1144.21 823.194 1142.85 822.482C1141.53 821.771 1140.06 821.415 1138.43 821.415C1136.03 821.415 1134.01 822.211 1132.38 823.803C1130.76 825.362 1129.86 827.513 1129.69 830.257H1147.22ZM17.531 900.604C19.5297 900.604 21.3421 901.061 22.9682 901.976C24.6281 902.857 25.9324 904.195 26.8809 905.99C27.8633 907.752 28.3545 909.903 28.3545 912.444V928.958H23.7812V913.206C23.7812 910.394 23.1037 908.26 21.7486 906.803C20.3936 905.347 18.5134 904.618 16.1082 904.618C13.7369 904.618 11.8567 905.347 10.4678 906.803C9.11275 908.26 8.43522 910.394 8.43522 913.206V928.958H3.81109V891.356H8.43522V905.584C9.34988 903.958 10.6033 902.721 12.1955 901.874C13.7877 901.027 15.5662 900.604 17.531 900.604ZM47.2032 900.604C49.5745 900.604 51.641 901.163 53.4025 902.281C55.198 903.399 56.5531 904.855 57.4677 906.651V901.061H62.1427V928.958H57.4677V923.267C56.5531 925.097 55.198 926.587 53.4025 927.739C51.641 928.857 49.5745 929.416 47.2032 929.416C44.6963 929.416 42.4266 928.806 40.394 927.587C38.3953 926.333 36.8031 924.605 35.6174 922.403C34.4656 920.168 33.8898 917.644 33.8898 914.832C33.8898 912.02 34.4656 909.547 35.6174 907.413C36.8031 905.245 38.3953 903.568 40.394 902.382C42.4266 901.197 44.6963 900.604 47.2032 900.604ZM48.0162 904.618C46.3563 904.618 44.7979 905.025 43.3413 905.838C41.9185 906.651 40.7667 907.837 39.8859 909.395C39.039 910.919 38.6155 912.732 38.6155 914.832C38.6155 916.932 39.039 918.796 39.8859 920.422C40.7667 922.014 41.9185 923.25 43.3413 924.131C44.7979 925.012 46.3563 925.452 48.0162 925.452C49.71 925.452 51.2683 925.029 52.6911 924.182C54.1478 923.335 55.2996 922.132 56.1465 920.574C57.0273 918.982 57.4677 917.136 57.4677 915.035C57.4677 912.935 57.0273 911.106 56.1465 909.547C55.2996 907.955 54.1478 906.736 52.6911 905.889C51.2683 905.042 49.71 904.618 48.0162 904.618ZM74.385 905.787C76.0449 902.332 78.8736 900.604 82.871 900.604V905.431H81.6515C79.2801 905.431 77.4678 906.058 76.2143 907.311C74.9948 908.531 74.385 910.665 74.385 913.714V928.958H69.7609V901.061H74.385V905.787ZM99.9531 900.604C102.324 900.604 104.391 901.163 106.152 902.281C107.948 903.399 109.303 904.855 110.218 906.651V891.356H114.893V928.958H110.218V923.267C109.303 925.097 107.948 926.587 106.152 927.739C104.391 928.857 102.324 929.416 99.9531 929.416C97.4462 929.416 95.1765 928.806 93.1439 927.587C91.1452 926.333 89.553 924.605 88.3673 922.403C87.2155 920.168 86.6397 917.644 86.6397 914.832C86.6397 912.02 87.2155 909.547 88.3673 907.413C89.553 905.245 91.1452 903.568 93.1439 902.382C95.1765 901.197 97.4462 900.604 99.9531 900.604ZM100.766 904.618C99.1062 904.618 97.5478 905.025 96.0912 905.838C94.6684 906.651 93.5166 907.837 92.6358 909.395C91.7889 910.919 91.3654 912.732 91.3654 914.832C91.3654 916.932 91.7889 918.796 92.6358 920.422C93.5166 922.014 94.6684 923.25 96.0912 924.131C97.5478 925.012 99.1062 925.452 100.766 925.452C102.46 925.452 104.018 925.029 105.441 924.182C106.898 923.335 108.05 922.132 108.896 920.574C109.777 918.982 110.218 917.136 110.218 915.035C110.218 912.935 109.777 911.106 108.896 909.547C108.05 907.955 106.898 906.736 105.441 905.889C104.018 905.042 102.46 904.618 100.766 904.618ZM147.816 913.867C147.816 914.849 147.749 915.764 147.613 916.611H125.407C125.543 919.388 126.407 921.59 127.999 923.216C129.625 924.809 131.691 925.605 134.198 925.605C136.095 925.605 137.687 925.181 138.975 924.334C140.296 923.487 141.261 922.37 141.871 920.981H146.851C145.97 923.42 144.446 925.435 142.278 927.028C140.143 928.62 137.45 929.416 134.198 929.416C131.59 929.416 129.252 928.823 127.186 927.637C125.153 926.452 123.561 924.775 122.409 922.607C121.257 920.405 120.681 917.881 120.681 915.035C120.681 912.156 121.257 909.632 122.409 907.464C123.561 905.262 125.187 903.568 127.287 902.382C129.388 901.197 131.81 900.604 134.554 900.604C137.162 900.604 139.466 901.18 141.465 902.332C143.463 903.483 145.022 905.059 146.14 907.057C147.257 909.056 147.816 911.326 147.816 913.867ZM142.989 913.257C142.989 911.461 142.599 909.903 141.82 908.582C141.041 907.227 139.974 906.194 138.619 905.482C137.298 904.771 135.824 904.415 134.198 904.415C131.793 904.415 129.777 905.211 128.151 906.803C126.525 908.362 125.627 910.513 125.458 913.257H142.989ZM163.179 900.604C166.194 900.604 168.582 901.4 170.344 902.992C172.106 904.551 173.071 906.702 173.24 909.446H168.464C168.396 907.887 167.871 906.634 166.889 905.685C165.906 904.737 164.551 904.263 162.823 904.263C161.062 904.263 159.673 904.686 158.657 905.533C157.674 906.346 157.183 907.379 157.183 908.633C157.183 909.683 157.488 910.53 158.098 911.173C158.741 911.783 159.52 912.24 160.435 912.545C161.384 912.85 162.654 913.172 164.246 913.511C166.279 913.985 167.905 914.459 169.124 914.934C170.378 915.374 171.445 916.136 172.326 917.22C173.207 918.27 173.647 919.71 173.647 921.54C173.647 923.064 173.207 924.436 172.326 925.656C171.445 926.841 170.208 927.773 168.616 928.45C167.024 929.094 165.195 929.416 163.128 929.416C160.012 929.416 157.505 928.637 155.608 927.078C153.745 925.52 152.728 923.369 152.559 920.625H157.335C157.403 922.183 157.945 923.437 158.961 924.385C160.012 925.3 161.401 925.757 163.128 925.757C165.025 925.757 166.482 925.368 167.498 924.588C168.549 923.809 169.074 922.776 169.074 921.489C169.074 920.439 168.752 919.609 168.108 918.999C167.498 918.355 166.719 917.881 165.771 917.576C164.822 917.237 163.518 916.882 161.858 916.509C159.859 916.069 158.233 915.628 156.98 915.188C155.76 914.713 154.71 913.985 153.829 913.003C152.982 912.02 152.559 910.665 152.559 908.938C152.559 907.413 152.982 906.024 153.829 904.771C154.71 903.483 155.946 902.467 157.539 901.722C159.165 900.977 161.045 900.604 163.179 900.604ZM193.28 925.198V928.958H188.605C186.234 928.958 184.421 928.383 183.168 927.231C181.948 926.079 181.339 924.267 181.339 921.794V904.822H177.731V901.061H181.339V894.151H186.014V901.061H193.229V904.822H186.014V921.794C186.014 923.047 186.268 923.928 186.776 924.436C187.284 924.944 188.182 925.198 189.469 925.198H193.28ZM228.559 900.604C231.066 900.604 233.319 901.197 235.318 902.382C237.35 903.568 238.942 905.245 240.094 907.413C241.28 909.547 241.873 912.02 241.873 914.832C241.873 917.644 241.28 920.168 240.094 922.403C238.942 924.605 237.35 926.333 235.318 927.587C233.319 928.806 231.066 929.416 228.559 929.416C226.188 929.416 224.104 928.857 222.309 927.739C220.547 926.587 219.192 925.097 218.244 923.267V942.17H213.62V901.061H218.244V906.651C219.192 904.855 220.547 903.399 222.309 902.281C224.104 901.163 226.188 900.604 228.559 900.604ZM227.645 904.618C225.985 904.618 224.426 905.042 222.97 905.889C221.547 906.736 220.395 907.955 219.514 909.547C218.667 911.106 218.244 912.935 218.244 915.035C218.244 917.136 218.667 918.982 219.514 920.574C220.395 922.132 221.547 923.335 222.97 924.182C224.426 925.029 225.985 925.452 227.645 925.452C229.304 925.452 230.863 925.029 232.319 924.182C233.776 923.301 234.928 922.048 235.775 920.422C236.656 918.796 237.096 916.932 237.096 914.832C237.096 912.732 236.656 910.919 235.775 909.395C234.928 907.837 233.776 906.651 232.319 905.838C230.897 905.025 229.338 904.618 227.645 904.618ZM259.146 900.604C261.517 900.604 263.583 901.163 265.345 902.281C267.14 903.399 268.496 904.855 269.41 906.651V901.061H274.085V928.958H269.41V923.267C268.496 925.097 267.14 926.587 265.345 927.739C263.583 928.857 261.517 929.416 259.146 929.416C256.639 929.416 254.369 928.806 252.336 927.587C250.338 926.333 248.746 924.605 247.56 922.403C246.408 920.168 245.832 917.644 245.832 914.832C245.832 912.02 246.408 909.547 247.56 907.413C248.746 905.245 250.338 903.568 252.336 902.382C254.369 901.197 256.639 900.604 259.146 900.604ZM259.959 904.618C258.299 904.618 256.74 905.025 255.284 905.838C253.861 906.651 252.709 907.837 251.828 909.395C250.981 910.919 250.558 912.732 250.558 914.832C250.558 916.932 250.981 918.796 251.828 920.422C252.709 922.014 253.861 923.25 255.284 924.131C256.74 925.012 258.299 925.452 259.959 925.452C261.652 925.452 263.211 925.029 264.634 924.182C266.09 923.335 267.242 922.132 268.089 920.574C268.97 918.982 269.41 917.136 269.41 915.035C269.41 912.935 268.97 911.106 268.089 909.547C267.242 907.955 266.09 906.736 264.634 905.889C263.211 905.042 261.652 904.618 259.959 904.618ZM286.327 905.787C287.987 902.332 290.816 900.604 294.813 900.604V905.431H293.594C291.223 905.431 289.41 906.058 288.157 907.311C286.937 908.531 286.327 910.665 286.327 913.714V928.958H281.703V901.061H286.327V905.787ZM313.369 925.198V928.958H308.694C306.323 928.958 304.51 928.383 303.257 927.231C302.038 926.079 301.428 924.267 301.428 921.794V904.822H297.82V901.061H301.428V894.151H306.103V901.061H313.318V904.822H306.103V921.794C306.103 923.047 306.357 923.928 306.865 924.436C307.373 924.944 308.271 925.198 309.558 925.198H313.369ZM321.371 925.554C321.811 927.349 322.031 928.992 322.031 930.483C322.031 934.311 320.287 936.225 316.798 936.225V933.989C317.644 933.989 318.254 933.786 318.627 933.379C319.033 932.973 319.237 932.329 319.237 931.448V930.28H316.645V925.554H321.371ZM354.621 900.604C356.993 900.604 359.059 901.163 360.821 902.281C362.616 903.399 363.971 904.855 364.886 906.651V901.061H369.561V928.958H364.886V923.267C363.971 925.097 362.616 926.587 360.821 927.739C359.059 928.857 356.993 929.416 354.621 929.416C352.115 929.416 349.845 928.806 347.812 927.587C345.814 926.333 344.221 924.605 343.036 922.403C341.884 920.168 341.308 917.644 341.308 914.832C341.308 912.02 341.884 909.547 343.036 907.413C344.221 905.245 345.814 903.568 347.812 902.382C349.845 901.197 352.115 900.604 354.621 900.604ZM355.434 904.618C353.775 904.618 352.216 905.025 350.76 905.838C349.337 906.651 348.185 907.837 347.304 909.395C346.457 910.919 346.034 912.732 346.034 914.832C346.034 916.932 346.457 918.796 347.304 920.422C348.185 922.014 349.337 923.25 350.76 924.131C352.216 925.012 353.775 925.452 355.434 925.452C357.128 925.452 358.687 925.029 360.109 924.182C361.566 923.335 362.718 922.132 363.565 920.574C364.446 918.982 364.886 917.136 364.886 915.035C364.886 912.935 364.446 911.106 363.565 909.547C362.718 907.955 361.566 906.736 360.109 905.889C358.687 905.042 357.128 904.618 355.434 904.618ZM390.899 900.604C392.898 900.604 394.71 901.061 396.336 901.976C397.996 902.857 399.3 904.195 400.249 905.99C401.231 907.752 401.723 909.903 401.723 912.444V928.958H397.149V913.206C397.149 910.394 396.472 908.26 395.117 906.803C393.762 905.347 391.881 904.618 389.476 904.618C387.105 904.618 385.225 905.347 383.836 906.803C382.481 908.26 381.803 910.394 381.803 913.206V928.958H377.179V901.061H381.803V905.584C382.718 903.958 383.971 902.721 385.564 901.874C387.156 901.027 388.934 900.604 390.899 900.604ZM420.571 900.604C422.943 900.604 425.009 901.163 426.771 902.281C428.566 903.399 429.921 904.855 430.836 906.651V891.356H435.511V928.958H430.836V923.267C429.921 925.097 428.566 926.587 426.771 927.739C425.009 928.857 422.943 929.416 420.571 929.416C418.064 929.416 415.795 928.806 413.762 927.587C411.763 926.333 410.171 924.605 408.985 922.403C407.834 920.168 407.258 917.644 407.258 914.832C407.258 912.02 407.834 909.547 408.985 907.413C410.171 905.245 411.763 903.568 413.762 902.382C415.795 901.197 418.064 900.604 420.571 900.604ZM421.384 904.618C419.724 904.618 418.166 905.025 416.709 905.838C415.287 906.651 414.135 907.837 413.254 909.395C412.407 910.919 411.984 912.732 411.984 914.832C411.984 916.932 412.407 918.796 413.254 920.422C414.135 922.014 415.287 923.25 416.709 924.131C418.166 925.012 419.724 925.452 421.384 925.452C423.078 925.452 424.636 925.029 426.059 924.182C427.516 923.335 428.668 922.132 429.515 920.574C430.395 918.982 430.836 917.136 430.836 915.035C430.836 912.935 430.395 911.106 429.515 909.547C428.668 907.955 427.516 906.736 426.059 905.889C424.636 905.042 423.078 904.618 421.384 904.618ZM471.321 925.198V928.958H466.646C464.275 928.958 462.462 928.383 461.209 927.231C459.989 926.079 459.38 924.267 459.38 921.794V904.822H455.772V901.061H459.38V894.151H464.055V901.061H471.27V904.822H464.055V921.794C464.055 923.047 464.309 923.928 464.817 924.436C465.325 924.944 466.223 925.198 467.51 925.198H471.321ZM490.146 900.604C492.145 900.604 493.957 901.061 495.583 901.976C497.243 902.857 498.548 904.195 499.496 905.99C500.479 907.752 500.97 909.903 500.97 912.444V928.958H496.396V913.206C496.396 910.394 495.719 908.26 494.364 906.803C493.009 905.347 491.129 904.618 488.723 904.618C486.352 904.618 484.472 905.347 483.083 906.803C481.728 908.26 481.05 910.394 481.05 913.206V928.958H476.426V891.356H481.05V905.584C481.965 903.958 483.219 902.721 484.811 901.874C486.403 901.027 488.181 900.604 490.146 900.604ZM519.818 900.604C522.19 900.604 524.256 901.163 526.018 902.281C527.813 903.399 529.168 904.855 530.083 906.651V901.061H534.758V928.958H530.083V923.267C529.168 925.097 527.813 926.587 526.018 927.739C524.256 928.857 522.19 929.416 519.818 929.416C517.312 929.416 515.042 928.806 513.009 927.587C511.011 926.333 509.418 924.605 508.233 922.403C507.081 920.168 506.505 917.644 506.505 914.832C506.505 912.02 507.081 909.547 508.233 907.413C509.418 905.245 511.011 903.568 513.009 902.382C515.042 901.197 517.312 900.604 519.818 900.604ZM520.631 904.618C518.972 904.618 517.413 905.025 515.957 905.838C514.534 906.651 513.382 907.837 512.501 909.395C511.654 910.919 511.231 912.732 511.231 914.832C511.231 916.932 511.654 918.796 512.501 920.422C513.382 922.014 514.534 923.25 515.957 924.131C517.413 925.012 518.972 925.452 520.631 925.452C522.325 925.452 523.884 925.029 525.306 924.182C526.763 923.335 527.915 922.132 528.762 920.574C529.643 918.982 530.083 917.136 530.083 915.035C530.083 912.935 529.643 911.106 528.762 909.547C527.915 907.955 526.763 906.736 525.306 905.889C523.884 905.042 522.325 904.618 520.631 904.618ZM555.334 925.198V928.958H550.659C548.288 928.958 546.475 928.383 545.222 927.231C544.002 926.079 543.392 924.267 543.392 921.794V904.822H539.785V901.061H543.392V894.151H548.067V901.061H555.283V904.822H548.067V921.794C548.067 923.047 548.321 923.928 548.83 924.436C549.338 924.944 550.235 925.198 551.523 925.198H555.334ZM562.523 889.171C562.929 890.932 563.132 892.491 563.132 893.846C563.132 895.844 562.692 897.301 561.811 898.216C560.964 899.13 559.694 899.588 558 899.588V897.352C558.813 897.352 559.406 897.149 559.779 896.742C560.185 896.302 560.388 895.624 560.388 894.709V893.541H557.898V889.171H562.523ZM577.784 900.604C580.799 900.604 583.188 901.4 584.949 902.992C586.711 904.551 587.676 906.702 587.846 909.446H583.069C583.001 907.887 582.476 906.634 581.494 905.685C580.511 904.737 579.156 904.263 577.429 904.263C575.667 904.263 574.278 904.686 573.262 905.533C572.279 906.346 571.788 907.379 571.788 908.633C571.788 909.683 572.093 910.53 572.703 911.173C573.347 911.783 574.126 912.24 575.04 912.545C575.989 912.85 577.259 913.172 578.851 913.511C580.884 913.985 582.51 914.459 583.73 914.934C584.983 915.374 586.05 916.136 586.931 917.22C587.812 918.27 588.252 919.71 588.252 921.54C588.252 923.064 587.812 924.436 586.931 925.656C586.05 926.841 584.814 927.773 583.222 928.45C581.629 929.094 579.8 929.416 577.734 929.416C574.617 929.416 572.11 928.637 570.213 927.078C568.35 925.52 567.334 923.369 567.164 920.625H571.941C572.008 922.183 572.55 923.437 573.567 924.385C574.617 925.3 576.006 925.757 577.734 925.757C579.631 925.757 581.087 925.368 582.104 924.588C583.154 923.809 583.679 922.776 583.679 921.489C583.679 920.439 583.357 919.609 582.713 918.999C582.104 918.355 581.324 917.881 580.376 917.576C579.427 917.237 578.123 916.882 576.463 916.509C574.464 916.069 572.838 915.628 571.585 915.188C570.365 914.713 569.315 913.985 568.434 913.003C567.588 912.02 567.164 910.665 567.164 908.938C567.164 907.413 567.588 906.024 568.434 904.771C569.315 903.483 570.552 902.467 572.144 901.722C573.77 900.977 575.65 900.604 577.784 900.604ZM646.799 901.061L638.008 928.958H633.232L626.931 906.803L620.63 928.958H615.802L606.961 901.061H611.737L618.191 924.334L624.746 901.061H629.522L635.722 924.385L642.124 901.061H646.799ZM664.921 900.604C666.919 900.604 668.732 901.061 670.358 901.976C672.018 902.857 673.322 904.195 674.271 905.99C675.253 907.752 675.744 909.903 675.744 912.444V928.958H671.171V913.206C671.171 910.394 670.493 908.26 669.138 906.803C667.783 905.347 665.903 904.618 663.498 904.618C661.127 904.618 659.246 905.347 657.857 906.803C656.502 908.26 655.825 910.394 655.825 913.206V928.958H651.201V891.356H655.825V905.584C656.74 903.958 657.993 902.721 659.585 901.874C661.177 901.027 662.956 900.604 664.921 900.604ZM708.414 913.867C708.414 914.849 708.347 915.764 708.211 916.611H686.005C686.141 919.388 687.004 921.59 688.597 923.216C690.223 924.809 692.289 925.605 694.796 925.605C696.693 925.605 698.285 925.181 699.573 924.334C700.894 923.487 701.859 922.37 702.469 920.981H707.449C706.568 923.42 705.044 925.435 702.876 927.028C700.741 928.62 698.048 929.416 694.796 929.416C692.188 929.416 689.85 928.823 687.784 927.637C685.751 926.452 684.159 924.775 683.007 922.607C681.855 920.405 681.279 917.881 681.279 915.035C681.279 912.156 681.855 909.632 683.007 907.464C684.159 905.262 685.785 903.568 687.885 902.382C689.986 901.197 692.408 900.604 695.152 900.604C697.76 900.604 700.064 901.18 702.063 902.332C704.061 903.483 705.62 905.059 706.737 907.057C707.855 909.056 708.414 911.326 708.414 913.867ZM703.587 913.257C703.587 911.461 703.197 909.903 702.418 908.582C701.639 907.227 700.572 906.194 699.217 905.482C697.896 904.771 696.422 904.415 694.796 904.415C692.391 904.415 690.375 905.211 688.749 906.803C687.123 908.362 686.225 910.513 686.056 913.257H703.587ZM718.797 905.787C720.457 902.332 723.286 900.604 727.283 900.604V905.431H726.064C723.692 905.431 721.88 906.058 720.627 907.311C719.407 908.531 718.797 910.665 718.797 913.714V928.958H714.173V901.061H718.797V905.787ZM758.187 913.867C758.187 914.849 758.119 915.764 757.984 916.611H735.778C735.913 919.388 736.777 921.59 738.369 923.216C739.995 924.809 742.062 925.605 744.569 925.605C746.466 925.605 748.058 925.181 749.345 924.334C750.666 923.487 751.632 922.37 752.242 920.981H757.221C756.341 923.42 754.816 925.435 752.648 927.028C750.514 928.62 747.821 929.416 744.569 929.416C741.96 929.416 739.623 928.823 737.556 927.637C735.524 926.452 733.931 924.775 732.78 922.607C731.628 920.405 731.052 917.881 731.052 915.035C731.052 912.156 731.628 909.632 732.78 907.464C733.931 905.262 735.557 903.568 737.658 902.382C739.758 901.197 742.18 900.604 744.924 900.604C747.533 900.604 749.836 901.18 751.835 902.332C753.834 903.483 755.392 905.059 756.51 907.057C757.628 909.056 758.187 911.326 758.187 913.867ZM753.359 913.257C753.359 911.461 752.97 909.903 752.191 908.582C751.412 907.227 750.345 906.194 748.989 905.482C747.668 904.771 746.195 904.415 744.569 904.415C742.163 904.415 740.148 905.211 738.522 906.803C736.896 908.362 735.998 910.513 735.828 913.257H753.359ZM815.817 901.061L807.026 928.958H802.25L795.949 906.803L789.648 928.958H784.82L775.979 901.061H780.755L787.209 924.334L793.764 901.061H798.54L804.74 924.385L811.142 901.061H815.817ZM845.524 913.867C845.524 914.849 845.457 915.764 845.321 916.611H823.115C823.251 919.388 824.115 921.59 825.707 923.216C827.333 924.809 829.399 925.605 831.906 925.605C833.803 925.605 835.395 925.181 836.683 924.334C838.004 923.487 838.969 922.37 839.579 920.981H844.559C843.678 923.42 842.154 925.435 839.986 927.028C837.851 928.62 835.158 929.416 831.906 929.416C829.298 929.416 826.96 928.823 824.894 927.637C822.861 926.452 821.269 924.775 820.117 922.607C818.965 920.405 818.389 917.881 818.389 915.035C818.389 912.156 818.965 909.632 820.117 907.464C821.269 905.262 822.895 903.568 824.995 902.382C827.096 901.197 829.518 900.604 832.262 900.604C834.87 900.604 837.174 901.18 839.173 902.332C841.171 903.483 842.73 905.059 843.848 907.057C844.965 909.056 845.524 911.326 845.524 913.867ZM840.697 913.257C840.697 911.461 840.307 909.903 839.528 908.582C838.749 907.227 837.682 906.194 836.327 905.482C835.006 904.771 833.532 904.415 831.906 904.415C829.501 904.415 827.485 905.211 825.859 906.803C824.233 908.362 823.335 910.513 823.166 913.257H840.697ZM878.205 900.604C881.559 900.604 884.286 901.383 886.386 902.941C888.52 904.5 890.011 906.719 890.858 909.598H885.878C885.336 907.972 884.404 906.702 883.083 905.787C881.762 904.872 880.136 904.415 878.205 904.415C875.563 904.415 873.428 905.347 871.802 907.21C870.21 909.039 869.414 911.648 869.414 915.035C869.414 918.389 870.21 920.998 871.802 922.861C873.428 924.69 875.563 925.605 878.205 925.605C880.17 925.605 881.796 925.164 883.083 924.284C884.37 923.403 885.302 922.115 885.878 920.422H890.858C890.011 923.166 888.503 925.351 886.335 926.977C884.201 928.603 881.491 929.416 878.205 929.416C875.596 929.416 873.259 928.823 871.193 927.637C869.16 926.452 867.568 924.775 866.416 922.607C865.264 920.405 864.688 917.881 864.688 915.035C864.688 912.156 865.264 909.632 866.416 907.464C867.568 905.262 869.16 903.568 871.193 902.382C873.225 901.197 875.563 900.604 878.205 900.604ZM909.233 900.604C911.875 900.604 914.263 901.197 916.398 902.382C918.532 903.568 920.209 905.262 921.428 907.464C922.682 909.666 923.308 912.19 923.308 915.035C923.308 917.847 922.665 920.354 921.378 922.556C920.09 924.724 918.346 926.418 916.144 927.637C913.942 928.823 911.503 929.416 908.826 929.416C906.218 929.416 903.863 928.823 901.763 927.637C899.697 926.452 898.071 924.775 896.885 922.607C895.733 920.405 895.157 917.881 895.157 915.035C895.157 912.156 895.767 909.632 896.987 907.464C898.24 905.262 899.934 903.568 902.068 902.382C904.202 901.197 906.59 900.604 909.233 900.604ZM909.08 904.415C907.387 904.415 905.845 904.822 904.456 905.635C903.067 906.448 901.949 907.65 901.102 909.242C900.289 910.835 899.883 912.766 899.883 915.035C899.883 917.271 900.273 919.185 901.052 920.777C901.865 922.37 902.949 923.572 904.304 924.385C905.659 925.198 907.166 925.605 908.826 925.605C910.52 925.605 912.095 925.198 913.552 924.385C915.043 923.538 916.245 922.319 917.16 920.727C918.075 919.134 918.532 917.237 918.532 915.035C918.532 912.799 918.091 910.885 917.211 909.293C916.364 907.667 915.212 906.448 913.755 905.635C912.333 904.822 910.774 904.415 909.08 904.415ZM962.631 900.604C964.663 900.604 966.509 901.061 968.169 901.976C969.829 902.857 971.134 904.195 972.082 905.99C973.065 907.752 973.556 909.903 973.556 912.444V928.958H968.982V913.206C968.982 910.394 968.288 908.26 966.899 906.803C965.544 905.347 963.681 904.618 961.309 904.618C958.938 904.618 957.058 905.347 955.669 906.803C954.314 908.26 953.636 910.394 953.636 913.206V928.958H949.063V913.206C949.063 910.394 948.386 908.26 947.031 906.803C945.675 905.347 943.795 904.618 941.39 904.618C939.019 904.618 937.139 905.347 935.75 906.803C934.395 908.26 933.717 910.394 933.717 913.206V928.958H929.093V901.061H933.717V905.584C934.632 903.958 935.885 902.721 937.477 901.874C939.07 901.027 940.848 900.604 942.813 900.604C944.947 900.604 946.878 901.129 948.606 902.179C950.333 903.196 951.638 904.686 952.518 906.651C953.535 904.754 954.907 903.28 956.634 902.23C958.396 901.146 960.395 900.604 962.631 900.604ZM1006.21 913.867C1006.21 914.849 1006.14 915.764 1006 916.611H983.796C983.932 919.388 984.796 921.59 986.388 923.216C988.014 924.809 990.081 925.605 992.587 925.605C994.484 925.605 996.077 925.181 997.364 924.334C998.685 923.487 999.651 922.37 1000.26 920.981H1005.24C1004.36 923.42 1002.83 925.435 1000.67 927.028C998.533 928.62 995.84 929.416 992.587 929.416C989.979 929.416 987.641 928.823 985.575 927.637C983.542 926.452 981.95 924.775 980.798 922.607C979.647 920.405 979.071 917.881 979.071 915.035C979.071 912.156 979.647 909.632 980.798 907.464C981.95 905.262 983.576 903.568 985.677 902.382C987.777 901.197 990.199 900.604 992.943 900.604C995.552 900.604 997.855 901.18 999.854 902.332C1001.85 903.483 1003.41 905.059 1004.53 907.057C1005.65 909.056 1006.21 911.326 1006.21 913.867ZM1001.38 913.257C1001.38 911.461 1000.99 909.903 1000.21 908.582C999.43 907.227 998.363 906.194 997.008 905.482C995.687 904.771 994.213 904.415 992.587 904.415C990.182 904.415 988.167 905.211 986.54 906.803C984.914 908.362 984.017 910.513 983.847 913.257H1001.38ZM1026.44 893.439C1026.44 892.558 1026.74 891.813 1027.35 891.203C1027.96 890.593 1028.69 890.289 1029.54 890.289C1030.42 890.289 1031.16 890.593 1031.77 891.203C1032.38 891.813 1032.69 892.558 1032.69 893.439C1032.69 894.32 1032.38 895.065 1031.77 895.675C1031.16 896.285 1030.42 896.59 1029.54 896.59C1028.66 896.59 1027.91 896.285 1027.3 895.675C1026.72 895.065 1026.44 894.32 1026.44 893.439ZM1031.82 901.061V928.958H1027.2V901.061H1031.82ZM1053.18 900.604C1055.17 900.604 1056.99 901.061 1058.61 901.976C1060.27 902.857 1061.58 904.195 1062.53 905.99C1063.51 907.752 1064 909.903 1064 912.444V928.958H1059.43V913.206C1059.43 910.394 1058.75 908.26 1057.39 906.803C1056.04 905.347 1054.16 904.618 1051.75 904.618C1049.38 904.618 1047.5 905.347 1046.11 906.803C1044.76 908.26 1044.08 910.394 1044.08 913.206V928.958H1039.46V901.061H1044.08V905.584C1044.99 903.958 1046.25 902.721 1047.84 901.874C1049.43 901.027 1051.21 900.604 1053.18 900.604ZM1070.35 926.011C1070.35 925.164 1070.64 924.453 1071.21 923.877C1071.79 923.301 1072.48 923.013 1073.29 923.013C1074.11 923.013 1074.8 923.301 1075.38 923.877C1075.95 924.453 1076.24 925.164 1076.24 926.011C1076.24 926.824 1075.95 927.519 1075.38 928.095C1074.8 928.671 1074.11 928.958 1073.29 928.958C1072.48 928.958 1071.79 928.671 1071.21 928.095C1070.64 927.519 1070.35 926.824 1070.35 926.011Z" fill="#A4A4A4"/>
</svg>
