<svg width="1806" height="1069" viewBox="0 0 1806 1069" fill="none" xmlns="http://www.w3.org/2000/svg">
<path d="M148.116 59.3335L118.405 162H94.8709L75.0142 90.3688L54.5692 162H31.0353L1.91213 59.3335H23.9751L43.6848 138.613L64.424 59.3335H87.8108L107.373 137.878L125.906 59.3335H148.116ZM236.447 120.08C236.447 122.924 236.25 125.572 235.858 128.023H176.435C176.925 133.318 178.887 137.584 182.319 140.82C185.751 144.055 190.114 145.673 195.409 145.673C199.528 145.673 202.813 144.889 205.264 143.32C207.716 141.751 209.726 139.594 211.295 136.848H233.652C231.298 144.595 226.739 150.919 219.973 155.822C213.207 160.725 205.019 163.177 195.409 163.177C187.663 163.177 180.75 161.461 174.67 158.029C168.591 154.499 163.835 149.596 160.403 143.32C156.971 136.946 155.255 129.543 155.255 121.11C155.255 112.677 156.971 105.323 160.403 99.0469C163.835 92.7712 168.591 87.9173 174.67 84.4853C180.848 81.0533 187.859 79.3373 195.703 79.3373C203.548 79.3373 210.51 81.0042 216.59 84.3382C222.767 87.6722 227.621 92.428 231.151 98.6056C234.681 104.685 236.447 111.843 236.447 120.08ZM214.972 114.638C214.678 109.245 212.667 104.93 208.941 101.694C205.313 98.4585 200.803 96.8406 195.409 96.8406C190.408 96.8406 186.143 98.4585 182.613 101.694C179.181 104.93 177.122 109.245 176.435 114.638H214.972ZM382.478 59.3335V162H361.739V118.021H317.613V162H296.874V59.3335H317.613V102.136H361.739V59.3335H382.478ZM480.059 120.08C480.059 122.924 479.863 125.572 479.471 128.023H420.048C420.538 133.318 422.499 137.584 425.931 140.82C429.363 144.055 433.727 145.673 439.022 145.673C443.14 145.673 446.425 144.889 448.877 143.32C451.328 141.751 453.338 139.594 454.907 136.848H477.264C474.911 144.595 470.351 150.919 463.585 155.822C456.819 160.725 448.631 163.177 439.022 163.177C431.275 163.177 424.362 161.461 418.282 158.029C412.203 154.499 407.447 149.596 404.015 143.32C400.583 136.946 398.867 129.543 398.867 121.11C398.867 112.677 400.583 105.323 404.015 99.0469C407.447 92.7712 412.203 87.9173 418.282 84.4853C424.46 81.0533 431.471 79.3373 439.316 79.3373C447.161 79.3373 454.123 81.0042 460.202 84.3382C466.38 87.6722 471.234 92.428 474.764 98.6056C478.294 104.685 480.059 111.843 480.059 120.08ZM458.584 114.638C458.29 109.245 456.28 104.93 452.554 101.694C448.926 98.4585 444.415 96.8406 439.022 96.8406C434.021 96.8406 429.755 98.4585 426.225 101.694C422.793 104.93 420.734 109.245 420.048 114.638H458.584ZM517.128 53.1558V162H496.389V53.1558H517.128ZM586.114 79.3373C593.076 79.3373 599.45 81.1023 605.236 84.6324C611.021 88.1625 615.581 93.1144 618.915 99.4881C622.249 105.764 623.916 112.971 623.916 121.11C623.916 129.249 622.249 136.554 618.915 143.026C615.581 149.4 611.021 154.351 605.236 157.882C599.45 161.412 593.076 163.177 586.114 163.177C580.231 163.177 575.083 161.853 570.67 159.205C566.356 156.558 562.776 152.93 559.933 148.321V200.831H539.194V80.5139H559.933V93.1634C562.58 88.8489 566.11 85.4659 570.523 83.0144C575.034 80.563 580.231 79.3373 586.114 79.3373ZM581.407 97.2818C577.681 97.2818 574.151 98.2134 570.817 100.076C567.581 101.94 564.934 104.685 562.875 108.313C560.913 111.941 559.933 116.256 559.933 121.257C559.933 126.258 560.913 130.572 562.875 134.201C564.934 137.829 567.581 140.574 570.817 142.437C574.151 144.301 577.681 145.232 581.407 145.232C585.134 145.232 588.615 144.301 591.851 142.437C595.185 140.574 597.832 137.829 599.793 134.201C601.853 130.474 602.882 126.111 602.882 121.11C602.882 116.109 601.853 111.794 599.793 108.166C597.832 104.538 595.185 101.842 591.851 100.076C588.615 98.2134 585.134 97.2818 581.407 97.2818ZM756.195 132.141C756.195 137.633 754.675 142.732 751.635 147.438C748.693 152.145 744.428 155.92 738.838 158.764C733.347 161.608 726.924 163.03 719.57 163.03C708.293 163.03 699.223 160.431 692.359 155.234C685.495 149.939 682.063 142.536 682.063 133.024H704.126C704.518 137.437 705.989 140.82 708.539 143.173C711.186 145.428 714.863 146.556 719.57 146.556C724.277 146.556 728.003 145.33 730.749 142.879C733.494 140.427 734.867 137.24 734.867 133.318C734.867 130.18 733.887 127.631 731.925 125.67C730.062 123.708 727.709 122.189 724.865 121.11C722.12 120.031 718.197 118.806 713.098 117.433C706.528 115.766 701.184 114.05 697.066 112.285C692.947 110.52 689.417 107.774 686.476 104.048C683.534 100.224 682.063 95.0755 682.063 88.6037C682.063 82.4261 683.583 77.0329 686.623 72.4242C689.761 67.7174 694.075 64.1383 699.566 61.6868C705.058 59.1373 711.284 57.8626 718.246 57.8626C728.935 57.8626 737.515 60.314 743.987 65.2169C750.458 70.0218 753.988 77.3761 754.577 87.2799H731.925C731.533 83.3576 730.062 80.2688 727.513 78.0135C724.963 75.6601 721.678 74.4834 717.658 74.4834C713.442 74.4834 710.009 75.562 707.362 77.7193C704.812 79.7785 703.538 82.9654 703.538 87.2799C703.538 90.5158 704.469 93.1634 706.332 95.2226C708.293 97.1838 710.696 98.7037 713.54 99.7823C716.383 100.861 720.306 102.038 725.306 103.312C731.876 104.979 737.221 106.695 741.339 108.46C745.457 110.225 748.938 113.02 751.782 116.844C754.724 120.571 756.195 125.67 756.195 132.141ZM878.28 79.3373C887.988 79.3373 895.783 82.377 901.667 88.4566C907.648 94.5362 910.639 103.067 910.639 114.05V162H890.047V116.991C890.047 110.618 888.429 105.764 885.193 102.43C881.957 98.9978 877.545 97.2818 871.955 97.2818C866.366 97.2818 861.905 98.9978 858.571 102.43C855.335 105.764 853.717 110.618 853.717 116.991V162H833.125V116.991C833.125 110.618 831.507 105.764 828.271 102.43C825.035 98.9978 820.622 97.2818 815.033 97.2818C809.444 97.2818 804.982 98.9978 801.648 102.43C798.412 105.764 796.794 110.618 796.794 116.991V162H776.055V80.5139H796.794V92.7221C799.344 88.4076 802.776 85.1227 807.09 82.8673C811.503 80.5139 816.504 79.3373 822.093 79.3373C828.271 79.3373 833.762 80.7591 838.567 83.6028C843.47 86.4464 847.245 90.5158 849.892 95.811C852.736 90.712 856.609 86.6916 861.512 83.7499C866.513 80.8081 872.103 79.3373 878.28 79.3373ZM963.969 79.3373C969.754 79.3373 974.902 80.563 979.413 83.0144C983.923 85.4659 987.551 88.8489 990.297 93.1634V80.5139H1010.89V162H990.297V148.321C987.453 152.93 983.776 156.558 979.266 159.205C974.853 161.853 969.754 163.177 963.969 163.177C957.006 163.177 950.633 161.412 944.847 157.882C939.16 154.253 934.6 149.252 931.168 142.879C927.834 136.505 926.167 129.249 926.167 121.11C926.167 112.971 927.834 105.764 931.168 99.4881C934.6 93.1144 939.16 88.1625 944.847 84.6324C950.633 81.1023 957.006 79.3373 963.969 79.3373ZM968.675 97.2818C965.047 97.2818 961.566 98.2134 958.232 100.076C954.996 101.94 952.349 104.685 950.289 108.313C948.23 111.843 947.201 116.109 947.201 121.11C947.201 126.111 948.23 130.474 950.289 134.201C952.349 137.829 954.996 140.574 958.232 142.437C961.566 144.301 965.047 145.232 968.675 145.232C972.402 145.232 975.883 144.301 979.118 142.437C982.452 140.574 985.149 137.829 987.208 134.201C989.267 130.572 990.297 126.258 990.297 121.257C990.297 116.256 989.267 111.941 987.208 108.313C985.149 104.685 982.452 101.94 979.118 100.076C975.883 98.2134 972.402 97.2818 968.675 97.2818ZM1053.62 53.1558V162H1032.88V53.1558H1053.62ZM1096.43 53.1558V162H1075.69V53.1558H1096.43ZM66.4832 330.49C73.2492 331.471 78.6424 334.412 82.6627 339.315C86.7812 344.12 88.8404 349.709 88.8404 356.083C88.8404 361.378 87.4676 366.085 84.722 370.203C82.0744 374.224 78.2011 377.362 73.1021 379.617C68.0031 381.872 61.9725 383 55.0104 383H11.0315V280.333H52.6571C59.6192 280.333 65.6497 281.51 70.7487 283.864C75.9458 286.217 79.8681 289.453 82.5157 293.571C85.1632 297.69 86.487 302.298 86.487 307.397C86.487 313.183 84.722 318.037 81.1919 321.959C77.7599 325.783 72.857 328.627 66.4832 330.49ZM31.7707 322.842H50.4508C55.0595 322.842 58.6876 321.714 61.3352 319.459C64.0808 317.105 65.4536 313.82 65.4536 309.604C65.4536 305.387 64.0808 302.102 61.3352 299.749C58.6876 297.396 55.0595 296.219 50.4508 296.219H31.7707V322.842ZM52.6571 367.115C57.2658 367.115 60.9429 365.889 63.6886 363.437C66.5322 360.888 67.9541 357.407 67.9541 352.994C67.9541 348.582 66.5322 345.101 63.6886 342.551C60.8449 340.002 57.1187 338.727 52.51 338.727H31.7707V367.115H52.6571ZM183.622 301.514V383H162.882V370.645C160.333 374.959 156.852 378.293 152.439 380.647C148.125 382.902 143.124 384.03 137.436 384.03C131.455 384.03 126.062 382.706 121.257 380.058C116.55 377.313 112.824 373.341 110.078 368.144C107.333 362.849 105.96 356.573 105.96 349.317V301.514H126.552V346.375C126.552 352.749 128.17 357.652 131.406 361.084C134.642 364.516 139.054 366.232 144.644 366.232C150.233 366.232 154.646 364.516 157.882 361.084C161.215 357.652 162.882 352.749 162.882 346.375V301.514H183.622ZM234.786 300.337C244.102 300.337 251.75 302.74 257.732 307.545C263.713 312.251 266.9 318.674 267.292 326.813H246.112C245.523 319.949 241.307 316.517 233.462 316.517C229.54 316.517 226.5 317.301 224.343 318.87C222.186 320.439 221.107 322.498 221.107 325.048C221.107 327.205 221.891 328.921 223.46 330.196C225.029 331.471 226.941 332.5 229.197 333.285C231.55 333.971 234.884 334.805 239.199 335.785C245.18 337.06 250.083 338.433 253.907 339.904C257.83 341.276 261.164 343.532 263.909 346.67C266.655 349.709 268.028 353.926 268.028 359.319C268.028 364.222 266.606 368.536 263.762 372.263C260.918 375.989 256.996 378.931 251.995 381.088C246.994 383.147 241.356 384.177 235.08 384.177C225.274 384.177 217.283 381.921 211.105 377.411C204.927 372.802 201.544 366.232 200.956 357.701H222.137C222.529 361.035 223.853 363.585 226.108 365.35C228.363 367.115 231.403 367.997 235.227 367.997C239.052 367.997 242.14 367.164 244.494 365.497C246.847 363.732 248.024 361.525 248.024 358.878C248.024 356.721 247.239 355.004 245.67 353.73C244.102 352.357 242.14 351.327 239.787 350.641C237.434 349.856 234.051 348.974 229.638 347.993C223.656 346.719 218.754 345.395 214.929 344.022C211.203 342.649 207.967 340.492 205.222 337.55C202.476 334.51 201.103 330.441 201.103 325.342C201.103 320.831 202.427 316.664 205.075 312.84C207.722 309.015 211.595 305.976 216.694 303.72C221.793 301.465 227.824 300.337 234.786 300.337ZM283.464 280.775C283.464 277.245 284.689 274.254 287.141 271.802C289.592 269.351 292.534 268.125 295.966 268.125C299.496 268.125 302.487 269.351 304.938 271.802C307.39 274.254 308.616 277.245 308.616 280.775C308.616 284.305 307.39 287.296 304.938 289.747C302.487 292.198 299.496 293.424 295.966 293.424C292.534 293.424 289.592 292.198 287.141 289.747C284.689 287.296 283.464 284.305 283.464 280.775ZM306.409 301.514V383H285.67V301.514H306.409ZM374.513 300.337C380.592 300.337 385.985 301.71 390.692 304.456C395.497 307.103 399.272 311.075 402.018 316.37C404.764 321.567 406.136 327.793 406.136 335.05V383H385.544V337.991C385.544 331.618 383.926 326.764 380.69 323.43C377.454 319.998 373.042 318.282 367.453 318.282C361.863 318.282 357.402 319.998 354.068 323.43C350.832 326.764 349.214 331.618 349.214 337.991V383H328.475V301.514H349.214V313.722C351.763 309.408 355.195 306.123 359.51 303.867C363.922 301.514 368.923 300.337 374.513 300.337ZM502.898 341.08C502.898 343.924 502.701 346.572 502.309 349.023H442.886C443.376 354.318 445.338 358.584 448.77 361.82C452.202 365.055 456.565 366.673 461.86 366.673C465.979 366.673 469.264 365.889 471.715 364.32C474.167 362.751 476.177 360.594 477.746 357.848H500.103C497.75 365.595 493.19 371.919 486.424 376.822C479.658 381.725 471.47 384.177 461.86 384.177C454.114 384.177 447.201 382.461 441.121 379.029C435.042 375.499 430.286 370.596 426.854 364.32C423.422 357.946 421.706 350.543 421.706 342.11C421.706 333.677 423.422 326.323 426.854 320.047C430.286 313.771 435.042 308.917 441.121 305.485C447.299 302.053 454.31 300.337 462.155 300.337C469.999 300.337 476.961 302.004 483.041 305.338C489.219 308.672 494.072 313.428 497.602 319.606C501.133 325.685 502.898 332.843 502.898 341.08ZM481.423 335.638C481.129 330.245 479.119 325.93 475.392 322.694C471.764 319.459 467.254 317.841 461.86 317.841C456.859 317.841 452.594 319.459 449.064 322.694C445.632 325.93 443.573 330.245 442.886 335.638H481.423ZM548.351 300.337C557.666 300.337 565.315 302.74 571.296 307.545C577.278 312.251 580.465 318.674 580.857 326.813H559.677C559.088 319.949 554.872 316.517 547.027 316.517C543.105 316.517 540.065 317.301 537.908 318.87C535.75 320.439 534.672 322.498 534.672 325.048C534.672 327.205 535.456 328.921 537.025 330.196C538.594 331.471 540.506 332.5 542.762 333.285C545.115 333.971 548.449 334.805 552.763 335.785C558.745 337.06 563.648 338.433 567.472 339.904C571.394 341.276 574.728 343.532 577.474 346.67C580.22 349.709 581.592 353.926 581.592 359.319C581.592 364.222 580.171 368.536 577.327 372.263C574.483 375.989 570.561 378.931 565.56 381.088C560.559 383.147 554.921 384.177 548.645 384.177C538.839 384.177 530.848 381.921 524.67 377.411C518.492 372.802 515.109 366.232 514.521 357.701H535.701C536.094 361.035 537.417 363.585 539.673 365.35C541.928 367.115 544.968 367.997 548.792 367.997C552.616 367.997 555.705 367.164 558.059 365.497C560.412 363.732 561.589 361.525 561.589 358.878C561.589 356.721 560.804 355.004 559.235 353.73C557.666 352.357 555.705 351.327 553.352 350.641C550.998 349.856 547.615 348.974 543.203 347.993C537.221 346.719 532.318 345.395 528.494 344.022C524.768 342.649 521.532 340.492 518.786 337.55C516.041 334.51 514.668 330.441 514.668 325.342C514.668 320.831 515.992 316.664 518.639 312.84C521.287 309.015 525.16 305.976 530.259 303.72C535.358 301.465 541.389 300.337 548.351 300.337ZM628.358 300.337C637.673 300.337 645.322 302.74 651.304 307.545C657.285 312.251 660.472 318.674 660.864 326.813H639.684C639.095 319.949 634.879 316.517 627.034 316.517C623.112 316.517 620.072 317.301 617.915 318.87C615.758 320.439 614.679 322.498 614.679 325.048C614.679 327.205 615.463 328.921 617.032 330.196C618.601 331.471 620.513 332.5 622.769 333.285C625.122 333.971 628.456 334.805 632.771 335.785C638.752 337.06 643.655 338.433 647.479 339.904C651.402 341.276 654.736 343.532 657.481 346.67C660.227 349.709 661.6 353.926 661.6 359.319C661.6 364.222 660.178 368.536 657.334 372.263C654.49 375.989 650.568 378.931 645.567 381.088C640.566 383.147 634.928 384.177 628.652 384.177C618.846 384.177 610.855 381.921 604.677 377.411C598.499 372.802 595.116 366.232 594.528 357.701H615.709C616.101 361.035 617.425 363.585 619.68 365.35C621.935 367.115 624.975 367.997 628.799 367.997C632.624 367.997 635.712 367.164 638.066 365.497C640.419 363.732 641.596 361.525 641.596 358.878C641.596 356.721 640.811 355.004 639.242 353.73C637.673 352.357 635.712 351.327 633.359 350.641C631.006 349.856 627.623 348.974 623.21 347.993C617.228 346.719 612.326 345.395 608.501 344.022C604.775 342.649 601.539 340.492 598.794 337.55C596.048 334.51 594.675 330.441 594.675 325.342C594.675 320.831 595.999 316.664 598.646 312.84C601.294 309.015 605.167 305.976 610.266 303.72C615.365 301.465 621.396 300.337 628.358 300.337ZM754.697 341.08C754.697 343.924 754.501 346.572 754.109 349.023H694.686C695.176 354.318 697.138 358.584 700.57 361.82C704.002 365.055 708.365 366.673 713.66 366.673C717.779 366.673 721.064 365.889 723.515 364.32C725.967 362.751 727.977 360.594 729.546 357.848H751.903C749.549 365.595 744.99 371.919 738.224 376.822C731.458 381.725 723.27 384.177 713.66 384.177C705.914 384.177 699.001 382.461 692.921 379.029C686.841 375.499 682.086 370.596 678.654 364.32C675.222 357.946 673.506 350.543 673.506 342.11C673.506 333.677 675.222 326.323 678.654 320.047C682.086 313.771 686.841 308.917 692.921 305.485C699.099 302.053 706.11 300.337 713.954 300.337C721.799 300.337 728.761 302.004 734.841 305.338C741.018 308.672 745.872 313.428 749.402 319.606C752.932 325.685 754.697 332.843 754.697 341.08ZM733.223 335.638C732.929 330.245 730.918 325.93 727.192 322.694C723.564 319.459 719.053 317.841 713.66 317.841C708.659 317.841 704.394 319.459 700.864 322.694C697.432 325.93 695.372 330.245 694.686 335.638H733.223ZM800.151 300.337C809.466 300.337 817.115 302.74 823.096 307.545C829.078 312.251 832.265 318.674 832.657 326.813H811.476C810.888 319.949 806.672 316.517 798.827 316.517C794.905 316.517 791.865 317.301 789.708 318.87C787.55 320.439 786.472 322.498 786.472 325.048C786.472 327.205 787.256 328.921 788.825 330.196C790.394 331.471 792.306 332.5 794.561 333.285C796.915 333.971 800.249 334.805 804.563 335.785C810.545 337.06 815.448 338.433 819.272 339.904C823.194 341.276 826.528 343.532 829.274 346.67C832.02 349.709 833.392 353.926 833.392 359.319C833.392 364.222 831.97 368.536 829.127 372.263C826.283 375.989 822.361 378.931 817.36 381.088C812.359 383.147 806.721 384.177 800.445 384.177C790.639 384.177 782.647 381.921 776.47 377.411C770.292 372.802 766.909 366.232 766.321 357.701H787.501C787.893 361.035 789.217 363.585 791.473 365.35C793.728 367.115 796.768 367.997 800.592 367.997C804.416 367.997 807.505 367.164 809.858 365.497C812.212 363.732 813.389 361.525 813.389 358.878C813.389 356.721 812.604 355.004 811.035 353.73C809.466 352.357 807.505 351.327 805.152 350.641C802.798 349.856 799.415 348.974 795.003 347.993C789.021 346.719 784.118 345.395 780.294 344.022C776.568 342.649 773.332 340.492 770.586 337.55C767.841 334.51 766.468 330.441 766.468 325.342C766.468 320.831 767.792 316.664 770.439 312.84C773.087 309.015 776.96 305.976 782.059 303.72C787.158 301.465 793.189 300.337 800.151 300.337ZM57.8051 499.863C68.9837 499.863 78.8875 502.706 87.5166 508.394C96.2438 514.081 102.47 522.073 106.197 532.369H81.339C76.7303 523.347 68.8856 518.837 57.8051 518.837C51.6274 518.837 46.1362 520.21 41.3314 522.955C36.6246 525.701 32.9474 529.623 30.2999 534.722C27.6523 539.821 26.3285 545.705 26.3285 552.373C26.3285 559.04 27.6523 564.924 30.2999 570.023C32.9474 575.122 36.6246 579.093 41.3314 581.937C46.1362 584.683 51.6274 586.055 57.8051 586.055C65.4536 586.055 71.6803 583.996 76.4851 579.878C81.388 575.661 84.4278 570.023 85.6045 562.963H51.4804V547.225H107.815V562.963C106.736 570.121 103.941 576.936 99.4306 583.408C94.92 589.782 89.0365 594.979 81.7802 598.999C74.622 602.921 66.6303 604.883 57.8051 604.883C48.1954 604.883 39.3702 602.676 31.3295 598.264C23.2887 593.753 16.915 587.526 12.2082 579.584C7.59948 571.543 5.29512 562.473 5.29512 552.373C5.29512 542.371 7.59948 533.398 12.2082 525.456C16.915 517.415 23.2887 511.139 31.3295 506.629C39.3702 502.118 48.1954 499.863 57.8051 499.863ZM144.815 536.928C147.364 532.026 150.649 528.201 154.67 525.456C158.788 522.71 163.446 521.337 168.643 521.337V542.518H163.495C157.317 542.518 152.66 544.087 149.522 547.225C146.384 550.264 144.815 555.559 144.815 563.11V604H124.076V522.514H144.815V536.928ZM219.876 521.337C227.623 521.337 234.683 523.053 241.057 526.485C247.431 529.917 252.481 534.82 256.207 541.194C259.933 547.47 261.796 554.775 261.796 563.11C261.796 571.445 259.933 578.799 256.207 585.173C252.481 591.547 247.381 596.499 240.91 600.029C234.536 603.461 227.427 605.177 219.582 605.177C211.836 605.177 204.775 603.461 198.402 600.029C192.028 596.499 186.978 591.547 183.252 585.173C179.624 578.799 177.809 571.445 177.809 563.11C177.809 554.775 179.673 547.47 183.399 541.194C187.125 534.82 192.175 529.917 198.549 526.485C204.922 523.053 212.032 521.337 219.876 521.337ZM219.729 538.841C213.846 538.841 208.894 540.949 204.873 545.165C200.853 549.382 198.843 555.412 198.843 563.257C198.843 568.552 199.774 573.063 201.638 576.789C203.599 580.417 206.148 583.163 209.286 585.026C212.424 586.791 215.856 587.673 219.582 587.673C223.21 587.673 226.642 586.742 229.878 584.879C233.114 583.016 235.713 580.27 237.674 576.642C239.733 572.916 240.763 568.454 240.763 563.257C240.763 557.962 239.782 553.5 237.821 549.872C235.86 546.146 233.261 543.4 230.025 541.635C226.887 539.772 223.455 538.841 219.729 538.841ZM390.428 522.514L365.423 604H343.36L329.387 549.284L315.267 604H293.204L268.199 522.514H289.085L304.088 584.437L319.091 522.514H340.86L355.568 584.29L370.571 522.514H390.428ZM583.487 501.333L553.776 604H530.242L510.385 532.369L489.94 604H466.406L437.283 501.333H459.346L479.056 580.613L499.795 501.333H523.182L542.744 579.878L561.277 501.333H583.487ZM594.156 501.775C594.156 498.245 595.381 495.254 597.833 492.802C600.284 490.351 603.226 489.125 606.658 489.125C610.188 489.125 613.179 490.351 615.63 492.802C618.082 495.254 619.308 498.245 619.308 501.775C619.308 505.305 618.082 508.296 615.63 510.747C613.179 513.198 610.188 514.424 606.658 514.424C603.226 514.424 600.284 513.198 597.833 510.747C595.381 508.296 594.156 505.305 594.156 501.775ZM617.101 522.514V604H596.362V522.514H617.101ZM680.645 586.644V604H667.554C659.219 604 652.797 602.088 648.286 598.264C643.775 594.439 641.52 588.115 641.52 579.289V539.429H632.842V522.514H641.52V502.363H662.259V522.514H680.498V539.429H662.259V579.289C662.259 581.937 662.897 583.849 664.171 585.026C665.446 586.104 667.652 586.644 670.79 586.644H680.645ZM742.804 521.337C748.884 521.337 754.277 522.71 758.984 525.456C763.788 528.103 767.564 532.075 770.309 537.37C773.055 542.567 774.428 548.793 774.428 556.05V604H753.836V558.991C753.836 552.618 752.218 547.764 748.982 544.43C745.746 540.998 741.333 539.282 735.744 539.282C730.155 539.282 725.693 540.998 722.359 544.43C719.123 547.764 717.505 552.618 717.505 558.991V604H696.766V495.156H717.505V534.722C720.055 530.408 723.487 527.123 727.801 524.867C732.214 522.514 737.215 521.337 742.804 521.337ZM951.764 501.333V604H931.172V539.135L903.225 604H888.369L860.57 539.429V604H839.831V501.333H862.923L895.871 577.377L928.818 501.333H951.764ZM1005.91 521.337C1011.7 521.337 1016.84 522.563 1021.36 525.014C1025.87 527.466 1029.49 530.849 1032.24 535.163V522.514H1052.83V604H1032.24V590.321C1029.4 594.93 1025.72 598.558 1021.21 601.205C1016.8 603.853 1011.7 605.177 1005.91 605.177C998.949 605.177 992.575 603.412 986.79 599.882C981.103 596.253 976.543 591.252 973.111 584.879C969.777 578.505 968.11 571.249 968.11 563.11C968.11 554.971 969.777 547.764 973.111 541.488C976.543 535.114 981.103 530.162 986.79 526.632C992.575 523.102 998.949 521.337 1005.91 521.337ZM1010.62 539.282C1006.99 539.282 1003.51 540.213 1000.17 542.076C996.939 543.94 994.291 546.685 992.232 550.313C990.173 553.843 989.143 558.109 989.143 563.11C989.143 568.111 990.173 572.474 992.232 576.201C994.291 579.829 996.939 582.574 1000.17 584.437C1003.51 586.301 1006.99 587.232 1010.62 587.232C1014.34 587.232 1017.83 586.301 1021.06 584.437C1024.4 582.574 1027.09 579.829 1029.15 576.201C1031.21 572.572 1032.24 568.258 1032.24 563.257C1032.24 558.256 1031.21 553.941 1029.15 550.313C1027.09 546.685 1024.4 543.94 1021.06 542.076C1017.83 540.213 1014.34 539.282 1010.62 539.282ZM1095.56 536.928C1098.11 532.026 1101.4 528.201 1105.42 525.456C1109.54 522.71 1114.2 521.337 1119.39 521.337V542.518H1114.24C1108.07 542.518 1103.41 544.087 1100.27 547.225C1097.13 550.264 1095.56 555.559 1095.56 563.11V604H1074.82V522.514H1095.56V536.928ZM1174.3 563.698L1210.49 604H1182.83L1154.89 570.023V604H1134.15V495.156H1154.89V557.374L1182.39 522.514H1210.49L1174.3 563.698ZM1297.8 562.08C1297.8 564.924 1297.6 567.572 1297.21 570.023H1237.79C1238.28 575.318 1240.24 579.584 1243.67 582.82C1247.1 586.055 1251.47 587.673 1256.76 587.673C1260.88 587.673 1264.16 586.889 1266.62 585.32C1269.07 583.751 1271.08 581.594 1272.65 578.848H1295C1292.65 586.595 1288.09 592.919 1281.32 597.822C1274.56 602.725 1266.37 605.177 1256.76 605.177C1249.01 605.177 1242.1 603.461 1236.02 600.029C1229.94 596.499 1225.19 591.596 1221.75 585.32C1218.32 578.946 1216.61 571.543 1216.61 563.11C1216.61 554.677 1218.32 547.323 1221.75 541.047C1225.19 534.771 1229.94 529.917 1236.02 526.485C1242.2 523.053 1249.21 521.337 1257.05 521.337C1264.9 521.337 1271.86 523.004 1277.94 526.338C1284.12 529.672 1288.97 534.428 1292.5 540.606C1296.03 546.685 1297.8 553.843 1297.8 562.08ZM1276.32 556.638C1276.03 551.245 1274.02 546.93 1270.29 543.694C1266.66 540.459 1262.15 538.841 1256.76 538.841C1251.76 538.841 1247.49 540.459 1243.96 543.694C1240.53 546.93 1238.47 551.245 1237.79 556.638H1276.32ZM1355.61 586.644V604H1342.52C1334.18 604 1327.76 602.088 1323.25 598.264C1318.74 594.439 1316.48 588.115 1316.48 579.289V539.429H1307.8V522.514H1316.48V502.363H1337.22V522.514H1355.46V539.429H1337.22V579.289C1337.22 581.937 1337.86 583.849 1339.13 585.026C1340.41 586.104 1342.61 586.644 1345.75 586.644H1355.61ZM1369.52 501.775C1369.52 498.245 1370.75 495.254 1373.2 492.802C1375.65 490.351 1378.59 489.125 1382.02 489.125C1385.55 489.125 1388.54 490.351 1391 492.802C1393.45 495.254 1394.67 498.245 1394.67 501.775C1394.67 505.305 1393.45 508.296 1391 510.747C1388.54 513.198 1385.55 514.424 1382.02 514.424C1378.59 514.424 1375.65 513.198 1373.2 510.747C1370.75 508.296 1369.52 505.305 1369.52 501.775ZM1392.47 522.514V604H1371.73V522.514H1392.47ZM1460.57 521.337C1466.65 521.337 1472.04 522.71 1476.75 525.456C1481.55 528.103 1485.33 532.075 1488.08 537.37C1490.82 542.567 1492.19 548.793 1492.19 556.05V604H1471.6V558.991C1471.6 552.618 1469.98 547.764 1466.75 544.43C1463.51 540.998 1459.1 539.282 1453.51 539.282C1447.92 539.282 1443.46 540.998 1440.13 544.43C1436.89 547.764 1435.27 552.618 1435.27 558.991V604H1414.53V522.514H1435.27V534.722C1437.82 530.408 1441.25 527.123 1445.57 524.867C1449.98 522.514 1454.98 521.337 1460.57 521.337ZM1545.56 521.337C1551.35 521.337 1556.5 522.563 1561.01 525.014C1565.52 527.466 1569.15 530.849 1571.89 535.163V522.514H1592.49V604.588C1592.49 612.139 1590.97 618.905 1587.93 624.886C1584.98 630.868 1580.47 635.575 1574.39 639.007C1568.41 642.537 1561.01 644.302 1552.18 644.302C1540.51 644.302 1531 641.703 1523.65 636.506C1516.39 631.407 1512.27 624.102 1511.29 614.59H1531.59C1532.87 618.218 1535.32 621.062 1538.95 623.121C1542.57 625.279 1546.99 626.357 1552.18 626.357C1557.97 626.357 1562.68 624.543 1566.3 620.915C1570.03 617.287 1571.89 611.845 1571.89 604.588V590.321C1569.05 594.93 1565.37 598.558 1560.86 601.205C1556.45 603.853 1551.35 605.177 1545.56 605.177C1538.6 605.177 1532.23 603.412 1526.44 599.882C1520.76 596.253 1516.2 591.252 1512.76 584.879C1509.43 578.505 1507.76 571.249 1507.76 563.11C1507.76 554.971 1509.43 547.764 1512.76 541.488C1516.2 535.114 1520.76 530.162 1526.44 526.632C1532.23 523.102 1538.6 521.337 1545.56 521.337ZM1550.27 539.282C1546.64 539.282 1543.16 540.213 1539.83 542.076C1536.59 543.94 1533.94 546.685 1531.89 550.313C1529.83 553.843 1528.8 558.109 1528.8 563.11C1528.8 568.111 1529.83 572.474 1531.89 576.201C1533.94 579.829 1536.59 582.574 1539.83 584.437C1543.16 586.301 1546.64 587.232 1550.27 587.232C1554 587.232 1557.48 586.301 1560.71 584.437C1564.05 582.574 1566.74 579.829 1568.8 576.201C1570.86 572.572 1571.89 568.258 1571.89 563.257C1571.89 558.256 1570.86 553.941 1568.8 550.313C1566.74 546.685 1564.05 543.94 1560.71 542.076C1557.48 540.213 1554 539.282 1550.27 539.282Z" fill="#1C1C1C"/>
<path d="M25.3024 783.145C29.9498 783.145 34.0808 784.242 37.6954 786.437C41.3531 788.631 44.0425 791.794 45.7638 795.925H38.6636C37.3727 793.472 35.5654 791.6 33.2417 790.31C30.918 789.019 28.2715 788.373 25.3024 788.373C22.1181 788.373 19.235 789.105 16.6531 790.568C14.1143 791.988 12.1133 794.032 10.6502 796.7C9.23021 799.368 8.52019 802.444 8.52019 805.93C8.52019 809.415 9.23021 812.492 10.6502 815.16C12.1133 817.828 14.1143 819.894 16.6531 821.357C19.235 822.82 22.1181 823.551 25.3024 823.551C29.8637 823.551 33.5644 822.217 36.4045 819.549C39.2876 816.881 40.9658 813.267 41.4391 808.705H22.9787V804.058H47.6356V808.705C47.2483 812.492 46.022 815.913 43.9565 818.968C41.934 822.024 39.2876 824.412 36.0172 826.133C32.7898 827.854 29.2182 828.715 25.3024 828.715C21.1284 828.715 17.2986 827.747 13.813 825.81C10.3275 823.831 7.5735 821.12 5.55103 817.677C3.52856 814.192 2.51733 810.276 2.51733 805.93C2.51733 801.541 3.52856 797.625 5.55103 794.182C7.5735 790.697 10.3275 787.986 13.813 786.049C17.2986 784.113 21.1284 783.145 25.3024 783.145ZM87.1605 809.157C87.1605 810.405 87.0745 811.567 86.9023 812.643H58.6953C58.8675 816.171 59.9648 818.968 61.9872 821.034C64.0527 823.056 66.6776 824.068 69.8619 824.068C72.2717 824.068 74.2942 823.53 75.9294 822.454C77.6076 821.378 78.834 819.958 79.6085 818.194H85.9341C84.8153 821.292 82.8789 823.852 80.1249 825.875C77.4139 827.897 73.993 828.909 69.8619 828.909C66.5485 828.909 63.5794 828.156 60.9545 826.649C58.3726 825.143 56.3501 823.013 54.8871 820.259C53.424 817.462 52.6925 814.256 52.6925 810.642C52.6925 806.984 53.424 803.778 54.8871 801.024C56.3501 798.227 58.4156 796.076 61.0836 794.57C63.7515 793.064 66.8282 792.31 70.3138 792.31C73.6272 792.31 76.5533 793.042 79.0922 794.505C81.631 795.968 83.6104 797.969 85.0305 800.508C86.4505 803.047 87.1605 805.93 87.1605 809.157ZM81.0286 808.383C81.0286 806.102 80.5337 804.123 79.544 802.444C78.5543 800.723 77.1988 799.411 75.4775 798.507C73.7993 797.603 71.9275 797.151 69.8619 797.151C66.8067 797.151 64.2464 798.163 62.1809 800.185C60.1154 802.165 58.975 804.897 58.7599 808.383H81.0286ZM110.935 823.551V828.328H104.997C101.984 828.328 99.6823 827.596 98.0901 826.133C96.541 824.67 95.7664 822.368 95.7664 819.227V797.668H91.1836V792.891H95.7664V784.113H101.705V792.891H110.87V797.668H101.705V819.227C101.705 820.819 102.027 821.937 102.673 822.583C103.318 823.228 104.459 823.551 106.094 823.551H110.935ZM133.879 823.551V828.328H127.941C124.929 828.328 122.627 827.596 121.035 826.133C119.485 824.67 118.711 822.368 118.711 819.227V797.668H114.128V792.891H118.711V784.113H124.649V792.891H133.815V797.668H124.649V819.227C124.649 820.819 124.972 821.937 125.617 822.583C126.263 823.228 127.403 823.551 129.038 823.551H133.879ZM139.396 783.209C139.396 782.091 139.783 781.144 140.558 780.369C141.333 779.595 142.258 779.207 143.333 779.207C144.452 779.207 145.399 779.595 146.174 780.369C146.948 781.144 147.335 782.091 147.335 783.209C147.335 784.328 146.948 785.275 146.174 786.049C145.399 786.824 144.452 787.211 143.333 787.211C142.215 787.211 141.268 786.824 140.493 786.049C139.762 785.275 139.396 784.328 139.396 783.209ZM146.238 792.891V828.328H140.364V792.891H146.238ZM173.361 792.31C175.9 792.31 178.202 792.891 180.268 794.053C182.376 795.172 184.033 796.872 185.238 799.152C186.486 801.39 187.11 804.123 187.11 807.35V828.328H181.301V808.318C181.301 804.746 180.44 802.036 178.719 800.185C176.998 798.335 174.609 797.41 171.554 797.41C168.542 797.41 166.154 798.335 164.389 800.185C162.668 802.036 161.808 804.746 161.808 808.318V828.328H155.934V792.891H161.808V798.636C162.969 796.571 164.562 795 166.584 793.924C168.606 792.848 170.866 792.31 173.361 792.31ZM211.052 792.31C214.064 792.31 216.689 793.02 218.927 794.441C221.208 795.861 222.929 797.711 224.091 799.992V792.891H230.029V829.231C230.029 832.459 229.319 835.32 227.899 837.816C226.479 840.312 224.478 842.248 221.896 843.625C219.314 845.045 216.324 845.755 212.924 845.755C209.955 845.755 207.244 845.239 204.791 844.206C202.338 843.216 200.337 841.796 198.788 839.946C197.239 838.096 196.314 835.987 196.013 833.62H201.758C202.317 835.643 203.629 837.321 205.695 838.655C207.76 839.989 210.17 840.656 212.924 840.656C216.281 840.656 218.97 839.645 220.992 837.622C223.058 835.643 224.091 832.846 224.091 829.231V821.098C222.929 823.422 221.208 825.315 218.927 826.779C216.689 828.199 214.064 828.909 211.052 828.909C207.868 828.909 204.985 828.134 202.403 826.585C199.864 824.993 197.842 822.798 196.336 820.001C194.873 817.161 194.141 813.955 194.141 810.384C194.141 806.812 194.873 803.671 196.336 800.96C197.842 798.206 199.864 796.076 202.403 794.57C204.985 793.064 207.868 792.31 211.052 792.31ZM212.085 797.41C209.976 797.41 207.997 797.926 206.147 798.959C204.339 799.992 202.876 801.498 201.758 803.477C200.682 805.413 200.144 807.716 200.144 810.384C200.144 813.052 200.682 815.418 201.758 817.484C202.876 819.506 204.339 821.077 206.147 822.196C207.997 823.314 209.976 823.874 212.085 823.874C214.237 823.874 216.216 823.336 218.023 822.26C219.874 821.184 221.337 819.657 222.413 817.677C223.531 815.655 224.091 813.31 224.091 810.642C224.091 807.974 223.531 805.65 222.413 803.671C221.337 801.648 219.874 800.099 218.023 799.023C216.216 797.948 214.237 797.41 212.085 797.41ZM275.517 823.551V828.328H269.579C266.566 828.328 264.264 827.596 262.672 826.133C261.123 824.67 260.348 822.368 260.348 819.227V797.668H255.766V792.891H260.348V784.113H266.287V792.891H275.452V797.668H266.287V819.227C266.287 820.819 266.61 821.937 267.255 822.583C267.9 823.228 269.041 823.551 270.676 823.551H275.517ZM299.43 792.31C301.968 792.31 304.271 792.891 306.336 794.053C308.445 795.172 310.101 796.872 311.306 799.152C312.554 801.39 313.178 804.123 313.178 807.35V828.328H307.369V808.318C307.369 804.746 306.508 802.036 304.787 800.185C303.066 798.335 300.678 797.41 297.622 797.41C294.61 797.41 292.222 798.335 290.458 800.185C288.736 802.036 287.876 804.746 287.876 808.318V828.328H282.002V780.563H287.876V798.636C289.038 796.571 290.63 795 292.652 793.924C294.675 792.848 296.934 792.31 299.43 792.31ZM354.677 809.157C354.677 810.405 354.591 811.567 354.419 812.643H326.212C326.384 816.171 327.481 818.968 329.504 821.034C331.569 823.056 334.194 824.068 337.379 824.068C339.788 824.068 341.811 823.53 343.446 822.454C345.124 821.378 346.351 819.958 347.125 818.194H353.451C352.332 821.292 350.396 823.852 347.642 825.875C344.931 827.897 341.51 828.909 337.379 828.909C334.065 828.909 331.096 828.156 328.471 826.649C325.889 825.143 323.867 823.013 322.404 820.259C320.941 817.462 320.209 814.256 320.209 810.642C320.209 806.984 320.941 803.778 322.404 801.024C323.867 798.227 325.932 796.076 328.6 794.57C331.268 793.064 334.345 792.31 337.83 792.31C341.144 792.31 344.07 793.042 346.609 794.505C349.148 795.968 351.127 797.969 352.547 800.508C353.967 803.047 354.677 805.93 354.677 809.157ZM348.545 808.383C348.545 806.102 348.05 804.123 347.061 802.444C346.071 800.723 344.715 799.411 342.994 798.507C341.316 797.603 339.444 797.151 337.379 797.151C334.323 797.151 331.763 798.163 329.698 800.185C327.632 802.165 326.492 804.897 326.277 808.383H348.545ZM400.32 792.31C403.505 792.31 406.366 793.064 408.905 794.57C411.487 796.076 413.51 798.206 414.973 800.96C416.479 803.671 417.232 806.812 417.232 810.384C417.232 813.955 416.479 817.161 414.973 820.001C413.51 822.798 411.487 824.993 408.905 826.585C406.366 828.134 403.505 828.909 400.32 828.909C397.308 828.909 394.662 828.199 392.381 826.779C390.144 825.315 388.422 823.422 387.217 821.098V828.328H381.344V780.563H387.217V799.992C388.422 797.711 390.144 795.861 392.381 794.441C394.662 793.02 397.308 792.31 400.32 792.31ZM399.159 797.41C397.05 797.41 395.071 797.948 393.22 799.023C391.413 800.099 389.95 801.648 388.831 803.671C387.755 805.65 387.217 807.974 387.217 810.642C387.217 813.31 387.755 815.655 388.831 817.677C389.95 819.657 391.413 821.184 393.22 822.26C395.071 823.336 397.05 823.874 399.159 823.874C401.267 823.874 403.247 823.336 405.097 822.26C406.947 821.141 408.41 819.549 409.486 817.484C410.605 815.418 411.164 813.052 411.164 810.384C411.164 807.716 410.605 805.413 409.486 803.477C408.41 801.498 406.947 799.992 405.097 798.959C403.29 797.926 401.31 797.41 399.159 797.41ZM439.173 792.31C442.185 792.31 444.81 793.02 447.047 794.441C449.328 795.861 451.049 797.711 452.211 799.992V792.891H458.149V828.328H452.211V821.098C451.049 823.422 449.328 825.315 447.047 826.779C444.81 828.199 442.185 828.909 439.173 828.909C435.988 828.909 433.105 828.134 430.523 826.585C427.985 824.993 425.962 822.798 424.456 820.001C422.993 817.161 422.261 813.955 422.261 810.384C422.261 806.812 422.993 803.671 424.456 800.96C425.962 798.206 427.985 796.076 430.523 794.57C433.105 793.064 435.988 792.31 439.173 792.31ZM440.205 797.41C438.097 797.41 436.117 797.926 434.267 798.959C432.46 799.992 430.997 801.498 429.878 803.477C428.802 805.413 428.264 807.716 428.264 810.384C428.264 813.052 428.802 815.418 429.878 817.484C430.997 819.506 432.46 821.077 434.267 822.196C436.117 823.314 438.097 823.874 440.205 823.874C442.357 823.874 444.336 823.336 446.144 822.26C447.994 821.184 449.457 819.657 450.533 817.677C451.652 815.655 452.211 813.31 452.211 810.642C452.211 807.974 451.652 805.65 450.533 803.671C449.457 801.648 447.994 800.099 446.144 799.023C444.336 797.948 442.357 797.41 440.205 797.41ZM473.7 780.563V828.328H467.826V780.563H473.7ZM489.27 780.563V828.328H483.396V780.563H489.27ZM524.19 798.894C526.299 794.505 529.892 792.31 534.97 792.31V798.442H533.421C530.409 798.442 528.106 799.238 526.514 800.831C524.965 802.38 524.19 805.091 524.19 808.964V828.328H518.317V792.891H524.19V798.894ZM557.636 792.31C560.993 792.31 564.027 793.064 566.738 794.57C569.448 796.076 571.579 798.227 573.128 801.024C574.72 803.821 575.516 807.027 575.516 810.642C575.516 814.213 574.698 817.398 573.063 820.195C571.428 822.949 569.212 825.1 566.415 826.649C563.618 828.156 560.519 828.909 557.12 828.909C553.807 828.909 550.816 828.156 548.148 826.649C545.523 825.143 543.458 823.013 541.951 820.259C540.488 817.462 539.757 814.256 539.757 810.642C539.757 806.984 540.531 803.778 542.081 801.024C543.673 798.227 545.824 796.076 548.535 794.57C551.246 793.064 554.28 792.31 557.636 792.31ZM557.443 797.151C555.291 797.151 553.333 797.668 551.569 798.701C549.805 799.733 548.385 801.261 547.309 803.283C546.276 805.306 545.76 807.759 545.76 810.642C545.76 813.482 546.255 815.913 547.244 817.936C548.277 819.958 549.654 821.486 551.375 822.518C553.097 823.551 555.011 824.068 557.12 824.068C559.272 824.068 561.273 823.551 563.123 822.518C565.016 821.443 566.544 819.894 567.706 817.871C568.868 815.849 569.448 813.439 569.448 810.642C569.448 807.802 568.889 805.37 567.77 803.348C566.694 801.282 565.231 799.733 563.381 798.701C561.574 797.668 559.594 797.151 557.443 797.151ZM588.737 780.563V828.328H582.864V780.563H588.737ZM604.307 780.563V828.328H598.433V780.563H604.307ZM613.034 783.209C613.034 782.091 613.422 781.144 614.196 780.369C614.971 779.595 615.896 779.207 616.972 779.207C618.09 779.207 619.037 779.595 619.812 780.369C620.586 781.144 620.974 782.091 620.974 783.209C620.974 784.328 620.586 785.275 619.812 786.049C619.037 786.824 618.09 787.211 616.972 787.211C615.853 787.211 614.906 786.824 614.132 786.049C613.4 785.275 613.034 784.328 613.034 783.209ZM619.876 792.891V828.328H614.003V792.891H619.876ZM647 792.31C649.538 792.31 651.841 792.891 653.906 794.053C656.015 795.172 657.671 796.872 658.876 799.152C660.124 801.39 660.748 804.123 660.748 807.35V828.328H654.939V808.318C654.939 804.746 654.078 802.036 652.357 800.185C650.636 798.335 648.247 797.41 645.192 797.41C642.18 797.41 639.792 798.335 638.028 800.185C636.306 802.036 635.446 804.746 635.446 808.318V828.328H629.572V792.891H635.446V798.636C636.608 796.571 638.2 795 640.222 793.924C642.245 792.848 644.504 792.31 647 792.31ZM684.69 792.31C687.703 792.31 690.328 793.02 692.565 794.441C694.846 795.861 696.567 797.711 697.729 799.992V792.891H703.667V829.231C703.667 832.459 702.957 835.32 701.537 837.816C700.117 840.312 698.116 842.248 695.534 843.625C692.952 845.045 689.962 845.755 686.562 845.755C683.593 845.755 680.882 845.239 678.429 844.206C675.977 843.216 673.976 841.796 672.427 839.946C670.877 838.096 669.952 835.987 669.651 833.62H675.396C675.955 835.643 677.268 837.321 679.333 838.655C681.399 839.989 683.808 840.656 686.562 840.656C689.919 840.656 692.608 839.645 694.631 837.622C696.696 835.643 697.729 832.846 697.729 829.231V821.098C696.567 823.422 694.846 825.315 692.565 826.779C690.328 828.199 687.703 828.909 684.69 828.909C681.506 828.909 678.623 828.134 676.041 826.585C673.502 824.993 671.48 822.798 669.974 820.001C668.511 817.161 667.779 813.955 667.779 810.384C667.779 806.812 668.511 803.671 669.974 800.96C671.48 798.206 673.502 796.076 676.041 794.57C678.623 793.064 681.506 792.31 684.69 792.31ZM685.723 797.41C683.615 797.41 681.635 797.926 679.785 798.959C677.978 799.992 676.515 801.498 675.396 803.477C674.32 805.413 673.782 807.716 673.782 810.384C673.782 813.052 674.32 815.418 675.396 817.484C676.515 819.506 677.978 821.077 679.785 822.196C681.635 823.314 683.615 823.874 685.723 823.874C687.875 823.874 689.854 823.336 691.662 822.26C693.512 821.184 694.975 819.657 696.051 817.677C697.17 815.655 697.729 813.31 697.729 810.642C697.729 807.974 697.17 805.65 696.051 803.671C694.975 801.648 693.512 800.099 691.662 799.023C689.854 797.948 687.875 797.41 685.723 797.41ZM747.283 797.668H739.86V828.328H733.922V797.668H729.339V792.891H733.922V789.922C733.922 786.049 734.955 783.231 737.02 781.467C739.086 779.702 742.335 778.82 746.767 778.82V783.597C744.185 783.597 742.378 784.091 741.345 785.081C740.355 786.028 739.86 787.642 739.86 789.922V792.891H747.283V797.668ZM769.557 792.31C772.913 792.31 775.947 793.064 778.658 794.57C781.369 796.076 783.499 798.227 785.048 801.024C786.64 803.821 787.437 807.027 787.437 810.642C787.437 814.213 786.619 817.398 784.984 820.195C783.349 822.949 781.132 825.1 778.335 826.649C775.538 828.156 772.44 828.909 769.041 828.909C765.727 828.909 762.737 828.156 760.069 826.649C757.444 825.143 755.378 823.013 753.872 820.259C752.409 817.462 751.678 814.256 751.678 810.642C751.678 806.984 752.452 803.778 754.001 801.024C755.593 798.227 757.745 796.076 760.456 794.57C763.167 793.064 766.201 792.31 769.557 792.31ZM769.363 797.151C767.212 797.151 765.254 797.668 763.49 798.701C761.725 799.733 760.305 801.261 759.23 803.283C758.197 805.306 757.68 807.759 757.68 810.642C757.68 813.482 758.175 815.913 759.165 817.936C760.198 819.958 761.575 821.486 763.296 822.518C765.017 823.551 766.932 824.068 769.041 824.068C771.192 824.068 773.193 823.551 775.044 822.518C776.937 821.443 778.465 819.894 779.626 817.871C780.788 815.849 781.369 813.439 781.369 810.642C781.369 807.802 780.81 805.37 779.691 803.348C778.615 801.282 777.152 799.733 775.302 798.701C773.494 797.668 771.515 797.151 769.363 797.151ZM800.658 798.894C802.767 794.505 806.36 792.31 811.437 792.31V798.442H809.888C806.876 798.442 804.574 799.238 802.982 800.831C801.433 802.38 800.658 805.091 800.658 808.964V828.328H794.784V792.891H800.658V798.894ZM840.288 792.891L851.132 821.55L862.169 792.891H868.237L846.872 844.916H840.804L847.84 827.747L833.833 792.891H840.288ZM889.385 792.31C892.741 792.31 895.775 793.064 898.486 794.57C901.197 796.076 903.327 798.227 904.876 801.024C906.468 803.821 907.264 807.027 907.264 810.642C907.264 814.213 906.447 817.398 904.812 820.195C903.176 822.949 900.96 825.1 898.163 826.649C895.366 828.156 892.268 828.909 888.868 828.909C885.555 828.909 882.564 828.156 879.896 826.649C877.272 825.143 875.206 823.013 873.7 820.259C872.237 817.462 871.505 814.256 871.505 810.642C871.505 806.984 872.28 803.778 873.829 801.024C875.421 798.227 877.573 796.076 880.284 794.57C882.995 793.064 886.028 792.31 889.385 792.31ZM889.191 797.151C887.04 797.151 885.082 797.668 883.317 798.701C881.553 799.733 880.133 801.261 879.057 803.283C878.025 805.306 877.508 807.759 877.508 810.642C877.508 813.482 878.003 815.913 878.993 817.936C880.026 819.958 881.403 821.486 883.124 822.518C884.845 823.551 886.76 824.068 888.868 824.068C891.02 824.068 893.021 823.551 894.871 822.518C896.765 821.443 898.292 819.894 899.454 817.871C900.616 815.849 901.197 813.439 901.197 810.642C901.197 807.802 900.638 805.37 899.519 803.348C898.443 801.282 896.98 799.733 895.13 798.701C893.322 797.668 891.343 797.151 889.191 797.151ZM945.466 792.891V828.328H939.592V822.648C938.43 824.713 936.838 826.284 934.815 827.359C932.793 828.392 930.534 828.909 928.038 828.909C925.499 828.909 923.175 828.349 921.067 827.23C919.001 826.068 917.345 824.369 916.097 822.131C914.892 819.894 914.289 817.161 914.289 813.934V792.891H920.099V812.965C920.099 816.494 920.959 819.205 922.681 821.098C924.445 822.949 926.833 823.874 929.845 823.874C932.857 823.874 935.224 822.949 936.945 821.098C938.71 819.205 939.592 816.494 939.592 812.965V792.891H945.466ZM961.017 798.894C963.125 794.505 966.718 792.31 971.796 792.31V798.442H970.247C967.235 798.442 964.933 799.238 963.34 800.831C961.791 802.38 961.017 805.091 961.017 808.964V828.328H955.143V792.891H961.017V798.894ZM1017.24 792.31C1020.42 792.31 1023.28 793.064 1025.82 794.57C1028.4 796.076 1030.42 798.206 1031.89 800.96C1033.39 803.671 1034.15 806.812 1034.15 810.384C1034.15 813.955 1033.39 817.161 1031.89 820.001C1030.42 822.798 1028.4 824.993 1025.82 826.585C1023.28 828.134 1020.42 828.909 1017.24 828.909C1014.22 828.909 1011.58 828.199 1009.3 826.779C1007.06 825.315 1005.34 823.422 1004.13 821.098V828.328H998.258V780.563H1004.13V799.992C1005.34 797.711 1007.06 795.861 1009.3 794.441C1011.58 793.02 1014.22 792.31 1017.24 792.31ZM1016.07 797.41C1013.96 797.41 1011.99 797.948 1010.14 799.023C1008.33 800.099 1006.86 801.648 1005.75 803.671C1004.67 805.65 1004.13 807.974 1004.13 810.642C1004.13 813.31 1004.67 815.655 1005.75 817.677C1006.86 819.657 1008.33 821.184 1010.14 822.26C1011.99 823.336 1013.96 823.874 1016.07 823.874C1018.18 823.874 1020.16 823.336 1022.01 822.26C1023.86 821.141 1025.33 819.549 1026.4 817.484C1027.52 815.418 1028.08 813.052 1028.08 810.384C1028.08 807.716 1027.52 805.413 1026.4 803.477C1025.33 801.498 1023.86 799.992 1022.01 798.959C1020.2 797.926 1018.22 797.41 1016.07 797.41ZM1072.35 792.891V828.328H1066.48V822.648C1065.32 824.713 1063.73 826.284 1061.7 827.359C1059.68 828.392 1057.42 828.909 1054.93 828.909C1052.39 828.909 1050.06 828.349 1047.95 827.23C1045.89 826.068 1044.23 824.369 1042.98 822.131C1041.78 819.894 1041.18 817.161 1041.18 813.934V792.891H1046.99V812.965C1046.99 816.494 1047.85 819.205 1049.57 821.098C1051.33 822.949 1053.72 823.874 1056.73 823.874C1059.74 823.874 1062.11 822.949 1063.83 821.098C1065.6 819.205 1066.48 816.494 1066.48 812.965V792.891H1072.35ZM1094.23 792.31C1098.06 792.31 1101.09 793.322 1103.33 795.344C1105.57 797.324 1106.8 800.056 1107.01 803.542H1100.94C1100.86 801.562 1100.19 799.97 1098.94 798.765C1097.69 797.56 1095.97 796.958 1093.78 796.958C1091.54 796.958 1089.78 797.496 1088.49 798.572C1087.24 799.604 1086.61 800.917 1086.61 802.509C1086.61 803.843 1087 804.919 1087.78 805.736C1088.59 806.511 1089.58 807.092 1090.74 807.479C1091.95 807.866 1093.56 808.275 1095.59 808.705C1098.17 809.308 1100.23 809.91 1101.78 810.513C1103.37 811.072 1104.73 812.04 1105.85 813.417C1106.97 814.751 1107.53 816.58 1107.53 818.904C1107.53 820.84 1106.97 822.583 1105.85 824.132C1104.73 825.638 1103.16 826.822 1101.14 827.682C1099.11 828.5 1096.79 828.909 1094.17 828.909C1090.21 828.909 1087.02 827.919 1084.61 825.939C1082.25 823.96 1080.95 821.227 1080.74 817.742H1086.81C1086.89 819.721 1087.58 821.314 1088.87 822.518C1090.21 823.68 1091.97 824.261 1094.17 824.261C1096.58 824.261 1098.43 823.766 1099.72 822.777C1101.05 821.787 1101.72 820.474 1101.72 818.839C1101.72 817.505 1101.31 816.451 1100.49 815.676C1099.72 814.859 1098.73 814.256 1097.52 813.869C1096.32 813.439 1094.66 812.987 1092.55 812.514C1090.01 811.954 1087.95 811.395 1086.36 810.835C1084.81 810.233 1083.47 809.308 1082.35 808.06C1081.28 806.812 1080.74 805.091 1080.74 802.896C1080.74 800.96 1081.28 799.195 1082.35 797.603C1083.47 795.968 1085.04 794.677 1087.07 793.73C1089.13 792.784 1091.52 792.31 1094.23 792.31ZM1115.04 783.209C1115.04 782.091 1115.43 781.144 1116.2 780.369C1116.97 779.595 1117.9 779.207 1118.98 779.207C1120.09 779.207 1121.04 779.595 1121.82 780.369C1122.59 781.144 1122.98 782.091 1122.98 783.209C1122.98 784.328 1122.59 785.275 1121.82 786.049C1121.04 786.824 1120.09 787.211 1118.98 787.211C1117.86 787.211 1116.91 786.824 1116.14 786.049C1115.4 785.275 1115.04 784.328 1115.04 783.209ZM1121.88 792.891V828.328H1116.01V792.891H1121.88ZM1149 792.31C1151.54 792.31 1153.84 792.891 1155.91 794.053C1158.02 795.172 1159.67 796.872 1160.88 799.152C1162.13 801.39 1162.75 804.123 1162.75 807.35V828.328H1156.94V808.318C1156.94 804.746 1156.08 802.036 1154.36 800.185C1152.64 798.335 1150.25 797.41 1147.2 797.41C1144.18 797.41 1141.8 798.335 1140.03 800.185C1138.31 802.036 1137.45 804.746 1137.45 808.318V828.328H1131.58V792.891H1137.45V798.636C1138.61 796.571 1140.2 795 1142.23 793.924C1144.25 792.848 1146.51 792.31 1149 792.31ZM1204.25 809.157C1204.25 810.405 1204.16 811.567 1203.99 812.643H1175.79C1175.96 816.171 1177.05 818.968 1179.08 821.034C1181.14 823.056 1183.77 824.068 1186.95 824.068C1189.36 824.068 1191.38 823.53 1193.02 822.454C1194.7 821.378 1195.92 819.958 1196.7 818.194H1203.02C1201.91 821.292 1199.97 823.852 1197.22 825.875C1194.5 827.897 1191.08 828.909 1186.95 828.909C1183.64 828.909 1180.67 828.156 1178.04 826.649C1175.46 825.143 1173.44 823.013 1171.98 820.259C1170.51 817.462 1169.78 814.256 1169.78 810.642C1169.78 806.984 1170.51 803.778 1171.98 801.024C1173.44 798.227 1175.51 796.076 1178.17 794.57C1180.84 793.064 1183.92 792.31 1187.4 792.31C1190.72 792.31 1193.64 793.042 1196.18 794.505C1198.72 795.968 1200.7 797.969 1202.12 800.508C1203.54 803.047 1204.25 805.93 1204.25 809.157ZM1198.12 808.383C1198.12 806.102 1197.62 804.123 1196.63 802.444C1195.64 800.723 1194.29 799.411 1192.57 798.507C1190.89 797.603 1189.02 797.151 1186.95 797.151C1183.9 797.151 1181.34 798.163 1179.27 800.185C1177.21 802.165 1176.07 804.897 1175.85 808.383H1198.12ZM1223.77 792.31C1227.59 792.31 1230.63 793.322 1232.87 795.344C1235.1 797.324 1236.33 800.056 1236.55 803.542H1230.48C1230.39 801.562 1229.72 799.97 1228.48 798.765C1227.23 797.56 1225.51 796.958 1223.31 796.958C1221.08 796.958 1219.31 797.496 1218.02 798.572C1216.77 799.604 1216.15 800.917 1216.15 802.509C1216.15 803.843 1216.54 804.919 1217.31 805.736C1218.13 806.511 1219.12 807.092 1220.28 807.479C1221.48 807.866 1223.1 808.275 1225.12 808.705C1227.7 809.308 1229.77 809.91 1231.32 810.513C1232.91 811.072 1234.26 812.04 1235.38 813.417C1236.5 814.751 1237.06 816.58 1237.06 818.904C1237.06 820.84 1236.5 822.583 1235.38 824.132C1234.26 825.638 1232.69 826.822 1230.67 827.682C1228.65 828.5 1226.33 828.909 1223.7 828.909C1219.74 828.909 1216.56 827.919 1214.15 825.939C1211.78 823.96 1210.49 821.227 1210.27 817.742H1216.34C1216.43 819.721 1217.12 821.314 1218.41 822.518C1219.74 823.68 1221.51 824.261 1223.7 824.261C1226.11 824.261 1227.96 823.766 1229.25 822.777C1230.59 821.787 1231.25 820.474 1231.25 818.839C1231.25 817.505 1230.84 816.451 1230.03 815.676C1229.25 814.859 1228.26 814.256 1227.06 813.869C1225.85 813.439 1224.2 812.987 1222.09 812.514C1219.55 811.954 1217.48 811.395 1215.89 810.835C1214.34 810.233 1213.01 809.308 1211.89 808.06C1210.81 806.812 1210.27 805.091 1210.27 802.896C1210.27 800.96 1210.81 799.195 1211.89 797.603C1213.01 795.968 1214.58 794.677 1216.6 793.73C1218.67 792.784 1221.05 792.31 1223.77 792.31ZM1257.74 792.31C1261.57 792.31 1264.6 793.322 1266.84 795.344C1269.08 797.324 1270.31 800.056 1270.52 803.542H1264.45C1264.37 801.562 1263.7 799.97 1262.45 798.765C1261.2 797.56 1259.48 796.958 1257.29 796.958C1255.05 796.958 1253.29 797.496 1252 798.572C1250.75 799.604 1250.12 800.917 1250.12 802.509C1250.12 803.843 1250.51 804.919 1251.29 805.736C1252.1 806.511 1253.09 807.092 1254.25 807.479C1255.46 807.866 1257.07 808.275 1259.1 808.705C1261.68 809.308 1263.74 809.91 1265.29 810.513C1266.88 811.072 1268.24 812.04 1269.36 813.417C1270.48 814.751 1271.04 816.58 1271.04 818.904C1271.04 820.84 1270.48 822.583 1269.36 824.132C1268.24 825.638 1266.67 826.822 1264.65 827.682C1262.62 828.5 1260.3 828.909 1257.68 828.909C1253.72 828.909 1250.53 827.919 1248.12 825.939C1245.76 823.96 1244.47 821.227 1244.25 817.742H1250.32C1250.4 819.721 1251.09 821.314 1252.38 822.518C1253.72 823.68 1255.48 824.261 1257.68 824.261C1260.09 824.261 1261.94 823.766 1263.23 822.777C1264.56 821.787 1265.23 820.474 1265.23 818.839C1265.23 817.505 1264.82 816.451 1264 815.676C1263.23 814.859 1262.24 814.256 1261.03 813.869C1259.83 813.439 1258.17 812.987 1256.06 812.514C1253.52 811.954 1251.46 811.395 1249.87 810.835C1248.32 810.233 1246.98 809.308 1245.86 808.06C1244.79 806.812 1244.25 805.091 1244.25 802.896C1244.25 800.96 1244.79 799.195 1245.86 797.603C1246.98 795.968 1248.55 794.677 1250.58 793.73C1252.64 792.784 1255.03 792.31 1257.74 792.31ZM3.87281 888.209C3.87281 887.091 4.2601 886.144 5.03466 885.369C5.80922 884.595 6.73439 884.207 7.81018 884.207C8.92899 884.207 9.87568 884.595 10.6502 885.369C11.4248 886.144 11.8121 887.091 11.8121 888.209C11.8121 889.328 11.4248 890.275 10.6502 891.049C9.87568 891.824 8.92899 892.211 7.81018 892.211C6.69136 892.211 5.74468 891.824 4.97011 891.049C4.23858 890.275 3.87281 889.328 3.87281 888.209ZM10.7148 897.891V933.328H4.84102V897.891H10.7148ZM32.6098 897.31C36.4396 897.31 39.4733 898.322 41.7109 900.344C43.9485 902.324 45.1749 905.056 45.3901 908.542H39.3227C39.2366 906.562 38.5696 904.97 37.3217 903.765C36.0738 902.56 34.3526 901.958 32.158 901.958C29.9204 901.958 28.1561 902.496 26.8651 903.572C25.6172 904.604 24.9933 905.917 24.9933 907.509C24.9933 908.843 25.3806 909.919 26.1551 910.736C26.9727 911.511 27.9624 912.092 29.1243 912.479C30.3291 912.866 31.9428 913.275 33.9653 913.705C36.5472 914.308 38.6127 914.91 40.1618 915.513C41.754 916.072 43.1094 917.04 44.2283 918.417C45.3471 919.751 45.9065 921.58 45.9065 923.904C45.9065 925.84 45.3471 927.583 44.2283 929.132C43.1094 930.638 41.5388 931.822 39.5163 932.682C37.4939 933.5 35.1702 933.909 32.5453 933.909C28.5864 933.909 25.4021 932.919 22.9923 930.939C20.6256 928.96 19.3347 926.227 19.1195 922.742H25.1869C25.273 924.721 25.9615 926.314 27.2524 927.518C28.5864 928.68 30.3507 929.261 32.5453 929.261C34.955 929.261 36.8054 928.766 38.0963 927.777C39.4303 926.787 40.0973 925.474 40.0973 923.839C40.0973 922.505 39.6885 921.451 38.8709 920.676C38.0963 919.859 37.1066 919.256 35.9017 918.869C34.6968 918.439 33.0401 917.987 30.9316 917.514C28.3927 916.954 26.3272 916.395 24.7351 915.835C23.186 915.233 21.852 914.308 20.7332 913.06C19.6574 911.812 19.1195 910.091 19.1195 907.896C19.1195 905.96 19.6574 904.195 20.7332 902.603C21.852 900.968 23.4226 899.677 25.4451 898.73C27.5106 897.784 29.8988 897.31 32.6098 897.31ZM90.1967 928.551V933.328H84.2584C81.2462 933.328 78.9441 932.596 77.3519 931.133C75.8028 929.67 75.0282 927.368 75.0282 924.227V902.668H70.4454V897.891H75.0282V889.113H80.9665V897.891H90.1322V902.668H80.9665V924.227C80.9665 925.819 81.2893 926.937 81.9347 927.583C82.5802 928.228 83.7205 928.551 85.3557 928.551H90.1967ZM114.109 897.31C116.648 897.31 118.95 897.891 121.016 899.053C123.124 900.172 124.781 901.872 125.986 904.152C127.234 906.39 127.858 909.123 127.858 912.35V933.328H122.049V913.318C122.049 909.746 121.188 907.036 119.467 905.185C117.746 903.335 115.357 902.41 112.302 902.41C109.29 902.41 106.902 903.335 105.137 905.185C103.416 907.036 102.555 909.746 102.555 913.318V933.328H96.6817V885.563H102.555V903.636C103.717 901.571 105.309 900 107.332 898.924C109.354 897.848 111.614 897.31 114.109 897.31ZM169.357 914.157C169.357 915.405 169.271 916.567 169.099 917.643H140.892C141.064 921.171 142.161 923.968 144.184 926.034C146.249 928.056 148.874 929.068 152.058 929.068C154.468 929.068 156.491 928.53 158.126 927.454C159.804 926.378 161.03 924.958 161.805 923.194H168.131C167.012 926.292 165.075 928.852 162.321 930.875C159.61 932.897 156.189 933.909 152.058 933.909C148.745 933.909 145.776 933.156 143.151 931.649C140.569 930.143 138.547 928.013 137.084 925.259C135.62 922.462 134.889 919.256 134.889 915.642C134.889 911.984 135.62 908.778 137.084 906.024C138.547 903.227 140.612 901.076 143.28 899.57C145.948 898.064 149.025 897.31 152.51 897.31C155.824 897.31 158.75 898.042 161.289 899.505C163.827 900.968 165.807 902.969 167.227 905.508C168.647 908.047 169.357 910.93 169.357 914.157ZM163.225 913.383C163.225 911.102 162.73 909.123 161.74 907.444C160.751 905.723 159.395 904.411 157.674 903.507C155.996 902.603 154.124 902.151 152.058 902.151C149.003 902.151 146.443 903.163 144.377 905.185C142.312 907.165 141.171 909.897 140.956 913.383H163.225ZM213.451 897.31C215.99 897.31 218.292 897.891 220.358 899.053C222.466 900.172 224.123 901.872 225.328 904.152C226.576 906.39 227.2 909.123 227.2 912.35V933.328H221.39V913.318C221.39 909.746 220.53 907.036 218.808 905.185C217.087 903.335 214.699 902.41 211.644 902.41C208.632 902.41 206.243 903.335 204.479 905.185C202.758 907.036 201.897 909.746 201.897 913.318V933.328H196.023V885.563H201.897V903.636C203.059 901.571 204.651 900 206.674 898.924C208.696 897.848 210.955 897.31 213.451 897.31ZM251.142 897.31C254.154 897.31 256.779 898.02 259.017 899.441C261.297 900.861 263.019 902.711 264.18 904.992V897.891H270.119V933.328H264.18V926.098C263.019 928.422 261.297 930.315 259.017 931.779C256.779 933.199 254.154 933.909 251.142 933.909C247.958 933.909 245.075 933.134 242.493 931.585C239.954 929.993 237.931 927.798 236.425 925.001C234.962 922.161 234.231 918.955 234.231 915.384C234.231 911.812 234.962 908.671 236.425 905.96C237.931 903.206 239.954 901.076 242.493 899.57C245.075 898.064 247.958 897.31 251.142 897.31ZM252.175 902.41C250.066 902.41 248.087 902.926 246.236 903.959C244.429 904.992 242.966 906.498 241.847 908.477C240.771 910.413 240.234 912.716 240.234 915.384C240.234 918.052 240.771 920.418 241.847 922.484C242.966 924.506 244.429 926.077 246.236 927.196C248.087 928.314 250.066 928.874 252.175 928.874C254.326 928.874 256.306 928.336 258.113 927.26C259.963 926.184 261.426 924.657 262.502 922.677C263.621 920.655 264.18 918.31 264.18 915.642C264.18 912.974 263.621 910.65 262.502 908.671C261.426 906.648 259.963 905.099 258.113 904.023C256.306 902.948 254.326 902.41 252.175 902.41ZM285.67 903.894C287.778 899.505 291.371 897.31 296.449 897.31V903.442H294.9C291.888 903.442 289.585 904.238 287.993 905.831C286.444 907.38 285.67 910.091 285.67 913.964V933.328H279.796V897.891H285.67V903.894ZM318.147 897.31C321.159 897.31 323.784 898.02 326.022 899.441C328.303 900.861 330.024 902.711 331.186 904.992V885.563H337.124V933.328H331.186V926.098C330.024 928.422 328.303 930.315 326.022 931.779C323.784 933.199 321.159 933.909 318.147 933.909C314.963 933.909 312.08 933.134 309.498 931.585C306.959 929.993 304.937 927.798 303.43 925.001C301.967 922.161 301.236 918.955 301.236 915.384C301.236 911.812 301.967 908.671 303.43 905.96C304.937 903.206 306.959 901.076 309.498 899.57C312.08 898.064 314.963 897.31 318.147 897.31ZM319.18 902.41C317.071 902.41 315.092 902.926 313.242 903.959C311.434 904.992 309.971 906.498 308.852 908.477C307.777 910.413 307.239 912.716 307.239 915.384C307.239 918.052 307.777 920.418 308.852 922.484C309.971 924.506 311.434 926.077 313.242 927.196C315.092 928.314 317.071 928.874 319.18 928.874C321.332 928.874 323.311 928.336 325.118 927.26C326.969 926.184 328.432 924.657 329.507 922.677C330.626 920.655 331.186 918.31 331.186 915.642C331.186 912.974 330.626 910.65 329.507 908.671C328.432 906.648 326.969 905.099 325.118 904.023C323.311 902.948 321.332 902.41 319.18 902.41ZM378.945 914.157C378.945 915.405 378.859 916.567 378.687 917.643H350.48C350.652 921.171 351.75 923.968 353.772 926.034C355.838 928.056 358.462 929.068 361.647 929.068C364.057 929.068 366.079 928.53 367.714 927.454C369.392 926.378 370.619 924.958 371.393 923.194H377.719C376.6 926.292 374.664 928.852 371.91 930.875C369.199 932.897 365.778 933.909 361.647 933.909C358.333 933.909 355.364 933.156 352.739 931.649C350.157 930.143 348.135 928.013 346.672 925.259C345.209 922.462 344.477 919.256 344.477 915.642C344.477 911.984 345.209 908.778 346.672 906.024C348.135 903.227 350.2 901.076 352.868 899.57C355.536 898.064 358.613 897.31 362.099 897.31C365.412 897.31 368.338 898.042 370.877 899.505C373.416 900.968 375.395 902.969 376.815 905.508C378.235 908.047 378.945 910.93 378.945 914.157ZM372.813 913.383C372.813 911.102 372.319 909.123 371.329 907.444C370.339 905.723 368.984 904.411 367.262 903.507C365.584 902.603 363.712 902.151 361.647 902.151C358.592 902.151 356.031 903.163 353.966 905.185C351.9 907.165 350.76 909.897 350.545 913.383H372.813ZM398.46 897.31C402.289 897.31 405.323 898.322 407.561 900.344C409.798 902.324 411.025 905.056 411.24 908.542H405.173C405.087 906.562 404.42 904.97 403.172 903.765C401.924 902.56 400.202 901.958 398.008 901.958C395.77 901.958 394.006 902.496 392.715 903.572C391.467 904.604 390.843 905.917 390.843 907.509C390.843 908.843 391.23 909.919 392.005 910.736C392.823 911.511 393.812 912.092 394.974 912.479C396.179 912.866 397.793 913.275 399.815 913.705C402.397 914.308 404.463 914.91 406.012 915.513C407.604 916.072 408.959 917.04 410.078 918.417C411.197 919.751 411.756 921.58 411.756 923.904C411.756 925.84 411.197 927.583 410.078 929.132C408.959 930.638 407.389 931.822 405.366 932.682C403.344 933.5 401.02 933.909 398.395 933.909C394.436 933.909 391.252 932.919 388.842 930.939C386.475 928.96 385.185 926.227 384.969 922.742H391.037C391.123 924.721 391.811 926.314 393.102 927.518C394.436 928.68 396.201 929.261 398.395 929.261C400.805 929.261 402.655 928.766 403.946 927.777C405.28 926.787 405.947 925.474 405.947 923.839C405.947 922.505 405.538 921.451 404.721 920.676C403.946 919.859 402.956 919.256 401.752 918.869C400.547 918.439 398.89 917.987 396.781 917.514C394.243 916.954 392.177 916.395 390.585 915.835C389.036 915.233 387.702 914.308 386.583 913.06C385.507 911.812 384.969 910.091 384.969 907.896C384.969 905.96 385.507 904.195 386.583 902.603C387.702 900.968 389.273 899.677 391.295 898.73C393.36 897.784 395.749 897.31 398.46 897.31ZM436.695 928.551V933.328H430.757C427.745 933.328 425.442 932.596 423.85 931.133C422.301 929.67 421.527 927.368 421.527 924.227V902.668H416.944V897.891H421.527V889.113H427.465V897.891H436.631V902.668H427.465V924.227C427.465 925.819 427.788 926.937 428.433 927.583C429.079 928.228 430.219 928.551 431.854 928.551H436.695ZM481.508 897.31C484.693 897.31 487.554 898.064 490.093 899.57C492.675 901.076 494.697 903.206 496.161 905.96C497.667 908.671 498.42 911.812 498.42 915.384C498.42 918.955 497.667 922.161 496.161 925.001C494.697 927.798 492.675 929.993 490.093 931.585C487.554 933.134 484.693 933.909 481.508 933.909C478.496 933.909 475.85 933.199 473.569 931.779C471.331 930.315 469.61 928.422 468.405 926.098V950.11H462.532V897.891H468.405V904.992C469.61 902.711 471.331 900.861 473.569 899.441C475.85 898.02 478.496 897.31 481.508 897.31ZM480.347 902.41C478.238 902.41 476.259 902.948 474.408 904.023C472.601 905.099 471.138 906.648 470.019 908.671C468.943 910.65 468.405 912.974 468.405 915.642C468.405 918.31 468.943 920.655 470.019 922.677C471.138 924.657 472.601 926.184 474.408 927.26C476.259 928.336 478.238 928.874 480.347 928.874C482.455 928.874 484.434 928.336 486.285 927.26C488.135 926.141 489.598 924.549 490.674 922.484C491.793 920.418 492.352 918.052 492.352 915.384C492.352 912.716 491.793 910.413 490.674 908.477C489.598 906.498 488.135 904.992 486.285 903.959C484.478 902.926 482.498 902.41 480.347 902.41ZM520.361 897.31C523.373 897.31 525.998 898.02 528.235 899.441C530.516 900.861 532.237 902.711 533.399 904.992V897.891H539.337V933.328H533.399V926.098C532.237 928.422 530.516 930.315 528.235 931.779C525.998 933.199 523.373 933.909 520.361 933.909C517.176 933.909 514.293 933.134 511.711 931.585C509.172 929.993 507.15 927.798 505.644 925.001C504.181 922.161 503.449 918.955 503.449 915.384C503.449 911.812 504.181 908.671 505.644 905.96C507.15 903.206 509.172 901.076 511.711 899.57C514.293 898.064 517.176 897.31 520.361 897.31ZM521.393 902.41C519.285 902.41 517.305 902.926 515.455 903.959C513.648 904.992 512.185 906.498 511.066 908.477C509.99 910.413 509.452 912.716 509.452 915.384C509.452 918.052 509.99 920.418 511.066 922.484C512.185 924.506 513.648 926.077 515.455 927.196C517.305 928.314 519.285 928.874 521.393 928.874C523.545 928.874 525.524 928.336 527.332 927.26C529.182 926.184 530.645 924.657 531.721 922.677C532.84 920.655 533.399 918.31 533.399 915.642C533.399 912.974 532.84 910.65 531.721 908.671C530.645 906.648 529.182 905.099 527.332 904.023C525.524 902.948 523.545 902.41 521.393 902.41ZM554.888 903.894C556.997 899.505 560.59 897.31 565.667 897.31V903.442H564.118C561.106 903.442 558.804 904.238 557.212 905.831C555.663 907.38 554.888 910.091 554.888 913.964V933.328H549.014V897.891H554.888V903.894ZM589.238 928.551V933.328H583.299C580.287 933.328 577.985 932.596 576.393 931.133C574.844 929.67 574.069 927.368 574.069 924.227V902.668H569.486V897.891H574.069V889.113H580.007V897.891H589.173V902.668H580.007V924.227C580.007 925.819 580.33 926.937 580.976 927.583C581.621 928.228 582.761 928.551 584.397 928.551H589.238ZM599.402 929.003C599.961 931.284 600.241 933.371 600.241 935.264C600.241 940.127 598.025 942.558 593.593 942.558V939.718C594.668 939.718 595.443 939.46 595.916 938.943C596.433 938.427 596.691 937.609 596.691 936.49V935.006H593.399V929.003H599.402ZM641.638 897.31C644.65 897.31 647.275 898.02 649.513 899.441C651.794 900.861 653.515 902.711 654.677 904.992V897.891H660.615V933.328H654.677V926.098C653.515 928.422 651.794 930.315 649.513 931.779C647.275 933.199 644.65 933.909 641.638 933.909C638.454 933.909 635.571 933.134 632.989 931.585C630.45 929.993 628.428 927.798 626.921 925.001C625.458 922.161 624.727 918.955 624.727 915.384C624.727 911.812 625.458 908.671 626.921 905.96C628.428 903.206 630.45 901.076 632.989 899.57C635.571 898.064 638.454 897.31 641.638 897.31ZM642.671 902.41C640.562 902.41 638.583 902.926 636.733 903.959C634.925 904.992 633.462 906.498 632.343 908.477C631.268 910.413 630.73 912.716 630.73 915.384C630.73 918.052 631.268 920.418 632.343 922.484C633.462 924.506 634.925 926.077 636.733 927.196C638.583 928.314 640.562 928.874 642.671 928.874C644.822 928.874 646.802 928.336 648.609 927.26C650.46 926.184 651.923 924.657 652.998 922.677C654.117 920.655 654.677 918.31 654.677 915.642C654.677 912.974 654.117 910.65 652.998 908.671C651.923 906.648 650.46 905.099 648.609 904.023C646.802 902.948 644.822 902.41 642.671 902.41ZM687.72 897.31C690.258 897.31 692.561 897.891 694.626 899.053C696.735 900.172 698.391 901.872 699.596 904.152C700.844 906.39 701.468 909.123 701.468 912.35V933.328H695.659V913.318C695.659 909.746 694.798 907.036 693.077 905.185C691.356 903.335 688.968 902.41 685.912 902.41C682.9 902.41 680.512 903.335 678.748 905.185C677.026 907.036 676.166 909.746 676.166 913.318V933.328H670.292V897.891H676.166V903.636C677.328 901.571 678.92 900 680.942 898.924C682.965 897.848 685.224 897.31 687.72 897.31ZM725.41 897.31C728.423 897.31 731.048 898.02 733.285 899.441C735.566 900.861 737.287 902.711 738.449 904.992V885.563H744.387V933.328H738.449V926.098C737.287 928.422 735.566 930.315 733.285 931.779C731.048 933.199 728.423 933.909 725.41 933.909C722.226 933.909 719.343 933.134 716.761 931.585C714.222 929.993 712.2 927.798 710.694 925.001C709.231 922.161 708.499 918.955 708.499 915.384C708.499 911.812 709.231 908.671 710.694 905.96C712.2 903.206 714.222 901.076 716.761 899.57C719.343 898.064 722.226 897.31 725.41 897.31ZM726.443 902.41C724.335 902.41 722.355 902.926 720.505 903.959C718.698 904.992 717.235 906.498 716.116 908.477C715.04 910.413 714.502 912.716 714.502 915.384C714.502 918.052 715.04 920.418 716.116 922.484C717.235 924.506 718.698 926.077 720.505 927.196C722.355 928.314 724.335 928.874 726.443 928.874C728.595 928.874 730.574 928.336 732.382 927.26C734.232 926.184 735.695 924.657 736.771 922.677C737.89 920.655 738.449 918.31 738.449 915.642C738.449 912.974 737.89 910.65 736.771 908.671C735.695 906.648 734.232 905.099 732.382 904.023C730.574 902.948 728.595 902.41 726.443 902.41ZM789.875 928.551V933.328H783.937C780.925 933.328 778.623 932.596 777.03 931.133C775.481 929.67 774.707 927.368 774.707 924.227V902.668H770.124V897.891H774.707V889.113H780.645V897.891H789.811V902.668H780.645V924.227C780.645 925.819 780.968 926.937 781.613 927.583C782.259 928.228 783.399 928.551 785.034 928.551H789.875ZM813.788 897.31C816.327 897.31 818.629 897.891 820.694 899.053C822.803 900.172 824.46 901.872 825.664 904.152C826.912 906.39 827.536 909.123 827.536 912.35V933.328H821.727V913.318C821.727 909.746 820.866 907.036 819.145 905.185C817.424 903.335 815.036 902.41 811.98 902.41C808.968 902.41 806.58 903.335 804.816 905.185C803.095 907.036 802.234 909.746 802.234 913.318V933.328H796.36V885.563H802.234V903.636C803.396 901.571 804.988 900 807.01 898.924C809.033 897.848 811.292 897.31 813.788 897.31ZM851.479 897.31C854.491 897.31 857.116 898.02 859.353 899.441C861.634 900.861 863.355 902.711 864.517 904.992V897.891H870.455V933.328H864.517V926.098C863.355 928.422 861.634 930.315 859.353 931.779C857.116 933.199 854.491 933.909 851.479 933.909C848.294 933.909 845.411 933.134 842.829 931.585C840.291 929.993 838.268 927.798 836.762 925.001C835.299 922.161 834.567 918.955 834.567 915.384C834.567 911.812 835.299 908.671 836.762 905.96C838.268 903.206 840.291 901.076 842.829 899.57C845.411 898.064 848.294 897.31 851.479 897.31ZM852.511 902.41C850.403 902.41 848.423 902.926 846.573 903.959C844.766 904.992 843.303 906.498 842.184 908.477C841.108 910.413 840.57 912.716 840.57 915.384C840.57 918.052 841.108 920.418 842.184 922.484C843.303 924.506 844.766 926.077 846.573 927.196C848.423 928.314 850.403 928.874 852.511 928.874C854.663 928.874 856.642 928.336 858.45 927.26C860.3 926.184 861.763 924.657 862.839 922.677C863.958 920.655 864.517 918.31 864.517 915.642C864.517 912.974 863.958 910.65 862.839 908.671C861.763 906.648 860.3 905.099 858.45 904.023C856.642 902.948 854.663 902.41 852.511 902.41ZM896.592 928.551V933.328H890.654C887.641 933.328 885.339 932.596 883.747 931.133C882.198 929.67 881.423 927.368 881.423 924.227V902.668H876.841V897.891H881.423V889.113H887.362V897.891H896.527V902.668H887.362V924.227C887.362 925.819 887.684 926.937 888.33 927.583C888.975 928.228 890.116 928.551 891.751 928.551H896.592ZM905.723 882.787C906.24 885.025 906.498 887.004 906.498 888.726C906.498 891.265 905.938 893.115 904.82 894.277C903.744 895.439 902.13 896.02 899.979 896.02V893.179C901.011 893.179 901.764 892.921 902.238 892.405C902.754 891.845 903.012 890.985 903.012 889.823V888.338H899.85V882.787H905.723ZM925.11 897.31C928.939 897.31 931.973 898.322 934.211 900.344C936.448 902.324 937.675 905.056 937.89 908.542H931.822C931.736 906.562 931.069 904.97 929.821 903.765C928.574 902.56 926.852 901.958 924.658 901.958C922.42 901.958 920.656 902.496 919.365 903.572C918.117 904.604 917.493 905.917 917.493 907.509C917.493 908.843 917.88 909.919 918.655 910.736C919.472 911.511 920.462 912.092 921.624 912.479C922.829 912.866 924.443 913.275 926.465 913.705C929.047 914.308 931.112 914.91 932.662 915.513C934.254 916.072 935.609 917.04 936.728 918.417C937.847 919.751 938.406 921.58 938.406 923.904C938.406 925.84 937.847 927.583 936.728 929.132C935.609 930.638 934.039 931.822 932.016 932.682C929.994 933.5 927.67 933.909 925.045 933.909C921.086 933.909 917.902 932.919 915.492 930.939C913.125 928.96 911.834 926.227 911.619 922.742H917.687C917.773 924.721 918.461 926.314 919.752 927.518C921.086 928.68 922.85 929.261 925.045 929.261C927.455 929.261 929.305 928.766 930.596 927.777C931.93 926.787 932.597 925.474 932.597 923.839C932.597 922.505 932.188 921.451 931.371 920.676C930.596 919.859 929.606 919.256 928.401 918.869C927.197 918.439 925.54 917.987 923.431 917.514C920.892 916.954 918.827 916.395 917.235 915.835C915.686 915.233 914.352 914.308 913.233 913.06C912.157 911.812 911.619 910.091 911.619 907.896C911.619 905.96 912.157 904.195 913.233 902.603C914.352 900.968 915.922 899.677 917.945 898.73C920.01 897.784 922.399 897.31 925.11 897.31ZM1012.78 897.891L1001.61 933.328H995.541L987.537 905.185L979.534 933.328H973.402L962.171 897.891H968.238L976.435 927.454L984.762 897.891H990.829L998.704 927.518L1006.84 897.891H1012.78ZM1035.79 897.31C1038.33 897.31 1040.63 897.891 1042.7 899.053C1044.81 900.172 1046.47 901.872 1047.67 904.152C1048.92 906.39 1049.54 909.123 1049.54 912.35V933.328H1043.73V913.318C1043.73 909.746 1042.87 907.036 1041.15 905.185C1039.43 903.335 1037.04 902.41 1033.99 902.41C1030.97 902.41 1028.59 903.335 1026.82 905.185C1025.1 907.036 1024.24 909.746 1024.24 913.318V933.328H1018.37V885.563H1024.24V903.636C1025.4 901.571 1026.99 900 1029.02 898.924C1031.04 897.848 1033.3 897.31 1035.79 897.31ZM1091.04 914.157C1091.04 915.405 1090.96 916.567 1090.78 917.643H1062.58C1062.75 921.171 1063.85 923.968 1065.87 926.034C1067.93 928.056 1070.56 929.068 1073.74 929.068C1076.15 929.068 1078.18 928.53 1079.81 927.454C1081.49 926.378 1082.71 924.958 1083.49 923.194H1089.82C1088.7 926.292 1086.76 928.852 1084.01 930.875C1081.29 932.897 1077.87 933.909 1073.74 933.909C1070.43 933.909 1067.46 933.156 1064.84 931.649C1062.25 930.143 1060.23 928.013 1058.77 925.259C1057.31 922.462 1056.57 919.256 1056.57 915.642C1056.57 911.984 1057.31 908.778 1058.77 906.024C1060.23 903.227 1062.3 901.076 1064.96 899.57C1067.63 898.064 1070.71 897.31 1074.19 897.31C1077.51 897.31 1080.43 898.042 1082.97 899.505C1085.51 900.968 1087.49 902.969 1088.91 905.508C1090.33 908.047 1091.04 910.93 1091.04 914.157ZM1084.91 913.383C1084.91 911.102 1084.41 909.123 1083.42 907.444C1082.44 905.723 1081.08 904.411 1079.36 903.507C1077.68 902.603 1075.81 902.151 1073.74 902.151C1070.69 902.151 1068.13 903.163 1066.06 905.185C1064 907.165 1062.86 909.897 1062.64 913.383H1084.91ZM1104.23 903.894C1106.34 899.505 1109.93 897.31 1115.01 897.31V903.442H1113.46C1110.45 903.442 1108.15 904.238 1106.55 905.831C1105 907.38 1104.23 910.091 1104.23 913.964V933.328H1098.36V897.891H1104.23V903.894ZM1154.26 914.157C1154.26 915.405 1154.18 916.567 1154.01 917.643H1125.8C1125.97 921.171 1127.07 923.968 1129.09 926.034C1131.16 928.056 1133.78 929.068 1136.97 929.068C1139.38 929.068 1141.4 928.53 1143.03 927.454C1144.71 926.378 1145.94 924.958 1146.71 923.194H1153.04C1151.92 926.292 1149.98 928.852 1147.23 930.875C1144.52 932.897 1141.1 933.909 1136.97 933.909C1133.65 933.909 1130.68 933.156 1128.06 931.649C1125.48 930.143 1123.45 928.013 1121.99 925.259C1120.53 922.462 1119.8 919.256 1119.8 915.642C1119.8 911.984 1120.53 908.778 1121.99 906.024C1123.45 903.227 1125.52 901.076 1128.19 899.57C1130.86 898.064 1133.93 897.31 1137.42 897.31C1140.73 897.31 1143.66 898.042 1146.2 899.505C1148.74 900.968 1150.71 902.969 1152.13 905.508C1153.55 908.047 1154.26 910.93 1154.26 914.157ZM1148.13 913.383C1148.13 911.102 1147.64 909.123 1146.65 907.444C1145.66 905.723 1144.3 904.411 1142.58 903.507C1140.9 902.603 1139.03 902.151 1136.97 902.151C1133.91 902.151 1131.35 903.163 1129.29 905.185C1127.22 907.165 1126.08 909.897 1125.86 913.383H1148.13ZM1227.47 897.891L1216.3 933.328H1210.24L1202.23 905.185L1194.23 933.328H1188.1L1176.86 897.891H1182.93L1191.13 927.454L1199.46 897.891H1205.52L1213.4 927.518L1221.53 897.891H1227.47ZM1265.2 914.157C1265.2 915.405 1265.12 916.567 1264.95 917.643H1236.74C1236.91 921.171 1238.01 923.968 1240.03 926.034C1242.1 928.056 1244.72 929.068 1247.91 929.068C1250.32 929.068 1252.34 928.53 1253.97 927.454C1255.65 926.378 1256.88 924.958 1257.65 923.194H1263.98C1262.86 926.292 1260.92 928.852 1258.17 930.875C1255.46 932.897 1252.04 933.909 1247.91 933.909C1244.59 933.909 1241.62 933.156 1239 931.649C1236.42 930.143 1234.39 928.013 1232.93 925.259C1231.47 922.462 1230.74 919.256 1230.74 915.642C1230.74 911.984 1231.47 908.778 1232.93 906.024C1234.39 903.227 1236.46 901.076 1239.13 899.57C1241.8 898.064 1244.87 897.31 1248.36 897.31C1251.67 897.31 1254.6 898.042 1257.14 899.505C1259.68 900.968 1261.65 902.969 1263.07 905.508C1264.49 908.047 1265.2 910.93 1265.2 914.157ZM1259.07 913.383C1259.07 911.102 1258.58 909.123 1257.59 907.444C1256.6 905.723 1255.24 904.411 1253.52 903.507C1251.84 902.603 1249.97 902.151 1247.91 902.151C1244.85 902.151 1242.29 903.163 1240.23 905.185C1238.16 907.165 1237.02 909.897 1236.8 913.383H1259.07ZM19.6868 1002.31C23.9469 1002.31 27.4109 1003.3 30.0789 1005.28C32.7898 1007.26 34.6832 1010.08 35.759 1013.74H29.4334C28.7449 1011.67 27.5615 1010.06 25.8833 1008.89C24.2051 1007.73 22.1396 1007.15 19.6868 1007.15C16.3304 1007.15 13.6194 1008.33 11.5539 1010.7C9.53143 1013.03 8.52019 1016.34 8.52019 1020.64C8.52019 1024.9 9.53143 1028.22 11.5539 1030.58C13.6194 1032.91 16.3304 1034.07 19.6868 1034.07C22.1826 1034.07 24.2481 1033.51 25.8833 1032.39C27.5185 1031.27 28.7019 1029.64 29.4334 1027.48H35.759C34.6832 1030.97 32.7683 1033.74 30.0143 1035.81C27.3033 1037.88 23.8608 1038.91 19.6868 1038.91C16.3734 1038.91 13.4042 1038.16 10.7793 1036.65C8.19746 1035.14 6.17499 1033.01 4.71193 1030.26C3.24886 1027.46 2.51733 1024.26 2.51733 1020.64C2.51733 1016.98 3.24886 1013.78 4.71193 1011.02C6.17499 1008.23 8.19746 1006.08 10.7793 1004.57C13.3612 1003.06 16.3304 1002.31 19.6868 1002.31ZM59.0998 1002.31C62.4562 1002.31 65.4899 1003.06 68.2009 1004.57C70.9118 1006.08 73.0419 1008.23 74.591 1011.02C76.1832 1013.82 76.9793 1017.03 76.9793 1020.64C76.9793 1024.21 76.1617 1027.4 74.5265 1030.19C72.8913 1032.95 70.6752 1035.1 67.8781 1036.65C65.0811 1038.16 61.9829 1038.91 58.5834 1038.91C55.27 1038.91 52.2793 1038.16 49.6114 1036.65C46.9865 1035.14 44.921 1033.01 43.4149 1030.26C41.9518 1027.46 41.2203 1024.26 41.2203 1020.64C41.2203 1016.98 41.9948 1013.78 43.544 1011.02C45.1361 1008.23 47.2877 1006.08 49.9986 1004.57C52.7096 1003.06 55.7433 1002.31 59.0998 1002.31ZM58.9061 1007.15C56.7546 1007.15 54.7966 1007.67 53.0324 1008.7C51.2681 1009.73 49.848 1011.26 48.7723 1013.28C47.7395 1015.31 47.2231 1017.76 47.2231 1020.64C47.2231 1023.48 47.718 1025.91 48.7077 1027.94C49.7405 1029.96 51.1175 1031.49 52.8387 1032.52C54.56 1033.55 56.4749 1034.07 58.5834 1034.07C60.7349 1034.07 62.7359 1033.55 64.5862 1032.52C66.4796 1031.44 68.0072 1029.89 69.1691 1027.87C70.3309 1025.85 70.9118 1023.44 70.9118 1020.64C70.9118 1017.8 70.3524 1015.37 69.2336 1013.35C68.1578 1011.28 66.6948 1009.73 64.8444 1008.7C63.0371 1007.67 61.0577 1007.15 58.9061 1007.15ZM126.928 1002.31C129.51 1002.31 131.855 1002.89 133.964 1004.05C136.072 1005.17 137.729 1006.87 138.934 1009.15C140.182 1011.39 140.806 1014.12 140.806 1017.35V1038.33H134.996V1018.32C134.996 1014.75 134.114 1012.04 132.35 1010.19C130.629 1008.33 128.262 1007.41 125.25 1007.41C122.238 1007.41 119.849 1008.33 118.085 1010.19C116.364 1012.04 115.503 1014.75 115.503 1018.32V1038.33H109.694V1018.32C109.694 1014.75 108.833 1012.04 107.112 1010.19C105.391 1008.33 103.003 1007.41 99.9474 1007.41C96.9352 1007.41 94.5469 1008.33 92.7827 1010.19C91.0614 1012.04 90.2008 1014.75 90.2008 1018.32V1038.33H84.327V1002.89H90.2008V1008.64C91.3626 1006.57 92.9548 1005 94.9773 1003.92C96.9997 1002.85 99.2589 1002.31 101.755 1002.31C104.466 1002.31 106.918 1002.98 109.113 1004.31C111.308 1005.6 112.964 1007.5 114.083 1009.99C115.374 1007.58 117.117 1005.71 119.311 1004.38C121.549 1003 124.088 1002.31 126.928 1002.31ZM182.279 1019.16C182.279 1020.41 182.193 1021.57 182.021 1022.64H153.814C153.986 1026.17 155.083 1028.97 157.106 1031.03C159.171 1033.06 161.796 1034.07 164.98 1034.07C167.39 1034.07 169.413 1033.53 171.048 1032.45C172.726 1031.38 173.952 1029.96 174.727 1028.19H181.053C179.934 1031.29 177.997 1033.85 175.243 1035.87C172.532 1037.9 169.111 1038.91 164.98 1038.91C161.667 1038.91 158.698 1038.16 156.073 1036.65C153.491 1035.14 151.469 1033.01 150.006 1030.26C148.542 1027.46 147.811 1024.26 147.811 1020.64C147.811 1016.98 148.542 1013.78 150.006 1011.02C151.469 1008.23 153.534 1006.08 156.202 1004.57C158.87 1003.06 161.947 1002.31 165.432 1002.31C168.746 1002.31 171.672 1003.04 174.211 1004.51C176.749 1005.97 178.729 1007.97 180.149 1010.51C181.569 1013.05 182.279 1015.93 182.279 1019.16ZM176.147 1018.38C176.147 1016.1 175.652 1014.12 174.662 1012.44C173.673 1010.72 172.317 1009.41 170.596 1008.51C168.918 1007.6 167.046 1007.15 164.98 1007.15C161.925 1007.15 159.365 1008.16 157.299 1010.19C155.234 1012.16 154.093 1014.9 153.878 1018.38H176.147ZM207.977 993.209C207.977 992.091 208.364 991.144 209.139 990.369C209.914 989.595 210.839 989.207 211.915 989.207C213.033 989.207 213.98 989.595 214.755 990.369C215.529 991.144 215.916 992.091 215.916 993.209C215.916 994.328 215.529 995.275 214.755 996.049C213.98 996.824 213.033 997.211 211.915 997.211C210.796 997.211 209.849 996.824 209.075 996.049C208.343 995.275 207.977 994.328 207.977 993.209ZM214.819 1002.89V1038.33H208.945V1002.89H214.819ZM241.942 1002.31C244.481 1002.31 246.784 1002.89 248.849 1004.05C250.958 1005.17 252.614 1006.87 253.819 1009.15C255.067 1011.39 255.691 1014.12 255.691 1017.35V1038.33H249.882V1018.32C249.882 1014.75 249.021 1012.04 247.3 1010.19C245.579 1008.33 243.19 1007.41 240.135 1007.41C237.123 1007.41 234.735 1008.33 232.97 1010.19C231.249 1012.04 230.389 1014.75 230.389 1018.32V1038.33H224.515V1002.89H230.389V1008.64C231.55 1006.57 233.143 1005 235.165 1003.92C237.188 1002.85 239.447 1002.31 241.942 1002.31ZM263.755 1034.58C263.755 1033.51 264.121 1032.6 264.852 1031.87C265.584 1031.14 266.466 1030.78 267.499 1030.78C268.531 1030.78 269.413 1031.14 270.145 1031.87C270.876 1032.6 271.242 1033.51 271.242 1034.58C271.242 1035.62 270.876 1036.5 270.145 1037.23C269.413 1037.96 268.531 1038.33 267.499 1038.33C266.466 1038.33 265.584 1037.96 264.852 1037.23C264.121 1036.5 263.755 1035.62 263.755 1034.58Z" fill="#A4A4A4"/>
</svg>
