<svg width="2056" height="2056" viewBox="0 0 2056 2056" fill="none" xmlns="http://www.w3.org/2000/svg">
<rect width="2056" height="2056" fill="url(#paint0_linear_595_226)"/>
<path d="M253.327 356.117H276.109V367H238.986V296.008H253.327V356.117ZM337.944 338.013C337.944 339.98 337.808 341.81 337.537 343.505H296.447C296.786 347.167 298.142 350.116 300.515 352.354C302.889 354.592 305.906 355.71 309.567 355.71C312.415 355.71 314.687 355.168 316.382 354.083C318.077 352.998 319.467 351.506 320.552 349.608H336.011C334.384 354.965 331.231 359.338 326.553 362.728C321.874 366.119 316.212 367.814 309.567 367.814C304.211 367.814 299.43 366.627 295.227 364.254C291.023 361.813 287.734 358.423 285.361 354.083C282.988 349.676 281.801 344.556 281.801 338.725C281.801 332.894 282.988 327.809 285.361 323.469C287.734 319.129 291.023 315.773 295.227 313.4C299.498 311.027 304.346 309.84 309.771 309.84C315.195 309.84 320.009 310.993 324.213 313.298C328.485 315.604 331.841 318.892 334.282 323.164C336.723 327.368 337.944 332.318 337.944 338.013ZM323.095 334.25C322.891 330.521 321.501 327.537 318.925 325.3C316.416 323.062 313.297 321.943 309.567 321.943C306.109 321.943 303.16 323.062 300.719 325.3C298.346 327.537 296.922 330.521 296.447 334.25H323.095ZM377.918 354.998V367H368.866C363.102 367 358.661 365.678 355.542 363.033C352.423 360.389 350.863 356.016 350.863 349.913V322.35H344.862V310.654H350.863V296.72H365.204V310.654H377.816V322.35H365.204V349.913C365.204 351.744 365.645 353.066 366.526 353.88C367.408 354.626 368.933 354.998 371.103 354.998H377.918ZM396.693 283.803C397.846 287.532 398.422 291.194 398.422 294.787C398.422 299.262 397.337 302.721 395.167 305.162C393.065 307.535 389.912 308.721 385.709 308.721V302.924C389.099 302.924 390.794 300.856 390.794 296.72V294.787H384.895V283.803H396.693ZM429.664 309.84C436.105 309.84 441.394 311.501 445.53 314.824C449.666 318.078 451.87 322.52 452.141 328.148H437.495C437.089 323.401 434.173 321.028 428.749 321.028C426.036 321.028 423.934 321.57 422.443 322.655C420.951 323.74 420.205 325.164 420.205 326.927C420.205 328.419 420.747 329.605 421.832 330.487C422.917 331.368 424.239 332.08 425.799 332.623C427.426 333.097 429.732 333.674 432.715 334.352C436.851 335.233 440.242 336.182 442.886 337.2C445.598 338.149 447.904 339.708 449.802 341.878C451.701 343.98 452.65 346.896 452.65 350.625C452.65 354.015 451.667 356.999 449.7 359.575C447.734 362.152 445.022 364.186 441.564 365.678C438.106 367.102 434.207 367.814 429.867 367.814C423.087 367.814 417.561 366.254 413.289 363.135C409.017 359.948 406.678 355.405 406.271 349.506H420.917C421.188 351.812 422.104 353.575 423.663 354.795C425.223 356.016 427.325 356.626 429.969 356.626C432.613 356.626 434.749 356.049 436.377 354.897C438.004 353.676 438.818 352.151 438.818 350.32C438.818 348.828 438.275 347.642 437.19 346.76C436.105 345.811 434.749 345.099 433.122 344.624C431.495 344.082 429.155 343.472 426.104 342.793C421.968 341.912 418.578 340.997 415.933 340.047C413.357 339.098 411.119 337.606 409.221 335.572C407.322 333.47 406.373 330.656 406.373 327.13C406.373 324.011 407.288 321.13 409.119 318.485C410.95 315.841 413.628 313.739 417.154 312.179C420.68 310.62 424.85 309.84 429.664 309.84ZM533.686 330.69C538.364 331.368 542.094 333.402 544.874 336.793C547.721 340.115 549.145 343.98 549.145 348.387C549.145 352.049 548.196 355.304 546.298 358.151C544.467 360.931 541.789 363.101 538.263 364.661C534.737 366.22 530.567 367 525.753 367H495.342V296.008H524.125C528.939 296.008 533.109 296.821 536.635 298.449C540.229 300.076 542.941 302.314 544.772 305.162C546.603 308.009 547.518 311.196 547.518 314.722C547.518 318.723 546.298 322.079 543.857 324.791C541.483 327.436 538.093 329.402 533.686 330.69ZM509.683 325.401H522.6C525.786 325.401 528.295 324.622 530.126 323.062C532.025 321.435 532.974 319.163 532.974 316.248C532.974 313.332 532.025 311.061 530.126 309.433C528.295 307.806 525.786 306.992 522.6 306.992H509.683V325.401ZM524.125 356.016C527.312 356.016 529.855 355.168 531.753 353.473C533.72 351.71 534.703 349.303 534.703 346.252C534.703 343.2 533.72 340.793 531.753 339.03C529.787 337.267 527.21 336.386 524.024 336.386H509.683V356.016H524.125ZM586.715 309.84C592.072 309.84 596.954 311.027 601.361 313.4C605.769 315.773 609.261 319.163 611.837 323.571C614.414 327.91 615.702 332.962 615.702 338.725C615.702 344.489 614.414 349.574 611.837 353.981C609.261 358.389 605.735 361.813 601.26 364.254C596.852 366.627 591.936 367.814 586.512 367.814C581.155 367.814 576.273 366.627 571.866 364.254C567.459 361.813 563.967 358.389 561.39 353.981C558.881 349.574 557.627 344.489 557.627 338.725C557.627 332.962 558.915 327.91 561.492 323.571C564.068 319.163 567.56 315.773 571.968 313.4C576.375 311.027 581.291 309.84 586.715 309.84ZM586.614 321.943C582.545 321.943 579.121 323.401 576.341 326.317C573.561 329.232 572.171 333.402 572.171 338.827C572.171 342.488 572.815 345.607 574.104 348.184C575.46 350.693 577.223 352.591 579.392 353.88C581.562 355.1 583.935 355.71 586.512 355.71C589.021 355.71 591.394 355.066 593.632 353.778C595.869 352.49 597.666 350.591 599.022 348.082C600.446 345.506 601.158 342.421 601.158 338.827C601.158 335.165 600.48 332.08 599.124 329.571C597.768 326.995 595.971 325.096 593.733 323.876C591.563 322.587 589.19 321.943 586.614 321.943ZM652.269 309.84C657.626 309.84 662.508 311.027 666.915 313.4C671.323 315.773 674.815 319.163 677.391 323.571C679.968 327.91 681.256 332.962 681.256 338.725C681.256 344.489 679.968 349.574 677.391 353.981C674.815 358.389 671.289 361.813 666.814 364.254C662.406 366.627 657.49 367.814 652.066 367.814C646.709 367.814 641.827 366.627 637.42 364.254C633.013 361.813 629.521 358.389 626.944 353.981C624.435 349.574 623.181 344.489 623.181 338.725C623.181 332.962 624.469 327.91 627.046 323.571C629.622 319.163 633.114 315.773 637.522 313.4C641.929 311.027 646.845 309.84 652.269 309.84ZM652.168 321.943C648.099 321.943 644.675 323.401 641.895 326.317C639.115 329.232 637.725 333.402 637.725 338.827C637.725 342.488 638.369 345.607 639.658 348.184C641.014 350.693 642.777 352.591 644.946 353.88C647.116 355.1 649.489 355.71 652.066 355.71C654.575 355.71 656.948 355.066 659.186 353.778C661.423 352.49 663.22 350.591 664.576 348.082C666 345.506 666.712 342.421 666.712 338.827C666.712 335.165 666.034 332.08 664.678 329.571C663.322 326.995 661.525 325.096 659.287 323.876C657.117 322.587 654.744 321.943 652.168 321.943ZM712.738 309.84C719.179 309.84 724.468 311.501 728.604 314.824C732.741 318.078 734.944 322.52 735.215 328.148H720.569C720.163 323.401 717.247 321.028 711.823 321.028C709.11 321.028 707.008 321.57 705.517 322.655C704.025 323.74 703.279 325.164 703.279 326.927C703.279 328.419 703.822 329.605 704.906 330.487C705.991 331.368 707.314 332.08 708.873 332.623C710.5 333.097 712.806 333.674 715.789 334.352C719.925 335.233 723.316 336.182 725.96 337.2C728.672 338.149 730.978 339.708 732.876 341.878C734.775 343.98 735.724 346.896 735.724 350.625C735.724 354.015 734.741 356.999 732.774 359.575C730.808 362.152 728.096 364.186 724.638 365.678C721.18 367.102 717.281 367.814 712.941 367.814C706.161 367.814 700.635 366.254 696.363 363.135C692.091 359.948 689.752 355.405 689.345 349.506H703.991C704.262 351.812 705.178 353.575 706.737 354.795C708.297 356.016 710.399 356.626 713.043 356.626C715.688 356.626 717.823 356.049 719.451 354.897C721.078 353.676 721.892 352.151 721.892 350.32C721.892 348.828 721.349 347.642 720.264 346.76C719.179 345.811 717.823 345.099 716.196 344.624C714.569 344.082 712.229 343.472 709.178 342.793C705.042 341.912 701.652 340.997 699.007 340.047C696.431 339.098 694.193 337.606 692.295 335.572C690.396 333.47 689.447 330.656 689.447 327.13C689.447 324.011 690.362 321.13 692.193 318.485C694.024 315.841 696.702 313.739 700.228 312.179C703.754 310.62 707.924 309.84 712.738 309.84ZM776.605 354.998V367H767.553C761.79 367 757.348 365.678 754.229 363.033C751.11 360.389 749.551 356.016 749.551 349.913V322.35H743.55V310.654H749.551V296.72H763.892V310.654H776.503V322.35H763.892V349.913C763.892 351.744 764.332 353.066 765.214 353.88C766.095 354.626 767.621 354.998 769.791 354.998H776.605ZM827.399 310.654L841.739 350.727L856.894 310.654H871.845L836.654 393.648H821.703L833.399 365.983L811.329 310.654H827.399ZM905.447 309.84C910.803 309.84 915.685 311.027 920.093 313.4C924.5 315.773 927.992 319.163 930.569 323.571C933.145 327.91 934.434 332.962 934.434 338.725C934.434 344.489 933.145 349.574 930.569 353.981C927.992 358.389 924.466 361.813 919.991 364.254C915.584 366.627 910.668 367.814 905.243 367.814C899.887 367.814 895.005 366.627 890.597 364.254C886.19 361.813 882.698 358.389 880.122 353.981C877.613 349.574 876.358 344.489 876.358 338.725C876.358 332.962 877.647 327.91 880.223 323.571C882.8 319.163 886.292 315.773 890.699 313.4C895.107 311.027 900.022 309.84 905.447 309.84ZM905.345 321.943C901.277 321.943 897.853 323.401 895.073 326.317C892.293 329.232 890.903 333.402 890.903 338.827C890.903 342.488 891.547 345.607 892.835 348.184C894.191 350.693 895.954 352.591 898.124 353.88C900.294 355.1 902.667 355.71 905.243 355.71C907.752 355.71 910.125 355.066 912.363 353.778C914.601 352.49 916.397 350.591 917.754 348.082C919.177 345.506 919.889 342.421 919.889 338.827C919.889 335.165 919.211 332.08 917.855 329.571C916.499 326.995 914.702 325.096 912.465 323.876C910.295 322.587 907.922 321.943 905.345 321.943ZM998.971 310.654V367H984.63V358.457C982.867 361.44 980.46 363.745 977.408 365.373C974.425 366.932 970.967 367.712 967.034 367.712C962.898 367.712 959.169 366.797 955.846 364.966C952.592 363.067 950.015 360.321 948.117 356.727C946.218 353.066 945.269 348.726 945.269 343.709V310.654H959.508V341.675C959.508 346.082 960.627 349.472 962.864 351.846C965.102 354.219 968.153 355.405 972.018 355.405C975.883 355.405 978.934 354.219 981.172 351.846C983.477 349.472 984.63 346.082 984.63 341.675V310.654H998.971ZM1028.55 320.621C1030.32 317.231 1032.59 314.586 1035.37 312.688C1038.21 310.789 1041.44 309.84 1045.03 309.84V324.486H1041.47C1037.2 324.486 1033.98 325.571 1031.81 327.741C1029.64 329.843 1028.55 333.504 1028.55 338.725V367H1014.21V310.654H1028.55V320.621ZM1124.07 330.69C1128.75 331.368 1132.48 333.402 1135.26 336.793C1138.1 340.115 1139.53 343.98 1139.53 348.387C1139.53 352.049 1138.58 355.304 1136.68 358.151C1134.85 360.931 1132.17 363.101 1128.65 364.661C1125.12 366.22 1120.95 367 1116.14 367H1085.73V296.008H1114.51C1119.32 296.008 1123.49 296.821 1127.02 298.449C1130.61 300.076 1133.32 302.314 1135.16 305.162C1136.99 308.009 1137.9 311.196 1137.9 314.722C1137.9 318.723 1136.68 322.079 1134.24 324.791C1131.87 327.436 1128.48 329.402 1124.07 330.69ZM1100.07 325.401H1112.98C1116.17 325.401 1118.68 324.622 1120.51 323.062C1122.41 321.435 1123.36 319.163 1123.36 316.248C1123.36 313.332 1122.41 311.061 1120.51 309.433C1118.68 307.806 1116.17 306.992 1112.98 306.992H1100.07V325.401ZM1114.51 356.016C1117.7 356.016 1120.24 355.168 1122.14 353.473C1124.1 351.71 1125.09 349.303 1125.09 346.252C1125.09 343.2 1124.1 340.793 1122.14 339.03C1120.17 337.267 1117.59 336.386 1114.41 336.386H1100.07V356.016H1114.51ZM1205.07 310.654V367H1190.73V358.457C1188.96 361.44 1186.56 363.745 1183.51 365.373C1180.52 366.932 1177.06 367.712 1173.13 367.712C1169 367.712 1165.27 366.797 1161.94 364.966C1158.69 363.067 1156.11 360.321 1154.21 356.727C1152.32 353.066 1151.37 348.726 1151.37 343.709V310.654H1165.61V341.675C1165.61 346.082 1166.72 349.472 1168.96 351.846C1171.2 354.219 1174.25 355.405 1178.12 355.405C1181.98 355.405 1185.03 354.219 1187.27 351.846C1189.57 349.472 1190.73 346.082 1190.73 341.675V310.654H1205.07ZM1240.45 309.84C1246.89 309.84 1252.18 311.501 1256.31 314.824C1260.45 318.078 1262.65 322.52 1262.93 328.148H1248.28C1247.87 323.401 1244.96 321.028 1239.53 321.028C1236.82 321.028 1234.72 321.57 1233.23 322.655C1231.73 323.74 1230.99 325.164 1230.99 326.927C1230.99 328.419 1231.53 329.605 1232.62 330.487C1233.7 331.368 1235.02 332.08 1236.58 332.623C1238.21 333.097 1240.52 333.674 1243.5 334.352C1247.64 335.233 1251.03 336.182 1253.67 337.2C1256.38 338.149 1258.69 339.708 1260.59 341.878C1262.48 343.98 1263.43 346.896 1263.43 350.625C1263.43 354.015 1262.45 356.999 1260.48 359.575C1258.52 362.152 1255.81 364.186 1252.35 365.678C1248.89 367.102 1244.99 367.814 1240.65 367.814C1233.87 367.814 1228.34 366.254 1224.07 363.135C1219.8 359.948 1217.46 355.405 1217.05 349.506H1231.7C1231.97 351.812 1232.89 353.575 1234.45 354.795C1236.01 356.016 1238.11 356.626 1240.75 356.626C1243.4 356.626 1245.53 356.049 1247.16 354.897C1248.79 353.676 1249.6 352.151 1249.6 350.32C1249.6 348.828 1249.06 347.642 1247.97 346.76C1246.89 345.811 1245.53 345.099 1243.91 344.624C1242.28 344.082 1239.94 343.472 1236.89 342.793C1232.75 341.912 1229.36 340.997 1226.72 340.047C1224.14 339.098 1221.9 337.606 1220 335.572C1218.11 333.47 1217.16 330.656 1217.16 327.13C1217.16 324.011 1218.07 321.13 1219.9 318.485C1221.73 315.841 1224.41 313.739 1227.94 312.179C1231.46 310.62 1235.63 309.84 1240.45 309.84ZM1274.11 296.313C1274.11 293.872 1274.95 291.804 1276.65 290.109C1278.35 288.414 1280.38 287.566 1282.75 287.566C1285.19 287.566 1287.26 288.414 1288.96 290.109C1290.65 291.804 1291.5 293.872 1291.5 296.313C1291.5 298.754 1290.65 300.822 1288.96 302.517C1287.26 304.212 1285.19 305.06 1282.75 305.06C1280.38 305.06 1278.35 304.212 1276.65 302.517C1274.95 300.822 1274.11 298.754 1274.11 296.313ZM1289.97 310.654V367H1275.63V310.654H1289.97ZM1337.07 309.84C1341.27 309.84 1345 310.789 1348.25 312.688C1351.58 314.519 1354.19 317.265 1356.09 320.926C1357.98 324.52 1358.93 328.826 1358.93 333.843V367H1344.69V335.877C1344.69 331.47 1343.58 328.114 1341.34 325.808C1339.1 323.435 1336.05 322.248 1332.18 322.248C1328.32 322.248 1325.23 323.435 1322.93 325.808C1320.69 328.114 1319.57 331.47 1319.57 335.877V367H1305.23V310.654H1319.57V319.096C1321.34 316.112 1323.71 313.841 1326.69 312.281C1329.74 310.654 1333.2 309.84 1337.07 309.84ZM1425.84 338.013C1425.84 339.98 1425.71 341.81 1425.44 343.505H1384.35C1384.68 347.167 1386.04 350.116 1388.41 352.354C1390.79 354.592 1393.8 355.71 1397.47 355.71C1400.31 355.71 1402.59 355.168 1404.28 354.083C1405.98 352.998 1407.37 351.506 1408.45 349.608H1423.91C1422.28 354.965 1419.13 359.338 1414.45 362.728C1409.77 366.119 1404.11 367.814 1397.47 367.814C1392.11 367.814 1387.33 366.627 1383.12 364.254C1378.92 361.813 1375.63 358.423 1373.26 354.083C1370.89 349.676 1369.7 344.556 1369.7 338.725C1369.7 332.894 1370.89 327.809 1373.26 323.469C1375.63 319.129 1378.92 315.773 1383.12 313.4C1387.4 311.027 1392.24 309.84 1397.67 309.84C1403.09 309.84 1407.91 310.993 1412.11 313.298C1416.38 315.604 1419.74 318.892 1422.18 323.164C1424.62 327.368 1425.84 332.318 1425.84 338.013ZM1410.99 334.25C1410.79 330.521 1409.4 327.537 1406.82 325.3C1404.31 323.062 1401.2 321.943 1397.47 321.943C1394.01 321.943 1391.06 323.062 1388.62 325.3C1386.24 327.537 1384.82 330.521 1384.35 334.25H1410.99ZM1457.27 309.84C1463.71 309.84 1469 311.501 1473.14 314.824C1477.27 318.078 1479.48 322.52 1479.75 328.148H1465.1C1464.7 323.401 1461.78 321.028 1456.36 321.028C1453.64 321.028 1451.54 321.57 1450.05 322.655C1448.56 323.74 1447.81 325.164 1447.81 326.927C1447.81 328.419 1448.36 329.605 1449.44 330.487C1450.53 331.368 1451.85 332.08 1453.41 332.623C1455.03 333.097 1457.34 333.674 1460.32 334.352C1464.46 335.233 1467.85 336.182 1470.49 337.2C1473.21 338.149 1475.51 339.708 1477.41 341.878C1479.31 343.98 1480.26 346.896 1480.26 350.625C1480.26 354.015 1479.28 356.999 1477.31 359.575C1475.34 362.152 1472.63 364.186 1469.17 365.678C1465.71 367.102 1461.82 367.814 1457.48 367.814C1450.7 367.814 1445.17 366.254 1440.9 363.135C1436.63 359.948 1434.29 355.405 1433.88 349.506H1448.53C1448.8 351.812 1449.71 353.575 1451.27 354.795C1452.83 356.016 1454.93 356.626 1457.58 356.626C1460.22 356.626 1462.36 356.049 1463.99 354.897C1465.61 353.676 1466.43 352.151 1466.43 350.32C1466.43 348.828 1465.88 347.642 1464.8 346.76C1463.71 345.811 1462.36 345.099 1460.73 344.624C1459.1 344.082 1456.76 343.472 1453.71 342.793C1449.58 341.912 1446.19 340.997 1443.54 340.047C1440.97 339.098 1438.73 337.606 1436.83 335.572C1434.93 333.47 1433.98 330.656 1433.98 327.13C1433.98 324.011 1434.9 321.13 1436.73 318.485C1438.56 315.841 1441.24 313.739 1444.76 312.179C1448.29 310.62 1452.46 309.84 1457.27 309.84ZM1512.6 309.84C1519.04 309.84 1524.33 311.501 1528.46 314.824C1532.6 318.078 1534.8 322.52 1535.07 328.148H1520.43C1520.02 323.401 1517.11 321.028 1511.68 321.028C1508.97 321.028 1506.87 321.57 1505.37 322.655C1503.88 323.74 1503.14 325.164 1503.14 326.927C1503.14 328.419 1503.68 329.605 1504.76 330.487C1505.85 331.368 1507.17 332.08 1508.73 332.623C1510.36 333.097 1512.66 333.674 1515.65 334.352C1519.78 335.233 1523.17 336.182 1525.82 337.2C1528.53 338.149 1530.84 339.708 1532.73 341.878C1534.63 343.98 1535.58 346.896 1535.58 350.625C1535.58 354.015 1534.6 356.999 1532.63 359.575C1530.67 362.152 1527.95 364.186 1524.5 365.678C1521.04 367.102 1517.14 367.814 1512.8 367.814C1506.02 367.814 1500.49 366.254 1496.22 363.135C1491.95 359.948 1489.61 355.405 1489.2 349.506H1503.85C1504.12 351.812 1505.04 353.575 1506.6 354.795C1508.15 356.016 1510.26 356.626 1512.9 356.626C1515.55 356.626 1517.68 356.049 1519.31 354.897C1520.94 353.676 1521.75 352.151 1521.75 350.32C1521.75 348.828 1521.21 347.642 1520.12 346.76C1519.04 345.811 1517.68 345.099 1516.05 344.624C1514.43 344.082 1512.09 343.472 1509.04 342.793C1504.9 341.912 1501.51 340.997 1498.87 340.047C1496.29 339.098 1494.05 337.606 1492.15 335.572C1490.25 333.47 1489.3 330.656 1489.3 327.13C1489.3 324.011 1490.22 321.13 1492.05 318.485C1493.88 315.841 1496.56 313.739 1500.09 312.179C1503.61 310.62 1507.78 309.84 1512.6 309.84ZM1655.88 310.654L1638.59 367H1623.33L1613.67 329.165L1603.9 367H1588.65L1571.36 310.654H1585.8L1596.17 353.473L1606.55 310.654H1621.6L1631.77 353.371L1642.15 310.654H1655.88ZM1662.56 296.313C1662.56 293.872 1663.41 291.804 1665.11 290.109C1666.8 288.414 1668.84 287.566 1671.21 287.566C1673.65 287.566 1675.72 288.414 1677.41 290.109C1679.11 291.804 1679.96 293.872 1679.96 296.313C1679.96 298.754 1679.11 300.822 1677.41 302.517C1675.72 304.212 1673.65 305.06 1671.21 305.06C1668.84 305.06 1666.8 304.212 1665.11 302.517C1663.41 300.822 1662.56 298.754 1662.56 296.313ZM1678.43 310.654V367H1664.09V310.654H1678.43ZM1722.37 354.998V367H1713.32C1707.55 367 1703.11 365.678 1699.99 363.033C1696.88 360.389 1695.32 356.016 1695.32 349.913V322.35H1689.32V310.654H1695.32V296.72H1709.66V310.654H1722.27V322.35H1709.66V349.913C1709.66 351.744 1710.1 353.066 1710.98 353.88C1711.86 354.626 1713.39 354.998 1715.56 354.998H1722.37ZM1765.35 309.84C1769.56 309.84 1773.29 310.789 1776.54 312.688C1779.86 314.519 1782.47 317.265 1784.37 320.926C1786.27 324.52 1787.22 328.826 1787.22 333.843V367H1772.98V335.877C1772.98 331.47 1771.86 328.114 1769.62 325.808C1767.39 323.435 1764.34 322.248 1760.47 322.248C1756.61 322.248 1753.52 323.435 1751.21 325.808C1748.98 328.114 1747.86 331.47 1747.86 335.877V367H1733.52V291.736H1747.86V319.096C1749.62 316.112 1751.99 313.841 1754.98 312.281C1758.03 310.654 1761.49 309.84 1765.35 309.84ZM798.846 484.606C798.846 491.725 797.252 497.963 794.065 503.32C790.879 508.609 786.403 512.711 780.64 515.627C774.877 518.542 768.232 520 760.705 520H736.6V449.008H760.705C768.232 449.008 774.877 450.5 780.64 453.483C786.403 456.399 790.879 460.535 794.065 465.891C797.252 471.248 798.846 477.486 798.846 484.606ZM760.705 509.117C768.164 509.117 773.961 506.914 778.097 502.506C782.233 498.099 784.301 492.132 784.301 484.606C784.301 477.079 782.233 471.112 778.097 466.705C773.961 462.298 768.164 460.094 760.705 460.094H750.941V509.117H760.705ZM808.575 449.313C808.575 446.872 809.422 444.804 811.117 443.109C812.813 441.414 814.847 440.566 817.22 440.566C819.661 440.566 821.729 441.414 823.424 443.109C825.119 444.804 825.967 446.872 825.967 449.313C825.967 451.754 825.119 453.822 823.424 455.517C821.729 457.212 819.661 458.06 817.22 458.06C814.847 458.06 812.813 457.212 811.117 455.517C809.422 453.822 808.575 451.754 808.575 449.313ZM824.441 463.654V520H810.1V463.654H824.441ZM861.871 462.84C865.872 462.84 869.432 463.688 872.551 465.383C875.67 467.078 878.178 469.417 880.077 472.401V463.654H894.316V520.407C894.316 525.628 893.265 530.306 891.163 534.443C889.129 538.579 886.01 541.833 881.806 544.207C877.67 546.648 872.551 547.868 866.448 547.868C858.379 547.868 851.802 546.071 846.717 542.477C841.699 538.952 838.851 533.9 838.173 527.323H852.209C853.091 529.832 854.786 531.798 857.294 533.222C859.803 534.714 862.854 535.46 866.448 535.46C870.449 535.46 873.703 534.205 876.212 531.696C878.789 529.188 880.077 525.424 880.077 520.407V510.541C878.111 513.728 875.568 516.237 872.449 518.068C869.398 519.898 865.872 520.814 861.871 520.814C857.057 520.814 852.65 519.593 848.649 517.152C844.717 514.643 841.564 511.185 839.19 506.778C836.885 502.371 835.732 497.353 835.732 491.725C835.732 486.097 836.885 481.114 839.19 476.774C841.564 472.367 844.717 468.943 848.649 466.502C852.65 464.061 857.057 462.84 861.871 462.84ZM865.126 475.248C862.617 475.248 860.21 475.893 857.905 477.181C855.667 478.469 853.836 480.368 852.412 482.877C850.989 485.318 850.277 488.267 850.277 491.725C850.277 495.183 850.989 498.201 852.412 500.777C853.836 503.286 855.667 505.185 857.905 506.473C860.21 507.761 862.617 508.405 865.126 508.405C867.703 508.405 870.11 507.761 872.347 506.473C874.653 505.185 876.517 503.286 877.941 500.777C879.365 498.268 880.077 495.285 880.077 491.827C880.077 488.369 879.365 485.385 877.941 482.877C876.517 480.368 874.653 478.469 872.347 477.181C870.11 475.893 867.703 475.248 865.126 475.248ZM907.998 449.313C907.998 446.872 908.846 444.804 910.541 443.109C912.236 441.414 914.27 440.566 916.643 440.566C919.084 440.566 921.152 441.414 922.848 443.109C924.543 444.804 925.39 446.872 925.39 449.313C925.39 451.754 924.543 453.822 922.848 455.517C921.152 457.212 919.084 458.06 916.643 458.06C914.27 458.06 912.236 457.212 910.541 455.517C908.846 453.822 907.998 451.754 907.998 449.313ZM923.865 463.654V520H909.524V463.654H923.865ZM967.804 507.998V520H958.752C952.989 520 948.547 518.678 945.428 516.033C942.309 513.389 940.75 509.016 940.75 502.913V475.35H934.749V463.654H940.75V449.72H955.091V463.654H967.702V475.35H955.091V502.913C955.091 504.744 955.531 506.066 956.413 506.88C957.294 507.626 958.82 507.998 960.99 507.998H967.804ZM1001.12 462.84C1005.12 462.84 1008.68 463.688 1011.8 465.383C1014.92 467.078 1017.43 469.417 1019.33 472.401V463.654H1033.57V520H1019.33V510.541C1017.36 513.728 1014.82 516.237 1011.7 518.068C1008.65 519.898 1005.12 520.814 1001.12 520.814C996.31 520.814 991.902 519.593 987.902 517.152C983.969 514.643 980.816 511.185 978.443 506.778C976.138 502.371 974.985 497.353 974.985 491.725C974.985 486.097 976.138 481.114 978.443 476.774C980.816 472.367 983.969 468.943 987.902 466.502C991.902 464.061 996.31 462.84 1001.12 462.84ZM1004.38 475.248C1001.87 475.248 999.463 475.893 997.157 477.181C994.92 478.469 993.089 480.368 991.665 482.877C990.241 485.318 989.529 488.267 989.529 491.725C989.529 495.183 990.241 498.201 991.665 500.777C993.089 503.286 994.92 505.185 997.157 506.473C999.463 507.761 1001.87 508.405 1004.38 508.405C1006.96 508.405 1009.36 507.761 1011.6 506.473C1013.91 505.185 1015.77 503.286 1017.19 500.777C1018.62 498.268 1019.33 495.285 1019.33 491.827C1019.33 488.369 1018.62 485.385 1017.19 482.877C1015.77 480.368 1013.91 478.469 1011.6 477.181C1009.36 475.893 1006.96 475.248 1004.38 475.248ZM1063.12 444.736V520H1048.78V444.736H1063.12ZM1116.72 483.69C1121.4 484.368 1125.13 486.402 1127.91 489.793C1130.75 493.115 1132.18 496.98 1132.18 501.387C1132.18 505.049 1131.23 508.304 1129.33 511.151C1127.5 513.931 1124.82 516.101 1121.3 517.661C1117.77 519.22 1113.6 520 1108.79 520H1078.38V449.008H1107.16C1111.97 449.008 1116.14 449.821 1119.67 451.449C1123.26 453.076 1125.97 455.314 1127.81 458.162C1129.64 461.009 1130.55 464.196 1130.55 467.722C1130.55 471.723 1129.33 475.079 1126.89 477.791C1124.52 480.436 1121.13 482.402 1116.72 483.69ZM1092.72 478.401H1105.63C1108.82 478.401 1111.33 477.622 1113.16 476.062C1115.06 474.435 1116.01 472.163 1116.01 469.248C1116.01 466.332 1115.06 464.061 1113.16 462.433C1111.33 460.806 1108.82 459.992 1105.63 459.992H1092.72V478.401ZM1107.16 509.016C1110.35 509.016 1112.89 508.168 1114.79 506.473C1116.75 504.71 1117.74 502.303 1117.74 499.252C1117.74 496.2 1116.75 493.793 1114.79 492.03C1112.82 490.267 1110.24 489.386 1107.06 489.386H1092.72V509.016H1107.16ZM1158.87 473.621C1160.63 470.231 1162.9 467.586 1165.68 465.688C1168.53 463.789 1171.75 462.84 1175.34 462.84V477.486H1171.78C1167.51 477.486 1164.29 478.571 1162.12 480.741C1159.95 482.843 1158.87 486.504 1158.87 491.725V520H1144.53V463.654H1158.87V473.621ZM1237.72 491.013C1237.72 492.98 1237.59 494.81 1237.32 496.505H1196.23C1196.56 500.167 1197.92 503.116 1200.29 505.354C1202.67 507.592 1205.68 508.71 1209.35 508.71C1212.19 508.71 1214.46 508.168 1216.16 507.083C1217.86 505.998 1219.25 504.506 1220.33 502.608H1235.79C1234.16 507.965 1231.01 512.338 1226.33 515.728C1221.65 519.119 1215.99 520.814 1209.35 520.814C1203.99 520.814 1199.21 519.627 1195 517.254C1190.8 514.813 1187.51 511.423 1185.14 507.083C1182.77 502.676 1181.58 497.556 1181.58 491.725C1181.58 485.894 1182.77 480.809 1185.14 476.469C1187.51 472.129 1190.8 468.773 1195 466.4C1199.28 464.027 1204.12 462.84 1209.55 462.84C1214.97 462.84 1219.79 463.993 1223.99 466.298C1228.26 468.604 1231.62 471.892 1234.06 476.164C1236.5 480.368 1237.72 485.318 1237.72 491.013ZM1222.87 487.25C1222.67 483.521 1221.28 480.537 1218.7 478.3C1216.19 476.062 1213.07 474.943 1209.35 474.943C1205.89 474.943 1202.94 476.062 1200.5 478.3C1198.12 480.537 1196.7 483.521 1196.23 487.25H1222.87ZM1326.62 463.654L1309.33 520H1294.07L1284.41 482.165L1274.64 520H1259.39L1242.1 463.654H1256.54L1266.91 506.473L1277.29 463.654H1292.34L1302.51 506.371L1312.89 463.654H1326.62Z" fill="white"/>
<path d="M433.245 653.841V665.961H429.388V636.593H438.923C441.127 636.593 442.992 636.974 444.517 637.737C446.043 638.472 447.187 639.503 447.95 640.831C448.713 642.13 449.094 643.599 449.094 645.238C449.094 647.724 448.247 649.787 446.552 651.425C444.885 653.036 442.342 653.841 438.923 653.841H433.245ZM438.923 650.789C441.042 650.789 442.61 650.309 443.627 649.349C444.673 648.36 445.195 646.99 445.195 645.238C445.195 643.486 444.687 642.13 443.67 641.17C442.653 640.181 441.071 639.686 438.923 639.686H433.245V650.789H438.923ZM464.101 642.314C466.305 642.314 468.297 642.808 470.077 643.797C471.857 644.786 473.255 646.199 474.272 648.035C475.318 649.871 475.84 651.976 475.84 654.349C475.84 656.694 475.303 658.785 474.23 660.621C473.156 662.429 471.701 663.842 469.865 664.859C468.029 665.848 465.994 666.342 463.762 666.342C461.587 666.342 459.624 665.848 457.872 664.859C456.148 663.87 454.792 662.472 453.804 660.664C452.843 658.827 452.363 656.722 452.363 654.349C452.363 651.948 452.871 649.843 453.888 648.035C454.934 646.199 456.346 644.786 458.126 643.797C459.906 642.808 461.898 642.314 464.101 642.314ZM463.974 645.492C462.562 645.492 461.276 645.831 460.118 646.509C458.96 647.187 458.027 648.19 457.321 649.518C456.643 650.846 456.304 652.456 456.304 654.349C456.304 656.214 456.629 657.81 457.279 659.138C457.957 660.466 458.861 661.469 459.991 662.147C461.121 662.825 462.378 663.164 463.762 663.164C465.175 663.164 466.489 662.825 467.704 662.147C468.947 661.441 469.95 660.424 470.713 659.096C471.475 657.768 471.857 656.186 471.857 654.349C471.857 652.485 471.489 650.888 470.755 649.561C470.049 648.204 469.088 647.187 467.873 646.509C466.687 645.831 465.387 645.492 463.974 645.492ZM511.219 642.695L503.888 665.961H499.904L494.649 647.484L489.394 665.961H485.368L477.995 642.695H481.978L487.36 662.105L492.827 642.695H496.811L501.981 662.147L507.32 642.695H511.219ZM535.994 653.375C535.994 654.194 535.938 654.957 535.825 655.663H517.305C517.418 657.98 518.139 659.816 519.467 661.172C520.823 662.5 522.546 663.164 524.637 663.164C526.219 663.164 527.547 662.811 528.621 662.105C529.722 661.398 530.528 660.466 531.036 659.308H535.189C534.455 661.342 533.183 663.023 531.375 664.351C529.595 665.678 527.349 666.342 524.637 666.342C522.462 666.342 520.512 665.848 518.789 664.859C517.094 663.87 515.766 662.472 514.805 660.664C513.845 658.827 513.364 656.722 513.364 654.349C513.364 651.948 513.845 649.843 514.805 648.035C515.766 646.199 517.122 644.786 518.873 643.797C520.625 642.808 522.645 642.314 524.934 642.314C527.109 642.314 529.03 642.794 530.697 643.755C532.364 644.715 533.664 646.029 534.596 647.696C535.528 649.363 535.994 651.256 535.994 653.375ZM531.968 652.866C531.968 651.369 531.643 650.069 530.994 648.967C530.344 647.837 529.454 646.975 528.324 646.382C527.222 645.789 525.993 645.492 524.637 645.492C522.631 645.492 520.95 646.156 519.594 647.484C518.238 648.784 517.489 650.578 517.348 652.866H531.968ZM544.653 646.636C546.038 643.755 548.397 642.314 551.731 642.314V646.34H550.714C548.736 646.34 547.224 646.862 546.179 647.908C545.162 648.925 544.653 650.705 544.653 653.247V665.961H540.797V642.695H544.653V646.636ZM589.361 642.695V665.961H585.505V662.232C584.742 663.588 583.697 664.619 582.369 665.325C581.041 666.003 579.558 666.342 577.919 666.342C576.252 666.342 574.727 665.975 573.342 665.241C571.986 664.478 570.898 663.362 570.079 661.893C569.288 660.424 568.892 658.629 568.892 656.511V642.695H572.707V655.875C572.707 658.192 573.272 659.971 574.402 661.215C575.56 662.429 577.128 663.037 579.106 663.037C581.083 663.037 582.637 662.429 583.767 661.215C584.926 659.971 585.505 658.192 585.505 655.875V642.695H589.361ZM608.174 642.314C610.265 642.314 612.144 642.808 613.811 643.797C615.506 644.786 616.834 646.184 617.794 647.993C618.783 649.772 619.277 651.835 619.277 654.18C619.277 656.525 618.783 658.629 617.794 660.494C616.834 662.331 615.506 663.771 613.811 664.817C612.144 665.834 610.265 666.342 608.174 666.342C606.197 666.342 604.459 665.876 602.962 664.944C601.493 663.983 600.362 662.74 599.571 661.215V676.979H595.715V642.695H599.571V647.357C600.362 645.859 601.493 644.645 602.962 643.712C604.459 642.78 606.197 642.314 608.174 642.314ZM607.411 645.662C606.027 645.662 604.727 646.015 603.513 646.721C602.326 647.427 601.365 648.445 600.631 649.772C599.925 651.072 599.571 652.598 599.571 654.349C599.571 656.101 599.925 657.641 600.631 658.969C601.365 660.268 602.326 661.271 603.513 661.977C604.727 662.684 606.027 663.037 607.411 663.037C608.796 663.037 610.095 662.684 611.31 661.977C612.525 661.243 613.486 660.197 614.192 658.841C614.927 657.485 615.294 655.931 615.294 654.18C615.294 652.428 614.927 650.917 614.192 649.645C613.486 648.346 612.525 647.357 611.31 646.679C610.124 646.001 608.824 645.662 607.411 645.662ZM638.378 642.695L645.498 661.511L652.745 642.695H656.728L642.701 676.852H638.717L643.337 665.58L634.141 642.695H638.378ZM670.613 642.314C672.817 642.314 674.809 642.808 676.588 643.797C678.368 644.786 679.767 646.199 680.784 648.035C681.829 649.871 682.352 651.976 682.352 654.349C682.352 656.694 681.815 658.785 680.742 660.621C679.668 662.429 678.213 663.842 676.377 664.859C674.54 665.848 672.506 666.342 670.274 666.342C668.099 666.342 666.135 665.848 664.383 664.859C662.66 663.87 661.304 662.472 660.315 660.664C659.355 658.827 658.874 656.722 658.874 654.349C658.874 651.948 659.383 649.843 660.4 648.035C661.445 646.199 662.858 644.786 664.638 643.797C666.418 642.808 668.409 642.314 670.613 642.314ZM670.486 645.492C669.073 645.492 667.788 645.831 666.63 646.509C665.471 647.187 664.539 648.19 663.833 649.518C663.154 650.846 662.815 652.456 662.815 654.349C662.815 656.214 663.14 657.81 663.79 659.138C664.468 660.466 665.372 661.469 666.502 662.147C667.632 662.825 668.89 663.164 670.274 663.164C671.687 663.164 673 662.825 674.215 662.147C675.458 661.441 676.461 660.424 677.224 659.096C677.987 657.768 678.368 656.186 678.368 654.349C678.368 652.485 678.001 650.888 677.266 649.561C676.56 648.204 675.6 647.187 674.385 646.509C673.198 645.831 671.899 645.492 670.486 645.492ZM707.433 642.695V665.961H703.576V662.232C702.814 663.588 701.768 664.619 700.44 665.325C699.113 666.003 697.629 666.342 695.991 666.342C694.324 666.342 692.798 665.975 691.414 665.241C690.058 664.478 688.97 663.362 688.151 661.893C687.36 660.424 686.964 658.629 686.964 656.511V642.695H690.778V655.875C690.778 658.192 691.343 659.971 692.473 661.215C693.632 662.429 695.2 663.037 697.177 663.037C699.155 663.037 700.709 662.429 701.839 661.215C702.997 659.971 703.576 658.192 703.576 655.875V642.695H707.433ZM717.643 646.636C719.027 643.755 721.386 642.314 724.72 642.314V646.34H723.703C721.726 646.34 720.214 646.862 719.169 647.908C718.152 648.925 717.643 650.705 717.643 653.247V665.961H713.787V642.695H717.643V646.636ZM754.553 642.314C756.644 642.314 758.523 642.808 760.19 643.797C761.885 644.786 763.213 646.184 764.173 647.993C765.162 649.772 765.656 651.835 765.656 654.18C765.656 656.525 765.162 658.629 764.173 660.494C763.213 662.331 761.885 663.771 760.19 664.817C758.523 665.834 756.644 666.342 754.553 666.342C752.576 666.342 750.838 665.876 749.341 664.944C747.872 663.983 746.742 662.74 745.95 661.215V665.961H742.094V634.601H745.95V647.357C746.742 645.859 747.872 644.645 749.341 643.712C750.838 642.78 752.576 642.314 754.553 642.314ZM753.79 645.662C752.406 645.662 751.107 646.015 749.892 646.721C748.705 647.427 747.744 648.445 747.01 649.772C746.304 651.072 745.95 652.598 745.95 654.349C745.95 656.101 746.304 657.641 747.01 658.969C747.744 660.268 748.705 661.271 749.892 661.977C751.107 662.684 752.406 663.037 753.79 663.037C755.175 663.037 756.474 662.684 757.689 661.977C758.904 661.243 759.865 660.197 760.571 658.841C761.306 657.485 761.673 655.931 761.673 654.18C761.673 652.428 761.306 650.917 760.571 649.645C759.865 648.346 758.904 647.357 757.689 646.679C756.503 646.001 755.203 645.662 753.79 645.662ZM790.741 642.695V665.961H786.885V662.232C786.122 663.588 785.076 664.619 783.749 665.325C782.421 666.003 780.938 666.342 779.299 666.342C777.632 666.342 776.106 665.975 774.722 665.241C773.366 664.478 772.278 663.362 771.459 661.893C770.668 660.424 770.272 658.629 770.272 656.511V642.695H774.086V655.875C774.086 658.192 774.651 659.971 775.782 661.215C776.94 662.429 778.508 663.037 780.486 663.037C782.463 663.037 784.017 662.429 785.147 661.215C786.305 659.971 786.885 658.192 786.885 655.875V642.695H790.741ZM805.104 642.314C807.619 642.314 809.611 642.978 811.08 644.306C812.549 645.605 813.354 647.399 813.495 649.688H809.512C809.455 648.388 809.017 647.343 808.198 646.552C807.379 645.761 806.249 645.365 804.808 645.365C803.339 645.365 802.18 645.718 801.333 646.425C800.513 647.103 800.104 647.964 800.104 649.01C800.104 649.885 800.358 650.592 800.867 651.129C801.403 651.637 802.053 652.018 802.816 652.273C803.607 652.527 804.666 652.795 805.994 653.078C807.689 653.473 809.046 653.869 810.063 654.265C811.108 654.632 811.998 655.267 812.732 656.172C813.467 657.047 813.834 658.248 813.834 659.774C813.834 661.045 813.467 662.189 812.732 663.206C811.998 664.195 810.967 664.972 809.639 665.537C808.311 666.074 806.785 666.342 805.062 666.342C802.463 666.342 800.372 665.693 798.79 664.393C797.236 663.093 796.389 661.299 796.247 659.011H800.231C800.287 660.31 800.739 661.356 801.587 662.147C802.463 662.91 803.621 663.291 805.062 663.291C806.644 663.291 807.859 662.966 808.707 662.316C809.582 661.667 810.02 660.805 810.02 659.731C810.02 658.856 809.752 658.163 809.215 657.655C808.707 657.118 808.057 656.722 807.266 656.468C806.475 656.186 805.387 655.889 804.003 655.578C802.336 655.211 800.98 654.844 799.934 654.476C798.917 654.081 798.041 653.473 797.307 652.654C796.6 651.835 796.247 650.705 796.247 649.264C796.247 647.993 796.6 646.834 797.307 645.789C798.041 644.715 799.073 643.868 800.4 643.246C801.756 642.625 803.324 642.314 805.104 642.314ZM818.766 636.338C818.766 635.604 819.02 634.982 819.529 634.474C820.037 633.965 820.644 633.711 821.351 633.711C822.085 633.711 822.707 633.965 823.215 634.474C823.724 634.982 823.978 635.604 823.978 636.338C823.978 637.073 823.724 637.695 823.215 638.203C822.707 638.712 822.085 638.966 821.351 638.966C820.616 638.966 819.995 638.712 819.486 638.203C819.006 637.695 818.766 637.073 818.766 636.338ZM823.258 642.695V665.961H819.401V642.695H823.258ZM841.066 642.314C842.733 642.314 844.244 642.695 845.6 643.458C846.985 644.193 848.072 645.309 848.863 646.806C849.683 648.275 850.092 650.069 850.092 652.188V665.961H846.278V652.824C846.278 650.479 845.713 648.699 844.583 647.484C843.453 646.269 841.885 645.662 839.879 645.662C837.901 645.662 836.333 646.269 835.175 647.484C834.045 648.699 833.48 650.479 833.48 652.824V665.961H829.624V642.695H833.48V646.467C834.243 645.111 835.288 644.08 836.616 643.373C837.944 642.667 839.427 642.314 841.066 642.314ZM877.339 653.375C877.339 654.194 877.282 654.957 877.169 655.663H858.65C858.763 657.98 859.483 659.816 860.811 661.172C862.167 662.5 863.89 663.164 865.981 663.164C867.563 663.164 868.891 662.811 869.965 662.105C871.067 661.398 871.872 660.466 872.38 659.308H876.533C875.799 661.342 874.527 663.023 872.719 664.351C870.939 665.678 868.693 666.342 865.981 666.342C863.806 666.342 861.856 665.848 860.133 664.859C858.438 663.87 857.11 662.472 856.149 660.664C855.189 658.827 854.709 656.722 854.709 654.349C854.709 651.948 855.189 649.843 856.149 648.035C857.11 646.199 858.466 644.786 860.218 643.797C861.969 642.808 863.989 642.314 866.278 642.314C868.453 642.314 870.374 642.794 872.041 643.755C873.708 644.715 875.008 646.029 875.94 647.696C876.872 649.363 877.339 651.256 877.339 653.375ZM873.313 652.866C873.313 651.369 872.988 650.069 872.338 648.967C871.688 647.837 870.798 646.975 869.668 646.382C868.566 645.789 867.337 645.492 865.981 645.492C863.975 645.492 862.294 646.156 860.938 647.484C859.582 648.784 858.833 650.578 858.692 652.866H873.313ZM890.151 642.314C892.665 642.314 894.657 642.978 896.126 644.306C897.595 645.605 898.4 647.399 898.542 649.688H894.558C894.502 648.388 894.064 647.343 893.244 646.552C892.425 645.761 891.295 645.365 889.854 645.365C888.385 645.365 887.227 645.718 886.379 646.425C885.56 647.103 885.15 647.964 885.15 649.01C885.15 649.885 885.404 650.592 885.913 651.129C886.45 651.637 887.099 652.018 887.862 652.273C888.653 652.527 889.713 652.795 891.041 653.078C892.736 653.473 894.092 653.869 895.109 654.265C896.154 654.632 897.044 655.267 897.779 656.172C898.513 657.047 898.881 658.248 898.881 659.774C898.881 661.045 898.513 662.189 897.779 663.206C897.044 664.195 896.013 664.972 894.685 665.537C893.357 666.074 891.832 666.342 890.108 666.342C887.509 666.342 885.418 665.693 883.836 664.393C882.282 663.093 881.435 661.299 881.294 659.011H885.277C885.334 660.31 885.786 661.356 886.633 662.147C887.509 662.91 888.667 663.291 890.108 663.291C891.69 663.291 892.905 662.966 893.753 662.316C894.629 661.667 895.067 660.805 895.067 659.731C895.067 658.856 894.798 658.163 894.261 657.655C893.753 657.118 893.103 656.722 892.312 656.468C891.521 656.186 890.433 655.889 889.049 655.578C887.382 655.211 886.026 654.844 884.981 654.476C883.963 654.081 883.088 653.473 882.353 652.654C881.647 651.835 881.294 650.705 881.294 649.264C881.294 647.993 881.647 646.834 882.353 645.789C883.088 644.715 884.119 643.868 885.447 643.246C886.803 642.625 888.371 642.314 890.151 642.314ZM912.457 642.314C914.972 642.314 916.963 642.978 918.433 644.306C919.902 645.605 920.707 647.399 920.848 649.688H916.865C916.808 648.388 916.37 647.343 915.551 646.552C914.732 645.761 913.601 645.365 912.161 645.365C910.691 645.365 909.533 645.718 908.686 646.425C907.866 647.103 907.457 647.964 907.457 649.01C907.457 649.885 907.711 650.592 908.219 651.129C908.756 651.637 909.406 652.018 910.169 652.273C910.96 652.527 912.019 652.795 913.347 653.078C915.042 653.473 916.398 653.869 917.416 654.265C918.461 654.632 919.351 655.267 920.085 656.172C920.82 657.047 921.187 658.248 921.187 659.774C921.187 661.045 920.82 662.189 920.085 663.206C919.351 664.195 918.32 664.972 916.992 665.537C915.664 666.074 914.138 666.342 912.415 666.342C909.816 666.342 907.725 665.693 906.143 664.393C904.589 663.093 903.741 661.299 903.6 659.011H907.584C907.64 660.31 908.092 661.356 908.94 662.147C909.816 662.91 910.974 663.291 912.415 663.291C913.997 663.291 915.212 662.966 916.059 662.316C916.935 661.667 917.373 660.805 917.373 659.731C917.373 658.856 917.105 658.163 916.568 657.655C916.059 657.118 915.41 656.722 914.619 656.468C913.827 656.186 912.74 655.889 911.355 655.578C909.689 655.211 908.332 654.844 907.287 654.476C906.27 654.081 905.394 653.473 904.66 652.654C903.953 651.835 903.6 650.705 903.6 649.264C903.6 647.993 903.953 646.834 904.66 645.789C905.394 644.715 906.425 643.868 907.753 643.246C909.109 642.625 910.677 642.314 912.457 642.314ZM970.014 642.695L962.683 665.961H958.699L953.444 647.484L948.189 665.961H944.164L936.79 642.695H940.773L946.155 662.105L951.622 642.695H955.606L960.776 662.147L966.116 642.695H970.014ZM973.049 636.338C973.049 635.604 973.304 634.982 973.812 634.474C974.321 633.965 974.928 633.711 975.634 633.711C976.369 633.711 976.991 633.965 977.499 634.474C978.008 634.982 978.262 635.604 978.262 636.338C978.262 637.073 978.008 637.695 977.499 638.203C976.991 638.712 976.369 638.966 975.634 638.966C974.9 638.966 974.278 638.712 973.77 638.203C973.289 637.695 973.049 637.073 973.049 636.338ZM977.541 642.695V665.961H973.685V642.695H977.541ZM994.714 662.825V665.961H990.815C988.837 665.961 987.326 665.481 986.28 664.52C985.263 663.559 984.755 662.048 984.755 659.986V645.831H981.746V642.695H984.755V636.932H988.654V642.695H994.671V645.831H988.654V659.986C988.654 661.031 988.865 661.765 989.289 662.189C989.713 662.613 990.462 662.825 991.535 662.825H994.714ZM1010.41 642.314C1012.08 642.314 1013.59 642.695 1014.95 643.458C1016.33 644.193 1017.42 645.309 1018.21 646.806C1019.03 648.275 1019.44 650.069 1019.44 652.188V665.961H1015.63V652.824C1015.63 650.479 1015.06 648.699 1013.93 647.484C1012.8 646.269 1011.23 645.662 1009.23 645.662C1007.25 645.662 1005.68 646.269 1004.52 647.484C1003.39 648.699 1002.83 650.479 1002.83 652.824V665.961H998.971V634.601H1002.83V646.467C1003.59 645.111 1004.64 644.08 1005.96 643.373C1007.29 642.667 1008.77 642.314 1010.41 642.314ZM1048.5 642.314C1050.7 642.314 1052.7 642.808 1054.48 643.797C1056.26 644.786 1057.65 646.199 1058.67 648.035C1059.72 649.871 1060.24 651.976 1060.24 654.349C1060.24 656.694 1059.7 658.785 1058.63 660.621C1057.56 662.429 1056.1 663.842 1054.26 664.859C1052.43 665.848 1050.39 666.342 1048.16 666.342C1045.99 666.342 1044.02 665.848 1042.27 664.859C1040.55 663.87 1039.19 662.472 1038.2 660.664C1037.24 658.827 1036.76 656.722 1036.76 654.349C1036.76 651.948 1037.27 649.843 1038.29 648.035C1039.33 646.199 1040.75 644.786 1042.52 643.797C1044.3 642.808 1046.3 642.314 1048.5 642.314ZM1048.37 645.492C1046.96 645.492 1045.68 645.831 1044.52 646.509C1043.36 647.187 1042.43 648.19 1041.72 649.518C1041.04 650.846 1040.7 652.456 1040.7 654.349C1040.7 656.214 1041.03 657.81 1041.68 659.138C1042.36 660.466 1043.26 661.469 1044.39 662.147C1045.52 662.825 1046.78 663.164 1048.16 663.164C1049.57 663.164 1050.89 662.825 1052.1 662.147C1053.35 661.441 1054.35 660.424 1055.11 659.096C1055.87 657.768 1056.26 656.186 1056.26 654.349C1056.26 652.485 1055.89 650.888 1055.15 649.561C1054.45 648.204 1053.49 647.187 1052.27 646.509C1051.09 645.831 1049.79 645.492 1048.37 645.492ZM1085.32 642.695V665.961H1081.46V662.232C1080.7 663.588 1079.66 664.619 1078.33 665.325C1077 666.003 1075.52 666.342 1073.88 666.342C1072.21 666.342 1070.69 665.975 1069.3 665.241C1067.94 664.478 1066.86 663.362 1066.04 661.893C1065.25 660.424 1064.85 658.629 1064.85 656.511V642.695H1068.67V655.875C1068.67 658.192 1069.23 659.971 1070.36 661.215C1071.52 662.429 1073.09 663.037 1075.06 663.037C1077.04 663.037 1078.6 662.429 1079.73 661.215C1080.88 659.971 1081.46 658.192 1081.46 655.875V642.695H1085.32ZM1095.53 646.636C1096.91 643.755 1099.27 642.314 1102.61 642.314V646.34H1101.59C1099.61 646.34 1098.1 646.862 1097.06 647.908C1096.04 648.925 1095.53 650.705 1095.53 653.247V665.961H1091.67V642.695H1095.53V646.636ZM1132.44 642.314C1134.53 642.314 1136.41 642.808 1138.08 643.797C1139.77 644.786 1141.1 646.184 1142.06 647.993C1143.05 649.772 1143.54 651.835 1143.54 654.18C1143.54 656.525 1143.05 658.629 1142.06 660.494C1141.1 662.331 1139.77 663.771 1138.08 664.817C1136.41 665.834 1134.53 666.342 1132.44 666.342C1130.46 666.342 1128.73 665.876 1127.23 664.944C1125.76 663.983 1124.63 662.74 1123.84 661.215V665.961H1119.98V634.601H1123.84V647.357C1124.63 645.859 1125.76 644.645 1127.23 643.712C1128.73 642.78 1130.46 642.314 1132.44 642.314ZM1131.68 645.662C1130.29 645.662 1128.99 646.015 1127.78 646.721C1126.59 647.427 1125.63 648.445 1124.9 649.772C1124.19 651.072 1123.84 652.598 1123.84 654.349C1123.84 656.101 1124.19 657.641 1124.9 658.969C1125.63 660.268 1126.59 661.271 1127.78 661.977C1128.99 662.684 1130.29 663.037 1131.68 663.037C1133.06 663.037 1134.36 662.684 1135.58 661.977C1136.79 661.243 1137.75 660.197 1138.46 658.841C1139.19 657.485 1139.56 655.931 1139.56 654.18C1139.56 652.428 1139.19 650.917 1138.46 649.645C1137.75 648.346 1136.79 647.357 1135.58 646.679C1134.39 646.001 1133.09 645.662 1131.68 645.662ZM1169.48 653.375C1169.48 654.194 1169.42 654.957 1169.31 655.663H1150.79C1150.9 657.98 1151.62 659.816 1152.95 661.172C1154.3 662.5 1156.03 663.164 1158.12 663.164C1159.7 663.164 1161.03 662.811 1162.1 662.105C1163.2 661.398 1164.01 660.466 1164.52 659.308H1168.67C1167.94 661.342 1166.66 663.023 1164.86 664.351C1163.08 665.678 1160.83 666.342 1158.12 666.342C1155.94 666.342 1153.99 665.848 1152.27 664.859C1150.58 663.87 1149.25 662.472 1148.29 660.664C1147.33 658.827 1146.85 656.722 1146.85 654.349C1146.85 651.948 1147.33 649.843 1148.29 648.035C1149.25 646.199 1150.6 644.786 1152.36 643.797C1154.11 642.808 1156.13 642.314 1158.42 642.314C1160.59 642.314 1162.51 642.794 1164.18 643.755C1165.85 644.715 1167.15 646.029 1168.08 647.696C1169.01 649.363 1169.48 651.256 1169.48 653.375ZM1165.45 652.866C1165.45 651.369 1165.13 650.069 1164.48 648.967C1163.83 647.837 1162.94 646.975 1161.81 646.382C1160.7 645.789 1159.47 645.492 1158.12 645.492C1156.11 645.492 1154.43 646.156 1153.08 647.484C1151.72 648.784 1150.97 650.578 1150.83 652.866H1165.45ZM1182.29 642.314C1184.8 642.314 1186.79 642.978 1188.26 644.306C1189.73 645.605 1190.54 647.399 1190.68 649.688H1186.7C1186.64 648.388 1186.2 647.343 1185.38 646.552C1184.56 645.761 1183.43 645.365 1181.99 645.365C1180.52 645.365 1179.36 645.718 1178.52 646.425C1177.7 647.103 1177.29 647.964 1177.29 649.01C1177.29 649.885 1177.54 650.592 1178.05 651.129C1178.59 651.637 1179.24 652.018 1180 652.273C1180.79 652.527 1181.85 652.795 1183.18 653.078C1184.87 653.473 1186.23 653.869 1187.25 654.265C1188.29 654.632 1189.18 655.267 1189.92 656.172C1190.65 657.047 1191.02 658.248 1191.02 659.774C1191.02 661.045 1190.65 662.189 1189.92 663.206C1189.18 664.195 1188.15 664.972 1186.82 665.537C1185.49 666.074 1183.97 666.342 1182.25 666.342C1179.65 666.342 1177.56 665.693 1175.97 664.393C1174.42 663.093 1173.57 661.299 1173.43 659.011H1177.41C1177.47 660.31 1177.92 661.356 1178.77 662.147C1179.65 662.91 1180.8 663.291 1182.25 663.291C1183.83 663.291 1185.04 662.966 1185.89 662.316C1186.77 661.667 1187.2 660.805 1187.2 659.731C1187.2 658.856 1186.94 658.163 1186.4 657.655C1185.89 657.118 1185.24 656.722 1184.45 656.468C1183.66 656.186 1182.57 655.889 1181.19 655.578C1179.52 655.211 1178.16 654.844 1177.12 654.476C1176.1 654.081 1175.22 653.473 1174.49 652.654C1173.78 651.835 1173.43 650.705 1173.43 649.264C1173.43 647.993 1173.78 646.834 1174.49 645.789C1175.22 644.715 1176.26 643.868 1177.58 643.246C1178.94 642.625 1180.51 642.314 1182.29 642.314ZM1207.39 662.825V665.961H1203.49C1201.52 665.961 1200 665.481 1198.96 664.52C1197.94 663.559 1197.43 662.048 1197.43 659.986V645.831H1194.42V642.695H1197.43V636.932H1201.33V642.695H1207.35V645.831H1201.33V659.986C1201.33 661.031 1201.54 661.765 1201.97 662.189C1202.39 662.613 1203.14 662.825 1204.21 662.825H1207.39ZM1252.32 642.314C1254.02 642.314 1255.56 642.695 1256.94 643.458C1258.33 644.193 1259.42 645.309 1260.21 646.806C1261.03 648.275 1261.44 650.069 1261.44 652.188V665.961H1257.62V652.824C1257.62 650.479 1257.04 648.699 1255.88 647.484C1254.75 646.269 1253.2 645.662 1251.22 645.662C1249.24 645.662 1247.68 646.269 1246.52 647.484C1245.39 648.699 1244.82 650.479 1244.82 652.824V665.961H1241.01V652.824C1241.01 650.479 1240.44 648.699 1239.31 647.484C1238.18 646.269 1236.62 645.662 1234.61 645.662C1232.63 645.662 1231.06 646.269 1229.91 647.484C1228.78 648.699 1228.21 650.479 1228.21 652.824V665.961H1224.35V642.695H1228.21V646.467C1228.97 645.111 1230.02 644.08 1231.35 643.373C1232.67 642.667 1234.16 642.314 1235.8 642.314C1237.58 642.314 1239.19 642.752 1240.63 643.628C1242.07 644.475 1243.16 645.718 1243.89 647.357C1244.74 645.775 1245.88 644.546 1247.32 643.67C1248.79 642.766 1250.46 642.314 1252.32 642.314ZM1277.14 642.314C1279.12 642.314 1280.84 642.78 1282.31 643.712C1283.81 644.645 1284.94 645.859 1285.7 647.357V642.695H1289.6V665.961H1285.7V661.215C1284.94 662.74 1283.81 663.983 1282.31 664.944C1280.84 665.876 1279.12 666.342 1277.14 666.342C1275.05 666.342 1273.15 665.834 1271.46 664.817C1269.79 663.771 1268.46 662.331 1267.48 660.494C1266.52 658.629 1266.03 656.525 1266.03 654.18C1266.03 651.835 1266.52 649.772 1267.48 647.993C1268.46 646.184 1269.79 644.786 1271.46 643.797C1273.15 642.808 1275.05 642.314 1277.14 642.314ZM1277.82 645.662C1276.43 645.662 1275.13 646.001 1273.92 646.679C1272.73 647.357 1271.77 648.346 1271.04 649.645C1270.33 650.917 1269.98 652.428 1269.98 654.18C1269.98 655.931 1270.33 657.485 1271.04 658.841C1271.77 660.169 1272.73 661.2 1273.92 661.935C1275.13 662.67 1276.43 663.037 1277.82 663.037C1279.23 663.037 1280.53 662.684 1281.71 661.977C1282.93 661.271 1283.89 660.268 1284.6 658.969C1285.33 657.641 1285.7 656.101 1285.7 654.349C1285.7 652.598 1285.33 651.072 1284.6 649.772C1283.89 648.445 1282.93 647.427 1281.71 646.721C1280.53 646.015 1279.23 645.662 1277.82 645.662ZM1299.81 646.636C1301.19 643.755 1303.55 642.314 1306.88 642.314V646.34H1305.87C1303.89 646.34 1302.38 646.862 1301.33 647.908C1300.32 648.925 1299.81 650.705 1299.81 653.247V665.961H1295.95V642.695H1299.81V646.636ZM1318.76 654.265L1329.73 665.961H1324.52L1315.41 655.748V665.961H1311.55V634.601H1315.41V652.993L1324.31 642.695H1329.73L1318.76 654.265ZM1354.38 653.375C1354.38 654.194 1354.33 654.957 1354.21 655.663H1335.7C1335.81 657.98 1336.53 659.816 1337.86 661.172C1339.21 662.5 1340.94 663.164 1343.03 663.164C1344.61 663.164 1345.94 662.811 1347.01 662.105C1348.11 661.398 1348.92 660.466 1349.43 659.308H1353.58C1352.84 661.342 1351.57 663.023 1349.77 664.351C1347.99 665.678 1345.74 666.342 1343.03 666.342C1340.85 666.342 1338.9 665.848 1337.18 664.859C1335.48 663.87 1334.16 662.472 1333.2 660.664C1332.23 658.827 1331.75 656.722 1331.75 654.349C1331.75 651.948 1332.23 649.843 1333.2 648.035C1334.16 646.199 1335.51 644.786 1337.26 643.797C1339.02 642.808 1341.04 642.314 1343.32 642.314C1345.5 642.314 1347.42 642.794 1349.09 643.755C1350.75 644.715 1352.05 646.029 1352.99 647.696C1353.92 649.363 1354.38 651.256 1354.38 653.375ZM1350.36 652.866C1350.36 651.369 1350.03 650.069 1349.38 648.967C1348.73 647.837 1347.84 646.975 1346.71 646.382C1345.61 645.789 1344.38 645.492 1343.03 645.492C1341.02 645.492 1339.34 646.156 1337.98 647.484C1336.63 648.784 1335.88 650.578 1335.74 652.866H1350.36ZM1369.99 662.825V665.961H1366.09C1364.12 665.961 1362.61 665.481 1361.56 664.52C1360.54 663.559 1360.03 662.048 1360.03 659.986V645.831H1357.03V642.695H1360.03V636.932H1363.93V642.695H1369.95V645.831H1363.93V659.986C1363.93 661.031 1364.15 661.765 1364.57 662.189C1364.99 662.613 1365.74 662.825 1366.82 662.825H1369.99ZM1373.62 636.338C1373.62 635.604 1373.87 634.982 1374.38 634.474C1374.89 633.965 1375.49 633.711 1376.2 633.711C1376.94 633.711 1377.56 633.965 1378.07 634.474C1378.57 634.982 1378.83 635.604 1378.83 636.338C1378.83 637.073 1378.57 637.695 1378.07 638.203C1377.56 638.712 1376.94 638.966 1376.2 638.966C1375.47 638.966 1374.84 638.712 1374.34 638.203C1373.86 637.695 1373.62 637.073 1373.62 636.338ZM1378.11 642.695V665.961H1374.25V642.695H1378.11ZM1395.92 642.314C1397.58 642.314 1399.09 642.695 1400.45 643.458C1401.83 644.193 1402.92 645.309 1403.71 646.806C1404.53 648.275 1404.94 650.069 1404.94 652.188V665.961H1401.13V652.824C1401.13 650.479 1400.56 648.699 1399.43 647.484C1398.3 646.269 1396.73 645.662 1394.73 645.662C1392.75 645.662 1391.18 646.269 1390.02 647.484C1388.89 648.699 1388.33 650.479 1388.33 652.824V665.961H1384.47V642.695H1388.33V646.467C1389.09 645.111 1390.14 644.08 1391.47 643.373C1392.79 642.667 1394.28 642.314 1395.92 642.314ZM1420.66 642.314C1422.64 642.314 1424.36 642.78 1425.83 643.712C1427.33 644.645 1428.46 645.859 1429.22 647.357V642.695H1433.12V666.554C1433.12 668.673 1432.65 670.552 1431.72 672.191C1430.79 673.829 1429.48 675.101 1427.78 676.005C1426.09 676.937 1424.12 677.403 1421.89 677.403C1419.94 677.403 1418.16 677.064 1416.55 676.386C1414.94 675.736 1413.63 674.804 1412.61 673.589C1411.59 672.374 1410.99 670.99 1410.79 669.436H1414.56C1414.93 670.764 1415.79 671.866 1417.14 672.741C1418.5 673.617 1420.08 674.055 1421.89 674.055C1424.09 674.055 1425.86 673.391 1427.19 672.063C1428.54 670.764 1429.22 668.927 1429.22 666.554V661.215C1428.46 662.74 1427.33 663.983 1425.83 664.944C1424.36 665.876 1422.64 666.342 1420.66 666.342C1418.57 666.342 1416.68 665.834 1414.98 664.817C1413.32 663.771 1411.99 662.331 1411 660.494C1410.04 658.629 1409.56 656.525 1409.56 654.18C1409.56 651.835 1410.04 649.772 1411 647.993C1411.99 646.184 1413.32 644.786 1414.98 643.797C1416.68 642.808 1418.57 642.314 1420.66 642.314ZM1421.34 645.662C1419.96 645.662 1418.66 646.001 1417.44 646.679C1416.25 647.357 1415.29 648.346 1414.56 649.645C1413.85 650.917 1413.5 652.428 1413.5 654.18C1413.5 655.931 1413.85 657.485 1414.56 658.841C1415.29 660.169 1416.25 661.2 1417.44 661.935C1418.66 662.67 1419.96 663.037 1421.34 663.037C1422.75 663.037 1424.05 662.684 1425.24 661.977C1426.45 661.271 1427.41 660.268 1428.12 658.969C1428.85 657.641 1429.22 656.101 1429.22 654.349C1429.22 652.598 1428.85 651.072 1428.12 649.772C1427.41 648.445 1426.45 647.427 1425.24 646.721C1424.05 646.015 1422.75 645.662 1421.34 645.662ZM1460.19 642.314C1462.7 642.314 1464.7 642.978 1466.16 644.306C1467.63 645.605 1468.44 647.399 1468.58 649.688H1464.6C1464.54 648.388 1464.1 647.343 1463.28 646.552C1462.46 645.761 1461.33 645.365 1459.89 645.365C1458.42 645.365 1457.26 645.718 1456.42 646.425C1455.6 647.103 1455.19 647.964 1455.19 649.01C1455.19 649.885 1455.44 650.592 1455.95 651.129C1456.49 651.637 1457.14 652.018 1457.9 652.273C1458.69 652.527 1459.75 652.795 1461.08 653.078C1462.77 653.473 1464.13 653.869 1465.15 654.265C1466.19 654.632 1467.08 655.267 1467.82 656.172C1468.55 657.047 1468.92 658.248 1468.92 659.774C1468.92 661.045 1468.55 662.189 1467.82 663.206C1467.08 664.195 1466.05 664.972 1464.72 665.537C1463.4 666.074 1461.87 666.342 1460.15 666.342C1457.55 666.342 1455.46 665.693 1453.87 664.393C1452.32 663.093 1451.47 661.299 1451.33 659.011H1455.32C1455.37 660.31 1455.82 661.356 1456.67 662.147C1457.55 662.91 1458.71 663.291 1460.15 663.291C1461.73 663.291 1462.94 662.966 1463.79 662.316C1464.67 661.667 1465.1 660.805 1465.1 659.731C1465.1 658.856 1464.84 658.163 1464.3 657.655C1463.79 657.118 1463.14 656.722 1462.35 656.468C1461.56 656.186 1460.47 655.889 1459.09 655.578C1457.42 655.211 1456.06 654.844 1455.02 654.476C1454 654.081 1453.13 653.473 1452.39 652.654C1451.68 651.835 1451.33 650.705 1451.33 649.264C1451.33 647.993 1451.68 646.834 1452.39 645.789C1453.13 644.715 1454.16 643.868 1455.48 643.246C1456.84 642.625 1458.41 642.314 1460.19 642.314ZM1495.59 653.375C1495.59 654.194 1495.53 654.957 1495.42 655.663H1476.9C1477.01 657.98 1477.73 659.816 1479.06 661.172C1480.42 662.5 1482.14 663.164 1484.23 663.164C1485.82 663.164 1487.14 662.811 1488.22 662.105C1489.32 661.398 1490.12 660.466 1490.63 659.308H1494.79C1494.05 661.342 1492.78 663.023 1490.97 664.351C1489.19 665.678 1486.95 666.342 1484.23 666.342C1482.06 666.342 1480.11 665.848 1478.38 664.859C1476.69 663.87 1475.36 662.472 1474.4 660.664C1473.44 658.827 1472.96 656.722 1472.96 654.349C1472.96 651.948 1473.44 649.843 1474.4 648.035C1475.36 646.199 1476.72 644.786 1478.47 643.797C1480.22 642.808 1482.24 642.314 1484.53 642.314C1486.71 642.314 1488.63 642.794 1490.29 643.755C1491.96 644.715 1493.26 646.029 1494.19 647.696C1495.12 649.363 1495.59 651.256 1495.59 653.375ZM1491.56 652.866C1491.56 651.369 1491.24 650.069 1490.59 648.967C1489.94 647.837 1489.05 646.975 1487.92 646.382C1486.82 645.789 1485.59 645.492 1484.23 645.492C1482.23 645.492 1480.55 646.156 1479.19 647.484C1477.83 648.784 1477.09 650.578 1476.94 652.866H1491.56ZM1504.25 646.636C1505.63 643.755 1507.99 642.314 1511.33 642.314V646.34H1510.31C1508.33 646.34 1506.82 646.862 1505.78 647.908C1504.76 648.925 1504.25 650.705 1504.25 653.247V665.961H1500.39V642.695H1504.25V646.636ZM1524.56 662.359L1531.72 642.695H1535.87L1526.76 665.961H1522.39L1513.33 642.695H1517.44L1524.56 662.359ZM1538.91 636.338C1538.91 635.604 1539.16 634.982 1539.67 634.474C1540.18 633.965 1540.79 633.711 1541.49 633.711C1542.23 633.711 1542.85 633.965 1543.36 634.474C1543.87 634.982 1544.12 635.604 1544.12 636.338C1544.12 637.073 1543.87 637.695 1543.36 638.203C1542.85 638.712 1542.23 638.966 1541.49 638.966C1540.76 638.966 1540.14 638.712 1539.63 638.203C1539.15 637.695 1538.91 637.073 1538.91 636.338ZM1543.4 642.695V665.961H1539.54V642.695H1543.4ZM1559.51 642.314C1562.31 642.314 1564.58 642.964 1566.34 644.263C1568.12 645.563 1569.36 647.413 1570.06 649.815H1565.91C1565.46 648.459 1564.68 647.399 1563.58 646.636C1562.48 645.874 1561.12 645.492 1559.51 645.492C1557.31 645.492 1555.53 646.269 1554.17 647.823C1552.84 649.349 1552.18 651.524 1552.18 654.349C1552.18 657.146 1552.84 659.322 1554.17 660.876C1555.53 662.401 1557.31 663.164 1559.51 663.164C1561.15 663.164 1562.51 662.797 1563.58 662.062C1564.65 661.328 1565.43 660.254 1565.91 658.841H1570.06C1569.36 661.13 1568.1 662.952 1566.29 664.308C1564.51 665.664 1562.25 666.342 1559.51 666.342C1557.34 666.342 1555.39 665.848 1553.66 664.859C1551.97 663.87 1550.64 662.472 1549.68 660.664C1548.72 658.827 1548.24 656.722 1548.24 654.349C1548.24 651.948 1548.72 649.843 1549.68 648.035C1550.64 646.199 1551.97 644.786 1553.66 643.797C1555.36 642.808 1557.31 642.314 1559.51 642.314ZM1596.28 653.375C1596.28 654.194 1596.22 654.957 1596.11 655.663H1577.59C1577.7 657.98 1578.42 659.816 1579.75 661.172C1581.11 662.5 1582.83 663.164 1584.92 663.164C1586.51 663.164 1587.83 662.811 1588.91 662.105C1590.01 661.398 1590.81 660.466 1591.32 659.308H1595.48C1594.74 661.342 1593.47 663.023 1591.66 664.351C1589.88 665.678 1587.64 666.342 1584.92 666.342C1582.75 666.342 1580.8 665.848 1579.07 664.859C1577.38 663.87 1576.05 662.472 1575.09 660.664C1574.13 658.827 1573.65 656.722 1573.65 654.349C1573.65 651.948 1574.13 649.843 1575.09 648.035C1576.05 646.199 1577.41 644.786 1579.16 643.797C1580.91 642.808 1582.93 642.314 1585.22 642.314C1587.4 642.314 1589.32 642.794 1590.98 643.755C1592.65 644.715 1593.95 646.029 1594.88 647.696C1595.81 649.363 1596.28 651.256 1596.28 653.375ZM1592.25 652.866C1592.25 651.369 1591.93 650.069 1591.28 648.967C1590.63 647.837 1589.74 646.975 1588.61 646.382C1587.51 645.789 1586.28 645.492 1584.92 645.492C1582.92 645.492 1581.24 646.156 1579.88 647.484C1578.52 648.784 1577.78 650.578 1577.63 652.866H1592.25ZM1609.09 642.314C1611.61 642.314 1613.6 642.978 1615.07 644.306C1616.54 645.605 1617.34 647.399 1617.48 649.688H1613.5C1613.44 648.388 1613.01 647.343 1612.19 646.552C1611.37 645.761 1610.24 645.365 1608.8 645.365C1607.33 645.365 1606.17 645.718 1605.32 646.425C1604.5 647.103 1604.09 647.964 1604.09 649.01C1604.09 649.885 1604.35 650.592 1604.85 651.129C1605.39 651.637 1606.04 652.018 1606.8 652.273C1607.6 652.527 1608.65 652.795 1609.98 653.078C1611.68 653.473 1613.03 653.869 1614.05 654.265C1615.1 654.632 1615.99 655.267 1616.72 656.172C1617.46 657.047 1617.82 658.248 1617.82 659.774C1617.82 661.045 1617.46 662.189 1616.72 663.206C1615.99 664.195 1614.95 664.972 1613.63 665.537C1612.3 666.074 1610.77 666.342 1609.05 666.342C1606.45 666.342 1604.36 665.693 1602.78 664.393C1601.22 663.093 1600.38 661.299 1600.24 659.011H1604.22C1604.28 660.31 1604.73 661.356 1605.58 662.147C1606.45 662.91 1607.61 663.291 1609.05 663.291C1610.63 663.291 1611.85 662.966 1612.69 662.316C1613.57 661.667 1614.01 660.805 1614.01 659.731C1614.01 658.856 1613.74 658.163 1613.2 657.655C1612.69 657.118 1612.04 656.722 1611.25 656.468C1610.46 656.186 1609.37 655.889 1607.99 655.578C1606.32 655.211 1604.97 654.844 1603.92 654.476C1602.91 654.081 1602.03 653.473 1601.29 652.654C1600.59 651.835 1600.24 650.705 1600.24 649.264C1600.24 647.993 1600.59 646.834 1601.29 645.789C1602.03 644.715 1603.06 643.868 1604.39 643.246C1605.74 642.625 1607.31 642.314 1609.09 642.314ZM1622.54 663.503C1622.54 662.797 1622.78 662.203 1623.26 661.723C1623.74 661.243 1624.32 661.003 1625 661.003C1625.68 661.003 1626.26 661.243 1626.74 661.723C1627.22 662.203 1627.46 662.797 1627.46 663.503C1627.46 664.181 1627.22 664.76 1626.74 665.241C1626.26 665.721 1625.68 665.961 1625 665.961C1624.32 665.961 1623.74 665.721 1623.26 665.241C1622.78 664.76 1622.54 664.181 1622.54 663.503Z" fill="white" fill-opacity="0.5"/>
<defs>
<linearGradient id="paint0_linear_595_226" x1="1998.49" y1="1652.28" x2="-3004.5" y2="1698.2" gradientUnits="userSpaceOnUse">
<stop stop-color="#102E4A"/>
<stop offset="1" stop-color="#5D94C8"/>
</linearGradient>
</defs>
</svg>
