<svg width="1294" height="682" viewBox="0 0 1294 682" fill="none" xmlns="http://www.w3.org/2000/svg">
<path d="M106.153 42.4206L84.8588 116H67.9925L53.7615 64.6631L39.1088 116H22.2425L1.37039 42.4206H17.1826L31.3082 99.2391L46.1716 42.4206H62.9326L76.9527 98.712L90.235 42.4206H106.153ZM169.457 85.9568C169.457 87.9948 169.317 89.8923 169.036 91.6492H126.448C126.8 95.4441 128.205 98.5012 130.665 100.82C133.124 103.139 136.252 104.299 140.047 104.299C142.998 104.299 145.353 103.737 147.109 102.612C148.866 101.488 150.307 99.9418 151.431 97.9741H167.455C165.768 103.526 162.5 108.059 157.651 111.573C152.802 115.086 146.934 116.843 140.047 116.843C134.495 116.843 129.54 115.613 125.183 113.154C120.826 110.624 117.418 107.11 114.958 102.612C112.498 98.0444 111.268 92.7385 111.268 86.6947C111.268 80.6509 112.498 75.3802 114.958 70.8825C117.418 66.3848 120.826 62.9061 125.183 60.4465C129.611 57.9868 134.635 56.757 140.258 56.757C145.88 56.757 150.869 57.9517 155.226 60.3411C159.654 62.7305 163.133 66.1389 165.662 70.5663C168.192 74.9234 169.457 80.0536 169.457 85.9568ZM154.067 82.0565C153.856 78.1913 152.415 75.0991 149.745 72.78C147.145 70.4609 143.912 69.3013 140.047 69.3013C136.463 69.3013 133.406 70.4609 130.876 72.78C128.416 75.0991 126.94 78.1913 126.448 82.0565H154.067ZM274.116 42.4206V116H259.253V84.481H227.628V116H212.765V42.4206H227.628V73.0962H259.253V42.4206H274.116ZM344.05 85.9568C344.05 87.9948 343.91 89.8923 343.629 91.6492H301.041C301.393 95.4441 302.798 98.5012 305.258 100.82C307.718 103.139 310.845 104.299 314.64 104.299C317.591 104.299 319.946 103.737 321.703 102.612C323.459 101.488 324.9 99.9418 326.025 97.9741H342.048C340.361 103.526 337.093 108.059 332.244 111.573C327.395 115.086 321.527 116.843 314.64 116.843C309.088 116.843 304.133 115.613 299.776 113.154C295.419 110.624 292.011 107.11 289.551 102.612C287.091 98.0444 285.862 92.7385 285.862 86.6947C285.862 80.6509 287.091 75.3802 289.551 70.8825C292.011 66.3848 295.419 62.9061 299.776 60.4465C304.204 57.9868 309.228 56.757 314.851 56.757C320.473 56.757 325.462 57.9517 329.819 60.3411C334.247 62.7305 337.726 66.1389 340.256 70.5663C342.785 74.9234 344.05 80.0536 344.05 85.9568ZM328.66 82.0565C328.449 78.1913 327.008 75.0991 324.338 72.78C321.738 70.4609 318.505 69.3013 314.64 69.3013C311.056 69.3013 307.999 70.4609 305.469 72.78C303.009 75.0991 301.533 78.1913 301.041 82.0565H328.66ZM370.617 37.9931V116H355.754V37.9931H370.617ZM420.059 56.757C425.048 56.757 429.616 58.0219 433.762 60.5519C437.909 63.0818 441.177 66.6308 443.566 71.1988C445.955 75.6965 447.15 80.8618 447.15 86.6947C447.15 92.5277 445.955 97.7633 443.566 102.402C441.177 106.969 437.909 110.518 433.762 113.048C429.616 115.578 425.048 116.843 420.059 116.843C415.842 116.843 412.152 115.895 408.99 113.997C405.898 112.1 403.333 109.499 401.295 106.196V143.829H386.431V57.6003H401.295V66.6659C403.192 63.5738 405.722 61.1492 408.885 59.3923C412.117 57.6354 415.842 56.757 420.059 56.757ZM416.685 69.6175C414.015 69.6175 411.485 70.2852 409.095 71.6204C406.776 72.9557 404.879 74.9234 403.403 77.5236C401.997 80.1239 401.295 83.216 401.295 86.8001C401.295 90.3842 401.997 93.4764 403.403 96.0766C404.879 98.6769 406.776 100.645 409.095 101.98C411.485 103.315 414.015 103.983 416.685 103.983C419.356 103.983 421.851 103.315 424.17 101.98C426.559 100.645 428.457 98.6769 429.862 96.0766C431.338 93.4061 432.076 90.2788 432.076 86.6947C432.076 83.1106 431.338 80.0185 429.862 77.4182C428.457 74.818 426.559 72.8854 424.17 71.6204C421.851 70.2852 419.356 69.6175 416.685 69.6175ZM541.953 94.6008C541.953 98.5363 540.863 102.191 538.685 105.564C536.576 108.937 533.519 111.643 529.514 113.681C525.578 115.719 520.975 116.738 515.704 116.738C507.622 116.738 501.122 114.876 496.203 111.151C491.283 107.356 488.824 102.05 488.824 95.2333H504.636C504.917 98.3957 505.971 100.82 507.798 102.507C509.696 104.123 512.331 104.931 515.704 104.931C519.078 104.931 521.748 104.053 523.716 102.296C525.684 100.539 526.667 98.2552 526.667 95.4441C526.667 93.1953 525.965 91.3681 524.559 89.9626C523.224 88.557 521.537 87.4678 519.499 86.6947C517.531 85.9217 514.72 85.0432 511.066 84.0594C506.357 82.8647 502.527 81.6348 499.576 80.3698C496.624 79.1049 494.094 77.1371 491.986 74.4666C489.878 71.7258 488.824 68.0363 488.824 63.3981C488.824 58.9707 489.913 55.1055 492.091 51.8025C494.34 48.4292 497.432 45.8641 501.368 44.1072C505.303 42.28 509.766 41.3664 514.756 41.3664C522.416 41.3664 528.565 43.1233 533.203 46.6371C537.841 50.0807 540.371 55.3514 540.793 62.4493H524.559C524.278 59.6383 523.224 57.4246 521.397 55.8082C519.569 54.1216 517.215 53.2783 514.334 53.2783C511.312 53.2783 508.852 54.0513 506.955 55.5974C505.128 57.0732 504.214 59.3572 504.214 62.4493C504.214 64.7685 504.882 66.6659 506.217 68.1417C507.622 69.5473 509.344 70.6366 511.382 71.4096C513.42 72.1826 516.231 73.0259 519.815 73.9395C524.524 75.1342 528.354 76.3641 531.306 77.6291C534.257 78.894 536.752 80.8969 538.79 83.6377C540.898 86.3082 541.953 89.9626 541.953 94.6008ZM629.449 56.757C636.407 56.757 641.993 58.9355 646.21 63.2927C650.497 67.6498 652.64 73.7639 652.64 81.6348V116H637.882V83.7431C637.882 79.1751 636.723 75.6965 634.404 73.3071C632.085 70.8474 628.922 69.6175 624.916 69.6175C620.911 69.6175 617.713 70.8474 615.324 73.3071C613.004 75.6965 611.845 79.1751 611.845 83.7431V116H597.087V83.7431C597.087 79.1751 595.927 75.6965 593.608 73.3071C591.289 70.8474 588.127 69.6175 584.121 69.6175C580.115 69.6175 576.918 70.8474 574.528 73.3071C572.209 75.6965 571.049 79.1751 571.049 83.7431V116H556.186V57.6003H571.049V66.3497C572.877 63.2575 575.336 60.9033 578.428 59.2869C581.591 57.6003 585.175 56.757 589.181 56.757C593.608 56.757 597.544 57.776 600.987 59.814C604.501 61.852 607.207 64.7685 609.104 68.5634C611.142 64.909 613.918 62.0277 617.432 59.9194C621.016 57.8111 625.022 56.757 629.449 56.757ZM690.861 56.757C695.007 56.757 698.696 57.6354 701.929 59.3923C705.162 61.1492 707.762 63.5738 709.73 66.6659V57.6003H724.488V116H709.73V106.196C707.692 109.499 705.056 112.1 701.824 113.997C698.661 115.895 695.007 116.843 690.861 116.843C685.871 116.843 681.303 115.578 677.157 113.048C673.081 110.448 669.813 106.864 667.353 102.296C664.964 97.7281 663.769 92.5277 663.769 86.6947C663.769 80.8618 664.964 75.6965 667.353 71.1988C669.813 66.6308 673.081 63.0818 677.157 60.5519C681.303 58.0219 685.871 56.757 690.861 56.757ZM694.234 69.6175C691.634 69.6175 689.139 70.2852 686.749 71.6204C684.43 72.9557 682.533 74.9234 681.057 77.5236C679.581 80.0536 678.843 83.1106 678.843 86.6947C678.843 90.2788 679.581 93.4061 681.057 96.0766C682.533 98.6769 684.43 100.645 686.749 101.98C689.139 103.315 691.634 103.983 694.234 103.983C696.904 103.983 699.399 103.315 701.718 101.98C704.108 100.645 706.04 98.6769 707.516 96.0766C708.992 93.4764 709.73 90.3842 709.73 86.8001C709.73 83.216 708.992 80.1239 707.516 77.5236C706.04 74.9234 704.108 72.9557 701.718 71.6204C699.399 70.2852 696.904 69.6175 694.234 69.6175ZM755.113 37.9931V116H740.25V37.9931H755.113ZM785.791 37.9931V116H770.927V37.9931H785.791ZM47.6474 236.367C52.4965 237.07 56.3617 239.178 59.243 242.692C62.1947 246.135 63.6705 250.141 63.6705 254.709C63.6705 258.504 62.6866 261.877 60.7189 264.829C58.8214 267.71 56.0455 269.959 52.3911 271.575C48.7367 273.192 44.4147 274 39.4251 274H7.9061V200.421H37.7385C42.7281 200.421 47.0501 201.264 50.7045 202.951C54.4291 204.637 57.2402 206.956 59.1376 209.908C61.0351 212.859 61.9838 216.162 61.9838 219.817C61.9838 223.963 60.7189 227.442 58.1889 230.253C55.7292 232.994 52.2154 235.032 47.6474 236.367ZM22.7696 230.885H36.1572C39.4602 230.885 42.0605 230.077 43.9579 228.461C45.9257 226.774 46.9095 224.42 46.9095 221.398C46.9095 218.376 45.9257 216.022 43.9579 214.335C42.0605 212.649 39.4602 211.805 36.1572 211.805H22.7696V230.885ZM37.7385 262.615C41.0414 262.615 43.6768 261.737 45.6446 259.98C47.6826 258.153 48.7016 255.658 48.7016 252.495C48.7016 249.333 47.6826 246.838 45.6446 245.011C43.6065 243.184 40.936 242.27 37.633 242.27H22.7696V262.615H37.7385ZM131.599 215.6V274H116.735V265.145C114.908 268.237 112.413 270.627 109.251 272.313C106.159 273.93 102.575 274.738 98.4985 274.738C94.2116 274.738 90.3464 273.789 86.9029 271.892C83.5296 269.924 80.8591 267.078 78.8914 263.353C76.9236 259.558 75.9397 255.06 75.9397 249.86V215.6H90.6978V247.752C90.6978 252.32 91.8574 255.834 94.1765 258.293C96.4956 260.753 99.658 261.983 103.664 261.983C107.67 261.983 110.832 260.753 113.151 258.293C115.541 255.834 116.735 252.32 116.735 247.752V215.6H131.599ZM168.267 214.757C174.944 214.757 180.425 216.479 184.712 219.922C188.999 223.296 191.283 227.899 191.564 233.732H176.384C175.963 228.812 172.941 226.353 167.319 226.353C164.508 226.353 162.329 226.915 160.783 228.039C159.237 229.164 158.464 230.639 158.464 232.467C158.464 234.013 159.026 235.243 160.15 236.156C161.275 237.07 162.645 237.808 164.262 238.37C165.948 238.862 168.338 239.459 171.43 240.162C175.717 241.075 179.23 242.059 181.971 243.113C184.782 244.097 187.172 245.714 189.139 247.963C191.107 250.141 192.091 253.163 192.091 257.028C192.091 260.542 191.072 263.634 189.034 266.305C186.996 268.975 184.185 271.084 180.601 272.63C177.017 274.105 172.976 274.843 168.478 274.843C161.451 274.843 155.723 273.227 151.296 269.994C146.868 266.691 144.444 261.983 144.022 255.869H159.202C159.483 258.258 160.432 260.085 162.048 261.35C163.664 262.615 165.843 263.248 168.584 263.248C171.324 263.248 173.538 262.65 175.225 261.456C176.911 260.191 177.755 258.609 177.755 256.712C177.755 255.166 177.192 253.936 176.068 253.022C174.944 252.039 173.538 251.301 171.851 250.809C170.165 250.247 167.74 249.614 164.578 248.911C160.291 247.998 156.777 247.049 154.036 246.065C151.366 245.081 149.047 243.535 147.079 241.427C145.111 239.248 144.127 236.332 144.127 232.677C144.127 229.445 145.076 226.458 146.974 223.717C148.871 220.976 151.647 218.798 155.301 217.181C158.956 215.565 163.278 214.757 168.267 214.757ZM203.154 200.737C203.154 198.207 204.032 196.063 205.789 194.307C207.546 192.55 209.654 191.671 212.114 191.671C214.644 191.671 216.787 192.55 218.544 194.307C220.301 196.063 221.18 198.207 221.18 200.737C221.18 203.267 220.301 205.41 218.544 207.167C216.787 208.924 214.644 209.802 212.114 209.802C209.654 209.802 207.546 208.924 205.789 207.167C204.032 205.41 203.154 203.267 203.154 200.737ZM219.599 215.6V274H204.735V215.6H219.599ZM268.407 214.757C272.764 214.757 276.63 215.741 280.003 217.709C283.446 219.606 286.152 222.452 288.12 226.247C290.087 229.972 291.071 234.434 291.071 239.635V274H276.313V241.743C276.313 237.175 275.154 233.696 272.835 231.307C270.515 228.847 267.353 227.618 263.347 227.618C259.342 227.618 256.144 228.847 253.755 231.307C251.435 233.696 250.276 237.175 250.276 241.743V274H235.412V215.6H250.276V224.35C252.103 221.258 254.563 218.903 257.655 217.287C260.817 215.6 264.401 214.757 268.407 214.757ZM360.419 243.957C360.419 245.995 360.278 247.892 359.997 249.649H317.409C317.761 253.444 319.166 256.501 321.626 258.82C324.086 261.139 327.213 262.299 331.008 262.299C333.959 262.299 336.314 261.737 338.071 260.612C339.828 259.488 341.268 257.942 342.393 255.974H358.416C356.729 261.526 353.461 266.059 348.612 269.573C343.763 273.086 337.895 274.843 331.008 274.843C325.456 274.843 320.501 273.613 316.144 271.154C311.787 268.624 308.379 265.11 305.919 260.612C303.459 256.044 302.23 250.738 302.23 244.695C302.23 238.651 303.459 233.38 305.919 228.883C308.379 224.385 311.787 220.906 316.144 218.446C320.572 215.987 325.597 214.757 331.219 214.757C336.841 214.757 341.83 215.952 346.188 218.341C350.615 220.73 354.094 224.139 356.624 228.566C359.154 232.923 360.419 238.054 360.419 243.957ZM345.028 240.056C344.817 236.191 343.376 233.099 340.706 230.78C338.106 228.461 334.873 227.301 331.008 227.301C327.424 227.301 324.367 228.461 321.837 230.78C319.377 233.099 317.901 236.191 317.409 240.056H345.028ZM392.994 214.757C399.67 214.757 405.152 216.479 409.439 219.922C413.726 223.296 416.01 227.899 416.291 233.732H401.111C400.689 228.812 397.668 226.353 392.045 226.353C389.234 226.353 387.056 226.915 385.51 228.039C383.964 229.164 383.191 230.639 383.191 232.467C383.191 234.013 383.753 235.243 384.877 236.156C386.002 237.07 387.372 237.808 388.988 238.37C390.675 238.862 393.064 239.459 396.157 240.162C400.443 241.075 403.957 242.059 406.698 243.113C409.509 244.097 411.899 245.714 413.866 247.963C415.834 250.141 416.818 253.163 416.818 257.028C416.818 260.542 415.799 263.634 413.761 266.305C411.723 268.975 408.912 271.084 405.328 272.63C401.744 274.105 397.703 274.843 393.205 274.843C386.177 274.843 380.45 273.227 376.022 269.994C371.595 266.691 369.17 261.983 368.749 255.869H383.928C384.21 258.258 385.158 260.085 386.775 261.35C388.391 262.615 390.57 263.248 393.31 263.248C396.051 263.248 398.265 262.65 399.952 261.456C401.638 260.191 402.481 258.609 402.481 256.712C402.481 255.166 401.919 253.936 400.795 253.022C399.67 252.039 398.265 251.301 396.578 250.809C394.892 250.247 392.467 249.614 389.305 248.911C385.018 247.998 381.504 247.049 378.763 246.065C376.093 245.081 373.774 243.535 371.806 241.427C369.838 239.248 368.854 236.332 368.854 232.677C368.854 229.445 369.803 226.458 371.7 223.717C373.598 220.976 376.374 218.798 380.028 217.181C383.683 215.565 388.005 214.757 392.994 214.757ZM450.334 214.757C457.01 214.757 462.492 216.479 466.779 219.922C471.066 223.296 473.349 227.899 473.631 233.732H458.451C458.029 228.812 455.007 226.353 449.385 226.353C446.574 226.353 444.396 226.915 442.85 228.039C441.303 229.164 440.53 230.639 440.53 232.467C440.53 234.013 441.093 235.243 442.217 236.156C443.341 237.07 444.712 237.808 446.328 238.37C448.015 238.862 450.404 239.459 453.496 240.162C457.783 241.075 461.297 242.059 464.038 243.113C466.849 244.097 469.238 245.714 471.206 247.963C473.174 250.141 474.158 253.163 474.158 257.028C474.158 260.542 473.139 263.634 471.101 266.305C469.063 268.975 466.252 271.084 462.667 272.63C459.083 274.105 455.042 274.843 450.545 274.843C443.517 274.843 437.79 273.227 433.362 269.994C428.935 266.691 426.51 261.983 426.089 255.869H441.268C441.549 258.258 442.498 260.085 444.114 261.35C445.731 262.615 447.909 263.248 450.65 263.248C453.391 263.248 455.605 262.65 457.291 261.456C458.978 260.191 459.821 258.609 459.821 256.712C459.821 255.166 459.259 253.936 458.135 253.022C457.01 252.039 455.605 251.301 453.918 250.809C452.231 250.247 449.807 249.614 446.644 248.911C442.358 247.998 438.844 247.049 436.103 246.065C433.432 245.081 431.113 243.535 429.146 241.427C427.178 239.248 426.194 236.332 426.194 232.677C426.194 229.445 427.143 226.458 429.04 223.717C430.938 220.976 433.714 218.798 437.368 217.181C441.022 215.565 445.344 214.757 450.334 214.757ZM540.879 243.957C540.879 245.995 540.739 247.892 540.458 249.649H497.87C498.222 253.444 499.627 256.501 502.087 258.82C504.546 261.139 507.674 262.299 511.469 262.299C514.42 262.299 516.775 261.737 518.531 260.612C520.288 259.488 521.729 257.942 522.853 255.974H538.877C537.19 261.526 533.922 266.059 529.073 269.573C524.224 273.086 518.356 274.843 511.469 274.843C505.917 274.843 500.962 273.613 496.605 271.154C492.248 268.624 488.84 265.11 486.38 260.612C483.92 256.044 482.69 250.738 482.69 244.695C482.69 238.651 483.92 233.38 486.38 228.883C488.84 224.385 492.248 220.906 496.605 218.446C501.033 215.987 506.057 214.757 511.68 214.757C517.302 214.757 522.291 215.952 526.648 218.341C531.076 220.73 534.555 224.139 537.084 228.566C539.614 232.923 540.879 238.054 540.879 243.957ZM525.489 240.056C525.278 236.191 523.837 233.099 521.167 230.78C518.567 228.461 515.334 227.301 511.469 227.301C507.885 227.301 504.828 228.461 502.298 230.78C499.838 233.099 498.362 236.191 497.87 240.056H525.489ZM573.455 214.757C580.131 214.757 585.613 216.479 589.9 219.922C594.187 223.296 596.471 227.899 596.752 233.732H581.572C581.15 228.812 578.128 226.353 572.506 226.353C569.695 226.353 567.517 226.915 565.971 228.039C564.425 229.164 563.651 230.639 563.651 232.467C563.651 234.013 564.214 235.243 565.338 236.156C566.463 237.07 567.833 237.808 569.449 238.37C571.136 238.862 573.525 239.459 576.617 240.162C580.904 241.075 584.418 242.059 587.159 243.113C589.97 244.097 592.359 245.714 594.327 247.963C596.295 250.141 597.279 253.163 597.279 257.028C597.279 260.542 596.26 263.634 594.222 266.305C592.184 268.975 589.373 271.084 585.789 272.63C582.204 274.105 578.164 274.843 573.666 274.843C566.638 274.843 560.911 273.227 556.483 269.994C552.056 266.691 549.631 261.983 549.21 255.869H564.389C564.67 258.258 565.619 260.085 567.236 261.35C568.852 262.615 571.03 263.248 573.771 263.248C576.512 263.248 578.726 262.65 580.412 261.456C582.099 260.191 582.942 258.609 582.942 256.712C582.942 255.166 582.38 253.936 581.256 253.022C580.131 252.039 578.726 251.301 577.039 250.809C575.352 250.247 572.928 249.614 569.766 248.911C565.479 247.998 561.965 247.049 559.224 246.065C556.554 245.081 554.234 243.535 552.267 241.427C550.299 239.248 549.315 236.332 549.315 232.677C549.315 229.445 550.264 226.458 552.161 223.717C554.059 220.976 556.835 218.798 560.489 217.181C564.143 215.565 568.465 214.757 573.455 214.757ZM41.428 357.366C49.4395 357.366 56.5374 359.404 62.7217 363.48C68.9763 367.556 73.4389 373.284 76.1094 380.663H58.2943C54.9913 374.198 49.3692 370.965 41.428 370.965C37.0006 370.965 33.0651 371.949 29.6215 373.917C26.2483 375.884 23.6129 378.695 21.7154 382.35C19.818 386.004 18.8692 390.221 18.8692 394.999C18.8692 399.778 19.818 403.995 21.7154 407.649C23.6129 411.304 26.2483 414.15 29.6215 416.188C33.0651 418.156 37.0006 419.139 41.428 419.139C46.9095 419.139 51.3721 417.664 54.8156 414.712C58.3295 411.69 60.508 407.649 61.3513 402.589H36.8951V391.31H77.269V402.589C76.4959 407.719 74.493 412.604 71.2603 417.242C68.0276 421.81 63.811 425.535 58.6106 428.416C53.4804 431.227 47.7528 432.632 41.428 432.632C34.5409 432.632 28.216 431.051 22.4533 427.889C16.6907 424.656 12.1227 420.194 8.74942 414.501C5.44643 408.738 3.79493 402.238 3.79493 394.999C3.79493 387.831 5.44643 381.401 8.74942 375.709C12.1227 369.946 16.6907 365.448 22.4533 362.215C28.216 358.983 34.5409 357.366 41.428 357.366ZM103.787 383.931C105.614 380.417 107.968 377.676 110.849 375.709C113.801 373.741 117.139 372.757 120.864 372.757V387.937H117.174C112.747 387.937 109.409 389.061 107.16 391.31C104.911 393.489 103.787 397.283 103.787 402.695V432H88.923V373.6H103.787V383.931ZM157.582 372.757C163.134 372.757 168.194 373.987 172.761 376.446C177.329 378.906 180.949 382.42 183.619 386.988C186.29 391.486 187.625 396.721 187.625 402.695C187.625 408.668 186.29 413.939 183.619 418.507C180.949 423.075 177.294 426.624 172.656 429.154C168.088 431.613 162.993 432.843 157.371 432.843C151.819 432.843 146.759 431.613 142.191 429.154C137.623 426.624 134.004 423.075 131.334 418.507C128.733 413.939 127.433 408.668 127.433 402.695C127.433 396.721 128.768 391.486 131.439 386.988C134.109 382.42 137.729 378.906 142.297 376.446C146.865 373.987 151.96 372.757 157.582 372.757ZM157.476 385.301C153.26 385.301 149.711 386.812 146.829 389.834C143.948 392.856 142.507 397.178 142.507 402.8C142.507 406.595 143.175 409.828 144.51 412.498C145.916 415.099 147.743 417.066 149.992 418.402C152.241 419.666 154.7 420.299 157.371 420.299C159.971 420.299 162.431 419.631 164.75 418.296C167.069 416.961 168.931 414.993 170.337 412.393C171.813 409.722 172.551 406.525 172.551 402.8C172.551 399.005 171.848 395.808 170.442 393.207C169.037 390.537 167.174 388.569 164.855 387.304C162.607 385.969 160.147 385.301 157.476 385.301ZM279.813 373.6L261.893 432H246.081L236.066 392.786L225.946 432H210.134L192.214 373.6H207.183L217.935 417.98L228.687 373.6H244.289L254.83 417.874L265.582 373.6H279.813ZM418.176 358.421L396.882 432H380.016L365.785 380.663L351.132 432H334.266L313.394 358.421H329.206L343.331 415.239L358.195 358.421H374.956L388.976 414.712L402.258 358.421H418.176ZM425.822 358.737C425.822 356.207 426.7 354.063 428.457 352.307C430.214 350.55 432.322 349.671 434.782 349.671C437.312 349.671 439.455 350.55 441.212 352.307C442.969 354.063 443.848 356.207 443.848 358.737C443.848 361.267 442.969 363.41 441.212 365.167C439.455 366.924 437.312 367.802 434.782 367.802C432.322 367.802 430.214 366.924 428.457 365.167C426.7 363.41 425.822 361.267 425.822 358.737ZM442.266 373.6V432H427.403V373.6H442.266ZM487.807 419.561V432H478.425C472.452 432 467.849 430.63 464.616 427.889C461.383 425.148 459.767 420.615 459.767 414.29V385.723H453.547V373.6H459.767V359.158H474.63V373.6H487.702V385.723H474.63V414.29C474.63 416.188 475.087 417.558 476.001 418.402C476.914 419.175 478.496 419.561 480.744 419.561H487.807ZM532.356 372.757C536.713 372.757 540.578 373.741 543.951 375.709C547.395 377.606 550.1 380.452 552.068 384.247C554.036 387.972 555.02 392.434 555.02 397.635V432H540.262V399.743C540.262 395.175 539.102 391.696 536.783 389.307C534.464 386.847 531.301 385.618 527.296 385.618C523.29 385.618 520.092 386.847 517.703 389.307C515.384 391.696 514.224 395.175 514.224 399.743V432H499.361V353.993H514.224V382.35C516.052 379.258 518.511 376.903 521.603 375.287C524.766 373.6 528.35 372.757 532.356 372.757ZM682.114 358.421V432H667.356V385.512L647.327 432H636.68L616.757 385.723V432H601.893V358.421H618.443L642.056 412.92L665.669 358.421H682.114ZM720.92 372.757C725.067 372.757 728.756 373.635 731.989 375.392C735.222 377.149 737.822 379.574 739.789 382.666V373.6H754.548V432H739.789V422.196C737.751 425.499 735.116 428.1 731.883 429.997C728.721 431.895 725.067 432.843 720.92 432.843C715.931 432.843 711.363 431.578 707.216 429.048C703.14 426.448 699.872 422.864 697.413 418.296C695.023 413.728 693.829 408.528 693.829 402.695C693.829 396.862 695.023 391.696 697.413 387.199C699.872 382.631 703.14 379.082 707.216 376.552C711.363 374.022 715.931 372.757 720.92 372.757ZM724.294 385.618C721.693 385.618 719.198 386.285 716.809 387.62C714.49 388.956 712.592 390.923 711.117 393.524C709.641 396.054 708.903 399.111 708.903 402.695C708.903 406.279 709.641 409.406 711.117 412.077C712.592 414.677 714.49 416.645 716.809 417.98C719.198 419.315 721.693 419.983 724.294 419.983C726.964 419.983 729.459 419.315 731.778 417.98C734.167 416.645 736.1 414.677 737.576 412.077C739.052 409.476 739.789 406.384 739.789 402.8C739.789 399.216 739.052 396.124 737.576 393.524C736.1 390.923 734.167 388.956 731.778 387.62C729.459 386.285 726.964 385.618 724.294 385.618ZM785.173 383.931C787 380.417 789.354 377.676 792.236 375.709C795.187 373.741 798.525 372.757 802.25 372.757V387.937H798.561C794.133 387.937 790.795 389.061 788.546 391.31C786.297 393.489 785.173 397.283 785.173 402.695V432H770.309V373.6H785.173V383.931ZM841.604 403.116L867.536 432H847.718L827.689 407.649V432H812.825V353.993H827.689V398.584L847.401 373.6H867.536L841.604 403.116ZM930.111 401.957C930.111 403.995 929.97 405.892 929.689 407.649H887.102C887.453 411.444 888.858 414.501 891.318 416.82C893.778 419.139 896.905 420.299 900.7 420.299C903.652 420.299 906.006 419.737 907.763 418.612C909.52 417.488 910.96 415.942 912.085 413.974H928.108C926.421 419.526 923.153 424.059 918.304 427.573C913.455 431.086 907.587 432.843 900.7 432.843C895.148 432.843 890.194 431.613 885.837 429.154C881.479 426.624 878.071 423.11 875.611 418.612C873.152 414.044 871.922 408.738 871.922 402.695C871.922 396.651 873.152 391.38 875.611 386.883C878.071 382.385 881.479 378.906 885.837 376.446C890.264 373.987 895.289 372.757 900.911 372.757C906.533 372.757 911.523 373.952 915.88 376.341C920.307 378.73 923.786 382.139 926.316 386.566C928.846 390.923 930.111 396.054 930.111 401.957ZM914.72 398.056C914.509 394.191 913.069 391.099 910.398 388.78C907.798 386.461 904.565 385.301 900.7 385.301C897.116 385.301 894.059 386.461 891.529 388.78C889.069 391.099 887.593 394.191 887.102 398.056H914.72ZM971.541 419.561V432H962.159C956.186 432 951.583 430.63 948.35 427.889C945.117 425.148 943.501 420.615 943.501 414.29V385.723H937.281V373.6H943.501V359.158H958.364V373.6H971.436V385.723H958.364V414.29C958.364 416.188 958.821 417.558 959.735 418.402C960.648 419.175 962.23 419.561 964.478 419.561H971.541ZM981.514 358.737C981.514 356.207 982.392 354.063 984.149 352.307C985.906 350.55 988.014 349.671 990.474 349.671C993.004 349.671 995.147 350.55 996.904 352.307C998.661 354.063 999.539 356.207 999.539 358.737C999.539 361.267 998.661 363.41 996.904 365.167C995.147 366.924 993.004 367.802 990.474 367.802C988.014 367.802 985.906 366.924 984.149 365.167C982.392 363.41 981.514 361.267 981.514 358.737ZM997.958 373.6V432H983.095V373.6H997.958ZM1046.77 372.757C1051.12 372.757 1054.99 373.741 1058.36 375.709C1061.81 377.606 1064.51 380.452 1066.48 384.247C1068.45 387.972 1069.43 392.434 1069.43 397.635V432H1054.67V399.743C1054.67 395.175 1053.51 391.696 1051.19 389.307C1048.88 386.847 1045.71 385.618 1041.71 385.618C1037.7 385.618 1034.5 386.847 1032.11 389.307C1029.8 391.696 1028.64 395.175 1028.64 399.743V432H1013.77V373.6H1028.64V382.35C1030.46 379.258 1032.92 376.903 1036.01 375.287C1039.18 373.6 1042.76 372.757 1046.77 372.757ZM1107.68 372.757C1111.83 372.757 1115.52 373.635 1118.75 375.392C1121.98 377.149 1124.58 379.574 1126.55 382.666V373.6H1141.31V432.422C1141.31 437.833 1140.22 442.682 1138.04 446.969C1135.93 451.256 1132.7 454.629 1128.34 457.089C1124.06 459.619 1118.75 460.884 1112.42 460.884C1104.06 460.884 1097.24 459.021 1091.97 455.297C1086.77 451.642 1083.82 446.407 1083.12 439.59H1097.67C1098.58 442.19 1100.34 444.228 1102.94 445.704C1105.54 447.25 1108.7 448.023 1112.42 448.023C1116.57 448.023 1119.94 446.723 1122.54 444.123C1125.21 441.522 1126.55 437.622 1126.55 432.422V422.196C1124.51 425.499 1121.88 428.1 1118.64 429.997C1115.48 431.895 1111.83 432.843 1107.68 432.843C1102.69 432.843 1098.12 431.578 1093.98 429.048C1089.9 426.448 1086.63 422.864 1084.17 418.296C1081.78 413.728 1080.59 408.528 1080.59 402.695C1080.59 396.862 1081.78 391.696 1084.17 387.199C1086.63 382.631 1089.9 379.082 1093.98 376.552C1098.12 374.022 1102.69 372.757 1107.68 372.757ZM1111.05 385.618C1108.45 385.618 1105.96 386.285 1103.57 387.62C1101.25 388.956 1099.35 390.923 1097.88 393.524C1096.4 396.054 1095.66 399.111 1095.66 402.695C1095.66 406.279 1096.4 409.406 1097.88 412.077C1099.35 414.677 1101.25 416.645 1103.57 417.98C1105.96 419.315 1108.45 419.983 1111.05 419.983C1113.72 419.983 1116.22 419.315 1118.54 417.98C1120.93 416.645 1122.86 414.677 1124.34 412.077C1125.81 409.476 1126.55 406.384 1126.55 402.8C1126.55 399.216 1125.81 396.124 1124.34 393.524C1122.86 390.923 1120.93 388.956 1118.54 387.62C1116.22 386.285 1113.72 385.618 1111.05 385.618Z" fill="#1C1C1C"/>
<path d="M14.2759 580.507C16.8979 580.507 19.2287 581.127 21.2681 582.365C23.3318 583.603 24.8492 585.387 25.8204 587.718H21.8144C21.086 586.334 20.0663 585.278 18.7553 584.55C17.4442 583.821 15.9511 583.457 14.2759 583.457C12.4792 583.457 10.8526 583.87 9.39584 584.695C7.9634 585.497 6.83444 586.65 6.00897 588.155C5.20777 589.66 4.80717 591.396 4.80717 593.363C4.80717 595.33 5.20777 597.065 6.00897 598.571C6.83444 600.076 7.9634 601.241 9.39584 602.067C10.8526 602.892 12.4792 603.305 14.2759 603.305C16.8494 603.305 18.9374 602.552 20.5397 601.047C22.1664 599.542 23.1133 597.502 23.3803 594.929H12.9648V592.307H26.8765V594.929C26.658 597.065 25.966 598.996 24.8006 600.719C23.6596 602.443 22.1664 603.791 20.3212 604.762C18.5003 605.733 16.4852 606.219 14.2759 606.219C11.9208 606.219 9.76002 605.672 7.79345 604.58C5.82688 603.463 4.27304 601.933 3.13195 599.991C1.99085 598.024 1.4203 595.815 1.4203 593.363C1.4203 590.887 1.99085 588.677 3.13195 586.735C4.27304 584.768 5.82688 583.239 7.79345 582.146C9.76002 581.054 11.9208 580.507 14.2759 580.507ZM49.1768 595.184C49.1768 595.888 49.1282 596.543 49.0311 597.15H33.1165C33.2136 599.141 33.8327 600.719 34.9738 601.885C36.1392 603.026 37.6202 603.596 39.4168 603.596C40.7764 603.596 41.9175 603.293 42.8401 602.686C43.7869 602.079 44.4789 601.278 44.9159 600.282H48.4849C47.8536 602.03 46.7611 603.475 45.2072 604.616C43.6777 605.757 41.7475 606.328 39.4168 606.328C37.5473 606.328 35.8721 605.903 34.3911 605.053C32.9344 604.203 31.7933 603.002 30.9678 601.448C30.1423 599.87 29.7296 598.061 29.7296 596.021C29.7296 593.958 30.1423 592.149 30.9678 590.595C31.7933 589.017 32.9587 587.803 34.4639 586.953C35.9692 586.104 37.7051 585.679 39.6717 585.679C41.5412 585.679 43.1921 586.092 44.6245 586.917C46.057 587.742 47.1738 588.871 47.975 590.304C48.7762 591.736 49.1768 593.363 49.1768 595.184ZM45.7171 594.747C45.7171 593.46 45.4379 592.343 44.8795 591.396C44.3211 590.425 43.5563 589.685 42.5851 589.175C41.6383 588.665 40.5822 588.41 39.4168 588.41C37.693 588.41 36.2484 588.981 35.083 590.122C33.9177 591.239 33.2743 592.78 33.1529 594.747H45.7171ZM62.5906 603.305V606H59.2401C57.5406 606 56.2417 605.587 55.3434 604.762C54.4694 603.936 54.0323 602.637 54.0323 600.865V588.701H51.4467V586.007H54.0323V581.054H57.3828V586.007H62.5541V588.701H57.3828V600.865C57.3828 601.763 57.5649 602.395 57.9291 602.759C58.2932 603.123 58.9366 603.305 59.8592 603.305H62.5906ZM75.536 603.305V606H72.1856C70.4861 606 69.1872 605.587 68.2888 604.762C67.4148 603.936 66.9778 602.637 66.9778 600.865V588.701H64.3921V586.007H66.9778V581.054H70.3282V586.007H75.4996V588.701H70.3282V600.865C70.3282 601.763 70.5103 602.395 70.8745 602.759C71.2387 603.123 71.8821 603.305 72.8047 603.305H75.536ZM78.6486 580.544C78.6486 579.913 78.8671 579.378 79.3041 578.941C79.7412 578.504 80.2631 578.286 80.8701 578.286C81.5014 578.286 82.0355 578.504 82.4725 578.941C82.9095 579.378 83.128 579.913 83.128 580.544C83.128 581.175 82.9095 581.709 82.4725 582.146C82.0355 582.583 81.5014 582.802 80.8701 582.802C80.2389 582.802 79.7047 582.583 79.2677 582.146C78.855 581.709 78.6486 581.175 78.6486 580.544ZM82.5089 586.007V606H79.1949V586.007H82.5089ZM97.8122 585.679C99.2446 585.679 100.544 586.007 101.709 586.662C102.899 587.293 103.833 588.252 104.513 589.539C105.217 590.802 105.569 592.343 105.569 594.164V606H102.292V594.71C102.292 592.695 101.806 591.166 100.835 590.122C99.8637 589.078 98.5162 588.556 96.7925 588.556C95.093 588.556 93.7455 589.078 92.7501 590.122C91.7789 591.166 91.2933 592.695 91.2933 594.71V606H87.9793V586.007H91.2933V589.248C91.9489 588.082 92.8472 587.196 93.9883 586.589C95.1294 585.982 96.404 585.679 97.8122 585.679ZM119.078 585.679C120.777 585.679 122.258 586.079 123.521 586.881C124.807 587.682 125.779 588.726 126.434 590.013V586.007H129.785V606.51C129.785 608.331 129.384 609.945 128.583 611.353C127.782 612.762 126.653 613.854 125.196 614.631C123.739 615.432 122.052 615.833 120.134 615.833C118.459 615.833 116.929 615.542 115.545 614.959C114.161 614.4 113.032 613.599 112.158 612.555C111.284 611.511 110.762 610.322 110.592 608.986H113.834C114.149 610.127 114.89 611.074 116.055 611.827C117.22 612.58 118.58 612.956 120.134 612.956C122.028 612.956 123.545 612.385 124.686 611.244C125.851 610.127 126.434 608.549 126.434 606.51V601.921C125.779 603.232 124.807 604.3 123.521 605.126C122.258 605.927 120.777 606.328 119.078 606.328C117.281 606.328 115.654 605.891 114.198 605.017C112.765 604.118 111.624 602.88 110.774 601.302C109.949 599.7 109.536 597.891 109.536 595.876C109.536 593.861 109.949 592.088 110.774 590.559C111.624 589.005 112.765 587.803 114.198 586.953C115.654 586.104 117.281 585.679 119.078 585.679ZM119.66 588.556C118.471 588.556 117.354 588.847 116.31 589.43C115.29 590.013 114.465 590.862 113.834 591.979C113.227 593.072 112.923 594.371 112.923 595.876C112.923 597.381 113.227 598.716 113.834 599.882C114.465 601.023 115.29 601.909 116.31 602.54C117.354 603.172 118.471 603.487 119.66 603.487C120.874 603.487 121.991 603.184 123.011 602.577C124.055 601.97 124.88 601.108 125.487 599.991C126.119 598.85 126.434 597.527 126.434 596.021C126.434 594.516 126.119 593.205 125.487 592.088C124.88 590.947 124.055 590.073 123.011 589.466C121.991 588.859 120.874 588.556 119.66 588.556ZM155.449 603.305V606H152.099C150.399 606 149.1 605.587 148.202 604.762C147.328 603.936 146.891 602.637 146.891 600.865V588.701H144.305V586.007H146.891V581.054H150.242V586.007H155.413V588.701H150.242V600.865C150.242 601.763 150.424 602.395 150.788 602.759C151.152 603.123 151.795 603.305 152.718 603.305H155.449ZM168.941 585.679C170.373 585.679 171.672 586.007 172.838 586.662C174.027 587.293 174.962 588.252 175.642 589.539C176.346 590.802 176.698 592.343 176.698 594.164V606H173.42V594.71C173.42 592.695 172.935 591.166 171.964 590.122C170.993 589.078 169.645 588.556 167.921 588.556C166.222 588.556 164.874 589.078 163.879 590.122C162.908 591.166 162.422 592.695 162.422 594.71V606H159.108V579.051H162.422V589.248C163.078 588.082 163.976 587.196 165.117 586.589C166.258 585.982 167.533 585.679 168.941 585.679ZM200.112 595.184C200.112 595.888 200.064 596.543 199.967 597.15H184.052C184.149 599.141 184.768 600.719 185.909 601.885C187.075 603.026 188.556 603.596 190.352 603.596C191.712 603.596 192.853 603.293 193.776 602.686C194.722 602.079 195.414 601.278 195.851 600.282H199.42C198.789 602.03 197.697 603.475 196.143 604.616C194.613 605.757 192.683 606.328 190.352 606.328C188.483 606.328 186.808 605.903 185.327 605.053C183.87 604.203 182.729 603.002 181.903 601.448C181.078 599.87 180.665 598.061 180.665 596.021C180.665 593.958 181.078 592.149 181.903 590.595C182.729 589.017 183.894 587.803 185.399 586.953C186.905 586.104 188.641 585.679 190.607 585.679C192.477 585.679 194.128 586.092 195.56 586.917C196.992 587.742 198.109 588.871 198.91 590.304C199.712 591.736 200.112 593.363 200.112 595.184ZM196.653 594.747C196.653 593.46 196.373 592.343 195.815 591.396C195.257 590.425 194.492 589.685 193.521 589.175C192.574 588.665 191.518 588.41 190.352 588.41C188.628 588.41 187.184 588.981 186.019 590.122C184.853 591.239 184.21 592.78 184.088 594.747H196.653ZM225.865 585.679C227.661 585.679 229.276 586.104 230.708 586.953C232.165 587.803 233.306 589.005 234.132 590.559C234.981 592.088 235.406 593.861 235.406 595.876C235.406 597.891 234.981 599.7 234.132 601.302C233.306 602.88 232.165 604.118 230.708 605.017C229.276 605.891 227.661 606.328 225.865 606.328C224.165 606.328 222.672 605.927 221.385 605.126C220.123 604.3 219.152 603.232 218.472 601.921V606H215.158V579.051H218.472V590.013C219.152 588.726 220.123 587.682 221.385 586.881C222.672 586.079 224.165 585.679 225.865 585.679ZM225.209 588.556C224.019 588.556 222.903 588.859 221.859 589.466C220.839 590.073 220.013 590.947 219.382 592.088C218.775 593.205 218.472 594.516 218.472 596.021C218.472 597.527 218.775 598.85 219.382 599.991C220.013 601.108 220.839 601.97 221.859 602.577C222.903 603.184 224.019 603.487 225.209 603.487C226.399 603.487 227.516 603.184 228.56 602.577C229.604 601.945 230.429 601.047 231.036 599.882C231.667 598.716 231.983 597.381 231.983 595.876C231.983 594.371 231.667 593.072 231.036 591.979C230.429 590.862 229.604 590.013 228.56 589.43C227.54 588.847 226.423 588.556 225.209 588.556ZM247.785 585.679C249.485 585.679 250.966 586.079 252.228 586.881C253.515 587.682 254.486 588.726 255.142 590.013V586.007H258.492V606H255.142V601.921C254.486 603.232 253.515 604.3 252.228 605.126C250.966 605.927 249.485 606.328 247.785 606.328C245.989 606.328 244.362 605.891 242.905 605.017C241.473 604.118 240.332 602.88 239.482 601.302C238.657 599.7 238.244 597.891 238.244 595.876C238.244 593.861 238.657 592.088 239.482 590.559C240.332 589.005 241.473 587.803 242.905 586.953C244.362 586.104 245.989 585.679 247.785 585.679ZM248.368 588.556C247.178 588.556 246.062 588.847 245.018 589.43C243.998 590.013 243.172 590.862 242.541 591.979C241.934 593.072 241.631 594.371 241.631 595.876C241.631 597.381 241.934 598.716 242.541 599.882C243.172 601.023 243.998 601.909 245.018 602.54C246.062 603.172 247.178 603.487 248.368 603.487C249.582 603.487 250.699 603.184 251.719 602.577C252.763 601.97 253.588 601.108 254.195 599.991C254.826 598.85 255.142 597.527 255.142 596.021C255.142 594.516 254.826 593.205 254.195 592.088C253.588 590.947 252.763 590.073 251.719 589.466C250.699 588.859 249.582 588.556 248.368 588.556ZM267.266 579.051V606H263.952V579.051H267.266ZM276.051 579.051V606H272.737V579.051H276.051ZM295.753 589.393C296.943 586.917 298.97 585.679 301.835 585.679V589.138H300.961C299.262 589.138 297.963 589.588 297.064 590.486C296.19 591.36 295.753 592.89 295.753 595.075V606H292.439V586.007H295.753V589.393ZM314.624 585.679C316.518 585.679 318.229 586.104 319.759 586.953C321.288 587.803 322.49 589.017 323.364 590.595C324.262 592.173 324.712 593.982 324.712 596.021C324.712 598.037 324.25 599.833 323.328 601.411C322.405 602.965 321.155 604.179 319.577 605.053C317.999 605.903 316.25 606.328 314.332 606.328C312.463 606.328 310.776 605.903 309.27 605.053C307.789 604.203 306.624 603.002 305.774 601.448C304.949 599.87 304.536 598.061 304.536 596.021C304.536 593.958 304.973 592.149 305.847 590.595C306.745 589.017 307.959 587.803 309.489 586.953C311.018 586.104 312.73 585.679 314.624 585.679ZM314.515 588.41C313.301 588.41 312.196 588.701 311.2 589.284C310.205 589.867 309.404 590.729 308.797 591.87C308.214 593.011 307.923 594.395 307.923 596.021C307.923 597.624 308.202 598.996 308.76 600.137C309.343 601.278 310.12 602.14 311.091 602.722C312.062 603.305 313.143 603.596 314.332 603.596C315.546 603.596 316.675 603.305 317.719 602.722C318.788 602.115 319.649 601.241 320.305 600.1C320.961 598.959 321.288 597.6 321.288 596.021C321.288 594.419 320.973 593.047 320.341 591.906C319.734 590.741 318.909 589.867 317.865 589.284C316.845 588.701 315.728 588.41 314.515 588.41ZM332.171 579.051V606H328.857V579.051H332.171ZM340.956 579.051V606H337.642V579.051H340.956ZM345.88 580.544C345.88 579.913 346.098 579.378 346.535 578.941C346.972 578.504 347.494 578.286 348.101 578.286C348.733 578.286 349.267 578.504 349.704 578.941C350.141 579.378 350.359 579.913 350.359 580.544C350.359 581.175 350.141 581.709 349.704 582.146C349.267 582.583 348.733 582.802 348.101 582.802C347.47 582.802 346.936 582.583 346.499 582.146C346.086 581.709 345.88 581.175 345.88 580.544ZM349.74 586.007V606H346.426V586.007H349.74ZM365.043 585.679C366.476 585.679 367.775 586.007 368.94 586.662C370.13 587.293 371.064 588.252 371.744 589.539C372.448 590.802 372.8 592.343 372.8 594.164V606H369.523V594.71C369.523 592.695 369.037 591.166 368.066 590.122C367.095 589.078 365.747 588.556 364.024 588.556C362.324 588.556 360.977 589.078 359.981 590.122C359.01 591.166 358.525 592.695 358.525 594.71V606H355.21V586.007H358.525V589.248C359.18 588.082 360.078 587.196 361.219 586.589C362.361 585.982 363.635 585.679 365.043 585.679ZM386.309 585.679C388.008 585.679 389.489 586.079 390.752 586.881C392.039 587.682 393.01 588.726 393.665 590.013V586.007H397.016V606.51C397.016 608.331 396.615 609.945 395.814 611.353C395.013 612.762 393.884 613.854 392.427 614.631C390.97 615.432 389.283 615.833 387.365 615.833C385.69 615.833 384.16 615.542 382.776 614.959C381.392 614.4 380.264 613.599 379.389 612.555C378.515 611.511 377.993 610.322 377.823 608.986H381.065C381.38 610.127 382.121 611.074 383.286 611.827C384.452 612.58 385.811 612.956 387.365 612.956C389.259 612.956 390.776 612.385 391.917 611.244C393.083 610.127 393.665 608.549 393.665 606.51V601.921C393.01 603.232 392.039 604.3 390.752 605.126C389.489 605.927 388.008 606.328 386.309 606.328C384.512 606.328 382.886 605.891 381.429 605.017C379.996 604.118 378.855 602.88 378.006 601.302C377.18 599.7 376.767 597.891 376.767 595.876C376.767 593.861 377.18 592.088 378.006 590.559C378.855 589.005 379.996 587.803 381.429 586.953C382.886 586.104 384.512 585.679 386.309 585.679ZM386.892 588.556C385.702 588.556 384.585 588.847 383.541 589.43C382.521 590.013 381.696 590.862 381.065 591.979C380.458 593.072 380.154 594.371 380.154 595.876C380.154 597.381 380.458 598.716 381.065 599.882C381.696 601.023 382.521 601.909 383.541 602.54C384.585 603.172 385.702 603.487 386.892 603.487C388.106 603.487 389.222 603.184 390.242 602.577C391.286 601.97 392.111 601.108 392.718 599.991C393.35 598.85 393.665 597.527 393.665 596.021C393.665 594.516 393.35 593.205 392.718 592.088C392.111 590.947 391.286 590.073 390.242 589.466C389.222 588.859 388.106 588.556 386.892 588.556ZM421.624 588.701H417.436V606H414.086V588.701H411.5V586.007H414.086V584.331C414.086 582.146 414.669 580.556 415.834 579.561C416.999 578.565 418.832 578.067 421.333 578.067V580.762C419.876 580.762 418.857 581.042 418.274 581.6C417.716 582.134 417.436 583.045 417.436 584.331V586.007H421.624V588.701ZM434.191 585.679C436.085 585.679 437.797 586.104 439.326 586.953C440.856 587.803 442.058 589.017 442.932 590.595C443.83 592.173 444.279 593.982 444.279 596.021C444.279 598.037 443.818 599.833 442.895 601.411C441.973 602.965 440.722 604.179 439.144 605.053C437.566 605.903 435.818 606.328 433.9 606.328C432.031 606.328 430.343 605.903 428.838 605.053C427.357 604.203 426.192 603.002 425.342 601.448C424.516 599.87 424.104 598.061 424.104 596.021C424.104 593.958 424.541 592.149 425.415 590.595C426.313 589.017 427.527 587.803 429.056 586.953C430.586 586.104 432.298 585.679 434.191 585.679ZM434.082 588.41C432.868 588.41 431.764 588.701 430.768 589.284C429.773 589.867 428.972 590.729 428.365 591.87C427.782 593.011 427.491 594.395 427.491 596.021C427.491 597.624 427.77 598.996 428.328 600.137C428.911 601.278 429.688 602.14 430.659 602.722C431.63 603.305 432.71 603.596 433.9 603.596C435.114 603.596 436.243 603.305 437.287 602.722C438.355 602.115 439.217 601.241 439.873 600.1C440.528 598.959 440.856 597.6 440.856 596.021C440.856 594.419 440.54 593.047 439.909 591.906C439.302 590.741 438.477 589.867 437.433 589.284C436.413 588.701 435.296 588.41 434.082 588.41ZM451.739 589.393C452.929 586.917 454.956 585.679 457.821 585.679V589.138H456.947C455.247 589.138 453.948 589.588 453.05 590.486C452.176 591.36 451.739 592.89 451.739 595.075V606H448.425V586.007H451.739V589.393ZM474.098 586.007L480.217 602.176L486.444 586.007H489.867L477.813 615.359H474.39L478.359 605.672L470.457 586.007H474.098ZM501.799 585.679C503.693 585.679 505.405 586.104 506.934 586.953C508.464 587.803 509.666 589.017 510.54 590.595C511.438 592.173 511.887 593.982 511.887 596.021C511.887 598.037 511.426 599.833 510.503 601.411C509.581 602.965 508.33 604.179 506.752 605.053C505.174 605.903 503.426 606.328 501.508 606.328C499.639 606.328 497.951 605.903 496.446 605.053C494.965 604.203 493.8 603.002 492.95 601.448C492.124 599.87 491.712 598.061 491.712 596.021C491.712 593.958 492.149 592.149 493.023 590.595C493.921 589.017 495.135 587.803 496.664 586.953C498.194 586.104 499.906 585.679 501.799 585.679ZM501.69 588.41C500.476 588.41 499.372 588.701 498.376 589.284C497.381 589.867 496.579 590.729 495.973 591.87C495.39 593.011 495.098 594.395 495.098 596.021C495.098 597.624 495.378 598.996 495.936 600.137C496.519 601.278 497.296 602.14 498.267 602.722C499.238 603.305 500.318 603.596 501.508 603.596C502.722 603.596 503.851 603.305 504.895 602.722C505.963 602.115 506.825 601.241 507.481 600.1C508.136 598.959 508.464 597.6 508.464 596.021C508.464 594.419 508.148 593.047 507.517 591.906C506.91 590.741 506.085 589.867 505.041 589.284C504.021 588.701 502.904 588.41 501.69 588.41ZM533.441 586.007V606H530.127V602.795C529.471 603.961 528.573 604.847 527.432 605.454C526.291 606.036 525.016 606.328 523.608 606.328C522.175 606.328 520.864 606.012 519.675 605.381C518.509 604.725 517.575 603.766 516.87 602.504C516.191 601.241 515.851 599.7 515.851 597.879V586.007H519.128V597.333C519.128 599.323 519.614 600.853 520.585 601.921C521.581 602.965 522.928 603.487 524.628 603.487C526.327 603.487 527.662 602.965 528.633 601.921C529.629 600.853 530.127 599.323 530.127 597.333V586.007H533.441ZM542.215 589.393C543.404 586.917 545.432 585.679 548.297 585.679V589.138H547.423C545.723 589.138 544.424 589.588 543.526 590.486C542.652 591.36 542.215 592.89 542.215 595.075V606H538.901V586.007H542.215V589.393ZM573.934 585.679C575.73 585.679 577.345 586.104 578.777 586.953C580.234 587.803 581.375 589.005 582.201 590.559C583.05 592.088 583.475 593.861 583.475 595.876C583.475 597.891 583.05 599.7 582.201 601.302C581.375 602.88 580.234 604.118 578.777 605.017C577.345 605.891 575.73 606.328 573.934 606.328C572.234 606.328 570.741 605.927 569.454 605.126C568.192 604.3 567.221 603.232 566.541 601.921V606H563.227V579.051H566.541V590.013C567.221 588.726 568.192 587.682 569.454 586.881C570.741 586.079 572.234 585.679 573.934 585.679ZM573.278 588.556C572.089 588.556 570.972 588.859 569.928 589.466C568.908 590.073 568.083 590.947 567.451 592.088C566.844 593.205 566.541 594.516 566.541 596.021C566.541 597.527 566.844 598.85 567.451 599.991C568.083 601.108 568.908 601.97 569.928 602.577C570.972 603.184 572.089 603.487 573.278 603.487C574.468 603.487 575.585 603.184 576.629 602.577C577.673 601.945 578.498 601.047 579.105 599.882C579.736 598.716 580.052 597.381 580.052 595.876C580.052 594.371 579.736 593.072 579.105 591.979C578.498 590.862 577.673 590.013 576.629 589.43C575.609 588.847 574.492 588.556 573.278 588.556ZM605.032 586.007V606H601.718V602.795C601.062 603.961 600.164 604.847 599.023 605.454C597.882 606.036 596.607 606.328 595.199 606.328C593.767 606.328 592.456 606.012 591.266 605.381C590.101 604.725 589.166 603.766 588.462 602.504C587.782 601.241 587.442 599.7 587.442 597.879V586.007H590.72V597.333C590.72 599.323 591.205 600.853 592.176 601.921C593.172 602.965 594.519 603.487 596.219 603.487C597.918 603.487 599.254 602.965 600.225 601.921C601.22 600.853 601.718 599.323 601.718 597.333V586.007H605.032ZM617.375 585.679C619.536 585.679 621.247 586.249 622.51 587.39C623.772 588.507 624.464 590.049 624.586 592.015H621.163C621.114 590.899 620.738 590 620.034 589.321C619.329 588.641 618.358 588.301 617.12 588.301C615.858 588.301 614.862 588.604 614.134 589.211C613.43 589.794 613.078 590.534 613.078 591.433C613.078 592.185 613.296 592.792 613.733 593.254C614.195 593.691 614.753 594.018 615.408 594.237C616.088 594.455 616.999 594.686 618.14 594.929C619.597 595.269 620.762 595.609 621.636 595.949C622.534 596.264 623.299 596.811 623.93 597.587C624.562 598.34 624.877 599.372 624.877 600.683C624.877 601.776 624.562 602.759 623.93 603.633C623.299 604.483 622.413 605.15 621.272 605.636C620.131 606.097 618.82 606.328 617.339 606.328C615.105 606.328 613.308 605.769 611.949 604.653C610.613 603.536 609.885 601.994 609.764 600.027H613.187C613.236 601.144 613.624 602.043 614.352 602.722C615.105 603.378 616.1 603.706 617.339 603.706C618.698 603.706 619.742 603.426 620.471 602.868C621.223 602.31 621.6 601.569 621.6 600.647C621.6 599.894 621.369 599.299 620.908 598.862C620.471 598.401 619.912 598.061 619.232 597.842C618.553 597.6 617.618 597.345 616.428 597.078C614.996 596.762 613.83 596.446 612.932 596.131C612.058 595.791 611.305 595.269 610.674 594.565C610.067 593.861 609.764 592.89 609.764 591.651C609.764 590.559 610.067 589.563 610.674 588.665C611.305 587.742 612.192 587.014 613.333 586.48C614.498 585.946 615.845 585.679 617.375 585.679ZM629.115 580.544C629.115 579.913 629.334 579.378 629.771 578.941C630.208 578.504 630.73 578.286 631.337 578.286C631.968 578.286 632.502 578.504 632.939 578.941C633.376 579.378 633.594 579.913 633.594 580.544C633.594 581.175 633.376 581.709 632.939 582.146C632.502 582.583 631.968 582.802 631.337 582.802C630.705 582.802 630.171 582.583 629.734 582.146C629.321 581.709 629.115 581.175 629.115 580.544ZM632.975 586.007V606H629.661V586.007H632.975ZM648.278 585.679C649.711 585.679 651.01 586.007 652.175 586.662C653.365 587.293 654.3 588.252 654.979 589.539C655.683 590.802 656.036 592.343 656.036 594.164V606H652.758V594.71C652.758 592.695 652.272 591.166 651.301 590.122C650.33 589.078 648.983 588.556 647.259 588.556C645.559 588.556 644.212 589.078 643.216 590.122C642.245 591.166 641.76 592.695 641.76 594.71V606H638.446V586.007H641.76V589.248C642.415 588.082 643.314 587.196 644.455 586.589C645.596 585.982 646.87 585.679 648.278 585.679ZM679.45 595.184C679.45 595.888 679.401 596.543 679.304 597.15H663.389C663.487 599.141 664.106 600.719 665.247 601.885C666.412 603.026 667.893 603.596 669.69 603.596C671.049 603.596 672.19 603.293 673.113 602.686C674.06 602.079 674.752 601.278 675.189 600.282H678.758C678.127 602.03 677.034 603.475 675.48 604.616C673.951 605.757 672.021 606.328 669.69 606.328C667.82 606.328 666.145 605.903 664.664 605.053C663.207 604.203 662.066 603.002 661.241 601.448C660.415 599.87 660.003 598.061 660.003 596.021C660.003 593.958 660.415 592.149 661.241 590.595C662.066 589.017 663.232 587.803 664.737 586.953C666.242 586.104 667.978 585.679 669.945 585.679C671.814 585.679 673.465 586.092 674.898 586.917C676.33 587.742 677.447 588.871 678.248 590.304C679.049 591.736 679.45 593.363 679.45 595.184ZM675.99 594.747C675.99 593.46 675.711 592.343 675.152 591.396C674.594 590.425 673.829 589.685 672.858 589.175C671.911 588.665 670.855 588.41 669.69 588.41C667.966 588.41 666.521 588.981 665.356 590.122C664.191 591.239 663.547 592.78 663.426 594.747H675.99ZM690.46 585.679C692.621 585.679 694.332 586.249 695.595 587.39C696.857 588.507 697.549 590.049 697.671 592.015H694.247C694.199 590.899 693.823 590 693.118 589.321C692.414 588.641 691.443 588.301 690.205 588.301C688.943 588.301 687.947 588.604 687.219 589.211C686.515 589.794 686.163 590.534 686.163 591.433C686.163 592.185 686.381 592.792 686.818 593.254C687.279 593.691 687.838 594.018 688.493 594.237C689.173 594.455 690.084 594.686 691.225 594.929C692.681 595.269 693.847 595.609 694.721 595.949C695.619 596.264 696.384 596.811 697.015 597.587C697.646 598.34 697.962 599.372 697.962 600.683C697.962 601.776 697.646 602.759 697.015 603.633C696.384 604.483 695.498 605.15 694.357 605.636C693.216 606.097 691.905 606.328 690.424 606.328C688.19 606.328 686.393 605.769 685.034 604.653C683.698 603.536 682.97 601.994 682.849 600.027H686.272C686.32 601.144 686.709 602.043 687.437 602.722C688.19 603.378 689.185 603.706 690.424 603.706C691.783 603.706 692.827 603.426 693.555 602.868C694.308 602.31 694.684 601.569 694.684 600.647C694.684 599.894 694.454 599.299 693.992 598.862C693.555 598.401 692.997 598.061 692.317 597.842C691.637 597.6 690.703 597.345 689.513 597.078C688.081 596.762 686.915 596.446 686.017 596.131C685.143 595.791 684.39 595.269 683.759 594.565C683.152 593.861 682.849 592.89 682.849 591.651C682.849 590.559 683.152 589.563 683.759 588.665C684.39 587.742 685.276 587.014 686.418 586.48C687.583 585.946 688.93 585.679 690.46 585.679ZM709.629 585.679C711.79 585.679 713.502 586.249 714.764 587.39C716.027 588.507 716.719 590.049 716.84 592.015H713.417C713.368 590.899 712.992 590 712.288 589.321C711.584 588.641 710.612 588.301 709.374 588.301C708.112 588.301 707.116 588.604 706.388 589.211C705.684 589.794 705.332 590.534 705.332 591.433C705.332 592.185 705.55 592.792 705.987 593.254C706.449 593.691 707.007 594.018 707.663 594.237C708.342 594.455 709.253 594.686 710.394 594.929C711.851 595.269 713.016 595.609 713.89 595.949C714.788 596.264 715.553 596.811 716.184 597.587C716.816 598.34 717.131 599.372 717.131 600.683C717.131 601.776 716.816 602.759 716.184 603.633C715.553 604.483 714.667 605.15 713.526 605.636C712.385 606.097 711.074 606.328 709.593 606.328C707.359 606.328 705.563 605.769 704.203 604.653C702.868 603.536 702.139 601.994 702.018 600.027H705.441C705.49 601.144 705.878 602.043 706.606 602.722C707.359 603.378 708.355 603.706 709.593 603.706C710.952 603.706 711.996 603.426 712.725 602.868C713.477 602.31 713.854 601.569 713.854 600.647C713.854 599.894 713.623 599.299 713.162 598.862C712.725 598.401 712.166 598.061 711.486 597.842C710.807 597.6 709.872 597.345 708.682 597.078C707.25 596.762 706.084 596.446 705.186 596.131C704.312 595.791 703.56 595.269 702.928 594.565C702.321 593.861 702.018 592.89 702.018 591.651C702.018 590.559 702.321 589.563 702.928 588.665C703.56 587.742 704.446 587.014 705.587 586.48C706.752 585.946 708.1 585.679 709.629 585.679ZM732.287 580.544C732.287 579.913 732.506 579.378 732.943 578.941C733.38 578.504 733.902 578.286 734.509 578.286C735.14 578.286 735.674 578.504 736.111 578.941C736.548 579.378 736.767 579.913 736.767 580.544C736.767 581.175 736.548 581.709 736.111 582.146C735.674 582.583 735.14 582.802 734.509 582.802C733.878 582.802 733.344 582.583 732.907 582.146C732.494 581.709 732.287 581.175 732.287 580.544ZM736.148 586.007V606H732.834V586.007H736.148ZM748.501 585.679C750.662 585.679 752.374 586.249 753.636 587.39C754.899 588.507 755.59 590.049 755.712 592.015H752.289C752.24 590.899 751.864 590 751.16 589.321C750.456 588.641 749.484 588.301 748.246 588.301C746.984 588.301 745.988 588.604 745.26 589.211C744.556 589.794 744.204 590.534 744.204 591.433C744.204 592.185 744.422 592.792 744.859 593.254C745.321 593.691 745.879 594.018 746.535 594.237C747.214 594.455 748.125 594.686 749.266 594.929C750.723 595.269 751.888 595.609 752.762 595.949C753.66 596.264 754.425 596.811 755.056 597.587C755.688 598.34 756.003 599.372 756.003 600.683C756.003 601.776 755.688 602.759 755.056 603.633C754.425 604.483 753.539 605.15 752.398 605.636C751.257 606.097 749.946 606.328 748.465 606.328C746.231 606.328 744.434 605.769 743.075 604.653C741.74 603.536 741.011 601.994 740.89 600.027H744.313C744.362 601.144 744.75 602.043 745.478 602.722C746.231 603.378 747.226 603.706 748.465 603.706C749.824 603.706 750.868 603.426 751.597 602.868C752.349 602.31 752.726 601.569 752.726 600.647C752.726 599.894 752.495 599.299 752.034 598.862C751.597 598.401 751.038 598.061 750.358 597.842C749.679 597.6 748.744 597.345 747.554 597.078C746.122 596.762 744.956 596.446 744.058 596.131C743.184 595.791 742.431 595.269 741.8 594.565C741.193 593.861 740.89 592.89 740.89 591.651C740.89 590.559 741.193 589.563 741.8 588.665C742.431 587.742 743.318 587.014 744.459 586.48C745.624 585.946 746.972 585.679 748.501 585.679ZM780.992 603.305V606H777.642C775.942 606 774.643 605.587 773.745 604.762C772.871 603.936 772.434 602.637 772.434 600.865V588.701H769.848V586.007H772.434V581.054H775.784V586.007H780.956V588.701H775.784V600.865C775.784 601.763 775.966 602.395 776.331 602.759C776.695 603.123 777.338 603.305 778.261 603.305H780.992ZM794.484 585.679C795.916 585.679 797.215 586.007 798.381 586.662C799.57 587.293 800.505 588.252 801.185 589.539C801.889 590.802 802.241 592.343 802.241 594.164V606H798.963V594.71C798.963 592.695 798.478 591.166 797.507 590.122C796.535 589.078 795.188 588.556 793.464 588.556C791.765 588.556 790.417 589.078 789.422 590.122C788.451 591.166 787.965 592.695 787.965 594.71V606H784.651V579.051H787.965V589.248C788.621 588.082 789.519 587.196 790.66 586.589C791.801 585.982 793.076 585.679 794.484 585.679ZM825.655 595.184C825.655 595.888 825.607 596.543 825.509 597.15H809.595C809.692 599.141 810.311 600.719 811.452 601.885C812.618 603.026 814.099 603.596 815.895 603.596C817.255 603.596 818.396 603.293 819.318 602.686C820.265 602.079 820.957 601.278 821.394 600.282H824.963C824.332 602.03 823.239 603.475 821.686 604.616C820.156 605.757 818.226 606.328 815.895 606.328C814.026 606.328 812.35 605.903 810.869 605.053C809.413 604.203 808.272 603.002 807.446 601.448C806.621 599.87 806.208 598.061 806.208 596.021C806.208 593.958 806.621 592.149 807.446 590.595C808.272 589.017 809.437 587.803 810.942 586.953C812.448 586.104 814.183 585.679 816.15 585.679C818.02 585.679 819.67 586.092 821.103 586.917C822.535 587.742 823.652 588.871 824.453 590.304C825.255 591.736 825.655 593.363 825.655 595.184ZM822.195 594.747C822.195 593.46 821.916 592.343 821.358 591.396C820.799 590.425 820.035 589.685 819.064 589.175C818.117 588.665 817.061 588.41 815.895 588.41C814.171 588.41 812.727 588.981 811.561 590.122C810.396 591.239 809.753 592.78 809.631 594.747H822.195ZM12.5642 644.679C13.9966 644.679 15.2956 645.007 16.4609 645.662C17.6506 646.293 18.5853 647.252 19.2651 648.539C19.9692 649.802 20.3212 651.343 20.3212 653.164V665H17.0436V653.71C17.0436 651.695 16.558 650.166 15.5869 649.122C14.6158 648.078 13.2683 647.556 11.5445 647.556C9.845 647.556 8.49753 648.078 7.50211 649.122C6.53096 650.166 6.04539 651.695 6.04539 653.71V665H2.73135V638.051H6.04539V648.248C6.70091 647.082 7.59922 646.196 8.74032 645.589C9.88141 644.982 11.156 644.679 12.5642 644.679ZM33.8297 644.679C35.5293 644.679 37.0103 645.079 38.2727 645.881C39.5595 646.682 40.5307 647.726 41.1862 649.013V645.007H44.5366V665H41.1862V660.921C40.5307 662.232 39.5595 663.3 38.2727 664.126C37.0103 664.927 35.5293 665.328 33.8297 665.328C32.0331 665.328 30.4065 664.891 28.9497 664.017C27.5173 663.118 26.3762 661.88 25.5264 660.302C24.701 658.7 24.2882 656.891 24.2882 654.876C24.2882 652.861 24.701 651.088 25.5264 649.559C26.3762 648.005 27.5173 646.803 28.9497 645.953C30.4065 645.104 32.0331 644.679 33.8297 644.679ZM34.4124 647.556C33.2228 647.556 32.106 647.847 31.062 648.43C30.0423 649.013 29.2168 649.862 28.5856 650.979C27.9786 652.072 27.6751 653.371 27.6751 654.876C27.6751 656.381 27.9786 657.716 28.5856 658.882C29.2168 660.023 30.0423 660.909 31.062 661.54C32.106 662.172 33.2228 662.487 34.4124 662.487C35.6264 662.487 36.7432 662.184 37.7629 661.577C38.8069 660.97 39.6323 660.108 40.2393 658.991C40.8706 657.85 41.1862 656.527 41.1862 655.021C41.1862 653.516 40.8706 652.205 40.2393 651.088C39.6323 649.947 38.8069 649.073 37.7629 648.466C36.7432 647.859 35.6264 647.556 34.4124 647.556ZM53.3105 648.393C54.5002 645.917 56.5274 644.679 59.3923 644.679V648.138H58.5183C56.8188 648.138 55.5199 648.588 54.6216 649.486C53.7475 650.36 53.3105 651.89 53.3105 654.075V665H49.9965V645.007H53.3105V648.393ZM71.6347 644.679C73.3342 644.679 74.8152 645.079 76.0777 645.881C77.3645 646.682 78.3357 647.726 78.9912 649.013V638.051H82.3416V665H78.9912V660.921C78.3357 662.232 77.3645 663.3 76.0777 664.126C74.8152 664.927 73.3342 665.328 71.6347 665.328C69.8381 665.328 68.2115 664.891 66.7547 664.017C65.3223 663.118 64.1812 661.88 63.3314 660.302C62.506 658.7 62.0932 656.891 62.0932 654.876C62.0932 652.861 62.506 651.088 63.3314 649.559C64.1812 648.005 65.3223 646.803 66.7547 645.953C68.2115 645.104 69.8381 644.679 71.6347 644.679ZM72.2174 647.556C71.0278 647.556 69.911 647.847 68.867 648.43C67.8473 649.013 67.0218 649.862 66.3906 650.979C65.7836 652.072 65.4801 653.371 65.4801 654.876C65.4801 656.381 65.7836 657.716 66.3906 658.882C67.0218 660.023 67.8473 660.909 68.867 661.54C69.911 662.172 71.0278 662.487 72.2174 662.487C73.4314 662.487 74.5482 662.184 75.5679 661.577C76.6119 660.97 77.4373 660.108 78.0443 658.991C78.6756 657.85 78.9912 656.527 78.9912 655.021C78.9912 653.516 78.6756 652.205 78.0443 651.088C77.4373 649.947 76.6119 649.073 75.5679 648.466C74.5482 647.859 73.4314 647.556 72.2174 647.556ZM105.938 654.184C105.938 654.888 105.889 655.543 105.792 656.15H89.8773C89.9744 658.141 90.5935 659.719 91.7346 660.885C92.9 662.026 94.381 662.596 96.1776 662.596C97.5372 662.596 98.6783 662.293 99.6009 661.686C100.548 661.079 101.24 660.278 101.677 659.282H105.246C104.614 661.03 103.522 662.475 101.968 663.616C100.439 664.757 98.5084 665.328 96.1776 665.328C94.3082 665.328 92.6329 664.903 91.1519 664.053C89.6952 663.203 88.5541 662.002 87.7286 660.448C86.9032 658.87 86.4904 657.061 86.4904 655.021C86.4904 652.958 86.9032 651.149 87.7286 649.595C88.5541 648.017 89.7195 646.803 91.2248 645.953C92.73 645.104 94.466 644.679 96.4325 644.679C98.302 644.679 99.9529 645.092 101.385 645.917C102.818 646.742 103.935 647.871 104.736 649.304C105.537 650.736 105.938 652.363 105.938 654.184ZM102.478 653.747C102.478 652.46 102.199 651.343 101.64 650.396C101.082 649.425 100.317 648.685 99.346 648.175C98.3991 647.665 97.343 647.41 96.1776 647.41C94.4538 647.41 93.0093 647.981 91.8439 649.122C90.6785 650.239 90.0351 651.78 89.9137 653.747H102.478ZM116.948 644.679C119.109 644.679 120.82 645.249 122.083 646.39C123.345 647.507 124.037 649.049 124.159 651.015H120.735C120.687 649.899 120.31 649 119.606 648.321C118.902 647.641 117.931 647.301 116.693 647.301C115.43 647.301 114.435 647.604 113.707 648.211C113.003 648.794 112.65 649.534 112.65 650.433C112.65 651.185 112.869 651.792 113.306 652.254C113.767 652.691 114.326 653.018 114.981 653.237C115.661 653.455 116.572 653.686 117.713 653.929C119.169 654.269 120.335 654.609 121.209 654.949C122.107 655.264 122.872 655.811 123.503 656.587C124.134 657.34 124.45 658.372 124.45 659.683C124.45 660.776 124.134 661.759 123.503 662.633C122.872 663.483 121.986 664.15 120.845 664.636C119.703 665.097 118.392 665.328 116.911 665.328C114.678 665.328 112.881 664.769 111.522 663.653C110.186 662.536 109.458 660.994 109.336 659.027H112.76C112.808 660.144 113.197 661.043 113.925 661.722C114.678 662.378 115.673 662.706 116.911 662.706C118.271 662.706 119.315 662.426 120.043 661.868C120.796 661.31 121.172 660.569 121.172 659.647C121.172 658.894 120.942 658.299 120.48 657.862C120.043 657.401 119.485 657.061 118.805 656.842C118.125 656.6 117.191 656.345 116.001 656.078C114.569 655.762 113.403 655.446 112.505 655.131C111.631 654.791 110.878 654.269 110.247 653.565C109.64 652.861 109.336 651.89 109.336 650.651C109.336 649.559 109.64 648.563 110.247 647.665C110.878 646.742 111.764 646.014 112.905 645.48C114.071 644.946 115.418 644.679 116.948 644.679ZM138.521 662.305V665H135.17C133.471 665 132.172 664.587 131.273 663.762C130.399 662.936 129.962 661.637 129.962 659.865V647.701H127.377V645.007H129.962V640.054H133.313V645.007H138.484V647.701H133.313V659.865C133.313 660.763 133.495 661.395 133.859 661.759C134.223 662.123 134.867 662.305 135.789 662.305H138.521ZM163.805 644.679C165.601 644.679 167.216 645.104 168.648 645.953C170.105 646.803 171.246 648.005 172.072 649.559C172.921 651.088 173.346 652.861 173.346 654.876C173.346 656.891 172.921 658.7 172.072 660.302C171.246 661.88 170.105 663.118 168.648 664.017C167.216 664.891 165.601 665.328 163.805 665.328C162.105 665.328 160.612 664.927 159.325 664.126C158.063 663.3 157.092 662.232 156.412 660.921V674.469H153.098V645.007H156.412V649.013C157.092 647.726 158.063 646.682 159.325 645.881C160.612 645.079 162.105 644.679 163.805 644.679ZM163.149 647.556C161.959 647.556 160.843 647.859 159.799 648.466C158.779 649.073 157.954 649.947 157.322 651.088C156.715 652.205 156.412 653.516 156.412 655.021C156.412 656.527 156.715 657.85 157.322 658.991C157.954 660.108 158.779 660.97 159.799 661.577C160.843 662.184 161.959 662.487 163.149 662.487C164.339 662.487 165.456 662.184 166.5 661.577C167.544 660.945 168.369 660.047 168.976 658.882C169.607 657.716 169.923 656.381 169.923 654.876C169.923 653.371 169.607 652.072 168.976 650.979C168.369 649.862 167.544 649.013 166.5 648.43C165.48 647.847 164.363 647.556 163.149 647.556ZM185.725 644.679C187.425 644.679 188.906 645.079 190.168 645.881C191.455 646.682 192.426 647.726 193.082 649.013V645.007H196.432V665H193.082V660.921C192.426 662.232 191.455 663.3 190.168 664.126C188.906 664.927 187.425 665.328 185.725 665.328C183.929 665.328 182.302 664.891 180.845 664.017C179.413 663.118 178.272 661.88 177.422 660.302C176.597 658.7 176.184 656.891 176.184 654.876C176.184 652.861 176.597 651.088 177.422 649.559C178.272 648.005 179.413 646.803 180.845 645.953C182.302 645.104 183.929 644.679 185.725 644.679ZM186.308 647.556C185.118 647.556 184.002 647.847 182.958 648.43C181.938 649.013 181.113 649.862 180.481 650.979C179.874 652.072 179.571 653.371 179.571 654.876C179.571 656.381 179.874 657.716 180.481 658.882C181.113 660.023 181.938 660.909 182.958 661.54C184.002 662.172 185.118 662.487 186.308 662.487C187.522 662.487 188.639 662.184 189.659 661.577C190.703 660.97 191.528 660.108 192.135 658.991C192.766 657.85 193.082 656.527 193.082 655.021C193.082 653.516 192.766 652.205 192.135 651.088C191.528 649.947 190.703 649.073 189.659 648.466C188.639 647.859 187.522 647.556 186.308 647.556ZM205.206 648.393C206.396 645.917 208.423 644.679 211.288 644.679V648.138H210.414C208.714 648.138 207.416 648.588 206.517 649.486C205.643 650.36 205.206 651.89 205.206 654.075V665H201.892V645.007H205.206V648.393ZM224.587 662.305V665H221.236C219.537 665 218.238 664.587 217.339 663.762C216.465 662.936 216.028 661.637 216.028 659.865V647.701H213.443V645.007H216.028V640.054H219.379V645.007H224.55V647.701H219.379V659.865C219.379 660.763 219.561 661.395 219.925 661.759C220.289 662.123 220.933 662.305 221.855 662.305H224.587ZM230.321 662.56C230.637 663.847 230.795 665.024 230.795 666.093C230.795 668.836 229.544 670.208 227.044 670.208V668.605C227.651 668.605 228.088 668.46 228.355 668.168C228.646 667.877 228.792 667.416 228.792 666.784V665.947H226.934V662.56H230.321ZM254.151 644.679C255.851 644.679 257.332 645.079 258.594 645.881C259.881 646.682 260.852 647.726 261.508 649.013V645.007H264.858V665H261.508V660.921C260.852 662.232 259.881 663.3 258.594 664.126C257.332 664.927 255.851 665.328 254.151 665.328C252.355 665.328 250.728 664.891 249.271 664.017C247.839 663.118 246.698 661.88 245.848 660.302C245.023 658.7 244.61 656.891 244.61 654.876C244.61 652.861 245.023 651.088 245.848 649.559C246.698 648.005 247.839 646.803 249.271 645.953C250.728 645.104 252.355 644.679 254.151 644.679ZM254.734 647.556C253.544 647.556 252.428 647.847 251.384 648.43C250.364 649.013 249.538 649.862 248.907 650.979C248.3 652.072 247.997 653.371 247.997 654.876C247.997 656.381 248.3 657.716 248.907 658.882C249.538 660.023 250.364 660.909 251.384 661.54C252.428 662.172 253.544 662.487 254.734 662.487C255.948 662.487 257.065 662.184 258.085 661.577C259.129 660.97 259.954 660.108 260.561 658.991C261.192 657.85 261.508 656.527 261.508 655.021C261.508 653.516 261.192 652.205 260.561 651.088C259.954 649.947 259.129 649.073 258.085 648.466C257.065 647.859 255.948 647.556 254.734 647.556ZM280.151 644.679C281.583 644.679 282.882 645.007 284.048 645.662C285.237 646.293 286.172 647.252 286.852 648.539C287.556 649.802 287.908 651.343 287.908 653.164V665H284.63V653.71C284.63 651.695 284.145 650.166 283.174 649.122C282.203 648.078 280.855 647.556 279.131 647.556C277.432 647.556 276.084 648.078 275.089 649.122C274.118 650.166 273.632 651.695 273.632 653.71V665H270.318V645.007H273.632V648.248C274.288 647.082 275.186 646.196 276.327 645.589C277.468 644.982 278.743 644.679 280.151 644.679ZM301.417 644.679C303.116 644.679 304.597 645.079 305.86 645.881C307.146 646.682 308.117 647.726 308.773 649.013V638.051H312.123V665H308.773V660.921C308.117 662.232 307.146 663.3 305.86 664.126C304.597 664.927 303.116 665.328 301.417 665.328C299.62 665.328 297.993 664.891 296.537 664.017C295.104 663.118 293.963 661.88 293.113 660.302C292.288 658.7 291.875 656.891 291.875 654.876C291.875 652.861 292.288 651.088 293.113 649.559C293.963 648.005 295.104 646.803 296.537 645.953C297.993 645.104 299.62 644.679 301.417 644.679ZM301.999 647.556C300.81 647.556 299.693 647.847 298.649 648.43C297.629 649.013 296.804 649.862 296.172 650.979C295.565 652.072 295.262 653.371 295.262 654.876C295.262 656.381 295.565 657.716 296.172 658.882C296.804 660.023 297.629 660.909 298.649 661.54C299.693 662.172 300.81 662.487 301.999 662.487C303.213 662.487 304.33 662.184 305.35 661.577C306.394 660.97 307.219 660.108 307.826 658.991C308.457 657.85 308.773 656.527 308.773 655.021C308.773 653.516 308.457 652.205 307.826 651.088C307.219 649.947 306.394 649.073 305.35 648.466C304.33 647.859 303.213 647.556 301.999 647.556ZM337.788 662.305V665H334.438C332.738 665 331.439 664.587 330.541 663.762C329.667 662.936 329.23 661.637 329.23 659.865V647.701H326.644V645.007H329.23V640.054H332.58V645.007H337.752V647.701H332.58V659.865C332.58 660.763 332.762 661.395 333.127 661.759C333.491 662.123 334.134 662.305 335.057 662.305H337.788ZM351.28 644.679C352.712 644.679 354.011 645.007 355.177 645.662C356.366 646.293 357.301 647.252 357.981 648.539C358.685 649.802 359.037 651.343 359.037 653.164V665H355.759V653.71C355.759 651.695 355.274 650.166 354.303 649.122C353.331 648.078 351.984 647.556 350.26 647.556C348.561 647.556 347.213 648.078 346.218 649.122C345.247 650.166 344.761 651.695 344.761 653.71V665H341.447V638.051H344.761V648.248C345.417 647.082 346.315 646.196 347.456 645.589C348.597 644.982 349.872 644.679 351.28 644.679ZM372.545 644.679C374.245 644.679 375.726 645.079 376.988 645.881C378.275 646.682 379.246 647.726 379.902 649.013V645.007H383.252V665H379.902V660.921C379.246 662.232 378.275 663.3 376.988 664.126C375.726 664.927 374.245 665.328 372.545 665.328C370.749 665.328 369.122 664.891 367.665 664.017C366.233 663.118 365.092 661.88 364.242 660.302C363.417 658.7 363.004 656.891 363.004 654.876C363.004 652.861 363.417 651.088 364.242 649.559C365.092 648.005 366.233 646.803 367.665 645.953C369.122 645.104 370.749 644.679 372.545 644.679ZM373.128 647.556C371.938 647.556 370.822 647.847 369.778 648.43C368.758 649.013 367.932 649.862 367.301 650.979C366.694 652.072 366.391 653.371 366.391 654.876C366.391 656.381 366.694 657.716 367.301 658.882C367.932 660.023 368.758 660.909 369.778 661.54C370.822 662.172 371.938 662.487 373.128 662.487C374.342 662.487 375.459 662.184 376.479 661.577C377.523 660.97 378.348 660.108 378.955 658.991C379.586 657.85 379.902 656.527 379.902 655.021C379.902 653.516 379.586 652.205 378.955 651.088C378.348 649.947 377.523 649.073 376.479 648.466C375.459 647.859 374.342 647.556 373.128 647.556ZM397.999 662.305V665H394.648C392.949 665 391.65 664.587 390.752 663.762C389.878 662.936 389.441 661.637 389.441 659.865V647.701H386.855V645.007H389.441V640.054H392.791V645.007H397.962V647.701H392.791V659.865C392.791 660.763 392.973 661.395 393.337 661.759C393.701 662.123 394.345 662.305 395.267 662.305H397.999ZM403.151 636.485C403.442 637.747 403.588 638.864 403.588 639.835C403.588 641.268 403.272 642.312 402.641 642.967C402.034 643.623 401.124 643.95 399.91 643.95V642.348C400.492 642.348 400.917 642.202 401.184 641.911C401.476 641.595 401.621 641.11 401.621 640.454V639.617H399.837V636.485H403.151ZM414.089 644.679C416.249 644.679 417.961 645.249 419.224 646.39C420.486 647.507 421.178 649.049 421.299 651.015H417.876C417.828 649.899 417.451 649 416.747 648.321C416.043 647.641 415.072 647.301 413.834 647.301C412.571 647.301 411.576 647.604 410.847 648.211C410.143 648.794 409.791 649.534 409.791 650.433C409.791 651.185 410.01 651.792 410.447 652.254C410.908 652.691 411.467 653.018 412.122 653.237C412.802 653.455 413.712 653.686 414.853 653.929C416.31 654.269 417.476 654.609 418.35 654.949C419.248 655.264 420.013 655.811 420.644 656.587C421.275 657.34 421.591 658.372 421.591 659.683C421.591 660.776 421.275 661.759 420.644 662.633C420.013 663.483 419.127 664.15 417.985 664.636C416.844 665.097 415.533 665.328 414.052 665.328C411.819 665.328 410.022 664.769 408.662 663.653C407.327 662.536 406.599 660.994 406.477 659.027H409.901C409.949 660.144 410.338 661.043 411.066 661.722C411.819 662.378 412.814 662.706 414.052 662.706C415.412 662.706 416.456 662.426 417.184 661.868C417.937 661.31 418.313 660.569 418.313 659.647C418.313 658.894 418.083 658.299 417.621 657.862C417.184 657.401 416.626 657.061 415.946 656.842C415.266 656.6 414.331 656.345 413.142 656.078C411.709 655.762 410.544 655.446 409.646 655.131C408.772 654.791 408.019 654.269 407.388 653.565C406.781 652.861 406.477 651.89 406.477 650.651C406.477 649.559 406.781 648.563 407.388 647.665C408.019 646.742 408.905 646.014 410.046 645.48C411.212 644.946 412.559 644.679 414.089 644.679ZM463.551 645.007L457.25 665H453.827L449.311 649.122L444.795 665H441.336L434.999 645.007H438.422L443.047 661.686L447.745 645.007H451.168L455.611 661.722L460.2 645.007H463.551ZM476.538 644.679C477.97 644.679 479.269 645.007 480.435 645.662C481.624 646.293 482.559 647.252 483.239 648.539C483.943 649.802 484.295 651.343 484.295 653.164V665H481.017V653.71C481.017 651.695 480.532 650.166 479.561 649.122C478.589 648.078 477.242 647.556 475.518 647.556C473.819 647.556 472.471 648.078 471.476 649.122C470.505 650.166 470.019 651.695 470.019 653.71V665H466.705V638.051H470.019V648.248C470.675 647.082 471.573 646.196 472.714 645.589C473.855 644.982 475.13 644.679 476.538 644.679ZM507.709 654.184C507.709 654.888 507.661 655.543 507.563 656.15H491.649C491.746 658.141 492.365 659.719 493.506 660.885C494.671 662.026 496.152 662.596 497.949 662.596C499.309 662.596 500.45 662.293 501.372 661.686C502.319 661.079 503.011 660.278 503.448 659.282H507.017C506.386 661.03 505.293 662.475 503.74 663.616C502.21 664.757 500.28 665.328 497.949 665.328C496.08 665.328 494.404 664.903 492.923 664.053C491.467 663.203 490.326 662.002 489.5 660.448C488.675 658.87 488.262 657.061 488.262 655.021C488.262 652.958 488.675 651.149 489.5 649.595C490.326 648.017 491.491 646.803 492.996 645.953C494.501 645.104 496.237 644.679 498.204 644.679C500.073 644.679 501.724 645.092 503.157 645.917C504.589 646.742 505.706 647.871 506.507 649.304C507.308 650.736 507.709 652.363 507.709 654.184ZM504.249 653.747C504.249 652.46 503.97 651.343 503.412 650.396C502.853 649.425 502.089 648.685 501.117 648.175C500.171 647.665 499.114 647.41 497.949 647.41C496.225 647.41 494.781 647.981 493.615 649.122C492.45 650.239 491.807 651.78 491.685 653.747H504.249ZM515.15 648.393C516.34 645.917 518.367 644.679 521.232 644.679V648.138H520.358C518.659 648.138 517.36 648.588 516.461 649.486C515.587 650.36 515.15 651.89 515.15 654.075V665H511.836V645.007H515.15V648.393ZM543.38 654.184C543.38 654.888 543.332 655.543 543.235 656.15H527.32C527.417 658.141 528.036 659.719 529.177 660.885C530.343 662.026 531.824 662.596 533.62 662.596C534.98 662.596 536.121 662.293 537.043 661.686C537.99 661.079 538.682 660.278 539.119 659.282H542.688C542.057 661.03 540.964 662.475 539.411 663.616C537.881 664.757 535.951 665.328 533.62 665.328C531.751 665.328 530.075 664.903 528.594 664.053C527.138 663.203 525.997 662.002 525.171 660.448C524.346 658.87 523.933 657.061 523.933 655.021C523.933 652.958 524.346 651.149 525.171 649.595C525.997 648.017 527.162 646.803 528.667 645.953C530.173 645.104 531.909 644.679 533.875 644.679C535.745 644.679 537.396 645.092 538.828 645.917C540.26 646.742 541.377 647.871 542.178 649.304C542.98 650.736 543.38 652.363 543.38 654.184ZM539.92 653.747C539.92 652.46 539.641 651.343 539.083 650.396C538.524 649.425 537.76 648.685 536.789 648.175C535.842 647.665 534.786 647.41 533.62 647.41C531.896 647.41 530.452 647.981 529.286 649.122C528.121 650.239 527.478 651.78 527.356 653.747H539.92ZM584.683 645.007L578.383 665H574.959L570.444 649.122L565.928 665H562.468L556.131 645.007H559.555L564.18 661.686L568.878 645.007H572.301L576.744 661.722L581.333 645.007H584.683ZM605.974 654.184C605.974 654.888 605.925 655.543 605.828 656.15H589.913C590.01 658.141 590.63 659.719 591.771 660.885C592.936 662.026 594.417 662.596 596.214 662.596C597.573 662.596 598.714 662.293 599.637 661.686C600.584 661.079 601.276 660.278 601.713 659.282H605.282C604.65 661.03 603.558 662.475 602.004 663.616C600.475 664.757 598.544 665.328 596.214 665.328C594.344 665.328 592.669 664.903 591.188 664.053C589.731 663.203 588.59 662.002 587.765 660.448C586.939 658.87 586.526 657.061 586.526 655.021C586.526 652.958 586.939 651.149 587.765 649.595C588.59 648.017 589.756 646.803 591.261 645.953C592.766 645.104 594.502 644.679 596.469 644.679C598.338 644.679 599.989 645.092 601.421 645.917C602.854 646.742 603.971 647.871 604.772 649.304C605.573 650.736 605.974 652.363 605.974 654.184ZM602.514 653.747C602.514 652.46 602.235 651.343 601.676 650.396C601.118 649.425 600.353 648.685 599.382 648.175C598.435 647.665 597.379 647.41 596.214 647.41C594.49 647.41 593.045 647.981 591.88 649.122C590.715 650.239 590.071 651.78 589.95 653.747H602.514ZM629.395 644.679C631.799 644.679 633.753 645.237 635.259 646.354C636.788 647.471 637.856 649.061 638.463 651.125H634.894C634.506 649.959 633.838 649.049 632.891 648.393C631.944 647.738 630.779 647.41 629.395 647.41C627.501 647.41 625.972 648.078 624.807 649.413C623.665 650.724 623.095 652.594 623.095 655.021C623.095 657.425 623.665 659.295 624.807 660.63C625.972 661.941 627.501 662.596 629.395 662.596C630.803 662.596 631.969 662.281 632.891 661.65C633.814 661.018 634.482 660.096 634.894 658.882H638.463C637.856 660.848 636.776 662.414 635.222 663.58C633.693 664.745 631.75 665.328 629.395 665.328C627.526 665.328 625.851 664.903 624.37 664.053C622.913 663.203 621.772 662.002 620.946 660.448C620.121 658.87 619.708 657.061 619.708 655.021C619.708 652.958 620.121 651.149 620.946 649.595C621.772 648.017 622.913 646.803 624.37 645.953C625.826 645.104 627.501 644.679 629.395 644.679ZM651.632 644.679C653.526 644.679 655.238 645.104 656.767 645.953C658.297 646.803 659.499 648.017 660.373 649.595C661.271 651.173 661.72 652.982 661.72 655.021C661.72 657.037 661.259 658.833 660.336 660.411C659.414 661.965 658.163 663.179 656.585 664.053C655.007 664.903 653.259 665.328 651.341 665.328C649.472 665.328 647.784 664.903 646.279 664.053C644.798 663.203 643.633 662.002 642.783 660.448C641.957 658.87 641.545 657.061 641.545 655.021C641.545 652.958 641.982 651.149 642.856 649.595C643.754 648.017 644.968 646.803 646.497 645.953C648.027 645.104 649.739 644.679 651.632 644.679ZM651.523 647.41C650.309 647.41 649.205 647.701 648.209 648.284C647.214 648.867 646.413 649.729 645.806 650.87C645.223 652.011 644.932 653.395 644.932 655.021C644.932 656.624 645.211 657.996 645.769 659.137C646.352 660.278 647.129 661.14 648.1 661.722C649.071 662.305 650.151 662.596 651.341 662.596C652.555 662.596 653.684 662.305 654.728 661.722C655.796 661.115 656.658 660.241 657.314 659.1C657.969 657.959 658.297 656.6 658.297 655.021C658.297 653.419 657.981 652.047 657.35 650.906C656.743 649.741 655.918 648.867 654.874 648.284C653.854 647.701 652.737 647.41 651.523 647.41ZM689.902 644.679C691.358 644.679 692.682 645.007 693.871 645.662C695.061 646.293 695.996 647.252 696.675 648.539C697.38 649.802 697.732 651.343 697.732 653.164V665H694.454V653.71C694.454 651.695 693.956 650.166 692.961 649.122C691.99 648.078 690.654 647.556 688.955 647.556C687.255 647.556 685.908 648.078 684.912 649.122C683.941 650.166 683.456 651.695 683.456 653.71V665H680.178V653.71C680.178 651.695 679.693 650.166 678.721 649.122C677.75 648.078 676.403 647.556 674.679 647.556C672.98 647.556 671.632 648.078 670.637 649.122C669.665 650.166 669.18 651.695 669.18 653.71V665H665.866V645.007H669.18V648.248C669.835 647.082 670.734 646.196 671.875 645.589C673.016 644.982 674.291 644.679 675.699 644.679C677.228 644.679 678.612 645.055 679.85 645.808C681.089 646.536 682.023 647.604 682.655 649.013C683.383 647.653 684.366 646.597 685.604 645.844C686.867 645.067 688.299 644.679 689.902 644.679ZM721.131 654.184C721.131 654.888 721.083 655.543 720.986 656.15H705.071C705.168 658.141 705.787 659.719 706.928 660.885C708.094 662.026 709.575 662.596 711.371 662.596C712.731 662.596 713.872 662.293 714.795 661.686C715.741 661.079 716.433 660.278 716.87 659.282H720.439C719.808 661.03 718.716 662.475 717.162 663.616C715.632 664.757 713.702 665.328 711.371 665.328C709.502 665.328 707.827 664.903 706.346 664.053C704.889 663.203 703.748 662.002 702.922 660.448C702.097 658.87 701.684 657.061 701.684 655.021C701.684 652.958 702.097 651.149 702.922 649.595C703.748 648.017 704.913 646.803 706.418 645.953C707.924 645.104 709.66 644.679 711.626 644.679C713.496 644.679 715.147 645.092 716.579 645.917C718.011 646.742 719.128 647.871 719.93 649.304C720.731 650.736 721.131 652.363 721.131 654.184ZM717.672 653.747C717.672 652.46 717.392 651.343 716.834 650.396C716.276 649.425 715.511 648.685 714.54 648.175C713.593 647.665 712.537 647.41 711.371 647.41C709.647 647.41 708.203 647.981 707.038 649.122C705.872 650.239 705.229 651.78 705.107 653.747H717.672ZM735.63 639.544C735.63 638.913 735.849 638.378 736.286 637.941C736.723 637.504 737.245 637.286 737.852 637.286C738.483 637.286 739.017 637.504 739.454 637.941C739.891 638.378 740.11 638.913 740.11 639.544C740.11 640.175 739.891 640.709 739.454 641.146C739.017 641.583 738.483 641.802 737.852 641.802C737.221 641.802 736.687 641.583 736.25 641.146C735.837 640.709 735.63 640.175 735.63 639.544ZM739.491 645.007V665H736.177V645.007H739.491ZM754.794 644.679C756.226 644.679 757.525 645.007 758.691 645.662C759.88 646.293 760.815 647.252 761.495 648.539C762.199 649.802 762.551 651.343 762.551 653.164V665H759.273V653.71C759.273 651.695 758.788 650.166 757.817 649.122C756.846 648.078 755.498 647.556 753.774 647.556C752.075 647.556 750.727 648.078 749.732 649.122C748.761 650.166 748.275 651.695 748.275 653.71V665H744.961V645.007H748.275V648.248C748.931 647.082 749.829 646.196 750.97 645.589C752.111 644.982 753.386 644.679 754.794 644.679ZM767.101 662.888C767.101 662.281 767.307 661.771 767.72 661.358C768.133 660.945 768.63 660.739 769.213 660.739C769.796 660.739 770.293 660.945 770.706 661.358C771.119 661.771 771.325 662.281 771.325 662.888C771.325 663.47 771.119 663.968 770.706 664.381C770.293 664.794 769.796 665 769.213 665C768.63 665 768.133 664.794 767.72 664.381C767.307 663.968 767.101 663.47 767.101 662.888Z" fill="#A4A4A4"/>
</svg>
