<svg width="2056" height="2056" viewBox="0 0 2056 2056" fill="none" xmlns="http://www.w3.org/2000/svg">
<rect width="2057" height="2056" fill="white"/>
<path d="M253.327 356.117H276.109V367H238.986V296.008H253.327V356.117ZM337.944 338.013C337.944 339.98 337.808 341.81 337.537 343.505H296.447C296.786 347.167 298.142 350.116 300.515 352.354C302.889 354.592 305.906 355.71 309.567 355.71C312.415 355.71 314.687 355.168 316.382 354.083C318.077 352.998 319.467 351.506 320.552 349.608H336.011C334.384 354.965 331.231 359.338 326.553 362.728C321.874 366.119 316.212 367.814 309.567 367.814C304.211 367.814 299.43 366.627 295.227 364.254C291.023 361.813 287.734 358.423 285.361 354.083C282.988 349.676 281.801 344.556 281.801 338.725C281.801 332.894 282.988 327.809 285.361 323.469C287.734 319.129 291.023 315.773 295.227 313.4C299.498 311.027 304.346 309.84 309.771 309.84C315.195 309.84 320.009 310.993 324.213 313.298C328.485 315.604 331.841 318.892 334.282 323.164C336.723 327.368 337.944 332.318 337.944 338.013ZM323.095 334.25C322.891 330.521 321.501 327.537 318.925 325.3C316.416 323.062 313.297 321.943 309.567 321.943C306.109 321.943 303.16 323.062 300.719 325.3C298.346 327.537 296.922 330.521 296.447 334.25H323.095ZM377.918 354.998V367H368.866C363.102 367 358.661 365.678 355.542 363.033C352.423 360.389 350.863 356.016 350.863 349.913V322.35H344.862V310.654H350.863V296.72H365.204V310.654H377.816V322.35H365.204V349.913C365.204 351.744 365.645 353.066 366.526 353.88C367.408 354.626 368.933 354.998 371.103 354.998H377.918ZM396.693 283.803C397.846 287.532 398.422 291.194 398.422 294.787C398.422 299.262 397.337 302.721 395.167 305.162C393.065 307.535 389.912 308.721 385.709 308.721V302.924C389.099 302.924 390.794 300.856 390.794 296.72V294.787H384.895V283.803H396.693ZM429.664 309.84C436.105 309.84 441.394 311.501 445.53 314.824C449.666 318.078 451.87 322.52 452.141 328.148H437.495C437.089 323.401 434.173 321.028 428.749 321.028C426.036 321.028 423.934 321.57 422.443 322.655C420.951 323.74 420.205 325.164 420.205 326.927C420.205 328.419 420.747 329.605 421.832 330.487C422.917 331.368 424.239 332.08 425.799 332.623C427.426 333.097 429.732 333.674 432.715 334.352C436.851 335.233 440.242 336.182 442.886 337.2C445.598 338.149 447.904 339.708 449.802 341.878C451.701 343.98 452.65 346.896 452.65 350.625C452.65 354.015 451.667 356.999 449.7 359.575C447.734 362.152 445.022 364.186 441.564 365.678C438.106 367.102 434.207 367.814 429.867 367.814C423.087 367.814 417.561 366.254 413.289 363.135C409.017 359.948 406.678 355.405 406.271 349.506H420.917C421.188 351.812 422.104 353.575 423.663 354.795C425.223 356.016 427.325 356.626 429.969 356.626C432.613 356.626 434.749 356.049 436.377 354.897C438.004 353.676 438.818 352.151 438.818 350.32C438.818 348.828 438.275 347.642 437.19 346.76C436.105 345.811 434.749 345.099 433.122 344.624C431.495 344.082 429.155 343.472 426.104 342.793C421.968 341.912 418.578 340.997 415.933 340.047C413.357 339.098 411.119 337.606 409.221 335.572C407.322 333.47 406.373 330.656 406.373 327.13C406.373 324.011 407.288 321.13 409.119 318.485C410.95 315.841 413.628 313.739 417.154 312.179C420.68 310.62 424.85 309.84 429.664 309.84ZM533.686 330.69C538.364 331.368 542.094 333.402 544.874 336.793C547.721 340.115 549.145 343.98 549.145 348.387C549.145 352.049 548.196 355.304 546.298 358.151C544.467 360.931 541.789 363.101 538.263 364.661C534.737 366.22 530.567 367 525.753 367H495.342V296.008H524.125C528.939 296.008 533.109 296.821 536.635 298.449C540.229 300.076 542.941 302.314 544.772 305.162C546.603 308.009 547.518 311.196 547.518 314.722C547.518 318.723 546.298 322.079 543.857 324.791C541.483 327.436 538.093 329.402 533.686 330.69ZM509.683 325.401H522.6C525.786 325.401 528.295 324.622 530.126 323.062C532.025 321.435 532.974 319.163 532.974 316.248C532.974 313.332 532.025 311.061 530.126 309.433C528.295 307.806 525.786 306.992 522.6 306.992H509.683V325.401ZM524.125 356.016C527.312 356.016 529.855 355.168 531.753 353.473C533.72 351.71 534.703 349.303 534.703 346.252C534.703 343.2 533.72 340.793 531.753 339.03C529.787 337.267 527.21 336.386 524.024 336.386H509.683V356.016H524.125ZM586.715 309.84C592.072 309.84 596.954 311.027 601.361 313.4C605.769 315.773 609.261 319.163 611.837 323.571C614.414 327.91 615.702 332.962 615.702 338.725C615.702 344.489 614.414 349.574 611.837 353.981C609.261 358.389 605.735 361.813 601.26 364.254C596.852 366.627 591.936 367.814 586.512 367.814C581.155 367.814 576.273 366.627 571.866 364.254C567.459 361.813 563.967 358.389 561.39 353.981C558.881 349.574 557.627 344.489 557.627 338.725C557.627 332.962 558.915 327.91 561.492 323.571C564.068 319.163 567.56 315.773 571.968 313.4C576.375 311.027 581.291 309.84 586.715 309.84ZM586.614 321.943C582.545 321.943 579.121 323.401 576.341 326.317C573.561 329.232 572.171 333.402 572.171 338.827C572.171 342.488 572.815 345.607 574.104 348.184C575.46 350.693 577.223 352.591 579.392 353.88C581.562 355.1 583.935 355.71 586.512 355.71C589.021 355.71 591.394 355.066 593.632 353.778C595.869 352.49 597.666 350.591 599.022 348.082C600.446 345.506 601.158 342.421 601.158 338.827C601.158 335.165 600.48 332.08 599.124 329.571C597.768 326.995 595.971 325.096 593.733 323.876C591.563 322.587 589.19 321.943 586.614 321.943ZM652.269 309.84C657.626 309.84 662.508 311.027 666.915 313.4C671.323 315.773 674.815 319.163 677.391 323.571C679.968 327.91 681.256 332.962 681.256 338.725C681.256 344.489 679.968 349.574 677.391 353.981C674.815 358.389 671.289 361.813 666.814 364.254C662.406 366.627 657.49 367.814 652.066 367.814C646.709 367.814 641.827 366.627 637.42 364.254C633.013 361.813 629.521 358.389 626.944 353.981C624.435 349.574 623.181 344.489 623.181 338.725C623.181 332.962 624.469 327.91 627.046 323.571C629.622 319.163 633.114 315.773 637.522 313.4C641.929 311.027 646.845 309.84 652.269 309.84ZM652.168 321.943C648.099 321.943 644.675 323.401 641.895 326.317C639.115 329.232 637.725 333.402 637.725 338.827C637.725 342.488 638.369 345.607 639.658 348.184C641.014 350.693 642.777 352.591 644.946 353.88C647.116 355.1 649.489 355.71 652.066 355.71C654.575 355.71 656.948 355.066 659.186 353.778C661.423 352.49 663.22 350.591 664.576 348.082C666 345.506 666.712 342.421 666.712 338.827C666.712 335.165 666.034 332.08 664.678 329.571C663.322 326.995 661.525 325.096 659.287 323.876C657.117 322.587 654.744 321.943 652.168 321.943ZM712.738 309.84C719.179 309.84 724.468 311.501 728.604 314.824C732.741 318.078 734.944 322.52 735.215 328.148H720.569C720.163 323.401 717.247 321.028 711.823 321.028C709.11 321.028 707.008 321.57 705.517 322.655C704.025 323.74 703.279 325.164 703.279 326.927C703.279 328.419 703.822 329.605 704.906 330.487C705.991 331.368 707.314 332.08 708.873 332.623C710.5 333.097 712.806 333.674 715.789 334.352C719.925 335.233 723.316 336.182 725.96 337.2C728.672 338.149 730.978 339.708 732.876 341.878C734.775 343.98 735.724 346.896 735.724 350.625C735.724 354.015 734.741 356.999 732.774 359.575C730.808 362.152 728.096 364.186 724.638 365.678C721.18 367.102 717.281 367.814 712.941 367.814C706.161 367.814 700.635 366.254 696.363 363.135C692.091 359.948 689.752 355.405 689.345 349.506H703.991C704.262 351.812 705.178 353.575 706.737 354.795C708.297 356.016 710.399 356.626 713.043 356.626C715.688 356.626 717.823 356.049 719.451 354.897C721.078 353.676 721.892 352.151 721.892 350.32C721.892 348.828 721.349 347.642 720.264 346.76C719.179 345.811 717.823 345.099 716.196 344.624C714.569 344.082 712.229 343.472 709.178 342.793C705.042 341.912 701.652 340.997 699.007 340.047C696.431 339.098 694.193 337.606 692.295 335.572C690.396 333.47 689.447 330.656 689.447 327.13C689.447 324.011 690.362 321.13 692.193 318.485C694.024 315.841 696.702 313.739 700.228 312.179C703.754 310.62 707.924 309.84 712.738 309.84ZM776.605 354.998V367H767.553C761.79 367 757.348 365.678 754.229 363.033C751.11 360.389 749.551 356.016 749.551 349.913V322.35H743.55V310.654H749.551V296.72H763.892V310.654H776.503V322.35H763.892V349.913C763.892 351.744 764.332 353.066 765.214 353.88C766.095 354.626 767.621 354.998 769.791 354.998H776.605ZM827.399 310.654L841.739 350.727L856.894 310.654H871.845L836.654 393.648H821.703L833.399 365.983L811.329 310.654H827.399ZM905.447 309.84C910.803 309.84 915.685 311.027 920.093 313.4C924.5 315.773 927.992 319.163 930.569 323.571C933.145 327.91 934.434 332.962 934.434 338.725C934.434 344.489 933.145 349.574 930.569 353.981C927.992 358.389 924.466 361.813 919.991 364.254C915.584 366.627 910.668 367.814 905.243 367.814C899.887 367.814 895.005 366.627 890.597 364.254C886.19 361.813 882.698 358.389 880.122 353.981C877.613 349.574 876.358 344.489 876.358 338.725C876.358 332.962 877.647 327.91 880.223 323.571C882.8 319.163 886.292 315.773 890.699 313.4C895.107 311.027 900.022 309.84 905.447 309.84ZM905.345 321.943C901.277 321.943 897.853 323.401 895.073 326.317C892.293 329.232 890.903 333.402 890.903 338.827C890.903 342.488 891.547 345.607 892.835 348.184C894.191 350.693 895.954 352.591 898.124 353.88C900.294 355.1 902.667 355.71 905.243 355.71C907.752 355.71 910.125 355.066 912.363 353.778C914.601 352.49 916.397 350.591 917.754 348.082C919.177 345.506 919.889 342.421 919.889 338.827C919.889 335.165 919.211 332.08 917.855 329.571C916.499 326.995 914.702 325.096 912.465 323.876C910.295 322.587 907.922 321.943 905.345 321.943ZM998.971 310.654V367H984.63V358.457C982.867 361.44 980.46 363.745 977.408 365.373C974.425 366.932 970.967 367.712 967.034 367.712C962.898 367.712 959.169 366.797 955.846 364.966C952.592 363.067 950.015 360.321 948.117 356.727C946.218 353.066 945.269 348.726 945.269 343.709V310.654H959.508V341.675C959.508 346.082 960.627 349.472 962.864 351.846C965.102 354.219 968.153 355.405 972.018 355.405C975.883 355.405 978.934 354.219 981.172 351.846C983.477 349.472 984.63 346.082 984.63 341.675V310.654H998.971ZM1028.55 320.621C1030.32 317.231 1032.59 314.586 1035.37 312.688C1038.21 310.789 1041.44 309.84 1045.03 309.84V324.486H1041.47C1037.2 324.486 1033.98 325.571 1031.81 327.741C1029.64 329.843 1028.55 333.504 1028.55 338.725V367H1014.21V310.654H1028.55V320.621ZM1124.07 330.69C1128.75 331.368 1132.48 333.402 1135.26 336.793C1138.1 340.115 1139.53 343.98 1139.53 348.387C1139.53 352.049 1138.58 355.304 1136.68 358.151C1134.85 360.931 1132.17 363.101 1128.65 364.661C1125.12 366.22 1120.95 367 1116.14 367H1085.73V296.008H1114.51C1119.32 296.008 1123.49 296.821 1127.02 298.449C1130.61 300.076 1133.32 302.314 1135.16 305.162C1136.99 308.009 1137.9 311.196 1137.9 314.722C1137.9 318.723 1136.68 322.079 1134.24 324.791C1131.87 327.436 1128.48 329.402 1124.07 330.69ZM1100.07 325.401H1112.98C1116.17 325.401 1118.68 324.622 1120.51 323.062C1122.41 321.435 1123.36 319.163 1123.36 316.248C1123.36 313.332 1122.41 311.061 1120.51 309.433C1118.68 307.806 1116.17 306.992 1112.98 306.992H1100.07V325.401ZM1114.51 356.016C1117.7 356.016 1120.24 355.168 1122.14 353.473C1124.1 351.71 1125.09 349.303 1125.09 346.252C1125.09 343.2 1124.1 340.793 1122.14 339.03C1120.17 337.267 1117.59 336.386 1114.41 336.386H1100.07V356.016H1114.51ZM1205.07 310.654V367H1190.73V358.457C1188.96 361.44 1186.56 363.745 1183.51 365.373C1180.52 366.932 1177.06 367.712 1173.13 367.712C1169 367.712 1165.27 366.797 1161.94 364.966C1158.69 363.067 1156.11 360.321 1154.21 356.727C1152.32 353.066 1151.37 348.726 1151.37 343.709V310.654H1165.61V341.675C1165.61 346.082 1166.72 349.472 1168.96 351.846C1171.2 354.219 1174.25 355.405 1178.12 355.405C1181.98 355.405 1185.03 354.219 1187.27 351.846C1189.57 349.472 1190.73 346.082 1190.73 341.675V310.654H1205.07ZM1240.45 309.84C1246.89 309.84 1252.18 311.501 1256.31 314.824C1260.45 318.078 1262.65 322.52 1262.93 328.148H1248.28C1247.87 323.401 1244.96 321.028 1239.53 321.028C1236.82 321.028 1234.72 321.57 1233.23 322.655C1231.73 323.74 1230.99 325.164 1230.99 326.927C1230.99 328.419 1231.53 329.605 1232.62 330.487C1233.7 331.368 1235.02 332.08 1236.58 332.623C1238.21 333.097 1240.52 333.674 1243.5 334.352C1247.64 335.233 1251.03 336.182 1253.67 337.2C1256.38 338.149 1258.69 339.708 1260.59 341.878C1262.48 343.98 1263.43 346.896 1263.43 350.625C1263.43 354.015 1262.45 356.999 1260.48 359.575C1258.52 362.152 1255.81 364.186 1252.35 365.678C1248.89 367.102 1244.99 367.814 1240.65 367.814C1233.87 367.814 1228.34 366.254 1224.07 363.135C1219.8 359.948 1217.46 355.405 1217.05 349.506H1231.7C1231.97 351.812 1232.89 353.575 1234.45 354.795C1236.01 356.016 1238.11 356.626 1240.75 356.626C1243.4 356.626 1245.53 356.049 1247.16 354.897C1248.79 353.676 1249.6 352.151 1249.6 350.32C1249.6 348.828 1249.06 347.642 1247.97 346.76C1246.89 345.811 1245.53 345.099 1243.91 344.624C1242.28 344.082 1239.94 343.472 1236.89 342.793C1232.75 341.912 1229.36 340.997 1226.72 340.047C1224.14 339.098 1221.9 337.606 1220 335.572C1218.11 333.47 1217.16 330.656 1217.16 327.13C1217.16 324.011 1218.07 321.13 1219.9 318.485C1221.73 315.841 1224.41 313.739 1227.94 312.179C1231.46 310.62 1235.63 309.84 1240.45 309.84ZM1274.11 296.313C1274.11 293.872 1274.95 291.804 1276.65 290.109C1278.35 288.414 1280.38 287.566 1282.75 287.566C1285.19 287.566 1287.26 288.414 1288.96 290.109C1290.65 291.804 1291.5 293.872 1291.5 296.313C1291.5 298.754 1290.65 300.822 1288.96 302.517C1287.26 304.212 1285.19 305.06 1282.75 305.06C1280.38 305.06 1278.35 304.212 1276.65 302.517C1274.95 300.822 1274.11 298.754 1274.11 296.313ZM1289.97 310.654V367H1275.63V310.654H1289.97ZM1337.07 309.84C1341.27 309.84 1345 310.789 1348.25 312.688C1351.58 314.519 1354.19 317.265 1356.09 320.926C1357.98 324.52 1358.93 328.826 1358.93 333.843V367H1344.69V335.877C1344.69 331.47 1343.58 328.114 1341.34 325.808C1339.1 323.435 1336.05 322.248 1332.18 322.248C1328.32 322.248 1325.23 323.435 1322.93 325.808C1320.69 328.114 1319.57 331.47 1319.57 335.877V367H1305.23V310.654H1319.57V319.096C1321.34 316.112 1323.71 313.841 1326.69 312.281C1329.74 310.654 1333.2 309.84 1337.07 309.84ZM1425.84 338.013C1425.84 339.98 1425.71 341.81 1425.44 343.505H1384.35C1384.68 347.167 1386.04 350.116 1388.41 352.354C1390.79 354.592 1393.8 355.71 1397.47 355.71C1400.31 355.71 1402.59 355.168 1404.28 354.083C1405.98 352.998 1407.37 351.506 1408.45 349.608H1423.91C1422.28 354.965 1419.13 359.338 1414.45 362.728C1409.77 366.119 1404.11 367.814 1397.47 367.814C1392.11 367.814 1387.33 366.627 1383.12 364.254C1378.92 361.813 1375.63 358.423 1373.26 354.083C1370.89 349.676 1369.7 344.556 1369.7 338.725C1369.7 332.894 1370.89 327.809 1373.26 323.469C1375.63 319.129 1378.92 315.773 1383.12 313.4C1387.4 311.027 1392.24 309.84 1397.67 309.84C1403.09 309.84 1407.91 310.993 1412.11 313.298C1416.38 315.604 1419.74 318.892 1422.18 323.164C1424.62 327.368 1425.84 332.318 1425.84 338.013ZM1410.99 334.25C1410.79 330.521 1409.4 327.537 1406.82 325.3C1404.31 323.062 1401.2 321.943 1397.47 321.943C1394.01 321.943 1391.06 323.062 1388.62 325.3C1386.24 327.537 1384.82 330.521 1384.35 334.25H1410.99ZM1457.27 309.84C1463.71 309.84 1469 311.501 1473.14 314.824C1477.27 318.078 1479.48 322.52 1479.75 328.148H1465.1C1464.7 323.401 1461.78 321.028 1456.36 321.028C1453.64 321.028 1451.54 321.57 1450.05 322.655C1448.56 323.74 1447.81 325.164 1447.81 326.927C1447.81 328.419 1448.36 329.605 1449.44 330.487C1450.53 331.368 1451.85 332.08 1453.41 332.623C1455.03 333.097 1457.34 333.674 1460.32 334.352C1464.46 335.233 1467.85 336.182 1470.49 337.2C1473.21 338.149 1475.51 339.708 1477.41 341.878C1479.31 343.98 1480.26 346.896 1480.26 350.625C1480.26 354.015 1479.28 356.999 1477.31 359.575C1475.34 362.152 1472.63 364.186 1469.17 365.678C1465.71 367.102 1461.82 367.814 1457.48 367.814C1450.7 367.814 1445.17 366.254 1440.9 363.135C1436.63 359.948 1434.29 355.405 1433.88 349.506H1448.53C1448.8 351.812 1449.71 353.575 1451.27 354.795C1452.83 356.016 1454.93 356.626 1457.58 356.626C1460.22 356.626 1462.36 356.049 1463.99 354.897C1465.61 353.676 1466.43 352.151 1466.43 350.32C1466.43 348.828 1465.88 347.642 1464.8 346.76C1463.71 345.811 1462.36 345.099 1460.73 344.624C1459.1 344.082 1456.76 343.472 1453.71 342.793C1449.58 341.912 1446.19 340.997 1443.54 340.047C1440.97 339.098 1438.73 337.606 1436.83 335.572C1434.93 333.47 1433.98 330.656 1433.98 327.13C1433.98 324.011 1434.9 321.13 1436.73 318.485C1438.56 315.841 1441.24 313.739 1444.76 312.179C1448.29 310.62 1452.46 309.84 1457.27 309.84ZM1512.6 309.84C1519.04 309.84 1524.33 311.501 1528.46 314.824C1532.6 318.078 1534.8 322.52 1535.07 328.148H1520.43C1520.02 323.401 1517.11 321.028 1511.68 321.028C1508.97 321.028 1506.87 321.57 1505.37 322.655C1503.88 323.74 1503.14 325.164 1503.14 326.927C1503.14 328.419 1503.68 329.605 1504.76 330.487C1505.85 331.368 1507.17 332.08 1508.73 332.623C1510.36 333.097 1512.66 333.674 1515.65 334.352C1519.78 335.233 1523.17 336.182 1525.82 337.2C1528.53 338.149 1530.84 339.708 1532.73 341.878C1534.63 343.98 1535.58 346.896 1535.58 350.625C1535.58 354.015 1534.6 356.999 1532.63 359.575C1530.67 362.152 1527.95 364.186 1524.5 365.678C1521.04 367.102 1517.14 367.814 1512.8 367.814C1506.02 367.814 1500.49 366.254 1496.22 363.135C1491.95 359.948 1489.61 355.405 1489.2 349.506H1503.85C1504.12 351.812 1505.04 353.575 1506.6 354.795C1508.15 356.016 1510.26 356.626 1512.9 356.626C1515.55 356.626 1517.68 356.049 1519.31 354.897C1520.94 353.676 1521.75 352.151 1521.75 350.32C1521.75 348.828 1521.21 347.642 1520.12 346.76C1519.04 345.811 1517.68 345.099 1516.05 344.624C1514.43 344.082 1512.09 343.472 1509.04 342.793C1504.9 341.912 1501.51 340.997 1498.87 340.047C1496.29 339.098 1494.05 337.606 1492.15 335.572C1490.25 333.47 1489.3 330.656 1489.3 327.13C1489.3 324.011 1490.22 321.13 1492.05 318.485C1493.88 315.841 1496.56 313.739 1500.09 312.179C1503.61 310.62 1507.78 309.84 1512.6 309.84ZM1655.88 310.654L1638.59 367H1623.33L1613.67 329.165L1603.9 367H1588.65L1571.36 310.654H1585.8L1596.17 353.473L1606.55 310.654H1621.6L1631.77 353.371L1642.15 310.654H1655.88ZM1662.56 296.313C1662.56 293.872 1663.41 291.804 1665.11 290.109C1666.8 288.414 1668.84 287.566 1671.21 287.566C1673.65 287.566 1675.72 288.414 1677.41 290.109C1679.11 291.804 1679.96 293.872 1679.96 296.313C1679.96 298.754 1679.11 300.822 1677.41 302.517C1675.72 304.212 1673.65 305.06 1671.21 305.06C1668.84 305.06 1666.8 304.212 1665.11 302.517C1663.41 300.822 1662.56 298.754 1662.56 296.313ZM1678.43 310.654V367H1664.09V310.654H1678.43ZM1722.37 354.998V367H1713.32C1707.55 367 1703.11 365.678 1699.99 363.033C1696.88 360.389 1695.32 356.016 1695.32 349.913V322.35H1689.32V310.654H1695.32V296.72H1709.66V310.654H1722.27V322.35H1709.66V349.913C1709.66 351.744 1710.1 353.066 1710.98 353.88C1711.86 354.626 1713.39 354.998 1715.56 354.998H1722.37ZM1765.35 309.84C1769.56 309.84 1773.29 310.789 1776.54 312.688C1779.86 314.519 1782.47 317.265 1784.37 320.926C1786.27 324.52 1787.22 328.826 1787.22 333.843V367H1772.98V335.877C1772.98 331.47 1771.86 328.114 1769.62 325.808C1767.39 323.435 1764.34 322.248 1760.47 322.248C1756.61 322.248 1753.52 323.435 1751.21 325.808C1748.98 328.114 1747.86 331.47 1747.86 335.877V367H1733.52V291.736H1747.86V319.096C1749.62 316.112 1751.99 313.841 1754.98 312.281C1758.03 310.654 1761.49 309.84 1765.35 309.84ZM585.398 484.606C585.398 491.725 583.805 497.963 580.618 503.32C577.431 508.609 572.956 512.711 567.192 515.627C561.429 518.542 554.784 520 547.257 520H523.153V449.008H547.257C554.784 449.008 561.429 450.5 567.192 453.483C572.956 456.399 577.431 460.535 580.618 465.891C583.805 471.248 585.398 477.486 585.398 484.606ZM547.257 509.117C554.716 509.117 560.513 506.914 564.65 502.506C568.786 498.099 570.854 492.132 570.854 484.606C570.854 477.079 568.786 471.112 564.65 466.705C560.513 462.298 554.716 460.094 547.257 460.094H537.493V509.117H547.257ZM595.127 449.313C595.127 446.872 595.975 444.804 597.67 443.109C599.365 441.414 601.399 440.566 603.772 440.566C606.213 440.566 608.281 441.414 609.976 443.109C611.671 444.804 612.519 446.872 612.519 449.313C612.519 451.754 611.671 453.822 609.976 455.517C608.281 457.212 606.213 458.06 603.772 458.06C601.399 458.06 599.365 457.212 597.67 455.517C595.975 453.822 595.127 451.754 595.127 449.313ZM610.993 463.654V520H596.653V463.654H610.993ZM648.424 462.84C652.424 462.84 655.984 463.688 659.103 465.383C662.222 467.078 664.731 469.417 666.629 472.401V463.654H680.868V520.407C680.868 525.628 679.817 530.306 677.715 534.443C675.681 538.579 672.562 541.833 668.358 544.207C664.222 546.648 659.103 547.868 653 547.868C644.932 547.868 638.354 546.071 633.269 542.477C628.251 538.952 625.404 533.9 624.726 527.323H638.761C639.643 529.832 641.338 531.798 643.847 533.222C646.355 534.714 649.407 535.46 653 535.46C657.001 535.46 660.256 534.205 662.764 531.696C665.341 529.188 666.629 525.424 666.629 520.407V510.541C664.663 513.728 662.12 516.237 659.001 518.068C655.95 519.898 652.424 520.814 648.424 520.814C643.609 520.814 639.202 519.593 635.202 517.152C631.269 514.643 628.116 511.185 625.743 506.778C623.437 502.371 622.285 497.353 622.285 491.725C622.285 486.097 623.437 481.114 625.743 476.774C628.116 472.367 631.269 468.943 635.202 466.502C639.202 464.061 643.609 462.84 648.424 462.84ZM651.678 475.248C649.169 475.248 646.762 475.893 644.457 477.181C642.219 478.469 640.389 480.368 638.965 482.877C637.541 485.318 636.829 488.267 636.829 491.725C636.829 495.183 637.541 498.201 638.965 500.777C640.389 503.286 642.219 505.185 644.457 506.473C646.762 507.761 649.169 508.405 651.678 508.405C654.255 508.405 656.662 507.761 658.899 506.473C661.205 505.185 663.07 503.286 664.493 500.777C665.917 498.268 666.629 495.285 666.629 491.827C666.629 488.369 665.917 485.385 664.493 482.877C663.07 480.368 661.205 478.469 658.899 477.181C656.662 475.893 654.255 475.248 651.678 475.248ZM694.55 449.313C694.55 446.872 695.398 444.804 697.093 443.109C698.788 441.414 700.822 440.566 703.196 440.566C705.637 440.566 707.705 441.414 709.4 443.109C711.095 444.804 711.943 446.872 711.943 449.313C711.943 451.754 711.095 453.822 709.4 455.517C707.705 457.212 705.637 458.06 703.196 458.06C700.822 458.06 698.788 457.212 697.093 455.517C695.398 453.822 694.55 451.754 694.55 449.313ZM710.417 463.654V520H696.076V463.654H710.417ZM754.356 507.998V520H745.304C739.541 520 735.1 518.678 731.981 516.033C728.862 513.389 727.302 509.016 727.302 502.913V475.35H721.301V463.654H727.302V449.72H741.643V463.654H754.255V475.35H741.643V502.913C741.643 504.744 742.084 506.066 742.965 506.88C743.847 507.626 745.372 507.998 747.542 507.998H754.356ZM787.676 462.84C791.677 462.84 795.236 463.688 798.355 465.383C801.475 467.078 803.983 469.417 805.882 472.401V463.654H820.121V520H805.882V510.541C803.916 513.728 801.373 516.237 798.254 518.068C795.203 519.898 791.677 520.814 787.676 520.814C782.862 520.814 778.455 519.593 774.454 517.152C770.521 514.643 767.368 511.185 764.995 506.778C762.69 502.371 761.537 497.353 761.537 491.725C761.537 486.097 762.69 481.114 764.995 476.774C767.368 472.367 770.521 468.943 774.454 466.502C778.455 464.061 782.862 462.84 787.676 462.84ZM790.931 475.248C788.422 475.248 786.015 475.893 783.71 477.181C781.472 478.469 779.641 480.368 778.217 482.877C776.793 485.318 776.081 488.267 776.081 491.725C776.081 495.183 776.793 498.201 778.217 500.777C779.641 503.286 781.472 505.185 783.71 506.473C786.015 507.761 788.422 508.405 790.931 508.405C793.507 508.405 795.914 507.761 798.152 506.473C800.457 505.185 802.322 503.286 803.746 500.777C805.17 498.268 805.882 495.285 805.882 491.827C805.882 488.369 805.17 485.385 803.746 482.877C802.322 480.368 800.457 478.469 798.152 477.181C795.914 475.893 793.507 475.248 790.931 475.248ZM849.669 444.736V520H835.329V444.736H849.669ZM903.271 483.69C907.95 484.368 911.679 486.402 914.459 489.793C917.307 493.115 918.731 496.98 918.731 501.387C918.731 505.049 917.782 508.304 915.883 511.151C914.052 513.931 911.374 516.101 907.848 517.661C904.322 519.22 900.152 520 895.338 520H864.927V449.008H893.711C898.525 449.008 902.695 449.821 906.221 451.449C909.814 453.076 912.527 455.314 914.357 458.162C916.188 461.009 917.104 464.196 917.104 467.722C917.104 471.723 915.883 475.079 913.442 477.791C911.069 480.436 907.679 482.402 903.271 483.69ZM879.268 478.401H892.185C895.372 478.401 897.881 477.622 899.711 476.062C901.61 474.435 902.559 472.163 902.559 469.248C902.559 466.332 901.61 464.061 899.711 462.433C897.881 460.806 895.372 459.992 892.185 459.992H879.268V478.401ZM893.711 509.016C896.898 509.016 899.44 508.168 901.339 506.473C903.305 504.71 904.288 502.303 904.288 499.252C904.288 496.2 903.305 493.793 901.339 492.03C899.372 490.267 896.796 489.386 893.609 489.386H879.268V509.016H893.711ZM945.418 473.621C947.181 470.231 949.453 467.586 952.233 465.688C955.08 463.789 958.301 462.84 961.895 462.84V477.486H958.335C954.063 477.486 950.843 478.571 948.673 480.741C946.503 482.843 945.418 486.504 945.418 491.725V520H931.077V463.654H945.418V473.621ZM1024.27 491.013C1024.27 492.98 1024.14 494.81 1023.87 496.505H982.778C983.117 500.167 984.473 503.116 986.846 505.354C989.219 507.592 992.236 508.71 995.898 508.71C998.746 508.71 1001.02 508.168 1002.71 507.083C1004.41 505.998 1005.8 504.506 1006.88 502.608H1022.34C1020.71 507.965 1017.56 512.338 1012.88 515.728C1008.2 519.119 1002.54 520.814 995.898 520.814C990.541 520.814 985.761 519.627 981.557 517.254C977.353 514.813 974.065 511.423 971.691 507.083C969.318 502.676 968.132 497.556 968.132 491.725C968.132 485.894 969.318 480.809 971.691 476.469C974.065 472.129 977.353 468.773 981.557 466.4C985.829 464.027 990.677 462.84 996.101 462.84C1001.53 462.84 1006.34 463.993 1010.54 466.298C1014.82 468.604 1018.17 471.892 1020.61 476.164C1023.05 480.368 1024.27 485.318 1024.27 491.013ZM1009.43 487.25C1009.22 483.521 1007.83 480.537 1005.26 478.3C1002.75 476.062 999.627 474.943 995.898 474.943C992.44 474.943 989.49 476.062 987.049 478.3C984.676 480.537 983.252 483.521 982.778 487.25H1009.43ZM1113.17 463.654L1095.88 520H1080.62L1070.96 482.165L1061.2 520H1045.94L1028.65 463.654H1043.09L1053.47 506.473L1063.84 463.654H1078.89L1089.06 506.371L1099.44 463.654H1113.17ZM1193.88 506.676H1166.22L1161.64 520H1146.48L1171.61 448.804H1188.59L1213.61 520H1198.46L1193.88 506.676ZM1190.22 495.692L1180.05 466.095L1169.98 495.692H1190.22ZM1245.76 462.84C1249.76 462.84 1253.32 463.688 1256.44 465.383C1259.56 467.078 1262.07 469.417 1263.97 472.401V463.654H1278.2V520.407C1278.2 525.628 1277.15 530.306 1275.05 534.443C1273.02 538.579 1269.9 541.833 1265.69 544.207C1261.56 546.648 1256.44 547.868 1250.34 547.868C1242.27 547.868 1235.69 546.071 1230.6 542.477C1225.59 538.952 1222.74 533.9 1222.06 527.323H1236.1C1236.98 529.832 1238.67 531.798 1241.18 533.222C1243.69 534.714 1246.74 535.46 1250.34 535.46C1254.34 535.46 1257.59 534.205 1260.1 531.696C1262.68 529.188 1263.97 525.424 1263.97 520.407V510.541C1262 513.728 1259.46 516.237 1256.34 518.068C1253.29 519.898 1249.76 520.814 1245.76 520.814C1240.95 520.814 1236.54 519.593 1232.54 517.152C1228.6 514.643 1225.45 511.185 1223.08 506.778C1220.77 502.371 1219.62 497.353 1219.62 491.725C1219.62 486.097 1220.77 481.114 1223.08 476.774C1225.45 472.367 1228.6 468.943 1232.54 466.502C1236.54 464.061 1240.95 462.84 1245.76 462.84ZM1249.01 475.248C1246.51 475.248 1244.1 475.893 1241.79 477.181C1239.56 478.469 1237.72 480.368 1236.3 482.877C1234.88 485.318 1234.16 488.267 1234.16 491.725C1234.16 495.183 1234.88 498.201 1236.3 500.777C1237.72 503.286 1239.56 505.185 1241.79 506.473C1244.1 507.761 1246.51 508.405 1249.01 508.405C1251.59 508.405 1254 507.761 1256.24 506.473C1258.54 505.185 1260.41 503.286 1261.83 500.777C1263.25 498.268 1263.97 495.285 1263.97 491.827C1263.97 488.369 1263.25 485.385 1261.83 482.877C1260.41 480.368 1258.54 478.469 1256.24 477.181C1254 475.893 1251.59 475.248 1249.01 475.248ZM1345.59 491.013C1345.59 492.98 1345.45 494.81 1345.18 496.505H1304.09C1304.43 500.167 1305.79 503.116 1308.16 505.354C1310.53 507.592 1313.55 508.71 1317.21 508.71C1320.06 508.71 1322.33 508.168 1324.03 507.083C1325.72 505.998 1327.11 504.506 1328.2 502.608H1343.66C1342.03 507.965 1338.88 512.338 1334.2 515.728C1329.52 519.119 1323.86 520.814 1317.21 520.814C1311.86 520.814 1307.07 519.627 1302.87 517.254C1298.67 514.813 1295.38 511.423 1293.01 507.083C1290.63 502.676 1289.45 497.556 1289.45 491.725C1289.45 485.894 1290.63 480.809 1293.01 476.469C1295.38 472.129 1298.67 468.773 1302.87 466.4C1307.14 464.027 1311.99 462.84 1317.42 462.84C1322.84 462.84 1327.65 463.993 1331.86 466.298C1336.13 468.604 1339.49 471.892 1341.93 476.164C1344.37 480.368 1345.59 485.318 1345.59 491.013ZM1330.74 487.25C1330.54 483.521 1329.15 480.537 1326.57 478.3C1324.06 476.062 1320.94 474.943 1317.21 474.943C1313.75 474.943 1310.8 476.062 1308.36 478.3C1305.99 480.537 1304.57 483.521 1304.09 487.25H1330.74ZM1388.71 462.84C1392.92 462.84 1396.65 463.789 1399.9 465.688C1403.23 467.519 1405.84 470.265 1407.73 473.926C1409.63 477.52 1410.58 481.826 1410.58 486.843V520H1396.34V488.877C1396.34 484.47 1395.22 481.114 1392.99 478.808C1390.75 476.435 1387.7 475.248 1383.83 475.248C1379.97 475.248 1376.88 476.435 1374.58 478.808C1372.34 481.114 1371.22 484.47 1371.22 488.877V520H1356.88V463.654H1371.22V472.096C1372.98 469.112 1375.36 466.841 1378.34 465.281C1381.39 463.654 1384.85 462.84 1388.71 462.84ZM1449.11 462.84C1455.96 462.84 1461.69 464.501 1466.3 467.824C1470.91 471.146 1474 475.859 1475.56 481.961H1460.1C1459.22 479.791 1457.86 478.096 1456.03 476.876C1454.2 475.587 1451.89 474.943 1449.11 474.943C1444.98 474.943 1441.72 476.469 1439.35 479.52C1437.04 482.504 1435.89 486.606 1435.89 491.827C1435.89 497.048 1437.04 501.184 1439.35 504.235C1441.72 507.219 1444.98 508.71 1449.11 508.71C1451.96 508.71 1454.27 508.134 1456.03 506.981C1457.79 505.829 1459.15 504.032 1460.1 501.591H1475.56C1473.93 507.49 1470.78 512.168 1466.1 515.627C1461.49 519.085 1455.83 520.814 1449.11 520.814C1443.76 520.814 1438.98 519.627 1434.77 517.254C1430.57 514.881 1427.28 511.524 1424.91 507.185C1422.53 502.777 1421.35 497.658 1421.35 491.827C1421.35 485.996 1422.53 480.91 1424.91 476.571C1427.28 472.163 1430.57 468.773 1434.77 466.4C1438.98 464.027 1443.76 462.84 1449.11 462.84ZM1495.45 463.654L1509.79 503.727L1524.95 463.654H1539.9L1504.71 546.648H1489.76L1501.45 518.983L1479.38 463.654H1495.45Z" fill="black"/>
<path d="M433.245 653.841V665.961H429.389V636.593H438.924C441.127 636.593 442.992 636.974 444.518 637.737C446.043 638.472 447.187 639.503 447.95 640.831C448.713 642.13 449.095 643.599 449.095 645.238C449.095 647.724 448.247 649.787 446.552 651.425C444.885 653.036 442.342 653.841 438.924 653.841H433.245ZM438.924 650.789C441.043 650.789 442.611 650.309 443.628 649.349C444.673 648.36 445.196 646.99 445.196 645.238C445.196 643.486 444.687 642.13 443.67 641.17C442.653 640.181 441.071 639.686 438.924 639.686H433.245V650.789H438.924ZM464.102 642.314C466.305 642.314 468.297 642.808 470.077 643.797C471.857 644.786 473.255 646.199 474.273 648.035C475.318 649.871 475.841 651.976 475.841 654.349C475.841 656.694 475.304 658.785 474.23 660.621C473.157 662.429 471.702 663.842 469.865 664.859C468.029 665.848 465.995 666.342 463.763 666.342C461.587 666.342 459.624 665.848 457.872 664.859C456.149 663.87 454.793 662.472 453.804 660.664C452.843 658.827 452.363 656.722 452.363 654.349C452.363 651.948 452.871 649.843 453.889 648.035C454.934 646.199 456.346 644.786 458.126 643.797C459.906 642.808 461.898 642.314 464.102 642.314ZM463.975 645.492C462.562 645.492 461.277 645.831 460.118 646.509C458.96 647.187 458.028 648.19 457.321 649.518C456.643 650.846 456.304 652.456 456.304 654.349C456.304 656.214 456.629 657.81 457.279 659.138C457.957 660.466 458.861 661.469 459.991 662.147C461.121 662.825 462.378 663.164 463.763 663.164C465.175 663.164 466.489 662.825 467.704 662.147C468.947 661.441 469.95 660.424 470.713 659.096C471.476 657.768 471.857 656.186 471.857 654.349C471.857 652.485 471.49 650.888 470.755 649.561C470.049 648.204 469.088 647.187 467.873 646.509C466.687 645.831 465.387 645.492 463.975 645.492ZM511.219 642.695L503.888 665.961H499.904L494.65 647.484L489.395 665.961H485.369L477.995 642.695H481.978L487.36 662.105L492.827 642.695H496.811L501.981 662.147L507.321 642.695H511.219ZM535.995 653.375C535.995 654.194 535.938 654.957 535.825 655.663H517.306C517.419 657.98 518.139 659.816 519.467 661.172C520.823 662.5 522.547 663.164 524.637 663.164C526.219 663.164 527.547 662.811 528.621 662.105C529.723 661.398 530.528 660.466 531.036 659.308H535.189C534.455 661.342 533.183 663.023 531.375 664.351C529.595 665.678 527.349 666.342 524.637 666.342C522.462 666.342 520.512 665.848 518.789 664.859C517.094 663.87 515.766 662.472 514.805 660.664C513.845 658.827 513.365 656.722 513.365 654.349C513.365 651.948 513.845 649.843 514.805 648.035C515.766 646.199 517.122 644.786 518.874 643.797C520.625 642.808 522.645 642.314 524.934 642.314C527.109 642.314 529.03 642.794 530.697 643.755C532.364 644.715 533.664 646.029 534.596 647.696C535.528 649.363 535.995 651.256 535.995 653.375ZM531.969 652.866C531.969 651.369 531.644 650.069 530.994 648.967C530.344 647.837 529.454 646.975 528.324 646.382C527.222 645.789 525.993 645.492 524.637 645.492C522.631 645.492 520.95 646.156 519.594 647.484C518.238 648.784 517.489 650.578 517.348 652.866H531.969ZM544.654 646.636C546.038 643.755 548.397 642.314 551.731 642.314V646.34H550.714C548.736 646.34 547.225 646.862 546.179 647.908C545.162 648.925 544.654 650.705 544.654 653.247V665.961H540.797V642.695H544.654V646.636ZM589.361 642.695V665.961H585.505V662.232C584.742 663.588 583.697 664.619 582.369 665.325C581.041 666.003 579.558 666.342 577.919 666.342C576.252 666.342 574.727 665.975 573.342 665.241C571.986 664.478 570.899 663.362 570.079 661.893C569.288 660.424 568.893 658.629 568.893 656.511V642.695H572.707V655.875C572.707 658.192 573.272 659.971 574.402 661.215C575.56 662.429 577.128 663.037 579.106 663.037C581.084 663.037 582.637 662.429 583.768 661.215C584.926 659.971 585.505 658.192 585.505 655.875V642.695H589.361ZM608.174 642.314C610.265 642.314 612.144 642.808 613.811 643.797C615.506 644.786 616.834 646.184 617.794 647.993C618.783 649.772 619.278 651.835 619.278 654.18C619.278 656.525 618.783 658.629 617.794 660.494C616.834 662.331 615.506 663.771 613.811 664.817C612.144 665.834 610.265 666.342 608.174 666.342C606.197 666.342 604.459 665.876 602.962 664.944C601.493 663.983 600.363 662.74 599.572 661.215V676.979H595.715V642.695H599.572V647.357C600.363 645.859 601.493 644.645 602.962 643.712C604.459 642.78 606.197 642.314 608.174 642.314ZM607.412 645.662C606.027 645.662 604.728 646.015 603.513 646.721C602.326 647.427 601.366 648.445 600.631 649.772C599.925 651.072 599.572 652.598 599.572 654.349C599.572 656.101 599.925 657.641 600.631 658.969C601.366 660.268 602.326 661.271 603.513 661.977C604.728 662.684 606.027 663.037 607.412 663.037C608.796 663.037 610.096 662.684 611.31 661.977C612.525 661.243 613.486 660.197 614.192 658.841C614.927 657.485 615.294 655.931 615.294 654.18C615.294 652.428 614.927 650.917 614.192 649.645C613.486 648.346 612.525 647.357 611.31 646.679C610.124 646.001 608.824 645.662 607.412 645.662ZM638.379 642.695L645.498 661.511L652.745 642.695H656.728L642.701 676.852H638.718L643.337 665.58L634.141 642.695H638.379ZM670.613 642.314C672.817 642.314 674.809 642.808 676.589 643.797C678.369 644.786 679.767 646.199 680.784 648.035C681.829 649.871 682.352 651.976 682.352 654.349C682.352 656.694 681.815 658.785 680.742 660.621C679.668 662.429 678.213 663.842 676.377 664.859C674.54 665.848 672.506 666.342 670.274 666.342C668.099 666.342 666.135 665.848 664.384 664.859C662.66 663.87 661.304 662.472 660.315 660.664C659.355 658.827 658.875 656.722 658.875 654.349C658.875 651.948 659.383 649.843 660.4 648.035C661.445 646.199 662.858 644.786 664.638 643.797C666.418 642.808 668.41 642.314 670.613 642.314ZM670.486 645.492C669.074 645.492 667.788 645.831 666.63 646.509C665.471 647.187 664.539 648.19 663.833 649.518C663.155 650.846 662.816 652.456 662.816 654.349C662.816 656.214 663.141 657.81 663.79 659.138C664.468 660.466 665.373 661.469 666.503 662.147C667.633 662.825 668.89 663.164 670.274 663.164C671.687 663.164 673.001 662.825 674.215 662.147C675.459 661.441 676.462 660.424 677.224 659.096C677.987 657.768 678.369 656.186 678.369 654.349C678.369 652.485 678.001 650.888 677.267 649.561C676.56 648.204 675.6 647.187 674.385 646.509C673.198 645.831 671.899 645.492 670.486 645.492ZM707.433 642.695V665.961H703.577V662.232C702.814 663.588 701.769 664.619 700.441 665.325C699.113 666.003 697.63 666.342 695.991 666.342C694.324 666.342 692.798 665.975 691.414 665.241C690.058 664.478 688.97 663.362 688.151 661.893C687.36 660.424 686.964 658.629 686.964 656.511V642.695H690.778V655.875C690.778 658.192 691.344 659.971 692.474 661.215C693.632 662.429 695.2 663.037 697.178 663.037C699.155 663.037 700.709 662.429 701.839 661.215C702.998 659.971 703.577 658.192 703.577 655.875V642.695H707.433ZM717.643 646.636C719.028 643.755 721.387 642.314 724.721 642.314V646.34H723.703C721.726 646.34 720.214 646.862 719.169 647.908C718.152 648.925 717.643 650.705 717.643 653.247V665.961H713.787V642.695H717.643V646.636ZM754.554 642.314C756.644 642.314 758.523 642.808 760.19 643.797C761.885 644.786 763.213 646.184 764.173 647.993C765.162 649.772 765.657 651.835 765.657 654.18C765.657 656.525 765.162 658.629 764.173 660.494C763.213 662.331 761.885 663.771 760.19 664.817C758.523 665.834 756.644 666.342 754.554 666.342C752.576 666.342 750.838 665.876 749.341 664.944C747.872 663.983 746.742 662.74 745.951 661.215V665.961H742.094V634.601H745.951V647.357C746.742 645.859 747.872 644.645 749.341 643.712C750.838 642.78 752.576 642.314 754.554 642.314ZM753.791 645.662C752.406 645.662 751.107 646.015 749.892 646.721C748.705 647.427 747.745 648.445 747.01 649.772C746.304 651.072 745.951 652.598 745.951 654.349C745.951 656.101 746.304 657.641 747.01 658.969C747.745 660.268 748.705 661.271 749.892 661.977C751.107 662.684 752.406 663.037 753.791 663.037C755.175 663.037 756.475 662.684 757.69 661.977C758.904 661.243 759.865 660.197 760.571 658.841C761.306 657.485 761.673 655.931 761.673 654.18C761.673 652.428 761.306 650.917 760.571 649.645C759.865 648.346 758.904 647.357 757.69 646.679C756.503 646.001 755.203 645.662 753.791 645.662ZM790.741 642.695V665.961H786.885V662.232C786.122 663.588 785.077 664.619 783.749 665.325C782.421 666.003 780.938 666.342 779.299 666.342C777.632 666.342 776.107 665.975 774.722 665.241C773.366 664.478 772.278 663.362 771.459 661.893C770.668 660.424 770.273 658.629 770.273 656.511V642.695H774.087V655.875C774.087 658.192 774.652 659.971 775.782 661.215C776.94 662.429 778.508 663.037 780.486 663.037C782.463 663.037 784.017 662.429 785.147 661.215C786.306 659.971 786.885 658.192 786.885 655.875V642.695H790.741ZM805.105 642.314C807.619 642.314 809.611 642.978 811.08 644.306C812.549 645.605 813.354 647.399 813.496 649.688H809.512C809.455 648.388 809.018 647.343 808.198 646.552C807.379 645.761 806.249 645.365 804.808 645.365C803.339 645.365 802.18 645.718 801.333 646.425C800.514 647.103 800.104 647.964 800.104 649.01C800.104 649.885 800.358 650.592 800.867 651.129C801.404 651.637 802.053 652.018 802.816 652.273C803.607 652.527 804.667 652.795 805.995 653.078C807.69 653.473 809.046 653.869 810.063 654.265C811.108 654.632 811.998 655.267 812.733 656.172C813.467 657.047 813.835 658.248 813.835 659.774C813.835 661.045 813.467 662.189 812.733 663.206C811.998 664.195 810.967 664.972 809.639 665.537C808.311 666.074 806.786 666.342 805.062 666.342C802.463 666.342 800.372 665.693 798.79 664.393C797.236 663.093 796.389 661.299 796.248 659.011H800.231C800.288 660.31 800.74 661.356 801.587 662.147C802.463 662.91 803.621 663.291 805.062 663.291C806.644 663.291 807.859 662.966 808.707 662.316C809.583 661.667 810.02 660.805 810.02 659.731C810.02 658.856 809.752 658.163 809.215 657.655C808.707 657.118 808.057 656.722 807.266 656.468C806.475 656.186 805.387 655.889 804.003 655.578C802.336 655.211 800.98 654.844 799.934 654.476C798.917 654.081 798.042 653.473 797.307 652.654C796.601 651.835 796.248 650.705 796.248 649.264C796.248 647.993 796.601 646.834 797.307 645.789C798.042 644.715 799.073 643.868 800.401 643.246C801.757 642.625 803.325 642.314 805.105 642.314ZM818.766 636.338C818.766 635.604 819.02 634.982 819.529 634.474C820.037 633.965 820.645 633.711 821.351 633.711C822.086 633.711 822.707 633.965 823.216 634.474C823.724 634.982 823.979 635.604 823.979 636.338C823.979 637.073 823.724 637.695 823.216 638.203C822.707 638.712 822.086 638.966 821.351 638.966C820.616 638.966 819.995 638.712 819.486 638.203C819.006 637.695 818.766 637.073 818.766 636.338ZM823.258 642.695V665.961H819.402V642.695H823.258ZM841.066 642.314C842.733 642.314 844.244 642.695 845.6 643.458C846.985 644.193 848.072 645.309 848.864 646.806C849.683 648.275 850.093 650.069 850.093 652.188V665.961H846.278V652.824C846.278 650.479 845.713 648.699 844.583 647.484C843.453 646.269 841.885 645.662 839.879 645.662C837.902 645.662 836.334 646.269 835.175 647.484C834.045 648.699 833.48 650.479 833.48 652.824V665.961H829.624V642.695H833.48V646.467C834.243 645.111 835.288 644.08 836.616 643.373C837.944 642.667 839.427 642.314 841.066 642.314ZM877.339 653.375C877.339 654.194 877.282 654.957 877.169 655.663H858.65C858.763 657.98 859.483 659.816 860.811 661.172C862.167 662.5 863.891 663.164 865.981 663.164C867.564 663.164 868.891 662.811 869.965 662.105C871.067 661.398 871.872 660.466 872.381 659.308H876.534C875.799 661.342 874.528 663.023 872.72 664.351C870.94 665.678 868.694 666.342 865.981 666.342C863.806 666.342 861.857 665.848 860.133 664.859C858.438 663.87 857.11 662.472 856.15 660.664C855.189 658.827 854.709 656.722 854.709 654.349C854.709 651.948 855.189 649.843 856.15 648.035C857.11 646.199 858.466 644.786 860.218 643.797C861.97 642.808 863.99 642.314 866.278 642.314C868.453 642.314 870.375 642.794 872.041 643.755C873.708 644.715 875.008 646.029 875.94 647.696C876.873 649.363 877.339 651.256 877.339 653.375ZM873.313 652.866C873.313 651.369 872.988 650.069 872.338 648.967C871.688 647.837 870.798 646.975 869.668 646.382C868.566 645.789 867.337 645.492 865.981 645.492C863.975 645.492 862.294 646.156 860.938 647.484C859.582 648.784 858.834 650.578 858.692 652.866H873.313ZM890.151 642.314C892.665 642.314 894.657 642.978 896.126 644.306C897.595 645.605 898.401 647.399 898.542 649.688H894.558C894.502 648.388 894.064 647.343 893.245 646.552C892.425 645.761 891.295 645.365 889.854 645.365C888.385 645.365 887.227 645.718 886.379 646.425C885.56 647.103 885.15 647.964 885.15 649.01C885.15 649.885 885.405 650.592 885.913 651.129C886.45 651.637 887.1 652.018 887.863 652.273C888.654 652.527 889.713 652.795 891.041 653.078C892.736 653.473 894.092 653.869 895.109 654.265C896.155 654.632 897.044 655.267 897.779 656.172C898.514 657.047 898.881 658.248 898.881 659.774C898.881 661.045 898.514 662.189 897.779 663.206C897.044 664.195 896.013 664.972 894.685 665.537C893.358 666.074 891.832 666.342 890.109 666.342C887.509 666.342 885.419 665.693 883.837 664.393C882.283 663.093 881.435 661.299 881.294 659.011H885.277C885.334 660.31 885.786 661.356 886.634 662.147C887.509 662.91 888.668 663.291 890.109 663.291C891.691 663.291 892.906 662.966 893.753 662.316C894.629 661.667 895.067 660.805 895.067 659.731C895.067 658.856 894.798 658.163 894.262 657.655C893.753 657.118 893.103 656.722 892.312 656.468C891.521 656.186 890.433 655.889 889.049 655.578C887.382 655.211 886.026 654.844 884.981 654.476C883.964 654.081 883.088 653.473 882.353 652.654C881.647 651.835 881.294 650.705 881.294 649.264C881.294 647.993 881.647 646.834 882.353 645.789C883.088 644.715 884.119 643.868 885.447 643.246C886.803 642.625 888.371 642.314 890.151 642.314ZM912.458 642.314C914.972 642.314 916.964 642.978 918.433 644.306C919.902 645.605 920.707 647.399 920.848 649.688H916.865C916.808 648.388 916.37 647.343 915.551 646.552C914.732 645.761 913.602 645.365 912.161 645.365C910.692 645.365 909.533 645.718 908.686 646.425C907.867 647.103 907.457 647.964 907.457 649.01C907.457 649.885 907.711 650.592 908.22 651.129C908.756 651.637 909.406 652.018 910.169 652.273C910.96 652.527 912.02 652.795 913.347 653.078C915.043 653.473 916.399 653.869 917.416 654.265C918.461 654.632 919.351 655.267 920.086 656.172C920.82 657.047 921.187 658.248 921.187 659.774C921.187 661.045 920.82 662.189 920.086 663.206C919.351 664.195 918.32 664.972 916.992 665.537C915.664 666.074 914.139 666.342 912.415 666.342C909.816 666.342 907.725 665.693 906.143 664.393C904.589 663.093 903.742 661.299 903.6 659.011H907.584C907.64 660.31 908.093 661.356 908.94 662.147C909.816 662.91 910.974 663.291 912.415 663.291C913.997 663.291 915.212 662.966 916.06 662.316C916.935 661.667 917.373 660.805 917.373 659.731C917.373 658.856 917.105 658.163 916.568 657.655C916.06 657.118 915.41 656.722 914.619 656.468C913.828 656.186 912.74 655.889 911.356 655.578C909.689 655.211 908.333 654.844 907.287 654.476C906.27 654.081 905.394 653.473 904.66 652.654C903.954 651.835 903.6 650.705 903.6 649.264C903.6 647.993 903.954 646.834 904.66 645.789C905.394 644.715 906.426 643.868 907.754 643.246C909.11 642.625 910.678 642.314 912.458 642.314ZM970.015 642.695L962.683 665.961H958.7L953.445 647.484L948.19 665.961H944.164L936.79 642.695H940.774L946.156 662.105L951.622 642.695H955.606L960.776 662.147L966.116 642.695H970.015ZM973.05 636.338C973.05 635.604 973.304 634.982 973.812 634.474C974.321 633.965 974.928 633.711 975.635 633.711C976.369 633.711 976.991 633.965 977.499 634.474C978.008 634.982 978.262 635.604 978.262 636.338C978.262 637.073 978.008 637.695 977.499 638.203C976.991 638.712 976.369 638.966 975.635 638.966C974.9 638.966 974.279 638.712 973.77 638.203C973.29 637.695 973.05 637.073 973.05 636.338ZM977.542 642.695V665.961H973.685V642.695H977.542ZM994.714 662.825V665.961H990.815C988.837 665.961 987.326 665.481 986.281 664.52C985.263 663.559 984.755 662.048 984.755 659.986V645.831H981.746V642.695H984.755V636.932H988.654V642.695H994.671V645.831H988.654V659.986C988.654 661.031 988.866 661.765 989.289 662.189C989.713 662.613 990.462 662.825 991.535 662.825H994.714ZM1010.41 642.314C1012.08 642.314 1013.59 642.695 1014.95 643.458C1016.33 644.193 1017.42 645.309 1018.21 646.806C1019.03 648.275 1019.44 650.069 1019.44 652.188V665.961H1015.63V652.824C1015.63 650.479 1015.06 648.699 1013.93 647.484C1012.8 646.269 1011.23 645.662 1009.23 645.662C1007.25 645.662 1005.68 646.269 1004.52 647.484C1003.39 648.699 1002.83 650.479 1002.83 652.824V665.961H998.972V634.601H1002.83V646.467C1003.59 645.111 1004.64 644.08 1005.96 643.373C1007.29 642.667 1008.78 642.314 1010.41 642.314ZM1048.5 642.314C1050.7 642.314 1052.7 642.808 1054.48 643.797C1056.26 644.786 1057.65 646.199 1058.67 648.035C1059.72 649.871 1060.24 651.976 1060.24 654.349C1060.24 656.694 1059.7 658.785 1058.63 660.621C1057.56 662.429 1056.1 663.842 1054.26 664.859C1052.43 665.848 1050.39 666.342 1048.16 666.342C1045.99 666.342 1044.02 665.848 1042.27 664.859C1040.55 663.87 1039.19 662.472 1038.2 660.664C1037.24 658.827 1036.76 656.722 1036.76 654.349C1036.76 651.948 1037.27 649.843 1038.29 648.035C1039.33 646.199 1040.75 644.786 1042.53 643.797C1044.31 642.808 1046.3 642.314 1048.5 642.314ZM1048.37 645.492C1046.96 645.492 1045.68 645.831 1044.52 646.509C1043.36 647.187 1042.43 648.19 1041.72 649.518C1041.04 650.846 1040.7 652.456 1040.7 654.349C1040.7 656.214 1041.03 657.81 1041.68 659.138C1042.36 660.466 1043.26 661.469 1044.39 662.147C1045.52 662.825 1046.78 663.164 1048.16 663.164C1049.57 663.164 1050.89 662.825 1052.1 662.147C1053.35 661.441 1054.35 660.424 1055.11 659.096C1055.87 657.768 1056.26 656.186 1056.26 654.349C1056.26 652.485 1055.89 650.888 1055.15 649.561C1054.45 648.204 1053.49 647.187 1052.27 646.509C1051.09 645.831 1049.79 645.492 1048.37 645.492ZM1085.32 642.695V665.961H1081.46V662.232C1080.7 663.588 1079.66 664.619 1078.33 665.325C1077 666.003 1075.52 666.342 1073.88 666.342C1072.21 666.342 1070.69 665.975 1069.3 665.241C1067.95 664.478 1066.86 663.362 1066.04 661.893C1065.25 660.424 1064.85 658.629 1064.85 656.511V642.695H1068.67V655.875C1068.67 658.192 1069.23 659.971 1070.36 661.215C1071.52 662.429 1073.09 663.037 1075.06 663.037C1077.04 663.037 1078.6 662.429 1079.73 661.215C1080.88 659.971 1081.46 658.192 1081.46 655.875V642.695H1085.32ZM1095.53 646.636C1096.91 643.755 1099.27 642.314 1102.61 642.314V646.34H1101.59C1099.61 646.34 1098.1 646.862 1097.06 647.908C1096.04 648.925 1095.53 650.705 1095.53 653.247V665.961H1091.67V642.695H1095.53V646.636ZM1132.44 642.314C1134.53 642.314 1136.41 642.808 1138.08 643.797C1139.77 644.786 1141.1 646.184 1142.06 647.993C1143.05 649.772 1143.54 651.835 1143.54 654.18C1143.54 656.525 1143.05 658.629 1142.06 660.494C1141.1 662.331 1139.77 663.771 1138.08 664.817C1136.41 665.834 1134.53 666.342 1132.44 666.342C1130.46 666.342 1128.73 665.876 1127.23 664.944C1125.76 663.983 1124.63 662.74 1123.84 661.215V665.961H1119.98V634.601H1123.84V647.357C1124.63 645.859 1125.76 644.645 1127.23 643.712C1128.73 642.78 1130.46 642.314 1132.44 642.314ZM1131.68 645.662C1130.29 645.662 1128.99 646.015 1127.78 646.721C1126.59 647.427 1125.63 648.445 1124.9 649.772C1124.19 651.072 1123.84 652.598 1123.84 654.349C1123.84 656.101 1124.19 657.641 1124.9 658.969C1125.63 660.268 1126.59 661.271 1127.78 661.977C1128.99 662.684 1130.29 663.037 1131.68 663.037C1133.06 663.037 1134.36 662.684 1135.58 661.977C1136.79 661.243 1137.75 660.197 1138.46 658.841C1139.19 657.485 1139.56 655.931 1139.56 654.18C1139.56 652.428 1139.19 650.917 1138.46 649.645C1137.75 648.346 1136.79 647.357 1135.58 646.679C1134.39 646.001 1133.09 645.662 1131.68 645.662ZM1169.48 653.375C1169.48 654.194 1169.42 654.957 1169.31 655.663H1150.79C1150.9 657.98 1151.62 659.816 1152.95 661.172C1154.3 662.5 1156.03 663.164 1158.12 663.164C1159.7 663.164 1161.03 662.811 1162.1 662.105C1163.2 661.398 1164.01 660.466 1164.52 659.308H1168.67C1167.94 661.342 1166.67 663.023 1164.86 664.351C1163.08 665.678 1160.83 666.342 1158.12 666.342C1155.94 666.342 1153.99 665.848 1152.27 664.859C1150.58 663.87 1149.25 662.472 1148.29 660.664C1147.33 658.827 1146.85 656.722 1146.85 654.349C1146.85 651.948 1147.33 649.843 1148.29 648.035C1149.25 646.199 1150.6 644.786 1152.36 643.797C1154.11 642.808 1156.13 642.314 1158.42 642.314C1160.59 642.314 1162.51 642.794 1164.18 643.755C1165.85 644.715 1167.15 646.029 1168.08 647.696C1169.01 649.363 1169.48 651.256 1169.48 653.375ZM1165.45 652.866C1165.45 651.369 1165.13 650.069 1164.48 648.967C1163.83 647.837 1162.94 646.975 1161.81 646.382C1160.7 645.789 1159.47 645.492 1158.12 645.492C1156.11 645.492 1154.43 646.156 1153.08 647.484C1151.72 648.784 1150.97 650.578 1150.83 652.866H1165.45ZM1182.29 642.314C1184.8 642.314 1186.79 642.978 1188.26 644.306C1189.73 645.605 1190.54 647.399 1190.68 649.688H1186.7C1186.64 648.388 1186.2 647.343 1185.38 646.552C1184.56 645.761 1183.43 645.365 1181.99 645.365C1180.52 645.365 1179.36 645.718 1178.52 646.425C1177.7 647.103 1177.29 647.964 1177.29 649.01C1177.29 649.885 1177.54 650.592 1178.05 651.129C1178.59 651.637 1179.24 652.018 1180 652.273C1180.79 652.527 1181.85 652.795 1183.18 653.078C1184.87 653.473 1186.23 653.869 1187.25 654.265C1188.29 654.632 1189.18 655.267 1189.92 656.172C1190.65 657.047 1191.02 658.248 1191.02 659.774C1191.02 661.045 1190.65 662.189 1189.92 663.206C1189.18 664.195 1188.15 664.972 1186.82 665.537C1185.49 666.074 1183.97 666.342 1182.25 666.342C1179.65 666.342 1177.56 665.693 1175.97 664.393C1174.42 663.093 1173.57 661.299 1173.43 659.011H1177.41C1177.47 660.31 1177.92 661.356 1178.77 662.147C1179.65 662.91 1180.81 663.291 1182.25 663.291C1183.83 663.291 1185.04 662.966 1185.89 662.316C1186.77 661.667 1187.2 660.805 1187.2 659.731C1187.2 658.856 1186.94 658.163 1186.4 657.655C1185.89 657.118 1185.24 656.722 1184.45 656.468C1183.66 656.186 1182.57 655.889 1181.19 655.578C1179.52 655.211 1178.16 654.844 1177.12 654.476C1176.1 654.081 1175.23 653.473 1174.49 652.654C1173.78 651.835 1173.43 650.705 1173.43 649.264C1173.43 647.993 1173.78 646.834 1174.49 645.789C1175.23 644.715 1176.26 643.868 1177.58 643.246C1178.94 642.625 1180.51 642.314 1182.29 642.314ZM1207.39 662.825V665.961H1203.49C1201.52 665.961 1200 665.481 1198.96 664.52C1197.94 663.559 1197.43 662.048 1197.43 659.986V645.831H1194.42V642.695H1197.43V636.932H1201.33V642.695H1207.35V645.831H1201.33V659.986C1201.33 661.031 1201.54 661.765 1201.97 662.189C1202.39 662.613 1203.14 662.825 1204.21 662.825H1207.39ZM1252.32 642.314C1254.02 642.314 1255.56 642.695 1256.94 643.458C1258.33 644.193 1259.42 645.309 1260.21 646.806C1261.03 648.275 1261.44 650.069 1261.44 652.188V665.961H1257.62V652.824C1257.62 650.479 1257.04 648.699 1255.88 647.484C1254.75 646.269 1253.2 645.662 1251.22 645.662C1249.24 645.662 1247.68 646.269 1246.52 647.484C1245.39 648.699 1244.82 650.479 1244.82 652.824V665.961H1241.01V652.824C1241.01 650.479 1240.44 648.699 1239.31 647.484C1238.18 646.269 1236.62 645.662 1234.61 645.662C1232.63 645.662 1231.06 646.269 1229.91 647.484C1228.78 648.699 1228.21 650.479 1228.21 652.824V665.961H1224.35V642.695H1228.21V646.467C1228.97 645.111 1230.02 644.08 1231.35 643.373C1232.67 642.667 1234.16 642.314 1235.8 642.314C1237.58 642.314 1239.19 642.752 1240.63 643.628C1242.07 644.475 1243.16 645.718 1243.89 647.357C1244.74 645.775 1245.88 644.546 1247.32 643.67C1248.79 642.766 1250.46 642.314 1252.32 642.314ZM1277.14 642.314C1279.12 642.314 1280.84 642.78 1282.31 643.712C1283.81 644.645 1284.94 645.859 1285.7 647.357V642.695H1289.6V665.961H1285.7V661.215C1284.94 662.74 1283.81 663.983 1282.31 664.944C1280.84 665.876 1279.12 666.342 1277.14 666.342C1275.05 666.342 1273.15 665.834 1271.46 664.817C1269.79 663.771 1268.46 662.331 1267.48 660.494C1266.52 658.629 1266.04 656.525 1266.04 654.18C1266.04 651.835 1266.52 649.772 1267.48 647.993C1268.46 646.184 1269.79 644.786 1271.46 643.797C1273.15 642.808 1275.05 642.314 1277.14 642.314ZM1277.82 645.662C1276.43 645.662 1275.13 646.001 1273.92 646.679C1272.73 647.357 1271.77 648.346 1271.04 649.645C1270.33 650.917 1269.98 652.428 1269.98 654.18C1269.98 655.931 1270.33 657.485 1271.04 658.841C1271.77 660.169 1272.73 661.2 1273.92 661.935C1275.13 662.67 1276.43 663.037 1277.82 663.037C1279.23 663.037 1280.53 662.684 1281.72 661.977C1282.93 661.271 1283.89 660.268 1284.6 658.969C1285.33 657.641 1285.7 656.101 1285.7 654.349C1285.7 652.598 1285.33 651.072 1284.6 649.772C1283.89 648.445 1282.93 647.427 1281.72 646.721C1280.53 646.015 1279.23 645.662 1277.82 645.662ZM1299.81 646.636C1301.19 643.755 1303.55 642.314 1306.88 642.314V646.34H1305.87C1303.89 646.34 1302.38 646.862 1301.33 647.908C1300.32 648.925 1299.81 650.705 1299.81 653.247V665.961H1295.95V642.695H1299.81V646.636ZM1318.76 654.265L1329.73 665.961H1324.52L1315.41 655.748V665.961H1311.55V634.601H1315.41V652.993L1324.31 642.695H1329.73L1318.76 654.265ZM1354.38 653.375C1354.38 654.194 1354.33 654.957 1354.22 655.663H1335.7C1335.81 657.98 1336.53 659.816 1337.86 661.172C1339.21 662.5 1340.94 663.164 1343.03 663.164C1344.61 663.164 1345.94 662.811 1347.01 662.105C1348.11 661.398 1348.92 660.466 1349.43 659.308H1353.58C1352.84 661.342 1351.57 663.023 1349.77 664.351C1347.99 665.678 1345.74 666.342 1343.03 666.342C1340.85 666.342 1338.9 665.848 1337.18 664.859C1335.48 663.87 1334.16 662.472 1333.2 660.664C1332.23 658.827 1331.75 656.722 1331.75 654.349C1331.75 651.948 1332.23 649.843 1333.2 648.035C1334.16 646.199 1335.51 644.786 1337.26 643.797C1339.02 642.808 1341.04 642.314 1343.32 642.314C1345.5 642.314 1347.42 642.794 1349.09 643.755C1350.75 644.715 1352.05 646.029 1352.99 647.696C1353.92 649.363 1354.38 651.256 1354.38 653.375ZM1350.36 652.866C1350.36 651.369 1350.03 650.069 1349.38 648.967C1348.73 647.837 1347.84 646.975 1346.71 646.382C1345.61 645.789 1344.38 645.492 1343.03 645.492C1341.02 645.492 1339.34 646.156 1337.98 647.484C1336.63 648.784 1335.88 650.578 1335.74 652.866H1350.36ZM1369.99 662.825V665.961H1366.1C1364.12 665.961 1362.61 665.481 1361.56 664.52C1360.54 663.559 1360.03 662.048 1360.03 659.986V645.831H1357.03V642.695H1360.03V636.932H1363.93V642.695H1369.95V645.831H1363.93V659.986C1363.93 661.031 1364.15 661.765 1364.57 662.189C1364.99 662.613 1365.74 662.825 1366.82 662.825H1369.99ZM1373.62 636.338C1373.62 635.604 1373.87 634.982 1374.38 634.474C1374.89 633.965 1375.49 633.711 1376.2 633.711C1376.94 633.711 1377.56 633.965 1378.07 634.474C1378.57 634.982 1378.83 635.604 1378.83 636.338C1378.83 637.073 1378.57 637.695 1378.07 638.203C1377.56 638.712 1376.94 638.966 1376.2 638.966C1375.47 638.966 1374.84 638.712 1374.34 638.203C1373.86 637.695 1373.62 637.073 1373.62 636.338ZM1378.11 642.695V665.961H1374.25V642.695H1378.11ZM1395.92 642.314C1397.58 642.314 1399.09 642.695 1400.45 643.458C1401.83 644.193 1402.92 645.309 1403.71 646.806C1404.53 648.275 1404.94 650.069 1404.94 652.188V665.961H1401.13V652.824C1401.13 650.479 1400.56 648.699 1399.43 647.484C1398.3 646.269 1396.74 645.662 1394.73 645.662C1392.75 645.662 1391.18 646.269 1390.03 647.484C1388.9 648.699 1388.33 650.479 1388.33 652.824V665.961H1384.47V642.695H1388.33V646.467C1389.09 645.111 1390.14 644.08 1391.47 643.373C1392.79 642.667 1394.28 642.314 1395.92 642.314ZM1420.66 642.314C1422.64 642.314 1424.36 642.78 1425.83 643.712C1427.33 644.645 1428.46 645.859 1429.22 647.357V642.695H1433.12V666.554C1433.12 668.673 1432.65 670.552 1431.72 672.191C1430.79 673.829 1429.48 675.101 1427.78 676.005C1426.09 676.937 1424.12 677.403 1421.89 677.403C1419.94 677.403 1418.16 677.064 1416.55 676.386C1414.94 675.736 1413.63 674.804 1412.61 673.589C1411.59 672.374 1410.99 670.99 1410.79 669.436H1414.56C1414.93 670.764 1415.79 671.866 1417.14 672.741C1418.5 673.617 1420.08 674.055 1421.89 674.055C1424.09 674.055 1425.86 673.391 1427.19 672.063C1428.54 670.764 1429.22 668.927 1429.22 666.554V661.215C1428.46 662.74 1427.33 663.983 1425.83 664.944C1424.36 665.876 1422.64 666.342 1420.66 666.342C1418.57 666.342 1416.68 665.834 1414.98 664.817C1413.32 663.771 1411.99 662.331 1411 660.494C1410.04 658.629 1409.56 656.525 1409.56 654.18C1409.56 651.835 1410.04 649.772 1411 647.993C1411.99 646.184 1413.32 644.786 1414.98 643.797C1416.68 642.808 1418.57 642.314 1420.66 642.314ZM1421.34 645.662C1419.96 645.662 1418.66 646.001 1417.44 646.679C1416.25 647.357 1415.29 648.346 1414.56 649.645C1413.85 650.917 1413.5 652.428 1413.5 654.18C1413.5 655.931 1413.85 657.485 1414.56 658.841C1415.29 660.169 1416.25 661.2 1417.44 661.935C1418.66 662.67 1419.96 663.037 1421.34 663.037C1422.75 663.037 1424.05 662.684 1425.24 661.977C1426.45 661.271 1427.41 660.268 1428.12 658.969C1428.85 657.641 1429.22 656.101 1429.22 654.349C1429.22 652.598 1428.85 651.072 1428.12 649.772C1427.41 648.445 1426.45 647.427 1425.24 646.721C1424.05 646.015 1422.75 645.662 1421.34 645.662ZM1460.19 642.314C1462.7 642.314 1464.7 642.978 1466.16 644.306C1467.63 645.605 1468.44 647.399 1468.58 649.688H1464.6C1464.54 648.388 1464.1 647.343 1463.28 646.552C1462.46 645.761 1461.33 645.365 1459.89 645.365C1458.42 645.365 1457.27 645.718 1456.42 646.425C1455.6 647.103 1455.19 647.964 1455.19 649.01C1455.19 649.885 1455.44 650.592 1455.95 651.129C1456.49 651.637 1457.14 652.018 1457.9 652.273C1458.69 652.527 1459.75 652.795 1461.08 653.078C1462.77 653.473 1464.13 653.869 1465.15 654.265C1466.19 654.632 1467.08 655.267 1467.82 656.172C1468.55 657.047 1468.92 658.248 1468.92 659.774C1468.92 661.045 1468.55 662.189 1467.82 663.206C1467.08 664.195 1466.05 664.972 1464.72 665.537C1463.4 666.074 1461.87 666.342 1460.15 666.342C1457.55 666.342 1455.46 665.693 1453.87 664.393C1452.32 663.093 1451.47 661.299 1451.33 659.011H1455.32C1455.37 660.31 1455.82 661.356 1456.67 662.147C1457.55 662.91 1458.71 663.291 1460.15 663.291C1461.73 663.291 1462.94 662.966 1463.79 662.316C1464.67 661.667 1465.11 660.805 1465.11 659.731C1465.11 658.856 1464.84 658.163 1464.3 657.655C1463.79 657.118 1463.14 656.722 1462.35 656.468C1461.56 656.186 1460.47 655.889 1459.09 655.578C1457.42 655.211 1456.06 654.844 1455.02 654.476C1454 654.081 1453.13 653.473 1452.39 652.654C1451.69 651.835 1451.33 650.705 1451.33 649.264C1451.33 647.993 1451.69 646.834 1452.39 645.789C1453.13 644.715 1454.16 643.868 1455.49 643.246C1456.84 642.625 1458.41 642.314 1460.19 642.314ZM1495.59 653.375C1495.59 654.194 1495.53 654.957 1495.42 655.663H1476.9C1477.01 657.98 1477.74 659.816 1479.06 661.172C1480.42 662.5 1482.14 663.164 1484.23 663.164C1485.82 663.164 1487.14 662.811 1488.22 662.105C1489.32 661.398 1490.12 660.466 1490.63 659.308H1494.79C1494.05 661.342 1492.78 663.023 1490.97 664.351C1489.19 665.678 1486.95 666.342 1484.23 666.342C1482.06 666.342 1480.11 665.848 1478.39 664.859C1476.69 663.87 1475.36 662.472 1474.4 660.664C1473.44 658.827 1472.96 656.722 1472.96 654.349C1472.96 651.948 1473.44 649.843 1474.4 648.035C1475.36 646.199 1476.72 644.786 1478.47 643.797C1480.22 642.808 1482.24 642.314 1484.53 642.314C1486.71 642.314 1488.63 642.794 1490.29 643.755C1491.96 644.715 1493.26 646.029 1494.19 647.696C1495.12 649.363 1495.59 651.256 1495.59 653.375ZM1491.56 652.866C1491.56 651.369 1491.24 650.069 1490.59 648.967C1489.94 647.837 1489.05 646.975 1487.92 646.382C1486.82 645.789 1485.59 645.492 1484.23 645.492C1482.23 645.492 1480.55 646.156 1479.19 647.484C1477.83 648.784 1477.09 650.578 1476.94 652.866H1491.56ZM1504.25 646.636C1505.63 643.755 1507.99 642.314 1511.33 642.314V646.34H1510.31C1508.33 646.34 1506.82 646.862 1505.78 647.908C1504.76 648.925 1504.25 650.705 1504.25 653.247V665.961H1500.39V642.695H1504.25V646.636ZM1524.56 662.359L1531.72 642.695H1535.87L1526.76 665.961H1522.39L1513.33 642.695H1517.44L1524.56 662.359ZM1538.91 636.338C1538.91 635.604 1539.16 634.982 1539.67 634.474C1540.18 633.965 1540.79 633.711 1541.49 633.711C1542.23 633.711 1542.85 633.965 1543.36 634.474C1543.87 634.982 1544.12 635.604 1544.12 636.338C1544.12 637.073 1543.87 637.695 1543.36 638.203C1542.85 638.712 1542.23 638.966 1541.49 638.966C1540.76 638.966 1540.14 638.712 1539.63 638.203C1539.15 637.695 1538.91 637.073 1538.91 636.338ZM1543.4 642.695V665.961H1539.54V642.695H1543.4ZM1559.51 642.314C1562.31 642.314 1564.58 642.964 1566.34 644.263C1568.12 645.563 1569.36 647.413 1570.06 649.815H1565.91C1565.46 648.459 1564.68 647.399 1563.58 646.636C1562.48 645.874 1561.12 645.492 1559.51 645.492C1557.31 645.492 1555.53 646.269 1554.17 647.823C1552.85 649.349 1552.18 651.524 1552.18 654.349C1552.18 657.146 1552.85 659.322 1554.17 660.876C1555.53 662.401 1557.31 663.164 1559.51 663.164C1561.15 663.164 1562.51 662.797 1563.58 662.062C1564.65 661.328 1565.43 660.254 1565.91 658.841H1570.06C1569.36 661.13 1568.1 662.952 1566.29 664.308C1564.51 665.664 1562.25 666.342 1559.51 666.342C1557.34 666.342 1555.39 665.848 1553.66 664.859C1551.97 663.87 1550.64 662.472 1549.68 660.664C1548.72 658.827 1548.24 656.722 1548.24 654.349C1548.24 651.948 1548.72 649.843 1549.68 648.035C1550.64 646.199 1551.97 644.786 1553.66 643.797C1555.36 642.808 1557.31 642.314 1559.51 642.314ZM1596.28 653.375C1596.28 654.194 1596.22 654.957 1596.11 655.663H1577.59C1577.7 657.98 1578.43 659.816 1579.75 661.172C1581.11 662.5 1582.83 663.164 1584.92 663.164C1586.51 663.164 1587.83 662.811 1588.91 662.105C1590.01 661.398 1590.81 660.466 1591.32 659.308H1595.48C1594.74 661.342 1593.47 663.023 1591.66 664.351C1589.88 665.678 1587.64 666.342 1584.92 666.342C1582.75 666.342 1580.8 665.848 1579.07 664.859C1577.38 663.87 1576.05 662.472 1575.09 660.664C1574.13 658.827 1573.65 656.722 1573.65 654.349C1573.65 651.948 1574.13 649.843 1575.09 648.035C1576.05 646.199 1577.41 644.786 1579.16 643.797C1580.91 642.808 1582.93 642.314 1585.22 642.314C1587.4 642.314 1589.32 642.794 1590.98 643.755C1592.65 644.715 1593.95 646.029 1594.88 647.696C1595.81 649.363 1596.28 651.256 1596.28 653.375ZM1592.25 652.866C1592.25 651.369 1591.93 650.069 1591.28 648.967C1590.63 647.837 1589.74 646.975 1588.61 646.382C1587.51 645.789 1586.28 645.492 1584.92 645.492C1582.92 645.492 1581.24 646.156 1579.88 647.484C1578.52 648.784 1577.78 650.578 1577.63 652.866H1592.25ZM1609.09 642.314C1611.61 642.314 1613.6 642.978 1615.07 644.306C1616.54 645.605 1617.34 647.399 1617.48 649.688H1613.5C1613.44 648.388 1613.01 647.343 1612.19 646.552C1611.37 645.761 1610.24 645.365 1608.8 645.365C1607.33 645.365 1606.17 645.718 1605.32 646.425C1604.5 647.103 1604.09 647.964 1604.09 649.01C1604.09 649.885 1604.35 650.592 1604.85 651.129C1605.39 651.637 1606.04 652.018 1606.8 652.273C1607.6 652.527 1608.65 652.795 1609.98 653.078C1611.68 653.473 1613.03 653.869 1614.05 654.265C1615.1 654.632 1615.99 655.267 1616.72 656.172C1617.46 657.047 1617.82 658.248 1617.82 659.774C1617.82 661.045 1617.46 662.189 1616.72 663.206C1615.99 664.195 1614.96 664.972 1613.63 665.537C1612.3 666.074 1610.77 666.342 1609.05 666.342C1606.45 666.342 1604.36 665.693 1602.78 664.393C1601.22 663.093 1600.38 661.299 1600.24 659.011H1604.22C1604.28 660.31 1604.73 661.356 1605.58 662.147C1606.45 662.91 1607.61 663.291 1609.05 663.291C1610.63 663.291 1611.85 662.966 1612.69 662.316C1613.57 661.667 1614.01 660.805 1614.01 659.731C1614.01 658.856 1613.74 658.163 1613.2 657.655C1612.69 657.118 1612.05 656.722 1611.25 656.468C1610.46 656.186 1609.38 655.889 1607.99 655.578C1606.32 655.211 1604.97 654.844 1603.92 654.476C1602.91 654.081 1602.03 653.473 1601.3 652.654C1600.59 651.835 1600.24 650.705 1600.24 649.264C1600.24 647.993 1600.59 646.834 1601.3 645.789C1602.03 644.715 1603.06 643.868 1604.39 643.246C1605.74 642.625 1607.31 642.314 1609.09 642.314ZM1622.54 663.503C1622.54 662.797 1622.78 662.203 1623.26 661.723C1623.74 661.243 1624.32 661.003 1625 661.003C1625.68 661.003 1626.26 661.243 1626.74 661.723C1627.22 662.203 1627.46 662.797 1627.46 663.503C1627.46 664.181 1627.22 664.76 1626.74 665.241C1626.26 665.721 1625.68 665.961 1625 665.961C1624.32 665.961 1623.74 665.721 1623.26 665.241C1622.78 664.76 1622.54 664.181 1622.54 663.503Z" fill="black" fill-opacity="0.5"/>
</svg>
