<svg width="30" height="28" viewBox="0 0 30 28" fill="none" xmlns="http://www.w3.org/2000/svg">
<path d="M8.49999 7.36683L8.49999 6.11728M2 21.7367L2 6.74206C2 3.98163 4.32812 1.74385 7.19999 1.74385L22.8 1.74385C25.6719 1.74385 28 3.98162 28 6.74205L28 21.7367C28 24.4971 25.6719 26.7349 22.8 26.7349L7.2 26.7349C4.32812 26.7349 2 24.4971 2 21.7367ZM20.2 14.2394C20.2 16.9998 17.8719 19.2376 15 19.2376C12.1281 19.2376 9.79999 16.9998 9.79999 14.2394C9.79999 11.4789 12.1281 9.24116 15 9.24116C17.8719 9.24116 20.2 11.4789 20.2 14.2394Z" stroke="#102E4A" stroke-width="2.21006"/>
</svg>
