<svg width="620" height="287" viewBox="0 0 620 287" fill="none" xmlns="http://www.w3.org/2000/svg">
<path d="M10.4609 14.7812V29H7.78516V14.7812H10.4609ZM14.875 14.7812V16.9004H3.41992V14.7812H14.875ZM35.4957 20.6504V22.7598H28.0152V20.6504H35.4957ZM28.7477 14.7812V29H26.0621V14.7812H28.7477ZM37.4879 14.7812V29H34.8023V14.7812H37.4879ZM59.0461 26.8906V29H51.4875V26.8906H59.0461ZM52.3078 14.7812V29H49.6223V14.7812H52.3078ZM58.0598 20.6504V22.7109H51.4875V20.6504H58.0598ZM59.0168 14.7812V16.9004H51.4875V14.7812H59.0168ZM93.0121 24.3223H95.6977C95.626 25.2728 95.3624 26.1159 94.9066 26.8516C94.4509 27.5807 93.8161 28.1536 93.0023 28.5703C92.1885 28.987 91.2022 29.1953 90.0434 29.1953C89.1514 29.1953 88.3474 29.0391 87.6312 28.7266C86.9216 28.4076 86.3129 27.9551 85.8051 27.3691C85.3038 26.7767 84.9197 26.0671 84.6527 25.2402C84.3858 24.4069 84.2523 23.4727 84.2523 22.4375V21.3535C84.2523 20.3184 84.3891 19.3841 84.6625 18.5508C84.9359 17.7174 85.3266 17.0078 85.8344 16.4219C86.3487 15.8294 86.9639 15.3737 87.6801 15.0547C88.4027 14.7357 89.21 14.5762 90.102 14.5762C91.2608 14.5762 92.2406 14.791 93.0414 15.2207C93.8422 15.6439 94.4639 16.2266 94.9066 16.9688C95.3493 17.7109 95.6163 18.5638 95.7074 19.5273H93.0219C92.9698 18.9284 92.8396 18.4206 92.6312 18.0039C92.4294 17.5872 92.1234 17.2715 91.7133 17.0566C91.3096 16.8353 90.7725 16.7246 90.102 16.7246C89.5811 16.7246 89.1221 16.8223 88.725 17.0176C88.3344 17.2129 88.0089 17.5059 87.7484 17.8965C87.488 18.2806 87.2927 18.7624 87.1625 19.3418C87.0323 19.9147 86.9672 20.5788 86.9672 21.334V22.4375C86.9672 23.1602 87.0258 23.8079 87.143 24.3809C87.2602 24.9538 87.4424 25.4388 87.6898 25.8359C87.9372 26.2331 88.2562 26.5358 88.6469 26.7441C89.0375 26.9525 89.503 27.0566 90.0434 27.0566C90.7009 27.0566 91.2348 26.9525 91.6449 26.7441C92.0616 26.5358 92.3773 26.2298 92.5922 25.8262C92.8135 25.4225 92.9535 24.9212 93.0121 24.3223ZM107.178 14.7812H112.344C113.424 14.7812 114.352 14.944 115.127 15.2695C115.902 15.5951 116.497 16.0768 116.914 16.7148C117.331 17.3529 117.539 18.1374 117.539 19.0684C117.539 19.804 117.409 20.4421 117.148 20.9824C116.888 21.5228 116.52 21.9753 116.045 22.3398C115.576 22.7044 115.023 22.9909 114.385 23.1992L113.545 23.6289H108.984L108.965 21.5098H112.373C112.926 21.5098 113.385 21.4121 113.75 21.2168C114.115 21.0215 114.388 20.7513 114.57 20.4062C114.759 20.0612 114.854 19.6673 114.854 19.2246C114.854 18.7493 114.762 18.3392 114.58 17.9941C114.398 17.6426 114.121 17.3724 113.75 17.1836C113.379 16.9948 112.91 16.9004 112.344 16.9004H109.863V29H107.178V14.7812ZM115.205 29L111.914 22.6328L114.756 22.623L118.086 28.8633V29H115.205ZM138.716 26.8906V29H131.158V26.8906H138.716ZM131.978 14.7812V29H129.293V14.7812H131.978ZM137.73 20.6504V22.7109H131.158V20.6504H137.73ZM138.687 14.7812V16.9004H131.158V14.7812H138.687ZM155.636 16.9395L151.583 29H148.741L154.054 14.7812H155.87L155.636 16.9395ZM159.025 29L154.952 16.9395L154.708 14.7812H156.534L161.876 29H159.025ZM158.839 23.7168V25.8359H151.212V23.7168H158.839ZM177.614 14.7812V29H174.938V14.7812H177.614ZM182.028 14.7812V16.9004H170.573V14.7812H182.028ZM196.077 14.7812V29H193.391V14.7812H196.077ZM213.377 26.2168L216.922 14.7812H219.9L214.881 29H212.898L213.377 26.2168ZM210.105 14.7812L213.631 26.2168L214.139 29H212.137L207.137 14.7812H210.105ZM240.189 26.8906V29H232.63V26.8906H240.189ZM233.451 14.7812V29H230.765V14.7812H233.451ZM239.203 20.6504V22.7109H232.63V20.6504H239.203ZM240.16 14.7812V16.9004H232.63V14.7812H240.16ZM276.928 21.6465V27.1836C276.72 27.4505 276.391 27.7402 275.942 28.0527C275.499 28.3652 274.92 28.6354 274.204 28.8633C273.488 29.0846 272.609 29.1953 271.567 29.1953C270.662 29.1953 269.835 29.0456 269.087 28.7461C268.338 28.4401 267.693 27.9941 267.153 27.4082C266.613 26.8223 266.196 26.1061 265.903 25.2598C265.61 24.4134 265.464 23.4466 265.464 22.3594V21.4219C265.464 20.3346 265.6 19.3678 265.874 18.5215C266.154 17.6751 266.551 16.959 267.065 16.373C267.586 15.7871 268.208 15.3411 268.93 15.0352C269.66 14.7292 270.473 14.5762 271.372 14.5762C272.576 14.5762 273.566 14.7747 274.341 15.1719C275.122 15.569 275.721 16.1159 276.137 16.8125C276.554 17.5026 276.815 18.2969 276.919 19.1953H274.302C274.23 18.7005 274.087 18.2676 273.872 17.8965C273.657 17.5189 273.351 17.2259 272.954 17.0176C272.563 16.8027 272.055 16.6953 271.43 16.6953C270.903 16.6953 270.438 16.7995 270.034 17.0078C269.63 17.2161 269.292 17.5189 269.018 17.916C268.745 18.3132 268.537 18.8047 268.393 19.3906C268.257 19.9766 268.188 20.6471 268.188 21.4023V22.3594C268.188 23.1211 268.266 23.7982 268.423 24.3906C268.579 24.9766 268.803 25.4714 269.096 25.875C269.396 26.2721 269.764 26.5749 270.2 26.7832C270.643 26.985 271.144 27.0859 271.704 27.0859C272.212 27.0859 272.632 27.0436 272.964 26.959C273.302 26.8678 273.572 26.7604 273.774 26.6367C273.976 26.513 274.132 26.3926 274.243 26.2754V23.6094H271.421V21.6465H276.928ZM294.522 16.9395L290.469 29H287.627L292.94 14.7812H294.756L294.522 16.9395ZM297.911 29L293.838 16.9395L293.594 14.7812H295.42L300.762 29H297.911ZM297.725 23.7168V25.8359H290.098V23.7168H297.725ZM320.65 26.8906V29H313.502V26.8906H320.65ZM314.312 14.7812V29H311.627V14.7812H314.312ZM340.871 26.8906V29H333.722V26.8906H340.871ZM334.533 14.7812V29H331.847V14.7812H334.533ZM361.491 26.8906V29H353.933V26.8906H361.491ZM354.753 14.7812V29H352.068V14.7812H354.753ZM360.505 20.6504V22.7109H353.933V20.6504H360.505ZM361.462 14.7812V16.9004H353.933V14.7812H361.462ZM372.757 14.7812H377.923C379.003 14.7812 379.931 14.944 380.706 15.2695C381.481 15.5951 382.076 16.0768 382.493 16.7148C382.91 17.3529 383.118 18.1374 383.118 19.0684C383.118 19.804 382.988 20.4421 382.727 20.9824C382.467 21.5228 382.099 21.9753 381.624 22.3398C381.155 22.7044 380.602 22.9909 379.964 23.1992L379.124 23.6289H374.563L374.544 21.5098H377.952C378.505 21.5098 378.964 21.4121 379.329 21.2168C379.693 21.0215 379.967 20.7513 380.149 20.4062C380.338 20.0612 380.432 19.6673 380.432 19.2246C380.432 18.7493 380.341 18.3392 380.159 17.9941C379.977 17.6426 379.7 17.3724 379.329 17.1836C378.958 16.9948 378.489 16.9004 377.923 16.9004H375.442V29H372.757V14.7812ZM380.784 29L377.493 22.6328L380.335 22.623L383.665 28.8633V29H380.784ZM396.063 14.7812L399.188 21.4121L402.332 14.7812H405.282L400.555 23.7949V29H397.83V23.7949L393.094 14.7812H396.063Z" fill="#102E4A"/>
<path d="M25.152 102.688C29.376 102.688 33.216 103.669 36.672 105.632C40.1707 107.595 42.9227 110.325 44.928 113.824C46.976 117.28 48 121.184 48 125.536C48 129.931 46.976 133.877 44.928 137.376C42.9227 140.832 40.1707 143.541 36.672 145.504C33.1733 147.467 29.3333 148.448 25.152 148.448C20.9707 148.448 17.1307 147.467 13.632 145.504C10.1333 143.541 7.36 140.832 5.312 137.376C3.30667 133.877 2.304 129.931 2.304 125.536C2.304 121.184 3.30667 117.28 5.312 113.824C7.36 110.325 10.1333 107.595 13.632 105.632C17.1307 103.669 20.9707 102.688 25.152 102.688ZM25.152 110.944C22.464 110.944 20.0747 111.541 17.984 112.736C15.936 113.931 14.336 115.637 13.184 117.856C12.032 120.075 11.456 122.635 11.456 125.536C11.456 128.437 12.032 130.997 13.184 133.216C14.336 135.435 15.936 137.163 17.984 138.4C20.0747 139.595 22.464 140.192 25.152 140.192C27.84 140.192 30.208 139.595 32.256 138.4C34.304 137.163 35.904 135.456 37.056 133.28C38.208 131.061 38.784 128.48 38.784 125.536C38.784 122.592 38.208 120.032 37.056 117.856C35.904 115.637 34.304 113.931 32.256 112.736C30.208 111.541 27.84 110.944 25.152 110.944ZM88.5845 112.544V148H79.5605V142.624C78.4512 144.501 76.9365 145.952 75.0165 146.976C73.1392 147.957 70.9632 148.448 68.4885 148.448C65.8858 148.448 63.5392 147.872 61.4485 146.72C59.4005 145.525 57.7792 143.797 56.5845 141.536C55.3898 139.232 54.7925 136.501 54.7925 133.344V112.544H63.7525V132.064C63.7525 134.837 64.4565 136.971 65.8645 138.464C67.2725 139.957 69.1925 140.704 71.6245 140.704C74.0565 140.704 75.9765 139.957 77.3845 138.464C78.8352 136.971 79.5605 134.837 79.5605 132.064V112.544H88.5845ZM107.199 118.816C108.308 116.683 109.738 115.019 111.487 113.824C113.279 112.629 115.306 112.032 117.567 112.032V121.248H115.327C112.639 121.248 110.612 121.931 109.247 123.296C107.882 124.619 107.199 126.923 107.199 130.208V148H98.175V112.544H107.199V118.816ZM192.007 112.544L181.127 148H171.527L165.447 124.192L159.303 148H149.703L138.823 112.544H147.911L154.439 139.488L160.967 112.544H170.439L176.839 139.424L183.367 112.544H192.007ZM213.047 112.032C216.418 112.032 219.49 112.779 222.263 114.272C225.036 115.765 227.234 117.899 228.855 120.672C230.476 123.403 231.287 126.581 231.287 130.208C231.287 133.835 230.476 137.035 228.855 139.808C227.234 142.581 225.015 144.736 222.199 146.272C219.426 147.765 216.332 148.512 212.919 148.512C209.548 148.512 206.476 147.765 203.703 146.272C200.93 144.736 198.732 142.581 197.111 139.808C195.532 137.035 194.743 133.835 194.743 130.208C194.743 126.581 195.554 123.403 197.175 120.672C198.796 117.899 200.994 115.765 203.767 114.272C206.54 112.779 209.634 112.032 213.047 112.032ZM212.983 119.648C210.423 119.648 208.268 120.565 206.519 122.4C204.77 124.235 203.895 126.859 203.895 130.272C203.895 132.576 204.3 134.539 205.111 136.16C205.964 137.739 207.074 138.933 208.439 139.744C209.804 140.512 211.298 140.896 212.919 140.896C214.498 140.896 215.991 140.491 217.399 139.68C218.807 138.869 219.938 137.675 220.791 136.096C221.687 134.475 222.135 132.533 222.135 130.272C222.135 127.968 221.708 126.027 220.855 124.448C220.002 122.827 218.871 121.632 217.463 120.864C216.098 120.053 214.604 119.648 212.983 119.648ZM247.449 118.816C248.558 116.683 249.988 115.019 251.737 113.824C253.529 112.629 255.556 112.032 257.817 112.032V121.248H255.577C252.889 121.248 250.862 121.931 249.497 123.296C248.132 124.619 247.449 126.923 247.449 130.208V148H238.425V112.544H247.449V118.816ZM281.71 130.464L297.454 148H285.422L273.262 133.216V148H264.238V100.64H273.262V127.712L285.23 112.544H297.454L281.71 130.464Z" fill="black"/>
<path d="M6.969 235.173H11.904V237H4.575V222.405H6.969V235.173ZM19.0301 225.24C20.1361 225.24 21.1371 225.485 22.0331 225.975C22.9291 226.465 23.6361 227.165 24.1541 228.075C24.6721 228.985 24.9311 230.028 24.9311 231.204C24.9311 232.38 24.6651 233.423 24.1331 234.333C23.6011 235.243 22.8731 235.95 21.9491 236.454C21.0391 236.944 20.0311 237.189 18.9251 237.189C17.8331 237.189 16.8461 236.944 15.9641 236.454C15.0821 235.95 14.3891 235.25 13.8851 234.354C13.3811 233.444 13.1291 232.394 13.1291 231.204C13.1291 230.028 13.3881 228.985 13.9061 228.075C14.4241 227.165 15.1311 226.465 16.0271 225.975C16.9231 225.485 17.9241 225.24 19.0301 225.24ZM18.9881 227.256C18.3721 227.256 17.8051 227.41 17.2871 227.718C16.7691 228.012 16.3491 228.46 16.0271 229.062C15.7191 229.65 15.5651 230.364 15.5651 231.204C15.5651 232.044 15.7121 232.765 16.0061 233.367C16.3141 233.969 16.7201 234.424 17.2241 234.732C17.7421 235.026 18.3091 235.173 18.9251 235.173C19.5411 235.173 20.1151 235.019 20.6471 234.711C21.1931 234.403 21.6341 233.955 21.9701 233.367C22.3061 232.765 22.4741 232.044 22.4741 231.204C22.4741 230.364 22.3131 229.65 21.9911 229.062C21.6691 228.46 21.2421 228.012 20.7101 227.718C20.1781 227.41 19.6041 227.256 18.9881 227.256ZM29.6917 227.445C30.0417 226.745 30.5037 226.206 31.0777 225.828C31.6657 225.436 32.3587 225.24 33.1567 225.24V227.718H32.5477C31.6097 227.718 30.8957 227.956 30.4057 228.432C29.9297 228.908 29.6917 229.734 29.6917 230.91V237H27.2977V225.429H29.6917V227.445ZM45.9622 230.889C45.9622 231.295 45.9342 231.673 45.8782 232.023H37.0162C37.0722 232.989 37.3942 233.759 37.9822 234.333C38.5842 234.893 39.3332 235.173 40.2292 235.173C41.5312 235.173 42.4482 234.634 42.9802 233.556H45.5632C45.2132 234.62 44.5762 235.495 43.6522 236.181C42.7282 236.853 41.5872 237.189 40.2292 237.189C39.1232 237.189 38.1432 236.944 37.2892 236.454C36.4352 235.95 35.7632 235.25 35.2732 234.354C34.7972 233.444 34.5592 232.394 34.5592 231.204C34.5592 230.014 34.7972 228.971 35.2732 228.075C35.7632 227.165 36.4422 226.465 37.3102 225.975C38.1922 225.485 39.2002 225.24 40.3342 225.24C41.4262 225.24 42.3992 225.478 43.2532 225.954C44.1072 226.43 44.7722 227.095 45.2482 227.949C45.7242 228.803 45.9622 229.783 45.9622 230.889ZM43.4632 230.385C43.4492 229.433 43.1342 228.677 42.5182 228.117C41.9022 227.543 41.1392 227.256 40.2292 227.256C39.3752 227.256 38.6472 227.543 38.0452 228.117C37.4572 228.677 37.1212 229.433 37.0372 230.385H43.4632ZM62.5352 225.24C63.4032 225.24 64.1802 225.429 64.8662 225.807C65.5522 226.185 66.0912 226.745 66.4832 227.487C66.8892 228.229 67.0922 229.125 67.0922 230.175V237H64.6982V230.532C64.6982 229.496 64.4392 228.705 63.9212 228.159C63.4032 227.599 62.6962 227.319 61.8002 227.319C60.9042 227.319 60.1972 227.599 59.6792 228.159C59.1612 228.705 58.9022 229.496 58.9022 230.532V237H56.5292V230.532C56.5292 229.496 56.2702 228.705 55.7522 228.159C55.2342 227.599 54.5272 227.319 53.6312 227.319C52.7352 227.319 52.0212 227.599 51.4892 228.159C50.9712 228.705 50.7122 229.496 50.7122 230.532V237H48.3182V225.429H50.7122V227.256C51.0902 226.598 51.5942 226.101 52.2242 225.765C52.8682 225.415 53.5962 225.24 54.4082 225.24C55.3042 225.24 56.1022 225.45 56.8022 225.87C57.5022 226.29 58.0342 226.899 58.3982 227.697C58.8042 226.927 59.3642 226.325 60.0782 225.891C60.8062 225.457 61.6252 225.24 62.5352 225.24ZM76.1194 222.363C76.1194 221.929 76.2664 221.565 76.5604 221.271C76.8544 220.977 77.2184 220.83 77.6524 220.83C78.0724 220.83 78.4294 220.977 78.7234 221.271C79.0174 221.565 79.1644 221.929 79.1644 222.363C79.1644 222.797 79.0174 223.161 78.7234 223.455C78.4294 223.749 78.0724 223.896 77.6524 223.896C77.2184 223.896 76.8544 223.749 76.5604 223.455C76.2664 223.161 76.1194 222.797 76.1194 222.363ZM78.8284 225.429V237H76.4344V225.429H78.8284ZM88.3975 225.24C89.4055 225.24 90.3225 225.492 91.1485 225.996C91.9885 226.486 92.6465 227.179 93.1225 228.075C93.5985 228.971 93.8365 230 93.8365 231.162C93.8365 232.324 93.5985 233.367 93.1225 234.291C92.6465 235.201 91.9885 235.915 91.1485 236.433C90.3225 236.937 89.4055 237.189 88.3975 237.189C87.4875 237.189 86.6895 236.979 86.0035 236.559C85.3175 236.125 84.7715 235.551 84.3655 234.837V242.502H81.9715V225.429H84.3655V227.487C84.7575 226.815 85.2965 226.276 85.9825 225.87C86.6825 225.45 87.4875 225.24 88.3975 225.24ZM87.8725 227.319C87.2705 227.319 86.6965 227.473 86.1505 227.781C85.6185 228.089 85.1845 228.537 84.8485 229.125C84.5265 229.713 84.3655 230.406 84.3655 231.204C84.3655 232.002 84.5265 232.702 84.8485 233.304C85.1845 233.892 85.6185 234.34 86.1505 234.648C86.6965 234.956 87.2705 235.11 87.8725 235.11C88.4885 235.11 89.0625 234.956 89.5945 234.648C90.1405 234.326 90.5745 233.864 90.8965 233.262C91.2325 232.66 91.4005 231.96 91.4005 231.162C91.4005 230.364 91.2325 229.678 90.8965 229.104C90.5745 228.516 90.1405 228.075 89.5945 227.781C89.0625 227.473 88.4885 227.319 87.8725 227.319ZM100.257 225.24C101.545 225.24 102.581 225.576 103.365 226.248C104.163 226.906 104.59 227.809 104.646 228.957H102.189C102.147 228.383 101.944 227.935 101.58 227.613C101.23 227.291 100.733 227.13 100.089 227.13C99.4449 227.13 98.9409 227.277 98.5769 227.571C98.2129 227.851 98.0309 228.215 98.0309 228.663C98.0309 229.027 98.1499 229.321 98.3879 229.545C98.6259 229.769 98.9269 229.944 99.2909 230.07C99.6689 230.182 100.173 230.308 100.803 230.448C101.657 230.644 102.343 230.84 102.861 231.036C103.393 231.232 103.848 231.554 104.226 232.002C104.604 232.436 104.793 233.031 104.793 233.787C104.793 234.445 104.597 235.033 104.205 235.551C103.827 236.069 103.295 236.475 102.609 236.769C101.923 237.049 101.146 237.189 100.278 237.189C98.9339 237.189 97.8489 236.867 97.0229 236.223C96.1969 235.579 95.7419 234.662 95.6579 233.472H98.1359C98.1779 234.046 98.3879 234.494 98.7659 234.816C99.1439 235.138 99.6479 235.299 100.278 235.299C100.95 235.299 101.475 235.159 101.853 234.879C102.245 234.585 102.441 234.207 102.441 233.745C102.441 233.367 102.315 233.066 102.063 232.842C101.825 232.618 101.517 232.45 101.139 232.338C100.761 232.212 100.25 232.079 99.6059 231.939C98.7659 231.743 98.0869 231.554 97.5689 231.372C97.0509 231.176 96.6029 230.868 96.2249 230.448C95.8609 230.028 95.6789 229.461 95.6789 228.747C95.6789 228.103 95.8609 227.515 96.2249 226.983C96.5889 226.451 97.1139 226.031 97.7999 225.723C98.4999 225.401 99.3189 225.24 100.257 225.24ZM117.901 225.429V237H115.507V235.173C115.129 235.831 114.618 236.328 113.974 236.664C113.344 237 112.623 237.168 111.811 237.168C110.971 237.168 110.208 236.979 109.522 236.601C108.85 236.223 108.311 235.67 107.905 234.942C107.513 234.2 107.317 233.304 107.317 232.254V225.429H109.69V231.897C109.69 232.933 109.949 233.731 110.467 234.291C110.985 234.837 111.692 235.11 112.588 235.11C113.484 235.11 114.191 234.837 114.709 234.291C115.241 233.731 115.507 232.933 115.507 231.897V225.429H117.901ZM135.276 225.24C136.144 225.24 136.921 225.429 137.607 225.807C138.293 226.185 138.832 226.745 139.224 227.487C139.63 228.229 139.833 229.125 139.833 230.175V237H137.439V230.532C137.439 229.496 137.18 228.705 136.662 228.159C136.144 227.599 135.437 227.319 134.541 227.319C133.645 227.319 132.938 227.599 132.42 228.159C131.902 228.705 131.643 229.496 131.643 230.532V237H129.27V230.532C129.27 229.496 129.011 228.705 128.493 228.159C127.975 227.599 127.268 227.319 126.372 227.319C125.476 227.319 124.762 227.599 124.23 228.159C123.712 228.705 123.453 229.496 123.453 230.532V237H121.059V225.429H123.453V227.256C123.831 226.598 124.335 226.101 124.965 225.765C125.609 225.415 126.337 225.24 127.149 225.24C128.045 225.24 128.843 225.45 129.543 225.87C130.243 226.29 130.775 226.899 131.139 227.697C131.545 226.927 132.105 226.325 132.819 225.891C133.547 225.457 134.366 225.24 135.276 225.24ZM153.838 225.24C154.748 225.24 155.546 225.45 156.232 225.87C156.932 226.276 157.471 226.815 157.849 227.487V221.46H160.264V237H157.849V234.837C157.457 235.551 156.918 236.125 156.232 236.559C155.546 236.979 154.748 237.189 153.838 237.189C152.83 237.189 151.906 236.937 151.066 236.433C150.24 235.915 149.582 235.201 149.092 234.291C148.616 233.367 148.378 232.324 148.378 231.162C148.378 230 148.616 228.971 149.092 228.075C149.582 227.179 150.24 226.486 151.066 225.996C151.906 225.492 152.83 225.24 153.838 225.24ZM154.342 227.319C153.726 227.319 153.152 227.473 152.62 227.781C152.088 228.075 151.654 228.516 151.318 229.104C150.996 229.678 150.835 230.364 150.835 231.162C150.835 231.96 150.996 232.66 151.318 233.262C151.654 233.864 152.088 234.326 152.62 234.648C153.166 234.956 153.74 235.11 154.342 235.11C154.958 235.11 155.532 234.956 156.064 234.648C156.596 234.34 157.023 233.892 157.345 233.304C157.681 232.702 157.849 232.002 157.849 231.204C157.849 230.406 157.681 229.713 157.345 229.125C157.023 228.537 156.596 228.089 156.064 227.781C155.532 227.473 154.958 227.319 154.342 227.319ZM168.532 225.24C169.638 225.24 170.639 225.485 171.535 225.975C172.431 226.465 173.138 227.165 173.656 228.075C174.174 228.985 174.433 230.028 174.433 231.204C174.433 232.38 174.167 233.423 173.635 234.333C173.103 235.243 172.375 235.95 171.451 236.454C170.541 236.944 169.533 237.189 168.427 237.189C167.335 237.189 166.348 236.944 165.466 236.454C164.584 235.95 163.891 235.25 163.387 234.354C162.883 233.444 162.631 232.394 162.631 231.204C162.631 230.028 162.89 228.985 163.408 228.075C163.926 227.165 164.633 226.465 165.529 225.975C166.425 225.485 167.426 225.24 168.532 225.24ZM168.49 227.256C167.874 227.256 167.307 227.41 166.789 227.718C166.271 228.012 165.851 228.46 165.529 229.062C165.221 229.65 165.067 230.364 165.067 231.204C165.067 232.044 165.214 232.765 165.508 233.367C165.816 233.969 166.222 234.424 166.726 234.732C167.244 235.026 167.811 235.173 168.427 235.173C169.043 235.173 169.617 235.019 170.149 234.711C170.695 234.403 171.136 233.955 171.472 233.367C171.808 232.765 171.976 232.044 171.976 231.204C171.976 230.364 171.815 229.65 171.493 229.062C171.171 228.46 170.744 228.012 170.212 227.718C169.68 227.41 169.106 227.256 168.49 227.256ZM179.194 221.46V237H176.8V221.46H179.194ZM187.461 225.24C188.567 225.24 189.568 225.485 190.464 225.975C191.36 226.465 192.067 227.165 192.585 228.075C193.103 228.985 193.362 230.028 193.362 231.204C193.362 232.38 193.096 233.423 192.564 234.333C192.032 235.243 191.304 235.95 190.38 236.454C189.47 236.944 188.462 237.189 187.356 237.189C186.264 237.189 185.277 236.944 184.395 236.454C183.513 235.95 182.82 235.25 182.316 234.354C181.812 233.444 181.56 232.394 181.56 231.204C181.56 230.028 181.819 228.985 182.337 228.075C182.855 227.165 183.562 226.465 184.458 225.975C185.354 225.485 186.355 225.24 187.461 225.24ZM187.419 227.256C186.803 227.256 186.236 227.41 185.718 227.718C185.2 228.012 184.78 228.46 184.458 229.062C184.15 229.65 183.996 230.364 183.996 231.204C183.996 232.044 184.143 232.765 184.437 233.367C184.745 233.969 185.151 234.424 185.655 234.732C186.173 235.026 186.74 235.173 187.356 235.173C187.972 235.173 188.546 235.019 189.078 234.711C189.624 234.403 190.065 233.955 190.401 233.367C190.737 232.765 190.905 232.044 190.905 231.204C190.905 230.364 190.744 229.65 190.422 229.062C190.1 228.46 189.673 228.012 189.141 227.718C188.609 227.41 188.035 227.256 187.419 227.256ZM198.122 227.445C198.472 226.745 198.934 226.206 199.508 225.828C200.096 225.436 200.789 225.24 201.587 225.24V227.718H200.978C200.04 227.718 199.326 227.956 198.836 228.432C198.36 228.908 198.122 229.734 198.122 230.91V237H195.728V225.429H198.122V227.445ZM214.137 225.24C215.425 225.24 216.461 225.576 217.245 226.248C218.043 226.906 218.47 227.809 218.526 228.957H216.069C216.027 228.383 215.824 227.935 215.46 227.613C215.11 227.291 214.613 227.13 213.969 227.13C213.325 227.13 212.821 227.277 212.457 227.571C212.093 227.851 211.911 228.215 211.911 228.663C211.911 229.027 212.03 229.321 212.268 229.545C212.506 229.769 212.807 229.944 213.171 230.07C213.549 230.182 214.053 230.308 214.683 230.448C215.537 230.644 216.223 230.84 216.741 231.036C217.273 231.232 217.728 231.554 218.106 232.002C218.484 232.436 218.673 233.031 218.673 233.787C218.673 234.445 218.477 235.033 218.085 235.551C217.707 236.069 217.175 236.475 216.489 236.769C215.803 237.049 215.026 237.189 214.158 237.189C212.814 237.189 211.729 236.867 210.903 236.223C210.077 235.579 209.622 234.662 209.538 233.472H212.016C212.058 234.046 212.268 234.494 212.646 234.816C213.024 235.138 213.528 235.299 214.158 235.299C214.83 235.299 215.355 235.159 215.733 234.879C216.125 234.585 216.321 234.207 216.321 233.745C216.321 233.367 216.195 233.066 215.943 232.842C215.705 232.618 215.397 232.45 215.019 232.338C214.641 232.212 214.13 232.079 213.486 231.939C212.646 231.743 211.967 231.554 211.449 231.372C210.931 231.176 210.483 230.868 210.105 230.448C209.741 230.028 209.559 229.461 209.559 228.747C209.559 228.103 209.741 227.515 210.105 226.983C210.469 226.451 210.994 226.031 211.68 225.723C212.38 225.401 213.199 225.24 214.137 225.24ZM220.987 222.363C220.987 221.929 221.134 221.565 221.428 221.271C221.722 220.977 222.086 220.83 222.52 220.83C222.94 220.83 223.297 220.977 223.591 221.271C223.885 221.565 224.032 221.929 224.032 222.363C224.032 222.797 223.885 223.161 223.591 223.455C223.297 223.749 222.94 223.896 222.52 223.896C222.086 223.896 221.722 223.749 221.428 223.455C221.134 223.161 220.987 222.797 220.987 222.363ZM223.696 225.429V237H221.302V225.429H223.696ZM229.632 227.382V233.787C229.632 234.221 229.73 234.536 229.926 234.732C230.136 234.914 230.486 235.005 230.976 235.005H232.446V237H230.556C229.478 237 228.652 236.748 228.078 236.244C227.504 235.74 227.217 234.921 227.217 233.787V227.382H225.852V225.429H227.217V222.552H229.632V225.429H232.446V227.382H229.632ZM245.61 225.24C246.52 225.24 247.318 225.45 248.004 225.87C248.704 226.276 249.243 226.815 249.621 227.487V225.429H252.036V237H249.621V234.837C249.229 235.551 248.69 236.125 248.004 236.559C247.318 236.979 246.52 237.189 245.61 237.189C244.602 237.189 243.678 236.937 242.838 236.433C242.012 235.915 241.354 235.201 240.864 234.291C240.388 233.367 240.15 232.324 240.15 231.162C240.15 230 240.388 228.971 240.864 228.075C241.354 227.179 242.012 226.486 242.838 225.996C243.678 225.492 244.602 225.24 245.61 225.24ZM246.114 227.319C245.498 227.319 244.924 227.473 244.392 227.781C243.86 228.075 243.426 228.516 243.09 229.104C242.768 229.678 242.607 230.364 242.607 231.162C242.607 231.96 242.768 232.66 243.09 233.262C243.426 233.864 243.86 234.326 244.392 234.648C244.938 234.956 245.512 235.11 246.114 235.11C246.73 235.11 247.304 234.956 247.836 234.648C248.368 234.34 248.795 233.892 249.117 233.304C249.453 232.702 249.621 232.002 249.621 231.204C249.621 230.406 249.453 229.713 249.117 229.125C248.795 228.537 248.368 228.089 247.836 227.781C247.304 227.473 246.73 227.319 246.114 227.319ZM269.397 225.24C270.265 225.24 271.042 225.429 271.728 225.807C272.414 226.185 272.953 226.745 273.345 227.487C273.751 228.229 273.954 229.125 273.954 230.175V237H271.56V230.532C271.56 229.496 271.301 228.705 270.783 228.159C270.265 227.599 269.558 227.319 268.662 227.319C267.766 227.319 267.059 227.599 266.541 228.159C266.023 228.705 265.764 229.496 265.764 230.532V237H263.391V230.532C263.391 229.496 263.132 228.705 262.614 228.159C262.096 227.599 261.389 227.319 260.493 227.319C259.597 227.319 258.883 227.599 258.351 228.159C257.833 228.705 257.574 229.496 257.574 230.532V237H255.18V225.429H257.574V227.256C257.952 226.598 258.456 226.101 259.086 225.765C259.73 225.415 260.458 225.24 261.27 225.24C262.166 225.24 262.964 225.45 263.664 225.87C264.364 226.29 264.896 226.899 265.26 227.697C265.666 226.927 266.226 226.325 266.94 225.891C267.668 225.457 268.487 225.24 269.397 225.24ZM287.606 230.889C287.606 231.295 287.578 231.673 287.522 232.023H278.66C278.716 232.989 279.038 233.759 279.626 234.333C280.228 234.893 280.977 235.173 281.873 235.173C283.175 235.173 284.092 234.634 284.624 233.556H287.207C286.857 234.62 286.22 235.495 285.296 236.181C284.372 236.853 283.231 237.189 281.873 237.189C280.767 237.189 279.787 236.944 278.933 236.454C278.079 235.95 277.407 235.25 276.917 234.354C276.441 233.444 276.203 232.394 276.203 231.204C276.203 230.014 276.441 228.971 276.917 228.075C277.407 227.165 278.086 226.465 278.954 225.975C279.836 225.485 280.844 225.24 281.978 225.24C283.07 225.24 284.043 225.478 284.897 225.954C285.751 226.43 286.416 227.095 286.892 227.949C287.368 228.803 287.606 229.783 287.606 230.889ZM285.107 230.385C285.093 229.433 284.778 228.677 284.162 228.117C283.546 227.543 282.783 227.256 281.873 227.256C281.019 227.256 280.291 227.543 279.689 228.117C279.101 228.677 278.765 229.433 278.681 230.385H285.107ZM292.755 227.382V233.787C292.755 234.221 292.853 234.536 293.049 234.732C293.259 234.914 293.609 235.005 294.099 235.005H295.569V237H293.679C292.601 237 291.775 236.748 291.201 236.244C290.627 235.74 290.34 234.921 290.34 233.787V227.382H288.975V225.429H290.34V222.552H292.755V225.429H295.569V227.382H292.755ZM299.224 235.362C299.476 236.258 299.602 237.007 299.602 237.609C299.602 238.449 299.399 239.1 298.993 239.562C298.587 240.024 297.971 240.255 297.145 240.255V239.205C297.495 239.205 297.747 239.121 297.901 238.953C298.069 238.785 298.153 238.505 298.153 238.113V237.672H296.956V235.362H299.224ZM313.188 225.24C314.588 225.24 315.743 225.576 316.653 226.248C317.577 226.906 318.2 227.851 318.522 229.083H315.939C315.729 228.509 315.393 228.061 314.931 227.739C314.469 227.417 313.888 227.256 313.188 227.256C312.208 227.256 311.424 227.606 310.836 228.306C310.262 228.992 309.975 229.958 309.975 231.204C309.975 232.45 310.262 233.423 310.836 234.123C311.424 234.823 312.208 235.173 313.188 235.173C314.574 235.173 315.491 234.564 315.939 233.346H318.522C318.186 234.522 317.556 235.46 316.632 236.16C315.708 236.846 314.56 237.189 313.188 237.189C312.082 237.189 311.102 236.944 310.248 236.454C309.394 235.95 308.722 235.25 308.232 234.354C307.756 233.444 307.518 232.394 307.518 231.204C307.518 230.014 307.756 228.971 308.232 228.075C308.722 227.165 309.394 226.465 310.248 225.975C311.102 225.485 312.082 225.24 313.188 225.24ZM326.032 225.24C327.138 225.24 328.139 225.485 329.035 225.975C329.931 226.465 330.638 227.165 331.156 228.075C331.674 228.985 331.933 230.028 331.933 231.204C331.933 232.38 331.667 233.423 331.135 234.333C330.603 235.243 329.875 235.95 328.951 236.454C328.041 236.944 327.033 237.189 325.927 237.189C324.835 237.189 323.848 236.944 322.966 236.454C322.084 235.95 321.391 235.25 320.887 234.354C320.383 233.444 320.131 232.394 320.131 231.204C320.131 230.028 320.39 228.985 320.908 228.075C321.426 227.165 322.133 226.465 323.029 225.975C323.925 225.485 324.926 225.24 326.032 225.24ZM325.99 227.256C325.374 227.256 324.807 227.41 324.289 227.718C323.771 228.012 323.351 228.46 323.029 229.062C322.721 229.65 322.567 230.364 322.567 231.204C322.567 232.044 322.714 232.765 323.008 233.367C323.316 233.969 323.722 234.424 324.226 234.732C324.744 235.026 325.311 235.173 325.927 235.173C326.543 235.173 327.117 235.019 327.649 234.711C328.195 234.403 328.636 233.955 328.972 233.367C329.308 232.765 329.476 232.044 329.476 231.204C329.476 230.364 329.315 229.65 328.993 229.062C328.671 228.46 328.244 228.012 327.712 227.718C327.18 227.41 326.606 227.256 325.99 227.256ZM340.39 225.24C341.23 225.24 341.986 225.429 342.658 225.807C343.344 226.185 343.883 226.745 344.275 227.487C344.681 228.229 344.884 229.125 344.884 230.175V237H342.511V230.532C342.511 229.496 342.252 228.705 341.734 228.159C341.216 227.599 340.509 227.319 339.613 227.319C338.717 227.319 338.003 227.599 337.471 228.159C336.953 228.705 336.694 229.496 336.694 230.532V237H334.3V225.429H336.694V227.256C337.072 226.598 337.576 226.101 338.206 225.765C338.85 225.415 339.578 225.24 340.39 225.24ZM351.99 225.24C353.278 225.24 354.314 225.576 355.098 226.248C355.896 226.906 356.323 227.809 356.379 228.957H353.922C353.88 228.383 353.677 227.935 353.313 227.613C352.963 227.291 352.466 227.13 351.822 227.13C351.178 227.13 350.674 227.277 350.31 227.571C349.946 227.851 349.764 228.215 349.764 228.663C349.764 229.027 349.883 229.321 350.121 229.545C350.359 229.769 350.66 229.944 351.024 230.07C351.402 230.182 351.906 230.308 352.536 230.448C353.39 230.644 354.076 230.84 354.594 231.036C355.126 231.232 355.581 231.554 355.959 232.002C356.337 232.436 356.526 233.031 356.526 233.787C356.526 234.445 356.33 235.033 355.938 235.551C355.56 236.069 355.028 236.475 354.342 236.769C353.656 237.049 352.879 237.189 352.011 237.189C350.667 237.189 349.582 236.867 348.756 236.223C347.93 235.579 347.475 234.662 347.391 233.472H349.869C349.911 234.046 350.121 234.494 350.499 234.816C350.877 235.138 351.381 235.299 352.011 235.299C352.683 235.299 353.208 235.159 353.586 234.879C353.978 234.585 354.174 234.207 354.174 233.745C354.174 233.367 354.048 233.066 353.796 232.842C353.558 232.618 353.25 232.45 352.872 232.338C352.494 232.212 351.983 232.079 351.339 231.939C350.499 231.743 349.82 231.554 349.302 231.372C348.784 231.176 348.336 230.868 347.958 230.448C347.594 230.028 347.412 229.461 347.412 228.747C347.412 228.103 347.594 227.515 347.958 226.983C348.322 226.451 348.847 226.031 349.533 225.723C350.233 225.401 351.052 225.24 351.99 225.24ZM369.76 230.889C369.76 231.295 369.732 231.673 369.676 232.023H360.814C360.87 232.989 361.192 233.759 361.78 234.333C362.382 234.893 363.131 235.173 364.027 235.173C365.329 235.173 366.246 234.634 366.778 233.556H369.361C369.011 234.62 368.374 235.495 367.45 236.181C366.526 236.853 365.385 237.189 364.027 237.189C362.921 237.189 361.941 236.944 361.087 236.454C360.233 235.95 359.561 235.25 359.071 234.354C358.595 233.444 358.357 232.394 358.357 231.204C358.357 230.014 358.595 228.971 359.071 228.075C359.561 227.165 360.24 226.465 361.108 225.975C361.99 225.485 362.998 225.24 364.132 225.24C365.224 225.24 366.197 225.478 367.051 225.954C367.905 226.43 368.57 227.095 369.046 227.949C369.522 228.803 369.76 229.783 369.76 230.889ZM367.261 230.385C367.247 229.433 366.932 228.677 366.316 228.117C365.7 227.543 364.937 227.256 364.027 227.256C363.173 227.256 362.445 227.543 361.843 228.117C361.255 228.677 360.919 229.433 360.835 230.385H367.261ZM376.988 225.24C378.388 225.24 379.543 225.576 380.453 226.248C381.377 226.906 382 227.851 382.322 229.083H379.739C379.529 228.509 379.193 228.061 378.731 227.739C378.269 227.417 377.688 227.256 376.988 227.256C376.008 227.256 375.224 227.606 374.636 228.306C374.062 228.992 373.775 229.958 373.775 231.204C373.775 232.45 374.062 233.423 374.636 234.123C375.224 234.823 376.008 235.173 376.988 235.173C378.374 235.173 379.291 234.564 379.739 233.346H382.322C381.986 234.522 381.356 235.46 380.432 236.16C379.508 236.846 378.36 237.189 376.988 237.189C375.882 237.189 374.902 236.944 374.048 236.454C373.194 235.95 372.522 235.25 372.032 234.354C371.556 233.444 371.318 232.394 371.318 231.204C371.318 230.014 371.556 228.971 372.032 228.075C372.522 227.165 373.194 226.465 374.048 225.975C374.902 225.485 375.882 225.24 376.988 225.24ZM387.501 227.382V233.787C387.501 234.221 387.599 234.536 387.795 234.732C388.005 234.914 388.355 235.005 388.845 235.005H390.315V237H388.425C387.347 237 386.521 236.748 385.947 236.244C385.373 235.74 385.086 234.921 385.086 233.787V227.382H383.721V225.429H385.086V222.552H387.501V225.429H390.315V227.382H387.501ZM403.126 230.889C403.126 231.295 403.098 231.673 403.042 232.023H394.18C394.236 232.989 394.558 233.759 395.146 234.333C395.748 234.893 396.497 235.173 397.393 235.173C398.695 235.173 399.612 234.634 400.144 233.556H402.727C402.377 234.62 401.74 235.495 400.816 236.181C399.892 236.853 398.751 237.189 397.393 237.189C396.287 237.189 395.307 236.944 394.453 236.454C393.599 235.95 392.927 235.25 392.437 234.354C391.961 233.444 391.723 232.394 391.723 231.204C391.723 230.014 391.961 228.971 392.437 228.075C392.927 227.165 393.606 226.465 394.474 225.975C395.356 225.485 396.364 225.24 397.498 225.24C398.59 225.24 399.563 225.478 400.417 225.954C401.271 226.43 401.936 227.095 402.412 227.949C402.888 228.803 403.126 229.783 403.126 230.889ZM400.627 230.385C400.613 229.433 400.298 228.677 399.682 228.117C399.066 227.543 398.303 227.256 397.393 227.256C396.539 227.256 395.811 227.543 395.209 228.117C394.621 228.677 394.285 229.433 394.201 230.385H400.627ZM408.275 227.382V233.787C408.275 234.221 408.373 234.536 408.569 234.732C408.779 234.914 409.129 235.005 409.619 235.005H411.089V237H409.199C408.121 237 407.295 236.748 406.721 236.244C406.147 235.74 405.86 234.921 405.86 233.787V227.382H404.495V225.429H405.86V222.552H408.275V225.429H411.089V227.382H408.275ZM423.775 225.429V237H421.381V235.173C421.003 235.831 420.492 236.328 419.848 236.664C419.218 237 418.497 237.168 417.685 237.168C416.845 237.168 416.082 236.979 415.396 236.601C414.724 236.223 414.185 235.67 413.779 234.942C413.387 234.2 413.191 233.304 413.191 232.254V225.429H415.564V231.897C415.564 232.933 415.823 233.731 416.341 234.291C416.859 234.837 417.566 235.11 418.462 235.11C419.358 235.11 420.065 234.837 420.583 234.291C421.115 233.731 421.381 232.933 421.381 231.897V225.429H423.775ZM429.327 227.445C429.677 226.745 430.139 226.206 430.713 225.828C431.301 225.436 431.994 225.24 432.792 225.24V227.718H432.183C431.245 227.718 430.531 227.956 430.041 228.432C429.565 228.908 429.327 229.734 429.327 230.91V237H426.933V225.429H429.327V227.445ZM445.951 225.24C446.861 225.24 447.659 225.45 448.345 225.87C449.045 226.276 449.584 226.815 449.962 227.487V225.429H452.377V237H449.962V234.837C449.57 235.551 449.031 236.125 448.345 236.559C447.659 236.979 446.861 237.189 445.951 237.189C444.943 237.189 444.019 236.937 443.179 236.433C442.353 235.915 441.695 235.201 441.205 234.291C440.729 233.367 440.491 232.324 440.491 231.162C440.491 230 440.729 228.971 441.205 228.075C441.695 227.179 442.353 226.486 443.179 225.996C444.019 225.492 444.943 225.24 445.951 225.24ZM446.455 227.319C445.839 227.319 445.265 227.473 444.733 227.781C444.201 228.075 443.767 228.516 443.431 229.104C443.109 229.678 442.948 230.364 442.948 231.162C442.948 231.96 443.109 232.66 443.431 233.262C443.767 233.864 444.201 234.326 444.733 234.648C445.279 234.956 445.853 235.11 446.455 235.11C447.071 235.11 447.645 234.956 448.177 234.648C448.709 234.34 449.136 233.892 449.458 233.304C449.794 232.702 449.962 232.002 449.962 231.204C449.962 230.406 449.794 229.713 449.458 229.125C449.136 228.537 448.709 228.089 448.177 227.781C447.645 227.473 447.071 227.319 446.455 227.319ZM460.183 225.24C461.093 225.24 461.891 225.45 462.577 225.87C463.277 226.276 463.816 226.815 464.194 227.487V221.46H466.609V237H464.194V234.837C463.802 235.551 463.263 236.125 462.577 236.559C461.891 236.979 461.093 237.189 460.183 237.189C459.175 237.189 458.251 236.937 457.411 236.433C456.585 235.915 455.927 235.201 455.437 234.291C454.961 233.367 454.723 232.324 454.723 231.162C454.723 230 454.961 228.971 455.437 228.075C455.927 227.179 456.585 226.486 457.411 225.996C458.251 225.492 459.175 225.24 460.183 225.24ZM460.687 227.319C460.071 227.319 459.497 227.473 458.965 227.781C458.433 228.075 457.999 228.516 457.663 229.104C457.341 229.678 457.18 230.364 457.18 231.162C457.18 231.96 457.341 232.66 457.663 233.262C457.999 233.864 458.433 234.326 458.965 234.648C459.511 234.956 460.085 235.11 460.687 235.11C461.303 235.11 461.877 234.956 462.409 234.648C462.941 234.34 463.368 233.892 463.69 233.304C464.026 232.702 464.194 232.002 464.194 231.204C464.194 230.406 464.026 229.713 463.69 229.125C463.368 228.537 462.941 228.089 462.409 227.781C461.877 227.473 461.303 227.319 460.687 227.319ZM469.439 222.363C469.439 221.929 469.586 221.565 469.88 221.271C470.174 220.977 470.538 220.83 470.972 220.83C471.392 220.83 471.749 220.977 472.043 221.271C472.337 221.565 472.484 221.929 472.484 222.363C472.484 222.797 472.337 223.161 472.043 223.455C471.749 223.749 471.392 223.896 470.972 223.896C470.538 223.896 470.174 223.749 469.88 223.455C469.586 223.161 469.439 222.797 469.439 222.363ZM472.148 225.429V237H469.754V225.429H472.148ZM481.717 225.24C482.725 225.24 483.642 225.492 484.468 225.996C485.308 226.486 485.966 227.179 486.442 228.075C486.918 228.971 487.156 230 487.156 231.162C487.156 232.324 486.918 233.367 486.442 234.291C485.966 235.201 485.308 235.915 484.468 236.433C483.642 236.937 482.725 237.189 481.717 237.189C480.807 237.189 480.009 236.979 479.323 236.559C478.637 236.125 478.091 235.551 477.685 234.837V242.502H475.291V225.429H477.685V227.487C478.077 226.815 478.616 226.276 479.302 225.87C480.002 225.45 480.807 225.24 481.717 225.24ZM481.192 227.319C480.59 227.319 480.016 227.473 479.47 227.781C478.938 228.089 478.504 228.537 478.168 229.125C477.846 229.713 477.685 230.406 477.685 231.204C477.685 232.002 477.846 232.702 478.168 233.304C478.504 233.892 478.938 234.34 479.47 234.648C480.016 234.956 480.59 235.11 481.192 235.11C481.808 235.11 482.382 234.956 482.914 234.648C483.46 234.326 483.894 233.864 484.216 233.262C484.552 232.66 484.72 231.96 484.72 231.162C484.72 230.364 484.552 229.678 484.216 229.104C483.894 228.516 483.46 228.075 482.914 227.781C482.382 227.473 481.808 227.319 481.192 227.319ZM489.208 222.363C489.208 221.929 489.355 221.565 489.649 221.271C489.943 220.977 490.307 220.83 490.741 220.83C491.161 220.83 491.518 220.977 491.812 221.271C492.106 221.565 492.253 221.929 492.253 222.363C492.253 222.797 492.106 223.161 491.812 223.455C491.518 223.749 491.161 223.896 490.741 223.896C490.307 223.896 489.943 223.749 489.649 223.455C489.355 223.161 489.208 222.797 489.208 222.363ZM491.917 225.429V237H489.523V225.429H491.917ZM499.113 225.24C500.401 225.24 501.437 225.576 502.221 226.248C503.019 226.906 503.446 227.809 503.502 228.957H501.045C501.003 228.383 500.8 227.935 500.436 227.613C500.086 227.291 499.589 227.13 498.945 227.13C498.301 227.13 497.797 227.277 497.433 227.571C497.069 227.851 496.887 228.215 496.887 228.663C496.887 229.027 497.006 229.321 497.244 229.545C497.482 229.769 497.783 229.944 498.147 230.07C498.525 230.182 499.029 230.308 499.659 230.448C500.513 230.644 501.199 230.84 501.717 231.036C502.249 231.232 502.704 231.554 503.082 232.002C503.46 232.436 503.649 233.031 503.649 233.787C503.649 234.445 503.453 235.033 503.061 235.551C502.683 236.069 502.151 236.475 501.465 236.769C500.779 237.049 500.002 237.189 499.134 237.189C497.79 237.189 496.705 236.867 495.879 236.223C495.053 235.579 494.598 234.662 494.514 233.472H496.992C497.034 234.046 497.244 234.494 497.622 234.816C498 235.138 498.504 235.299 499.134 235.299C499.806 235.299 500.331 235.159 500.709 234.879C501.101 234.585 501.297 234.207 501.297 233.745C501.297 233.367 501.171 233.066 500.919 232.842C500.681 232.618 500.373 232.45 499.995 232.338C499.617 232.212 499.106 232.079 498.462 231.939C497.622 231.743 496.943 231.554 496.425 231.372C495.907 231.176 495.459 230.868 495.081 230.448C494.717 230.028 494.535 229.461 494.535 228.747C494.535 228.103 494.717 227.515 495.081 226.983C495.445 226.451 495.97 226.031 496.656 225.723C497.356 225.401 498.175 225.24 499.113 225.24ZM511.15 225.24C512.55 225.24 513.705 225.576 514.615 226.248C515.539 226.906 516.162 227.851 516.484 229.083H513.901C513.691 228.509 513.355 228.061 512.893 227.739C512.431 227.417 511.85 227.256 511.15 227.256C510.17 227.256 509.386 227.606 508.798 228.306C508.224 228.992 507.937 229.958 507.937 231.204C507.937 232.45 508.224 233.423 508.798 234.123C509.386 234.823 510.17 235.173 511.15 235.173C512.536 235.173 513.453 234.564 513.901 233.346H516.484C516.148 234.522 515.518 235.46 514.594 236.16C513.67 236.846 512.522 237.189 511.15 237.189C510.044 237.189 509.064 236.944 508.21 236.454C507.356 235.95 506.684 235.25 506.194 234.354C505.718 233.444 505.48 232.394 505.48 231.204C505.48 230.014 505.718 228.971 506.194 228.075C506.684 227.165 507.356 226.465 508.21 225.975C509.064 225.485 510.044 225.24 511.15 225.24ZM518.555 222.363C518.555 221.929 518.702 221.565 518.996 221.271C519.29 220.977 519.654 220.83 520.088 220.83C520.508 220.83 520.865 220.977 521.159 221.271C521.453 221.565 521.6 221.929 521.6 222.363C521.6 222.797 521.453 223.161 521.159 223.455C520.865 223.749 520.508 223.896 520.088 223.896C519.654 223.896 519.29 223.749 518.996 223.455C518.702 223.161 518.555 222.797 518.555 222.363ZM521.264 225.429V237H518.87V225.429H521.264ZM530.497 225.24C531.337 225.24 532.093 225.429 532.765 225.807C533.451 226.185 533.99 226.745 534.382 227.487C534.788 228.229 534.991 229.125 534.991 230.175V237H532.618V230.532C532.618 229.496 532.359 228.705 531.841 228.159C531.323 227.599 530.616 227.319 529.72 227.319C528.824 227.319 528.11 227.599 527.578 228.159C527.06 228.705 526.801 229.496 526.801 230.532V237H524.407V225.429H526.801V227.256C527.179 226.598 527.683 226.101 528.313 225.765C528.957 225.415 529.685 225.24 530.497 225.24ZM542.707 225.24C543.617 225.24 544.415 225.45 545.101 225.87C545.801 226.276 546.34 226.815 546.718 227.487V225.429H549.133V237.189C549.133 238.253 548.909 239.198 548.461 240.024C548.013 240.864 547.362 241.522 546.508 241.998C545.668 242.474 544.66 242.712 543.484 242.712C541.916 242.712 540.614 242.341 539.578 241.599C538.542 240.871 537.954 239.877 537.814 238.617H540.187C540.369 239.219 540.754 239.702 541.342 240.066C541.944 240.444 542.658 240.633 543.484 240.633C544.45 240.633 545.227 240.339 545.815 239.751C546.417 239.163 546.718 238.309 546.718 237.189V234.837C546.326 235.551 545.787 236.125 545.101 236.559C544.415 236.979 543.617 237.189 542.707 237.189C541.699 237.189 540.775 236.937 539.935 236.433C539.109 235.915 538.451 235.201 537.961 234.291C537.485 233.367 537.247 232.324 537.247 231.162C537.247 230 537.485 228.971 537.961 228.075C538.451 227.179 539.109 226.486 539.935 225.996C540.775 225.492 541.699 225.24 542.707 225.24ZM543.211 227.319C542.595 227.319 542.021 227.473 541.489 227.781C540.957 228.075 540.523 228.516 540.187 229.104C539.865 229.678 539.704 230.364 539.704 231.162C539.704 231.96 539.865 232.66 540.187 233.262C540.523 233.864 540.957 234.326 541.489 234.648C542.035 234.956 542.609 235.11 543.211 235.11C543.827 235.11 544.401 234.956 544.933 234.648C545.465 234.34 545.892 233.892 546.214 233.304C546.55 232.702 546.718 232.002 546.718 231.204C546.718 230.406 546.55 229.713 546.214 229.125C545.892 228.537 545.465 228.089 544.933 227.781C544.401 227.473 543.827 227.319 543.211 227.319ZM569.178 230.889C569.178 231.295 569.15 231.673 569.094 232.023H560.232C560.288 232.989 560.61 233.759 561.198 234.333C561.8 234.893 562.549 235.173 563.445 235.173C564.747 235.173 565.664 234.634 566.196 233.556H568.779C568.429 234.62 567.792 235.495 566.868 236.181C565.944 236.853 564.803 237.189 563.445 237.189C562.339 237.189 561.359 236.944 560.505 236.454C559.651 235.95 558.979 235.25 558.489 234.354C558.013 233.444 557.775 232.394 557.775 231.204C557.775 230.014 558.013 228.971 558.489 228.075C558.979 227.165 559.658 226.465 560.526 225.975C561.408 225.485 562.416 225.24 563.55 225.24C564.642 225.24 565.615 225.478 566.469 225.954C567.323 226.43 567.988 227.095 568.464 227.949C568.94 228.803 569.178 229.783 569.178 230.889ZM566.679 230.385C566.665 229.433 566.35 228.677 565.734 228.117C565.118 227.543 564.355 227.256 563.445 227.256C562.591 227.256 561.863 227.543 561.261 228.117C560.673 228.677 560.337 229.433 560.253 230.385H566.679ZM573.928 221.46V237H571.534V221.46H573.928ZM576.756 222.363C576.756 221.929 576.903 221.565 577.197 221.271C577.491 220.977 577.855 220.83 578.289 220.83C578.709 220.83 579.066 220.977 579.36 221.271C579.654 221.565 579.801 221.929 579.801 222.363C579.801 222.797 579.654 223.161 579.36 223.455C579.066 223.749 578.709 223.896 578.289 223.896C577.855 223.896 577.491 223.749 577.197 223.455C576.903 223.161 576.756 222.797 576.756 222.363ZM579.465 225.429V237H577.071V225.429H579.465ZM585.401 227.382V233.787C585.401 234.221 585.499 234.536 585.695 234.732C585.905 234.914 586.255 235.005 586.745 235.005H588.215V237H586.325C585.247 237 584.421 236.748 583.847 236.244C583.273 235.74 582.986 234.921 582.986 233.787V227.382H581.621V225.429H582.986V222.552H585.401V225.429H588.215V227.382H585.401ZM591.871 235.362C592.123 236.258 592.249 237.007 592.249 237.609C592.249 238.449 592.046 239.1 591.64 239.562C591.234 240.024 590.618 240.255 589.792 240.255V239.205C590.142 239.205 590.394 239.121 590.548 238.953C590.716 238.785 590.8 238.505 590.8 238.113V237.672H589.603V235.362H591.871ZM8.628 263.24C9.916 263.24 10.952 263.576 11.736 264.248C12.534 264.906 12.961 265.809 13.017 266.957H10.56C10.518 266.383 10.315 265.935 9.951 265.613C9.601 265.291 9.104 265.13 8.46 265.13C7.816 265.13 7.312 265.277 6.948 265.571C6.584 265.851 6.402 266.215 6.402 266.663C6.402 267.027 6.521 267.321 6.759 267.545C6.997 267.769 7.298 267.944 7.662 268.07C8.04 268.182 8.544 268.308 9.174 268.448C10.028 268.644 10.714 268.84 11.232 269.036C11.764 269.232 12.219 269.554 12.597 270.002C12.975 270.436 13.164 271.031 13.164 271.787C13.164 272.445 12.968 273.033 12.576 273.551C12.198 274.069 11.666 274.475 10.98 274.769C10.294 275.049 9.517 275.189 8.649 275.189C7.305 275.189 6.22 274.867 5.394 274.223C4.568 273.579 4.113 272.662 4.029 271.472H6.507C6.549 272.046 6.759 272.494 7.137 272.816C7.515 273.138 8.019 273.299 8.649 273.299C9.321 273.299 9.846 273.159 10.224 272.879C10.616 272.585 10.812 272.207 10.812 271.745C10.812 271.367 10.686 271.066 10.434 270.842C10.196 270.618 9.888 270.45 9.51 270.338C9.132 270.212 8.621 270.079 7.977 269.939C7.137 269.743 6.458 269.554 5.94 269.372C5.422 269.176 4.974 268.868 4.596 268.448C4.232 268.028 4.05 267.461 4.05 266.747C4.05 266.103 4.232 265.515 4.596 264.983C4.96 264.451 5.485 264.031 6.171 263.723C6.871 263.401 7.69 263.24 8.628 263.24ZM26.3978 268.889C26.3978 269.295 26.3698 269.673 26.3138 270.023H17.4518C17.5078 270.989 17.8298 271.759 18.4178 272.333C19.0198 272.893 19.7688 273.173 20.6648 273.173C21.9668 273.173 22.8838 272.634 23.4158 271.556H25.9988C25.6488 272.62 25.0118 273.495 24.0878 274.181C23.1638 274.853 22.0228 275.189 20.6648 275.189C19.5588 275.189 18.5788 274.944 17.7248 274.454C16.8708 273.95 16.1988 273.25 15.7088 272.354C15.2328 271.444 14.9948 270.394 14.9948 269.204C14.9948 268.014 15.2328 266.971 15.7088 266.075C16.1988 265.165 16.8778 264.465 17.7458 263.975C18.6278 263.485 19.6358 263.24 20.7698 263.24C21.8618 263.24 22.8348 263.478 23.6888 263.954C24.5428 264.43 25.2078 265.095 25.6838 265.949C26.1598 266.803 26.3978 267.783 26.3978 268.889ZM23.8988 268.385C23.8848 267.433 23.5698 266.677 22.9538 266.117C22.3378 265.543 21.5748 265.256 20.6648 265.256C19.8108 265.256 19.0828 265.543 18.4808 266.117C17.8928 266.677 17.5568 267.433 17.4728 268.385H23.8988ZM33.4157 263.24C34.3257 263.24 35.1237 263.45 35.8097 263.87C36.5097 264.276 37.0487 264.815 37.4267 265.487V259.46H39.8417V275H37.4267V272.837C37.0347 273.551 36.4957 274.125 35.8097 274.559C35.1237 274.979 34.3257 275.189 33.4157 275.189C32.4077 275.189 31.4837 274.937 30.6437 274.433C29.8177 273.915 29.1597 273.201 28.6697 272.291C28.1937 271.367 27.9557 270.324 27.9557 269.162C27.9557 268 28.1937 266.971 28.6697 266.075C29.1597 265.179 29.8177 264.486 30.6437 263.996C31.4837 263.492 32.4077 263.24 33.4157 263.24ZM33.9197 265.319C33.3037 265.319 32.7297 265.473 32.1977 265.781C31.6657 266.075 31.2317 266.516 30.8957 267.104C30.5737 267.678 30.4127 268.364 30.4127 269.162C30.4127 269.96 30.5737 270.66 30.8957 271.262C31.2317 271.864 31.6657 272.326 32.1977 272.648C32.7437 272.956 33.3177 273.11 33.9197 273.11C34.5357 273.11 35.1097 272.956 35.6417 272.648C36.1737 272.34 36.6007 271.892 36.9227 271.304C37.2587 270.702 37.4267 270.002 37.4267 269.204C37.4267 268.406 37.2587 267.713 36.9227 267.125C36.6007 266.537 36.1737 266.089 35.6417 265.781C35.1097 265.473 34.5357 265.319 33.9197 265.319ZM53.944 263.24C54.854 263.24 55.652 263.45 56.338 263.87C57.038 264.276 57.577 264.815 57.955 265.487V259.46H60.37V275H57.955V272.837C57.563 273.551 57.024 274.125 56.338 274.559C55.652 274.979 54.854 275.189 53.944 275.189C52.936 275.189 52.012 274.937 51.172 274.433C50.346 273.915 49.688 273.201 49.198 272.291C48.722 271.367 48.484 270.324 48.484 269.162C48.484 268 48.722 266.971 49.198 266.075C49.688 265.179 50.346 264.486 51.172 263.996C52.012 263.492 52.936 263.24 53.944 263.24ZM54.448 265.319C53.832 265.319 53.258 265.473 52.726 265.781C52.194 266.075 51.76 266.516 51.424 267.104C51.102 267.678 50.941 268.364 50.941 269.162C50.941 269.96 51.102 270.66 51.424 271.262C51.76 271.864 52.194 272.326 52.726 272.648C53.272 272.956 53.846 273.11 54.448 273.11C55.064 273.11 55.638 272.956 56.17 272.648C56.702 272.34 57.129 271.892 57.451 271.304C57.787 270.702 57.955 270.002 57.955 269.204C57.955 268.406 57.787 267.713 57.451 267.125C57.129 266.537 56.702 266.089 56.17 265.781C55.638 265.473 55.064 265.319 54.448 265.319ZM68.6385 263.24C69.7445 263.24 70.7455 263.485 71.6415 263.975C72.5375 264.465 73.2445 265.165 73.7625 266.075C74.2805 266.985 74.5395 268.028 74.5395 269.204C74.5395 270.38 74.2735 271.423 73.7415 272.333C73.2095 273.243 72.4815 273.95 71.5575 274.454C70.6475 274.944 69.6395 275.189 68.5335 275.189C67.4415 275.189 66.4545 274.944 65.5725 274.454C64.6905 273.95 63.9975 273.25 63.4935 272.354C62.9895 271.444 62.7375 270.394 62.7375 269.204C62.7375 268.028 62.9965 266.985 63.5145 266.075C64.0325 265.165 64.7395 264.465 65.6355 263.975C66.5315 263.485 67.5325 263.24 68.6385 263.24ZM68.5965 265.256C67.9805 265.256 67.4135 265.41 66.8955 265.718C66.3775 266.012 65.9575 266.46 65.6355 267.062C65.3275 267.65 65.1735 268.364 65.1735 269.204C65.1735 270.044 65.3205 270.765 65.6145 271.367C65.9225 271.969 66.3285 272.424 66.8325 272.732C67.3505 273.026 67.9175 273.173 68.5335 273.173C69.1495 273.173 69.7235 273.019 70.2555 272.711C70.8015 272.403 71.2425 271.955 71.5785 271.367C71.9145 270.765 72.0825 270.044 72.0825 269.204C72.0825 268.364 71.9215 267.65 71.5995 267.062C71.2775 266.46 70.8505 266.012 70.3185 265.718C69.7865 265.41 69.2125 265.256 68.5965 265.256ZM93.807 268.889C93.807 269.295 93.779 269.673 93.723 270.023H84.861C84.917 270.989 85.239 271.759 85.827 272.333C86.429 272.893 87.178 273.173 88.074 273.173C89.376 273.173 90.293 272.634 90.825 271.556H93.408C93.058 272.62 92.421 273.495 91.497 274.181C90.573 274.853 89.432 275.189 88.074 275.189C86.968 275.189 85.988 274.944 85.134 274.454C84.28 273.95 83.608 273.25 83.118 272.354C82.642 271.444 82.404 270.394 82.404 269.204C82.404 268.014 82.642 266.971 83.118 266.075C83.608 265.165 84.287 264.465 85.155 263.975C86.037 263.485 87.045 263.24 88.179 263.24C89.271 263.24 90.244 263.478 91.098 263.954C91.952 264.43 92.617 265.095 93.093 265.949C93.569 266.803 93.807 267.783 93.807 268.889ZM91.308 268.385C91.294 267.433 90.979 266.677 90.363 266.117C89.747 265.543 88.984 265.256 88.074 265.256C87.22 265.256 86.492 265.543 85.89 266.117C85.302 266.677 84.966 267.433 84.882 268.385H91.308ZM95.8479 260.363C95.8479 259.929 95.9949 259.565 96.2889 259.271C96.5829 258.977 96.9469 258.83 97.3809 258.83C97.8009 258.83 98.1579 258.977 98.4519 259.271C98.7459 259.565 98.8929 259.929 98.8929 260.363C98.8929 260.797 98.7459 261.161 98.4519 261.455C98.1579 261.749 97.8009 261.896 97.3809 261.896C96.9469 261.896 96.5829 261.749 96.2889 261.455C95.9949 261.161 95.8479 260.797 95.8479 260.363ZM98.5569 263.429V275H96.1629V263.429H98.5569ZM112.179 263.429V275H109.785V273.173C109.407 273.831 108.896 274.328 108.252 274.664C107.622 275 106.901 275.168 106.089 275.168C105.249 275.168 104.486 274.979 103.8 274.601C103.128 274.223 102.589 273.67 102.183 272.942C101.791 272.2 101.595 271.304 101.595 270.254V263.429H103.968V269.897C103.968 270.933 104.227 271.731 104.745 272.291C105.263 272.837 105.97 273.11 106.866 273.11C107.762 273.11 108.469 272.837 108.987 272.291C109.519 271.731 109.785 270.933 109.785 269.897V263.429H112.179ZM119.391 263.24C120.679 263.24 121.715 263.576 122.499 264.248C123.297 264.906 123.724 265.809 123.78 266.957H121.323C121.281 266.383 121.078 265.935 120.714 265.613C120.364 265.291 119.867 265.13 119.223 265.13C118.579 265.13 118.075 265.277 117.711 265.571C117.347 265.851 117.165 266.215 117.165 266.663C117.165 267.027 117.284 267.321 117.522 267.545C117.76 267.769 118.061 267.944 118.425 268.07C118.803 268.182 119.307 268.308 119.937 268.448C120.791 268.644 121.477 268.84 121.995 269.036C122.527 269.232 122.982 269.554 123.36 270.002C123.738 270.436 123.927 271.031 123.927 271.787C123.927 272.445 123.731 273.033 123.339 273.551C122.961 274.069 122.429 274.475 121.743 274.769C121.057 275.049 120.28 275.189 119.412 275.189C118.068 275.189 116.983 274.867 116.157 274.223C115.331 273.579 114.876 272.662 114.792 271.472H117.27C117.312 272.046 117.522 272.494 117.9 272.816C118.278 273.138 118.782 273.299 119.412 273.299C120.084 273.299 120.609 273.159 120.987 272.879C121.379 272.585 121.575 272.207 121.575 271.745C121.575 271.367 121.449 271.066 121.197 270.842C120.959 270.618 120.651 270.45 120.273 270.338C119.895 270.212 119.384 270.079 118.74 269.939C117.9 269.743 117.221 269.554 116.703 269.372C116.185 269.176 115.737 268.868 115.359 268.448C114.995 268.028 114.813 267.461 114.813 266.747C114.813 266.103 114.995 265.515 115.359 264.983C115.723 264.451 116.248 264.031 116.934 263.723C117.634 263.401 118.453 263.24 119.391 263.24ZM140.772 263.24C141.64 263.24 142.417 263.429 143.103 263.807C143.789 264.185 144.328 264.745 144.72 265.487C145.126 266.229 145.329 267.125 145.329 268.175V275H142.935V268.532C142.935 267.496 142.676 266.705 142.158 266.159C141.64 265.599 140.933 265.319 140.037 265.319C139.141 265.319 138.434 265.599 137.916 266.159C137.398 266.705 137.139 267.496 137.139 268.532V275H134.766V268.532C134.766 267.496 134.507 266.705 133.989 266.159C133.471 265.599 132.764 265.319 131.868 265.319C130.972 265.319 130.258 265.599 129.726 266.159C129.208 266.705 128.949 267.496 128.949 268.532V275H126.555V263.429H128.949V265.256C129.327 264.598 129.831 264.101 130.461 263.765C131.105 263.415 131.833 263.24 132.645 263.24C133.541 263.24 134.339 263.45 135.039 263.87C135.739 264.29 136.271 264.899 136.635 265.697C137.041 264.927 137.601 264.325 138.315 263.891C139.043 263.457 139.862 263.24 140.772 263.24ZM153.5 263.24C154.606 263.24 155.607 263.485 156.503 263.975C157.399 264.465 158.106 265.165 158.624 266.075C159.142 266.985 159.401 268.028 159.401 269.204C159.401 270.38 159.135 271.423 158.603 272.333C158.071 273.243 157.343 273.95 156.419 274.454C155.509 274.944 154.501 275.189 153.395 275.189C152.303 275.189 151.316 274.944 150.434 274.454C149.552 273.95 148.859 273.25 148.355 272.354C147.851 271.444 147.599 270.394 147.599 269.204C147.599 268.028 147.858 266.985 148.376 266.075C148.894 265.165 149.601 264.465 150.497 263.975C151.393 263.485 152.394 263.24 153.5 263.24ZM153.458 265.256C152.842 265.256 152.275 265.41 151.757 265.718C151.239 266.012 150.819 266.46 150.497 267.062C150.189 267.65 150.035 268.364 150.035 269.204C150.035 270.044 150.182 270.765 150.476 271.367C150.784 271.969 151.19 272.424 151.694 272.732C152.212 273.026 152.779 273.173 153.395 273.173C154.011 273.173 154.585 273.019 155.117 272.711C155.663 272.403 156.104 271.955 156.44 271.367C156.776 270.765 156.944 270.044 156.944 269.204C156.944 268.364 156.783 267.65 156.461 267.062C156.139 266.46 155.712 266.012 155.18 265.718C154.648 265.41 154.074 265.256 153.458 265.256ZM166.429 263.24C167.339 263.24 168.137 263.45 168.823 263.87C169.523 264.276 170.062 264.815 170.44 265.487V259.46H172.855V275H170.44V272.837C170.048 273.551 169.509 274.125 168.823 274.559C168.137 274.979 167.339 275.189 166.429 275.189C165.421 275.189 164.497 274.937 163.657 274.433C162.831 273.915 162.173 273.201 161.683 272.291C161.207 271.367 160.969 270.324 160.969 269.162C160.969 268 161.207 266.971 161.683 266.075C162.173 265.179 162.831 264.486 163.657 263.996C164.497 263.492 165.421 263.24 166.429 263.24ZM166.933 265.319C166.317 265.319 165.743 265.473 165.211 265.781C164.679 266.075 164.245 266.516 163.909 267.104C163.587 267.678 163.426 268.364 163.426 269.162C163.426 269.96 163.587 270.66 163.909 271.262C164.245 271.864 164.679 272.326 165.211 272.648C165.757 272.956 166.331 273.11 166.933 273.11C167.549 273.11 168.123 272.956 168.655 272.648C169.187 272.34 169.614 271.892 169.936 271.304C170.272 270.702 170.44 270.002 170.44 269.204C170.44 268.406 170.272 267.713 169.936 267.125C169.614 266.537 169.187 266.089 168.655 265.781C168.123 265.473 167.549 265.319 166.933 265.319ZM185.089 265.382V271.787C185.089 272.221 185.187 272.536 185.383 272.732C185.593 272.914 185.943 273.005 186.433 273.005H187.903V275H186.013C184.935 275 184.109 274.748 183.535 274.244C182.961 273.74 182.674 272.921 182.674 271.787V265.382H181.309V263.429H182.674V260.552H185.089V263.429H187.903V265.382H185.089ZM200.714 268.889C200.714 269.295 200.686 269.673 200.63 270.023H191.768C191.824 270.989 192.146 271.759 192.734 272.333C193.336 272.893 194.085 273.173 194.981 273.173C196.283 273.173 197.2 272.634 197.732 271.556H200.315C199.965 272.62 199.328 273.495 198.404 274.181C197.48 274.853 196.339 275.189 194.981 275.189C193.875 275.189 192.895 274.944 192.041 274.454C191.187 273.95 190.515 273.25 190.025 272.354C189.549 271.444 189.311 270.394 189.311 269.204C189.311 268.014 189.549 266.971 190.025 266.075C190.515 265.165 191.194 264.465 192.062 263.975C192.944 263.485 193.952 263.24 195.086 263.24C196.178 263.24 197.151 263.478 198.005 263.954C198.859 264.43 199.524 265.095 200 265.949C200.476 266.803 200.714 267.783 200.714 268.889ZM198.215 268.385C198.201 267.433 197.886 266.677 197.27 266.117C196.654 265.543 195.891 265.256 194.981 265.256C194.127 265.256 193.399 265.543 192.797 266.117C192.209 266.677 191.873 267.433 191.789 268.385H198.215ZM217.287 263.24C218.155 263.24 218.932 263.429 219.618 263.807C220.304 264.185 220.843 264.745 221.235 265.487C221.641 266.229 221.844 267.125 221.844 268.175V275H219.45V268.532C219.45 267.496 219.191 266.705 218.673 266.159C218.155 265.599 217.448 265.319 216.552 265.319C215.656 265.319 214.949 265.599 214.431 266.159C213.913 266.705 213.654 267.496 213.654 268.532V275H211.281V268.532C211.281 267.496 211.022 266.705 210.504 266.159C209.986 265.599 209.279 265.319 208.383 265.319C207.487 265.319 206.773 265.599 206.241 266.159C205.723 266.705 205.464 267.496 205.464 268.532V275H203.07V263.429H205.464V265.256C205.842 264.598 206.346 264.101 206.976 263.765C207.62 263.415 208.348 263.24 209.16 263.24C210.056 263.24 210.854 263.45 211.554 263.87C212.254 264.29 212.786 264.899 213.15 265.697C213.556 264.927 214.116 264.325 214.83 263.891C215.558 263.457 216.377 263.24 217.287 263.24ZM231.316 263.24C232.324 263.24 233.241 263.492 234.067 263.996C234.907 264.486 235.565 265.179 236.041 266.075C236.517 266.971 236.755 268 236.755 269.162C236.755 270.324 236.517 271.367 236.041 272.291C235.565 273.201 234.907 273.915 234.067 274.433C233.241 274.937 232.324 275.189 231.316 275.189C230.406 275.189 229.608 274.979 228.922 274.559C228.236 274.125 227.69 273.551 227.284 272.837V280.502H224.89V263.429H227.284V265.487C227.676 264.815 228.215 264.276 228.901 263.87C229.601 263.45 230.406 263.24 231.316 263.24ZM230.791 265.319C230.189 265.319 229.615 265.473 229.069 265.781C228.537 266.089 228.103 266.537 227.767 267.125C227.445 267.713 227.284 268.406 227.284 269.204C227.284 270.002 227.445 270.702 227.767 271.304C228.103 271.892 228.537 272.34 229.069 272.648C229.615 272.956 230.189 273.11 230.791 273.11C231.407 273.11 231.981 272.956 232.513 272.648C233.059 272.326 233.493 271.864 233.815 271.262C234.151 270.66 234.319 269.96 234.319 269.162C234.319 268.364 234.151 267.678 233.815 267.104C233.493 266.516 233.059 266.075 232.513 265.781C231.981 265.473 231.407 265.319 230.791 265.319ZM244.247 263.24C245.353 263.24 246.354 263.485 247.25 263.975C248.146 264.465 248.853 265.165 249.371 266.075C249.889 266.985 250.148 268.028 250.148 269.204C250.148 270.38 249.882 271.423 249.35 272.333C248.818 273.243 248.09 273.95 247.166 274.454C246.256 274.944 245.248 275.189 244.142 275.189C243.05 275.189 242.063 274.944 241.181 274.454C240.299 273.95 239.606 273.25 239.102 272.354C238.598 271.444 238.346 270.394 238.346 269.204C238.346 268.028 238.605 266.985 239.123 266.075C239.641 265.165 240.348 264.465 241.244 263.975C242.14 263.485 243.141 263.24 244.247 263.24ZM244.205 265.256C243.589 265.256 243.022 265.41 242.504 265.718C241.986 266.012 241.566 266.46 241.244 267.062C240.936 267.65 240.782 268.364 240.782 269.204C240.782 270.044 240.929 270.765 241.223 271.367C241.531 271.969 241.937 272.424 242.441 272.732C242.959 273.026 243.526 273.173 244.142 273.173C244.758 273.173 245.332 273.019 245.864 272.711C246.41 272.403 246.851 271.955 247.187 271.367C247.523 270.765 247.691 270.044 247.691 269.204C247.691 268.364 247.53 267.65 247.208 267.062C246.886 266.46 246.459 266.012 245.927 265.718C245.395 265.41 244.821 265.256 244.205 265.256ZM254.908 265.445C255.258 264.745 255.72 264.206 256.294 263.828C256.882 263.436 257.575 263.24 258.373 263.24V265.718H257.764C256.826 265.718 256.112 265.956 255.622 266.432C255.146 266.908 254.908 267.734 254.908 268.91V275H252.514V263.429H254.908V265.445Z" fill="#8F8F8F"/>
</svg>
