<svg width="1392" height="525" viewBox="0 0 1392 525" fill="none" xmlns="http://www.w3.org/2000/svg">
<path d="M6.80664 11.6621H3.17383L3.1543 9.76758H6.26953C6.80339 9.76758 7.24935 9.69271 7.60742 9.54297C7.96549 9.39323 8.23568 9.17513 8.41797 8.88867C8.60677 8.60221 8.70117 8.25391 8.70117 7.84375C8.70117 7.38802 8.61328 7.01693 8.4375 6.73047C8.26823 6.44401 8.0013 6.23568 7.63672 6.10547C7.27214 5.96875 6.8099 5.90039 6.25 5.90039H4.04297V18H1.35742V3.78125H6.25C7.05729 3.78125 7.77669 3.85938 8.4082 4.01562C9.04622 4.16536 9.58659 4.39974 10.0293 4.71875C10.472 5.03776 10.8073 5.43815 11.0352 5.91992C11.2695 6.40169 11.3867 6.97461 11.3867 7.63867C11.3867 8.22461 11.25 8.76497 10.9766 9.25977C10.7096 9.74805 10.2962 10.1452 9.73633 10.4512C9.18294 10.7572 8.47982 10.9329 7.62695 10.9785L6.80664 11.6621ZM6.68945 18H2.38281L3.50586 15.8906H6.68945C7.22331 15.8906 7.66276 15.8027 8.00781 15.627C8.35938 15.4512 8.61979 15.2103 8.78906 14.9043C8.96484 14.5918 9.05273 14.2337 9.05273 13.8301C9.05273 13.3874 8.97461 13.0033 8.81836 12.6777C8.66862 12.3522 8.42773 12.1016 8.0957 11.9258C7.77018 11.75 7.34049 11.6621 6.80664 11.6621H4.01367L4.0332 9.76758H7.58789L8.20312 10.5C9.02344 10.5065 9.69076 10.6693 10.2051 10.9883C10.7259 11.3073 11.11 11.7174 11.3574 12.2188C11.6048 12.7201 11.7285 13.2604 11.7285 13.8398C11.7285 14.7513 11.5299 15.5163 11.1328 16.1348C10.7422 16.7533 10.1693 17.2188 9.41406 17.5312C8.66536 17.8438 7.75716 18 6.68945 18ZM32.8766 15.8906V18H25.318V15.8906H32.8766ZM26.1383 3.78125V18H23.4527V3.78125H26.1383ZM31.8902 9.65039V11.7109H25.318V9.65039H31.8902ZM32.8473 3.78125V5.90039H25.318V3.78125H32.8473ZM52.4621 13.3223H55.1477C55.076 14.2728 54.8124 15.1159 54.3566 15.8516C53.9009 16.5807 53.2661 17.1536 52.4523 17.5703C51.6385 17.987 50.6522 18.1953 49.4934 18.1953C48.6014 18.1953 47.7974 18.0391 47.0812 17.7266C46.3716 17.4076 45.7629 16.9551 45.2551 16.3691C44.7538 15.7767 44.3697 15.0671 44.1027 14.2402C43.8358 13.4069 43.7023 12.4727 43.7023 11.4375V10.3535C43.7023 9.31836 43.8391 8.38411 44.1125 7.55078C44.3859 6.71745 44.7766 6.00781 45.2844 5.42188C45.7987 4.82943 46.4139 4.3737 47.1301 4.05469C47.8527 3.73568 48.66 3.57617 49.552 3.57617C50.7108 3.57617 51.6906 3.79102 52.4914 4.2207C53.2922 4.64388 53.9139 5.22656 54.3566 5.96875C54.7993 6.71094 55.0663 7.5638 55.1574 8.52734H52.4719C52.4198 7.92839 52.2896 7.42057 52.0812 7.00391C51.8794 6.58724 51.5734 6.27148 51.1633 6.05664C50.7596 5.83529 50.2225 5.72461 49.552 5.72461C49.0311 5.72461 48.5721 5.82227 48.175 6.01758C47.7844 6.21289 47.4589 6.50586 47.1984 6.89648C46.938 7.2806 46.7427 7.76237 46.6125 8.3418C46.4823 8.91471 46.4172 9.57878 46.4172 10.334V11.4375C46.4172 12.1602 46.4758 12.8079 46.593 13.3809C46.7102 13.9538 46.8924 14.4388 47.1398 14.8359C47.3872 15.2331 47.7062 15.5358 48.0969 15.7441C48.4875 15.9525 48.953 16.0566 49.4934 16.0566C50.1509 16.0566 50.6848 15.9525 51.0949 15.7441C51.5116 15.5358 51.8273 15.2298 52.0422 14.8262C52.2635 14.4225 52.4035 13.9212 52.4621 13.3223ZM78.1414 10.5293V11.2617C78.1414 12.3359 77.9982 13.3027 77.7117 14.1621C77.4253 15.015 77.0184 15.7409 76.491 16.3398C75.9637 16.9388 75.3354 17.3978 74.6062 17.7168C73.8771 18.0358 73.0665 18.1953 72.1746 18.1953C71.2957 18.1953 70.4884 18.0358 69.7527 17.7168C69.0236 17.3978 68.3921 16.9388 67.8582 16.3398C67.3243 15.7409 66.9109 15.015 66.618 14.1621C66.325 13.3027 66.1785 12.3359 66.1785 11.2617V10.5293C66.1785 9.44857 66.325 8.48177 66.618 7.62891C66.9109 6.77604 67.3211 6.05013 67.8484 5.45117C68.3758 4.8457 69.004 4.38346 69.7332 4.06445C70.4689 3.74544 71.2762 3.58594 72.1551 3.58594C73.047 3.58594 73.8575 3.74544 74.5867 4.06445C75.3159 4.38346 75.9441 4.8457 76.4715 5.45117C77.0053 6.05013 77.4155 6.77604 77.702 7.62891C77.9949 8.48177 78.1414 9.44857 78.1414 10.5293ZM75.4266 11.2617V10.5098C75.4266 9.73503 75.3549 9.05469 75.2117 8.46875C75.0685 7.8763 74.8569 7.37826 74.577 6.97461C74.297 6.57096 73.952 6.26823 73.5418 6.06641C73.1316 5.85807 72.6694 5.75391 72.1551 5.75391C71.6342 5.75391 71.172 5.85807 70.7684 6.06641C70.3712 6.26823 70.0327 6.57096 69.7527 6.97461C69.4728 7.37826 69.2579 7.8763 69.1082 8.46875C68.965 9.05469 68.8934 9.73503 68.8934 10.5098V11.2617C68.8934 12.0299 68.965 12.7103 69.1082 13.3027C69.2579 13.8952 69.4728 14.3965 69.7527 14.8066C70.0392 15.2103 70.3842 15.5163 70.7879 15.7246C71.1915 15.9329 71.6538 16.0371 72.1746 16.0371C72.6954 16.0371 73.1577 15.9329 73.5613 15.7246C73.965 15.5163 74.3035 15.2103 74.577 14.8066C74.8569 14.3965 75.0685 13.8952 75.2117 13.3027C75.3549 12.7103 75.4266 12.0299 75.4266 11.2617ZM90.9887 3.78125H93.3129L97.1996 14.4844L101.077 3.78125H103.411L98.1273 18H96.2621L90.9887 3.78125ZM89.8168 3.78125H92.0922L92.5023 13.6152V18H89.8168V3.78125ZM102.297 3.78125H104.582V18H101.897V13.6152L102.297 3.78125ZM119.578 3.78125V18H116.893V3.78125H119.578ZM143.304 3.78125V18H140.609L134.564 8.13672V18H131.879V3.78125H134.564L140.629 13.6543V3.78125H143.304ZM166.532 10.6465V16.1836C166.324 16.4505 165.995 16.7402 165.546 17.0527C165.103 17.3652 164.524 17.6354 163.808 17.8633C163.092 18.0846 162.213 18.1953 161.171 18.1953C160.266 18.1953 159.439 18.0456 158.691 17.7461C157.942 17.4401 157.297 16.9941 156.757 16.4082C156.217 15.8223 155.8 15.1061 155.507 14.2598C155.214 13.4134 155.068 12.4466 155.068 11.3594V10.4219C155.068 9.33464 155.204 8.36784 155.478 7.52148C155.758 6.67513 156.155 5.95898 156.669 5.37305C157.19 4.78711 157.812 4.34115 158.534 4.03516C159.264 3.72917 160.077 3.57617 160.976 3.57617C162.18 3.57617 163.17 3.77474 163.945 4.17188C164.726 4.56901 165.325 5.11589 165.741 5.8125C166.158 6.5026 166.418 7.29688 166.523 8.19531H163.905C163.834 7.70052 163.691 7.26758 163.476 6.89648C163.261 6.51888 162.955 6.22591 162.558 6.01758C162.167 5.80273 161.659 5.69531 161.034 5.69531C160.507 5.69531 160.042 5.79948 159.638 6.00781C159.234 6.21615 158.896 6.51888 158.622 6.91602C158.349 7.31315 158.14 7.80469 157.997 8.39062C157.861 8.97656 157.792 9.64714 157.792 10.4023V11.3594C157.792 12.1211 157.87 12.7982 158.027 13.3906C158.183 13.9766 158.407 14.4714 158.7 14.875C159 15.2721 159.368 15.5749 159.804 15.7832C160.247 15.985 160.748 16.0859 161.308 16.0859C161.816 16.0859 162.236 16.0436 162.568 15.959C162.906 15.8678 163.176 15.7604 163.378 15.6367C163.58 15.513 163.736 15.3926 163.847 15.2754V12.6094H161.025V10.6465H166.532ZM198.506 5.93945L194.454 18H191.612L196.924 3.78125H198.741L198.506 5.93945ZM201.895 18L197.823 5.93945L197.579 3.78125H199.405L204.746 18H201.895ZM201.709 12.7168V14.8359H194.082V12.7168H201.709ZM229.992 3.78125H235.158C236.239 3.78125 237.166 3.94401 237.941 4.26953C238.716 4.59505 239.311 5.07682 239.728 5.71484C240.145 6.35286 240.353 7.13737 240.353 8.06836C240.353 8.80404 240.223 9.44206 239.962 9.98242C239.702 10.5228 239.334 10.9753 238.859 11.3398C238.39 11.7044 237.837 11.9909 237.199 12.1992L236.359 12.6289H231.798L231.779 10.5098H235.187C235.74 10.5098 236.199 10.4121 236.564 10.2168C236.929 10.0215 237.202 9.7513 237.384 9.40625C237.573 9.0612 237.668 8.66732 237.668 8.22461C237.668 7.74935 237.576 7.33919 237.394 6.99414C237.212 6.64258 236.935 6.3724 236.564 6.18359C236.193 5.99479 235.724 5.90039 235.158 5.90039H232.677V18H229.992V3.78125ZM238.019 18L234.728 11.6328L237.57 11.623L240.9 17.8633V18H238.019ZM261.53 15.8906V18H253.972V15.8906H261.53ZM254.792 3.78125V18H252.107V3.78125H254.792ZM260.544 9.65039V11.7109H253.972V9.65039H260.544ZM261.501 3.78125V5.90039H253.972V3.78125H261.501ZM279.095 3.78125V18H276.419V3.78125H279.095ZM283.509 3.78125V5.90039H272.053V3.78125H283.509ZM299.354 5.93945L295.301 18H292.459L297.772 3.78125H299.588L299.354 5.93945ZM302.743 18L298.67 5.93945L298.426 3.78125H300.252L305.594 18H302.743ZM302.557 12.7168V14.8359H294.93V12.7168H302.557ZM319.32 3.78125V18H316.635V3.78125H319.32ZM343.046 3.78125V18H340.351L334.306 8.13672V18H331.621V3.78125H334.306L340.371 13.6543V3.78125H343.046ZM364.605 15.8906V18H357.046V15.8906H364.605ZM357.866 3.78125V18H355.181V3.78125H357.866ZM363.618 9.65039V11.7109H357.046V9.65039H363.618ZM364.575 3.78125V5.90039H357.046V3.78125H364.575ZM375.87 3.78125H381.036C382.117 3.78125 383.044 3.94401 383.819 4.26953C384.594 4.59505 385.19 5.07682 385.606 5.71484C386.023 6.35286 386.231 7.13737 386.231 8.06836C386.231 8.80404 386.101 9.44206 385.841 9.98242C385.58 10.5228 385.212 10.9753 384.737 11.3398C384.268 11.7044 383.715 11.9909 383.077 12.1992L382.237 12.6289H377.677L377.657 10.5098H381.065C381.619 10.5098 382.078 10.4121 382.442 10.2168C382.807 10.0215 383.08 9.7513 383.262 9.40625C383.451 9.0612 383.546 8.66732 383.546 8.22461C383.546 7.74935 383.455 7.33919 383.272 6.99414C383.09 6.64258 382.813 6.3724 382.442 6.18359C382.071 5.99479 381.602 5.90039 381.036 5.90039H378.555V18H375.87V3.78125ZM383.897 18L380.606 11.6328L383.448 11.623L386.778 17.8633V18H383.897ZM420.686 13.3223H423.371C423.299 14.2728 423.036 15.1159 422.58 15.8516C422.124 16.5807 421.49 17.1536 420.676 17.5703C419.862 17.987 418.876 18.1953 417.717 18.1953C416.825 18.1953 416.021 18.0391 415.305 17.7266C414.595 17.4076 413.986 16.9551 413.479 16.3691C412.977 15.7767 412.593 15.0671 412.326 14.2402C412.059 13.4069 411.926 12.4727 411.926 11.4375V10.3535C411.926 9.31836 412.062 8.38411 412.336 7.55078C412.609 6.71745 413 6.00781 413.508 5.42188C414.022 4.82943 414.637 4.3737 415.354 4.05469C416.076 3.73568 416.883 3.57617 417.775 3.57617C418.934 3.57617 419.914 3.79102 420.715 4.2207C421.516 4.64388 422.137 5.22656 422.58 5.96875C423.023 6.71094 423.29 7.5638 423.381 8.52734H420.695C420.643 7.92839 420.513 7.42057 420.305 7.00391C420.103 6.58724 419.797 6.27148 419.387 6.05664C418.983 5.83529 418.446 5.72461 417.775 5.72461C417.255 5.72461 416.796 5.82227 416.398 6.01758C416.008 6.21289 415.682 6.50586 415.422 6.89648C415.161 7.2806 414.966 7.76237 414.836 8.3418C414.706 8.91471 414.641 9.57878 414.641 10.334V11.4375C414.641 12.1602 414.699 12.8079 414.816 13.3809C414.934 13.9538 415.116 14.4388 415.363 14.8359C415.611 15.2331 415.93 15.5358 416.32 15.7441C416.711 15.9525 417.176 16.0566 417.717 16.0566C418.374 16.0566 418.908 15.9525 419.318 15.7441C419.735 15.5358 420.051 15.2298 420.266 14.8262C420.487 14.4225 420.627 13.9212 420.686 13.3223ZM443.875 15.8906V18H436.726V15.8906H443.875ZM437.537 3.78125V18H434.851V3.78125H437.537ZM457.933 3.78125V18H455.247V3.78125H457.933ZM479.657 15.8906V18H472.098V15.8906H479.657ZM472.919 3.78125V18H470.233V3.78125H472.919ZM478.671 9.65039V11.7109H472.098V9.65039H478.671ZM479.628 3.78125V5.90039H472.098V3.78125H479.628ZM502.348 3.78125V18H499.653L493.608 8.13672V18H490.922V3.78125H493.608L499.672 13.6543V3.78125H502.348ZM520.293 3.78125V18H517.617V3.78125H520.293ZM524.707 3.78125V5.90039H513.252V3.78125H524.707Z" fill="#102E4A"/>
<path d="M64.448 102.328L51.52 147H41.28L32.64 115.832L23.744 147H13.504L0.832 102.328H10.432L19.008 136.824L28.032 102.328H38.208L46.72 136.504L54.784 102.328H64.448ZM102.882 128.76C102.882 129.997 102.797 131.149 102.626 132.216H76.77C76.9833 134.52 77.8367 136.376 79.33 137.784C80.8233 139.192 82.722 139.896 85.026 139.896C86.818 139.896 88.2473 139.555 89.314 138.872C90.3807 138.189 91.2553 137.251 91.938 136.056H101.666C100.642 139.427 98.658 142.179 95.714 144.312C92.77 146.445 89.2073 147.512 85.026 147.512C81.6553 147.512 78.6473 146.765 76.002 145.272C73.3567 143.736 71.2873 141.603 69.794 138.872C68.3007 136.099 67.554 132.877 67.554 129.208C67.554 125.539 68.3007 122.339 69.794 119.608C71.2873 116.877 73.3567 114.765 76.002 113.272C78.69 111.779 81.7407 111.032 85.154 111.032C88.5673 111.032 91.5967 111.757 94.242 113.208C96.93 114.659 99.042 116.728 100.578 119.416C102.114 122.061 102.882 125.176 102.882 128.76ZM93.538 126.392C93.41 124.045 92.5353 122.168 90.914 120.76C89.3353 119.352 87.3727 118.648 85.026 118.648C82.85 118.648 80.994 119.352 79.458 120.76C77.9647 122.168 77.0687 124.045 76.77 126.392H93.538ZM173.655 111.032C177.879 111.032 181.271 112.355 183.831 115C186.434 117.645 187.735 121.357 187.735 126.136V147H178.775V127.416C178.775 124.643 178.071 122.531 176.663 121.08C175.255 119.587 173.335 118.84 170.903 118.84C168.471 118.84 166.53 119.587 165.079 121.08C163.671 122.531 162.967 124.643 162.967 127.416V147H154.007V127.416C154.007 124.643 153.303 122.531 151.895 121.08C150.487 119.587 148.567 118.84 146.135 118.84C143.703 118.84 141.762 119.587 140.311 121.08C138.903 122.531 138.199 124.643 138.199 127.416V147H129.175V111.544H138.199V116.856C139.308 114.979 140.802 113.549 142.679 112.568C144.599 111.544 146.775 111.032 149.207 111.032C151.895 111.032 154.284 111.651 156.375 112.888C158.508 114.125 160.151 115.896 161.303 118.2C162.54 115.981 164.226 114.232 166.359 112.952C168.535 111.672 170.967 111.032 173.655 111.032ZM210.94 111.032C213.457 111.032 215.697 111.565 217.66 112.632C219.622 113.699 221.201 115.171 222.396 117.048V111.544H231.356V147H222.396V141.048C221.158 143.053 219.558 144.632 217.596 145.784C215.676 146.936 213.457 147.512 210.94 147.512C207.91 147.512 205.137 146.744 202.62 145.208C200.145 143.629 198.161 141.453 196.668 138.68C195.217 135.907 194.492 132.749 194.492 129.208C194.492 125.667 195.217 122.531 196.668 119.8C198.161 117.027 200.145 114.872 202.62 113.336C205.137 111.8 207.91 111.032 210.94 111.032ZM212.988 118.84C211.409 118.84 209.894 119.245 208.444 120.056C207.036 120.867 205.884 122.061 204.988 123.64C204.092 125.176 203.644 127.032 203.644 129.208C203.644 131.384 204.092 133.283 204.988 134.904C205.884 136.483 207.036 137.677 208.444 138.488C209.894 139.299 211.409 139.704 212.988 139.704C214.609 139.704 216.124 139.299 217.532 138.488C218.982 137.677 220.156 136.483 221.052 134.904C221.948 133.325 222.396 131.448 222.396 129.272C222.396 127.096 221.948 125.219 221.052 123.64C220.156 122.061 218.982 120.867 217.532 120.056C216.124 119.245 214.609 118.84 212.988 118.84ZM249.949 117.816C251.058 115.683 252.488 114.019 254.237 112.824C256.029 111.629 258.056 111.032 260.317 111.032V120.248H258.077C255.389 120.248 253.362 120.931 251.997 122.296C250.632 123.619 249.949 125.923 249.949 129.208V147H240.925V111.544H249.949V117.816ZM284.21 129.464L299.954 147H287.922L275.762 132.216V147H266.738V99.64H275.762V126.712L287.73 111.544H299.954L284.21 129.464ZM337.944 128.76C337.944 129.997 337.859 131.149 337.689 132.216H311.833C312.046 134.52 312.899 136.376 314.393 137.784C315.886 139.192 317.785 139.896 320.089 139.896C321.881 139.896 323.31 139.555 324.377 138.872C325.443 138.189 326.318 137.251 327.001 136.056H336.729C335.705 139.427 333.721 142.179 330.777 144.312C327.833 146.445 324.27 147.512 320.089 147.512C316.718 147.512 313.71 146.765 311.065 145.272C308.419 143.736 306.35 141.603 304.857 138.872C303.363 136.099 302.617 132.877 302.617 129.208C302.617 125.539 303.363 122.339 304.857 119.608C306.35 116.877 308.419 114.765 311.065 113.272C313.753 111.779 316.803 111.032 320.217 111.032C323.63 111.032 326.659 111.757 329.305 113.208C331.993 114.659 334.105 116.728 335.641 119.416C337.177 122.061 337.944 125.176 337.944 128.76ZM328.601 126.392C328.473 124.045 327.598 122.168 325.977 120.76C324.398 119.352 322.435 118.648 320.089 118.648C317.913 118.648 316.057 119.352 314.521 120.76C313.027 122.168 312.131 124.045 311.833 126.392H328.601ZM363.098 139.448V147H357.402C353.775 147 350.981 146.168 349.018 144.504C347.055 142.84 346.074 140.088 346.074 136.248V118.904H342.298V111.544H346.074V102.776H355.098V111.544H363.034V118.904H355.098V136.248C355.098 137.4 355.375 138.232 355.93 138.744C356.485 139.213 357.445 139.448 358.81 139.448H363.098ZM403.252 111.032C405.769 111.032 408.009 111.565 409.972 112.632C411.935 113.699 413.513 115.171 414.708 117.048V99.64H423.668V147H414.708V141.048C413.471 143.053 411.871 144.632 409.908 145.784C407.988 146.936 405.769 147.512 403.252 147.512C400.223 147.512 397.449 146.744 394.932 145.208C392.457 143.629 390.473 141.453 388.98 138.68C387.529 135.907 386.804 132.749 386.804 129.208C386.804 125.667 387.529 122.531 388.98 119.8C390.473 117.027 392.457 114.872 394.932 113.336C397.449 111.8 400.223 111.032 403.252 111.032ZM405.3 118.84C403.721 118.84 402.207 119.245 400.756 120.056C399.348 120.867 398.196 122.061 397.3 123.64C396.404 125.176 395.956 127.032 395.956 129.208C395.956 131.384 396.404 133.283 397.3 134.904C398.196 136.483 399.348 137.677 400.756 138.488C402.207 139.299 403.721 139.704 405.3 139.704C406.921 139.704 408.436 139.299 409.844 138.488C411.295 137.677 412.468 136.483 413.364 134.904C414.26 133.325 414.708 131.448 414.708 129.272C414.708 127.096 414.26 125.219 413.364 123.64C412.468 122.061 411.295 120.867 409.844 120.056C408.436 119.245 406.921 118.84 405.3 118.84ZM432.278 102.52C432.278 100.984 432.811 99.6827 433.878 98.616C434.944 97.5493 436.224 97.016 437.718 97.016C439.254 97.016 440.555 97.5493 441.622 98.616C442.688 99.6827 443.222 100.984 443.222 102.52C443.222 104.056 442.688 105.357 441.622 106.424C440.555 107.491 439.254 108.024 437.718 108.024C436.224 108.024 434.944 107.491 433.878 106.424C432.811 105.357 432.278 104.056 432.278 102.52ZM442.262 111.544V147H433.238V111.544H442.262ZM467.031 118.904H461.399V147H452.439V118.904H448.599V111.544H452.439V109.56C452.439 105.293 453.569 102.179 455.831 100.216C458.092 98.2533 461.655 97.272 466.519 97.272V104.824C464.641 104.824 463.319 105.187 462.551 105.912C461.783 106.637 461.399 107.853 461.399 109.56V111.544H467.031V118.904ZM488.406 118.904H482.774V147H473.814V118.904H469.974V111.544H473.814V109.56C473.814 105.293 474.944 102.179 477.206 100.216C479.467 98.2533 483.03 97.272 487.894 97.272V104.824C486.016 104.824 484.694 105.187 483.926 105.912C483.158 106.637 482.774 107.853 482.774 109.56V111.544H488.406V118.904ZM527.444 128.76C527.444 129.997 527.359 131.149 527.189 132.216H501.333C501.546 134.52 502.399 136.376 503.893 137.784C505.386 139.192 507.285 139.896 509.589 139.896C511.381 139.896 512.81 139.555 513.877 138.872C514.943 138.189 515.818 137.251 516.501 136.056H526.229C525.205 139.427 523.221 142.179 520.277 144.312C517.333 146.445 513.77 147.512 509.589 147.512C506.218 147.512 503.21 146.765 500.565 145.272C497.919 143.736 495.85 141.603 494.357 138.872C492.863 136.099 492.117 132.877 492.117 129.208C492.117 125.539 492.863 122.339 494.357 119.608C495.85 116.877 497.919 114.765 500.565 113.272C503.253 111.779 506.303 111.032 509.717 111.032C513.13 111.032 516.159 111.757 518.805 113.208C521.493 114.659 523.605 116.728 525.141 119.416C526.677 122.061 527.444 125.176 527.444 128.76ZM518.101 126.392C517.973 124.045 517.098 122.168 515.477 120.76C513.898 119.352 511.935 118.648 509.589 118.648C507.413 118.648 505.557 119.352 504.021 120.76C502.527 122.168 501.631 124.045 501.333 126.392H518.101ZM543.574 117.816C544.683 115.683 546.113 114.019 547.862 112.824C549.654 111.629 551.681 111.032 553.942 111.032V120.248H551.702C549.014 120.248 546.987 120.931 545.622 122.296C544.257 123.619 543.574 125.923 543.574 129.208V147H534.55V111.544H543.574V117.816ZM593.194 128.76C593.194 129.997 593.109 131.149 592.939 132.216H567.083C567.296 134.52 568.149 136.376 569.643 137.784C571.136 139.192 573.035 139.896 575.339 139.896C577.131 139.896 578.56 139.555 579.627 138.872C580.693 138.189 581.568 137.251 582.251 136.056H591.979C590.955 139.427 588.971 142.179 586.027 144.312C583.083 146.445 579.52 147.512 575.339 147.512C571.968 147.512 568.96 146.765 566.315 145.272C563.669 143.736 561.6 141.603 560.107 138.872C558.613 136.099 557.867 132.877 557.867 129.208C557.867 125.539 558.613 122.339 560.107 119.608C561.6 116.877 563.669 114.765 566.315 113.272C569.003 111.779 572.053 111.032 575.467 111.032C578.88 111.032 581.909 111.757 584.555 113.208C587.243 114.659 589.355 116.728 590.891 119.416C592.427 122.061 593.194 125.176 593.194 128.76ZM583.851 126.392C583.723 124.045 582.848 122.168 581.227 120.76C579.648 119.352 577.685 118.648 575.339 118.648C573.163 118.648 571.307 119.352 569.771 120.76C568.277 122.168 567.381 124.045 567.083 126.392H583.851ZM620.332 111.032C622.977 111.032 625.324 111.629 627.372 112.824C629.463 113.976 631.105 115.704 632.3 118.008C633.495 120.269 634.092 122.979 634.092 126.136V147H625.132V127.416C625.132 124.643 624.428 122.531 623.02 121.08C621.612 119.587 619.692 118.84 617.26 118.84C614.828 118.84 612.887 119.587 611.436 121.08C610.028 122.531 609.324 124.643 609.324 127.416V147H600.3V111.544H609.324V116.856C610.433 114.979 611.927 113.549 613.804 112.568C615.724 111.544 617.9 111.032 620.332 111.032ZM661.411 139.448V147H655.715C652.088 147 649.293 146.168 647.331 144.504C645.368 142.84 644.387 140.088 644.387 136.248V118.904H640.611V111.544H644.387V102.776H653.411V111.544H661.347V118.904H653.411V136.248C653.411 137.4 653.688 138.232 654.243 138.744C654.797 139.213 655.757 139.448 657.123 139.448H661.411ZM677.449 99.64V147H668.425V99.64H677.449ZM692.81 111.544L701.834 136.76L711.37 111.544H720.778L698.634 163.768H689.226L696.586 146.36L682.698 111.544H692.81ZM724.002 141.88C724.002 140.429 724.493 139.213 725.474 138.232C726.455 137.251 727.65 136.76 729.058 136.76C730.509 136.76 731.725 137.251 732.706 138.232C733.73 139.213 734.242 140.429 734.242 141.88C734.242 143.331 733.73 144.547 732.706 145.528C731.725 146.509 730.509 147 729.058 147C727.65 147 726.455 146.509 725.474 145.528C724.493 144.547 724.002 143.331 724.002 141.88Z" fill="black"/>
<path d="M17.9443 237.285V239.297H11.2737V244.068H16.4745V246.058H11.2737V253H8.69591V237.285H17.9443ZM25.8506 240.337C27.0415 240.337 28.1194 240.601 29.0842 241.129C30.049 241.656 30.8102 242.41 31.368 243.39C31.9258 244.37 32.2047 245.493 32.2047 246.759C32.2047 248.025 31.9182 249.148 31.3454 250.128C30.7725 251.108 29.9887 251.869 28.9937 252.412C28.0139 252.94 26.9285 253.204 25.7376 253.204C24.5617 253.204 23.499 252.94 22.5492 252.412C21.5995 251.869 20.8533 251.116 20.3106 250.151C19.7679 249.171 19.4966 248.04 19.4966 246.759C19.4966 245.493 19.7755 244.37 20.3332 243.39C20.891 242.41 21.6523 241.656 22.6171 241.129C23.5819 240.601 24.6597 240.337 25.8506 240.337ZM25.8054 242.508C25.1421 242.508 24.5316 242.674 23.9738 243.005C23.416 243.322 22.9638 243.804 22.6171 244.453C22.2854 245.086 22.1196 245.855 22.1196 246.759C22.1196 247.664 22.2779 248.44 22.5945 249.088C22.9261 249.736 23.3633 250.226 23.906 250.558C24.4637 250.874 25.0743 251.033 25.7376 251.033C26.4009 251.033 27.0189 250.867 27.5918 250.535C28.1797 250.204 28.6545 249.721 29.0163 249.088C29.3781 248.44 29.559 247.664 29.559 246.759C29.559 245.855 29.3857 245.086 29.0389 244.453C28.6922 243.804 28.2324 243.322 27.6596 243.005C27.0868 242.674 26.4687 242.508 25.8054 242.508ZM37.3307 242.711C37.7076 241.958 38.2051 241.377 38.8231 240.97C39.4563 240.548 40.2025 240.337 41.0617 240.337V243.005H40.406C39.396 243.005 38.6272 243.262 38.0995 243.774C37.587 244.287 37.3307 245.176 37.3307 246.442V253H34.7529V240.541H37.3307V242.711ZM55.2304 240.337C56.2103 240.337 57.0695 240.563 57.8082 241.016C58.5619 241.453 59.1423 242.033 59.5493 242.757V240.541H62.1497V253H59.5493V250.671C59.1272 251.44 58.5469 252.058 57.8082 252.525C57.0695 252.977 56.2103 253.204 55.2304 253.204C54.145 253.204 53.1501 252.932 52.2456 252.389C51.3562 251.832 50.6477 251.063 50.12 250.083C49.6075 249.088 49.3512 247.965 49.3512 246.714C49.3512 245.463 49.6075 244.355 50.12 243.39C50.6477 242.425 51.3562 241.679 52.2456 241.151C53.1501 240.609 54.145 240.337 55.2304 240.337ZM55.7731 242.576C55.1098 242.576 54.4917 242.742 53.9189 243.073C53.3461 243.39 52.8787 243.865 52.5169 244.498C52.1702 245.116 51.9969 245.855 51.9969 246.714C51.9969 247.573 52.1702 248.327 52.5169 248.975C52.8787 249.623 53.3461 250.121 53.9189 250.467C54.5068 250.799 55.1249 250.965 55.7731 250.965C56.4364 250.965 57.0545 250.799 57.6273 250.467C58.2001 250.136 58.6599 249.653 59.0066 249.02C59.3684 248.372 59.5493 247.618 59.5493 246.759C59.5493 245.9 59.3684 245.154 59.0066 244.52C58.6599 243.887 58.2001 243.405 57.6273 243.073C57.0545 242.742 56.4364 242.576 55.7731 242.576ZM74.8926 242.711C75.2695 241.958 75.7669 241.377 76.385 240.97C77.0181 240.548 77.7643 240.337 78.6236 240.337V243.005H77.9679C76.9578 243.005 76.189 243.262 75.6614 243.774C75.1489 244.287 74.8926 245.176 74.8926 246.442V253H72.3148V240.541H74.8926V242.711ZM92.4123 246.42C92.4123 246.857 92.3821 247.264 92.3218 247.641H82.7795C82.8398 248.681 83.1865 249.51 83.8196 250.128C84.4679 250.731 85.2744 251.033 86.2391 251.033C87.6411 251.033 88.6285 250.452 89.2013 249.292H91.9826C91.6058 250.437 90.9199 251.379 89.9249 252.118C88.93 252.842 87.7014 253.204 86.2391 253.204C85.0482 253.204 83.993 252.94 83.0734 252.412C82.1539 251.869 81.4303 251.116 80.9027 250.151C80.3901 249.171 80.1339 248.04 80.1339 246.759C80.1339 245.478 80.3901 244.355 80.9027 243.39C81.4303 242.41 82.1614 241.656 83.0961 241.129C84.0458 240.601 85.1312 240.337 86.3522 240.337C87.528 240.337 88.5757 240.593 89.4953 241.106C90.4149 241.619 91.1309 242.335 91.6435 243.254C92.156 244.174 92.4123 245.229 92.4123 246.42ZM89.7214 245.877C89.7064 244.852 89.3672 244.038 88.7039 243.435C88.0406 242.817 87.219 242.508 86.2391 242.508C85.3196 242.508 84.5357 242.817 83.8875 243.435C83.2543 244.038 82.8925 244.852 82.8021 245.877H89.7214ZM97.9565 242.644V249.54C97.9565 250.008 98.062 250.347 98.2731 250.558C98.4992 250.754 98.8761 250.852 99.4037 250.852H100.987V253H98.9514C97.7907 253 96.9013 252.729 96.2832 252.186C95.6651 251.643 95.3561 250.761 95.3561 249.54V242.644H93.8863V240.541H95.3561V237.443H97.9565V240.541H100.987V242.644H97.9565ZM108.382 240.337C109.362 240.337 110.221 240.563 110.96 241.016C111.714 241.453 112.294 242.033 112.701 242.757V240.541H115.302V253H112.701V250.671C112.279 251.44 111.699 252.058 110.96 252.525C110.221 252.977 109.362 253.204 108.382 253.204C107.297 253.204 106.302 252.932 105.398 252.389C104.508 251.832 103.8 251.063 103.272 250.083C102.759 249.088 102.503 247.965 102.503 246.714C102.503 245.463 102.759 244.355 103.272 243.39C103.8 242.425 104.508 241.679 105.398 241.151C106.302 240.609 107.297 240.337 108.382 240.337ZM108.925 242.576C108.262 242.576 107.644 242.742 107.071 243.073C106.498 243.39 106.031 243.865 105.669 244.498C105.322 245.116 105.149 245.855 105.149 246.714C105.149 247.573 105.322 248.327 105.669 248.975C106.031 249.623 106.498 250.121 107.071 250.467C107.659 250.799 108.277 250.965 108.925 250.965C109.588 250.965 110.206 250.799 110.779 250.467C111.352 250.136 111.812 249.653 112.159 249.02C112.52 248.372 112.701 247.618 112.701 246.759C112.701 245.9 112.52 245.154 112.159 244.52C111.812 243.887 111.352 243.405 110.779 243.073C110.206 242.742 109.588 242.576 108.925 242.576ZM118.348 237.239C118.348 236.772 118.507 236.38 118.823 236.063C119.14 235.747 119.532 235.589 119.999 235.589C120.451 235.589 120.836 235.747 121.152 236.063C121.469 236.38 121.627 236.772 121.627 237.239C121.627 237.707 121.469 238.099 121.152 238.415C120.836 238.732 120.451 238.89 119.999 238.89C119.532 238.89 119.14 238.732 118.823 238.415C118.507 238.099 118.348 237.707 118.348 237.239ZM121.265 240.541V253H118.687V240.541H121.265ZM131.207 240.337C132.112 240.337 132.926 240.541 133.649 240.948C134.388 241.355 134.968 241.958 135.39 242.757C135.828 243.556 136.046 244.52 136.046 245.651V253H133.491V246.035C133.491 244.92 133.212 244.068 132.654 243.48C132.097 242.877 131.335 242.576 130.371 242.576C129.406 242.576 128.637 242.877 128.064 243.48C127.506 244.068 127.227 244.92 127.227 246.035V253H124.65V240.541H127.227V242.508C127.634 241.799 128.177 241.264 128.856 240.902C129.549 240.526 130.333 240.337 131.207 240.337ZM150.754 246.42C150.754 246.857 150.723 247.264 150.663 247.641H141.121C141.181 248.681 141.528 249.51 142.161 250.128C142.809 250.731 143.616 251.033 144.58 251.033C145.982 251.033 146.97 250.452 147.543 249.292H150.324C149.947 250.437 149.261 251.379 148.266 252.118C147.271 252.842 146.043 253.204 144.58 253.204C143.389 253.204 142.334 252.94 141.415 252.412C140.495 251.869 139.772 251.116 139.244 250.151C138.731 249.171 138.475 248.04 138.475 246.759C138.475 245.478 138.731 244.355 139.244 243.39C139.772 242.41 140.503 241.656 141.437 241.129C142.387 240.601 143.472 240.337 144.693 240.337C145.869 240.337 146.917 240.593 147.837 241.106C148.756 241.619 149.472 242.335 149.985 243.254C150.497 244.174 150.754 245.229 150.754 246.42ZM148.063 245.877C148.048 244.852 147.708 244.038 147.045 243.435C146.382 242.817 145.56 242.508 144.58 242.508C143.661 242.508 142.877 242.817 142.229 243.435C141.596 244.038 141.234 244.852 141.143 245.877H148.063ZM155.868 242.711C156.245 241.958 156.742 241.377 157.361 240.97C157.994 240.548 158.74 240.337 159.599 240.337V243.005H158.943C157.933 243.005 157.165 243.262 156.637 243.774C156.124 244.287 155.868 245.176 155.868 246.442V253H153.29V240.541H155.868V242.711ZM173.971 242.644H171.665V253H169.064V242.644H167.595V240.541H169.064V239.659C169.064 238.227 169.441 237.187 170.195 236.538C170.964 235.875 172.162 235.543 173.79 235.543V237.692C173.007 237.692 172.456 237.842 172.14 238.144C171.823 238.43 171.665 238.935 171.665 239.659V240.541H173.971V242.644ZM187.675 246.42C187.675 246.857 187.645 247.264 187.585 247.641H178.042C178.102 248.681 178.449 249.51 179.082 250.128C179.731 250.731 180.537 251.033 181.502 251.033C182.904 251.033 183.891 250.452 184.464 249.292H187.245C186.868 250.437 186.183 251.379 185.188 252.118C184.193 252.842 182.964 253.204 181.502 253.204C180.311 253.204 179.256 252.94 178.336 252.412C177.417 251.869 176.693 251.116 176.165 250.151C175.653 249.171 175.397 248.04 175.397 246.759C175.397 245.478 175.653 244.355 176.165 243.39C176.693 242.41 177.424 241.656 178.359 241.129C179.308 240.601 180.394 240.337 181.615 240.337C182.791 240.337 183.838 240.593 184.758 241.106C185.678 241.619 186.394 242.335 186.906 243.254C187.419 244.174 187.675 245.229 187.675 246.42ZM184.984 245.877C184.969 244.852 184.63 244.038 183.967 243.435C183.303 242.817 182.482 242.508 181.502 242.508C180.582 242.508 179.798 242.817 179.15 243.435C178.517 244.038 178.155 244.852 178.065 245.877H184.984ZM201.631 246.42C201.631 246.857 201.601 247.264 201.541 247.641H191.998C192.058 248.681 192.405 249.51 193.038 250.128C193.687 250.731 194.493 251.033 195.458 251.033C196.86 251.033 197.847 250.452 198.42 249.292H201.201C200.824 250.437 200.139 251.379 199.144 252.118C198.149 252.842 196.92 253.204 195.458 253.204C194.267 253.204 193.212 252.94 192.292 252.412C191.373 251.869 190.649 251.116 190.121 250.151C189.609 249.171 189.353 248.04 189.353 246.759C189.353 245.478 189.609 244.355 190.121 243.39C190.649 242.41 191.38 241.656 192.315 241.129C193.264 240.601 194.35 240.337 195.571 240.337C196.747 240.337 197.794 240.593 198.714 241.106C199.634 241.619 200.35 242.335 200.862 243.254C201.375 244.174 201.631 245.229 201.631 246.42ZM198.94 245.877C198.925 244.852 198.586 244.038 197.923 243.435C197.259 242.817 196.438 242.508 195.458 242.508C194.538 242.508 193.754 242.817 193.106 243.435C192.473 244.038 192.111 244.852 192.021 245.877H198.94ZM205.728 251.236C205.999 252.201 206.135 253.008 206.135 253.656C206.135 254.56 205.916 255.261 205.479 255.759C205.042 256.256 204.379 256.505 203.489 256.505V255.374C203.866 255.374 204.138 255.284 204.303 255.103C204.484 254.922 204.575 254.621 204.575 254.198V253.724H203.286V251.236H205.728ZM232.251 240.541L228.384 253H225.671L223.161 243.797L220.651 253H217.938L214.048 240.541H216.671L219.272 250.558L221.917 240.541H224.608L227.141 250.513L229.718 240.541H232.251ZM245.597 246.42C245.597 246.857 245.567 247.264 245.506 247.641H235.964C236.024 248.681 236.371 249.51 237.004 250.128C237.652 250.731 238.459 251.033 239.424 251.033C240.825 251.033 241.813 250.452 242.386 249.292H245.167C244.79 250.437 244.104 251.379 243.109 252.118C242.114 252.842 240.886 253.204 239.424 253.204C238.233 253.204 237.177 252.94 236.258 252.412C235.338 251.869 234.615 251.116 234.087 250.151C233.575 249.171 233.318 248.04 233.318 246.759C233.318 245.478 233.575 244.355 234.087 243.39C234.615 242.41 235.346 241.656 236.28 241.129C237.23 240.601 238.316 240.337 239.537 240.337C240.712 240.337 241.76 240.593 242.68 241.106C243.599 241.619 244.315 242.335 244.828 243.254C245.34 244.174 245.597 245.229 245.597 246.42ZM242.906 245.877C242.891 244.852 242.552 244.038 241.888 243.435C241.225 242.817 240.403 242.508 239.424 242.508C238.504 242.508 237.72 242.817 237.072 243.435C236.439 244.038 236.077 244.852 235.986 245.877H242.906ZM257.92 242.644V249.54C257.92 250.008 258.026 250.347 258.237 250.558C258.463 250.754 258.84 250.852 259.367 250.852H260.95V253H258.915C257.754 253 256.865 252.729 256.247 252.186C255.629 251.643 255.32 250.761 255.32 249.54V242.644H253.85V240.541H255.32V237.443H257.92V240.541H260.95V242.644H257.92ZM268.346 240.337C269.326 240.337 270.185 240.563 270.924 241.016C271.677 241.453 272.258 242.033 272.665 242.757V240.541H275.265V253H272.665V250.671C272.243 251.44 271.662 252.058 270.924 252.525C270.185 252.977 269.326 253.204 268.346 253.204C267.261 253.204 266.266 252.932 265.361 252.389C264.472 251.832 263.763 251.063 263.236 250.083C262.723 249.088 262.467 247.965 262.467 246.714C262.467 245.463 262.723 244.355 263.236 243.39C263.763 242.425 264.472 241.679 265.361 241.151C266.266 240.609 267.261 240.337 268.346 240.337ZM268.889 242.576C268.225 242.576 267.607 242.742 267.034 243.073C266.462 243.39 265.994 243.865 265.632 244.498C265.286 245.116 265.112 245.855 265.112 246.714C265.112 247.573 265.286 248.327 265.632 248.975C265.994 249.623 266.462 250.121 267.034 250.467C267.622 250.799 268.24 250.965 268.889 250.965C269.552 250.965 270.17 250.799 270.743 250.467C271.316 250.136 271.775 249.653 272.122 249.02C272.484 248.372 272.665 247.618 272.665 246.759C272.665 245.9 272.484 245.154 272.122 244.52C271.775 243.887 271.316 243.405 270.743 243.073C270.17 242.742 269.552 242.576 268.889 242.576ZM283.581 246.782L289.324 253H285.842L281.229 247.641V253H278.651V236.267H281.229V245.99L285.751 240.541H289.324L283.581 246.782ZM302.591 246.42C302.591 246.857 302.561 247.264 302.5 247.641H292.958C293.018 248.681 293.365 249.51 293.998 250.128C294.646 250.731 295.453 251.033 296.418 251.033C297.82 251.033 298.807 250.452 299.38 249.292H302.161C301.784 250.437 301.099 251.379 300.104 252.118C299.109 252.842 297.88 253.204 296.418 253.204C295.227 253.204 294.172 252.94 293.252 252.412C292.333 251.869 291.609 251.116 291.081 250.151C290.569 249.171 290.312 248.04 290.312 246.759C290.312 245.478 290.569 244.355 291.081 243.39C291.609 242.41 292.34 241.656 293.275 241.129C294.224 240.601 295.31 240.337 296.531 240.337C297.707 240.337 298.754 240.593 299.674 241.106C300.593 241.619 301.31 242.335 301.822 243.254C302.335 244.174 302.591 245.229 302.591 246.42ZM299.9 245.877C299.885 244.852 299.546 244.038 298.883 243.435C298.219 242.817 297.398 242.508 296.418 242.508C295.498 242.508 294.714 242.817 294.066 243.435C293.433 244.038 293.071 244.852 292.981 245.877H299.9ZM317.153 240.337C318.66 240.337 319.904 240.699 320.884 241.423C321.879 242.131 322.55 243.149 322.896 244.475H320.115C319.889 243.857 319.527 243.375 319.03 243.028C318.532 242.681 317.907 242.508 317.153 242.508C316.098 242.508 315.254 242.885 314.62 243.639C314.002 244.377 313.693 245.417 313.693 246.759C313.693 248.101 314.002 249.148 314.62 249.902C315.254 250.656 316.098 251.033 317.153 251.033C318.645 251.033 319.633 250.377 320.115 249.065H322.896C322.535 250.332 321.856 251.342 320.861 252.096C319.866 252.834 318.63 253.204 317.153 253.204C315.962 253.204 314.907 252.94 313.987 252.412C313.068 251.869 312.344 251.116 311.816 250.151C311.304 249.171 311.048 248.04 311.048 246.759C311.048 245.478 311.304 244.355 311.816 243.39C312.344 242.41 313.068 241.656 313.987 241.129C314.907 240.601 315.962 240.337 317.153 240.337ZM330.485 240.337C331.465 240.337 332.324 240.563 333.063 241.016C333.817 241.453 334.397 242.033 334.804 242.757V240.541H337.405V253H334.804V250.671C334.382 251.44 333.802 252.058 333.063 252.525C332.324 252.977 331.465 253.204 330.485 253.204C329.4 253.204 328.405 252.932 327.501 252.389C326.611 251.832 325.903 251.063 325.375 250.083C324.862 249.088 324.606 247.965 324.606 246.714C324.606 245.463 324.862 244.355 325.375 243.39C325.903 242.425 326.611 241.679 327.501 241.151C328.405 240.609 329.4 240.337 330.485 240.337ZM331.028 242.576C330.365 242.576 329.747 242.742 329.174 243.073C328.601 243.39 328.134 243.865 327.772 244.498C327.425 245.116 327.252 245.855 327.252 246.714C327.252 247.573 327.425 248.327 327.772 248.975C328.134 249.623 328.601 250.121 329.174 250.467C329.762 250.799 330.38 250.965 331.028 250.965C331.691 250.965 332.309 250.799 332.882 250.467C333.455 250.136 333.915 249.653 334.262 249.02C334.623 248.372 334.804 247.618 334.804 246.759C334.804 245.9 334.623 245.154 334.262 244.52C333.915 243.887 333.455 243.405 332.882 243.073C332.309 242.742 331.691 242.576 331.028 242.576ZM343.368 242.711C343.745 241.958 344.243 241.377 344.861 240.97C345.494 240.548 346.24 240.337 347.099 240.337V243.005H346.444C345.434 243.005 344.665 243.262 344.137 243.774C343.625 244.287 343.368 245.176 343.368 246.442V253H340.79V240.541H343.368V242.711ZM360.888 246.42C360.888 246.857 360.858 247.264 360.798 247.641H351.255C351.315 248.681 351.662 249.51 352.295 250.128C352.944 250.731 353.75 251.033 354.715 251.033C356.117 251.033 357.104 250.452 357.677 249.292H360.458C360.081 250.437 359.396 251.379 358.401 252.118C357.406 252.842 356.177 253.204 354.715 253.204C353.524 253.204 352.469 252.94 351.549 252.412C350.63 251.869 349.906 251.116 349.378 250.151C348.866 249.171 348.61 248.04 348.61 246.759C348.61 245.478 348.866 244.355 349.378 243.39C349.906 242.41 350.637 241.656 351.572 241.129C352.521 240.601 353.607 240.337 354.828 240.337C356.004 240.337 357.051 240.593 357.971 241.106C358.891 241.619 359.607 242.335 360.119 243.254C360.632 244.174 360.888 245.229 360.888 246.42ZM358.197 245.877C358.182 244.852 357.843 244.038 357.18 243.435C356.516 242.817 355.695 242.508 354.715 242.508C353.795 242.508 353.011 242.817 352.363 243.435C351.73 244.038 351.368 244.852 351.278 245.877H358.197ZM375.721 240.337C376.912 240.337 377.99 240.601 378.955 241.129C379.92 241.656 380.681 242.41 381.239 243.39C381.797 244.37 382.075 245.493 382.075 246.759C382.075 248.025 381.789 249.148 381.216 250.128C380.643 251.108 379.859 251.869 378.864 252.412C377.885 252.94 376.799 253.204 375.608 253.204C374.432 253.204 373.37 252.94 372.42 252.412C371.47 251.869 370.724 251.116 370.181 250.151C369.639 249.171 369.367 248.04 369.367 246.759C369.367 245.493 369.646 244.37 370.204 243.39C370.762 242.41 371.523 241.656 372.488 241.129C373.453 240.601 374.53 240.337 375.721 240.337ZM375.676 242.508C375.013 242.508 374.402 242.674 373.845 243.005C373.287 243.322 372.835 243.804 372.488 244.453C372.156 245.086 371.99 245.855 371.99 246.759C371.99 247.664 372.149 248.44 372.465 249.088C372.797 249.736 373.234 250.226 373.777 250.558C374.334 250.874 374.945 251.033 375.608 251.033C376.272 251.033 376.89 250.867 377.463 250.535C378.05 250.204 378.525 249.721 378.887 249.088C379.249 248.44 379.43 247.664 379.43 246.759C379.43 245.855 379.256 245.086 378.91 244.453C378.563 243.804 378.103 243.322 377.53 243.005C376.958 242.674 376.339 242.508 375.676 242.508ZM389.847 242.644H387.541V253H384.94V242.644H383.47V240.541H384.94V239.659C384.94 238.227 385.317 237.187 386.071 236.538C386.84 235.875 388.038 235.543 389.666 235.543V237.692C388.882 237.692 388.332 237.842 388.016 238.144C387.699 238.43 387.541 238.935 387.541 239.659V240.541H389.847V242.644ZM414.219 240.337C415.154 240.337 415.991 240.541 416.729 240.948C417.468 241.355 418.048 241.958 418.47 242.757C418.908 243.556 419.126 244.52 419.126 245.651V253H416.548V246.035C416.548 244.92 416.27 244.068 415.712 243.48C415.154 242.877 414.393 242.576 413.428 242.576C412.463 242.576 411.702 242.877 411.144 243.48C410.586 244.068 410.307 244.92 410.307 246.035V253H407.752V246.035C407.752 244.92 407.473 244.068 406.916 243.48C406.358 242.877 405.597 242.576 404.632 242.576C403.667 242.576 402.898 242.877 402.325 243.48C401.768 244.068 401.489 244.92 401.489 246.035V253H398.911V240.541H401.489V242.508C401.896 241.799 402.438 241.264 403.117 240.902C403.81 240.526 404.594 240.337 405.468 240.337C406.433 240.337 407.292 240.563 408.046 241.016C408.8 241.468 409.373 242.124 409.765 242.983C410.202 242.154 410.805 241.505 411.574 241.038C412.358 240.571 413.24 240.337 414.219 240.337ZM427.426 240.337C428.406 240.337 429.265 240.563 430.004 241.016C430.758 241.453 431.338 242.033 431.745 242.757V240.541H434.346V253H431.745V250.671C431.323 251.44 430.743 252.058 430.004 252.525C429.265 252.977 428.406 253.204 427.426 253.204C426.341 253.204 425.346 252.932 424.441 252.389C423.552 251.832 422.844 251.063 422.316 250.083C421.803 249.088 421.547 247.965 421.547 246.714C421.547 245.463 421.803 244.355 422.316 243.39C422.844 242.425 423.552 241.679 424.441 241.151C425.346 240.609 426.341 240.337 427.426 240.337ZM427.969 242.576C427.306 242.576 426.688 242.742 426.115 243.073C425.542 243.39 425.075 243.865 424.713 244.498C424.366 245.116 424.193 245.855 424.193 246.714C424.193 247.573 424.366 248.327 424.713 248.975C425.075 249.623 425.542 250.121 426.115 250.467C426.703 250.799 427.321 250.965 427.969 250.965C428.632 250.965 429.25 250.799 429.823 250.467C430.396 250.136 430.856 249.653 431.203 249.02C431.564 248.372 431.745 247.618 431.745 246.759C431.745 245.9 431.564 245.154 431.203 244.52C430.856 243.887 430.396 243.405 429.823 243.073C429.25 242.742 428.632 242.576 427.969 242.576ZM440.309 242.711C440.686 241.958 441.184 241.377 441.802 240.97C442.435 240.548 443.181 240.337 444.04 240.337V243.005H443.385C442.375 243.005 441.606 243.262 441.078 243.774C440.566 244.287 440.309 245.176 440.309 246.442V253H437.731V240.541H440.309V242.711ZM451.339 246.782L457.083 253H453.6L448.988 247.641V253H446.41V236.267H448.988V245.99L453.51 240.541H457.083L451.339 246.782ZM470.35 246.42C470.35 246.857 470.319 247.264 470.259 247.641H460.717C460.777 248.681 461.124 249.51 461.757 250.128C462.405 250.731 463.212 251.033 464.176 251.033C465.578 251.033 466.566 250.452 467.139 249.292H469.92C469.543 250.437 468.857 251.379 467.862 252.118C466.867 252.842 465.639 253.204 464.176 253.204C462.986 253.204 461.93 252.94 461.011 252.412C460.091 251.869 459.368 251.116 458.84 250.151C458.327 249.171 458.071 248.04 458.071 246.759C458.071 245.478 458.327 244.355 458.84 243.39C459.368 242.41 460.099 241.656 461.033 241.129C461.983 240.601 463.068 240.337 464.289 240.337C465.465 240.337 466.513 240.593 467.433 241.106C468.352 241.619 469.068 242.335 469.581 243.254C470.093 244.174 470.35 245.229 470.35 246.42ZM467.659 245.877C467.644 244.852 467.304 244.038 466.641 243.435C465.978 242.817 465.156 242.508 464.176 242.508C463.257 242.508 462.473 242.817 461.825 243.435C461.192 244.038 460.83 244.852 460.739 245.877H467.659ZM475.894 242.644V249.54C475.894 250.008 475.999 250.347 476.21 250.558C476.436 250.754 476.813 250.852 477.341 250.852H478.924V253H476.889C475.728 253 474.839 252.729 474.22 252.186C473.602 251.643 473.293 250.761 473.293 249.54V242.644H471.824V240.541H473.293V237.443H475.894V240.541H478.924V242.644H475.894ZM480.96 237.239C480.96 236.772 481.119 236.38 481.435 236.063C481.752 235.747 482.144 235.589 482.611 235.589C483.063 235.589 483.448 235.747 483.764 236.063C484.081 236.38 484.239 236.772 484.239 237.239C484.239 237.707 484.081 238.099 483.764 238.415C483.448 238.732 483.063 238.89 482.611 238.89C482.144 238.89 481.752 238.732 481.435 238.415C481.119 238.099 480.96 237.707 480.96 237.239ZM483.877 240.541V253H481.3V240.541H483.877ZM493.819 240.337C494.724 240.337 495.538 240.541 496.262 240.948C497 241.355 497.581 241.958 498.003 242.757C498.44 243.556 498.658 244.52 498.658 245.651V253H496.103V246.035C496.103 244.92 495.824 244.068 495.267 243.48C494.709 242.877 493.948 242.576 492.983 242.576C492.018 242.576 491.249 242.877 490.676 243.48C490.119 244.068 489.84 244.92 489.84 246.035V253H487.262V240.541H489.84V242.508C490.247 241.799 490.789 241.264 491.468 240.902C492.161 240.526 492.945 240.337 493.819 240.337ZM506.966 240.337C507.946 240.337 508.806 240.563 509.544 241.016C510.298 241.453 510.878 242.033 511.285 242.757V240.541H513.886V253.204C513.886 254.349 513.645 255.367 513.162 256.256C512.68 257.161 511.979 257.869 511.059 258.382C510.155 258.894 509.069 259.151 507.803 259.151C506.115 259.151 504.713 258.751 503.597 257.952C502.482 257.168 501.849 256.098 501.698 254.741H504.253C504.449 255.389 504.864 255.909 505.497 256.301C506.145 256.708 506.914 256.912 507.803 256.912C508.843 256.912 509.68 256.595 510.313 255.962C510.961 255.329 511.285 254.409 511.285 253.204V250.671C510.863 251.44 510.283 252.058 509.544 252.525C508.806 252.977 507.946 253.204 506.966 253.204C505.881 253.204 504.886 252.932 503.982 252.389C503.092 251.832 502.384 251.063 501.856 250.083C501.344 249.088 501.087 247.965 501.087 246.714C501.087 245.463 501.344 244.355 501.856 243.39C502.384 242.425 503.092 241.679 503.982 241.151C504.886 240.609 505.881 240.337 506.966 240.337ZM507.509 242.576C506.846 242.576 506.228 242.742 505.655 243.073C505.082 243.39 504.615 243.865 504.253 244.498C503.906 245.116 503.733 245.855 503.733 246.714C503.733 247.573 503.906 248.327 504.253 248.975C504.615 249.623 505.082 250.121 505.655 250.467C506.243 250.799 506.861 250.965 507.509 250.965C508.172 250.965 508.791 250.799 509.363 250.467C509.936 250.136 510.396 249.653 510.743 249.02C511.104 248.372 511.285 247.618 511.285 246.759C511.285 245.9 511.104 245.154 510.743 244.52C510.396 243.887 509.936 243.405 509.363 243.073C508.791 242.742 508.172 242.576 507.509 242.576ZM534.339 253L532.282 250.219C531.965 251.078 531.407 251.786 530.608 252.344C529.809 252.902 528.913 253.181 527.918 253.181C527.043 253.181 526.244 252.977 525.521 252.57C524.797 252.163 524.224 251.598 523.802 250.874C523.38 250.136 523.169 249.314 523.169 248.41C523.169 247.52 523.373 246.721 523.78 246.013C524.187 245.289 524.729 244.731 525.408 244.34C526.086 243.933 526.825 243.729 527.624 243.729L527.239 243.548C526.712 242.84 526.327 242.214 526.086 241.671C525.845 241.129 525.724 240.586 525.724 240.043C525.724 239.38 525.89 238.762 526.222 238.189C526.553 237.616 527.036 237.156 527.669 236.81C528.317 236.448 529.078 236.267 529.953 236.267C530.827 236.267 531.581 236.44 532.214 236.787C532.862 237.119 533.352 237.563 533.684 238.121C534.03 238.664 534.204 239.244 534.204 239.862C534.204 240.284 534.136 240.669 534 241.016H531.468C531.588 240.744 531.649 240.443 531.649 240.111C531.649 239.629 531.49 239.229 531.174 238.913C530.857 238.596 530.45 238.438 529.953 238.438C529.47 238.438 529.071 238.596 528.754 238.913C528.453 239.229 528.302 239.621 528.302 240.088C528.302 240.405 528.362 240.714 528.483 241.016C528.603 241.317 528.83 241.679 529.161 242.101L537.415 253H534.339ZM527.94 251.055C528.634 251.055 529.222 250.799 529.704 250.287C530.201 249.759 530.45 249.126 530.45 248.387C530.45 247.648 530.201 247.023 529.704 246.51C529.222 245.998 528.634 245.741 527.94 245.741C527.232 245.741 526.636 245.998 526.154 246.51C525.687 247.023 525.453 247.648 525.453 248.387C525.453 249.141 525.694 249.774 526.176 250.287C526.659 250.799 527.247 251.055 527.94 251.055ZM553.052 240.337C554.138 240.337 555.125 240.609 556.015 241.151C556.919 241.679 557.628 242.425 558.14 243.39C558.653 244.355 558.909 245.463 558.909 246.714C558.909 247.965 558.653 249.088 558.14 250.083C557.628 251.063 556.919 251.832 556.015 252.389C555.125 252.932 554.138 253.204 553.052 253.204C552.073 253.204 551.213 252.977 550.475 252.525C549.736 252.058 549.148 251.44 548.711 250.671V253H546.133V236.267H548.711V242.757C549.133 242.033 549.713 241.453 550.452 241.016C551.206 240.563 552.073 240.337 553.052 240.337ZM552.487 242.576C551.839 242.576 551.221 242.742 550.633 243.073C550.06 243.405 549.593 243.887 549.231 244.52C548.884 245.154 548.711 245.9 548.711 246.759C548.711 247.618 548.884 248.372 549.231 249.02C549.593 249.653 550.06 250.136 550.633 250.467C551.221 250.799 551.839 250.965 552.487 250.965C553.15 250.965 553.768 250.799 554.341 250.467C554.929 250.121 555.397 249.623 555.743 248.975C556.105 248.327 556.286 247.573 556.286 246.714C556.286 245.855 556.105 245.116 555.743 244.498C555.397 243.865 554.929 243.39 554.341 243.073C553.768 242.742 553.15 242.576 552.487 242.576ZM564.036 242.711C564.413 241.958 564.91 241.377 565.528 240.97C566.162 240.548 566.908 240.337 567.767 240.337V243.005H567.111C566.101 243.005 565.332 243.262 564.805 243.774C564.292 244.287 564.036 245.176 564.036 246.442V253H561.458V240.541H564.036V242.711ZM575.156 240.337C576.136 240.337 576.996 240.563 577.734 241.016C578.488 241.453 579.068 242.033 579.475 242.757V240.541H582.076V253H579.475V250.671C579.053 251.44 578.473 252.058 577.734 252.525C576.996 252.977 576.136 253.204 575.156 253.204C574.071 253.204 573.076 252.932 572.172 252.389C571.282 251.832 570.574 251.063 570.046 250.083C569.533 249.088 569.277 247.965 569.277 246.714C569.277 245.463 569.533 244.355 570.046 243.39C570.574 242.425 571.282 241.679 572.172 241.151C573.076 240.609 574.071 240.337 575.156 240.337ZM575.699 242.576C575.036 242.576 574.418 242.742 573.845 243.073C573.272 243.39 572.805 243.865 572.443 244.498C572.096 245.116 571.923 245.855 571.923 246.714C571.923 247.573 572.096 248.327 572.443 248.975C572.805 249.623 573.272 250.121 573.845 250.467C574.433 250.799 575.051 250.965 575.699 250.965C576.362 250.965 576.98 250.799 577.553 250.467C578.126 250.136 578.586 249.653 578.933 249.02C579.294 248.372 579.475 247.618 579.475 246.759C579.475 245.9 579.294 245.154 578.933 244.52C578.586 243.887 578.126 243.405 577.553 243.073C576.98 242.742 576.362 242.576 575.699 242.576ZM592.019 240.337C592.924 240.337 593.738 240.541 594.461 240.948C595.2 241.355 595.78 241.958 596.202 242.757C596.64 243.556 596.858 244.52 596.858 245.651V253H594.303V246.035C594.303 244.92 594.024 244.068 593.466 243.48C592.908 242.877 592.147 242.576 591.182 242.576C590.218 242.576 589.449 242.877 588.876 243.48C588.318 244.068 588.039 244.92 588.039 246.035V253H585.462V240.541H588.039V242.508C588.446 241.799 588.989 241.264 589.667 240.902C590.361 240.526 591.145 240.337 592.019 240.337ZM605.166 240.337C606.146 240.337 607.005 240.563 607.744 241.016C608.498 241.453 609.078 242.033 609.485 242.757V236.267H612.085V253H609.485V250.671C609.063 251.44 608.483 252.058 607.744 252.525C607.005 252.977 606.146 253.204 605.166 253.204C604.081 253.204 603.086 252.932 602.181 252.389C601.292 251.832 600.583 251.063 600.056 250.083C599.543 249.088 599.287 247.965 599.287 246.714C599.287 245.463 599.543 244.355 600.056 243.39C600.583 242.425 601.292 241.679 602.181 241.151C603.086 240.609 604.081 240.337 605.166 240.337ZM605.709 242.576C605.046 242.576 604.427 242.742 603.855 243.073C603.282 243.39 602.814 243.865 602.453 244.498C602.106 245.116 601.933 245.855 601.933 246.714C601.933 247.573 602.106 248.327 602.453 248.975C602.814 249.623 603.282 250.121 603.855 250.467C604.443 250.799 605.061 250.965 605.709 250.965C606.372 250.965 606.99 250.799 607.563 250.467C608.136 250.136 608.596 249.653 608.942 249.02C609.304 248.372 609.485 247.618 609.485 246.759C609.485 245.9 609.304 245.154 608.942 244.52C608.596 243.887 608.136 243.405 607.563 243.073C606.99 242.742 606.372 242.576 605.709 242.576ZM615.132 237.239C615.132 236.772 615.29 236.38 615.607 236.063C615.924 235.747 616.315 235.589 616.783 235.589C617.235 235.589 617.619 235.747 617.936 236.063C618.253 236.38 618.411 236.772 618.411 237.239C618.411 237.707 618.253 238.099 617.936 238.415C617.619 238.732 617.235 238.89 616.783 238.89C616.315 238.89 615.924 238.732 615.607 238.415C615.29 238.099 615.132 237.707 615.132 237.239ZM618.049 240.541V253H615.471V240.541H618.049ZM627.991 240.337C628.895 240.337 629.71 240.541 630.433 240.948C631.172 241.355 631.752 241.958 632.174 242.757C632.611 243.556 632.83 244.52 632.83 245.651V253H630.275V246.035C630.275 244.92 629.996 244.068 629.438 243.48C628.88 242.877 628.119 242.576 627.154 242.576C626.19 242.576 625.421 242.877 624.848 243.48C624.29 244.068 624.011 244.92 624.011 246.035V253H621.433V240.541H624.011V242.508C624.418 241.799 624.961 241.264 625.639 240.902C626.333 240.526 627.117 240.337 627.991 240.337ZM641.138 240.337C642.118 240.337 642.977 240.563 643.716 241.016C644.47 241.453 645.05 242.033 645.457 242.757V240.541H648.057V253.204C648.057 254.349 647.816 255.367 647.334 256.256C646.851 257.161 646.15 257.869 645.231 258.382C644.326 258.894 643.241 259.151 641.975 259.151C640.286 259.151 638.884 258.751 637.769 257.952C636.653 257.168 636.02 256.098 635.869 254.741H638.425C638.621 255.389 639.035 255.909 639.668 256.301C640.316 256.708 641.085 256.912 641.975 256.912C643.015 256.912 643.852 256.595 644.485 255.962C645.133 255.329 645.457 254.409 645.457 253.204V250.671C645.035 251.44 644.455 252.058 643.716 252.525C642.977 252.977 642.118 253.204 641.138 253.204C640.053 253.204 639.058 252.932 638.153 252.389C637.264 251.832 636.555 251.063 636.028 250.083C635.515 249.088 635.259 247.965 635.259 246.714C635.259 245.463 635.515 244.355 636.028 243.39C636.555 242.425 637.264 241.679 638.153 241.151C639.058 240.609 640.053 240.337 641.138 240.337ZM641.681 242.576C641.017 242.576 640.399 242.742 639.827 243.073C639.254 243.39 638.786 243.865 638.425 244.498C638.078 245.116 637.905 245.855 637.905 246.714C637.905 247.573 638.078 248.327 638.425 248.975C638.786 249.623 639.254 250.121 639.827 250.467C640.414 250.799 641.033 250.965 641.681 250.965C642.344 250.965 642.962 250.799 643.535 250.467C644.108 250.136 644.568 249.653 644.914 249.02C645.276 248.372 645.457 247.618 645.457 246.759C645.457 245.9 645.276 245.154 644.914 244.52C644.568 243.887 644.108 243.405 643.535 243.073C642.962 242.742 642.344 242.576 641.681 242.576ZM13.9193 284.644H11.6129V295H9.01249V284.644H7.54269V282.541H9.01249V281.659C9.01249 280.227 9.38936 279.187 10.1431 278.538C10.9119 277.875 12.1104 277.543 13.7384 277.543V279.692C12.9545 279.692 12.4043 279.842 12.0877 280.144C11.7712 280.43 11.6129 280.935 11.6129 281.659V282.541H13.9193V284.644ZM21.7212 282.337C22.9122 282.337 23.99 282.601 24.9548 283.129C25.9196 283.656 26.6809 284.41 27.2386 285.39C27.7964 286.37 28.0753 287.493 28.0753 288.759C28.0753 290.025 27.7889 291.148 27.216 292.128C26.6432 293.108 25.8593 293.869 24.8643 294.412C23.8845 294.94 22.7991 295.204 21.6082 295.204C20.4324 295.204 19.3696 294.94 18.4199 294.412C17.4702 293.869 16.724 293.116 16.1813 292.151C15.6386 291.171 15.3672 290.04 15.3672 288.759C15.3672 287.493 15.6461 286.37 16.2039 285.39C16.7616 284.41 17.5229 283.656 18.4877 283.129C19.4525 282.601 20.5303 282.337 21.7212 282.337ZM21.676 284.508C21.0127 284.508 20.4022 284.674 19.8444 285.005C19.2867 285.322 18.8344 285.804 18.4877 286.453C18.1561 287.086 17.9902 287.855 17.9902 288.759C17.9902 289.664 18.1485 290.44 18.4651 291.088C18.7967 291.736 19.2339 292.226 19.7766 292.558C20.3344 292.874 20.9449 293.033 21.6082 293.033C22.2715 293.033 22.8895 292.867 23.4624 292.535C24.0503 292.204 24.5252 291.721 24.887 291.088C25.2488 290.44 25.4296 289.664 25.4296 288.759C25.4296 287.855 25.2563 287.086 24.9096 286.453C24.5628 285.804 24.1031 285.322 23.5302 285.005C22.9574 284.674 22.3393 284.508 21.676 284.508ZM33.2014 284.711C33.5782 283.958 34.0757 283.377 34.6938 282.97C35.3269 282.548 36.0731 282.337 36.9324 282.337V285.005H36.2766C35.2666 285.005 34.4978 285.262 33.9702 285.774C33.4576 286.287 33.2014 287.176 33.2014 288.442V295H30.6236V282.541H33.2014V284.711ZM47.4831 282.541L50.988 292.038L54.6285 282.541H57.2968L49.6539 300.857H46.9856L49.5182 294.796L44.6113 282.541H47.4831ZM64.7595 282.337C65.9504 282.337 67.0283 282.601 67.993 283.129C68.9578 283.656 69.7191 284.41 70.2769 285.39C70.8346 286.37 71.1135 287.493 71.1135 288.759C71.1135 290.025 70.8271 291.148 70.2543 292.128C69.6814 293.108 68.8975 293.869 67.9026 294.412C66.9227 294.94 65.8374 295.204 64.6464 295.204C63.4706 295.204 62.4078 294.94 61.4581 294.412C60.5084 293.869 59.7622 293.116 59.2195 292.151C58.6768 291.171 58.4055 290.04 58.4055 288.759C58.4055 287.493 58.6844 286.37 59.2421 285.39C59.7999 284.41 60.5612 283.656 61.526 283.129C62.4907 282.601 63.5686 282.337 64.7595 282.337ZM64.7143 284.508C64.051 284.508 63.4405 284.674 62.8827 285.005C62.3249 285.322 61.8727 285.804 61.526 286.453C61.1943 287.086 61.0285 287.855 61.0285 288.759C61.0285 289.664 61.1868 290.44 61.5033 291.088C61.835 291.736 62.2722 292.226 62.8149 292.558C63.3726 292.874 63.9832 293.033 64.6464 293.033C65.3097 293.033 65.9278 292.867 66.5006 292.535C67.0886 292.204 67.5634 291.721 67.9252 291.088C68.287 290.44 68.4679 289.664 68.4679 288.759C68.4679 287.855 68.2945 287.086 67.9478 286.453C67.6011 285.804 67.1413 285.322 66.5685 285.005C65.9956 284.674 65.3776 284.508 64.7143 284.508ZM84.9453 282.541V295H82.3675V293.033C81.9605 293.741 81.4103 294.276 80.7168 294.638C80.0385 295 79.2621 295.181 78.3878 295.181C77.4833 295.181 76.6617 294.977 75.923 294.57C75.1994 294.163 74.6191 293.568 74.1819 292.784C73.7598 291.985 73.5488 291.02 73.5488 289.89V282.541H76.1039V289.505C76.1039 290.621 76.3828 291.48 76.9406 292.083C77.4984 292.671 78.2596 292.965 79.2244 292.965C80.1892 292.965 80.9505 292.671 81.5083 292.083C82.0811 291.48 82.3675 290.621 82.3675 289.505V282.541H84.9453ZM90.9243 284.711C91.3012 283.958 91.7986 283.377 92.4167 282.97C93.0498 282.548 93.796 282.337 94.6553 282.337V285.005H93.9995C92.9895 285.005 92.2207 285.262 91.6931 285.774C91.1806 286.287 90.9243 287.176 90.9243 288.442V295H88.3465V282.541H90.9243V284.711ZM110.723 282.337C111.809 282.337 112.796 282.609 113.686 283.151C114.59 283.679 115.299 284.425 115.811 285.39C116.324 286.355 116.58 287.463 116.58 288.714C116.58 289.965 116.324 291.088 115.811 292.083C115.299 293.063 114.59 293.832 113.686 294.389C112.796 294.932 111.809 295.204 110.723 295.204C109.744 295.204 108.884 294.977 108.146 294.525C107.407 294.058 106.819 293.44 106.382 292.671V295H103.804V278.267H106.382V284.757C106.804 284.033 107.384 283.453 108.123 283.016C108.877 282.563 109.744 282.337 110.723 282.337ZM110.158 284.576C109.51 284.576 108.892 284.742 108.304 285.073C107.731 285.405 107.264 285.887 106.902 286.52C106.555 287.154 106.382 287.9 106.382 288.759C106.382 289.618 106.555 290.372 106.902 291.02C107.264 291.653 107.731 292.136 108.304 292.467C108.892 292.799 109.51 292.965 110.158 292.965C110.821 292.965 111.439 292.799 112.012 292.467C112.6 292.121 113.068 291.623 113.414 290.975C113.776 290.327 113.957 289.573 113.957 288.714C113.957 287.855 113.776 287.116 113.414 286.498C113.068 285.865 112.6 285.39 112.012 285.073C111.439 284.742 110.821 284.576 110.158 284.576ZM130.413 282.541V295H127.835V293.033C127.428 293.741 126.878 294.276 126.184 294.638C125.506 295 124.729 295.181 123.855 295.181C122.951 295.181 122.129 294.977 121.39 294.57C120.667 294.163 120.086 293.568 119.649 292.784C119.227 291.985 119.016 291.02 119.016 289.89V282.541H121.571V289.505C121.571 290.621 121.85 291.48 122.408 292.083C122.966 292.671 123.727 292.965 124.692 292.965C125.657 292.965 126.418 292.671 126.976 292.083C127.548 291.48 127.835 290.621 127.835 289.505V282.541H130.413ZM138.178 282.337C139.565 282.337 140.68 282.699 141.525 283.423C142.384 284.131 142.844 285.103 142.904 286.34H140.258C140.213 285.721 139.994 285.239 139.603 284.892C139.226 284.546 138.69 284.372 137.997 284.372C137.304 284.372 136.761 284.531 136.369 284.847C135.977 285.149 135.781 285.541 135.781 286.023C135.781 286.415 135.909 286.731 136.165 286.973C136.422 287.214 136.746 287.402 137.138 287.538C137.545 287.659 138.088 287.794 138.766 287.945C139.685 288.156 140.424 288.367 140.982 288.578C141.555 288.789 142.045 289.136 142.452 289.618C142.859 290.086 143.062 290.726 143.062 291.54C143.062 292.249 142.851 292.882 142.429 293.44C142.022 293.998 141.449 294.435 140.711 294.751C139.972 295.053 139.135 295.204 138.201 295.204C136.753 295.204 135.585 294.857 134.696 294.163C133.806 293.47 133.316 292.483 133.226 291.201H135.894C135.939 291.819 136.165 292.302 136.572 292.648C136.98 292.995 137.522 293.168 138.201 293.168C138.924 293.168 139.489 293.018 139.896 292.716C140.319 292.4 140.53 291.993 140.53 291.495C140.53 291.088 140.394 290.764 140.123 290.523C139.866 290.282 139.535 290.101 139.128 289.98C138.721 289.844 138.17 289.701 137.477 289.55C136.572 289.339 135.841 289.136 135.284 288.94C134.726 288.729 134.243 288.397 133.836 287.945C133.444 287.493 133.248 286.882 133.248 286.113C133.248 285.42 133.444 284.787 133.836 284.214C134.228 283.641 134.794 283.189 135.532 282.857C136.286 282.511 137.168 282.337 138.178 282.337ZM145.554 279.239C145.554 278.772 145.712 278.38 146.028 278.063C146.345 277.747 146.737 277.589 147.204 277.589C147.657 277.589 148.041 277.747 148.358 278.063C148.674 278.38 148.832 278.772 148.832 279.239C148.832 279.707 148.674 280.099 148.358 280.415C148.041 280.732 147.657 280.89 147.204 280.89C146.737 280.89 146.345 280.732 146.028 280.415C145.712 280.099 145.554 279.707 145.554 279.239ZM148.471 282.541V295H145.893V282.541H148.471ZM158.413 282.337C159.317 282.337 160.131 282.541 160.855 282.948C161.593 283.355 162.174 283.958 162.596 284.757C163.033 285.556 163.252 286.52 163.252 287.651V295H160.696V288.035C160.696 286.92 160.417 286.068 159.86 285.48C159.302 284.877 158.541 284.576 157.576 284.576C156.611 284.576 155.842 284.877 155.269 285.48C154.712 286.068 154.433 286.92 154.433 288.035V295H151.855V282.541H154.433V284.508C154.84 283.799 155.382 283.264 156.061 282.902C156.754 282.526 157.538 282.337 158.413 282.337ZM177.959 288.42C177.959 288.857 177.929 289.264 177.868 289.641H168.326C168.386 290.681 168.733 291.51 169.366 292.128C170.014 292.731 170.821 293.033 171.786 293.033C173.188 293.033 174.175 292.452 174.748 291.292H177.529C177.152 292.437 176.466 293.379 175.471 294.118C174.477 294.842 173.248 295.204 171.786 295.204C170.595 295.204 169.54 294.94 168.62 294.412C167.7 293.869 166.977 293.116 166.449 292.151C165.937 291.171 165.68 290.04 165.68 288.759C165.68 287.478 165.937 286.355 166.449 285.39C166.977 284.41 167.708 283.656 168.643 283.129C169.592 282.601 170.678 282.337 171.899 282.337C173.075 282.337 174.122 282.593 175.042 283.106C175.961 283.619 176.677 284.335 177.19 285.254C177.703 286.174 177.959 287.229 177.959 288.42ZM175.268 287.877C175.253 286.852 174.914 286.038 174.25 285.435C173.587 284.817 172.766 284.508 171.786 284.508C170.866 284.508 170.082 284.817 169.434 285.435C168.801 286.038 168.439 286.852 168.349 287.877H175.268ZM184.86 282.337C186.247 282.337 187.362 282.699 188.206 283.423C189.066 284.131 189.525 285.103 189.586 286.34H186.94C186.895 285.721 186.676 285.239 186.284 284.892C185.907 284.546 185.372 284.372 184.679 284.372C183.985 284.372 183.443 284.531 183.051 284.847C182.659 285.149 182.463 285.541 182.463 286.023C182.463 286.415 182.591 286.731 182.847 286.973C183.104 287.214 183.428 287.402 183.82 287.538C184.227 287.659 184.769 287.794 185.448 287.945C186.367 288.156 187.106 288.367 187.664 288.578C188.237 288.789 188.726 289.136 189.133 289.618C189.541 290.086 189.744 290.726 189.744 291.54C189.744 292.249 189.533 292.882 189.111 293.44C188.704 293.998 188.131 294.435 187.392 294.751C186.654 295.053 185.817 295.204 184.882 295.204C183.435 295.204 182.267 294.857 181.378 294.163C180.488 293.47 179.998 292.483 179.908 291.201H182.576C182.621 291.819 182.847 292.302 183.254 292.648C183.661 292.995 184.204 293.168 184.882 293.168C185.606 293.168 186.171 293.018 186.578 292.716C187 292.4 187.211 291.993 187.211 291.495C187.211 291.088 187.076 290.764 186.804 290.523C186.548 290.282 186.217 290.101 185.809 289.98C185.402 289.844 184.852 289.701 184.159 289.55C183.254 289.339 182.523 289.136 181.965 288.94C181.408 288.729 180.925 288.397 180.518 287.945C180.126 287.493 179.93 286.882 179.93 286.113C179.93 285.42 180.126 284.787 180.518 284.214C180.91 283.641 181.475 283.189 182.214 282.857C182.968 282.511 183.85 282.337 184.86 282.337ZM196.939 282.337C198.326 282.337 199.441 282.699 200.285 283.423C201.145 284.131 201.604 285.103 201.665 286.34H199.019C198.974 285.721 198.755 285.239 198.363 284.892C197.986 284.546 197.451 284.372 196.758 284.372C196.064 284.372 195.522 284.531 195.13 284.847C194.738 285.149 194.542 285.541 194.542 286.023C194.542 286.415 194.67 286.731 194.926 286.973C195.183 287.214 195.507 287.402 195.899 287.538C196.306 287.659 196.848 287.794 197.527 287.945C198.446 288.156 199.185 288.367 199.743 288.578C200.316 288.789 200.805 289.136 201.212 289.618C201.619 290.086 201.823 290.726 201.823 291.54C201.823 292.249 201.612 292.882 201.19 293.44C200.783 293.998 200.21 294.435 199.471 294.751C198.733 295.053 197.896 295.204 196.961 295.204C195.514 295.204 194.346 294.857 193.456 294.163C192.567 293.47 192.077 292.483 191.987 291.201H194.655C194.7 291.819 194.926 292.302 195.333 292.648C195.74 292.995 196.283 293.168 196.961 293.168C197.685 293.168 198.25 293.018 198.657 292.716C199.079 292.4 199.29 291.993 199.29 291.495C199.29 291.088 199.155 290.764 198.883 290.523C198.627 290.282 198.295 290.101 197.888 289.98C197.481 289.844 196.931 289.701 196.238 289.55C195.333 289.339 194.602 289.136 194.044 288.94C193.487 288.729 193.004 288.397 192.597 287.945C192.205 287.493 192.009 286.882 192.009 286.113C192.009 285.42 192.205 284.787 192.597 284.214C192.989 283.641 193.554 283.189 194.293 282.857C195.047 282.511 195.929 282.337 196.939 282.337ZM204.066 293.462C204.066 293.025 204.209 292.656 204.495 292.354C204.797 292.053 205.166 291.902 205.603 291.902C206.04 291.902 206.41 292.053 206.711 292.354C207.013 292.656 207.164 293.025 207.164 293.462C207.164 293.9 207.013 294.269 206.711 294.57C206.41 294.857 206.04 295 205.603 295C205.181 295 204.819 294.849 204.518 294.548C204.216 294.246 204.066 293.884 204.066 293.462Z" fill="black" fill-opacity="0.59"/>
<path d="M838.236 497.356C837.501 497.39 836.775 497.197 836.154 496.804C835.533 496.411 835.047 495.837 834.764 495.16C834.48 494.482 834.412 493.733 834.568 493.016C834.725 492.298 835.098 491.646 835.638 491.147C835.728 490.788 835.793 490.53 835.883 490.171C835.851 490.093 835.818 490.015 835.786 489.937C835.046 488.191 833.807 486.702 832.223 485.658C830.64 484.614 828.783 484.061 826.886 484.068C824.989 484.075 823.136 484.642 821.56 485.698C819.985 486.754 818.756 488.252 818.03 490.003C815.126 496.993 811.428 503.995 810.518 511.386C810.117 514.653 810.286 517.965 811.018 521.174C804.197 506.304 800.655 490.142 800.632 473.784C800.63 469.679 800.859 465.578 801.315 461.498C801.693 458.154 802.217 454.834 802.887 451.537C806.542 433.65 814.392 416.885 825.79 402.618C831.307 399.61 835.768 394.984 838.573 389.364C839.589 387.344 840.307 385.187 840.705 382.961C840.083 383.043 839.45 383.094 838.828 383.134C838.634 383.145 838.43 383.155 838.236 383.165L838.163 383.168C837.479 383.199 836.801 383.031 836.21 382.686C835.619 382.34 835.141 381.831 834.833 381.22C834.525 380.609 834.4 379.922 834.473 379.242C834.547 378.562 834.815 377.917 835.247 377.386C835.515 377.055 835.784 376.725 836.053 376.395C836.461 375.885 836.88 375.386 837.288 374.876C837.335 374.827 837.379 374.776 837.42 374.723C837.89 374.142 838.359 373.571 838.828 372.99C837.972 371.661 836.819 370.548 835.461 369.737C830.758 366.985 824.27 368.891 820.873 373.143C817.465 377.394 816.822 383.359 818.006 388.671C819.17 393.191 821.095 397.48 823.699 401.354C823.443 401.68 823.178 401.996 822.923 402.323C818.261 408.314 814.197 414.748 810.791 421.531C811.619 413.932 810.63 406.244 807.906 399.101C805.145 392.444 799.969 386.837 795.411 381.082C789.936 374.169 778.71 377.186 777.746 385.949C777.736 386.034 777.727 386.118 777.718 386.203C778.395 386.585 779.058 386.99 779.706 387.419C780.521 387.963 781.152 388.74 781.517 389.648C781.882 390.557 781.964 391.554 781.752 392.51C781.54 393.466 781.044 394.335 780.33 395.005C779.615 395.674 778.714 396.112 777.746 396.261L777.647 396.277C777.888 398.715 778.314 401.132 778.922 403.505C780.683 410.132 783.795 416.324 788.063 421.693C792.331 427.062 797.662 431.491 803.723 434.704C804.121 434.908 804.509 435.112 804.907 435.306C801.484 444.999 799.337 455.096 798.52 465.342C798.058 471.387 798.085 477.46 798.602 483.501L798.571 483.287C797.265 476.569 793.68 470.508 788.42 466.127C780.608 459.714 769.572 457.353 761.144 452.198C760.249 451.623 759.207 451.316 758.143 451.314C757.079 451.311 756.036 451.613 755.137 452.183C754.239 452.753 753.522 453.569 753.072 454.532C752.622 455.496 752.457 456.569 752.597 457.623C752.608 457.698 752.62 457.773 752.632 457.848C753.888 458.36 755.111 458.949 756.294 459.612C756.971 459.994 757.634 460.399 758.282 460.827C759.097 461.371 759.728 462.148 760.093 463.057C760.458 463.965 760.54 464.963 760.328 465.919C760.116 466.875 759.62 467.744 758.905 468.414C758.191 469.083 757.29 469.521 756.322 469.67L756.223 469.685C756.151 469.696 756.09 469.706 756.019 469.716C758.165 474.838 761.178 479.553 764.925 483.654C769.554 488.617 775.148 492.584 781.366 495.31C787.583 498.036 794.292 499.465 801.081 499.508H801.091C802.934 507.511 805.604 515.302 809.059 522.754H837.522C837.624 522.438 837.716 522.112 837.808 521.796C835.173 521.961 832.528 521.804 829.932 521.327C832.044 518.737 834.156 516.127 836.268 513.537C836.315 513.489 836.359 513.438 836.4 513.384C837.471 512.059 838.553 510.743 839.624 509.418L839.625 509.416C839.682 505.354 839.215 501.3 838.236 497.356L838.236 497.356Z" fill="#F2F2F2"/>
<path d="M1305.56 497.356C1306.3 497.39 1307.02 497.197 1307.64 496.804C1308.26 496.411 1308.75 495.837 1309.03 495.159C1309.32 494.482 1309.38 493.733 1309.23 493.016C1309.07 492.298 1308.7 491.646 1308.16 491.147C1308.07 490.788 1308 490.53 1307.91 490.171C1307.95 490.093 1307.98 490.015 1308.01 489.937C1308.75 488.191 1309.99 486.702 1311.57 485.658C1313.16 484.614 1315.01 484.061 1316.91 484.068C1318.81 484.075 1320.66 484.642 1322.24 485.698C1323.81 486.754 1325.04 488.252 1325.77 490.003C1328.67 496.993 1332.37 503.995 1333.28 511.386C1333.68 514.653 1333.51 517.965 1332.78 521.174C1339.6 506.304 1343.14 490.142 1343.17 473.784C1343.17 469.679 1342.94 465.578 1342.48 461.498C1342.1 458.154 1341.58 454.834 1340.91 451.537C1337.25 433.65 1329.41 416.885 1318.01 402.618C1312.49 399.61 1308.03 394.984 1305.22 389.364C1304.21 387.344 1303.49 385.187 1303.09 382.961C1303.71 383.043 1304.35 383.094 1304.97 383.134C1305.16 383.145 1305.37 383.155 1305.56 383.165L1305.63 383.168C1306.32 383.199 1307 383.031 1307.59 382.686C1308.18 382.34 1308.66 381.831 1308.96 381.22C1309.27 380.609 1309.4 379.922 1309.32 379.242C1309.25 378.562 1308.98 377.917 1308.55 377.386C1308.28 377.055 1308.01 376.725 1307.74 376.395C1307.34 375.885 1306.92 375.386 1306.51 374.876C1306.46 374.827 1306.42 374.776 1306.38 374.723C1305.91 374.142 1305.44 373.571 1304.97 372.99C1305.83 371.661 1306.98 370.548 1308.34 369.737C1313.04 366.985 1319.53 368.891 1322.92 373.143C1326.33 377.394 1326.97 383.359 1325.79 388.671C1324.63 393.191 1322.7 397.48 1320.1 401.354C1320.35 401.68 1320.62 401.996 1320.87 402.323C1325.54 408.314 1329.6 414.748 1333.01 421.531C1332.18 413.932 1333.17 406.244 1335.89 399.101C1338.65 392.444 1343.83 386.837 1348.39 381.082C1353.86 374.169 1365.09 377.186 1366.05 385.949C1366.06 386.034 1366.07 386.118 1366.08 386.203C1365.4 386.585 1364.74 386.99 1364.09 387.419C1363.28 387.963 1362.65 388.74 1362.28 389.648C1361.92 390.557 1361.83 391.554 1362.04 392.51C1362.26 393.466 1362.75 394.335 1363.47 395.005C1364.18 395.674 1365.08 396.112 1366.05 396.261L1366.15 396.277C1365.91 398.715 1365.48 401.132 1364.88 403.505C1363.11 410.132 1360 416.324 1355.73 421.693C1351.47 427.062 1346.14 431.491 1340.07 434.704C1339.68 434.908 1339.29 435.112 1338.89 435.306C1342.31 444.999 1344.46 455.096 1345.28 465.342C1345.74 471.387 1345.71 477.46 1345.2 483.501L1345.23 483.286C1346.53 476.569 1350.12 470.508 1355.38 466.127C1363.19 459.714 1374.23 457.352 1382.65 452.198C1383.55 451.623 1384.59 451.316 1385.65 451.314C1386.72 451.311 1387.76 451.613 1388.66 452.183C1389.56 452.753 1390.27 453.568 1390.72 454.532C1391.17 455.496 1391.34 456.569 1391.2 457.623C1391.19 457.698 1391.18 457.773 1391.17 457.848C1389.91 458.36 1388.69 458.949 1387.5 459.612C1386.83 459.994 1386.16 460.399 1385.51 460.827C1384.7 461.371 1384.07 462.148 1383.7 463.057C1383.34 463.965 1383.26 464.963 1383.47 465.919C1383.68 466.875 1384.18 467.744 1384.89 468.414C1385.61 469.083 1386.51 469.521 1387.48 469.67L1387.57 469.685C1387.65 469.696 1387.71 469.706 1387.78 469.716C1385.63 474.838 1382.62 479.553 1378.87 483.653C1374.24 488.617 1368.65 492.584 1362.43 495.31C1356.21 498.036 1349.51 499.465 1342.72 499.508H1342.71C1340.86 507.511 1338.19 515.302 1334.74 522.754H1306.27C1306.17 522.438 1306.08 522.112 1305.99 521.795C1308.62 521.961 1311.27 521.804 1313.87 521.327C1311.75 518.737 1309.64 516.127 1307.53 513.537C1307.48 513.489 1307.44 513.437 1307.4 513.384C1306.33 512.059 1305.24 510.743 1304.17 509.418L1304.17 509.416C1304.12 505.354 1304.58 501.3 1305.56 497.356L1305.56 497.356Z" fill="#F2F2F2"/>
<path d="M953.108 510.035H959.999L963.279 483.47H953.108V510.035Z" fill="#9E616A"/>
<path d="M950.859 505.317L961.869 504.661V509.375L972.336 516.599C972.853 516.956 973.242 517.469 973.447 518.062C973.652 518.656 973.662 519.299 973.475 519.899C973.288 520.498 972.914 521.022 972.408 521.394C971.902 521.766 971.29 521.967 970.661 521.967H957.554L955.295 517.304L954.413 521.967H949.471L950.859 505.317Z" fill="#2F2E41"/>
<path d="M866.738 504.183L873.141 506.73L886.018 483.262L876.568 479.503L866.738 504.183Z" fill="#9E616A"/>
<path d="M866.394 498.97L876.866 502.429L875.121 506.809L882.172 517.39C882.521 517.912 882.693 518.532 882.664 519.159C882.634 519.787 882.405 520.388 882.01 520.876C881.614 521.364 881.073 521.713 880.465 521.871C879.857 522.03 879.214 521.99 878.63 521.758L866.453 516.913L866.079 511.746L863.534 515.752L858.942 513.925L866.394 498.97Z" fill="#2F2E41"/>
<path d="M939.217 430.989L927.726 377.396L909.782 436.943L881.368 493.408L881.218 493.708L872.217 488.865C870.947 465.938 873.964 444.453 884.998 425.666L890.223 374.1C890.383 372.338 894.28 330.973 906.621 323.637L910.236 315.401L946.182 306.529L946.313 306.676C949.77 310.559 952.053 315.342 952.898 320.47L963.639 385.5L963.645 385.536L960.765 430.902L964.704 497.831H950.45C941.631 481.249 937.887 458.968 939.217 430.989Z" fill="#2F2E41"/>
<path d="M1114.78 212.3C1114.78 227.532 1137.41 254.281 1142.38 239.88C1148.45 222.249 1161.42 211.072 1169.97 212.3C1185.06 214.466 1157.62 184.72 1142.38 184.72C1135.06 184.72 1128.04 187.626 1122.86 192.798C1117.69 197.97 1114.78 204.986 1114.78 212.3Z" fill="#E6E6E6"/>
<path d="M1108.98 125.927C1105.4 140.733 1121.34 153.507 1136.58 153.507C1140.2 153.507 1143.79 152.794 1147.14 151.408C1150.49 150.022 1153.53 147.99 1156.09 145.429C1158.65 142.868 1160.69 139.828 1162.07 136.481C1163.46 133.135 1164.17 129.549 1164.17 125.927C1164.17 110.695 1143.63 111.85 1136.58 98.3472C1128.5 82.8901 1116.67 94.1006 1108.98 125.927Z" fill="#E6E6E6"/>
<path d="M981.451 124.768C981.451 132.083 984.359 139.098 989.534 144.27C994.71 149.443 1001.73 152.348 1009.05 152.348C1024.29 152.348 1037.09 139.994 1036.65 124.768C1035.72 92.8728 1023.35 80.3745 1009.05 97.1886C999.175 108.793 981.451 109.537 981.451 124.768Z" fill="#E6E6E6"/>
<path d="M979.133 212.3C966.254 206.736 988.622 235.251 1006.73 239.88C1021.5 243.655 1034.33 227.532 1034.33 212.3C1034.33 208.678 1033.61 205.092 1032.23 201.746C1030.84 198.4 1028.81 195.359 1026.24 192.798C1023.68 190.237 1020.64 188.206 1017.29 186.82C1013.94 185.434 1010.35 184.72 1006.73 184.72C991.488 184.72 993.123 218.344 979.133 212.3Z" fill="#E6E6E6"/>
<path d="M1289.67 34.1888H838.994C838.525 34.1788 838.079 33.9857 837.751 33.6509C837.423 33.3161 837.239 32.8662 837.239 32.3976C837.239 31.9291 837.423 31.4792 837.751 31.1444C838.079 30.8096 838.525 30.6165 838.994 30.6065H1289.67C1290.14 30.6165 1290.59 30.8096 1290.92 31.1444C1291.24 31.4792 1291.43 31.9291 1291.43 32.3976C1291.43 32.8662 1291.24 33.3161 1290.92 33.6509C1290.59 33.9857 1290.14 34.1788 1289.67 34.1888Z" fill="#CACACA"/>
<path d="M869.671 21.4614C875.472 21.4614 880.175 16.6571 880.175 10.7307C880.175 4.80431 875.472 0 869.671 0C863.87 0 859.168 4.80431 859.168 10.7307C859.168 16.6571 863.87 21.4614 869.671 21.4614Z" fill="#3F3D56"/>
<path d="M905.955 21.4614C911.756 21.4614 916.459 16.6571 916.459 10.7307C916.459 4.80431 911.756 0 905.955 0C900.155 0 895.452 4.80431 895.452 10.7307C895.452 16.6571 900.155 21.4614 905.955 21.4614Z" fill="#3F3D56"/>
<path d="M942.24 21.4614C948.04 21.4614 952.743 16.6571 952.743 10.7307C952.743 4.80431 948.04 0 942.24 0C936.439 0 931.736 4.80431 931.736 10.7307C931.736 16.6571 936.439 21.4614 942.24 21.4614Z" fill="#3F3D56"/>
<path d="M1267.83 2.6597H1242.05C1241.54 2.6698 1241.06 2.87973 1240.7 3.2444C1240.34 3.60906 1240.14 4.0994 1240.14 4.61008C1240.14 5.12077 1240.34 5.61109 1240.7 5.97576C1241.06 6.34042 1241.54 6.55035 1242.05 6.56046H1267.83C1268.34 6.55035 1268.82 6.34042 1269.18 5.97576C1269.54 5.61109 1269.74 5.12077 1269.74 4.61008C1269.74 4.0994 1269.54 3.60906 1269.18 3.2444C1268.82 2.87973 1268.34 2.6698 1267.83 2.6597H1267.83Z" fill="#3F3D56"/>
<path d="M1267.83 9.98083H1242.05C1241.54 9.991 1241.06 10.201 1240.7 10.5656C1240.34 10.9303 1240.14 11.4206 1240.14 11.9312C1240.14 12.4419 1240.34 12.9321 1240.7 13.2968C1241.06 13.6615 1241.54 13.8714 1242.05 13.8816H1267.83C1268.34 13.8714 1268.82 13.6615 1269.18 13.2968C1269.54 12.9321 1269.74 12.4419 1269.74 11.9312C1269.74 11.4206 1269.54 10.9303 1269.18 10.5656C1268.82 10.201 1268.34 9.991 1267.83 9.98083H1267.83Z" fill="#3F3D56"/>
<path d="M1267.83 17.2923H1242.05C1241.54 17.3025 1241.06 17.5124 1240.7 17.8771C1240.34 18.2418 1240.14 18.7321 1240.14 19.2427C1240.14 19.7533 1240.34 20.2436 1240.7 20.6083C1241.06 20.973 1241.54 21.1829 1242.05 21.1931H1267.83C1268.34 21.1829 1268.82 20.973 1269.18 20.6083C1269.54 20.2436 1269.74 19.7533 1269.74 19.2427C1269.74 18.7321 1269.54 18.2418 1269.18 17.8771C1268.82 17.5124 1268.34 17.3025 1267.83 17.2923H1267.83Z" fill="#3F3D56"/>
<path d="M1139.29 113.41H1102.37C1101.61 113.41 1100.85 113.561 1100.14 113.854C1099.43 114.147 1098.78 114.577 1098.24 115.12C1097.7 115.662 1097.27 116.305 1096.98 117.014C1096.68 117.722 1096.53 118.481 1096.53 119.248V156.139C1096.53 157.688 1097.15 159.173 1098.24 160.267C1099.34 161.362 1100.82 161.977 1102.37 161.977H1139.29C1140.84 161.977 1142.32 161.362 1143.42 160.267C1144.51 159.173 1145.13 157.688 1145.13 156.139V119.248C1145.13 117.699 1144.51 116.214 1143.42 115.12C1142.32 114.025 1140.84 113.41 1139.29 113.41ZM1132.36 125.865H1128.12C1125.23 125.865 1124.67 127.232 1124.67 129.251V133.533H1131.56L1130.67 140.256H1124.66V157.786C1122.09 158.268 1119.45 158.262 1116.88 157.768V140.256H1111.37V133.533H1116.98V128.561C1116.98 122.618 1121.11 119.372 1126.43 119.372C1128.99 119.372 1131.73 119.564 1132.36 119.653V125.865Z" fill="#102E4A"/>
<path d="M1046.95 113.41H1010.04C1008.49 113.41 1007 114.025 1005.91 115.12C1004.81 116.214 1004.2 117.699 1004.2 119.248V156.139C1004.2 157.688 1004.81 159.173 1005.91 160.267C1007 161.362 1008.49 161.977 1010.04 161.977H1046.95C1048.5 161.977 1049.99 161.362 1051.08 160.267C1052.18 159.173 1052.79 157.688 1052.79 156.139V119.248C1052.79 117.699 1052.18 116.214 1051.08 115.12C1049.99 114.025 1048.5 113.41 1046.95 113.41ZM1028.49 150.645C1025.93 150.645 1023.43 149.885 1021.29 148.462C1019.16 147.039 1017.5 145.016 1016.52 142.65C1015.54 140.283 1015.28 137.679 1015.78 135.167C1016.28 132.655 1017.52 130.347 1019.33 128.535C1021.14 126.724 1023.45 125.491 1025.97 124.991C1028.48 124.491 1031.09 124.748 1033.45 125.728C1035.82 126.708 1037.85 128.368 1039.27 130.498C1040.69 132.628 1041.45 135.132 1041.45 137.694C1041.45 141.128 1040.09 144.423 1037.66 146.852C1035.23 149.28 1031.93 150.645 1028.49 150.645H1028.49ZM1043.07 124.742C1042.43 124.742 1041.81 124.552 1041.27 124.196C1040.74 123.841 1040.33 123.335 1040.08 122.743C1039.84 122.152 1039.77 121.501 1039.9 120.873C1040.02 120.244 1040.33 119.668 1040.78 119.215C1041.24 118.762 1041.81 118.454 1042.44 118.329C1043.07 118.204 1043.72 118.268 1044.31 118.513C1044.91 118.758 1045.41 119.173 1045.77 119.705C1046.12 120.238 1046.31 120.864 1046.31 121.504C1046.31 122.363 1045.97 123.187 1045.36 123.794C1044.76 124.401 1043.93 124.742 1043.07 124.742H1043.07Z" fill="#102E4A"/>
<path d="M1148.18 200.544C1149.23 200.551 1150.27 200.789 1151.22 201.241C1152.17 201.693 1153.01 202.347 1153.68 203.159C1154.35 203.97 1154.84 204.918 1155.1 205.937C1155.36 206.955 1155.4 208.019 1155.21 209.054L1169 218.022L1165.59 227.728L1146.29 214.789C1144.58 214.351 1143.08 213.299 1142.09 211.832C1141.09 210.364 1140.67 208.584 1140.91 206.828C1141.14 205.072 1142.01 203.463 1143.35 202.304C1144.69 201.146 1146.41 200.52 1148.18 200.544Z" fill="#FFB6B6"/>
<path d="M1153.09 224.128L1162.94 212.769L1175.66 218.665L1201.65 239.337C1205.06 239.735 1230.91 243.07 1230.44 252.56C1230.43 253.669 1230.17 254.763 1229.7 255.765C1229.23 256.768 1228.54 257.656 1227.69 258.369C1223.61 261.735 1216.54 260.78 1216.27 260.741L1199.35 259.895C1198.46 260.108 1189.28 262.217 1184.42 259.199C1182.94 258.283 1153.09 224.128 1153.09 224.128Z" fill="#3F3D56"/>
<path d="M1181.48 514.245L1173.42 514.244L1169.58 483.166H1181.48L1181.48 514.245Z" fill="#FFB6B6"/>
<path d="M1183.54 522.055L1157.54 522.054V521.726C1157.54 519.044 1158.61 516.472 1160.5 514.575C1162.4 512.679 1164.98 511.614 1167.66 511.614H1167.66L1172.41 508.013L1181.27 511.614L1183.54 511.614L1183.54 522.055Z" fill="#2F2E41"/>
<path d="M1269.97 507.939L1262.2 510.084L1250.23 481.147L1261.7 477.982L1269.97 507.939Z" fill="#FFB6B6"/>
<path d="M1274.04 514.92L1248.98 521.837L1248.89 521.52C1248.18 518.935 1248.52 516.172 1249.84 513.84C1251.17 511.507 1253.36 509.795 1255.95 509.081L1255.95 509.08L1259.57 504.346L1269.07 505.46L1271.26 504.856L1274.04 514.92Z" fill="#2F2E41"/>
<path d="M1181.84 326.16L1242.76 329.267L1242.78 329.322C1246.43 339.452 1247.28 350.378 1245.25 360.951L1247.11 376.483L1256.44 424.942L1268.87 487.069C1268.87 487.069 1285.03 491.418 1263.9 498.873C1242.76 506.328 1247.11 501.979 1250.22 496.388C1253.33 490.797 1234.99 427.738 1234.99 427.738L1212.61 377.415L1190.85 429.602L1188.36 487.38C1188.36 487.38 1194.89 495.145 1176.24 498.252C1157.59 501.358 1158.52 495.456 1162.88 491.107C1167.23 486.758 1170.96 428.98 1170.96 428.98L1175.31 374.309C1175.31 374.309 1174.07 342.624 1181.84 326.16Z" fill="#2F2E41"/>
<path d="M1241.41 255.183L1236.51 242.343L1220.73 226.816L1200.76 225.249L1186.08 238.386L1181.92 251.455C1187.37 276.653 1187.26 299.861 1179.54 322.345C1178.99 323.899 1178.79 325.554 1178.95 327.195C1179.11 328.835 1179.62 330.421 1180.46 331.843C1181.29 333.264 1182.42 334.487 1183.78 335.425C1185.14 336.364 1186.68 336.995 1188.31 337.276C1210.94 341.076 1253.08 346.775 1250.18 335.926C1246.34 321.574 1232.98 290.683 1237.93 274.349C1239.73 268.674 1240.86 262.808 1241.3 256.871L1241.41 255.183Z" fill="#3F3D56"/>
<path d="M1207.39 220.238C1217.23 220.238 1225.22 212.261 1225.22 202.42C1225.22 192.579 1217.23 184.601 1207.39 184.601C1197.54 184.601 1189.56 192.579 1189.56 202.42C1189.56 212.261 1197.54 220.238 1207.39 220.238Z" fill="#FFB6B6"/>
<path d="M1202.52 219.302L1216.11 218.609C1217.85 218.521 1219.75 218.367 1221.02 217.169C1221.7 216.43 1222.23 215.56 1222.56 214.612C1223.82 211.695 1225.07 208.778 1226.3 205.848C1227.99 201.795 1229.66 197.515 1229.22 193.144C1229.12 191.148 1228.28 189.26 1226.87 187.845C1226.15 187.163 1225.22 186.739 1224.24 186.639C1223.25 186.539 1222.26 186.768 1221.41 187.292C1221.2 185.909 1220.68 184.592 1219.89 183.441C1219.1 182.289 1218.05 181.333 1216.83 180.645C1214.37 179.287 1211.56 178.692 1208.77 178.935C1204.7 179.197 1200.83 180.724 1197.68 183.303C1196.79 184.119 1195.85 184.868 1194.85 185.543C1194.35 185.878 1193.78 186.108 1193.19 186.217C1192.6 186.327 1191.99 186.315 1191.4 186.181C1190.81 186.025 1190.31 185.664 1189.97 185.164C1189.63 184.663 1189.49 184.058 1189.56 183.46C1188.61 184.175 1187.95 185.221 1187.72 186.393C1187.49 187.566 1187.71 188.781 1188.33 189.802C1187.63 190.097 1186.86 190.205 1186.1 190.115C1185.34 190.026 1184.62 189.741 1184 189.289C1183.34 189.617 1182.75 190.079 1182.28 190.646C1181.81 191.213 1181.46 191.872 1181.26 192.582C1181.05 193.291 1181 194.035 1181.1 194.765C1181.21 195.496 1181.46 196.197 1181.85 196.824C1182.24 197.451 1182.75 197.99 1183.36 198.406C1183.97 198.822 1184.66 199.107 1185.39 199.242C1186.11 199.377 1186.86 199.358 1187.58 199.188C1188.29 199.018 1188.97 198.7 1189.56 198.255C1190.38 199.409 1190.07 200.978 1189.97 202.393C1189.86 203.808 1190.24 205.566 1191.6 205.957C1193.45 206.485 1194.94 204.003 1196.86 204.029C1197.33 204.068 1197.79 204.222 1198.19 204.479C1198.59 204.737 1198.92 205.088 1199.15 205.503C1199.6 206.337 1199.91 207.24 1200.07 208.176L1202.52 219.225" fill="#2F2E41"/>
<path d="M1111.49 247.653C1104.7 247.657 1098.05 245.689 1092.36 241.988L1089.5 240.128L1092.9 240.505C1093.78 240.603 1094.74 240.661 1095.74 240.675C1100.32 240.679 1104.8 239.363 1108.64 236.886C1106.36 236.392 1104.24 235.309 1102.5 233.746C1100.76 232.183 1099.46 230.193 1098.73 227.974L1098.31 226.665L1099.66 226.929C1100.27 227.051 1100.89 227.121 1101.52 227.139C1099.38 226.038 1097.58 224.37 1096.32 222.317C1095.07 220.264 1094.4 217.905 1094.39 215.498V214.112L1095.6 214.645C1096.32 215.048 1097.08 215.37 1097.86 215.606C1096 213.518 1094.85 210.897 1094.56 208.115C1094.27 205.332 1094.87 202.531 1096.27 200.107L1096.86 199.09L1097.6 200.003C1102.99 206.672 1110.72 211.043 1119.21 212.231C1119.45 212.264 1119.68 212.247 1119.91 212.179C1120.14 212.112 1120.34 211.997 1120.52 211.841C1120.7 211.684 1120.85 211.491 1120.95 211.273C1121.04 211.055 1121.1 210.819 1121.1 210.58C1121.08 207.992 1121.83 205.457 1123.25 203.297C1124.68 201.138 1126.72 199.452 1129.11 198.455C1131.5 197.458 1134.13 197.195 1136.67 197.699C1139.21 198.202 1141.54 199.451 1143.37 201.284C1145.87 200.739 1148.27 199.798 1150.47 198.497L1152.33 197.397L1151.65 199.447C1151.03 201.349 1149.97 203.084 1148.57 204.518C1149.82 204.195 1151.03 203.774 1152.2 203.259L1154.72 202.152L1153.21 204.446C1151.6 206.88 1149.59 209.024 1147.26 210.788V211.957C1147.26 229.504 1133.91 247.653 1111.56 247.653L1111.49 247.653Z" fill="#102E4A"/>
<path d="M1127.5 235.159C1128.55 235.116 1129.6 235.304 1130.57 235.709C1131.54 236.115 1132.41 236.728 1133.12 237.506C1133.83 238.285 1134.36 239.208 1134.67 240.213C1134.98 241.218 1135.07 242.279 1134.93 243.321L1149.14 251.615L1146.2 261.474L1126.3 249.479C1124.56 249.124 1123.02 248.146 1121.95 246.728C1120.89 245.31 1120.39 243.552 1120.53 241.787C1120.68 240.022 1121.47 238.373 1122.76 237.151C1124.04 235.929 1125.73 235.221 1127.5 235.159V235.159Z" fill="#FFB6B6"/>
<path d="M1144.23 266.109L1133.62 254.632L1140.97 243.64L1148.9 250.289L1157.57 252.361L1169.8 256.997C1171.5 254.02 1184.72 231.559 1193.27 235.719C1194.28 236.164 1195.19 236.825 1195.93 237.654C1196.66 238.484 1197.21 239.463 1197.53 240.524C1199.03 245.596 1195.38 251.723 1195.24 251.951L1187.82 267.174C1187.67 268.072 1186.01 277.343 1181.32 280.629C1180.66 281.113 1179.9 281.454 1179.1 281.631C1178.3 281.808 1177.47 281.816 1176.67 281.656C1162.11 278.905 1151.85 274.649 1146.62 269.237C1145.69 268.297 1144.89 267.246 1144.23 266.109Z" fill="#3F3D56"/>
<path d="M955.461 221.738C953.827 218.227 956.42 214.307 957.345 210.527C959.071 203.473 954.207 195.836 947.613 193.392C941.02 190.948 933.443 192.991 927.779 197.268C922.226 201.46 918.323 203.435 914.499 209.359C913.216 211.346 911.858 217.514 911.615 219.893C911.372 222.272 912.604 224.998 914.85 225.52C914.635 225.944 914.54 226.42 914.576 226.894C914.613 227.369 914.779 227.824 915.056 228.211C915.334 228.597 915.712 228.901 916.15 229.087C916.588 229.274 917.068 229.337 917.54 229.27C921.838 228.44 929.732 230.721 929.732 230.721C937.092 231.142 944.452 231.563 951.812 231.984C953.698 232.092 955.655 232.19 957.35 231.149C957.818 230.875 958.222 230.502 958.533 230.057C958.844 229.612 959.056 229.105 959.152 228.571C959.583 225.785 956.587 224.159 955.461 221.738Z" fill="#2F2E41"/>
<path d="M961.018 252.461L959.408 263.175L956.853 280.149L956.421 286.438L953.242 332.532L944.488 339.262C939.42 343.158 933.094 345.053 926.716 344.586C920.339 344.118 914.357 341.32 909.912 336.726L899.282 331.612C904.979 326.01 903.92 300.052 903.92 300.052L903.856 249.065L918.265 244.222L923.012 234.885H940.039L944.296 244.811L952.022 248.342L955.541 249.959L961.018 252.461Z" fill="#E6E6E6"/>
<path d="M932.229 230.096C940.18 230.096 946.625 223.654 946.625 215.708C946.625 207.762 940.18 201.32 932.229 201.32C924.278 201.32 917.832 207.762 917.832 215.708C917.832 223.654 924.278 230.096 932.229 230.096Z" fill="#9E616A"/>
<path d="M924.003 211.195C920.2 211.201 916.488 210.03 913.376 207.844L913.272 207.771C913.272 205.934 913.635 204.114 914.338 202.416C915.042 200.718 916.074 199.175 917.374 197.876C918.674 196.576 920.218 195.545 921.917 194.842C923.616 194.139 925.437 193.777 927.276 193.777H932.992C934.819 193.779 936.627 194.141 938.314 194.842C940.001 195.544 941.532 196.571 942.821 197.865C944.11 199.158 945.131 200.694 945.826 202.382C946.52 204.071 946.875 205.88 946.869 207.706C946.857 208.539 946.52 209.335 945.93 209.924C945.339 210.512 944.543 210.848 943.709 210.858L924.332 211.192C924.222 211.194 924.112 211.195 924.003 211.195Z" fill="#2F2E41"/>
<path d="M966.146 282.04L953.105 282.147L952.147 305.343L941.551 318.307C940.262 318.524 939.058 319.093 938.073 319.95C937.087 320.808 936.357 321.921 935.965 323.167C935.572 324.413 935.532 325.744 935.849 327.011C936.165 328.278 936.826 329.434 937.758 330.349C938.691 331.265 939.858 331.905 941.132 332.199C942.405 332.493 943.735 332.43 944.975 332.016C946.215 331.602 947.316 330.854 948.157 329.854C948.998 328.854 949.546 327.641 949.74 326.35L964.336 306.128L966.146 282.04Z" fill="#9E616A"/>
<path d="M897.385 282.733L884.017 276.488L869.42 294.549L853.182 298.653C852.017 298.06 850.711 297.8 849.408 297.902C848.105 298.004 846.856 298.464 845.798 299.231C844.74 299.998 843.915 301.042 843.413 302.249C842.912 303.455 842.754 304.777 842.957 306.067C843.16 307.357 843.716 308.567 844.564 309.561C845.411 310.556 846.517 311.297 847.76 311.702C849.002 312.108 850.333 312.163 851.604 311.86C852.876 311.558 854.039 310.91 854.965 309.988L878.742 302.436L897.385 282.733Z" fill="#9E616A"/>
<path d="M939.433 228.985L944.417 222.771C944.955 222.226 945.305 221.524 945.417 220.767C945.443 220.007 944.727 219.194 944.005 219.432C943.334 219.653 939.471 209.981 938.765 209.983C938.034 209.985 937.795 209.01 937.786 208.279C937.75 205.508 940.004 208.483 940.749 205.814C941.494 203.145 944.398 205.44 946.901 204.248C949.404 203.056 952.804 203.598 954.351 205.897C955.499 207.601 955.456 209.816 955.304 211.865C954.951 216.619 954.235 221.34 953.163 225.985C952.899 227.126 952.508 228.401 951.455 228.917C950.876 229.146 950.252 229.239 949.631 229.189L941.957 229.151" fill="#2F2E41"/>
<path d="M951.391 202.269C955.309 202.269 958.485 199.095 958.485 195.179C958.485 191.263 955.309 188.089 951.391 188.089C947.472 188.089 944.296 191.263 944.296 195.179C944.296 199.095 947.472 202.269 951.391 202.269Z" fill="#2F2E41"/>
<path d="M967.346 281.815C966.58 283.148 964.948 283.68 963.459 284.091C961.444 284.651 960.855 285.219 958.84 285.779C958.038 286.006 957.229 286.233 956.421 286.438C955.093 286.795 953.745 287.073 952.384 287.268C951.241 287.431 949.893 287.431 949.149 286.545C948.654 285.783 948.455 284.868 948.588 283.971C948.879 273.08 949.172 262.189 949.468 251.299L950.085 251.511C950.363 251.328 950.652 251.162 950.951 251.015C952.371 250.292 953.947 249.929 955.541 249.959C956.453 249.966 957.359 250.107 958.23 250.377C959.582 250.806 960.824 251.524 961.871 252.482C962.917 253.439 963.742 254.613 964.289 255.922C964.996 257.897 965.333 259.986 965.282 262.083C965.289 262.402 965.289 262.721 965.296 263.04C965.339 265.763 963.955 268.486 963.998 271.208C963.965 271.975 964.071 272.741 964.31 273.47C964.594 274.193 965.147 274.796 965.36 275.547C965.573 276.292 965.225 277.313 964.452 277.37C964.998 277.311 965.55 277.405 966.046 277.641C966.542 277.877 966.963 278.245 967.263 278.706C967.563 279.166 967.729 279.7 967.744 280.249C967.758 280.798 967.621 281.34 967.346 281.815V281.815Z" fill="#E6E6E6"/>
<path d="M903.916 249.127C905.335 249.212 906.717 249.609 907.964 250.29C909.212 250.971 910.293 251.919 911.132 253.065C911.971 254.212 912.546 255.53 912.816 256.924C913.087 258.319 913.046 259.756 912.696 261.133C911.955 263.433 910.789 265.574 909.259 267.446L904.491 274.078C904.007 274.673 903.635 275.35 903.392 276.077C903.192 276.829 903.271 277.644 902.996 278.373C902.721 279.101 901.836 279.712 901.179 279.294C901.653 279.573 902.04 279.977 902.298 280.461C902.556 280.946 902.675 281.492 902.642 282.04C902.609 282.588 902.425 283.117 902.11 283.567C901.795 284.017 901.362 284.371 900.859 284.591C899.444 285.208 897.819 284.657 896.377 284.106L890.521 281.866C888.438 281.123 886.409 280.239 884.447 279.22C883.433 278.664 882.351 277.864 882.279 276.71C882.223 275.812 882.983 275.123 883.364 274.308C888.133 264.104 895.146 255.984 903.856 249.065L903.916 249.127Z" fill="#E6E6E6"/>
<path d="M910.767 310.553C910.767 304.847 906.56 300.25 901.297 300.25C894.248 299.912 887.077 299.79 879.744 299.79H877.458C870.138 299.79 862.941 299.912 855.905 300.25C850.723 300.25 846.516 304.861 846.516 310.58C846.191 315.109 846.056 319.625 846.069 324.101C846.083 328.577 846.191 333.147 846.502 337.622C846.502 343.342 850.71 347.979 855.892 347.979C863.279 348.317 870.869 348.466 878.581 348.466C886.292 348.466 893.869 348.331 901.283 347.979C906.478 347.979 910.754 343.342 910.754 337.622C911.051 333.093 911.2 328.577 911.187 324.033C911.173 319.491 911.065 315.001 910.767 310.512L910.767 310.553ZM872.438 336.608V311.648L890.865 324.115L872.438 336.608Z" fill="#102E4A"/>
<path d="M1390.82 524.695L753.182 525C752.869 524.999 752.569 524.874 752.349 524.653C752.128 524.432 752.004 524.132 752.004 523.82C752.004 523.507 752.128 523.207 752.349 522.986C752.569 522.765 752.869 522.64 753.182 522.639L1390.82 522.334C1391.13 522.335 1391.43 522.46 1391.65 522.681C1391.87 522.903 1392 523.202 1392 523.515C1392 523.827 1391.87 524.127 1391.65 524.348C1391.43 524.57 1391.13 524.694 1390.82 524.695Z" fill="#CACACA"/>
<circle cx="1069.5" cy="303.5" r="195.5" fill="#C4C4C4" fill-opacity="0.19"/>
</svg>
