<svg width="2057" height="2920" viewBox="0 0 2057 2920" fill="none" xmlns="http://www.w3.org/2000/svg">
<path d="M467.983 214.11H460.022L459.979 209.958H466.806C467.976 209.958 468.953 209.794 469.738 209.466C470.523 209.138 471.115 208.66 471.515 208.032C471.928 207.404 472.135 206.641 472.135 205.742C472.135 204.743 471.943 203.93 471.557 203.302C471.186 202.674 470.601 202.218 469.802 201.932C469.003 201.633 467.99 201.483 466.763 201.483H461.927V228H456.041V196.839H466.763C468.533 196.839 470.109 197.01 471.493 197.352C472.891 197.681 474.076 198.194 475.046 198.893C476.016 199.592 476.751 200.47 477.25 201.526C477.764 202.582 478.021 203.837 478.021 205.293C478.021 206.577 477.721 207.761 477.122 208.845C476.537 209.915 475.631 210.786 474.404 211.456C473.191 212.127 471.65 212.512 469.781 212.612L467.983 214.11ZM467.726 228H458.288L460.749 223.377H467.726C468.896 223.377 469.859 223.185 470.616 222.799C471.386 222.414 471.957 221.886 472.328 221.216C472.713 220.531 472.906 219.746 472.906 218.861C472.906 217.891 472.734 217.049 472.392 216.336C472.064 215.623 471.536 215.073 470.808 214.688C470.095 214.303 469.153 214.11 467.983 214.11H461.862L461.905 209.958H469.695L471.044 211.563C472.841 211.578 474.304 211.934 475.431 212.633C476.573 213.333 477.414 214.231 477.957 215.33C478.499 216.429 478.77 217.613 478.77 218.883C478.77 220.88 478.335 222.557 477.464 223.912C476.608 225.268 475.353 226.288 473.698 226.973C472.057 227.658 470.066 228 467.726 228ZM525.117 223.377V228H508.552V223.377H525.117ZM510.35 196.839V228H504.464V196.839H510.35ZM522.955 209.701V214.217H508.552V209.701H522.955ZM525.053 196.839V201.483H508.552V196.839H525.053ZM568.04 217.748H573.925C573.768 219.832 573.191 221.679 572.192 223.292C571.193 224.89 569.802 226.145 568.018 227.058C566.235 227.971 564.073 228.428 561.534 228.428C559.579 228.428 557.817 228.086 556.247 227.401C554.692 226.702 553.358 225.71 552.245 224.426C551.147 223.127 550.305 221.572 549.72 219.76C549.135 217.934 548.842 215.887 548.842 213.618V211.242C548.842 208.974 549.142 206.926 549.741 205.1C550.34 203.274 551.197 201.718 552.309 200.434C553.437 199.136 554.785 198.137 556.354 197.438C557.938 196.739 559.707 196.389 561.662 196.389C564.202 196.389 566.349 196.86 568.104 197.802C569.859 198.729 571.222 200.006 572.192 201.633C573.162 203.259 573.747 205.128 573.947 207.24H568.061C567.947 205.927 567.662 204.815 567.205 203.901C566.763 202.988 566.092 202.296 565.193 201.825C564.309 201.34 563.132 201.098 561.662 201.098C560.521 201.098 559.515 201.312 558.644 201.74C557.788 202.168 557.075 202.81 556.504 203.666C555.934 204.508 555.505 205.564 555.22 206.833C554.935 208.089 554.792 209.544 554.792 211.199V213.618C554.792 215.202 554.92 216.621 555.177 217.877C555.434 219.132 555.834 220.195 556.376 221.066C556.918 221.936 557.617 222.6 558.473 223.056C559.329 223.513 560.349 223.741 561.534 223.741C562.975 223.741 564.145 223.513 565.044 223.056C565.957 222.6 566.649 221.929 567.12 221.044C567.605 220.16 567.911 219.061 568.04 217.748ZM624.318 211.628V213.233C624.318 215.587 624.004 217.706 623.376 219.589C622.748 221.458 621.856 223.049 620.701 224.362C619.545 225.674 618.168 226.68 616.57 227.379C614.972 228.078 613.196 228.428 611.241 228.428C609.315 228.428 607.546 228.078 605.933 227.379C604.335 226.68 602.951 225.674 601.781 224.362C600.611 223.049 599.705 221.458 599.063 219.589C598.421 217.706 598.1 215.587 598.1 213.233V211.628C598.1 209.259 598.421 207.14 599.063 205.271C599.705 203.402 600.604 201.811 601.76 200.499C602.916 199.172 604.292 198.159 605.89 197.459C607.503 196.76 609.272 196.411 611.198 196.411C613.153 196.411 614.929 196.76 616.527 197.459C618.125 198.159 619.502 199.172 620.658 200.499C621.828 201.811 622.727 203.402 623.354 205.271C623.997 207.14 624.318 209.259 624.318 211.628ZM618.368 213.233V211.585C618.368 209.887 618.211 208.396 617.897 207.112C617.583 205.813 617.119 204.722 616.506 203.837C615.892 202.953 615.136 202.289 614.237 201.847C613.338 201.39 612.325 201.162 611.198 201.162C610.057 201.162 609.044 201.39 608.159 201.847C607.289 202.289 606.547 202.953 605.933 203.837C605.32 204.722 604.849 205.813 604.521 207.112C604.207 208.396 604.05 209.887 604.05 211.585V213.233C604.05 214.916 604.207 216.407 604.521 217.706C604.849 219.004 605.32 220.103 605.933 221.002C606.561 221.886 607.317 222.557 608.202 223.013C609.087 223.47 610.1 223.698 611.241 223.698C612.382 223.698 613.395 223.47 614.28 223.013C615.165 222.557 615.907 221.886 616.506 221.002C617.119 220.103 617.583 219.004 617.897 217.706C618.211 216.407 618.368 214.916 618.368 213.233ZM652.473 196.839H657.567L666.085 220.295L674.581 196.839H679.696L668.118 228H664.03L652.473 196.839ZM649.905 196.839H654.892L655.79 218.391V228H649.905V196.839ZM677.257 196.839H682.265V228H676.379V218.391L677.257 196.839ZM715.129 196.839V228H709.243V196.839H715.129ZM767.126 196.839V228H761.219L747.971 206.384V228H742.086V196.839H747.971L761.262 218.476V196.839H767.126ZM818.032 211.884V224.019C817.575 224.604 816.855 225.239 815.87 225.924C814.9 226.609 813.63 227.201 812.061 227.7C810.491 228.185 808.565 228.428 806.282 228.428C804.299 228.428 802.487 228.1 800.846 227.444C799.205 226.773 797.793 225.796 796.608 224.511C795.424 223.227 794.511 221.658 793.869 219.803C793.227 217.948 792.906 215.829 792.906 213.447V211.392C792.906 209.009 793.205 206.891 793.805 205.036C794.418 203.181 795.289 201.611 796.416 200.327C797.557 199.043 798.92 198.066 800.503 197.395C802.101 196.725 803.885 196.389 805.854 196.389C808.494 196.389 810.662 196.825 812.36 197.695C814.072 198.565 815.385 199.764 816.298 201.29C817.211 202.803 817.782 204.543 818.01 206.512H812.275C812.118 205.428 811.804 204.479 811.333 203.666C810.862 202.838 810.191 202.196 809.321 201.74C808.465 201.269 807.352 201.034 805.982 201.034C804.827 201.034 803.806 201.262 802.922 201.718C802.037 202.175 801.295 202.838 800.696 203.709C800.097 204.579 799.64 205.656 799.326 206.94C799.027 208.225 798.877 209.694 798.877 211.349V213.447C798.877 215.116 799.048 216.6 799.391 217.898C799.733 219.182 800.225 220.267 800.867 221.151C801.524 222.022 802.33 222.685 803.286 223.142C804.256 223.584 805.355 223.805 806.582 223.805C807.695 223.805 808.615 223.712 809.342 223.527C810.084 223.327 810.677 223.092 811.119 222.821C811.561 222.55 811.904 222.286 812.146 222.029V216.186H805.961V211.884H818.032ZM888.104 201.569L879.222 228H872.994L884.637 196.839H888.618L888.104 201.569ZM895.531 228L886.606 201.569L886.071 196.839H890.073L901.78 228H895.531ZM895.124 216.422V221.066H878.409V216.422H895.124ZM957.107 196.839H968.428C970.797 196.839 972.83 197.195 974.528 197.909C976.226 198.622 977.531 199.678 978.444 201.076C979.357 202.475 979.814 204.194 979.814 206.234C979.814 207.847 979.529 209.245 978.958 210.429C978.387 211.613 977.581 212.605 976.54 213.404C975.512 214.203 974.299 214.831 972.901 215.287L971.061 216.229H961.066L961.023 211.585H968.492C969.705 211.585 970.711 211.371 971.51 210.943C972.309 210.515 972.908 209.922 973.308 209.166C973.722 208.41 973.928 207.547 973.928 206.577C973.928 205.535 973.729 204.636 973.329 203.88C972.93 203.11 972.323 202.517 971.51 202.104C970.697 201.69 969.669 201.483 968.428 201.483H962.992V228H957.107V196.839ZM974.699 228L967.486 214.046L973.714 214.025L981.013 227.7V228H974.699ZM1026.23 223.377V228H1009.66V223.377H1026.23ZM1011.46 196.839V228H1005.57V196.839H1011.46ZM1024.06 209.701V214.217H1009.66V209.701H1024.06ZM1026.16 196.839V201.483H1009.66V196.839H1026.16ZM1064.72 196.839V228H1058.85V196.839H1064.72ZM1074.39 196.839V201.483H1049.29V196.839H1074.39ZM1109.12 201.569L1100.24 228H1094.01L1105.65 196.839H1109.63L1109.12 201.569ZM1116.54 228L1107.62 201.569L1107.08 196.839H1111.09L1122.79 228H1116.54ZM1116.14 216.422V221.066H1099.42V216.422H1116.14ZM1152.88 196.839V228H1146.99V196.839H1152.88ZM1204.87 196.839V228H1198.97L1185.72 206.384V228H1179.83V196.839H1185.72L1199.01 218.476V196.839H1204.87ZM1252.12 223.377V228H1235.55V223.377H1252.12ZM1237.35 196.839V228H1231.47V196.839H1237.35ZM1249.96 209.701V214.217H1235.55V209.701H1249.96ZM1252.05 196.839V201.483H1235.55V196.839H1252.05ZM1276.81 196.839H1288.13C1290.5 196.839 1292.53 197.195 1294.23 197.909C1295.93 198.622 1297.23 199.678 1298.14 201.076C1299.06 202.475 1299.51 204.194 1299.51 206.234C1299.51 207.847 1299.23 209.245 1298.66 210.429C1298.09 211.613 1297.28 212.605 1296.24 213.404C1295.21 214.203 1294 214.831 1292.6 215.287L1290.76 216.229H1280.77L1280.72 211.585H1288.19C1289.41 211.585 1290.41 211.371 1291.21 210.943C1292.01 210.515 1292.61 209.922 1293.01 209.166C1293.42 208.41 1293.63 207.547 1293.63 206.577C1293.63 205.535 1293.43 204.636 1293.03 203.88C1292.63 203.11 1292.02 202.517 1291.21 202.104C1290.4 201.69 1289.37 201.483 1288.13 201.483H1282.69V228H1276.81V196.839ZM1294.4 228L1287.19 214.046L1293.41 214.025L1300.71 227.7V228H1294.4ZM1375.02 217.748H1380.91C1380.75 219.832 1380.17 221.679 1379.18 223.292C1378.18 224.89 1376.79 226.145 1375 227.058C1373.22 227.971 1371.06 228.428 1368.52 228.428C1366.56 228.428 1364.8 228.086 1363.23 227.401C1361.68 226.702 1360.34 225.71 1359.23 224.426C1358.13 223.127 1357.29 221.572 1356.7 219.76C1356.12 217.934 1355.83 215.887 1355.83 213.618V211.242C1355.83 208.974 1356.13 206.926 1356.72 205.1C1357.32 203.274 1358.18 201.718 1359.29 200.434C1360.42 199.136 1361.77 198.137 1363.34 197.438C1364.92 196.739 1366.69 196.389 1368.65 196.389C1371.18 196.389 1373.33 196.86 1375.09 197.802C1376.84 198.729 1378.2 200.006 1379.18 201.633C1380.15 203.259 1380.73 205.128 1380.93 207.24H1375.04C1374.93 205.927 1374.64 204.815 1374.19 203.901C1373.75 202.988 1373.08 202.296 1372.18 201.825C1371.29 201.34 1370.11 201.098 1368.65 201.098C1367.5 201.098 1366.5 201.312 1365.63 201.74C1364.77 202.168 1364.06 202.81 1363.49 203.666C1362.92 204.508 1362.49 205.564 1362.2 206.833C1361.92 208.089 1361.78 209.544 1361.78 211.199V213.618C1361.78 215.202 1361.9 216.621 1362.16 217.877C1362.42 219.132 1362.82 220.195 1363.36 221.066C1363.9 221.936 1364.6 222.6 1365.46 223.056C1366.31 223.513 1367.33 223.741 1368.52 223.741C1369.96 223.741 1371.13 223.513 1372.03 223.056C1372.94 222.6 1373.63 221.929 1374.1 221.044C1374.59 220.16 1374.89 219.061 1375.02 217.748ZM1425.84 223.377V228H1410.18V223.377H1425.84ZM1411.95 196.839V228H1406.07V196.839H1411.95ZM1456.65 196.839V228H1450.77V196.839H1456.65ZM1504.26 223.377V228H1487.7V223.377H1504.26ZM1489.5 196.839V228H1483.61V196.839H1489.5ZM1502.1 209.701V214.217H1487.7V209.701H1502.1ZM1504.2 196.839V201.483H1487.7V196.839H1504.2ZM1553.99 196.839V228H1548.08L1534.84 206.384V228H1528.95V196.839H1534.84L1548.13 218.476V196.839H1553.99ZM1593.32 196.839V228H1587.45V196.839H1593.32ZM1602.99 196.839V201.483H1577.89V196.839H1602.99Z" fill="#102E4A"/>
<path d="M362.721 1957.1L334.388 2055H311.947L293.012 1986.69L273.516 2055H251.074L223.303 1957.1H244.342L263.136 2032.7L282.913 1957.1H305.214L323.869 2032L341.542 1957.1H362.721ZM446.951 2015.03C446.951 2017.74 446.764 2020.26 446.39 2022.6H389.725C390.193 2027.65 392.063 2031.72 395.336 2034.8C398.608 2037.89 402.769 2039.43 407.819 2039.43C411.746 2039.43 414.878 2038.68 417.216 2037.19C419.554 2035.69 421.471 2033.63 422.967 2031.02H444.286C442.042 2038.4 437.694 2044.43 431.242 2049.11C424.79 2053.78 416.982 2056.12 407.819 2056.12C400.432 2056.12 393.839 2054.49 388.042 2051.21C382.245 2047.85 377.71 2043.17 374.437 2037.19C371.164 2031.11 369.528 2024.05 369.528 2016.01C369.528 2007.97 371.164 2000.95 374.437 1994.97C377.71 1988.98 382.245 1984.36 388.042 1981.08C393.933 1977.81 400.619 1976.17 408.099 1976.17C415.58 1976.17 422.219 1977.76 428.016 1980.94C433.907 1984.12 438.536 1988.66 441.902 1994.55C445.268 2000.35 446.951 2007.17 446.951 2015.03ZM426.473 2009.84C426.193 2004.69 424.276 2000.58 420.723 1997.49C417.263 1994.41 412.962 1992.86 407.819 1992.86C403.05 1992.86 398.982 1994.41 395.616 1997.49C392.343 2000.58 390.38 2004.69 389.725 2009.84H426.473ZM602.054 1976.17C611.311 1976.17 618.745 1979.07 624.356 1984.87C630.06 1990.67 632.911 1998.8 632.911 2009.28V2055H613.275V2012.08C613.275 2006 611.732 2001.37 608.647 1998.19C605.561 1994.92 601.353 1993.29 596.023 1993.29C590.693 1993.29 586.439 1994.92 583.26 1998.19C580.174 2001.37 578.631 2006 578.631 2012.08V2055H558.995V2012.08C558.995 2006 557.452 2001.37 554.366 1998.19C551.28 1994.92 547.073 1993.29 541.743 1993.29C536.413 1993.29 532.158 1994.92 528.979 1998.19C525.893 2001.37 524.35 2006 524.35 2012.08V2055H504.574V1977.3H524.35V1988.94C526.782 1984.82 530.054 1981.69 534.169 1979.54C538.376 1977.3 543.145 1976.17 548.475 1976.17C554.366 1976.17 559.602 1977.53 564.184 1980.24C568.86 1982.95 572.46 1986.83 574.984 1991.88C577.696 1987.02 581.389 1983.19 586.065 1980.38C590.834 1977.58 596.163 1976.17 602.054 1976.17ZM683.765 1976.17C689.282 1976.17 694.191 1977.34 698.493 1979.68C702.794 1982.02 706.254 1985.24 708.872 1989.36V1977.3H728.508V2055H708.872V2041.96C706.16 2046.35 702.654 2049.81 698.352 2052.34C694.145 2054.86 689.282 2056.12 683.765 2056.12C677.127 2056.12 671.049 2054.44 665.532 2051.07C660.108 2047.61 655.76 2042.84 652.488 2036.77C649.308 2030.69 647.719 2023.77 647.719 2016.01C647.719 2008.25 649.308 2001.37 652.488 1995.39C655.76 1989.31 660.108 1984.59 665.532 1981.22C671.049 1977.86 677.127 1976.17 683.765 1976.17ZM688.254 1993.29C684.794 1993.29 681.475 1994.17 678.295 1995.95C675.21 1997.73 672.685 2000.35 670.721 2003.81C668.758 2007.17 667.776 2011.24 667.776 2016.01C667.776 2020.78 668.758 2024.94 670.721 2028.49C672.685 2031.95 675.21 2034.57 678.295 2036.35C681.475 2038.12 684.794 2039.01 688.254 2039.01C691.807 2039.01 695.127 2038.12 698.212 2036.35C701.391 2034.57 703.963 2031.95 705.927 2028.49C707.89 2025.03 708.872 2020.92 708.872 2016.15C708.872 2011.38 707.89 2007.26 705.927 2003.81C703.963 2000.35 701.391 1997.73 698.212 1995.95C695.127 1994.17 691.807 1993.29 688.254 1993.29ZM769.257 1991.04C771.688 1986.37 774.821 1982.72 778.654 1980.1C782.582 1977.48 787.023 1976.17 791.979 1976.17V1996.37H787.07C781.179 1996.37 776.738 1997.87 773.745 2000.86C770.753 2003.76 769.257 2008.81 769.257 2016.01V2055H749.48V1977.3H769.257V1991.04ZM844.341 2016.57L878.845 2055H852.476L825.827 2022.6V2055H806.05V1951.21H825.827V2010.54L852.055 1977.3H878.845L844.341 2016.57ZM962.104 2015.03C962.104 2017.74 961.917 2020.26 961.543 2022.6H904.878C905.346 2027.65 907.216 2031.72 910.489 2034.8C913.761 2037.89 917.923 2039.43 922.972 2039.43C926.899 2039.43 930.032 2038.68 932.369 2037.19C934.707 2035.69 936.624 2033.63 938.12 2031.02H959.439C957.195 2038.4 952.847 2044.43 946.395 2049.11C939.943 2053.78 932.135 2056.12 922.972 2056.12C915.585 2056.12 908.993 2054.49 903.195 2051.21C897.398 2047.85 892.863 2043.17 889.59 2037.19C886.317 2031.11 884.681 2024.05 884.681 2016.01C884.681 2007.97 886.317 2000.95 889.59 1994.97C892.863 1988.98 897.398 1984.36 903.195 1981.08C909.086 1977.81 915.772 1976.17 923.252 1976.17C930.733 1976.17 937.372 1977.76 943.169 1980.94C949.06 1984.12 953.689 1988.66 957.055 1994.55C960.421 2000.35 962.104 2007.17 962.104 2015.03ZM941.626 2009.84C941.346 2004.69 939.429 2000.58 935.876 1997.49C932.416 1994.41 928.115 1992.86 922.972 1992.86C918.203 1992.86 914.135 1994.41 910.769 1997.49C907.497 2000.58 905.533 2004.69 904.878 2009.84H941.626ZM1017.23 2038.45V2055H1004.75C996.799 2055 990.674 2053.18 986.373 2049.53C982.071 2045.88 979.921 2039.85 979.921 2031.44V1993.43H971.645V1977.3H979.921V1958.08H999.697V1977.3H1017.09V1993.43H999.697V2031.44C999.697 2033.96 1000.31 2035.78 1001.52 2036.91C1002.74 2037.94 1004.84 2038.45 1007.83 2038.45H1017.23ZM1105.23 1976.17C1110.75 1976.17 1115.66 1977.34 1119.96 1979.68C1124.26 1982.02 1127.72 1985.24 1130.34 1989.36V1951.21H1149.97V2055H1130.34V2041.96C1127.62 2046.35 1124.12 2049.81 1119.82 2052.34C1115.61 2054.86 1110.75 2056.12 1105.23 2056.12C1098.59 2056.12 1092.51 2054.44 1087 2051.07C1081.57 2047.61 1077.22 2042.84 1073.95 2036.77C1070.77 2030.69 1069.18 2023.77 1069.18 2016.01C1069.18 2008.25 1070.77 2001.37 1073.95 1995.39C1077.22 1989.31 1081.57 1984.59 1087 1981.22C1092.51 1977.86 1098.59 1976.17 1105.23 1976.17ZM1109.72 1993.29C1106.26 1993.29 1102.94 1994.17 1099.76 1995.95C1096.67 1997.73 1094.15 2000.35 1092.19 2003.81C1090.22 2007.17 1089.24 2011.24 1089.24 2016.01C1089.24 2020.78 1090.22 2024.94 1092.19 2028.49C1094.15 2031.95 1096.67 2034.57 1099.76 2036.35C1102.94 2038.12 1106.26 2039.01 1109.72 2039.01C1113.27 2039.01 1116.59 2038.12 1119.68 2036.35C1122.86 2034.57 1125.43 2031.95 1127.39 2028.49C1129.35 2025.03 1130.34 2020.92 1130.34 2016.15C1130.34 2011.38 1129.35 2007.26 1127.39 2003.81C1125.43 2000.35 1122.86 1997.73 1119.68 1995.95C1116.59 1994.17 1113.27 1993.29 1109.72 1993.29ZM1168.84 1957.52C1168.84 1954.15 1170.01 1951.3 1172.35 1948.96C1174.68 1946.63 1177.49 1945.46 1180.76 1945.46C1184.13 1945.46 1186.98 1946.63 1189.32 1948.96C1191.66 1951.3 1192.83 1954.15 1192.83 1957.52C1192.83 1960.89 1191.66 1963.74 1189.32 1966.08C1186.98 1968.41 1184.13 1969.58 1180.76 1969.58C1177.49 1969.58 1174.68 1968.41 1172.35 1966.08C1170.01 1963.74 1168.84 1960.89 1168.84 1957.52ZM1190.72 1977.3V2055H1170.94V1977.3H1190.72ZM1245 1993.43H1232.66V2055H1213.02V1993.43H1204.61V1977.3H1213.02V1972.95C1213.02 1963.6 1215.5 1956.77 1220.46 1952.47C1225.41 1948.17 1233.22 1946.02 1243.88 1946.02V1962.57C1239.77 1962.57 1236.87 1963.36 1235.19 1964.95C1233.5 1966.54 1232.66 1969.21 1232.66 1972.95V1977.3H1245V1993.43ZM1291.85 1993.43H1279.51V2055H1259.87V1993.43H1251.45V1977.3H1259.87V1972.95C1259.87 1963.6 1262.35 1956.77 1267.3 1952.47C1272.26 1948.17 1280.07 1946.02 1290.73 1946.02V1962.57C1286.61 1962.57 1283.71 1963.36 1282.03 1964.95C1280.35 1966.54 1279.51 1969.21 1279.51 1972.95V1977.3H1291.85V1993.43ZM1377.4 2015.03C1377.4 2017.74 1377.22 2020.26 1376.84 2022.6H1320.18C1320.65 2027.65 1322.52 2031.72 1325.79 2034.8C1329.06 2037.89 1333.22 2039.43 1338.27 2039.43C1342.2 2039.43 1345.33 2038.68 1347.67 2037.19C1350.01 2035.69 1351.92 2033.63 1353.42 2031.02H1374.74C1372.5 2038.4 1368.15 2044.43 1361.7 2049.11C1355.24 2053.78 1347.44 2056.12 1338.27 2056.12C1330.89 2056.12 1324.29 2054.49 1318.5 2051.21C1312.7 2047.85 1308.16 2043.17 1304.89 2037.19C1301.62 2031.11 1299.98 2024.05 1299.98 2016.01C1299.98 2007.97 1301.62 2000.95 1304.89 1994.97C1308.16 1988.98 1312.7 1984.36 1318.5 1981.08C1324.39 1977.81 1331.07 1976.17 1338.55 1976.17C1346.03 1976.17 1352.67 1977.76 1358.47 1980.94C1364.36 1984.12 1368.99 1988.66 1372.36 1994.55C1375.72 2000.35 1377.4 2007.17 1377.4 2015.03ZM1356.93 2009.84C1356.65 2004.69 1354.73 2000.58 1351.18 1997.49C1347.72 1994.41 1343.42 1992.86 1338.27 1992.86C1333.5 1992.86 1329.44 1994.41 1326.07 1997.49C1322.8 2000.58 1320.83 2004.69 1320.18 2009.84H1356.93ZM1412.75 1991.04C1415.18 1986.37 1418.32 1982.72 1422.15 1980.1C1426.08 1977.48 1430.52 1976.17 1435.48 1976.17V1996.37H1430.57C1424.68 1996.37 1420.23 1997.87 1417.24 2000.86C1414.25 2003.76 1412.75 2008.81 1412.75 2016.01V2055H1392.98V1977.3H1412.75V1991.04ZM1521.5 2015.03C1521.5 2017.74 1521.31 2020.26 1520.94 2022.6H1464.27C1464.74 2027.65 1466.61 2031.72 1469.88 2034.8C1473.16 2037.89 1477.32 2039.43 1482.37 2039.43C1486.29 2039.43 1489.43 2038.68 1491.76 2037.19C1494.1 2035.69 1496.02 2033.63 1497.52 2031.02H1518.83C1516.59 2038.4 1512.24 2044.43 1505.79 2049.11C1499.34 2053.78 1491.53 2056.12 1482.37 2056.12C1474.98 2056.12 1468.39 2054.49 1462.59 2051.21C1456.79 2047.85 1452.26 2043.17 1448.99 2037.19C1445.71 2031.11 1444.08 2024.05 1444.08 2016.01C1444.08 2007.97 1445.71 2000.95 1448.99 1994.97C1452.26 1988.98 1456.79 1984.36 1462.59 1981.08C1468.48 1977.81 1475.17 1976.17 1482.65 1976.17C1490.13 1976.17 1496.77 1977.76 1502.56 1980.94C1508.46 1984.12 1513.08 1988.66 1516.45 1994.55C1519.82 2000.35 1521.5 2007.17 1521.5 2015.03ZM1501.02 2009.84C1500.74 2004.69 1498.82 2000.58 1495.27 1997.49C1491.81 1994.41 1487.51 1992.86 1482.37 1992.86C1477.6 1992.86 1473.53 1994.41 1470.16 1997.49C1466.89 2000.58 1464.93 2004.69 1464.27 2009.84H1501.02ZM1580.97 1976.17C1586.77 1976.17 1591.91 1977.48 1596.4 1980.1C1600.98 1982.63 1604.58 1986.41 1607.2 1991.46C1609.82 1996.42 1611.13 2002.36 1611.13 2009.28V2055H1591.49V2012.08C1591.49 2006 1589.95 2001.37 1586.86 1998.19C1583.78 1994.92 1579.57 1993.29 1574.24 1993.29C1568.91 1993.29 1564.66 1994.92 1561.48 1998.19C1558.39 2001.37 1556.85 2006 1556.85 2012.08V2055H1537.07V1977.3H1556.85V1988.94C1559.28 1984.82 1562.55 1981.69 1566.67 1979.54C1570.87 1977.3 1575.64 1976.17 1580.97 1976.17ZM1671 2038.45V2055H1658.52C1650.57 2055 1644.44 2053.18 1640.14 2049.53C1635.84 2045.88 1633.69 2039.85 1633.69 2031.44V1993.43H1625.41V1977.3H1633.69V1958.08H1653.47V1977.3H1670.86V1993.43H1653.47V2031.44C1653.47 2033.96 1654.07 2035.78 1655.29 2036.91C1656.51 2037.94 1658.61 2038.45 1661.6 2038.45H1671ZM1706.15 1951.21V2055H1686.37V1951.21H1706.15ZM1739.81 1977.3L1759.59 2032.56L1780.49 1977.3H1801.11L1752.58 2091.75H1731.96L1748.09 2053.6L1717.65 1977.3H1739.81ZM1808.17 2043.78C1808.17 2040.6 1809.25 2037.94 1811.4 2035.78C1813.55 2033.63 1816.17 2032.56 1819.25 2032.56C1822.43 2032.56 1825.1 2033.63 1827.25 2035.78C1829.49 2037.94 1830.61 2040.6 1830.61 2043.78C1830.61 2046.96 1829.49 2049.62 1827.25 2051.77C1825.1 2053.92 1822.43 2055 1819.25 2055C1816.17 2055 1813.55 2053.92 1811.4 2051.77C1809.25 2049.62 1808.17 2046.96 1808.17 2043.78Z" fill="black"/>
<path d="M257.825 2265.46V2271.84H236.691V2286.95H253.168V2293.26H236.691V2315.25H228.524V2265.46H257.825ZM282.874 2275.13C286.647 2275.13 290.062 2275.97 293.119 2277.64C296.175 2279.31 298.587 2281.7 300.354 2284.8C302.121 2287.91 303.005 2291.47 303.005 2295.48C303.005 2299.49 302.097 2303.05 300.283 2306.15C298.468 2309.26 295.984 2311.67 292.832 2313.39C289.728 2315.06 286.289 2315.89 282.516 2315.89C278.79 2315.89 275.423 2315.06 272.414 2313.39C269.405 2311.67 267.041 2309.28 265.322 2306.22C263.603 2303.12 262.743 2299.54 262.743 2295.48C262.743 2291.47 263.626 2287.91 265.394 2284.8C267.161 2281.7 269.573 2279.31 272.629 2277.64C275.686 2275.97 279.101 2275.13 282.874 2275.13ZM282.731 2282.01C280.629 2282.01 278.695 2282.53 276.928 2283.58C275.161 2284.59 273.728 2286.12 272.629 2288.17C271.579 2290.18 271.053 2292.61 271.053 2295.48C271.053 2298.34 271.555 2300.8 272.558 2302.86C273.608 2304.91 274.993 2306.46 276.713 2307.51C278.48 2308.52 280.414 2309.02 282.516 2309.02C284.617 2309.02 286.575 2308.49 288.39 2307.44C290.253 2306.39 291.757 2304.86 292.904 2302.86C294.05 2300.8 294.623 2298.34 294.623 2295.48C294.623 2292.61 294.074 2290.18 292.975 2288.17C291.877 2286.12 290.42 2284.59 288.605 2283.58C286.79 2282.53 284.832 2282.01 282.731 2282.01ZM319.246 2282.65C320.44 2280.27 322.016 2278.43 323.974 2277.14C325.98 2275.8 328.344 2275.13 331.066 2275.13V2283.58H328.989C325.789 2283.58 323.353 2284.4 321.681 2286.02C320.057 2287.64 319.246 2290.46 319.246 2294.47V2315.25H311.078V2275.78H319.246V2282.65ZM375.956 2275.13C379.06 2275.13 381.783 2275.85 384.123 2277.28C386.511 2278.67 388.35 2280.5 389.639 2282.8V2275.78H397.878V2315.25H389.639V2307.87C388.302 2310.31 386.463 2312.26 384.123 2313.75C381.783 2315.18 379.06 2315.89 375.956 2315.89C372.517 2315.89 369.365 2315.04 366.499 2313.32C363.681 2311.55 361.437 2309.11 359.765 2306.01C358.141 2302.86 357.329 2299.3 357.329 2295.33C357.329 2291.37 358.141 2287.86 359.765 2284.8C361.437 2281.75 363.681 2279.38 366.499 2277.71C369.365 2275.99 372.517 2275.13 375.956 2275.13ZM377.675 2282.22C375.574 2282.22 373.616 2282.75 371.801 2283.8C369.986 2284.8 368.505 2286.31 367.359 2288.31C366.26 2290.27 365.711 2292.61 365.711 2295.33C365.711 2298.06 366.26 2300.44 367.359 2302.5C368.505 2304.55 369.986 2306.13 371.801 2307.23C373.663 2308.28 375.622 2308.8 377.675 2308.8C379.777 2308.8 381.735 2308.28 383.55 2307.23C385.365 2306.18 386.821 2304.65 387.92 2302.64C389.066 2300.59 389.639 2298.2 389.639 2295.48C389.639 2292.75 389.066 2290.39 387.92 2288.38C386.821 2286.38 385.365 2284.85 383.55 2283.8C381.735 2282.75 379.777 2282.22 377.675 2282.22ZM438.25 2282.65C439.444 2280.27 441.02 2278.43 442.978 2277.14C444.984 2275.8 447.349 2275.13 450.071 2275.13V2283.58H447.993C444.793 2283.58 442.358 2284.4 440.686 2286.02C439.062 2287.64 438.25 2290.46 438.25 2294.47V2315.25H430.083V2275.78H438.25V2282.65ZM493.757 2294.4C493.757 2295.79 493.661 2297.08 493.47 2298.27H463.238C463.429 2301.57 464.527 2304.19 466.533 2306.15C468.587 2308.06 471.142 2309.02 474.199 2309.02C478.64 2309.02 481.769 2307.18 483.584 2303.5H492.395C491.201 2307.13 489.028 2310.12 485.876 2312.46C482.724 2314.75 478.831 2315.89 474.199 2315.89C470.426 2315.89 467.082 2315.06 464.169 2313.39C461.256 2311.67 458.963 2309.28 457.292 2306.22C455.668 2303.12 454.856 2299.54 454.856 2295.48C454.856 2291.42 455.668 2287.86 457.292 2284.8C458.963 2281.7 461.28 2279.31 464.241 2277.64C467.25 2275.97 470.688 2275.13 474.557 2275.13C478.282 2275.13 481.602 2275.94 484.515 2277.57C487.428 2279.19 489.697 2281.46 491.321 2284.37C492.945 2287.29 493.757 2290.63 493.757 2294.4ZM485.231 2292.68C485.184 2289.44 484.109 2286.86 482.008 2284.95C479.906 2282.99 477.303 2282.01 474.199 2282.01C471.285 2282.01 468.802 2282.99 466.748 2284.95C464.742 2286.86 463.596 2289.44 463.309 2292.68H485.231ZM511.322 2282.44V2304.29C511.322 2305.77 511.656 2306.84 512.325 2307.51C513.041 2308.13 514.235 2308.44 515.907 2308.44H520.922V2315.25H514.474C510.797 2315.25 507.979 2314.39 506.021 2312.67C504.062 2310.95 503.083 2308.16 503.083 2304.29V2282.44H498.427V2275.78H503.083V2265.96H511.322V2275.78H520.922V2282.44H511.322ZM544.353 2275.13C547.458 2275.13 550.18 2275.85 552.52 2277.28C554.908 2278.67 556.747 2280.5 558.037 2282.8V2275.78H566.275V2315.25H558.037V2307.87C556.699 2310.31 554.861 2312.26 552.52 2313.75C550.18 2315.18 547.458 2315.89 544.353 2315.89C540.915 2315.89 537.762 2315.04 534.897 2313.32C532.079 2311.55 529.834 2309.11 528.163 2306.01C526.539 2302.86 525.727 2299.3 525.727 2295.33C525.727 2291.37 526.539 2287.86 528.163 2284.8C529.834 2281.75 532.079 2279.38 534.897 2277.71C537.762 2275.99 540.915 2275.13 544.353 2275.13ZM546.073 2282.22C543.971 2282.22 542.013 2282.75 540.198 2283.8C538.383 2284.8 536.903 2286.31 535.757 2288.31C534.658 2290.27 534.109 2292.61 534.109 2295.33C534.109 2298.06 534.658 2300.44 535.757 2302.5C536.903 2304.55 538.383 2306.13 540.198 2307.23C542.061 2308.28 544.019 2308.8 546.073 2308.8C548.174 2308.8 550.132 2308.28 551.947 2307.23C553.762 2306.18 555.219 2304.65 556.317 2302.64C557.464 2300.59 558.037 2298.2 558.037 2295.48C558.037 2292.75 557.464 2290.39 556.317 2288.38C555.219 2286.38 553.762 2284.85 551.947 2283.8C550.132 2282.75 548.174 2282.22 546.073 2282.22ZM575.928 2265.32C575.928 2263.84 576.429 2262.59 577.432 2261.59C578.435 2260.59 579.677 2260.09 581.158 2260.09C582.59 2260.09 583.808 2260.59 584.811 2261.59C585.814 2262.59 586.316 2263.84 586.316 2265.32C586.316 2266.8 585.814 2268.04 584.811 2269.04C583.808 2270.04 582.59 2270.55 581.158 2270.55C579.677 2270.55 578.435 2270.04 577.432 2269.04C576.429 2268.04 575.928 2266.8 575.928 2265.32ZM585.17 2275.78V2315.25H577.003V2275.78H585.17ZM616.668 2275.13C619.534 2275.13 622.113 2275.78 624.405 2277.07C626.745 2278.36 628.584 2280.27 629.921 2282.8C631.306 2285.33 631.999 2288.38 631.999 2291.97V2315.25H623.904V2293.18C623.904 2289.65 623.02 2286.95 621.253 2285.09C619.486 2283.18 617.074 2282.22 614.017 2282.22C610.961 2282.22 608.525 2283.18 606.71 2285.09C604.943 2286.95 604.059 2289.65 604.059 2293.18V2315.25H595.892V2275.78H604.059V2282.01C605.349 2279.76 607.068 2278.07 609.217 2276.92C611.414 2275.73 613.898 2275.13 616.668 2275.13ZM678.595 2294.4C678.595 2295.79 678.5 2297.08 678.309 2298.27H648.076C648.267 2301.57 649.366 2304.19 651.372 2306.15C653.425 2308.06 655.981 2309.02 659.037 2309.02C663.479 2309.02 666.607 2307.18 668.422 2303.5H677.234C676.04 2307.13 673.867 2310.12 670.715 2312.46C667.562 2314.75 663.67 2315.89 659.037 2315.89C655.264 2315.89 651.921 2315.06 649.008 2313.39C646.094 2311.67 643.802 2309.28 642.13 2306.22C640.506 2303.12 639.694 2299.54 639.694 2295.48C639.694 2291.42 640.506 2287.86 642.13 2284.8C643.802 2281.7 646.118 2279.31 649.079 2277.64C652.088 2275.97 655.527 2275.13 659.395 2275.13C663.121 2275.13 666.44 2275.94 669.353 2277.57C672.267 2279.19 674.536 2281.46 676.159 2284.37C677.783 2287.29 678.595 2290.63 678.595 2294.4ZM670.07 2292.68C670.022 2289.44 668.948 2286.86 666.846 2284.95C664.745 2282.99 662.142 2282.01 659.037 2282.01C656.124 2282.01 653.64 2282.99 651.587 2284.95C649.581 2286.86 648.434 2289.44 648.148 2292.68H670.07ZM694.799 2282.65C695.993 2280.27 697.569 2278.43 699.528 2277.14C701.534 2275.8 703.898 2275.13 706.62 2275.13V2283.58H704.542C701.343 2283.58 698.907 2284.4 697.235 2286.02C695.611 2287.64 694.799 2290.46 694.799 2294.47V2315.25H686.632V2275.78H694.799V2282.65ZM752.154 2282.44H744.847V2315.25H736.608V2282.44H731.952V2275.78H736.608V2272.98C736.608 2268.44 737.802 2265.15 740.19 2263.1C742.626 2260.99 746.423 2259.94 751.581 2259.94V2266.75C749.098 2266.75 747.354 2267.23 746.352 2268.18C745.349 2269.09 744.847 2270.69 744.847 2272.98V2275.78H752.154V2282.44ZM795.571 2294.4C795.571 2295.79 795.475 2297.08 795.284 2298.27H765.052C765.243 2301.57 766.341 2304.19 768.347 2306.15C770.401 2308.06 772.956 2309.02 776.013 2309.02C780.455 2309.02 783.583 2307.18 785.398 2303.5H794.21C793.016 2307.13 790.843 2310.12 787.69 2312.46C784.538 2314.75 780.646 2315.89 776.013 2315.89C772.24 2315.89 768.897 2315.06 765.983 2313.39C763.07 2311.67 760.777 2309.28 759.106 2306.22C757.482 2303.12 756.67 2299.54 756.67 2295.48C756.67 2291.42 757.482 2287.86 759.106 2284.8C760.777 2281.7 763.094 2279.31 766.055 2277.64C769.064 2275.97 772.503 2275.13 776.371 2275.13C780.096 2275.13 783.416 2275.94 786.329 2277.57C789.243 2279.19 791.511 2281.46 793.135 2284.37C794.759 2287.29 795.571 2290.63 795.571 2294.4ZM787.046 2292.68C786.998 2289.44 785.923 2286.86 783.822 2284.95C781.72 2282.99 779.117 2282.01 776.013 2282.01C773.1 2282.01 770.616 2282.99 768.562 2284.95C766.556 2286.86 765.41 2289.44 765.124 2292.68H787.046ZM839.787 2294.4C839.787 2295.79 839.691 2297.08 839.5 2298.27H809.268C809.459 2301.57 810.557 2304.19 812.563 2306.15C814.617 2308.06 817.172 2309.02 820.229 2309.02C824.67 2309.02 827.799 2307.18 829.614 2303.5H838.425C837.231 2307.13 835.058 2310.12 831.906 2312.46C828.754 2314.75 824.861 2315.89 820.229 2315.89C816.456 2315.89 813.112 2315.06 810.199 2313.39C807.286 2311.67 804.993 2309.28 803.322 2306.22C801.698 2303.12 800.886 2299.54 800.886 2295.48C800.886 2291.42 801.698 2287.86 803.322 2284.8C804.993 2281.7 807.31 2279.31 810.271 2277.64C813.28 2275.97 816.718 2275.13 820.587 2275.13C824.312 2275.13 827.632 2275.94 830.545 2277.57C833.458 2279.19 835.727 2281.46 837.351 2284.37C838.975 2287.29 839.787 2290.63 839.787 2294.4ZM831.261 2292.68C831.214 2289.44 830.139 2286.86 828.038 2284.95C825.936 2282.99 823.333 2282.01 820.229 2282.01C817.315 2282.01 814.832 2282.99 812.778 2284.95C810.772 2286.86 809.626 2289.44 809.339 2292.68H831.261ZM852.767 2309.66C853.627 2312.72 854.057 2315.27 854.057 2317.33C854.057 2320.19 853.364 2322.41 851.979 2323.99C850.594 2325.57 848.492 2326.35 845.675 2326.35V2322.77C846.869 2322.77 847.728 2322.49 848.254 2321.91C848.827 2321.34 849.113 2320.38 849.113 2319.05V2317.54H845.03V2309.66H852.767ZM936.798 2275.78L924.548 2315.25H915.951L907.999 2286.09L900.046 2315.25H891.45L879.127 2275.78H887.438L895.676 2307.51L904.058 2275.78H912.584L920.607 2307.37L928.774 2275.78H936.798ZM979.08 2294.4C979.08 2295.79 978.985 2297.08 978.794 2298.27H948.561C948.752 2301.57 949.851 2304.19 951.857 2306.15C953.91 2308.06 956.466 2309.02 959.522 2309.02C963.964 2309.02 967.092 2307.18 968.907 2303.5H977.719C976.525 2307.13 974.352 2310.12 971.2 2312.46C968.047 2314.75 964.155 2315.89 959.522 2315.89C955.749 2315.89 952.406 2315.06 949.493 2313.39C946.579 2311.67 944.287 2309.28 942.615 2306.22C940.991 2303.12 940.179 2299.54 940.179 2295.48C940.179 2291.42 940.991 2287.86 942.615 2284.8C944.287 2281.7 946.603 2279.31 949.564 2277.64C952.573 2275.97 956.012 2275.13 959.88 2275.13C963.606 2275.13 966.925 2275.94 969.839 2277.57C972.752 2279.19 975.021 2281.46 976.644 2284.37C978.268 2287.29 979.08 2290.63 979.08 2294.4ZM970.555 2292.68C970.507 2289.44 969.433 2286.86 967.331 2284.95C965.23 2282.99 962.627 2282.01 959.522 2282.01C956.609 2282.01 954.125 2282.99 952.072 2284.95C950.066 2286.86 948.919 2289.44 948.633 2292.68H970.555ZM1018.12 2282.44V2304.29C1018.12 2305.77 1018.46 2306.84 1019.13 2307.51C1019.84 2308.13 1021.04 2308.44 1022.71 2308.44H1027.72V2315.25H1021.28C1017.6 2315.25 1014.78 2314.39 1012.82 2312.67C1010.86 2310.95 1009.89 2308.16 1009.89 2304.29V2282.44H1005.23V2275.78H1009.89V2265.96H1018.12V2275.78H1027.72V2282.44H1018.12ZM1051.16 2275.13C1054.26 2275.13 1056.98 2275.85 1059.32 2277.28C1061.71 2278.67 1063.55 2280.5 1064.84 2282.8V2275.78H1073.08V2315.25H1064.84V2307.87C1063.5 2310.31 1061.66 2312.26 1059.32 2313.75C1056.98 2315.18 1054.26 2315.89 1051.16 2315.89C1047.72 2315.89 1044.56 2315.04 1041.7 2313.32C1038.88 2311.55 1036.64 2309.11 1034.96 2306.01C1033.34 2302.86 1032.53 2299.3 1032.53 2295.33C1032.53 2291.37 1033.34 2287.86 1034.96 2284.8C1036.64 2281.75 1038.88 2279.38 1041.7 2277.71C1044.56 2275.99 1047.72 2275.13 1051.16 2275.13ZM1052.87 2282.22C1050.77 2282.22 1048.81 2282.75 1047 2283.8C1045.19 2284.8 1043.7 2286.31 1042.56 2288.31C1041.46 2290.27 1040.91 2292.61 1040.91 2295.33C1040.91 2298.06 1041.46 2300.44 1042.56 2302.5C1043.7 2304.55 1045.19 2306.13 1047 2307.23C1048.86 2308.28 1050.82 2308.8 1052.87 2308.8C1054.98 2308.8 1056.93 2308.28 1058.75 2307.23C1060.56 2306.18 1062.02 2304.65 1063.12 2302.64C1064.27 2300.59 1064.84 2298.2 1064.84 2295.48C1064.84 2292.75 1064.27 2290.39 1063.12 2288.38C1062.02 2286.38 1060.56 2284.85 1058.75 2283.8C1056.93 2282.75 1054.98 2282.22 1052.87 2282.22ZM1099.42 2295.55L1117.62 2315.25H1106.59L1091.97 2298.27V2315.25H1083.8V2262.24H1091.97V2293.04L1106.3 2275.78H1117.62L1099.42 2295.55ZM1159.65 2294.4C1159.65 2295.79 1159.56 2297.08 1159.36 2298.27H1129.13C1129.32 2301.57 1130.42 2304.19 1132.43 2306.15C1134.48 2308.06 1137.04 2309.02 1140.09 2309.02C1144.53 2309.02 1147.66 2307.18 1149.48 2303.5H1158.29C1157.1 2307.13 1154.92 2310.12 1151.77 2312.46C1148.62 2314.75 1144.73 2315.89 1140.09 2315.89C1136.32 2315.89 1132.98 2315.06 1130.06 2313.39C1127.15 2311.67 1124.86 2309.28 1123.19 2306.22C1121.56 2303.12 1120.75 2299.54 1120.75 2295.48C1120.75 2291.42 1121.56 2287.86 1123.19 2284.8C1124.86 2281.7 1127.17 2279.31 1130.14 2277.64C1133.14 2275.97 1136.58 2275.13 1140.45 2275.13C1144.18 2275.13 1147.5 2275.94 1150.41 2277.57C1153.32 2279.19 1155.59 2281.46 1157.22 2284.37C1158.84 2287.29 1159.65 2290.63 1159.65 2294.4ZM1151.13 2292.68C1151.08 2289.44 1150 2286.86 1147.9 2284.95C1145.8 2282.99 1143.2 2282.01 1140.09 2282.01C1137.18 2282.01 1134.7 2282.99 1132.64 2284.95C1130.64 2286.86 1129.49 2289.44 1129.2 2292.68H1151.13ZM1205.79 2275.13C1210.56 2275.13 1214.5 2276.28 1217.61 2278.57C1220.76 2280.81 1222.89 2284.04 1223.98 2288.24H1215.17C1214.46 2286.28 1213.31 2284.75 1211.73 2283.66C1210.16 2282.56 1208.18 2282.01 1205.79 2282.01C1202.44 2282.01 1199.77 2283.2 1197.76 2285.59C1195.81 2287.93 1194.83 2291.23 1194.83 2295.48C1194.83 2299.73 1195.81 2303.05 1197.76 2305.44C1199.77 2307.82 1202.44 2309.02 1205.79 2309.02C1210.52 2309.02 1213.64 2306.94 1215.17 2302.78H1223.98C1222.84 2306.8 1220.69 2310 1217.54 2312.38C1214.38 2314.72 1210.47 2315.89 1205.79 2315.89C1202.01 2315.89 1198.67 2315.06 1195.76 2313.39C1192.84 2311.67 1190.55 2309.28 1188.88 2306.22C1187.26 2303.12 1186.44 2299.54 1186.44 2295.48C1186.44 2291.42 1187.26 2287.86 1188.88 2284.8C1190.55 2281.7 1192.84 2279.31 1195.76 2277.64C1198.67 2275.97 1202.01 2275.13 1205.79 2275.13ZM1248.03 2275.13C1251.13 2275.13 1253.85 2275.85 1256.19 2277.28C1258.58 2278.67 1260.42 2280.5 1261.71 2282.8V2275.78H1269.95V2315.25H1261.71V2307.87C1260.37 2310.31 1258.53 2312.26 1256.19 2313.75C1253.85 2315.18 1251.13 2315.89 1248.03 2315.89C1244.59 2315.89 1241.44 2315.04 1238.57 2313.32C1235.75 2311.55 1233.51 2309.11 1231.84 2306.01C1230.21 2302.86 1229.4 2299.3 1229.4 2295.33C1229.4 2291.37 1230.21 2287.86 1231.84 2284.8C1233.51 2281.75 1235.75 2279.38 1238.57 2277.71C1241.44 2275.99 1244.59 2275.13 1248.03 2275.13ZM1249.75 2282.22C1247.65 2282.22 1245.69 2282.75 1243.87 2283.8C1242.06 2284.8 1240.58 2286.31 1239.43 2288.31C1238.33 2290.27 1237.78 2292.61 1237.78 2295.33C1237.78 2298.06 1238.33 2300.44 1239.43 2302.5C1240.58 2304.55 1242.06 2306.13 1243.87 2307.23C1245.73 2308.28 1247.69 2308.8 1249.75 2308.8C1251.85 2308.8 1253.81 2308.28 1255.62 2307.23C1257.44 2306.18 1258.89 2304.65 1259.99 2302.64C1261.14 2300.59 1261.71 2298.2 1261.71 2295.48C1261.71 2292.75 1261.14 2290.39 1259.99 2288.38C1258.89 2286.38 1257.44 2284.85 1255.62 2283.8C1253.81 2282.75 1251.85 2282.22 1249.75 2282.22ZM1288.84 2282.65C1290.04 2280.27 1291.61 2278.43 1293.57 2277.14C1295.58 2275.8 1297.94 2275.13 1300.66 2275.13V2283.58H1298.59C1295.39 2283.58 1292.95 2284.4 1291.28 2286.02C1289.66 2287.64 1288.84 2290.46 1288.84 2294.47V2315.25H1280.68V2275.78H1288.84V2282.65ZM1344.35 2294.4C1344.35 2295.79 1344.25 2297.08 1344.06 2298.27H1313.83C1314.02 2301.57 1315.12 2304.19 1317.13 2306.15C1319.18 2308.06 1321.74 2309.02 1324.79 2309.02C1329.23 2309.02 1332.36 2307.18 1334.18 2303.5H1342.99C1341.79 2307.13 1339.62 2310.12 1336.47 2312.46C1333.32 2314.75 1329.42 2315.89 1324.79 2315.89C1321.02 2315.89 1317.68 2315.06 1314.76 2313.39C1311.85 2311.67 1309.56 2309.28 1307.88 2306.22C1306.26 2303.12 1305.45 2299.54 1305.45 2295.48C1305.45 2291.42 1306.26 2287.86 1307.88 2284.8C1309.56 2281.7 1311.87 2279.31 1314.83 2277.64C1317.84 2275.97 1321.28 2275.13 1325.15 2275.13C1328.88 2275.13 1332.19 2275.94 1335.11 2277.57C1338.02 2279.19 1340.29 2281.46 1341.91 2284.37C1343.54 2287.29 1344.35 2290.63 1344.35 2294.4ZM1335.82 2292.68C1335.78 2289.44 1334.7 2286.86 1332.6 2284.95C1330.5 2282.99 1327.9 2282.01 1324.79 2282.01C1321.88 2282.01 1319.39 2282.99 1317.34 2284.95C1315.34 2286.86 1314.19 2289.44 1313.9 2292.68H1335.82ZM1391.35 2275.13C1395.12 2275.13 1398.53 2275.97 1401.59 2277.64C1404.65 2279.31 1407.06 2281.7 1408.83 2284.8C1410.59 2287.91 1411.48 2291.47 1411.48 2295.48C1411.48 2299.49 1410.57 2303.05 1408.75 2306.15C1406.94 2309.26 1404.46 2311.67 1401.3 2313.39C1398.2 2315.06 1394.76 2315.89 1390.99 2315.89C1387.26 2315.89 1383.89 2315.06 1380.89 2313.39C1377.88 2311.67 1375.51 2309.28 1373.79 2306.22C1372.07 2303.12 1371.21 2299.54 1371.21 2295.48C1371.21 2291.47 1372.1 2287.91 1373.86 2284.8C1375.63 2281.7 1378.04 2279.31 1381.1 2277.64C1384.16 2275.97 1387.57 2275.13 1391.35 2275.13ZM1391.2 2282.01C1389.1 2282.01 1387.17 2282.53 1385.4 2283.58C1383.63 2284.59 1382.2 2286.12 1381.1 2288.17C1380.05 2290.18 1379.52 2292.61 1379.52 2295.48C1379.52 2298.34 1380.03 2300.8 1381.03 2302.86C1382.08 2304.91 1383.46 2306.46 1385.18 2307.51C1386.95 2308.52 1388.89 2309.02 1390.99 2309.02C1393.09 2309.02 1395.05 2308.49 1396.86 2307.44C1398.72 2306.39 1400.23 2304.86 1401.38 2302.86C1402.52 2300.8 1403.09 2298.34 1403.09 2295.48C1403.09 2292.61 1402.55 2290.18 1401.45 2288.17C1400.35 2286.12 1398.89 2284.59 1397.08 2283.58C1395.26 2282.53 1393.3 2282.01 1391.2 2282.01ZM1436.1 2282.44H1428.79V2315.25H1420.55V2282.44H1415.9V2275.78H1420.55V2272.98C1420.55 2268.44 1421.75 2265.15 1424.13 2263.1C1426.57 2260.99 1430.37 2259.94 1435.53 2259.94V2266.75C1433.04 2266.75 1431.3 2267.23 1430.3 2268.18C1429.29 2269.09 1428.79 2270.69 1428.79 2272.98V2275.78H1436.1V2282.44ZM1513.32 2275.13C1516.28 2275.13 1518.93 2275.78 1521.27 2277.07C1523.61 2278.36 1525.45 2280.27 1526.78 2282.8C1528.17 2285.33 1528.86 2288.38 1528.86 2291.97V2315.25H1520.69V2293.18C1520.69 2289.65 1519.81 2286.95 1518.04 2285.09C1516.28 2283.18 1513.87 2282.22 1510.81 2282.22C1507.75 2282.22 1505.34 2283.18 1503.57 2285.09C1501.81 2286.95 1500.92 2289.65 1500.92 2293.18V2315.25H1492.83V2293.18C1492.83 2289.65 1491.94 2286.95 1490.18 2285.09C1488.41 2283.18 1486 2282.22 1482.94 2282.22C1479.88 2282.22 1477.45 2283.18 1475.63 2285.09C1473.87 2286.95 1472.98 2289.65 1472.98 2293.18V2315.25H1464.82V2275.78H1472.98V2282.01C1474.27 2279.76 1475.99 2278.07 1478.14 2276.92C1480.34 2275.73 1482.82 2275.13 1485.59 2275.13C1488.65 2275.13 1491.37 2275.85 1493.76 2277.28C1496.15 2278.71 1497.96 2280.79 1499.2 2283.51C1500.59 2280.89 1502.5 2278.83 1504.93 2277.35C1507.42 2275.87 1510.21 2275.13 1513.32 2275.13ZM1555.16 2275.13C1558.26 2275.13 1560.99 2275.85 1563.33 2277.28C1565.71 2278.67 1567.55 2280.5 1568.84 2282.8V2275.78H1577.08V2315.25H1568.84V2307.87C1567.5 2310.31 1565.67 2312.26 1563.33 2313.75C1560.99 2315.18 1558.26 2315.89 1555.16 2315.89C1551.72 2315.89 1548.57 2315.04 1545.7 2313.32C1542.88 2311.55 1540.64 2309.11 1538.97 2306.01C1537.34 2302.86 1536.53 2299.3 1536.53 2295.33C1536.53 2291.37 1537.34 2287.86 1538.97 2284.8C1540.64 2281.75 1542.88 2279.38 1545.7 2277.71C1548.57 2275.99 1551.72 2275.13 1555.16 2275.13ZM1556.88 2282.22C1554.78 2282.22 1552.82 2282.75 1551 2283.8C1549.19 2284.8 1547.71 2286.31 1546.56 2288.31C1545.46 2290.27 1544.91 2292.61 1544.91 2295.33C1544.91 2298.06 1545.46 2300.44 1546.56 2302.5C1547.71 2304.55 1549.19 2306.13 1551 2307.23C1552.87 2308.28 1554.82 2308.8 1556.88 2308.8C1558.98 2308.8 1560.94 2308.28 1562.75 2307.23C1564.57 2306.18 1566.02 2304.65 1567.12 2302.64C1568.27 2300.59 1568.84 2298.2 1568.84 2295.48C1568.84 2292.75 1568.27 2290.39 1567.12 2288.38C1566.02 2286.38 1564.57 2284.85 1562.75 2283.8C1560.94 2282.75 1558.98 2282.22 1556.88 2282.22ZM1595.97 2282.65C1597.17 2280.27 1598.74 2278.43 1600.7 2277.14C1602.71 2275.8 1605.07 2275.13 1607.8 2275.13V2283.58H1605.72C1602.52 2283.58 1600.08 2284.4 1598.41 2286.02C1596.79 2287.64 1595.97 2290.46 1595.97 2294.47V2315.25H1587.81V2275.78H1595.97V2282.65ZM1630.92 2295.55L1649.12 2315.25H1638.08L1623.47 2298.27V2315.25H1615.3V2262.24H1623.47V2293.04L1637.8 2275.78H1649.12L1630.92 2295.55ZM1691.15 2294.4C1691.15 2295.79 1691.05 2297.08 1690.86 2298.27H1660.63C1660.82 2301.57 1661.92 2304.19 1663.93 2306.15C1665.98 2308.06 1668.53 2309.02 1671.59 2309.02C1676.03 2309.02 1679.16 2307.18 1680.98 2303.5H1689.79C1688.59 2307.13 1686.42 2310.12 1683.27 2312.46C1680.12 2314.75 1676.22 2315.89 1671.59 2315.89C1667.82 2315.89 1664.48 2315.06 1661.56 2313.39C1658.65 2311.67 1656.36 2309.28 1654.68 2306.22C1653.06 2303.12 1652.25 2299.54 1652.25 2295.48C1652.25 2291.42 1653.06 2287.86 1654.68 2284.8C1656.36 2281.7 1658.67 2279.31 1661.63 2277.64C1664.64 2275.97 1668.08 2275.13 1671.95 2275.13C1675.67 2275.13 1678.99 2275.94 1681.91 2277.57C1684.82 2279.19 1687.09 2281.46 1688.71 2284.37C1690.34 2287.29 1691.15 2290.63 1691.15 2294.4ZM1682.62 2292.68C1682.58 2289.44 1681.5 2286.86 1679.4 2284.95C1677.3 2282.99 1674.7 2282.01 1671.59 2282.01C1668.68 2282.01 1666.19 2282.99 1664.14 2284.95C1662.13 2286.86 1660.99 2289.44 1660.7 2292.68H1682.62ZM1708.71 2282.44V2304.29C1708.71 2305.77 1709.05 2306.84 1709.72 2307.51C1710.43 2308.13 1711.63 2308.44 1713.3 2308.44H1718.31V2315.25H1711.87C1708.19 2315.25 1705.37 2314.39 1703.41 2312.67C1701.46 2310.95 1700.48 2308.16 1700.48 2304.29V2282.44H1695.82V2275.78H1700.48V2265.96H1708.71V2275.78H1718.31V2282.44H1708.71ZM1724.77 2265.32C1724.77 2263.84 1725.27 2262.59 1726.27 2261.59C1727.27 2260.59 1728.52 2260.09 1730 2260.09C1731.43 2260.09 1732.65 2260.59 1733.65 2261.59C1734.65 2262.59 1735.16 2263.84 1735.16 2265.32C1735.16 2266.8 1734.65 2268.04 1733.65 2269.04C1732.65 2270.04 1731.43 2270.55 1730 2270.55C1728.52 2270.55 1727.27 2270.04 1726.27 2269.04C1725.27 2268.04 1724.77 2266.8 1724.77 2265.32ZM1734.01 2275.78V2315.25H1725.84V2275.78H1734.01ZM1765.51 2275.13C1768.37 2275.13 1770.95 2275.78 1773.24 2277.07C1775.58 2278.36 1777.42 2280.27 1778.76 2282.8C1780.15 2285.33 1780.84 2288.38 1780.84 2291.97V2315.25H1772.74V2293.18C1772.74 2289.65 1771.86 2286.95 1770.09 2285.09C1768.33 2283.18 1765.91 2282.22 1762.86 2282.22C1759.8 2282.22 1757.36 2283.18 1755.55 2285.09C1753.78 2286.95 1752.9 2289.65 1752.9 2293.18V2315.25H1744.73V2275.78H1752.9V2282.01C1754.19 2279.76 1755.91 2278.07 1758.06 2276.92C1760.25 2275.73 1762.74 2275.13 1765.51 2275.13ZM1807.16 2275.13C1810.26 2275.13 1812.99 2275.85 1815.33 2277.28C1817.72 2278.67 1819.55 2280.5 1820.84 2282.8V2275.78H1829.08V2315.89C1829.08 2319.52 1828.32 2322.75 1826.79 2325.57C1825.26 2328.43 1823.04 2330.68 1820.13 2332.3C1817.26 2333.92 1813.82 2334.74 1809.81 2334.74C1804.46 2334.74 1800.02 2333.47 1796.49 2330.94C1792.95 2328.46 1790.95 2325.06 1790.47 2320.77H1798.56C1799.18 2322.82 1800.5 2324.47 1802.5 2325.71C1804.56 2327 1806.99 2327.64 1809.81 2327.64C1813.11 2327.64 1815.76 2326.64 1817.76 2324.63C1819.82 2322.63 1820.84 2319.72 1820.84 2315.89V2307.87C1819.51 2310.31 1817.67 2312.26 1815.33 2313.75C1812.99 2315.18 1810.26 2315.89 1807.16 2315.89C1803.72 2315.89 1800.57 2315.04 1797.7 2313.32C1794.89 2311.55 1792.64 2309.11 1790.97 2306.01C1789.35 2302.86 1788.53 2299.3 1788.53 2295.33C1788.53 2291.37 1789.35 2287.86 1790.97 2284.8C1792.64 2281.75 1794.89 2279.38 1797.7 2277.71C1800.57 2275.99 1803.72 2275.13 1807.16 2275.13ZM1808.88 2282.22C1806.78 2282.22 1804.82 2282.75 1803 2283.8C1801.19 2284.8 1799.71 2286.31 1798.56 2288.31C1797.46 2290.27 1796.92 2292.61 1796.92 2295.33C1796.92 2298.06 1797.46 2300.44 1798.56 2302.5C1799.71 2304.55 1801.19 2306.13 1803 2307.23C1804.87 2308.28 1806.83 2308.8 1808.88 2308.8C1810.98 2308.8 1812.94 2308.28 1814.75 2307.23C1816.57 2306.18 1818.03 2304.65 1819.12 2302.64C1820.27 2300.59 1820.84 2298.2 1820.84 2295.48C1820.84 2292.75 1820.27 2290.39 1819.12 2288.38C1818.03 2286.38 1816.57 2284.85 1814.75 2283.8C1812.94 2282.75 1810.98 2282.22 1808.88 2282.22ZM535.37 2449.25L528.85 2440.44C527.847 2443.16 526.08 2445.41 523.549 2447.17C521.018 2448.94 518.176 2449.82 515.024 2449.82C512.254 2449.82 509.722 2449.18 507.43 2447.89C505.137 2446.6 503.323 2444.81 501.985 2442.52C500.648 2440.18 499.979 2437.57 499.979 2434.71C499.979 2431.89 500.624 2429.36 501.914 2427.11C503.203 2424.82 504.922 2423.05 507.072 2421.81C509.221 2420.52 511.561 2419.88 514.092 2419.88L512.875 2419.3C511.203 2417.06 509.985 2415.08 509.221 2413.36C508.457 2411.64 508.075 2409.92 508.075 2408.2C508.075 2406.1 508.6 2404.14 509.651 2402.33C510.701 2400.51 512.23 2399.05 514.236 2397.96C516.289 2396.81 518.701 2396.24 521.471 2396.24C524.242 2396.24 526.63 2396.79 528.636 2397.88C530.689 2398.93 532.241 2400.34 533.292 2402.11C534.391 2403.83 534.94 2405.67 534.94 2407.63C534.94 2408.96 534.725 2410.18 534.295 2411.28H526.271C526.653 2410.42 526.845 2409.47 526.845 2408.41C526.845 2406.89 526.343 2405.62 525.34 2404.62C524.337 2403.61 523.048 2403.11 521.471 2403.11C519.943 2403.11 518.677 2403.61 517.675 2404.62C516.719 2405.62 516.242 2406.86 516.242 2408.34C516.242 2409.35 516.433 2410.33 516.815 2411.28C517.197 2412.24 517.913 2413.38 518.964 2414.72L545.113 2449.25H535.37ZM515.095 2443.09C517.292 2443.09 519.155 2442.28 520.683 2440.65C522.26 2438.98 523.048 2436.98 523.048 2434.64C523.048 2432.3 522.26 2430.31 520.683 2428.69C519.155 2427.07 517.292 2426.25 515.095 2426.25C512.851 2426.25 510.964 2427.07 509.436 2428.69C507.955 2430.31 507.215 2432.3 507.215 2434.64C507.215 2437.02 507.979 2439.03 509.507 2440.65C511.036 2442.28 512.898 2443.09 515.095 2443.09ZM594.657 2409.13C598.096 2409.13 601.224 2409.99 604.042 2411.71C606.907 2413.38 609.152 2415.75 610.776 2418.8C612.4 2421.86 613.212 2425.37 613.212 2429.33C613.212 2433.3 612.4 2436.86 610.776 2440.01C609.152 2443.11 606.907 2445.55 604.042 2447.32C601.224 2449.04 598.096 2449.89 594.657 2449.89C591.552 2449.89 588.83 2449.18 586.49 2447.75C584.15 2446.26 582.287 2444.31 580.902 2441.87V2449.25H572.735V2396.24H580.902V2416.8C582.239 2414.5 584.078 2412.67 586.418 2411.28C588.806 2409.85 591.552 2409.13 594.657 2409.13ZM592.866 2416.22C590.812 2416.22 588.854 2416.75 586.991 2417.8C585.176 2418.85 583.696 2420.38 582.55 2422.38C581.451 2424.39 580.902 2426.75 580.902 2429.48C580.902 2432.2 581.451 2434.59 582.55 2436.64C583.696 2438.65 585.176 2440.18 586.991 2441.23C588.854 2442.28 590.812 2442.8 592.866 2442.8C594.967 2442.8 596.926 2442.28 598.74 2441.23C600.603 2440.13 602.084 2438.55 603.182 2436.5C604.328 2434.44 604.902 2432.06 604.902 2429.33C604.902 2426.61 604.328 2424.27 603.182 2422.31C602.084 2420.31 600.603 2418.8 598.74 2417.8C596.926 2416.75 594.967 2416.22 592.866 2416.22ZM629.455 2416.65C630.649 2414.27 632.225 2412.43 634.184 2411.14C636.189 2409.8 638.554 2409.13 641.276 2409.13V2417.58H639.198C635.998 2417.58 633.563 2418.4 631.891 2420.02C630.267 2421.64 629.455 2424.46 629.455 2428.47V2449.25H621.288V2409.78H629.455V2416.65ZM664.687 2409.13C667.792 2409.13 670.514 2409.85 672.854 2411.28C675.242 2412.67 677.081 2414.5 678.371 2416.8V2409.78H686.609V2449.25H678.371V2441.87C677.033 2444.31 675.195 2446.26 672.854 2447.75C670.514 2449.18 667.792 2449.89 664.687 2449.89C661.249 2449.89 658.096 2449.04 655.231 2447.32C652.413 2445.55 650.168 2443.11 648.497 2440.01C646.873 2436.86 646.061 2433.3 646.061 2429.33C646.061 2425.37 646.873 2421.86 648.497 2418.8C650.168 2415.75 652.413 2413.38 655.231 2411.71C658.096 2409.99 661.249 2409.13 664.687 2409.13ZM666.407 2416.22C664.305 2416.22 662.347 2416.75 660.532 2417.8C658.717 2418.8 657.237 2420.31 656.09 2422.31C654.992 2424.27 654.443 2426.61 654.443 2429.33C654.443 2432.06 654.992 2434.44 656.09 2436.5C657.237 2438.55 658.717 2440.13 660.532 2441.23C662.395 2442.28 664.353 2442.8 666.407 2442.8C668.508 2442.8 670.466 2442.28 672.281 2441.23C674.096 2440.18 675.553 2438.65 676.651 2436.64C677.798 2434.59 678.371 2432.2 678.371 2429.48C678.371 2426.75 677.798 2424.39 676.651 2422.38C675.553 2420.38 674.096 2418.85 672.281 2417.8C670.466 2416.75 668.508 2416.22 666.407 2416.22ZM718.112 2409.13C720.978 2409.13 723.557 2409.78 725.849 2411.07C728.19 2412.36 730.028 2414.27 731.366 2416.8C732.751 2419.33 733.443 2422.38 733.443 2425.97V2449.25H725.348V2427.18C725.348 2423.65 724.464 2420.95 722.697 2419.09C720.93 2417.18 718.518 2416.22 715.462 2416.22C712.405 2416.22 709.969 2417.18 708.154 2419.09C706.387 2420.95 705.503 2423.65 705.503 2427.18V2449.25H697.336V2409.78H705.503V2416.01C706.793 2413.76 708.512 2412.07 710.662 2410.92C712.859 2409.73 715.342 2409.13 718.112 2409.13ZM759.765 2409.13C762.87 2409.13 765.592 2409.85 767.932 2411.28C770.32 2412.67 772.159 2414.5 773.449 2416.8V2396.24H781.687V2449.25H773.449V2441.87C772.111 2444.31 770.272 2446.26 767.932 2447.75C765.592 2449.18 762.87 2449.89 759.765 2449.89C756.326 2449.89 753.174 2449.04 750.309 2447.32C747.491 2445.55 745.246 2443.11 743.574 2440.01C741.95 2436.86 741.139 2433.3 741.139 2429.33C741.139 2425.37 741.95 2421.86 743.574 2418.8C745.246 2415.75 747.491 2413.38 750.309 2411.71C753.174 2409.99 756.326 2409.13 759.765 2409.13ZM761.485 2416.22C759.383 2416.22 757.425 2416.75 755.61 2417.8C753.795 2418.8 752.315 2420.31 751.168 2422.31C750.07 2424.27 749.521 2426.61 749.521 2429.33C749.521 2432.06 750.07 2434.44 751.168 2436.5C752.315 2438.55 753.795 2440.13 755.61 2441.23C757.473 2442.28 759.431 2442.8 761.485 2442.8C763.586 2442.8 765.544 2442.28 767.359 2441.23C769.174 2440.18 770.631 2438.65 771.729 2436.64C772.875 2434.59 773.449 2432.2 773.449 2429.48C773.449 2426.75 772.875 2424.39 771.729 2422.38C770.631 2420.38 769.174 2418.85 767.359 2417.8C765.544 2416.75 763.586 2416.22 761.485 2416.22ZM791.34 2399.32C791.34 2397.84 791.841 2396.59 792.844 2395.59C793.847 2394.59 795.089 2394.09 796.569 2394.09C798.002 2394.09 799.22 2394.59 800.223 2395.59C801.226 2396.59 801.728 2397.84 801.728 2399.32C801.728 2400.8 801.226 2402.04 800.223 2403.04C799.22 2404.04 798.002 2404.55 796.569 2404.55C795.089 2404.55 793.847 2404.04 792.844 2403.04C791.841 2402.04 791.34 2400.8 791.34 2399.32ZM800.581 2409.78V2449.25H792.414V2409.78H800.581ZM832.08 2409.13C834.945 2409.13 837.524 2409.78 839.817 2411.07C842.157 2412.36 843.996 2414.27 845.333 2416.8C846.718 2419.33 847.411 2422.38 847.411 2425.97V2449.25H839.315V2427.18C839.315 2423.65 838.432 2420.95 836.665 2419.09C834.897 2417.18 832.486 2416.22 829.429 2416.22C826.372 2416.22 823.936 2417.18 822.122 2419.09C820.354 2420.95 819.471 2423.65 819.471 2427.18V2449.25H811.304V2409.78H819.471V2416.01C820.76 2413.76 822.48 2412.07 824.629 2410.92C826.826 2409.73 829.31 2409.13 832.08 2409.13ZM873.733 2409.13C876.837 2409.13 879.559 2409.85 881.9 2411.28C884.288 2412.67 886.126 2414.5 887.416 2416.8V2409.78H895.655V2449.89C895.655 2453.52 894.89 2456.75 893.362 2459.57C891.834 2462.43 889.613 2464.68 886.7 2466.3C883.834 2467.92 880.395 2468.74 876.383 2468.74C871.034 2468.74 866.592 2467.47 863.058 2464.94C859.524 2462.46 857.518 2459.06 857.04 2454.77H865.136C865.757 2456.82 867.07 2458.47 869.076 2459.71C871.13 2461 873.565 2461.64 876.383 2461.64C879.679 2461.64 882.329 2460.64 884.335 2458.63C886.389 2456.63 887.416 2453.72 887.416 2449.89V2441.87C886.079 2444.31 884.24 2446.26 881.9 2447.75C879.559 2449.18 876.837 2449.89 873.733 2449.89C870.294 2449.89 867.142 2449.04 864.276 2447.32C861.458 2445.55 859.213 2443.11 857.542 2440.01C855.918 2436.86 855.106 2433.3 855.106 2429.33C855.106 2425.37 855.918 2421.86 857.542 2418.8C859.213 2415.75 861.458 2413.38 864.276 2411.71C867.142 2409.99 870.294 2409.13 873.733 2409.13ZM875.452 2416.22C873.351 2416.22 871.392 2416.75 869.577 2417.8C867.763 2418.8 866.282 2420.31 865.136 2422.31C864.037 2424.27 863.488 2426.61 863.488 2429.33C863.488 2432.06 864.037 2434.44 865.136 2436.5C866.282 2438.55 867.763 2440.13 869.577 2441.23C871.44 2442.28 873.398 2442.8 875.452 2442.8C877.553 2442.8 879.512 2442.28 881.327 2441.23C883.141 2440.18 884.598 2438.65 885.697 2436.64C886.843 2434.59 887.416 2432.2 887.416 2429.48C887.416 2426.75 886.843 2424.39 885.697 2422.38C884.598 2420.38 883.141 2418.85 881.327 2417.8C879.512 2416.75 877.553 2416.22 875.452 2416.22ZM944.409 2416.44H937.102V2449.25H928.863V2416.44H924.206V2409.78H928.863V2406.98C928.863 2402.44 930.057 2399.15 932.445 2397.1C934.881 2394.99 938.678 2393.94 943.836 2393.94V2400.75C941.352 2400.75 939.609 2401.23 938.606 2402.18C937.603 2403.09 937.102 2404.69 937.102 2406.98V2409.78H944.409V2416.44ZM969.127 2409.13C972.9 2409.13 976.315 2409.97 979.372 2411.64C982.428 2413.31 984.84 2415.7 986.608 2418.8C988.375 2421.91 989.258 2425.47 989.258 2429.48C989.258 2433.49 988.351 2437.05 986.536 2440.15C984.721 2443.26 982.237 2445.67 979.085 2447.39C975.981 2449.06 972.542 2449.89 968.769 2449.89C965.044 2449.89 961.677 2449.06 958.668 2447.39C955.659 2445.67 953.295 2443.28 951.575 2440.22C949.856 2437.12 948.996 2433.54 948.996 2429.48C948.996 2425.47 949.88 2421.91 951.647 2418.8C953.414 2415.7 955.826 2413.31 958.883 2411.64C961.939 2409.97 965.354 2409.13 969.127 2409.13ZM968.984 2416.01C966.882 2416.01 964.948 2416.53 963.181 2417.58C961.414 2418.59 959.981 2420.12 958.883 2422.17C957.832 2424.18 957.306 2426.61 957.306 2429.48C957.306 2432.34 957.808 2434.8 958.811 2436.86C959.862 2438.91 961.247 2440.46 962.966 2441.51C964.733 2442.52 966.668 2443.02 968.769 2443.02C970.87 2443.02 972.829 2442.49 974.644 2441.44C976.506 2440.39 978.011 2438.86 979.157 2436.86C980.303 2434.8 980.876 2432.34 980.876 2429.48C980.876 2426.61 980.327 2424.18 979.229 2422.17C978.13 2420.12 976.673 2418.59 974.858 2417.58C973.044 2416.53 971.085 2416.01 968.984 2416.01ZM1005.5 2416.65C1006.69 2414.27 1008.27 2412.43 1010.23 2411.14C1012.23 2409.8 1014.6 2409.13 1017.32 2409.13V2417.58H1015.24C1012.04 2417.58 1009.61 2418.4 1007.93 2420.02C1006.31 2421.64 1005.5 2424.46 1005.5 2428.47V2449.25H997.332V2409.78H1005.5V2416.65ZM1050.75 2409.78L1061.85 2439.87L1073.39 2409.78H1081.84L1057.62 2467.8H1049.17L1057.19 2448.61L1041.65 2409.78H1050.75ZM1105.48 2409.13C1109.26 2409.13 1112.67 2409.97 1115.73 2411.64C1118.78 2413.31 1121.2 2415.7 1122.96 2418.8C1124.73 2421.91 1125.61 2425.47 1125.61 2429.48C1125.61 2433.49 1124.71 2437.05 1122.89 2440.15C1121.08 2443.26 1118.59 2445.67 1115.44 2447.39C1112.34 2449.06 1108.9 2449.89 1105.12 2449.89C1101.4 2449.89 1098.03 2449.06 1095.02 2447.39C1092.01 2445.67 1089.65 2443.28 1087.93 2440.22C1086.21 2437.12 1085.35 2433.54 1085.35 2429.48C1085.35 2425.47 1086.23 2421.91 1088 2418.8C1089.77 2415.7 1092.18 2413.31 1095.24 2411.64C1098.29 2409.97 1101.71 2409.13 1105.48 2409.13ZM1105.34 2416.01C1103.24 2416.01 1101.3 2416.53 1099.54 2417.58C1097.77 2418.59 1096.34 2420.12 1095.24 2422.17C1094.19 2424.18 1093.66 2426.61 1093.66 2429.48C1093.66 2432.34 1094.16 2434.8 1095.17 2436.86C1096.22 2438.91 1097.6 2440.46 1099.32 2441.51C1101.09 2442.52 1103.02 2443.02 1105.12 2443.02C1107.23 2443.02 1109.18 2442.49 1111 2441.44C1112.86 2440.39 1114.37 2438.86 1115.51 2436.86C1116.66 2434.8 1117.23 2432.34 1117.23 2429.48C1117.23 2426.61 1116.68 2424.18 1115.58 2422.17C1114.49 2420.12 1113.03 2418.59 1111.21 2417.58C1109.4 2416.53 1107.44 2416.01 1105.34 2416.01ZM1169.44 2409.78V2449.25H1161.27V2443.02C1159.98 2445.26 1158.24 2446.96 1156.04 2448.1C1153.89 2449.25 1151.43 2449.82 1148.66 2449.82C1145.79 2449.82 1143.19 2449.18 1140.85 2447.89C1138.56 2446.6 1136.72 2444.71 1135.33 2442.23C1134 2439.7 1133.33 2436.64 1133.33 2433.06V2409.78H1141.42V2431.84C1141.42 2435.38 1142.31 2438.1 1144.07 2440.01C1145.84 2441.87 1148.25 2442.8 1151.31 2442.8C1154.37 2442.8 1156.78 2441.87 1158.55 2440.01C1160.36 2438.1 1161.27 2435.38 1161.27 2431.84V2409.78H1169.44ZM1188.38 2416.65C1189.57 2414.27 1191.15 2412.43 1193.11 2411.14C1195.11 2409.8 1197.48 2409.13 1200.2 2409.13V2417.58H1198.12C1194.92 2417.58 1192.49 2418.4 1190.81 2420.02C1189.19 2421.64 1188.38 2424.46 1188.38 2428.47V2449.25H1180.21V2409.78H1188.38V2416.65ZM1251.11 2409.13C1254.55 2409.13 1257.67 2409.99 1260.49 2411.71C1263.36 2413.38 1265.6 2415.75 1267.23 2418.8C1268.85 2421.86 1269.66 2425.37 1269.66 2429.33C1269.66 2433.3 1268.85 2436.86 1267.23 2440.01C1265.6 2443.11 1263.36 2445.55 1260.49 2447.32C1257.67 2449.04 1254.55 2449.89 1251.11 2449.89C1248 2449.89 1245.28 2449.18 1242.94 2447.75C1240.6 2446.26 1238.74 2444.31 1237.35 2441.87V2449.25H1229.18V2396.24H1237.35V2416.8C1238.69 2414.5 1240.53 2412.67 1242.87 2411.28C1245.26 2409.85 1248 2409.13 1251.11 2409.13ZM1249.32 2416.22C1247.26 2416.22 1245.3 2416.75 1243.44 2417.8C1241.63 2418.85 1240.15 2420.38 1239 2422.38C1237.9 2424.39 1237.35 2426.75 1237.35 2429.48C1237.35 2432.2 1237.9 2434.59 1239 2436.64C1240.15 2438.65 1241.63 2440.18 1243.44 2441.23C1245.3 2442.28 1247.26 2442.8 1249.32 2442.8C1251.42 2442.8 1253.38 2442.28 1255.19 2441.23C1257.05 2440.13 1258.53 2438.55 1259.63 2436.5C1260.78 2434.44 1261.35 2432.06 1261.35 2429.33C1261.35 2426.61 1260.78 2424.27 1259.63 2422.31C1258.53 2420.31 1257.05 2418.8 1255.19 2417.8C1253.38 2416.75 1251.42 2416.22 1249.32 2416.22ZM1313.49 2409.78V2449.25H1305.32V2443.02C1304.03 2445.26 1302.29 2446.96 1300.09 2448.1C1297.94 2449.25 1295.48 2449.82 1292.71 2449.82C1289.85 2449.82 1287.24 2449.18 1284.9 2447.89C1282.61 2446.6 1280.77 2444.71 1279.39 2442.23C1278.05 2439.7 1277.38 2436.64 1277.38 2433.06V2409.78H1285.47V2431.84C1285.47 2435.38 1286.36 2438.1 1288.13 2440.01C1289.89 2441.87 1292.3 2442.8 1295.36 2442.8C1298.42 2442.8 1300.83 2441.87 1302.6 2440.01C1304.41 2438.1 1305.32 2435.38 1305.32 2431.84V2409.78H1313.49ZM1338.09 2409.13C1342.48 2409.13 1346.02 2410.28 1348.69 2412.57C1351.41 2414.81 1352.87 2417.9 1353.06 2421.81H1344.68C1344.54 2419.85 1343.84 2418.33 1342.6 2417.23C1341.41 2416.13 1339.71 2415.58 1337.52 2415.58C1335.32 2415.58 1333.6 2416.08 1332.36 2417.08C1331.12 2418.04 1330.49 2419.28 1330.49 2420.81C1330.49 2422.05 1330.9 2423.05 1331.71 2423.82C1332.52 2424.58 1333.55 2425.18 1334.79 2425.61C1336.08 2425.99 1337.8 2426.42 1339.95 2426.9C1342.86 2427.57 1345.21 2428.24 1346.97 2428.9C1348.79 2429.57 1350.34 2430.67 1351.63 2432.2C1352.92 2433.68 1353.56 2435.71 1353.56 2438.29C1353.56 2440.53 1352.89 2442.54 1351.56 2444.31C1350.27 2446.07 1348.45 2447.46 1346.11 2448.46C1343.77 2449.42 1341.12 2449.89 1338.16 2449.89C1333.58 2449.89 1329.87 2448.8 1327.06 2446.6C1324.24 2444.4 1322.69 2441.27 1322.4 2437.21H1330.85C1331 2439.17 1331.71 2440.7 1333 2441.8C1334.29 2442.9 1336.01 2443.45 1338.16 2443.45C1340.45 2443.45 1342.24 2442.97 1343.53 2442.01C1344.87 2441.01 1345.54 2439.72 1345.54 2438.15C1345.54 2436.86 1345.11 2435.83 1344.25 2435.07C1343.44 2434.3 1342.39 2433.73 1341.1 2433.35C1339.81 2432.92 1338.06 2432.46 1335.87 2431.98C1333 2431.32 1330.69 2430.67 1328.92 2430.05C1327.15 2429.38 1325.62 2428.33 1324.33 2426.9C1323.09 2425.47 1322.47 2423.53 1322.47 2421.1C1322.47 2418.9 1323.09 2416.89 1324.33 2415.08C1325.58 2413.26 1327.37 2411.83 1329.71 2410.78C1332.09 2409.68 1334.89 2409.13 1338.09 2409.13ZM1361.46 2399.32C1361.46 2397.84 1361.96 2396.59 1362.96 2395.59C1363.96 2394.59 1365.21 2394.09 1366.69 2394.09C1368.12 2394.09 1369.34 2394.59 1370.34 2395.59C1371.34 2396.59 1371.84 2397.84 1371.84 2399.32C1371.84 2400.8 1371.34 2402.04 1370.34 2403.04C1369.34 2404.04 1368.12 2404.55 1366.69 2404.55C1365.21 2404.55 1363.96 2404.04 1362.96 2403.04C1361.96 2402.04 1361.46 2400.8 1361.46 2399.32ZM1370.7 2409.78V2449.25H1362.53V2409.78H1370.7ZM1402.2 2409.13C1405.06 2409.13 1407.64 2409.78 1409.93 2411.07C1412.27 2412.36 1414.11 2414.27 1415.45 2416.8C1416.84 2419.33 1417.53 2422.38 1417.53 2425.97V2449.25H1409.43V2427.18C1409.43 2423.65 1408.55 2420.95 1406.78 2419.09C1405.01 2417.18 1402.6 2416.22 1399.55 2416.22C1396.49 2416.22 1394.05 2417.18 1392.24 2419.09C1390.47 2420.95 1389.59 2423.65 1389.59 2427.18V2449.25H1381.42V2409.78H1389.59V2416.01C1390.88 2413.76 1392.6 2412.07 1394.75 2410.92C1396.94 2409.73 1399.43 2409.13 1402.2 2409.13ZM1464.12 2428.4C1464.12 2429.79 1464.03 2431.08 1463.84 2432.27H1433.6C1433.8 2435.57 1434.89 2438.19 1436.9 2440.15C1438.95 2442.06 1441.51 2443.02 1444.57 2443.02C1449.01 2443.02 1452.14 2441.18 1453.95 2437.5H1462.76C1461.57 2441.13 1459.4 2444.12 1456.24 2446.46C1453.09 2448.75 1449.2 2449.89 1444.57 2449.89C1440.79 2449.89 1437.45 2449.06 1434.54 2447.39C1431.62 2445.67 1429.33 2443.28 1427.66 2440.22C1426.03 2437.12 1425.22 2433.54 1425.22 2429.48C1425.22 2425.42 1426.03 2421.86 1427.66 2418.8C1429.33 2415.7 1431.65 2413.31 1434.61 2411.64C1437.62 2409.97 1441.06 2409.13 1444.92 2409.13C1448.65 2409.13 1451.97 2409.94 1454.88 2411.57C1457.8 2413.19 1460.06 2415.46 1461.69 2418.37C1463.31 2421.29 1464.12 2424.63 1464.12 2428.4ZM1455.6 2426.68C1455.55 2423.44 1454.48 2420.86 1452.37 2418.95C1450.27 2416.99 1447.67 2416.01 1444.57 2416.01C1441.65 2416.01 1439.17 2416.99 1437.12 2418.95C1435.11 2420.86 1433.96 2423.44 1433.68 2426.68H1455.6ZM1485.99 2409.13C1490.38 2409.13 1493.92 2410.28 1496.59 2412.57C1499.31 2414.81 1500.77 2417.9 1500.96 2421.81H1492.58C1492.44 2419.85 1491.74 2418.33 1490.5 2417.23C1489.31 2416.13 1487.61 2415.58 1485.41 2415.58C1483.22 2415.58 1481.5 2416.08 1480.26 2417.08C1479.01 2418.04 1478.39 2419.28 1478.39 2420.81C1478.39 2422.05 1478.8 2423.05 1479.61 2423.82C1480.42 2424.58 1481.45 2425.18 1482.69 2425.61C1483.98 2425.99 1485.7 2426.42 1487.85 2426.9C1490.76 2427.57 1493.1 2428.24 1494.87 2428.9C1496.69 2429.57 1498.24 2430.67 1499.53 2432.2C1500.82 2433.68 1501.46 2435.71 1501.46 2438.29C1501.46 2440.53 1500.79 2442.54 1499.46 2444.31C1498.17 2446.07 1496.35 2447.46 1494.01 2448.46C1491.67 2449.42 1489.02 2449.89 1486.06 2449.89C1481.47 2449.89 1477.77 2448.8 1474.96 2446.6C1472.14 2444.4 1470.59 2441.27 1470.3 2437.21H1478.75C1478.9 2439.17 1479.61 2440.7 1480.9 2441.8C1482.19 2442.9 1483.91 2443.45 1486.06 2443.45C1488.35 2443.45 1490.14 2442.97 1491.43 2442.01C1492.77 2441.01 1493.44 2439.72 1493.44 2438.15C1493.44 2436.86 1493.01 2435.83 1492.15 2435.07C1491.34 2434.3 1490.29 2433.73 1489 2433.35C1487.71 2432.92 1485.96 2432.46 1483.77 2431.98C1480.9 2431.32 1478.58 2430.67 1476.82 2430.05C1475.05 2429.38 1473.52 2428.33 1472.23 2426.9C1470.99 2425.47 1470.37 2423.53 1470.37 2421.1C1470.37 2418.9 1470.99 2416.89 1472.23 2415.08C1473.47 2413.26 1475.27 2411.83 1477.61 2410.78C1479.99 2409.68 1482.79 2409.13 1485.99 2409.13ZM1524.26 2409.13C1528.65 2409.13 1532.18 2410.28 1534.86 2412.57C1537.58 2414.81 1539.04 2417.9 1539.23 2421.81H1530.85C1530.7 2419.85 1530.01 2418.33 1528.77 2417.23C1527.58 2416.13 1525.88 2415.58 1523.68 2415.58C1521.49 2415.58 1519.77 2416.08 1518.53 2417.08C1517.28 2418.04 1516.66 2419.28 1516.66 2420.81C1516.66 2422.05 1517.07 2423.05 1517.88 2423.82C1518.69 2424.58 1519.72 2425.18 1520.96 2425.61C1522.25 2425.99 1523.97 2426.42 1526.12 2426.9C1529.03 2427.57 1531.37 2428.24 1533.14 2428.9C1534.96 2429.57 1536.51 2430.67 1537.8 2432.2C1539.09 2433.68 1539.73 2435.71 1539.73 2438.29C1539.73 2440.53 1539.06 2442.54 1537.73 2444.31C1536.44 2446.07 1534.62 2447.46 1532.28 2448.46C1529.94 2449.42 1527.29 2449.89 1524.33 2449.89C1519.74 2449.89 1516.04 2448.8 1513.22 2446.6C1510.41 2444.4 1508.85 2441.27 1508.57 2437.21H1517.02C1517.16 2439.17 1517.88 2440.7 1519.17 2441.8C1520.46 2442.9 1522.18 2443.45 1524.33 2443.45C1526.62 2443.45 1528.41 2442.97 1529.7 2442.01C1531.04 2441.01 1531.71 2439.72 1531.71 2438.15C1531.71 2436.86 1531.28 2435.83 1530.42 2435.07C1529.61 2434.3 1528.56 2433.73 1527.27 2433.35C1525.98 2432.92 1524.23 2432.46 1522.04 2431.98C1519.17 2431.32 1516.85 2430.67 1515.09 2430.05C1513.32 2429.38 1511.79 2428.33 1510.5 2426.9C1509.26 2425.47 1508.64 2423.53 1508.64 2421.1C1508.64 2418.9 1509.26 2416.89 1510.5 2415.08C1511.74 2413.26 1513.53 2411.83 1515.87 2410.78C1518.26 2409.68 1521.06 2409.13 1524.26 2409.13ZM1546.84 2444.38C1546.84 2442.99 1547.29 2441.82 1548.2 2440.87C1549.15 2439.91 1550.32 2439.44 1551.71 2439.44C1553.09 2439.44 1554.26 2439.91 1555.22 2440.87C1556.17 2441.82 1556.65 2442.99 1556.65 2444.38C1556.65 2445.76 1556.17 2446.93 1555.22 2447.89C1554.26 2448.8 1553.09 2449.25 1551.71 2449.25C1550.37 2449.25 1549.22 2448.77 1548.27 2447.82C1547.31 2446.86 1546.84 2445.72 1546.84 2444.38Z" fill="black" fill-opacity="0.59"/>
<path d="M471.523 1701.08C469.772 1701.16 468.039 1700.7 466.558 1699.76C465.077 1698.82 463.92 1697.45 463.244 1695.84C462.568 1694.22 462.405 1692.44 462.778 1690.73C463.151 1689.01 464.041 1687.46 465.328 1686.27C465.543 1685.41 465.698 1684.8 465.914 1683.94C465.837 1683.76 465.759 1683.57 465.681 1683.38C463.917 1679.22 460.961 1675.67 457.185 1673.18C453.409 1670.69 448.981 1669.37 444.457 1669.39C439.932 1669.4 435.514 1670.76 431.756 1673.27C427.999 1675.79 425.07 1679.36 423.337 1683.54C416.411 1700.21 407.594 1716.91 405.423 1734.53C404.466 1742.32 404.87 1750.22 406.615 1757.88C390.348 1722.41 381.902 1683.87 381.847 1644.86C381.844 1635.07 382.388 1625.29 383.477 1615.56C384.378 1607.59 385.627 1599.67 387.224 1591.81C395.943 1549.15 414.661 1509.17 441.843 1475.15C454.999 1467.98 465.639 1456.94 472.328 1443.54C474.751 1438.72 476.464 1433.58 477.413 1428.27C475.929 1428.47 474.42 1428.59 472.936 1428.68C472.474 1428.71 471.987 1428.73 471.525 1428.76L471.351 1428.77C469.72 1428.84 468.102 1428.44 466.693 1427.61C465.284 1426.79 464.143 1425.58 463.408 1424.12C462.673 1422.66 462.376 1421.02 462.551 1419.4C462.726 1417.78 463.366 1416.24 464.395 1414.98C465.036 1414.19 465.677 1413.4 466.319 1412.61C467.292 1411.4 468.289 1410.21 469.262 1408.99C469.375 1408.87 469.48 1408.75 469.579 1408.63C470.698 1407.24 471.817 1405.88 472.936 1404.49C470.893 1401.32 468.146 1398.67 464.908 1396.74C453.692 1390.17 438.218 1394.72 430.117 1404.86C421.991 1415 420.458 1429.22 423.28 1441.89C426.055 1452.67 430.646 1462.89 436.856 1472.13C436.248 1472.91 435.615 1473.67 435.007 1474.44C423.888 1488.73 414.198 1504.07 406.074 1520.25C408.049 1502.13 405.691 1483.8 399.194 1466.76C392.609 1450.88 380.266 1437.51 369.397 1423.79C356.341 1407.3 329.569 1414.5 327.269 1435.4C327.247 1435.6 327.225 1435.8 327.204 1436C328.818 1436.91 330.398 1437.88 331.945 1438.9C333.887 1440.2 335.392 1442.05 336.263 1444.22C337.133 1446.38 337.329 1448.76 336.824 1451.04C336.318 1453.32 335.136 1455.4 333.431 1456.99C331.726 1458.59 329.579 1459.63 327.27 1459.99L327.033 1460.03C327.609 1465.84 328.625 1471.6 330.074 1477.26C334.274 1493.07 341.695 1507.83 351.873 1520.64C362.051 1533.44 374.765 1544 389.219 1551.67C390.168 1552.15 391.093 1552.64 392.042 1553.1C383.88 1576.22 378.76 1600.3 376.811 1624.73C375.708 1639.15 375.773 1653.63 377.006 1668.03L376.933 1667.52C373.819 1651.5 365.268 1637.05 352.725 1626.6C334.096 1611.31 307.777 1605.68 287.679 1593.38C285.543 1592.01 283.06 1591.28 280.521 1591.28C277.983 1591.27 275.496 1591.99 273.354 1593.35C271.211 1594.71 269.502 1596.65 268.429 1598.95C267.356 1601.25 266.963 1603.81 267.296 1606.32C267.323 1606.5 267.35 1606.68 267.378 1606.86C270.374 1608.08 273.291 1609.48 276.112 1611.07C277.727 1611.98 279.307 1612.94 280.853 1613.96C282.796 1615.26 284.301 1617.11 285.172 1619.28C286.042 1621.45 286.238 1623.83 285.732 1626.11C285.227 1628.39 284.044 1630.46 282.34 1632.06C280.635 1633.65 278.487 1634.7 276.179 1635.05L275.942 1635.09C275.772 1635.11 275.626 1635.14 275.456 1635.16C280.575 1647.38 287.759 1658.62 296.695 1668.4C307.733 1680.24 321.075 1689.7 335.902 1696.2C350.728 1702.7 366.727 1706.1 382.918 1706.21H382.942C387.337 1725.29 393.705 1743.87 401.944 1761.64H469.822C470.066 1760.89 470.285 1760.11 470.504 1759.36C464.221 1759.75 457.913 1759.38 451.721 1758.24C456.757 1752.06 461.794 1745.84 466.83 1739.66C466.942 1739.55 467.048 1739.43 467.146 1739.3C469.701 1736.14 472.28 1733 474.834 1729.84L474.835 1729.84C474.972 1720.15 473.859 1710.48 471.525 1701.08L471.523 1701.08Z" fill="#F2F2F2"/>
<path d="M1585.98 1701.08C1587.74 1701.16 1589.47 1700.7 1590.95 1699.76C1592.43 1698.82 1593.59 1697.45 1594.26 1695.84C1594.94 1694.22 1595.1 1692.44 1594.73 1690.73C1594.36 1689.01 1593.47 1687.46 1592.18 1686.27C1591.96 1685.41 1591.81 1684.8 1591.59 1683.94C1591.67 1683.76 1591.75 1683.57 1591.83 1683.38C1593.59 1679.22 1596.55 1675.67 1600.32 1673.18C1604.1 1670.69 1608.53 1669.37 1613.05 1669.39C1617.58 1669.4 1621.99 1670.76 1625.75 1673.27C1629.51 1675.79 1632.44 1679.36 1634.17 1683.54C1641.1 1700.21 1649.91 1716.91 1652.08 1734.53C1653.04 1742.32 1652.64 1750.22 1650.89 1757.88C1667.16 1722.41 1675.61 1683.87 1675.66 1644.86C1675.66 1635.07 1675.12 1625.29 1674.03 1615.56C1673.13 1607.59 1671.88 1599.67 1670.28 1591.81C1661.56 1549.15 1642.85 1509.17 1615.66 1475.15C1602.51 1467.98 1591.87 1456.94 1585.18 1443.54C1582.76 1438.72 1581.04 1433.58 1580.09 1428.27C1581.58 1428.47 1583.09 1428.59 1584.57 1428.68C1585.03 1428.71 1585.52 1428.73 1585.98 1428.76L1586.16 1428.77C1587.79 1428.84 1589.41 1428.44 1590.81 1427.61C1592.22 1426.79 1593.36 1425.58 1594.1 1424.12C1594.83 1422.66 1595.13 1421.02 1594.96 1419.4C1594.78 1417.78 1594.14 1416.24 1593.11 1414.98C1592.47 1414.19 1591.83 1413.4 1591.19 1412.61C1590.22 1411.4 1589.22 1410.21 1588.25 1408.99C1588.13 1408.87 1588.03 1408.75 1587.93 1408.63C1586.81 1407.24 1585.69 1405.88 1584.57 1404.49C1586.61 1401.32 1589.36 1398.67 1592.6 1396.74C1603.82 1390.17 1619.29 1394.72 1627.39 1404.86C1635.52 1415 1637.05 1429.22 1634.23 1441.89C1631.45 1452.67 1626.86 1462.89 1620.65 1472.13C1621.26 1472.91 1621.89 1473.67 1622.5 1474.44C1633.62 1488.73 1643.31 1504.07 1651.43 1520.25C1649.46 1502.13 1651.82 1483.8 1658.31 1466.76C1664.9 1450.88 1677.24 1437.51 1688.11 1423.79C1701.17 1407.3 1727.94 1414.5 1730.24 1435.4C1730.26 1435.6 1730.28 1435.8 1730.3 1436C1728.69 1436.91 1727.11 1437.88 1725.56 1438.9C1723.62 1440.2 1722.12 1442.05 1721.24 1444.22C1720.37 1446.38 1720.18 1448.76 1720.68 1451.04C1721.19 1453.32 1722.37 1455.4 1724.08 1456.99C1725.78 1458.59 1727.93 1459.63 1730.24 1459.99L1730.47 1460.03C1729.9 1465.84 1728.88 1471.6 1727.43 1477.26C1723.23 1493.07 1715.81 1507.83 1705.63 1520.64C1695.46 1533.44 1682.74 1544 1668.29 1551.67C1667.34 1552.15 1666.42 1552.64 1665.47 1553.1C1673.63 1576.22 1678.75 1600.29 1680.7 1624.73C1681.8 1639.15 1681.73 1653.63 1680.5 1668.03L1680.57 1667.52C1683.69 1651.5 1692.24 1637.05 1704.78 1626.6C1723.41 1611.31 1749.73 1605.68 1769.83 1593.38C1771.96 1592.01 1774.45 1591.28 1776.99 1591.28C1779.52 1591.27 1782.01 1591.99 1784.15 1593.35C1786.3 1594.71 1788.01 1596.65 1789.08 1598.95C1790.15 1601.25 1790.55 1603.81 1790.21 1606.32C1790.18 1606.5 1790.16 1606.68 1790.13 1606.86C1787.13 1608.08 1784.22 1609.48 1781.4 1611.07C1779.78 1611.98 1778.2 1612.94 1776.65 1613.96C1774.71 1615.26 1773.21 1617.11 1772.34 1619.28C1771.47 1621.45 1771.27 1623.83 1771.78 1626.11C1772.28 1628.39 1773.46 1630.46 1775.17 1632.06C1776.87 1633.65 1779.02 1634.7 1781.33 1635.05L1781.57 1635.09C1781.74 1635.11 1781.88 1635.14 1782.05 1635.16C1776.93 1647.38 1769.75 1658.62 1760.81 1668.4C1749.77 1680.24 1736.43 1689.7 1721.61 1696.2C1706.78 1702.7 1690.78 1706.1 1674.59 1706.21H1674.57C1670.17 1725.29 1663.8 1743.87 1655.56 1761.64H1587.69C1587.44 1760.89 1587.22 1760.11 1587 1759.36C1593.29 1759.75 1599.59 1759.38 1605.79 1758.24C1600.75 1752.06 1595.71 1745.84 1590.68 1739.66C1590.57 1739.55 1590.46 1739.43 1590.36 1739.3C1587.81 1736.14 1585.23 1733 1582.67 1729.84L1582.67 1729.84C1582.54 1720.15 1583.65 1710.48 1585.98 1701.08L1585.98 1701.08Z" fill="#F2F2F2"/>
<path d="M745.467 1731.31H761.9L769.721 1667.96H745.467V1731.31Z" fill="#9E616A"/>
<path d="M740.103 1720.06L766.358 1718.5V1729.74L791.319 1746.97C792.552 1747.82 793.481 1749.04 793.97 1750.45C794.458 1751.87 794.481 1753.4 794.035 1754.83C793.589 1756.26 792.698 1757.51 791.491 1758.4C790.284 1759.29 788.825 1759.77 787.327 1759.77H756.069L750.681 1748.65L748.577 1759.77H736.792L740.103 1720.06Z" fill="#2F2E41"/>
<path d="M539.495 1717.36L554.764 1723.43L585.472 1667.46L562.938 1658.5L539.495 1717.36Z" fill="#9E616A"/>
<path d="M538.673 1704.92L563.646 1713.17L559.486 1723.62L576.302 1748.85C577.132 1750.1 577.543 1751.58 577.473 1753.07C577.403 1754.57 576.856 1756 575.913 1757.17C574.97 1758.33 573.679 1759.16 572.229 1759.54C570.78 1759.92 569.247 1759.82 567.855 1759.27L538.813 1747.71L537.923 1735.39L531.853 1744.95L520.903 1740.59L538.673 1704.92Z" fill="#2F2E41"/>
<path d="M712.341 1542.81L684.937 1415L642.144 1557L574.385 1691.66L574.026 1692.38L552.562 1680.83C549.533 1626.15 556.727 1574.91 583.04 1530.11L595.5 1407.14C595.882 1402.94 605.176 1304.29 634.607 1286.8L643.226 1267.16L728.95 1246L729.262 1246.35C737.505 1255.61 742.95 1267.02 744.965 1279.24L770.58 1434.33L770.594 1434.41L763.726 1542.6L773.121 1702.21H739.127C718.097 1662.66 709.169 1609.53 712.341 1542.81Z" fill="#2F2E41"/>
<path d="M1131.01 1021.29C1131.01 1057.61 1184.99 1121.4 1196.82 1087.06C1211.32 1045.01 1242.23 1018.36 1262.64 1021.29C1298.61 1026.45 1233.17 955.514 1196.82 955.514C1179.37 955.514 1162.63 962.443 1150.29 974.778C1137.95 987.112 1131.01 1003.84 1131.01 1021.29V1021.29Z" fill="#E6E6E6"/>
<path d="M1117.19 815.306C1108.65 850.615 1146.65 881.078 1183 881.078C1191.64 881.078 1200.2 879.376 1208.18 876.071C1216.17 872.766 1223.42 867.921 1229.53 861.814C1235.65 855.706 1240.49 848.456 1243.8 840.476C1247.11 832.496 1248.81 823.943 1248.81 815.306C1248.81 778.982 1199.82 781.735 1183 749.535C1163.74 712.673 1135.53 739.408 1117.19 815.306Z" fill="#E6E6E6"/>
<path d="M813.058 812.543C813.058 829.986 819.991 846.716 832.334 859.05C844.676 871.385 861.415 878.314 878.87 878.314C915.217 878.314 945.738 848.852 944.682 812.543C942.469 736.479 912.984 706.674 878.87 746.771C855.326 774.445 813.058 776.218 813.058 812.543Z" fill="#E6E6E6"/>
<path d="M807.53 1021.29C776.816 1008.02 830.158 1076.02 873.342 1087.06C908.555 1096.06 939.154 1057.61 939.154 1021.29C939.154 1012.65 937.452 1004.1 934.144 996.115C930.837 988.136 925.989 980.885 919.878 974.778C913.767 968.67 906.512 963.826 898.527 960.52C890.542 957.215 881.984 955.514 873.342 955.514C836.995 955.514 840.892 1035.7 807.53 1021.29Z" fill="#E6E6E6"/>
<path d="M1548.09 596.532H473.33C472.213 596.508 471.149 596.048 470.367 595.249C469.584 594.451 469.146 593.378 469.146 592.261C469.146 591.143 469.584 590.07 470.367 589.272C471.149 588.474 472.213 588.013 473.33 587.989H1548.09C1549.21 588.013 1550.28 588.474 1551.06 589.272C1551.84 590.07 1552.28 591.143 1552.28 592.261C1552.28 593.378 1551.84 594.451 1551.06 595.249C1550.28 596.048 1549.21 596.508 1548.09 596.532V596.532Z" fill="#CACACA"/>
<path d="M546.489 566.18C560.323 566.18 571.537 554.723 571.537 540.59C571.537 526.457 560.323 515 546.489 515C532.656 515 521.441 526.457 521.441 540.59C521.441 554.723 532.656 566.18 546.489 566.18Z" fill="#3F3D56"/>
<path d="M633.019 566.18C646.852 566.18 658.066 554.723 658.066 540.59C658.066 526.457 646.852 515 633.019 515C619.185 515 607.971 526.457 607.971 540.59C607.971 554.723 619.185 566.18 633.019 566.18Z" fill="#3F3D56"/>
<path d="M719.548 566.18C733.381 566.18 744.596 554.723 744.596 540.59C744.596 526.457 733.381 515 719.548 515C705.714 515 694.5 526.457 694.5 540.59C694.5 554.723 705.714 566.18 719.548 566.18Z" fill="#3F3D56"/>
<path d="M1496 521.343H1434.53C1433.31 521.367 1432.15 521.868 1431.3 522.737C1430.45 523.607 1429.97 524.776 1429.97 525.994C1429.97 527.212 1430.45 528.381 1431.3 529.251C1432.15 530.12 1433.31 530.621 1434.53 530.645H1496C1497.22 530.621 1498.38 530.12 1499.23 529.251C1500.08 528.381 1500.56 527.212 1500.56 525.994C1500.56 524.776 1500.08 523.607 1499.23 522.737C1498.38 521.868 1497.22 521.367 1496 521.343H1496Z" fill="#3F3D56"/>
<path d="M1496 538.801H1434.53C1433.31 538.825 1432.15 539.326 1431.3 540.195C1430.45 541.065 1429.97 542.234 1429.97 543.452C1429.97 544.67 1430.45 545.839 1431.3 546.709C1432.15 547.578 1433.31 548.079 1434.53 548.103H1496C1497.21 548.079 1498.38 547.578 1499.23 546.709C1500.08 545.839 1500.56 544.67 1500.56 543.452C1500.56 542.234 1500.08 541.065 1499.23 540.195C1498.38 539.326 1497.21 538.825 1496 538.801H1496Z" fill="#3F3D56"/>
<path d="M1496 556.237H1434.53C1433.31 556.262 1432.15 556.762 1431.3 557.632C1430.45 558.501 1429.97 559.671 1429.97 560.888C1429.97 562.106 1430.45 563.275 1431.3 564.145C1432.15 565.015 1433.31 565.515 1434.53 565.54H1496C1497.21 565.515 1498.38 565.015 1499.23 564.145C1500.08 563.275 1500.56 562.106 1500.56 560.888C1500.56 559.671 1500.08 558.501 1499.23 557.632C1498.38 556.762 1497.21 556.262 1496 556.237H1496Z" fill="#3F3D56"/>
<path d="M1189.46 785.455H1101.43C1099.6 785.455 1097.79 785.815 1096.1 786.515C1094.41 787.215 1092.87 788.24 1091.58 789.533C1090.28 790.826 1089.26 792.361 1088.56 794.05C1087.86 795.739 1087.5 797.55 1087.5 799.378V887.355C1087.5 891.047 1088.96 894.589 1091.58 897.2C1094.19 899.811 1097.73 901.278 1101.43 901.278H1189.46C1193.15 901.278 1196.7 899.811 1199.31 897.2C1201.92 894.589 1203.39 891.047 1203.39 887.355V799.378C1203.39 795.685 1201.92 792.144 1199.31 789.533C1196.7 786.922 1193.15 785.455 1189.46 785.455ZM1172.93 815.157H1162.83C1155.94 815.157 1154.6 818.419 1154.6 823.234V833.445H1171.04L1168.9 849.477H1154.57V891.283C1148.44 892.432 1142.15 892.417 1136.03 891.239V849.477H1122.88V833.445H1136.27V821.589C1136.27 807.415 1146.12 799.673 1158.81 799.673C1164.91 799.673 1171.43 800.131 1172.93 800.344V815.157Z" fill="#102E4A"/>
<path d="M969.26 785.455H881.229C877.534 785.455 873.99 786.922 871.377 789.533C868.765 792.144 867.297 795.685 867.297 799.378V887.355C867.297 891.047 868.765 894.589 871.377 897.2C873.99 899.811 877.534 901.278 881.229 901.278H969.26C972.955 901.278 976.498 899.811 979.111 897.2C981.724 894.589 983.191 891.047 983.191 887.355V799.378C983.191 795.685 981.724 792.144 979.111 789.533C976.498 786.922 972.955 785.455 969.26 785.455V785.455ZM925.244 874.253C919.131 874.253 913.156 872.441 908.074 869.047C902.992 865.654 899.03 860.83 896.691 855.186C894.352 849.542 893.74 843.332 894.933 837.341C896.125 831.35 899.069 825.846 903.391 821.527C907.713 817.207 913.22 814.266 919.215 813.074C925.21 811.882 931.424 812.494 937.071 814.831C942.718 817.169 947.545 821.128 950.941 826.207C954.337 831.286 956.149 837.258 956.149 843.366C956.149 851.558 952.893 859.414 947.097 865.206C941.302 870.998 933.441 874.253 925.244 874.253H925.244ZM960.012 812.48C958.484 812.48 956.99 812.028 955.72 811.179C954.449 810.331 953.459 809.125 952.874 807.714C952.289 806.303 952.136 804.75 952.434 803.252C952.733 801.755 953.468 800.379 954.549 799.299C955.63 798.219 957.006 797.484 958.505 797.186C960.004 796.888 961.557 797.041 962.969 797.625C964.381 798.21 965.588 799.199 966.437 800.469C967.286 801.739 967.739 803.232 967.739 804.759C967.739 806.807 966.925 808.771 965.476 810.219C964.027 811.667 962.062 812.48 960.012 812.48H960.012Z" fill="#102E4A"/>
<path d="M1210.67 993.249C1213.18 993.266 1215.65 993.834 1217.92 994.911C1220.19 995.989 1222.19 997.55 1223.79 999.485C1225.39 1001.42 1226.54 1003.68 1227.17 1006.11C1227.8 1008.54 1227.89 1011.08 1227.43 1013.54L1260.32 1034.93L1252.19 1058.08L1206.17 1027.22C1202.07 1026.18 1198.5 1023.67 1196.13 1020.17C1193.76 1016.67 1192.76 1012.42 1193.32 1008.24C1193.87 1004.05 1195.95 1000.21 1199.14 997.448C1202.34 994.686 1206.44 993.191 1210.67 993.249V993.249Z" fill="#FFB6B6"/>
<path d="M1222.38 1049.49L1245.86 1022.4L1276.19 1036.46L1338.18 1085.76C1346.3 1086.71 1407.97 1094.67 1406.83 1117.3C1406.8 1119.94 1406.2 1122.55 1405.07 1124.94C1403.94 1127.33 1402.31 1129.45 1400.28 1131.15C1390.54 1139.18 1373.68 1136.9 1373.05 1136.81L1332.69 1134.79C1330.58 1135.3 1308.68 1140.33 1297.08 1133.13C1293.57 1130.94 1222.38 1049.49 1222.38 1049.49Z" fill="#3F3D56"/>
<path d="M1290.08 1741.35L1270.86 1741.35L1261.71 1667.24H1290.09L1290.08 1741.35Z" fill="#FFB6B6"/>
<path d="M1294.99 1759.98L1232.99 1759.98V1759.19C1232.99 1752.8 1235.53 1746.66 1240.06 1742.14C1244.58 1737.62 1250.72 1735.08 1257.12 1735.08H1257.12L1268.45 1726.49L1289.58 1735.08L1294.99 1735.08L1294.99 1759.98Z" fill="#2F2E41"/>
<path d="M1501.12 1726.31L1482.58 1731.43L1454.02 1662.42L1481.37 1654.87L1501.12 1726.31Z" fill="#FFB6B6"/>
<path d="M1510.81 1742.96L1451.05 1759.46L1450.84 1758.7C1449.13 1752.54 1449.95 1745.95 1453.11 1740.39C1456.26 1734.82 1461.5 1730.74 1467.67 1729.04L1467.67 1729.04L1476.3 1717.75L1498.96 1720.4L1504.17 1718.96L1510.81 1742.96Z" fill="#2F2E41"/>
<path d="M1290.93 1292.81L1436.21 1300.22L1436.26 1300.35C1444.96 1324.51 1447 1350.57 1442.14 1375.78V1375.78L1446.59 1412.82L1468.83 1528.39L1498.48 1676.54C1498.48 1676.54 1537.02 1686.91 1486.62 1704.69C1436.21 1722.47 1446.59 1712.1 1454 1698.77C1461.42 1685.43 1417.68 1535.05 1417.68 1535.05L1364.31 1415.04L1312.43 1539.5L1306.5 1677.28C1306.5 1677.28 1322.06 1695.8 1277.59 1703.21C1233.11 1710.62 1235.34 1696.54 1245.71 1686.17C1256.09 1675.8 1264.99 1538.02 1264.99 1538.02L1275.36 1407.64C1275.36 1407.64 1272.4 1332.08 1290.93 1292.81Z" fill="#2F2E41"/>
<path d="M1432.99 1123.55L1421.31 1092.93L1383.69 1055.9L1336.05 1052.17L1301.04 1083.49L1291.14 1114.66C1304.12 1174.75 1303.86 1230.1 1285.46 1283.72C1284.15 1287.42 1283.67 1291.37 1284.04 1295.28C1284.42 1299.19 1285.65 1302.98 1287.64 1306.37C1289.63 1309.76 1292.33 1312.67 1295.56 1314.91C1298.8 1317.15 1302.48 1318.65 1306.35 1319.32C1360.33 1328.39 1460.83 1341.98 1453.9 1316.1C1444.75 1281.88 1412.89 1208.21 1424.69 1169.26C1428.98 1155.72 1431.69 1141.74 1432.74 1127.58L1432.99 1123.55Z" fill="#3F3D56"/>
<path d="M1351.86 1040.22C1375.34 1040.22 1394.38 1021.19 1394.38 997.723C1394.38 974.255 1375.34 955.23 1351.86 955.23C1328.38 955.23 1309.34 974.255 1309.34 997.723C1309.34 1021.19 1328.38 1040.22 1351.86 1040.22Z" fill="#FFB6B6"/>
<path d="M1340.26 1037.98L1372.67 1036.33C1376.82 1036.12 1381.35 1035.75 1384.37 1032.9C1386 1031.13 1387.25 1029.06 1388.05 1026.8C1391.04 1019.84 1394.04 1012.89 1396.96 1005.9C1401 996.232 1404.97 986.026 1403.93 975.602C1403.69 970.842 1401.7 966.339 1398.33 962.965C1396.61 961.338 1394.4 960.327 1392.04 960.088C1389.69 959.85 1387.32 960.398 1385.31 961.646C1384.81 958.349 1383.57 955.209 1381.68 952.463C1379.78 949.716 1377.29 947.436 1374.39 945.794C1368.52 942.556 1361.82 941.137 1355.15 941.718C1345.46 942.342 1336.21 945.985 1328.71 952.133C1326.6 954.08 1324.34 955.866 1321.96 957.475C1320.76 958.275 1319.42 958.822 1318 959.084C1316.59 959.346 1315.13 959.316 1313.73 958.998C1312.34 958.626 1311.13 957.764 1310.32 956.571C1309.52 955.378 1309.18 953.935 1309.35 952.507C1307.07 954.213 1305.51 956.707 1304.96 959.504C1304.42 962.3 1304.94 965.198 1306.42 967.632C1304.74 968.336 1302.9 968.594 1301.09 968.38C1299.28 968.166 1297.56 967.487 1296.08 966.41C1294.51 967.191 1293.11 968.294 1291.99 969.646C1290.86 970.998 1290.03 972.57 1289.55 974.261C1289.06 975.953 1288.94 977.726 1289.18 979.468C1289.43 981.21 1290.03 982.883 1290.96 984.378C1291.88 985.873 1293.11 987.158 1294.57 988.151C1296.02 989.144 1297.66 989.823 1299.39 990.144C1301.12 990.465 1302.9 990.422 1304.61 990.017C1306.33 989.611 1307.94 988.853 1309.34 987.79C1311.31 990.544 1310.57 994.286 1310.32 997.659C1310.06 1001.03 1310.97 1005.22 1314.22 1006.16C1318.62 1007.42 1322.18 1001.5 1326.76 1001.56C1327.89 1001.65 1328.98 1002.02 1329.93 1002.63C1330.88 1003.25 1331.67 1004.09 1332.22 1005.08C1333.29 1007.06 1334.03 1009.22 1334.4 1011.45L1340.26 1037.8" fill="#2F2E41"/>
<path d="M1123.16 1105.59C1106.97 1105.6 1091.13 1100.91 1077.56 1092.08L1070.73 1087.65L1078.83 1088.55C1080.95 1088.78 1083.23 1088.92 1085.61 1088.95C1096.52 1088.96 1107.2 1085.82 1116.38 1079.92C1110.93 1078.74 1105.88 1076.16 1101.73 1072.43C1097.59 1068.7 1094.49 1063.96 1092.74 1058.66L1091.73 1055.54L1094.95 1056.17C1096.42 1056.46 1097.9 1056.63 1099.39 1056.67C1094.29 1054.05 1090 1050.07 1087 1045.17C1084.01 1040.28 1082.41 1034.65 1082.4 1028.91V1025.6L1085.28 1026.88C1086.99 1027.84 1088.8 1028.61 1090.68 1029.17C1086.23 1024.19 1083.48 1017.94 1082.79 1011.3C1082.11 1004.67 1083.54 997.987 1086.87 992.208L1088.28 989.782L1090.04 991.959C1102.9 1007.86 1121.33 1018.29 1141.59 1021.12C1142.15 1021.2 1142.71 1021.16 1143.25 1021C1143.79 1020.84 1144.29 1020.56 1144.71 1020.19C1145.14 1019.82 1145.48 1019.35 1145.72 1018.84C1145.96 1018.32 1146.08 1017.75 1146.08 1017.18C1146.03 1011.01 1147.82 1004.97 1151.23 999.816C1154.63 994.666 1159.49 990.646 1165.19 988.269C1170.89 985.891 1177.17 985.262 1183.22 986.464C1189.28 987.665 1194.84 990.642 1199.2 995.015C1205.16 993.714 1210.88 991.47 1216.14 988.368L1220.57 985.744L1218.95 990.634C1217.46 995.17 1214.94 999.306 1211.61 1002.73C1214.57 1001.96 1217.46 1000.95 1220.26 999.724L1226.27 997.085L1222.65 1002.56C1218.82 1008.36 1214.02 1013.47 1208.48 1017.68V1020.47C1208.48 1062.31 1176.63 1105.59 1123.33 1105.59L1123.16 1105.59Z" fill="#102E4A"/>
<path d="M1161.34 1075.8C1163.85 1075.7 1166.35 1076.14 1168.67 1077.11C1170.99 1078.08 1173.06 1079.54 1174.75 1081.4C1176.44 1083.25 1177.7 1085.46 1178.45 1087.85C1179.19 1090.25 1179.4 1092.78 1179.07 1095.26L1212.95 1115.04L1205.94 1138.55L1158.49 1109.95C1154.34 1109.1 1150.66 1106.77 1148.12 1103.39C1145.59 1100.01 1144.39 1095.81 1144.74 1091.6C1145.09 1087.4 1146.98 1083.46 1150.04 1080.55C1153.1 1077.64 1157.12 1075.95 1161.34 1075.8V1075.8Z" fill="#FFB6B6"/>
<path d="M1201.24 1149.61L1175.93 1122.24L1193.48 1096.02L1212.39 1111.88L1233.06 1116.82L1262.23 1127.88C1266.29 1120.78 1297.8 1067.21 1318.18 1077.13C1320.61 1078.2 1322.77 1079.77 1324.53 1081.75C1326.29 1083.73 1327.59 1086.06 1328.36 1088.59C1331.93 1100.69 1323.22 1115.3 1322.89 1115.84L1305.2 1152.15C1304.84 1154.29 1300.88 1176.4 1289.7 1184.23C1288.12 1185.39 1286.32 1186.2 1284.41 1186.62C1282.5 1187.04 1280.52 1187.07 1278.61 1186.68C1243.89 1180.12 1219.42 1169.97 1206.94 1157.07C1204.74 1154.82 1202.83 1152.32 1201.24 1149.61V1149.61Z" fill="#3F3D56"/>
<path d="M751.076 1043.79C747.181 1035.42 753.363 1026.07 755.57 1017.06C759.687 1000.24 748.086 982.023 732.362 976.195C716.638 970.366 698.569 975.238 685.062 985.437C671.821 995.435 662.512 1000.15 653.391 1014.27C650.333 1019.01 647.094 1033.72 646.515 1039.39C645.937 1045.07 648.874 1051.57 654.229 1052.81C653.716 1053.82 653.491 1054.96 653.577 1056.09C653.664 1057.22 654.06 1058.31 654.722 1059.23C655.383 1060.15 656.285 1060.87 657.329 1061.32C658.374 1061.76 659.52 1061.92 660.644 1061.75C670.894 1059.78 689.72 1065.22 689.72 1065.22C707.272 1066.22 724.824 1067.22 742.376 1068.23C746.874 1068.49 751.541 1068.72 755.582 1066.24C756.699 1065.58 757.662 1064.69 758.404 1063.63C759.146 1062.57 759.649 1061.36 759.879 1060.09C760.906 1053.44 753.762 1049.57 751.076 1043.79Z" fill="#2F2E41"/>
<path d="M764.33 1117.06L760.489 1142.61L754.398 1183.09L753.366 1198.09L745.786 1308.01L724.91 1324.06C712.824 1333.35 697.737 1337.87 682.528 1336.76C667.32 1335.64 653.055 1328.97 642.455 1318.01L617.104 1305.82C630.691 1292.46 628.164 1230.55 628.164 1230.55L628.012 1108.96L662.375 1097.41L673.694 1075.14H714.3L724.451 1098.82L742.876 1107.24L751.268 1111.09L764.33 1117.06Z" fill="#E6E6E6"/>
<path d="M695.674 1063.72C714.636 1063.72 730.007 1048.36 730.007 1029.41C730.007 1010.46 714.636 995.101 695.674 995.101C676.713 995.101 661.342 1010.46 661.342 1029.41C661.342 1048.36 676.713 1063.72 695.674 1063.72Z" fill="#9E616A"/>
<path d="M676.058 1018.65C666.988 1018.66 658.135 1015.87 650.715 1010.66L650.468 1010.48C650.468 1006.1 651.332 1001.76 653.01 997.713C654.688 993.664 657.148 989.985 660.249 986.885C663.35 983.786 667.031 981.328 671.083 979.651C675.135 977.974 679.477 977.11 683.863 977.11H697.494C701.851 977.115 706.164 977.979 710.186 979.652C714.208 981.325 717.861 983.774 720.935 986.859C724.008 989.945 726.443 993.606 728.099 997.633C729.756 1001.66 730.601 1005.97 730.587 1010.33C730.558 1012.31 729.755 1014.21 728.347 1015.62C726.94 1017.02 725.039 1017.82 723.051 1017.85L676.841 1018.64C676.58 1018.65 676.319 1018.65 676.058 1018.65Z" fill="#2F2E41"/>
<path d="M776.558 1187.6L745.459 1187.85L743.174 1243.17L717.906 1274.09C714.832 1274.6 711.961 1275.96 709.61 1278.01C707.259 1280.05 705.52 1282.71 704.584 1285.68C703.648 1288.65 703.552 1291.82 704.307 1294.84C705.062 1297.87 706.638 1300.62 708.861 1302.8C711.084 1304.99 713.868 1306.51 716.905 1307.22C719.942 1307.92 723.114 1307.77 726.071 1306.78C729.027 1305.79 731.653 1304.01 733.659 1301.62C735.664 1299.24 736.971 1296.35 737.435 1293.27L772.243 1245.04L776.558 1187.6Z" fill="#9E616A"/>
<path d="M612.579 1189.25L580.7 1174.36L545.889 1217.43L507.166 1227.22C504.389 1225.8 501.274 1225.18 498.167 1225.42C495.059 1225.67 492.079 1226.76 489.556 1228.59C487.033 1230.42 485.066 1232.91 483.87 1235.79C482.675 1238.67 482.298 1241.82 482.782 1244.9C483.266 1247.97 484.592 1250.86 486.613 1253.23C488.634 1255.6 491.272 1257.37 494.235 1258.34C497.198 1259.3 500.371 1259.43 503.403 1258.71C506.436 1257.99 509.209 1256.45 511.418 1254.25L568.121 1236.24L612.579 1189.25Z" fill="#9E616A"/>
<path d="M712.853 1061.07L724.74 1046.25C726.024 1044.96 726.859 1043.28 727.125 1041.48C727.187 1039.66 725.479 1037.73 723.757 1038.29C722.158 1038.82 712.945 1015.75 711.262 1015.76C709.517 1015.76 708.948 1013.44 708.926 1011.69C708.842 1005.09 714.216 1012.18 715.993 1005.82C717.769 999.453 724.695 1004.93 730.663 1002.08C736.632 999.24 744.742 1000.53 748.431 1006.01C751.167 1010.08 751.066 1015.36 750.703 1020.25C749.86 1031.59 748.153 1042.84 745.597 1053.92C744.969 1056.64 744.034 1059.68 741.525 1060.91C740.144 1061.46 738.655 1061.68 737.174 1061.56L718.873 1061.47" fill="#2F2E41"/>
<path d="M741.37 997.363C750.715 997.363 758.289 989.793 758.289 980.455C758.289 971.116 750.715 963.546 741.37 963.546C732.026 963.546 724.451 971.116 724.451 980.455C724.451 989.793 732.026 997.363 741.37 997.363Z" fill="#2F2E41"/>
<path d="M779.422 1187.06C777.595 1190.24 773.703 1191.51 770.15 1192.49C765.345 1193.83 763.941 1195.18 759.136 1196.51C757.224 1197.06 755.295 1197.6 753.367 1198.09C750.2 1198.94 746.985 1199.6 743.739 1200.07C741.015 1200.45 737.801 1200.45 736.024 1198.34C734.846 1196.53 734.371 1194.34 734.688 1192.2C735.381 1166.23 736.081 1140.26 736.786 1114.29L738.258 1114.79C738.92 1114.36 739.61 1113.96 740.322 1113.61C743.709 1111.89 747.468 1111.02 751.268 1111.09C753.443 1111.11 755.603 1111.45 757.681 1112.09C760.906 1113.11 763.869 1114.83 766.364 1117.11C768.859 1119.39 770.827 1122.19 772.13 1125.31C773.817 1130.02 774.62 1135 774.498 1140.01C774.515 1140.77 774.515 1141.53 774.532 1142.29C774.634 1148.78 771.334 1155.27 771.436 1161.77C771.359 1163.6 771.611 1165.42 772.18 1167.16C772.857 1168.89 774.177 1170.32 774.685 1172.12C775.192 1173.89 774.363 1176.33 772.519 1176.46C773.822 1176.32 775.137 1176.55 776.321 1177.11C777.504 1177.67 778.509 1178.55 779.223 1179.65C779.938 1180.74 780.334 1182.02 780.37 1183.33C780.405 1184.64 780.077 1185.93 779.422 1187.06V1187.06Z" fill="#E6E6E6"/>
<path d="M628.155 1109.11C631.538 1109.31 634.835 1110.26 637.81 1111.88C640.784 1113.51 643.364 1115.77 645.364 1118.5C647.364 1121.24 648.735 1124.38 649.38 1127.7C650.025 1131.03 649.928 1134.46 649.094 1137.74C647.325 1143.22 644.546 1148.33 640.898 1152.8L629.526 1168.61C628.372 1170.03 627.485 1171.64 626.907 1173.38C626.428 1175.17 626.617 1177.12 625.962 1178.85C625.307 1180.59 623.196 1182.05 621.629 1181.05C622.758 1181.72 623.681 1182.68 624.296 1183.83C624.912 1184.99 625.196 1186.29 625.117 1187.6C625.038 1188.91 624.599 1190.17 623.849 1191.24C623.098 1192.31 622.066 1193.16 620.865 1193.68C617.491 1195.15 613.614 1193.84 610.176 1192.53L596.211 1187.18C591.245 1185.41 586.405 1183.31 581.726 1180.87C579.309 1179.55 576.729 1177.64 576.557 1174.89C576.423 1172.75 578.235 1171.1 579.143 1169.16C590.516 1144.82 607.24 1125.46 628.013 1108.96L628.155 1109.11Z" fill="#E6E6E6"/>
<path d="M644.494 1255.59C644.494 1241.99 634.459 1231.02 621.908 1231.02C605.099 1230.22 587.998 1229.93 570.511 1229.93H565.058C547.603 1229.93 530.438 1230.22 513.661 1231.02C501.303 1231.02 491.269 1242.02 491.269 1255.66C490.495 1266.46 490.172 1277.23 490.204 1287.9C490.237 1298.58 490.495 1309.48 491.237 1320.15C491.237 1333.79 501.271 1344.85 513.628 1344.85C531.245 1345.65 549.345 1346.01 567.736 1346.01C586.127 1346.01 604.195 1345.69 621.876 1344.85C634.266 1344.85 644.461 1333.79 644.461 1320.15C645.171 1309.35 645.526 1298.58 645.494 1287.74C645.461 1276.91 645.203 1266.2 644.493 1255.5L644.494 1255.59ZM553.088 1317.73V1258.21L597.033 1287.94L553.088 1317.73Z" fill="#102E4A"/>
<path d="M1789.3 1766.27L268.69 1767C267.944 1767 267.229 1766.7 266.703 1766.17C266.176 1765.65 265.881 1764.93 265.881 1764.19C265.881 1763.44 266.176 1762.73 266.703 1762.2C267.229 1761.67 267.944 1761.37 268.69 1761.37L1789.3 1760.64C1790.05 1760.65 1790.76 1760.94 1791.29 1761.47C1791.82 1762 1792.11 1762.71 1792.11 1763.46C1792.11 1764.2 1791.82 1764.92 1791.29 1765.45C1790.76 1765.97 1790.05 1766.27 1789.3 1766.27V1766.27Z" fill="#CACACA"/>
<circle cx="1023.03" cy="1238.78" r="466.221" fill="#C4C4C4" fill-opacity="0.19"/>
</svg>
