<svg width="2056" height="1597" viewBox="0 0 2056 1597" fill="none" xmlns="http://www.w3.org/2000/svg">
<path d="M482.948 293.082V333H475.436V293.082H482.948ZM495.34 293.082V299.031H463.181V293.082H495.34ZM553.231 309.559V315.481H532.23V309.559H553.231ZM534.286 293.082V333H526.747V293.082H534.286ZM558.824 293.082V333H551.284V293.082H558.824ZM619.346 327.078V333H598.126V327.078H619.346ZM600.429 293.082V333H592.89V293.082H600.429ZM616.577 309.559V315.344H598.126V309.559H616.577ZM619.264 293.082V299.031H598.126V293.082H619.264ZM714.703 319.868H722.242C722.041 322.536 721.301 324.903 720.021 326.968C718.742 329.016 716.96 330.624 714.675 331.794C712.391 332.963 709.622 333.548 706.368 333.548C703.864 333.548 701.607 333.11 699.596 332.232C697.604 331.337 695.895 330.066 694.47 328.422C693.062 326.758 691.984 324.766 691.235 322.445C690.485 320.105 690.111 317.482 690.111 314.576V311.533C690.111 308.627 690.494 306.004 691.262 303.665C692.03 301.325 693.126 299.333 694.552 297.688C695.996 296.025 697.723 294.745 699.734 293.85C701.762 292.954 704.029 292.506 706.533 292.506C709.786 292.506 712.537 293.11 714.785 294.316C717.033 295.504 718.779 297.14 720.021 299.223C721.264 301.307 722.014 303.701 722.27 306.406H714.73C714.584 304.725 714.218 303.299 713.634 302.129C713.067 300.96 712.208 300.073 711.056 299.47C709.923 298.849 708.415 298.538 706.533 298.538C705.071 298.538 703.782 298.812 702.667 299.36C701.57 299.909 700.657 300.731 699.925 301.828C699.194 302.906 698.646 304.259 698.281 305.885C697.915 307.494 697.732 309.358 697.732 311.478V314.576C697.732 316.605 697.897 318.424 698.226 320.032C698.555 321.641 699.066 323.002 699.761 324.117C700.456 325.232 701.351 326.082 702.448 326.667C703.544 327.252 704.851 327.544 706.368 327.544C708.214 327.544 709.713 327.252 710.865 326.667C712.034 326.082 712.921 325.223 713.524 324.09C714.145 322.957 714.538 321.549 714.703 319.868ZM754.471 293.082H768.975C772.009 293.082 774.613 293.539 776.788 294.453C778.963 295.367 780.636 296.719 781.805 298.511C782.975 300.302 783.56 302.504 783.56 305.118C783.56 307.183 783.194 308.974 782.463 310.491C781.732 312.008 780.7 313.279 779.365 314.302C778.049 315.326 776.496 316.13 774.705 316.715L772.347 317.921H759.543L759.489 311.972H769.057C770.61 311.972 771.899 311.698 772.923 311.149C773.946 310.601 774.714 309.843 775.225 308.874C775.756 307.905 776.021 306.799 776.021 305.556C776.021 304.222 775.765 303.071 775.253 302.102C774.741 301.115 773.964 300.357 772.923 299.827C771.881 299.296 770.565 299.031 768.975 299.031H762.011V333H754.471V293.082ZM777.008 333L767.768 315.125L775.746 315.097L785.095 332.616V333H777.008ZM843.013 327.078V333H821.793V327.078H843.013ZM824.096 293.082V333H816.557V293.082H824.096ZM840.244 309.559V315.344H821.793V309.559H840.244ZM842.931 293.082V299.031H821.793V293.082H842.931ZM890.513 299.141L879.136 333H871.158L886.072 293.082H891.171L890.513 299.141ZM900.027 333L888.594 299.141L887.909 293.082H893.036L908.032 333H900.027ZM899.506 318.168V324.117H878.094V318.168H899.506ZM952.215 293.082V333H944.703V293.082H952.215ZM964.607 293.082V299.031H932.448V293.082H964.607ZM1004.05 293.082V333H996.507V293.082H1004.05ZM1052.62 325.186L1062.57 293.082H1070.93L1056.84 333H1051.27L1052.62 325.186ZM1043.43 293.082L1053.33 325.186L1054.75 333H1049.13L1035.1 293.082H1043.43ZM1127.89 327.078V333H1106.67V327.078H1127.89ZM1108.97 293.082V333H1101.43V293.082H1108.97ZM1125.12 309.559V315.344H1106.67V309.559H1125.12ZM1127.81 293.082V299.031H1106.67V293.082H1127.81ZM1231.03 312.356V327.901C1230.45 328.65 1229.52 329.463 1228.26 330.341C1227.02 331.218 1225.39 331.976 1223.38 332.616C1221.37 333.238 1218.9 333.548 1215.98 333.548C1213.44 333.548 1211.12 333.128 1209.02 332.287C1206.91 331.428 1205.1 330.176 1203.59 328.531C1202.07 326.886 1200.9 324.876 1200.08 322.5C1199.26 320.124 1198.84 317.409 1198.84 314.357V311.725C1198.84 308.673 1199.23 305.959 1200 303.583C1200.78 301.206 1201.9 299.196 1203.34 297.551C1204.8 295.906 1206.55 294.654 1208.58 293.795C1210.62 292.936 1212.91 292.506 1215.43 292.506C1218.81 292.506 1221.59 293.064 1223.77 294.179C1225.96 295.294 1227.64 296.829 1228.81 298.785C1229.98 300.722 1230.71 302.952 1231 305.474H1223.66C1223.46 304.085 1223.05 302.87 1222.45 301.828C1221.85 300.768 1220.99 299.945 1219.87 299.36C1218.78 298.757 1217.35 298.456 1215.6 298.456C1214.12 298.456 1212.81 298.748 1211.68 299.333C1210.54 299.918 1209.59 300.768 1208.82 301.883C1208.06 302.998 1207.47 304.378 1207.07 306.023C1206.69 307.668 1206.49 309.55 1206.49 311.67V314.357C1206.49 316.496 1206.71 318.396 1207.15 320.06C1207.59 321.705 1208.22 323.094 1209.04 324.227C1209.88 325.342 1210.92 326.192 1212.14 326.777C1213.38 327.343 1214.79 327.626 1216.36 327.626C1217.79 327.626 1218.97 327.508 1219.9 327.27C1220.85 327.014 1221.61 326.713 1222.18 326.365C1222.74 326.018 1223.18 325.68 1223.49 325.351V317.866H1215.57V312.356H1231.03ZM1280.42 299.141L1269.05 333H1261.07L1275.98 293.082H1281.08L1280.42 299.141ZM1289.94 333L1278.5 299.141L1277.82 293.082H1282.95L1297.94 333H1289.94ZM1289.42 318.168V324.117H1268V318.168H1289.42ZM1353.78 327.078V333H1333.71V327.078H1353.78ZM1335.98 293.082V333H1328.44V293.082H1335.98ZM1410.54 327.078V333H1390.47V327.078H1410.54ZM1392.75 293.082V333H1385.21V293.082H1392.75ZM1468.43 327.078V333H1447.21V327.078H1468.43ZM1449.52 293.082V333H1441.98V293.082H1449.52ZM1465.66 309.559V315.344H1447.21V309.559H1465.66ZM1468.35 293.082V299.031H1447.21V293.082H1468.35ZM1500.06 293.082H1514.56C1517.6 293.082 1520.2 293.539 1522.38 294.453C1524.55 295.367 1526.22 296.719 1527.39 298.511C1528.56 300.302 1529.15 302.504 1529.15 305.118C1529.15 307.183 1528.78 308.974 1528.05 310.491C1527.32 312.008 1526.29 313.279 1524.95 314.302C1523.64 315.326 1522.08 316.13 1520.29 316.715L1517.94 317.921H1505.13L1505.08 311.972H1514.65C1516.2 311.972 1517.49 311.698 1518.51 311.149C1519.53 310.601 1520.3 309.843 1520.81 308.874C1521.34 307.905 1521.61 306.799 1521.61 305.556C1521.61 304.222 1521.35 303.071 1520.84 302.102C1520.33 301.115 1519.55 300.357 1518.51 299.827C1517.47 299.296 1516.15 299.031 1514.56 299.031H1507.6V333H1500.06V293.082ZM1522.6 333L1513.36 315.125L1521.34 315.097L1530.68 332.616V333H1522.6ZM1565.49 293.082L1574.26 311.698L1583.09 293.082H1591.37L1578.1 318.387V333H1570.45V318.387L1557.16 293.082H1565.49Z" fill="#102E4A"/>
<path d="M678.6 540.769C690.459 540.769 701.239 543.524 710.942 549.034C720.764 554.544 728.49 562.21 734.12 572.032C739.869 581.735 742.744 592.695 742.744 604.913C742.744 617.251 739.869 628.33 734.12 638.153C728.49 647.855 720.764 655.461 710.942 660.971C701.119 666.481 690.339 669.236 678.6 669.236C666.862 669.236 656.081 666.481 646.259 660.971C636.437 655.461 628.651 647.855 622.901 638.153C617.271 628.33 614.457 617.251 614.457 604.913C614.457 592.695 617.271 581.735 622.901 572.032C628.651 562.21 636.437 554.544 646.259 549.034C656.081 543.524 666.862 540.769 678.6 540.769ZM678.6 563.947C671.054 563.947 664.346 565.624 658.477 568.978C652.727 572.332 648.235 577.123 645.001 583.352C641.767 589.581 640.15 596.768 640.15 604.913C640.15 613.058 641.767 620.245 645.001 626.474C648.235 632.702 652.727 637.554 658.477 641.027C664.346 644.381 671.054 646.058 678.6 646.058C686.147 646.058 692.794 644.381 698.544 641.027C704.294 637.554 708.786 632.762 712.02 626.653C715.254 620.425 716.871 613.178 716.871 604.913C716.871 596.648 715.254 589.461 712.02 583.352C708.786 577.123 704.294 572.332 698.544 568.978C692.794 565.624 686.147 563.947 678.6 563.947ZM856.681 568.439V667.979H831.347V652.886C828.233 658.156 823.981 662.229 818.59 665.104C813.32 667.859 807.211 669.236 800.264 669.236C792.957 669.236 786.369 667.619 780.499 664.385C774.75 661.031 770.198 656.18 766.844 649.831C763.49 643.363 761.813 635.697 761.813 626.833V568.439H786.968V623.24C786.968 631.026 788.944 637.015 792.897 641.207C796.85 645.399 802.24 647.496 809.068 647.496C815.895 647.496 821.285 645.399 825.238 641.207C829.311 637.015 831.347 631.026 831.347 623.24V568.439H856.681ZM908.94 586.047C912.054 580.058 916.067 575.386 920.978 572.032C926.009 568.679 931.698 567.002 938.047 567.002V592.875H931.758C924.212 592.875 918.522 594.791 914.689 598.624C910.856 602.338 908.94 608.806 908.94 618.029V667.979H883.606V568.439H908.94V586.047ZM1147.03 568.439L1116.49 667.979H1089.53L1072.47 601.14L1055.22 667.979H1028.27L997.721 568.439H1023.23L1041.56 644.082L1059.89 568.439H1086.48L1104.45 643.902L1122.77 568.439H1147.03ZM1206.1 567.002C1215.56 567.002 1224.19 569.098 1231.97 573.29C1239.76 577.483 1245.93 583.472 1250.48 591.258C1255.03 598.924 1257.31 607.848 1257.31 618.029C1257.31 628.211 1255.03 637.194 1250.48 644.98C1245.93 652.766 1239.7 658.815 1231.79 663.127C1224.01 667.32 1215.32 669.416 1205.74 669.416C1196.28 669.416 1187.65 667.32 1179.87 663.127C1172.08 658.815 1165.91 652.766 1161.36 644.98C1156.93 637.194 1154.71 628.211 1154.71 618.029C1154.71 607.848 1156.99 598.924 1161.54 591.258C1166.09 583.472 1172.26 577.483 1180.05 573.29C1187.83 569.098 1196.52 567.002 1206.1 567.002ZM1205.92 588.383C1198.73 588.383 1192.68 590.958 1187.77 596.109C1182.86 601.26 1180.4 608.626 1180.4 618.209C1180.4 624.677 1181.54 630.187 1183.82 634.739C1186.21 639.171 1189.33 642.525 1193.16 644.801C1196.99 646.957 1201.19 648.035 1205.74 648.035C1210.17 648.035 1214.36 646.897 1218.32 644.621C1222.27 642.345 1225.44 638.991 1227.84 634.559C1230.35 630.007 1231.61 624.557 1231.61 618.209C1231.61 611.74 1230.41 606.29 1228.02 601.858C1225.62 597.307 1222.45 593.953 1218.5 591.797C1214.66 589.521 1210.47 588.383 1205.92 588.383ZM1302.68 586.047C1305.79 580.058 1309.81 575.386 1314.72 572.032C1319.75 568.679 1325.44 567.002 1331.79 567.002V592.875H1325.5C1317.95 592.875 1312.26 594.791 1308.43 598.624C1304.6 602.338 1302.68 608.806 1302.68 618.029V667.979H1277.34V568.439H1302.68V586.047ZM1398.86 618.748L1443.06 667.979H1409.28L1375.15 626.474V667.979H1349.81V535.02H1375.15V611.022L1408.74 568.439H1443.06L1398.86 618.748Z" fill="black"/>
<path d="M357.137 932.193H372.821V938H349.528V891.614H357.137V932.193ZM395.469 900.624C398.984 900.624 402.166 901.403 405.013 902.96C407.861 904.518 410.108 906.742 411.754 909.635C413.401 912.527 414.224 915.842 414.224 919.579C414.224 923.317 413.378 926.632 411.688 929.524C409.997 932.416 407.683 934.663 404.746 936.265C401.854 937.822 398.651 938.601 395.135 938.601C391.665 938.601 388.528 937.822 385.725 936.265C382.922 934.663 380.719 932.438 379.117 929.59C377.516 926.698 376.715 923.361 376.715 919.579C376.715 915.842 377.538 912.527 379.184 909.635C380.83 906.742 383.077 904.518 385.925 902.96C388.773 901.403 391.954 900.624 395.469 900.624ZM395.336 907.032C393.378 907.032 391.576 907.521 389.93 908.5C388.283 909.434 386.948 910.858 385.925 912.771C384.946 914.64 384.457 916.909 384.457 919.579C384.457 922.249 384.924 924.54 385.858 926.454C386.837 928.367 388.128 929.813 389.729 930.792C391.376 931.726 393.178 932.193 395.135 932.193C397.093 932.193 398.918 931.704 400.608 930.725C402.344 929.746 403.745 928.322 404.813 926.454C405.881 924.54 406.415 922.249 406.415 919.579C406.415 916.909 405.903 914.64 404.88 912.771C403.856 910.858 402.499 909.434 400.809 908.5C399.118 907.521 397.293 907.032 395.336 907.032ZM429.354 907.632C430.466 905.408 431.935 903.695 433.759 902.493C435.628 901.247 437.83 900.624 440.366 900.624V908.5H438.431C435.45 908.5 433.18 909.256 431.623 910.769C430.11 912.282 429.354 914.907 429.354 918.645V938H421.745V901.225H429.354V907.632ZM481.065 918.578C481.065 919.868 480.976 921.07 480.798 922.182H452.633C452.811 925.252 453.834 927.699 455.703 929.524C457.616 931.304 459.997 932.193 462.844 932.193C466.982 932.193 469.897 930.48 471.588 927.054H479.797C478.684 930.436 476.66 933.217 473.723 935.397C470.787 937.533 467.16 938.601 462.844 938.601C459.329 938.601 456.215 937.822 453.5 936.265C450.786 934.663 448.651 932.438 447.093 929.59C445.58 926.698 444.824 923.361 444.824 919.579C444.824 915.797 445.58 912.482 447.093 909.635C448.651 906.742 450.809 904.518 453.567 902.96C456.37 901.403 459.574 900.624 463.178 900.624C466.649 900.624 469.741 901.381 472.455 902.894C475.169 904.406 477.283 906.52 478.796 909.234C480.309 911.948 481.065 915.063 481.065 918.578ZM473.123 916.976C473.078 913.951 472.077 911.548 470.119 909.768C468.161 907.944 465.737 907.032 462.844 907.032C460.13 907.032 457.816 907.944 455.903 909.768C454.034 911.548 452.966 913.951 452.7 916.976H473.123ZM533.737 900.624C536.496 900.624 538.965 901.225 541.145 902.426C543.326 903.628 545.039 905.408 546.285 907.766C547.575 910.124 548.22 912.972 548.22 916.309V938H540.611V917.443C540.611 914.151 539.788 911.637 538.142 909.902C536.496 908.122 534.249 907.232 531.401 907.232C528.553 907.232 526.306 908.122 524.66 909.902C523.014 911.637 522.191 914.151 522.191 917.443V938H514.649V917.443C514.649 914.151 513.826 911.637 512.179 909.902C510.533 908.122 508.286 907.232 505.438 907.232C502.591 907.232 500.321 908.122 498.631 909.902C496.984 911.637 496.161 914.151 496.161 917.443V938H488.553V901.225H496.161V907.032C497.363 904.94 498.964 903.361 500.967 902.293C503.013 901.181 505.327 900.624 507.908 900.624C510.755 900.624 513.292 901.292 515.516 902.627C517.741 903.961 519.432 905.897 520.589 908.433C521.879 905.986 523.659 904.073 525.928 902.693C528.242 901.314 530.845 900.624 533.737 900.624ZM576.91 891.481C576.91 890.101 577.378 888.945 578.312 888.01C579.246 887.076 580.403 886.609 581.783 886.609C583.117 886.609 584.252 887.076 585.186 888.01C586.121 888.945 586.588 890.101 586.588 891.481C586.588 892.86 586.121 894.017 585.186 894.951C584.252 895.886 583.117 896.353 581.783 896.353C580.403 896.353 579.246 895.886 578.312 894.951C577.378 894.017 576.91 892.86 576.91 891.481ZM585.52 901.225V938H577.911V901.225H585.52ZM615.933 900.624C619.136 900.624 622.051 901.425 624.676 903.027C627.346 904.584 629.437 906.787 630.95 909.635C632.462 912.482 633.219 915.753 633.219 919.446C633.219 923.139 632.462 926.454 630.95 929.39C629.437 932.282 627.346 934.552 624.676 936.198C622.051 937.8 619.136 938.601 615.933 938.601C613.04 938.601 610.504 937.933 608.324 936.598C606.144 935.219 604.408 933.395 603.118 931.126V955.486H595.51V901.225H603.118V907.766C604.364 905.63 606.077 903.917 608.257 902.627C610.482 901.292 613.04 900.624 615.933 900.624ZM614.264 907.232C612.351 907.232 610.526 907.721 608.791 908.7C607.1 909.679 605.721 911.103 604.653 912.972C603.63 914.84 603.118 917.043 603.118 919.579C603.118 922.115 603.63 924.34 604.653 926.253C605.721 928.122 607.1 929.546 608.791 930.525C610.526 931.504 612.351 931.993 614.264 931.993C616.222 931.993 618.046 931.504 619.737 930.525C621.472 929.501 622.852 928.033 623.875 926.12C624.943 924.207 625.477 921.982 625.477 919.446C625.477 916.909 624.943 914.729 623.875 912.905C622.852 911.036 621.472 909.635 619.737 908.7C618.046 907.721 616.222 907.232 614.264 907.232ZM653.624 900.624C657.718 900.624 661.01 901.692 663.502 903.828C666.038 905.919 667.395 908.789 667.573 912.438H659.765C659.631 910.613 658.986 909.19 657.829 908.166C656.717 907.143 655.137 906.631 653.09 906.631C651.044 906.631 649.442 907.098 648.285 908.033C647.128 908.923 646.55 910.08 646.55 911.503C646.55 912.66 646.928 913.595 647.684 914.307C648.441 915.018 649.397 915.575 650.554 915.975C651.755 916.331 653.357 916.731 655.36 917.176C658.074 917.799 660.254 918.422 661.9 919.045C663.591 919.668 665.037 920.692 666.239 922.115C667.44 923.495 668.041 925.386 668.041 927.788C668.041 929.88 667.418 931.748 666.172 933.395C664.97 935.041 663.28 936.331 661.099 937.266C658.919 938.156 656.45 938.601 653.691 938.601C649.419 938.601 645.971 937.577 643.346 935.531C640.721 933.484 639.275 930.569 639.008 926.787H646.883C647.017 928.612 647.684 930.035 648.886 931.059C650.087 932.082 651.689 932.594 653.691 932.594C655.827 932.594 657.495 932.149 658.697 931.259C659.942 930.325 660.565 929.123 660.565 927.655C660.565 926.454 660.165 925.497 659.364 924.785C658.608 924.073 657.629 923.539 656.427 923.183C655.226 922.783 653.602 922.36 651.555 921.915C648.886 921.292 646.728 920.692 645.081 920.113C643.435 919.49 642.011 918.511 640.81 917.176C639.653 915.842 639.074 914.04 639.074 911.77C639.074 909.724 639.653 907.855 640.81 906.164C641.967 904.473 643.635 903.138 645.815 902.159C648.04 901.136 650.643 900.624 653.624 900.624ZM709.7 901.225V938H702.091V932.193C700.89 934.285 699.266 935.864 697.219 936.932C695.217 938 692.925 938.534 690.344 938.534C687.675 938.534 685.25 937.933 683.07 936.732C680.934 935.531 679.221 933.773 677.93 931.459C676.685 929.101 676.062 926.253 676.062 922.916V901.225H683.603V921.782C683.603 925.074 684.427 927.61 686.073 929.39C687.719 931.126 689.966 931.993 692.814 931.993C695.662 931.993 697.909 931.126 699.555 929.39C701.246 927.61 702.091 925.074 702.091 921.782V901.225H709.7ZM764.923 900.624C767.682 900.624 770.151 901.225 772.331 902.426C774.512 903.628 776.225 905.408 777.471 907.766C778.761 910.124 779.406 912.972 779.406 916.309V938H771.797V917.443C771.797 914.151 770.974 911.637 769.328 909.902C767.682 908.122 765.435 907.232 762.587 907.232C759.739 907.232 757.492 908.122 755.846 909.902C754.2 911.637 753.377 914.151 753.377 917.443V938H745.835V917.443C745.835 914.151 745.012 911.637 743.365 909.902C741.719 908.122 739.472 907.232 736.624 907.232C733.777 907.232 731.507 908.122 729.817 909.902C728.17 911.637 727.347 914.151 727.347 917.443V938H719.739V901.225H727.347V907.032C728.549 904.94 730.15 903.361 732.153 902.293C734.199 901.181 736.513 900.624 739.094 900.624C741.942 900.624 744.478 901.292 746.702 902.627C748.927 903.961 750.618 905.897 751.775 908.433C753.065 905.986 754.845 904.073 757.114 902.693C759.428 901.314 762.031 900.624 764.923 900.624ZM823.914 900.624C826.806 900.624 829.343 901.292 831.523 902.627C833.748 903.917 835.461 905.63 836.662 907.766V888.611H844.337V938H836.662V931.126C835.416 933.395 833.703 935.219 831.523 936.598C829.343 937.933 826.806 938.601 823.914 938.601C820.711 938.601 817.774 937.8 815.104 936.198C812.479 934.552 810.388 932.282 808.831 929.39C807.318 926.454 806.561 923.139 806.561 919.446C806.561 915.753 807.318 912.482 808.831 909.635C810.388 906.787 812.479 904.584 815.104 903.027C817.774 901.425 820.711 900.624 823.914 900.624ZM825.516 907.232C823.558 907.232 821.734 907.721 820.043 908.7C818.352 909.635 816.973 911.036 815.905 912.905C814.882 914.729 814.37 916.909 814.37 919.446C814.37 921.982 814.882 924.207 815.905 926.12C816.973 928.033 818.352 929.501 820.043 930.525C821.779 931.504 823.603 931.993 825.516 931.993C827.474 931.993 829.298 931.504 830.989 930.525C832.68 929.546 834.037 928.122 835.06 926.253C836.128 924.34 836.662 922.115 836.662 919.579C836.662 917.043 836.128 914.84 835.06 912.972C834.037 911.103 832.68 909.679 830.989 908.7C829.298 907.721 827.474 907.232 825.516 907.232ZM870.616 900.624C874.131 900.624 877.313 901.403 880.16 902.96C883.008 904.518 885.255 906.742 886.901 909.635C888.547 912.527 889.371 915.842 889.371 919.579C889.371 923.317 888.525 926.632 886.834 929.524C885.144 932.416 882.83 934.663 879.893 936.265C877.001 937.822 873.797 938.601 870.282 938.601C866.812 938.601 863.675 937.822 860.872 936.265C858.069 934.663 855.866 932.438 854.264 929.59C852.662 926.698 851.862 923.361 851.862 919.579C851.862 915.842 852.685 912.527 854.331 909.635C855.977 906.742 858.224 904.518 861.072 902.96C863.92 901.403 867.101 900.624 870.616 900.624ZM870.483 907.032C868.525 907.032 866.723 907.521 865.076 908.5C863.43 909.434 862.095 910.858 861.072 912.771C860.093 914.64 859.604 916.909 859.604 919.579C859.604 922.249 860.071 924.54 861.005 926.454C861.984 928.367 863.274 929.813 864.876 930.792C866.523 931.726 868.325 932.193 870.282 932.193C872.24 932.193 874.064 931.704 875.755 930.725C877.491 929.746 878.892 928.322 879.96 926.454C881.028 924.54 881.562 922.249 881.562 919.579C881.562 916.909 881.05 914.64 880.027 912.771C879.003 910.858 877.646 909.434 875.955 908.5C874.265 907.521 872.44 907.032 870.483 907.032ZM904.501 888.611V938H896.892V888.611H904.501ZM930.775 900.624C934.29 900.624 937.472 901.403 940.319 902.96C943.167 904.518 945.414 906.742 947.06 909.635C948.707 912.527 949.53 915.842 949.53 919.579C949.53 923.317 948.684 926.632 946.994 929.524C945.303 932.416 942.989 934.663 940.052 936.265C937.16 937.822 933.957 938.601 930.442 938.601C926.971 938.601 923.834 937.822 921.031 936.265C918.228 934.663 916.025 932.438 914.423 929.59C912.822 926.698 912.021 923.361 912.021 919.579C912.021 915.842 912.844 912.527 914.49 909.635C916.136 906.742 918.383 904.518 921.231 902.96C924.079 901.403 927.26 900.624 930.775 900.624ZM930.642 907.032C928.684 907.032 926.882 907.521 925.236 908.5C923.589 909.434 922.255 910.858 921.231 912.771C920.252 914.64 919.763 916.909 919.763 919.579C919.763 922.249 920.23 924.54 921.164 926.454C922.143 928.367 923.434 929.813 925.035 930.792C926.682 931.726 928.484 932.193 930.442 932.193C932.399 932.193 934.224 931.704 935.914 930.725C937.65 929.746 939.051 928.322 940.119 926.454C941.187 924.54 941.721 922.249 941.721 919.579C941.721 916.909 941.209 914.64 940.186 912.771C939.163 910.858 937.805 909.434 936.115 908.5C934.424 907.521 932.6 907.032 930.642 907.032ZM964.66 907.632C965.772 905.408 967.241 903.695 969.065 902.493C970.934 901.247 973.136 900.624 975.672 900.624V908.5H973.737C970.756 908.5 968.487 909.256 966.929 910.769C965.416 912.282 964.66 914.907 964.66 918.645V938H957.051V901.225H964.66V907.632ZM1015.56 900.624C1019.65 900.624 1022.94 901.692 1025.43 903.828C1027.97 905.919 1029.33 908.789 1029.51 912.438H1021.7C1021.56 910.613 1020.92 909.19 1019.76 908.166C1018.65 907.143 1017.07 906.631 1015.02 906.631C1012.98 906.631 1011.37 907.098 1010.22 908.033C1009.06 908.923 1008.48 910.08 1008.48 911.503C1008.48 912.66 1008.86 913.595 1009.62 914.307C1010.37 915.018 1011.33 915.575 1012.49 915.975C1013.69 916.331 1015.29 916.731 1017.29 917.176C1020.01 917.799 1022.19 918.422 1023.83 919.045C1025.52 919.668 1026.97 920.692 1028.17 922.115C1029.37 923.495 1029.97 925.386 1029.97 927.788C1029.97 929.88 1029.35 931.748 1028.1 933.395C1026.9 935.041 1025.21 936.331 1023.03 937.266C1020.85 938.156 1018.38 938.601 1015.62 938.601C1011.35 938.601 1007.9 937.577 1005.28 935.531C1002.65 933.484 1001.21 930.569 1000.94 926.787H1008.82C1008.95 928.612 1009.62 930.035 1010.82 931.059C1012.02 932.082 1013.62 932.594 1015.62 932.594C1017.76 932.594 1019.43 932.149 1020.63 931.259C1021.88 930.325 1022.5 929.123 1022.5 927.655C1022.5 926.454 1022.1 925.497 1021.3 924.785C1020.54 924.073 1019.56 923.539 1018.36 923.183C1017.16 922.783 1015.53 922.36 1013.49 921.915C1010.82 921.292 1008.66 920.692 1007.01 920.113C1005.37 919.49 1003.94 918.511 1002.74 917.176C1001.59 915.842 1001.01 914.04 1001.01 911.77C1001.01 909.724 1001.59 907.855 1002.74 906.164C1003.9 904.473 1005.57 903.138 1007.75 902.159C1009.97 901.136 1012.58 900.624 1015.56 900.624ZM1037.33 891.481C1037.33 890.101 1037.79 888.945 1038.73 888.01C1039.66 887.076 1040.82 886.609 1042.2 886.609C1043.53 886.609 1044.67 887.076 1045.6 888.01C1046.54 888.945 1047 890.101 1047 891.481C1047 892.86 1046.54 894.017 1045.6 894.951C1044.67 895.886 1043.53 896.353 1042.2 896.353C1040.82 896.353 1039.66 895.886 1038.73 894.951C1037.79 894.017 1037.33 892.86 1037.33 891.481ZM1045.94 901.225V938H1038.33V901.225H1045.94ZM1064.8 907.432V927.788C1064.8 929.168 1065.11 930.169 1065.74 930.792C1066.4 931.37 1067.52 931.659 1069.07 931.659H1073.75V938H1067.74C1064.31 938 1061.69 937.199 1059.86 935.597C1058.04 933.995 1057.13 931.393 1057.13 927.788V907.432H1052.79V901.225H1057.13V892.081H1064.8V901.225H1073.75V907.432H1064.8ZM1115.59 900.624C1118.48 900.624 1121.01 901.292 1123.19 902.627C1125.42 903.917 1127.13 905.63 1128.33 907.766V901.225H1136.01V938H1128.33V931.126C1127.09 933.395 1125.37 935.219 1123.19 936.598C1121.01 937.933 1118.48 938.601 1115.59 938.601C1112.38 938.601 1109.45 937.8 1106.78 936.198C1104.15 934.552 1102.06 932.282 1100.5 929.39C1098.99 926.454 1098.23 923.139 1098.23 919.446C1098.23 915.753 1098.99 912.482 1100.5 909.635C1102.06 906.787 1104.15 904.584 1106.78 903.027C1109.45 901.425 1112.38 900.624 1115.59 900.624ZM1117.19 907.232C1115.23 907.232 1113.41 907.721 1111.71 908.7C1110.02 909.635 1108.64 911.036 1107.58 912.905C1106.55 914.729 1106.04 916.909 1106.04 919.446C1106.04 921.982 1106.55 924.207 1107.58 926.12C1108.64 928.033 1110.02 929.501 1111.71 930.525C1113.45 931.504 1115.27 931.993 1117.19 931.993C1119.14 931.993 1120.97 931.504 1122.66 930.525C1124.35 929.546 1125.71 928.122 1126.73 926.253C1127.8 924.34 1128.33 922.115 1128.33 919.579C1128.33 917.043 1127.8 914.84 1126.73 912.972C1125.71 911.103 1124.35 909.679 1122.66 908.7C1120.97 907.721 1119.14 907.232 1117.19 907.232ZM1191.19 900.624C1193.95 900.624 1196.41 901.225 1198.59 902.426C1200.78 903.628 1202.49 905.408 1203.73 907.766C1205.02 910.124 1205.67 912.972 1205.67 916.309V938H1198.06V917.443C1198.06 914.151 1197.24 911.637 1195.59 909.902C1193.95 908.122 1191.7 907.232 1188.85 907.232C1186 907.232 1183.76 908.122 1182.11 909.902C1180.46 911.637 1179.64 914.151 1179.64 917.443V938H1172.1V917.443C1172.1 914.151 1171.28 911.637 1169.63 909.902C1167.98 908.122 1165.74 907.232 1162.89 907.232C1160.04 907.232 1157.77 908.122 1156.08 909.902C1154.43 911.637 1153.61 914.151 1153.61 917.443V938H1146V901.225H1153.61V907.032C1154.81 904.94 1156.41 903.361 1158.42 902.293C1160.46 901.181 1162.78 900.624 1165.36 900.624C1168.2 900.624 1170.74 901.292 1172.97 902.627C1175.19 903.961 1176.88 905.897 1178.04 908.433C1179.33 905.986 1181.11 904.073 1183.38 902.693C1185.69 901.314 1188.29 900.624 1191.19 900.624ZM1249.06 918.578C1249.06 919.868 1248.97 921.07 1248.79 922.182H1220.62C1220.8 925.252 1221.83 927.699 1223.69 929.524C1225.61 931.304 1227.99 932.193 1230.84 932.193C1234.97 932.193 1237.89 930.48 1239.58 927.054H1247.79C1246.68 930.436 1244.65 933.217 1241.71 935.397C1238.78 937.533 1235.15 938.601 1230.84 938.601C1227.32 938.601 1224.21 937.822 1221.49 936.265C1218.78 934.663 1216.64 932.438 1215.08 929.59C1213.57 926.698 1212.82 923.361 1212.82 919.579C1212.82 915.797 1213.57 912.482 1215.08 909.635C1216.64 906.742 1218.8 904.518 1221.56 902.96C1224.36 901.403 1227.57 900.624 1231.17 900.624C1234.64 900.624 1237.73 901.381 1240.45 902.894C1243.16 904.406 1245.27 906.52 1246.79 909.234C1248.3 911.948 1249.06 915.063 1249.06 918.578ZM1241.11 916.976C1241.07 913.951 1240.07 911.548 1238.11 909.768C1236.15 907.944 1233.73 907.032 1230.84 907.032C1228.12 907.032 1225.81 907.944 1223.89 909.768C1222.03 911.548 1220.96 913.951 1220.69 916.976H1241.11ZM1265.42 907.432V927.788C1265.42 929.168 1265.73 930.169 1266.35 930.792C1267.02 931.37 1268.13 931.659 1269.69 931.659H1274.36V938H1268.36C1264.93 938 1262.31 937.199 1260.48 935.597C1258.66 933.995 1257.75 931.393 1257.75 927.788V907.432H1253.41V901.225H1257.75V892.081H1265.42V901.225H1274.36V907.432H1265.42ZM1285.98 932.794C1286.78 935.642 1287.18 938.022 1287.18 939.936C1287.18 942.605 1286.54 944.674 1285.25 946.143C1283.96 947.611 1282 948.345 1279.37 948.345V945.008C1280.49 945.008 1281.29 944.741 1281.78 944.207C1282.31 943.673 1282.58 942.783 1282.58 941.537V940.136H1278.77V932.794H1285.98ZM1330.36 900.624C1334.81 900.624 1338.48 901.692 1341.37 903.828C1344.31 905.919 1346.29 908.923 1347.31 912.838H1339.11C1338.44 911.014 1337.37 909.59 1335.9 908.567C1334.43 907.543 1332.59 907.032 1330.36 907.032C1327.25 907.032 1324.76 908.144 1322.89 910.369C1321.06 912.549 1320.15 915.619 1320.15 919.579C1320.15 923.539 1321.06 926.632 1322.89 928.856C1324.76 931.081 1327.25 932.193 1330.36 932.193C1334.77 932.193 1337.68 930.258 1339.11 926.387H1347.31C1346.25 930.124 1344.24 933.106 1341.31 935.33C1338.37 937.511 1334.72 938.601 1330.36 938.601C1326.85 938.601 1323.73 937.822 1321.02 936.265C1318.3 934.663 1316.17 932.438 1314.61 929.59C1313.1 926.698 1312.34 923.361 1312.34 919.579C1312.34 915.797 1313.1 912.482 1314.61 909.635C1316.17 906.742 1318.3 904.518 1321.02 902.96C1323.73 901.403 1326.85 900.624 1330.36 900.624ZM1371.18 900.624C1374.7 900.624 1377.88 901.403 1380.73 902.96C1383.57 904.518 1385.82 906.742 1387.47 909.635C1389.11 912.527 1389.94 915.842 1389.94 919.579C1389.94 923.317 1389.09 926.632 1387.4 929.524C1385.71 932.416 1383.4 934.663 1380.46 936.265C1377.57 937.822 1374.36 938.601 1370.85 938.601C1367.38 938.601 1364.24 937.822 1361.44 936.265C1358.63 934.663 1356.43 932.438 1354.83 929.59C1353.23 926.698 1352.43 923.361 1352.43 919.579C1352.43 915.842 1353.25 912.527 1354.9 909.635C1356.54 906.742 1358.79 904.518 1361.64 902.96C1364.49 901.403 1367.67 900.624 1371.18 900.624ZM1371.05 907.032C1369.09 907.032 1367.29 907.521 1365.64 908.5C1364 909.434 1362.66 910.858 1361.64 912.771C1360.66 914.64 1360.17 916.909 1360.17 919.579C1360.17 922.249 1360.64 924.54 1361.57 926.454C1362.55 928.367 1363.84 929.813 1365.44 930.792C1367.09 931.726 1368.89 932.193 1370.85 932.193C1372.81 932.193 1374.63 931.704 1376.32 930.725C1378.06 929.746 1379.46 928.322 1380.53 926.454C1381.59 924.54 1382.13 922.249 1382.13 919.579C1382.13 916.909 1381.62 914.64 1380.59 912.771C1379.57 910.858 1378.21 909.434 1376.52 908.5C1374.83 907.521 1373.01 907.032 1371.05 907.032ZM1416.81 900.624C1419.48 900.624 1421.89 901.225 1424.02 902.426C1426.2 903.628 1427.92 905.408 1429.16 907.766C1430.45 910.124 1431.1 912.972 1431.1 916.309V938H1423.55V917.443C1423.55 914.151 1422.73 911.637 1421.09 909.902C1419.44 908.122 1417.19 907.232 1414.34 907.232C1411.5 907.232 1409.23 908.122 1407.54 909.902C1405.89 911.637 1405.07 914.151 1405.07 917.443V938H1397.46V901.225H1405.07V907.032C1406.27 904.94 1407.87 903.361 1409.87 902.293C1411.92 901.181 1414.23 900.624 1416.81 900.624ZM1453.68 900.624C1457.78 900.624 1461.07 901.692 1463.56 903.828C1466.1 905.919 1467.45 908.789 1467.63 912.438H1459.82C1459.69 910.613 1459.04 909.19 1457.89 908.166C1456.78 907.143 1455.2 906.631 1453.15 906.631C1451.1 906.631 1449.5 907.098 1448.34 908.033C1447.19 908.923 1446.61 910.08 1446.61 911.503C1446.61 912.66 1446.99 913.595 1447.74 914.307C1448.5 915.018 1449.46 915.575 1450.61 915.975C1451.81 916.331 1453.42 916.731 1455.42 917.176C1458.13 917.799 1460.31 918.422 1461.96 919.045C1463.65 919.668 1465.1 920.692 1466.3 922.115C1467.5 923.495 1468.1 925.386 1468.1 927.788C1468.1 929.88 1467.48 931.748 1466.23 933.395C1465.03 935.041 1463.34 936.331 1461.16 937.266C1458.98 938.156 1456.51 938.601 1453.75 938.601C1449.48 938.601 1446.03 937.577 1443.4 935.531C1440.78 933.484 1439.33 930.569 1439.07 926.787H1446.94C1447.08 928.612 1447.74 930.035 1448.94 931.059C1450.15 932.082 1451.75 932.594 1453.75 932.594C1455.89 932.594 1457.55 932.149 1458.76 931.259C1460 930.325 1460.62 929.123 1460.62 927.655C1460.62 926.454 1460.22 925.497 1459.42 924.785C1458.67 924.073 1457.69 923.539 1456.49 923.183C1455.28 922.783 1453.66 922.36 1451.61 921.915C1448.94 921.292 1446.79 920.692 1445.14 920.113C1443.49 919.49 1442.07 918.511 1440.87 917.176C1439.71 915.842 1439.13 914.04 1439.13 911.77C1439.13 909.724 1439.71 907.855 1440.87 906.164C1442.03 904.473 1443.69 903.138 1445.87 902.159C1448.1 901.136 1450.7 900.624 1453.68 900.624ZM1510.16 918.578C1510.16 919.868 1510.07 921.07 1509.89 922.182H1481.73C1481.9 925.252 1482.93 927.699 1484.8 929.524C1486.71 931.304 1489.09 932.193 1491.94 932.193C1496.08 932.193 1498.99 930.48 1500.68 927.054H1508.89C1507.78 930.436 1505.75 933.217 1502.82 935.397C1499.88 937.533 1496.25 938.601 1491.94 938.601C1488.42 938.601 1485.31 937.822 1482.59 936.265C1479.88 934.663 1477.74 932.438 1476.19 929.59C1474.67 926.698 1473.92 923.361 1473.92 919.579C1473.92 915.797 1474.67 912.482 1476.19 909.635C1477.74 906.742 1479.9 904.518 1482.66 902.96C1485.46 901.403 1488.67 900.624 1492.27 900.624C1495.74 900.624 1498.83 901.381 1501.55 902.894C1504.26 904.406 1506.38 906.52 1507.89 909.234C1509.4 911.948 1510.16 915.063 1510.16 918.578ZM1502.22 916.976C1502.17 913.951 1501.17 911.548 1499.21 909.768C1497.26 907.944 1494.83 907.032 1491.94 907.032C1489.22 907.032 1486.91 907.944 1485 909.768C1483.13 911.548 1482.06 913.951 1481.79 916.976H1502.22ZM1533.13 900.624C1537.58 900.624 1541.25 901.692 1544.14 903.828C1547.08 905.919 1549.06 908.923 1550.08 912.838H1541.87C1541.21 911.014 1540.14 909.59 1538.67 908.567C1537.2 907.543 1535.36 907.032 1533.13 907.032C1530.02 907.032 1527.52 908.144 1525.66 910.369C1523.83 912.549 1522.92 915.619 1522.92 919.579C1522.92 923.539 1523.83 926.632 1525.66 928.856C1527.52 931.081 1530.02 932.193 1533.13 932.193C1537.54 932.193 1540.45 930.258 1541.87 926.387H1550.08C1549.02 930.124 1547.01 933.106 1544.08 935.33C1541.14 937.511 1537.49 938.601 1533.13 938.601C1529.62 938.601 1526.5 937.822 1523.79 936.265C1521.07 934.663 1518.94 932.438 1517.38 929.59C1515.87 926.698 1515.11 923.361 1515.11 919.579C1515.11 915.797 1515.87 912.482 1517.38 909.635C1518.94 906.742 1521.07 904.518 1523.79 902.96C1526.5 901.403 1529.62 900.624 1533.13 900.624ZM1566.54 907.432V927.788C1566.54 929.168 1566.85 930.169 1567.48 930.792C1568.14 931.37 1569.26 931.659 1570.81 931.659H1575.49V938H1569.48C1566.05 938 1563.43 937.199 1561.6 935.597C1559.78 933.995 1558.87 931.393 1558.87 927.788V907.432H1554.53V901.225H1558.87V892.081H1566.54V901.225H1575.49V907.432H1566.54ZM1616.2 918.578C1616.2 919.868 1616.11 921.07 1615.94 922.182H1587.77C1587.95 925.252 1588.97 927.699 1590.84 929.524C1592.75 931.304 1595.13 932.193 1597.98 932.193C1602.12 932.193 1605.04 930.48 1606.73 927.054H1614.94C1613.82 930.436 1611.8 933.217 1608.86 935.397C1605.92 937.533 1602.3 938.601 1597.98 938.601C1594.47 938.601 1591.35 937.822 1588.64 936.265C1585.92 934.663 1583.79 932.438 1582.23 929.59C1580.72 926.698 1579.96 923.361 1579.96 919.579C1579.96 915.797 1580.72 912.482 1582.23 909.635C1583.79 906.742 1585.95 904.518 1588.71 902.96C1591.51 901.403 1594.71 900.624 1598.32 900.624C1601.79 900.624 1604.88 901.381 1607.59 902.894C1610.31 904.406 1612.42 906.52 1613.93 909.234C1615.45 911.948 1616.2 915.063 1616.2 918.578ZM1608.26 916.976C1608.22 913.951 1607.22 911.548 1605.26 909.768C1603.3 907.944 1600.87 907.032 1597.98 907.032C1595.27 907.032 1592.95 907.944 1591.04 909.768C1589.17 911.548 1588.1 913.951 1587.84 916.976H1608.26ZM1632.57 907.432V927.788C1632.57 929.168 1632.88 930.169 1633.5 930.792C1634.17 931.37 1635.28 931.659 1636.84 931.659H1641.51V938H1635.5C1632.08 938 1629.45 937.199 1627.63 935.597C1625.8 933.995 1624.89 931.393 1624.89 927.788V907.432H1620.55V901.225H1624.89V892.081H1632.57V901.225H1641.51V907.432H1632.57ZM1681.83 901.225V938H1674.22V932.193C1673.02 934.285 1671.39 935.864 1669.35 936.932C1667.35 938 1665.05 938.534 1662.47 938.534C1659.8 938.534 1657.38 937.933 1655.2 936.732C1653.06 935.531 1651.35 933.773 1650.06 931.459C1648.81 929.101 1648.19 926.253 1648.19 922.916V901.225H1655.73V921.782C1655.73 925.074 1656.56 927.61 1658.2 929.39C1659.85 931.126 1662.09 931.993 1664.94 931.993C1667.79 931.993 1670.04 931.126 1671.68 929.39C1673.37 927.61 1674.22 925.074 1674.22 921.782V901.225H1681.83ZM1699.48 907.632C1700.59 905.408 1702.06 903.695 1703.88 902.493C1705.75 901.247 1707.95 900.624 1710.49 900.624V908.5H1708.55C1705.57 908.5 1703.3 909.256 1701.74 910.769C1700.23 912.282 1699.48 914.907 1699.48 918.645V938H1691.87V901.225H1699.48V907.632ZM387.776 1020.62C390.669 1020.62 393.205 1021.29 395.385 1022.63C397.61 1023.92 399.323 1025.63 400.524 1027.77V1021.23H408.199V1058H400.524V1051.13C399.278 1053.39 397.565 1055.22 395.385 1056.6C393.205 1057.93 390.669 1058.6 387.776 1058.6C384.573 1058.6 381.636 1057.8 378.966 1056.2C376.341 1054.55 374.25 1052.28 372.693 1049.39C371.18 1046.45 370.423 1043.14 370.423 1039.45C370.423 1035.75 371.18 1032.48 372.693 1029.63C374.25 1026.79 376.341 1024.58 378.966 1023.03C381.636 1021.43 384.573 1020.62 387.776 1020.62ZM389.378 1027.23C387.42 1027.23 385.596 1027.72 383.905 1028.7C382.214 1029.63 380.835 1031.04 379.767 1032.9C378.744 1034.73 378.232 1036.91 378.232 1039.45C378.232 1041.98 378.744 1044.21 379.767 1046.12C380.835 1048.03 382.214 1049.5 383.905 1050.52C385.641 1051.5 387.465 1051.99 389.378 1051.99C391.336 1051.99 393.16 1051.5 394.851 1050.52C396.542 1049.55 397.899 1048.12 398.922 1046.25C399.99 1044.34 400.524 1042.12 400.524 1039.58C400.524 1037.04 399.99 1034.84 398.922 1032.97C397.899 1031.1 396.542 1029.68 394.851 1028.7C393.16 1027.72 391.336 1027.23 389.378 1027.23ZM433.01 1020.62C435.902 1020.62 438.438 1021.29 440.618 1022.63C442.843 1023.92 444.556 1025.63 445.758 1027.77V1008.61H453.433V1058H445.758V1051.13C444.512 1053.39 442.799 1055.22 440.618 1056.6C438.438 1057.93 435.902 1058.6 433.01 1058.6C429.806 1058.6 426.87 1057.8 424.2 1056.2C421.575 1054.55 419.483 1052.28 417.926 1049.39C416.413 1046.45 415.657 1043.14 415.657 1039.45C415.657 1035.75 416.413 1032.48 417.926 1029.63C419.483 1026.79 421.575 1024.58 424.2 1023.03C426.87 1021.43 429.806 1020.62 433.01 1020.62ZM434.612 1027.23C432.654 1027.23 430.83 1027.72 429.139 1028.7C427.448 1029.63 426.069 1031.04 425.001 1032.9C423.977 1034.73 423.466 1036.91 423.466 1039.45C423.466 1041.98 423.977 1044.21 425.001 1046.12C426.069 1048.03 427.448 1049.5 429.139 1050.52C430.874 1051.5 432.698 1051.99 434.612 1051.99C436.569 1051.99 438.394 1051.5 440.084 1050.52C441.775 1049.55 443.132 1048.12 444.156 1046.25C445.224 1044.34 445.758 1042.12 445.758 1039.58C445.758 1037.04 445.224 1034.84 444.156 1032.97C443.132 1031.1 441.775 1029.68 440.084 1028.7C438.394 1027.72 436.569 1027.23 434.612 1027.23ZM462.425 1011.48C462.425 1010.1 462.893 1008.94 463.827 1008.01C464.761 1007.08 465.918 1006.61 467.298 1006.61C468.632 1006.61 469.767 1007.08 470.701 1008.01C471.636 1008.94 472.103 1010.1 472.103 1011.48C472.103 1012.86 471.636 1014.02 470.701 1014.95C469.767 1015.89 468.632 1016.35 467.298 1016.35C465.918 1016.35 464.761 1015.89 463.827 1014.95C462.893 1014.02 462.425 1012.86 462.425 1011.48ZM471.035 1021.23V1058H463.427V1021.23H471.035ZM501.448 1020.62C504.651 1020.62 507.566 1021.43 510.191 1023.03C512.861 1024.58 514.952 1026.79 516.465 1029.63C517.977 1032.48 518.734 1035.75 518.734 1039.45C518.734 1043.14 517.977 1046.45 516.465 1049.39C514.952 1052.28 512.861 1054.55 510.191 1056.2C507.566 1057.8 504.651 1058.6 501.448 1058.6C498.555 1058.6 496.019 1057.93 493.839 1056.6C491.659 1055.22 489.923 1053.39 488.633 1051.13V1075.49H481.025V1021.23H488.633V1027.77C489.879 1025.63 491.592 1023.92 493.772 1022.63C495.997 1021.29 498.555 1020.62 501.448 1020.62ZM499.779 1027.23C497.866 1027.23 496.042 1027.72 494.306 1028.7C492.615 1029.68 491.236 1031.1 490.168 1032.97C489.145 1034.84 488.633 1037.04 488.633 1039.58C488.633 1042.12 489.145 1044.34 490.168 1046.25C491.236 1048.12 492.615 1049.55 494.306 1050.52C496.042 1051.5 497.866 1051.99 499.779 1051.99C501.737 1051.99 503.561 1051.5 505.252 1050.52C506.987 1049.5 508.367 1048.03 509.39 1046.12C510.458 1044.21 510.992 1041.98 510.992 1039.45C510.992 1036.91 510.458 1034.73 509.39 1032.9C508.367 1031.04 506.987 1029.63 505.252 1028.7C503.561 1027.72 501.737 1027.23 499.779 1027.23ZM525.257 1011.48C525.257 1010.1 525.724 1008.94 526.658 1008.01C527.593 1007.08 528.75 1006.61 530.129 1006.61C531.464 1006.61 532.599 1007.08 533.533 1008.01C534.467 1008.94 534.934 1010.1 534.934 1011.48C534.934 1012.86 534.467 1014.02 533.533 1014.95C532.599 1015.89 531.464 1016.35 530.129 1016.35C528.75 1016.35 527.593 1015.89 526.658 1014.95C525.724 1014.02 525.257 1012.86 525.257 1011.48ZM533.867 1021.23V1058H526.258V1021.23H533.867ZM556.737 1020.62C560.831 1020.62 564.123 1021.69 566.615 1023.83C569.151 1025.92 570.508 1028.79 570.686 1032.44H562.878C562.744 1030.61 562.099 1029.19 560.942 1028.17C559.83 1027.14 558.25 1026.63 556.203 1026.63C554.157 1026.63 552.555 1027.1 551.398 1028.03C550.241 1028.92 549.663 1030.08 549.663 1031.5C549.663 1032.66 550.041 1033.59 550.797 1034.31C551.554 1035.02 552.51 1035.57 553.667 1035.98C554.868 1036.33 556.47 1036.73 558.473 1037.18C561.187 1037.8 563.367 1038.42 565.013 1039.05C566.704 1039.67 568.15 1040.69 569.352 1042.12C570.553 1043.49 571.154 1045.39 571.154 1047.79C571.154 1049.88 570.531 1051.75 569.285 1053.39C568.083 1055.04 566.393 1056.33 564.212 1057.27C562.032 1058.16 559.563 1058.6 556.804 1058.6C552.533 1058.6 549.084 1057.58 546.459 1055.53C543.834 1053.48 542.388 1050.57 542.121 1046.79H549.996C550.13 1048.61 550.797 1050.04 551.999 1051.06C553.2 1052.08 554.802 1052.59 556.804 1052.59C558.94 1052.59 560.608 1052.15 561.81 1051.26C563.056 1050.32 563.678 1049.12 563.678 1047.65C563.678 1046.45 563.278 1045.5 562.477 1044.79C561.721 1044.07 560.742 1043.54 559.54 1043.18C558.339 1042.78 556.715 1042.36 554.668 1041.92C551.999 1041.29 549.841 1040.69 548.194 1040.11C546.548 1039.49 545.124 1038.51 543.923 1037.18C542.766 1035.84 542.187 1034.04 542.187 1031.77C542.187 1029.72 542.766 1027.85 543.923 1026.16C545.08 1024.47 546.748 1023.14 548.928 1022.16C551.153 1021.14 553.756 1020.62 556.737 1020.62ZM594.993 1020.62C599.442 1020.62 603.113 1021.69 606.005 1023.83C608.942 1025.92 610.922 1028.92 611.945 1032.84H603.736C603.068 1031.01 602 1029.59 600.532 1028.57C599.064 1027.54 597.217 1027.03 594.993 1027.03C591.878 1027.03 589.386 1028.14 587.517 1030.37C585.693 1032.55 584.781 1035.62 584.781 1039.58C584.781 1043.54 585.693 1046.63 587.517 1048.86C589.386 1051.08 591.878 1052.19 594.993 1052.19C599.398 1052.19 602.312 1050.26 603.736 1046.39H611.945C610.877 1050.12 608.875 1053.11 605.938 1055.33C603.002 1057.51 599.353 1058.6 594.993 1058.6C591.477 1058.6 588.363 1057.82 585.649 1056.26C582.934 1054.66 580.799 1052.44 579.241 1049.59C577.729 1046.7 576.972 1043.36 576.972 1039.58C576.972 1035.8 577.729 1032.48 579.241 1029.63C580.799 1026.74 582.934 1024.52 585.649 1022.96C588.363 1021.4 591.477 1020.62 594.993 1020.62ZM618.526 1011.48C618.526 1010.1 618.994 1008.94 619.928 1008.01C620.862 1007.08 622.019 1006.61 623.399 1006.61C624.733 1006.61 625.868 1007.08 626.802 1008.01C627.737 1008.94 628.204 1010.1 628.204 1011.48C628.204 1012.86 627.737 1014.02 626.802 1014.95C625.868 1015.89 624.733 1016.35 623.399 1016.35C622.019 1016.35 620.862 1015.89 619.928 1014.95C618.994 1014.02 618.526 1012.86 618.526 1011.48ZM627.136 1021.23V1058H619.528V1021.23H627.136ZM656.481 1020.62C659.151 1020.62 661.553 1021.23 663.689 1022.43C665.869 1023.63 667.582 1025.41 668.828 1027.77C670.119 1030.12 670.764 1032.97 670.764 1036.31V1058H663.222V1037.44C663.222 1034.15 662.399 1031.64 660.752 1029.9C659.106 1028.12 656.859 1027.23 654.011 1027.23C651.164 1027.23 648.894 1028.12 647.204 1029.9C645.557 1031.64 644.734 1034.15 644.734 1037.44V1058H637.126V1021.23H644.734V1027.03C645.936 1024.94 647.537 1023.36 649.54 1022.29C651.586 1021.18 653.9 1020.62 656.481 1020.62ZM695.286 1020.62C698.178 1020.62 700.714 1021.29 702.894 1022.63C705.119 1023.92 706.832 1025.63 708.033 1027.77V1021.23H715.709V1058.6C715.709 1061.98 714.997 1064.99 713.573 1067.61C712.149 1070.28 710.08 1072.37 707.366 1073.88C704.696 1075.4 701.493 1076.15 697.755 1076.15C692.772 1076.15 688.634 1074.97 685.341 1072.62C682.048 1070.3 680.18 1067.14 679.735 1063.14H687.277C687.855 1065.05 689.079 1066.59 690.947 1067.74C692.861 1068.95 695.13 1069.55 697.755 1069.55C700.825 1069.55 703.295 1068.61 705.164 1066.74C707.077 1064.87 708.033 1062.16 708.033 1058.6V1051.13C706.788 1053.39 705.075 1055.22 702.894 1056.6C700.714 1057.93 698.178 1058.6 695.286 1058.6C692.082 1058.6 689.145 1057.8 686.476 1056.2C683.851 1054.55 681.759 1052.28 680.202 1049.39C678.689 1046.45 677.933 1043.14 677.933 1039.45C677.933 1035.75 678.689 1032.48 680.202 1029.63C681.759 1026.79 683.851 1024.58 686.476 1023.03C689.145 1021.43 692.082 1020.62 695.286 1020.62ZM696.887 1027.23C694.93 1027.23 693.105 1027.72 691.415 1028.7C689.724 1029.63 688.344 1031.04 687.277 1032.9C686.253 1034.73 685.742 1036.91 685.742 1039.45C685.742 1041.98 686.253 1044.21 687.277 1046.12C688.344 1048.03 689.724 1049.5 691.415 1050.52C693.15 1051.5 694.974 1051.99 696.887 1051.99C698.845 1051.99 700.67 1051.5 702.36 1050.52C704.051 1049.55 705.408 1048.12 706.432 1046.25C707.5 1044.34 708.033 1042.12 708.033 1039.58C708.033 1037.04 707.5 1034.84 706.432 1032.97C705.408 1031.1 704.051 1029.68 702.36 1028.7C700.67 1027.72 698.845 1027.23 696.887 1027.23ZM779.417 1038.58C779.417 1039.87 779.328 1041.07 779.15 1042.18H750.985C751.163 1045.25 752.186 1047.7 754.055 1049.52C755.968 1051.3 758.349 1052.19 761.196 1052.19C765.334 1052.19 768.249 1050.48 769.939 1047.05H778.149C777.036 1050.44 775.012 1053.22 772.075 1055.4C769.138 1057.53 765.512 1058.6 761.196 1058.6C757.681 1058.6 754.566 1057.82 751.852 1056.26C749.138 1054.66 747.002 1052.44 745.445 1049.59C743.932 1046.7 743.176 1043.36 743.176 1039.58C743.176 1035.8 743.932 1032.48 745.445 1029.63C747.002 1026.74 749.16 1024.52 751.919 1022.96C754.722 1021.4 757.926 1020.62 761.53 1020.62C765 1020.62 768.093 1021.38 770.807 1022.89C773.521 1024.41 775.635 1026.52 777.148 1029.23C778.66 1031.95 779.417 1035.06 779.417 1038.58ZM771.474 1036.98C771.43 1033.95 770.429 1031.55 768.471 1029.77C766.513 1027.94 764.088 1027.03 761.196 1027.03C758.482 1027.03 756.168 1027.94 754.255 1029.77C752.386 1031.55 751.318 1033.95 751.051 1036.98H771.474ZM794.513 1008.61V1058H786.904V1008.61H794.513ZM803.501 1011.48C803.501 1010.1 803.969 1008.94 804.903 1008.01C805.837 1007.08 806.994 1006.61 808.374 1006.61C809.708 1006.61 810.843 1007.08 811.777 1008.01C812.712 1008.94 813.179 1010.1 813.179 1011.48C813.179 1012.86 812.712 1014.02 811.777 1014.95C810.843 1015.89 809.708 1016.35 808.374 1016.35C806.994 1016.35 805.837 1015.89 804.903 1014.95C803.969 1014.02 803.501 1012.86 803.501 1011.48ZM812.111 1021.23V1058H804.502V1021.23H812.111ZM830.977 1027.43V1047.79C830.977 1049.17 831.289 1050.17 831.912 1050.79C832.579 1051.37 833.691 1051.66 835.249 1051.66H839.921V1058H833.914C830.488 1058 827.863 1057.2 826.038 1055.6C824.214 1054 823.302 1051.39 823.302 1047.79V1027.43H818.964V1021.23H823.302V1012.08H830.977V1021.23H839.921V1027.43H830.977ZM851.538 1052.79C852.339 1055.64 852.74 1058.02 852.74 1059.94C852.74 1062.61 852.095 1064.67 850.804 1066.14C849.514 1067.61 847.556 1068.35 844.931 1068.35V1065.01C846.043 1065.01 846.844 1064.74 847.334 1064.21C847.868 1063.67 848.135 1062.78 848.135 1061.54V1060.14H844.33V1052.79H851.538ZM893.316 1020.62C897.409 1020.62 900.702 1021.69 903.194 1023.83C905.73 1025.92 907.087 1028.79 907.265 1032.44H899.456C899.323 1030.61 898.678 1029.19 897.521 1028.17C896.408 1027.14 894.829 1026.63 892.782 1026.63C890.735 1026.63 889.133 1027.1 887.977 1028.03C886.82 1028.92 886.241 1030.08 886.241 1031.5C886.241 1032.66 886.62 1033.59 887.376 1034.31C888.132 1035.02 889.089 1035.57 890.246 1035.98C891.447 1036.33 893.049 1036.73 895.051 1037.18C897.765 1037.8 899.946 1038.42 901.592 1039.05C903.283 1039.67 904.729 1040.69 905.93 1042.12C907.132 1043.49 907.732 1045.39 907.732 1047.79C907.732 1049.88 907.109 1051.75 905.864 1053.39C904.662 1055.04 902.971 1056.33 900.791 1057.27C898.611 1058.16 896.141 1058.6 893.383 1058.6C889.111 1058.6 885.663 1057.58 883.038 1055.53C880.412 1053.48 878.966 1050.57 878.699 1046.79H886.575C886.709 1048.61 887.376 1050.04 888.577 1051.06C889.779 1052.08 891.38 1052.59 893.383 1052.59C895.518 1052.59 897.187 1052.15 898.388 1051.26C899.634 1050.32 900.257 1049.12 900.257 1047.65C900.257 1046.45 899.857 1045.5 899.056 1044.79C898.299 1044.07 897.321 1043.54 896.119 1043.18C894.918 1042.78 893.294 1042.36 891.247 1041.92C888.577 1041.29 886.419 1040.69 884.773 1040.11C883.127 1039.49 881.703 1038.51 880.501 1037.18C879.345 1035.84 878.766 1034.04 878.766 1031.77C878.766 1029.72 879.345 1027.85 880.501 1026.16C881.658 1024.47 883.327 1023.14 885.507 1022.16C887.732 1021.14 890.335 1020.62 893.316 1020.62ZM949.792 1038.58C949.792 1039.87 949.703 1041.07 949.525 1042.18H921.36C921.538 1045.25 922.561 1047.7 924.43 1049.52C926.343 1051.3 928.724 1052.19 931.571 1052.19C935.709 1052.19 938.624 1050.48 940.314 1047.05H948.524C947.411 1050.44 945.387 1053.22 942.45 1055.4C939.514 1057.53 935.887 1058.6 931.571 1058.6C928.056 1058.6 924.941 1057.82 922.227 1056.26C919.513 1054.66 917.377 1052.44 915.82 1049.59C914.307 1046.7 913.551 1043.36 913.551 1039.58C913.551 1035.8 914.307 1032.48 915.82 1029.63C917.377 1026.74 919.535 1024.52 922.294 1022.96C925.097 1021.4 928.301 1020.62 931.905 1020.62C935.376 1020.62 938.468 1021.38 941.182 1022.89C943.896 1024.41 946.01 1026.52 947.523 1029.23C949.035 1031.95 949.792 1035.06 949.792 1038.58ZM941.85 1036.98C941.805 1033.95 940.804 1031.55 938.846 1029.77C936.888 1027.94 934.463 1027.03 931.571 1027.03C928.857 1027.03 926.543 1027.94 924.63 1029.77C922.761 1031.55 921.693 1033.95 921.426 1036.98H941.85ZM972.096 1020.62C974.988 1020.62 977.525 1021.29 979.705 1022.63C981.93 1023.92 983.643 1025.63 984.844 1027.77V1008.61H992.519V1058H984.844V1051.13C983.598 1053.39 981.885 1055.22 979.705 1056.6C977.525 1057.93 974.988 1058.6 972.096 1058.6C968.893 1058.6 965.956 1057.8 963.286 1056.2C960.661 1054.55 958.57 1052.28 957.012 1049.39C955.5 1046.45 954.743 1043.14 954.743 1039.45C954.743 1035.75 955.5 1032.48 957.012 1029.63C958.57 1026.79 960.661 1024.58 963.286 1023.03C965.956 1021.43 968.893 1020.62 972.096 1020.62ZM973.698 1027.23C971.74 1027.23 969.916 1027.72 968.225 1028.7C966.534 1029.63 965.155 1031.04 964.087 1032.9C963.064 1034.73 962.552 1036.91 962.552 1039.45C962.552 1041.98 963.064 1044.21 964.087 1046.12C965.155 1048.03 966.534 1049.5 968.225 1050.52C969.96 1051.5 971.785 1051.99 973.698 1051.99C975.656 1051.99 977.48 1051.5 979.171 1050.52C980.862 1049.55 982.219 1048.12 983.242 1046.25C984.31 1044.34 984.844 1042.12 984.844 1039.58C984.844 1037.04 984.31 1034.84 983.242 1032.97C982.219 1031.1 980.862 1029.68 979.171 1028.7C977.48 1027.72 975.656 1027.23 973.698 1027.23ZM1037.34 1020.62C1040.23 1020.62 1042.77 1021.29 1044.95 1022.63C1047.17 1023.92 1048.89 1025.63 1050.09 1027.77V1008.61H1057.76V1058H1050.09V1051.13C1048.84 1053.39 1047.13 1055.22 1044.95 1056.6C1042.77 1057.93 1040.23 1058.6 1037.34 1058.6C1034.14 1058.6 1031.2 1057.8 1028.53 1056.2C1025.9 1054.55 1023.81 1052.28 1022.26 1049.39C1020.74 1046.45 1019.99 1043.14 1019.99 1039.45C1019.99 1035.75 1020.74 1032.48 1022.26 1029.63C1023.81 1026.79 1025.9 1024.58 1028.53 1023.03C1031.2 1021.43 1034.14 1020.62 1037.34 1020.62ZM1038.94 1027.23C1036.98 1027.23 1035.16 1027.72 1033.47 1028.7C1031.78 1029.63 1030.4 1031.04 1029.33 1032.9C1028.31 1034.73 1027.8 1036.91 1027.8 1039.45C1027.8 1041.98 1028.31 1044.21 1029.33 1046.12C1030.4 1048.03 1031.78 1049.5 1033.47 1050.52C1035.2 1051.5 1037.03 1051.99 1038.94 1051.99C1040.9 1051.99 1042.72 1051.5 1044.41 1050.52C1046.1 1049.55 1047.46 1048.12 1048.49 1046.25C1049.55 1044.34 1050.09 1042.12 1050.09 1039.58C1050.09 1037.04 1049.55 1034.84 1048.49 1032.97C1047.46 1031.1 1046.1 1029.68 1044.41 1028.7C1042.72 1027.72 1040.9 1027.23 1038.94 1027.23ZM1084.04 1020.62C1087.56 1020.62 1090.74 1021.4 1093.59 1022.96C1096.43 1024.52 1098.68 1026.74 1100.33 1029.63C1101.97 1032.53 1102.8 1035.84 1102.8 1039.58C1102.8 1043.32 1101.95 1046.63 1100.26 1049.52C1098.57 1052.42 1096.25 1054.66 1093.32 1056.26C1090.43 1057.82 1087.22 1058.6 1083.71 1058.6C1080.24 1058.6 1077.1 1057.82 1074.3 1056.26C1071.49 1054.66 1069.29 1052.44 1067.69 1049.59C1066.09 1046.7 1065.29 1043.36 1065.29 1039.58C1065.29 1035.84 1066.11 1032.53 1067.76 1029.63C1069.4 1026.74 1071.65 1024.52 1074.5 1022.96C1077.34 1021.4 1080.53 1020.62 1084.04 1020.62ZM1083.91 1027.03C1081.95 1027.03 1080.15 1027.52 1078.5 1028.5C1076.86 1029.43 1075.52 1030.86 1074.5 1032.77C1073.52 1034.64 1073.03 1036.91 1073.03 1039.58C1073.03 1042.25 1073.5 1044.54 1074.43 1046.45C1075.41 1048.37 1076.7 1049.81 1078.3 1050.79C1079.95 1051.73 1081.75 1052.19 1083.71 1052.19C1085.67 1052.19 1087.49 1051.7 1089.18 1050.73C1090.92 1049.75 1092.32 1048.32 1093.39 1046.45C1094.45 1044.54 1094.99 1042.25 1094.99 1039.58C1094.99 1036.91 1094.48 1034.64 1093.45 1032.77C1092.43 1030.86 1091.07 1029.43 1089.38 1028.5C1087.69 1027.52 1085.87 1027.03 1083.91 1027.03ZM1164.03 1038.58C1164.03 1039.87 1163.94 1041.07 1163.76 1042.18H1135.6C1135.78 1045.25 1136.8 1047.7 1138.67 1049.52C1140.58 1051.3 1142.96 1052.19 1145.81 1052.19C1149.95 1052.19 1152.86 1050.48 1154.55 1047.05H1162.76C1161.65 1050.44 1159.63 1053.22 1156.69 1055.4C1153.75 1057.53 1150.13 1058.6 1145.81 1058.6C1142.3 1058.6 1139.18 1057.82 1136.47 1056.26C1133.75 1054.66 1131.62 1052.44 1130.06 1049.59C1128.55 1046.7 1127.79 1043.36 1127.79 1039.58C1127.79 1035.8 1128.55 1032.48 1130.06 1029.63C1131.62 1026.74 1133.78 1024.52 1136.53 1022.96C1139.34 1021.4 1142.54 1020.62 1146.14 1020.62C1149.62 1020.62 1152.71 1021.38 1155.42 1022.89C1158.14 1024.41 1160.25 1026.52 1161.76 1029.23C1163.28 1031.95 1164.03 1035.06 1164.03 1038.58ZM1156.09 1036.98C1156.04 1033.95 1155.04 1031.55 1153.09 1029.77C1151.13 1027.94 1148.7 1027.03 1145.81 1027.03C1143.1 1027.03 1140.78 1027.94 1138.87 1029.77C1137 1031.55 1135.93 1033.95 1135.67 1036.98H1156.09ZM1170.52 1011.48C1170.52 1010.1 1170.99 1008.94 1171.92 1008.01C1172.85 1007.08 1174.01 1006.61 1175.39 1006.61C1176.73 1006.61 1177.86 1007.08 1178.79 1008.01C1179.73 1008.94 1180.2 1010.1 1180.2 1011.48C1180.2 1012.86 1179.73 1014.02 1178.79 1014.95C1177.86 1015.89 1176.73 1016.35 1175.39 1016.35C1174.01 1016.35 1172.85 1015.89 1171.92 1014.95C1170.99 1014.02 1170.52 1012.86 1170.52 1011.48ZM1179.13 1021.23V1058H1171.52V1021.23H1179.13ZM1222.42 1021.23V1058H1214.81V1052.19C1213.61 1054.28 1211.99 1055.86 1209.94 1056.93C1207.94 1058 1205.65 1058.53 1203.07 1058.53C1200.4 1058.53 1197.97 1057.93 1195.79 1056.73C1193.66 1055.53 1191.94 1053.77 1190.65 1051.46C1189.41 1049.1 1188.78 1046.25 1188.78 1042.92V1021.23H1196.33V1041.78C1196.33 1045.07 1197.15 1047.61 1198.79 1049.39C1200.44 1051.13 1202.69 1051.99 1205.54 1051.99C1208.38 1051.99 1210.63 1051.13 1212.28 1049.39C1213.97 1047.61 1214.81 1045.07 1214.81 1041.78V1021.23H1222.42ZM1245.34 1020.62C1249.44 1020.62 1252.73 1021.69 1255.22 1023.83C1257.76 1025.92 1259.11 1028.79 1259.29 1032.44H1251.48C1251.35 1030.61 1250.7 1029.19 1249.55 1028.17C1248.43 1027.14 1246.85 1026.63 1244.81 1026.63C1242.76 1026.63 1241.16 1027.1 1240 1028.03C1238.85 1028.92 1238.27 1030.08 1238.27 1031.5C1238.27 1032.66 1238.65 1033.59 1239.4 1034.31C1240.16 1035.02 1241.11 1035.57 1242.27 1035.98C1243.47 1036.33 1245.07 1036.73 1247.08 1037.18C1249.79 1037.8 1251.97 1038.42 1253.62 1039.05C1255.31 1039.67 1256.75 1040.69 1257.96 1042.12C1259.16 1043.49 1259.76 1045.39 1259.76 1047.79C1259.76 1049.88 1259.14 1051.75 1257.89 1053.39C1256.69 1055.04 1255 1056.33 1252.82 1057.27C1250.64 1058.16 1248.17 1058.6 1245.41 1058.6C1241.14 1058.6 1237.69 1057.58 1235.06 1055.53C1232.44 1053.48 1230.99 1050.57 1230.73 1046.79H1238.6C1238.73 1048.61 1239.4 1050.04 1240.6 1051.06C1241.8 1052.08 1243.41 1052.59 1245.41 1052.59C1247.54 1052.59 1249.21 1052.15 1250.41 1051.26C1251.66 1050.32 1252.28 1049.12 1252.28 1047.65C1252.28 1046.45 1251.88 1045.5 1251.08 1044.79C1250.33 1044.07 1249.35 1043.54 1248.14 1043.18C1246.94 1042.78 1245.32 1042.36 1243.27 1041.92C1240.6 1041.29 1238.45 1040.69 1236.8 1040.11C1235.15 1039.49 1233.73 1038.51 1232.53 1037.18C1231.37 1035.84 1230.79 1034.04 1230.79 1031.77C1230.79 1029.72 1231.37 1027.85 1232.53 1026.16C1233.68 1024.47 1235.35 1023.14 1237.53 1022.16C1239.76 1021.14 1242.36 1020.62 1245.34 1020.62ZM1313.3 1020.62C1316.06 1020.62 1318.53 1021.23 1320.71 1022.43C1322.89 1023.63 1324.6 1025.41 1325.84 1027.77C1327.14 1030.12 1327.78 1032.97 1327.78 1036.31V1058H1320.17V1037.44C1320.17 1034.15 1319.35 1031.64 1317.7 1029.9C1316.06 1028.12 1313.81 1027.23 1310.96 1027.23C1308.11 1027.23 1305.87 1028.12 1304.22 1029.9C1302.57 1031.64 1301.75 1034.15 1301.75 1037.44V1058H1294.21V1037.44C1294.21 1034.15 1293.39 1031.64 1291.74 1029.9C1290.09 1028.12 1287.85 1027.23 1285 1027.23C1282.15 1027.23 1279.88 1028.12 1278.19 1029.9C1276.54 1031.64 1275.72 1034.15 1275.72 1037.44V1058H1268.11V1021.23H1275.72V1027.03C1276.92 1024.94 1278.52 1023.36 1280.53 1022.29C1282.57 1021.18 1284.89 1020.62 1287.47 1020.62C1290.32 1020.62 1292.85 1021.29 1295.08 1022.63C1297.3 1023.96 1298.99 1025.9 1300.15 1028.43C1301.44 1025.99 1303.22 1024.07 1305.49 1022.69C1307.8 1021.31 1310.41 1020.62 1313.3 1020.62ZM1353.75 1020.62C1357.26 1020.62 1360.44 1021.4 1363.29 1022.96C1366.14 1024.52 1368.39 1026.74 1370.03 1029.63C1371.68 1032.53 1372.5 1035.84 1372.5 1039.58C1372.5 1043.32 1371.66 1046.63 1369.97 1049.52C1368.27 1052.42 1365.96 1054.66 1363.02 1056.26C1360.13 1057.82 1356.93 1058.6 1353.41 1058.6C1349.94 1058.6 1346.81 1057.82 1344 1056.26C1341.2 1054.66 1339 1052.44 1337.4 1049.59C1335.79 1046.7 1334.99 1043.36 1334.99 1039.58C1334.99 1035.84 1335.82 1032.53 1337.46 1029.63C1339.11 1026.74 1341.36 1024.52 1344.2 1022.96C1347.05 1021.4 1350.23 1020.62 1353.75 1020.62ZM1353.61 1027.03C1351.66 1027.03 1349.85 1027.52 1348.21 1028.5C1346.56 1029.43 1345.23 1030.86 1344.2 1032.77C1343.22 1034.64 1342.73 1036.91 1342.73 1039.58C1342.73 1042.25 1343.2 1044.54 1344.14 1046.45C1345.12 1048.37 1346.41 1049.81 1348.01 1050.79C1349.65 1051.73 1351.46 1052.19 1353.41 1052.19C1355.37 1052.19 1357.2 1051.7 1358.89 1050.73C1360.62 1049.75 1362.02 1048.32 1363.09 1046.45C1364.16 1044.54 1364.69 1042.25 1364.69 1039.58C1364.69 1036.91 1364.18 1034.64 1363.16 1032.77C1362.13 1030.86 1360.78 1029.43 1359.09 1028.5C1357.4 1027.52 1355.57 1027.03 1353.61 1027.03ZM1394.84 1020.62C1397.73 1020.62 1400.27 1021.29 1402.45 1022.63C1404.67 1023.92 1406.39 1025.63 1407.59 1027.77V1008.61H1415.26V1058H1407.59V1051.13C1406.34 1053.39 1404.63 1055.22 1402.45 1056.6C1400.27 1057.93 1397.73 1058.6 1394.84 1058.6C1391.64 1058.6 1388.7 1057.8 1386.03 1056.2C1383.4 1054.55 1381.31 1052.28 1379.76 1049.39C1378.24 1046.45 1377.49 1043.14 1377.49 1039.45C1377.49 1035.75 1378.24 1032.48 1379.76 1029.63C1381.31 1026.79 1383.4 1024.58 1386.03 1023.03C1388.7 1021.43 1391.64 1020.62 1394.84 1020.62ZM1396.44 1027.23C1394.48 1027.23 1392.66 1027.72 1390.97 1028.7C1389.28 1029.63 1387.9 1031.04 1386.83 1032.9C1385.81 1034.73 1385.3 1036.91 1385.3 1039.45C1385.3 1041.98 1385.81 1044.21 1386.83 1046.12C1387.9 1048.03 1389.28 1049.5 1390.97 1050.52C1392.7 1051.5 1394.53 1051.99 1396.44 1051.99C1398.4 1051.99 1400.22 1051.5 1401.91 1050.52C1403.61 1049.55 1404.96 1048.12 1405.99 1046.25C1407.05 1044.34 1407.59 1042.12 1407.59 1039.58C1407.59 1037.04 1407.05 1034.84 1405.99 1032.97C1404.96 1031.1 1403.61 1029.68 1401.91 1028.7C1400.22 1027.72 1398.4 1027.23 1396.44 1027.23ZM1454.14 1027.43V1047.79C1454.14 1049.17 1454.45 1050.17 1455.08 1050.79C1455.74 1051.37 1456.86 1051.66 1458.41 1051.66H1463.09V1058H1457.08C1453.65 1058 1451.03 1057.2 1449.2 1055.6C1447.38 1054 1446.47 1051.39 1446.47 1047.79V1027.43H1442.13V1021.23H1446.47V1012.08H1454.14V1021.23H1463.09V1027.43H1454.14ZM1503.8 1038.58C1503.8 1039.87 1503.71 1041.07 1503.54 1042.18H1475.37C1475.55 1045.25 1476.57 1047.7 1478.44 1049.52C1480.36 1051.3 1482.74 1052.19 1485.58 1052.19C1489.72 1052.19 1492.64 1050.48 1494.33 1047.05H1502.54C1501.42 1050.44 1499.4 1053.22 1496.46 1055.4C1493.53 1057.53 1489.9 1058.6 1485.58 1058.6C1482.07 1058.6 1478.95 1057.82 1476.24 1056.26C1473.53 1054.66 1471.39 1052.44 1469.83 1049.59C1468.32 1046.7 1467.56 1043.36 1467.56 1039.58C1467.56 1035.8 1468.32 1032.48 1469.83 1029.63C1471.39 1026.74 1473.55 1024.52 1476.31 1022.96C1479.11 1021.4 1482.31 1020.62 1485.92 1020.62C1489.39 1020.62 1492.48 1021.38 1495.19 1022.89C1497.91 1024.41 1500.02 1026.52 1501.53 1029.23C1503.05 1031.95 1503.8 1035.06 1503.8 1038.58ZM1495.86 1036.98C1495.82 1033.95 1494.82 1031.55 1492.86 1029.77C1490.9 1027.94 1488.48 1027.03 1485.58 1027.03C1482.87 1027.03 1480.56 1027.94 1478.64 1029.77C1476.77 1031.55 1475.71 1033.95 1475.44 1036.98H1495.86ZM1556.48 1020.62C1559.23 1020.62 1561.7 1021.23 1563.88 1022.43C1566.06 1023.63 1567.78 1025.41 1569.02 1027.77C1570.31 1030.12 1570.96 1032.97 1570.96 1036.31V1058H1563.35V1037.44C1563.35 1034.15 1562.53 1031.64 1560.88 1029.9C1559.23 1028.12 1556.99 1027.23 1554.14 1027.23C1551.29 1027.23 1549.05 1028.12 1547.4 1029.9C1545.75 1031.64 1544.93 1034.15 1544.93 1037.44V1058H1537.39V1037.44C1537.39 1034.15 1536.56 1031.64 1534.92 1029.9C1533.27 1028.12 1531.02 1027.23 1528.18 1027.23C1525.33 1027.23 1523.06 1028.12 1521.37 1029.9C1519.72 1031.64 1518.9 1034.15 1518.9 1037.44V1058H1511.29V1021.23H1518.9V1027.03C1520.1 1024.94 1521.7 1023.36 1523.71 1022.29C1525.75 1021.18 1528.07 1020.62 1530.65 1020.62C1533.49 1020.62 1536.03 1021.29 1538.26 1022.63C1540.48 1023.96 1542.17 1025.9 1543.33 1028.43C1544.62 1025.99 1546.4 1024.07 1548.67 1022.69C1550.98 1021.31 1553.58 1020.62 1556.48 1020.62ZM1601.06 1020.62C1604.27 1020.62 1607.18 1021.43 1609.81 1023.03C1612.48 1024.58 1614.57 1026.79 1616.08 1029.63C1617.59 1032.48 1618.35 1035.75 1618.35 1039.45C1618.35 1043.14 1617.59 1046.45 1616.08 1049.39C1614.57 1052.28 1612.48 1054.55 1609.81 1056.2C1607.18 1057.8 1604.27 1058.6 1601.06 1058.6C1598.17 1058.6 1595.64 1057.93 1593.46 1056.6C1591.28 1055.22 1589.54 1053.39 1588.25 1051.13V1075.49H1580.64V1021.23H1588.25V1027.77C1589.5 1025.63 1591.21 1023.92 1593.39 1022.63C1595.61 1021.29 1598.17 1020.62 1601.06 1020.62ZM1599.4 1027.23C1597.48 1027.23 1595.66 1027.72 1593.92 1028.7C1592.23 1029.68 1590.85 1031.1 1589.78 1032.97C1588.76 1034.84 1588.25 1037.04 1588.25 1039.58C1588.25 1042.12 1588.76 1044.34 1589.78 1046.25C1590.85 1048.12 1592.23 1049.55 1593.92 1050.52C1595.66 1051.5 1597.48 1051.99 1599.4 1051.99C1601.35 1051.99 1603.18 1051.5 1604.87 1050.52C1606.6 1049.5 1607.98 1048.03 1609.01 1046.12C1610.07 1044.21 1610.61 1041.98 1610.61 1039.45C1610.61 1036.91 1610.07 1034.73 1609.01 1032.9C1607.98 1031.04 1606.6 1029.63 1604.87 1028.7C1603.18 1027.72 1601.35 1027.23 1599.4 1027.23ZM1642.16 1020.62C1645.67 1020.62 1648.86 1021.4 1651.7 1022.96C1654.55 1024.52 1656.8 1026.74 1658.44 1029.63C1660.09 1032.53 1660.91 1035.84 1660.91 1039.58C1660.91 1043.32 1660.07 1046.63 1658.38 1049.52C1656.69 1052.42 1654.37 1054.66 1651.44 1056.26C1648.54 1057.82 1645.34 1058.6 1641.83 1058.6C1638.36 1058.6 1635.22 1057.82 1632.42 1056.26C1629.61 1054.66 1627.41 1052.44 1625.81 1049.59C1624.21 1046.7 1623.4 1043.36 1623.4 1039.58C1623.4 1035.84 1624.23 1032.53 1625.87 1029.63C1627.52 1026.74 1629.77 1024.52 1632.62 1022.96C1635.46 1021.4 1638.64 1020.62 1642.16 1020.62ZM1642.03 1027.03C1640.07 1027.03 1638.27 1027.52 1636.62 1028.5C1634.97 1029.43 1633.64 1030.86 1632.62 1032.77C1631.64 1034.64 1631.15 1036.91 1631.15 1039.58C1631.15 1042.25 1631.61 1044.54 1632.55 1046.45C1633.53 1048.37 1634.82 1049.81 1636.42 1050.79C1638.07 1051.73 1639.87 1052.19 1641.83 1052.19C1643.78 1052.19 1645.61 1051.7 1647.3 1050.73C1649.03 1049.75 1650.44 1048.32 1651.5 1046.45C1652.57 1044.54 1653.11 1042.25 1653.11 1039.58C1653.11 1036.91 1652.59 1034.64 1651.57 1032.77C1650.55 1030.86 1649.19 1029.43 1647.5 1028.5C1645.81 1027.52 1643.98 1027.03 1642.03 1027.03ZM1676.04 1027.63C1677.16 1025.41 1678.62 1023.69 1680.45 1022.49C1682.32 1021.25 1684.52 1020.62 1687.06 1020.62V1028.5H1685.12C1682.14 1028.5 1679.87 1029.26 1678.31 1030.77C1676.8 1032.28 1676.04 1034.91 1676.04 1038.64V1058H1668.44V1021.23H1676.04V1027.63Z" fill="#8F8F8F"/>
</svg>
