<svg width="162" height="36" viewBox="0 0 162 36" fill="none" xmlns="http://www.w3.org/2000/svg">
<path d="M2.64911 8.82783L7.42188 21.8763L12.2384 8.82783H14.3621L8.51656 24H6.371L0.525443 8.82783H2.64911ZM16.1943 8.69647C16.1943 8.31699 16.3257 7.99588 16.5884 7.73316C16.8511 7.47044 17.1649 7.33908 17.5298 7.33908C17.9093 7.33908 18.2304 7.47044 18.4931 7.73316C18.7559 7.99588 18.8872 8.31699 18.8872 8.69647C18.8872 9.07596 18.7559 9.39706 18.4931 9.65978C18.2304 9.92251 17.9093 10.0539 17.5298 10.0539C17.1503 10.0539 16.8292 9.92251 16.5665 9.65978C16.3184 9.39706 16.1943 9.07596 16.1943 8.69647ZM18.515 11.9805V24H16.5227V11.9805H18.515ZM32.7066 17.4976C32.7066 17.9209 32.6774 18.315 32.619 18.6799H23.0516C23.11 19.8767 23.4822 20.8254 24.1682 21.526C24.8687 22.212 25.7591 22.555 26.8392 22.555C27.6565 22.555 28.3425 22.3726 28.8971 22.0077C29.4664 21.6428 29.8823 21.1611 30.1451 20.5627H32.2906C31.9111 21.6136 31.2543 22.4821 30.3202 23.168C29.4007 23.854 28.2403 24.197 26.8392 24.197C25.7153 24.197 24.7082 23.9416 23.8179 23.4308C22.9421 22.9199 22.2561 22.1974 21.7599 21.2633C21.2636 20.3146 21.0155 19.2272 21.0155 18.0012C21.0155 16.7606 21.2636 15.6732 21.7599 14.7391C22.2561 13.7904 22.9567 13.0606 23.8616 12.5497C24.7666 12.0389 25.8102 11.7835 26.9924 11.7835C28.1163 11.7835 29.1088 12.0316 29.9699 12.5278C30.8311 13.0241 31.5025 13.7028 31.9841 14.5639C32.4658 15.4251 32.7066 16.403 32.7066 17.4976ZM30.6267 17.2349C30.6267 16.4614 30.4589 15.79 30.1232 15.2207C29.7875 14.6369 29.3277 14.1917 28.7439 13.8852C28.1747 13.5787 27.5397 13.4255 26.8392 13.4255C25.8029 13.4255 24.9344 13.7685 24.2338 14.4545C23.5332 15.1259 23.1465 16.0527 23.0735 17.2349H30.6267ZM50.9729 11.9805L47.1854 24H45.1274L42.4126 14.4545L39.6978 24H37.6179L33.8085 11.9805H35.8664L38.6469 22.0077L41.4712 11.9805H43.5292L46.2002 22.0296L48.9587 11.9805H50.9729ZM69.3289 19.7527C69.3289 20.5116 69.1318 21.2268 68.7378 21.8982C68.3437 22.5696 67.7599 23.117 66.9863 23.5402C66.2127 23.9489 65.2859 24.1533 64.2058 24.1533C63.2425 24.1533 62.3741 24 61.6005 23.6935C60.8269 23.3724 60.2139 22.9199 59.7614 22.3361C59.3236 21.7377 59.1046 21.0298 59.1046 20.2124H61.2283C61.2867 20.8984 61.5567 21.4531 62.0384 21.8763C62.5346 22.2996 63.2571 22.5112 64.2058 22.5112C65.1837 22.5112 65.9573 22.2631 66.5265 21.7669C67.0958 21.2706 67.3804 20.6357 67.3804 19.8621C67.3804 19.2783 67.2198 18.8185 66.8987 18.4828C66.5776 18.1326 66.1762 17.8698 65.6946 17.6947C65.2129 17.5195 64.5707 17.3444 63.7679 17.1692C62.7608 16.9357 61.9435 16.6949 61.3159 16.4468C60.7029 16.1986 60.1774 15.7973 59.7395 15.2426C59.3163 14.688 59.1046 13.9217 59.1046 12.9438C59.1046 12.0973 59.309 11.3529 59.7177 10.7107C60.1263 10.0685 60.7102 9.57221 61.4691 9.22192C62.2427 8.85702 63.1403 8.67458 64.162 8.67458C65.5486 8.67458 66.6725 9.01758 67.5336 9.70357C68.4094 10.375 68.9129 11.3091 69.0443 12.5059H66.833C66.7746 11.9075 66.49 11.3967 65.9792 10.9734C65.4829 10.5501 64.8115 10.3385 63.965 10.3385C63.1038 10.3385 62.4033 10.5574 61.8632 10.9953C61.3232 11.4186 61.0532 12.0462 61.0532 12.8781C61.0532 13.4765 61.2137 13.9509 61.5348 14.3012C61.8559 14.6515 62.25 14.9142 62.7171 15.0894C63.1987 15.2645 63.8628 15.447 64.7094 15.6367C65.7019 15.8702 66.5046 16.1111 67.1176 16.3592C67.7307 16.5927 68.2488 16.9795 68.6721 17.5195C69.1099 18.0596 69.3289 18.804 69.3289 19.7527ZM77.2305 11.7835C78.2522 11.7835 79.1426 12.0243 79.9015 12.5059C80.6751 12.9876 81.2589 13.6152 81.653 14.3888V11.9805H83.6672V24H81.653V21.5479C81.2589 22.3361 80.6751 22.9783 79.9015 23.4746C79.1426 23.9562 78.2522 24.197 77.2305 24.197C76.1505 24.197 75.1726 23.9343 74.2968 23.4089C73.4357 22.8688 72.7497 22.1245 72.2388 21.1757C71.7426 20.2124 71.4945 19.1251 71.4945 17.9136C71.4945 16.7022 71.7426 15.6367 72.2388 14.7172C72.7497 13.7831 73.4357 13.0606 74.2968 12.5497C75.1726 12.0389 76.1505 11.7835 77.2305 11.7835ZM77.5808 13.513C76.8656 13.513 76.1943 13.6882 75.5666 14.0385C74.9536 14.3888 74.4574 14.8996 74.0779 15.571C73.713 16.2278 73.5305 17.0087 73.5305 17.9136C73.5305 18.8185 73.713 19.6213 74.0779 20.3219C74.4574 21.0079 74.9536 21.5406 75.5666 21.9201C76.1943 22.2996 76.8656 22.4894 77.5808 22.4894C78.3106 22.4894 78.982 22.3069 79.595 21.942C80.2226 21.5771 80.7189 21.059 81.0838 20.3876C81.4633 19.7016 81.653 18.9061 81.653 18.0012C81.653 17.0963 81.4633 16.3081 81.0838 15.6367C80.7189 14.9507 80.2226 14.4253 79.595 14.0604C78.982 13.6955 78.3106 13.513 77.5808 13.513ZM101.399 11.7835C102.275 11.7835 103.07 11.9805 103.786 12.3746C104.501 12.7541 105.063 13.3306 105.471 14.1042C105.895 14.8631 106.106 15.79 106.106 16.8846V24H104.136V17.213C104.136 16.0016 103.837 15.0821 103.238 14.4545C102.654 13.8268 101.852 13.513 100.83 13.513C99.8083 13.513 98.9982 13.8268 98.3998 14.4545C97.816 15.0821 97.5241 16.0016 97.5241 17.213V24H95.5537V17.213C95.5537 16.0016 95.2617 15.0821 94.6779 14.4545C94.0941 13.8268 93.284 13.513 92.2477 13.513C91.226 13.513 90.416 13.8268 89.8176 14.4545C89.2337 15.0821 88.9418 16.0016 88.9418 17.213V24H86.9495V11.9805H88.9418V13.929C89.3359 13.2284 89.876 12.6957 90.5619 12.3308C91.2479 11.9659 92.0142 11.7835 92.8608 11.7835C93.7803 11.7835 94.6122 12.0097 95.3566 12.4621C96.101 12.9 96.6629 13.5422 97.0424 14.3888C97.4803 13.5714 98.0714 12.9365 98.8158 12.484C99.5748 12.017 100.436 11.7835 101.399 11.7835ZM115.707 11.7835C116.787 11.7835 117.758 12.0389 118.619 12.5497C119.495 13.0606 120.181 13.7831 120.677 14.7172C121.188 15.6367 121.443 16.7022 121.443 17.9136C121.443 19.1251 121.188 20.2124 120.677 21.1757C120.181 22.1245 119.495 22.8688 118.619 23.4089C117.758 23.9343 116.787 24.197 115.707 24.197C114.686 24.197 113.788 23.9562 113.014 23.4746C112.255 22.9783 111.672 22.3361 111.263 21.5479V29.6923H109.271V11.9805H111.263V14.3888C111.672 13.6152 112.255 12.9876 113.014 12.5059C113.788 12.0243 114.686 11.7835 115.707 11.7835ZM115.313 13.513C114.598 13.513 113.927 13.6955 113.299 14.0604C112.686 14.4253 112.19 14.9507 111.81 15.6367C111.445 16.3081 111.263 17.0963 111.263 18.0012C111.263 18.9061 111.445 19.7016 111.81 20.3876C112.19 21.059 112.686 21.5771 113.299 21.942C113.927 22.3069 114.598 22.4894 115.313 22.4894C116.028 22.4894 116.7 22.3069 117.327 21.942C117.955 21.5625 118.451 21.0225 118.816 20.3219C119.196 19.6213 119.385 18.8185 119.385 17.9136C119.385 17.0087 119.196 16.2278 118.816 15.571C118.451 14.8996 117.955 14.3888 117.327 14.0385C116.714 13.6882 116.043 13.513 115.313 13.513ZM125.93 7.79884V24H123.937V7.79884H125.93ZM140.121 17.4976C140.121 17.9209 140.092 18.315 140.034 18.6799H130.466C130.525 19.8767 130.897 20.8254 131.583 21.526C132.284 22.212 133.174 22.555 134.254 22.555C135.071 22.555 135.757 22.3726 136.312 22.0077C136.881 21.6428 137.297 21.1611 137.56 20.5627H139.705C139.326 21.6136 138.669 22.4821 137.735 23.168C136.815 23.854 135.655 24.197 134.254 24.197C133.13 24.197 132.123 23.9416 131.233 23.4308C130.357 22.9199 129.671 22.1974 129.175 21.2633C128.678 20.3146 128.43 19.2272 128.43 18.0012C128.43 16.7606 128.678 15.6732 129.175 14.7391C129.671 13.7904 130.371 13.0606 131.276 12.5497C132.181 12.0389 133.225 11.7835 134.407 11.7835C135.531 11.7835 136.524 12.0316 137.385 12.5278C138.246 13.0241 138.917 13.7028 139.399 14.5639C139.881 15.4251 140.121 16.403 140.121 17.4976ZM138.041 17.2349C138.041 16.4614 137.874 15.79 137.538 15.2207C137.202 14.6369 136.742 14.1917 136.159 13.8852C135.589 13.5787 134.955 13.4255 134.254 13.4255C133.218 13.4255 132.349 13.7685 131.649 14.4545C130.948 15.1259 130.561 16.0527 130.488 17.2349H138.041ZM146.74 11.7835C148.039 11.7835 149.068 12.1264 149.827 12.8124C150.586 13.4838 151.002 14.4107 151.075 15.5929H149.017C148.988 14.9215 148.762 14.3815 148.339 13.9728C147.915 13.5641 147.332 13.3598 146.587 13.3598C145.828 13.3598 145.23 13.5422 144.792 13.9071C144.369 14.2574 144.157 14.7026 144.157 15.2426C144.157 15.6951 144.288 16.06 144.551 16.3373C144.828 16.6 145.164 16.7971 145.558 16.9284C145.967 17.0598 146.514 17.1984 147.2 17.3444C148.076 17.5487 148.776 17.7531 149.302 17.9574C149.842 18.1471 150.302 18.4756 150.681 18.9426C151.061 19.3951 151.25 20.0154 151.25 20.8036C151.25 21.4604 151.061 22.0515 150.681 22.5769C150.302 23.0878 149.769 23.4892 149.083 23.7811C148.397 24.0584 147.609 24.197 146.718 24.197C145.376 24.197 144.296 23.8613 143.478 23.1899C142.675 22.5185 142.238 21.5917 142.165 20.4095H144.223C144.252 21.0809 144.485 21.6209 144.923 22.0296C145.376 22.4237 145.974 22.6207 146.718 22.6207C147.536 22.6207 148.163 22.4529 148.601 22.1172C149.054 21.7815 149.28 21.3363 149.28 20.7817C149.28 20.3292 149.141 19.9716 148.864 19.7089C148.601 19.4316 148.266 19.2272 147.857 19.0959C147.448 18.9499 146.886 18.7967 146.171 18.6361C145.31 18.4464 144.609 18.2566 144.069 18.0669C143.544 17.8625 143.091 17.5487 142.712 17.1255C142.347 16.7022 142.165 16.1184 142.165 15.374C142.165 14.7172 142.347 14.1188 142.712 13.5787C143.091 13.0241 143.624 12.5862 144.31 12.2651C145.011 11.944 145.821 11.7835 146.74 11.7835Z" fill="black"/>
<path d="M160.998 30.6552C161.265 30.388 161.265 29.9548 160.998 29.6876L156.644 25.3336C156.377 25.0664 155.944 25.0664 155.677 25.3336C155.409 25.6008 155.409 26.0339 155.677 26.3011L159.547 30.1714L155.677 34.0416C155.409 34.3088 155.409 34.742 155.677 35.0092C155.944 35.2764 156.377 35.2764 156.644 35.0092L160.998 30.6552ZM0.885254 30.8556H160.514V29.4872H0.885254V30.8556Z" fill="black"/>
</svg>
