<svg width="301" height="43" viewBox="0 0 301 43" fill="none" xmlns="http://www.w3.org/2000/svg">
<path d="M11.726 19.864C11.726 20.6267 11.5427 21.338 11.176 21.998C10.8093 22.6433 10.252 23.164 9.504 23.56C8.756 23.956 7.83933 24.154 6.754 24.154C5.698 24.154 4.752 23.9707 3.916 23.604C3.08 23.2227 2.41267 22.6947 1.914 22.02C1.41533 21.3453 1.12933 20.568 1.056 19.688H3.74C3.81333 20.3627 4.09933 20.942 4.598 21.426C5.11133 21.91 5.79333 22.152 6.644 22.152C7.40667 22.152 7.99333 21.9467 8.404 21.536C8.82933 21.1253 9.042 20.5973 9.042 19.952C9.042 19.3947 8.888 18.94 8.58 18.588C8.272 18.2213 7.89067 17.9353 7.436 17.73C6.98133 17.5247 6.358 17.29 5.566 17.026C4.598 16.718 3.806 16.41 3.19 16.102C2.58867 15.794 2.07533 15.3467 1.65 14.76C1.22467 14.1733 1.012 13.4033 1.012 12.45C1.012 11.614 1.21733 10.8807 1.628 10.25C2.03867 9.61933 2.62533 9.13533 3.388 8.798C4.15067 8.446 5.03067 8.27 6.028 8.27C7.612 8.27 8.866 8.65133 9.79 9.414C10.7287 10.1767 11.264 11.174 11.396 12.406H8.69C8.58733 11.8193 8.30867 11.3207 7.854 10.91C7.414 10.4847 6.80533 10.272 6.028 10.272C5.324 10.272 4.75933 10.4553 4.334 10.822C3.90867 11.174 3.696 11.6873 3.696 12.362C3.696 12.89 3.84267 13.33 4.136 13.682C4.42933 14.0193 4.796 14.2907 5.236 14.496C5.69067 14.6867 6.30667 14.914 7.084 15.178C8.06667 15.486 8.866 15.8013 9.482 16.124C10.1127 16.432 10.6407 16.8867 11.066 17.488C11.506 18.0893 11.726 18.8813 11.726 19.864ZM25.4128 11.878V24H22.8828V21.36C22.5748 22.2547 22.0394 22.9513 21.2768 23.45C20.5141 23.934 19.6268 24.176 18.6148 24.176C17.2068 24.176 16.0774 23.7213 15.2268 22.812C14.3761 21.9027 13.9508 20.6047 13.9508 18.918V11.878H16.4588V18.654C16.4588 19.754 16.7374 20.6047 17.2948 21.206C17.8521 21.7927 18.6148 22.086 19.5828 22.086C20.5801 22.086 21.3794 21.7633 21.9808 21.118C22.5821 20.4727 22.8828 19.534 22.8828 18.302V11.878H25.4128ZM35.3684 11.724C36.4244 11.724 37.3631 11.9733 38.1844 12.472C39.0204 12.9707 39.6731 13.6893 40.1424 14.628C40.6118 15.5667 40.8464 16.6667 40.8464 17.928C40.8464 19.204 40.6118 20.3113 40.1424 21.25C39.6731 22.1887 39.0204 22.9073 38.1844 23.406C37.3631 23.9047 36.4244 24.154 35.3684 24.154C34.2684 24.154 33.3298 23.8827 32.5524 23.34C31.7751 22.7973 31.2324 22.0787 30.9244 21.184V24H28.4164V7.72H30.9244V14.694C31.2324 13.7993 31.7751 13.0807 32.5524 12.538C33.3298 11.9953 34.2684 11.724 35.3684 11.724ZM34.5984 13.924C33.8944 13.924 33.2638 14.0927 32.7064 14.43C32.1491 14.7527 31.7091 15.222 31.3864 15.838C31.0638 16.4393 30.9024 17.136 30.9024 17.928C30.9024 18.7347 31.0638 19.4387 31.3864 20.04C31.7091 20.6413 32.1491 21.1107 32.7064 21.448C33.2638 21.7707 33.8944 21.932 34.5984 21.932C35.7131 21.932 36.6078 21.58 37.2824 20.876C37.9571 20.1573 38.2944 19.1747 38.2944 17.928C38.2944 16.696 37.9571 15.7207 37.2824 15.002C36.6078 14.2833 35.7131 13.924 34.5984 13.924ZM47.2441 11.724C48.6668 11.724 49.8035 12.0907 50.6541 12.824C51.5195 13.5427 52.0475 14.5107 52.2381 15.728H49.8621C49.7595 15.068 49.4735 14.54 49.0041 14.144C48.5495 13.7333 47.9408 13.528 47.1781 13.528C46.5475 13.528 46.0561 13.682 45.7041 13.99C45.3668 14.2833 45.1981 14.6867 45.1981 15.2C45.1981 15.5813 45.3228 15.8893 45.5721 16.124C45.8215 16.3587 46.1295 16.542 46.4961 16.674C46.8775 16.806 47.4128 16.9527 48.1021 17.114C49.0115 17.3193 49.7448 17.532 50.3021 17.752C50.8741 17.972 51.3581 18.324 51.7541 18.808C52.1648 19.2773 52.3701 19.9227 52.3701 20.744C52.3701 21.756 51.9815 22.5773 51.2041 23.208C50.4415 23.8387 49.4075 24.154 48.1021 24.154C46.5915 24.154 45.3668 23.802 44.4281 23.098C43.5041 22.394 42.9468 21.4113 42.7561 20.15H45.1981C45.2715 20.81 45.5648 21.3453 46.0781 21.756C46.5915 22.1667 47.2661 22.372 48.1021 22.372C48.7035 22.372 49.1728 22.218 49.5101 21.91C49.8621 21.5873 50.0381 21.184 50.0381 20.7C50.0381 20.2747 49.9061 19.9373 49.6421 19.688C49.3781 19.4387 49.0481 19.248 48.6521 19.116C48.2561 18.9693 47.7135 18.8227 47.0241 18.676C46.1441 18.4707 45.4255 18.2653 44.8681 18.06C44.3255 17.8547 43.8561 17.5247 43.4601 17.07C43.0788 16.6007 42.8881 15.97 42.8881 15.178C42.8881 14.1513 43.2695 13.3227 44.0321 12.692C44.8095 12.0467 45.8801 11.724 47.2441 11.724ZM60.2752 11.724C61.8445 11.724 63.1425 12.142 64.1692 12.978C65.1959 13.7993 65.8339 14.9213 66.0832 16.344H63.4212C63.2745 15.5813 62.9152 14.9873 62.3432 14.562C61.7859 14.122 61.0819 13.902 60.2312 13.902C59.2632 13.902 58.4565 14.2467 57.8112 14.936C57.1659 15.6107 56.8432 16.608 56.8432 17.928C56.8432 19.248 57.1659 20.2527 57.8112 20.942C58.4565 21.6313 59.2632 21.976 60.2312 21.976C61.0819 21.976 61.7859 21.756 62.3432 21.316C62.9152 20.876 63.2745 20.2747 63.4212 19.512H66.0832C65.8339 20.9347 65.1959 22.064 64.1692 22.9C63.1425 23.736 61.8445 24.154 60.2752 24.154C59.1019 24.154 58.0605 23.9047 57.1512 23.406C56.2565 22.9073 55.5525 22.1887 55.0392 21.25C54.5259 20.3113 54.2692 19.204 54.2692 17.928C54.2692 16.6667 54.5259 15.5667 55.0392 14.628C55.5525 13.6893 56.2565 12.9707 57.1512 12.472C58.0605 11.9733 59.1019 11.724 60.2752 11.724ZM71.0143 14.254C71.4249 13.462 72.0116 12.8387 72.7743 12.384C73.5369 11.9147 74.4169 11.68 75.4143 11.68V14.408H74.6663C73.5663 14.408 72.6789 14.6793 72.0043 15.222C71.3443 15.75 71.0143 16.63 71.0143 17.862V24H68.5063V11.878H71.0143V14.254ZM76.9414 8.358C76.9414 7.93267 77.0881 7.58067 77.3814 7.302C77.6747 7.02333 78.0634 6.884 78.5474 6.884C79.0314 6.884 79.4201 7.02333 79.7134 7.302C80.0214 7.58067 80.1754 7.93267 80.1754 8.358C80.1754 8.78333 80.0214 9.128 79.7134 9.392C79.4201 9.656 79.0314 9.788 78.5474 9.788C78.0634 9.788 77.6747 9.656 77.3814 9.392C77.0881 9.128 76.9414 8.78333 76.9414 8.358ZM79.8014 11.878V24H77.2934V11.878H79.8014ZM89.7884 11.724C90.8444 11.724 91.783 11.9733 92.6044 12.472C93.4404 12.9707 94.093 13.6893 94.5624 14.628C95.0317 15.5667 95.2664 16.6667 95.2664 17.928C95.2664 19.204 95.0317 20.3113 94.5624 21.25C94.093 22.1887 93.4404 22.9073 92.6044 23.406C91.783 23.9047 90.8444 24.154 89.7884 24.154C88.6884 24.154 87.7497 23.8827 86.9724 23.34C86.195 22.7973 85.6524 22.0787 85.3444 21.184V24H82.8364V7.72H85.3444V14.694C85.6524 13.7993 86.195 13.0807 86.9724 12.538C87.7497 11.9953 88.6884 11.724 89.7884 11.724ZM89.0184 13.924C88.3144 13.924 87.6837 14.0927 87.1264 14.43C86.569 14.7527 86.129 15.222 85.8064 15.838C85.4837 16.4393 85.3224 17.136 85.3224 17.928C85.3224 18.7347 85.4837 19.4387 85.8064 20.04C86.129 20.6413 86.569 21.1107 87.1264 21.448C87.6837 21.7707 88.3144 21.932 89.0184 21.932C90.133 21.932 91.0277 21.58 91.7024 20.876C92.377 20.1573 92.7144 19.1747 92.7144 17.928C92.7144 16.696 92.377 15.7207 91.7024 15.002C91.0277 14.2833 90.133 13.924 89.0184 13.924ZM108.946 17.356C108.946 17.7667 108.917 18.126 108.858 18.434H99.5301C99.5741 19.6807 99.9187 20.6047 100.564 21.206C101.209 21.8073 102.009 22.108 102.962 22.108C103.798 22.108 104.502 21.8953 105.074 21.47C105.661 21.0447 106.02 20.48 106.152 19.776H108.836C108.675 20.6267 108.337 21.382 107.824 22.042C107.311 22.702 106.643 23.2227 105.822 23.604C105.001 23.9707 104.084 24.154 103.072 24.154C101.899 24.154 100.857 23.9047 99.9481 23.406C99.0534 22.9073 98.3494 22.1887 97.8361 21.25C97.3227 20.3113 97.0661 19.204 97.0661 17.928C97.0661 16.6667 97.3227 15.5667 97.8361 14.628C98.3494 13.6893 99.0534 12.9707 99.9481 12.472C100.857 11.9733 101.899 11.724 103.072 11.724C104.26 11.724 105.294 11.9733 106.174 12.472C107.069 12.956 107.751 13.6307 108.22 14.496C108.704 15.3467 108.946 16.3 108.946 17.356ZM106.416 17.29C106.445 16.498 106.306 15.838 105.998 15.31C105.705 14.7673 105.294 14.3713 104.766 14.122C104.253 13.858 103.688 13.726 103.072 13.726C102.089 13.726 101.268 14.0267 100.608 14.628C99.9481 15.2293 99.5887 16.1167 99.5301 17.29H106.416ZM122.618 21.822V24H121.078C119.787 24 118.805 23.692 118.13 23.076C117.47 22.4453 117.14 21.404 117.14 19.952V14.012H115.402V11.878H117.14V8.864H119.67V11.878H122.596V14.012H119.67V19.996C119.67 20.6853 119.795 21.162 120.044 21.426C120.308 21.69 120.763 21.822 121.408 21.822H122.618ZM130.511 11.724C131.685 11.724 132.741 11.9733 133.679 12.472C134.618 12.9707 135.351 13.6893 135.879 14.628C136.407 15.5667 136.671 16.6667 136.671 17.928C136.671 19.204 136.407 20.3113 135.879 21.25C135.351 22.1887 134.618 22.9073 133.679 23.406C132.741 23.9047 131.685 24.154 130.511 24.154C129.338 24.154 128.282 23.9047 127.343 23.406C126.419 22.9073 125.686 22.1887 125.143 21.25C124.615 20.2967 124.351 19.1893 124.351 17.928C124.351 16.6667 124.615 15.5667 125.143 14.628C125.686 13.6893 126.419 12.9707 127.343 12.472C128.282 11.9733 129.338 11.724 130.511 11.724ZM130.511 13.902C129.866 13.902 129.272 14.0487 128.729 14.342C128.187 14.6353 127.747 15.09 127.409 15.706C127.087 16.3073 126.925 17.048 126.925 17.928C126.925 18.8227 127.087 19.5707 127.409 20.172C127.747 20.7733 128.187 21.2207 128.729 21.514C129.272 21.8073 129.866 21.954 130.511 21.954C131.157 21.954 131.751 21.8073 132.293 21.514C132.836 21.2207 133.269 20.7733 133.591 20.172C133.929 19.5707 134.097 18.8227 134.097 17.928C134.097 17.048 133.929 16.3073 133.591 15.706C133.269 15.09 132.836 14.6353 132.293 14.342C131.751 14.0487 131.157 13.902 130.511 13.902ZM149.783 11.724C150.956 11.724 152.012 11.9733 152.951 12.472C153.889 12.9707 154.623 13.6893 155.151 14.628C155.679 15.5667 155.943 16.6667 155.943 17.928C155.943 19.204 155.679 20.3113 155.151 21.25C154.623 22.1887 153.889 22.9073 152.951 23.406C152.012 23.9047 150.956 24.154 149.783 24.154C148.609 24.154 147.553 23.9047 146.615 23.406C145.691 22.9073 144.957 22.1887 144.415 21.25C143.887 20.2967 143.623 19.1893 143.623 17.928C143.623 16.6667 143.887 15.5667 144.415 14.628C144.957 13.6893 145.691 12.9707 146.615 12.472C147.553 11.9733 148.609 11.724 149.783 11.724ZM149.783 13.902C149.137 13.902 148.543 14.0487 148.001 14.342C147.458 14.6353 147.018 15.09 146.681 15.706C146.358 16.3073 146.197 17.048 146.197 17.928C146.197 18.8227 146.358 19.5707 146.681 20.172C147.018 20.7733 147.458 21.2207 148.001 21.514C148.543 21.8073 149.137 21.954 149.783 21.954C150.428 21.954 151.022 21.8073 151.565 21.514C152.107 21.2207 152.54 20.7733 152.863 20.172C153.2 19.5707 153.369 18.8227 153.369 17.928C153.369 17.048 153.2 16.3073 152.863 15.706C152.54 15.09 152.107 14.6353 151.565 14.342C151.022 14.0487 150.428 13.902 149.783 13.902ZM169.53 11.878V24H167V21.36C166.692 22.2547 166.157 22.9513 165.394 23.45C164.631 23.934 163.744 24.176 162.732 24.176C161.324 24.176 160.195 23.7213 159.344 22.812C158.493 21.9027 158.068 20.6047 158.068 18.918V11.878H160.576V18.654C160.576 19.754 160.855 20.6047 161.412 21.206C161.969 21.7927 162.732 22.086 163.7 22.086C164.697 22.086 165.497 21.7633 166.098 21.118C166.699 20.4727 167 19.534 167 18.302V11.878H169.53ZM175.042 14.254C175.452 13.462 176.039 12.8387 176.802 12.384C177.564 11.9147 178.444 11.68 179.442 11.68V14.408H178.694C177.594 14.408 176.706 14.6793 176.032 15.222C175.372 15.75 175.042 16.63 175.042 17.862V24H172.534V11.878H175.042V14.254ZM197.741 17.356C197.741 17.7667 197.712 18.126 197.653 18.434H188.325C188.369 19.6807 188.714 20.6047 189.359 21.206C190.004 21.8073 190.804 22.108 191.757 22.108C192.593 22.108 193.297 21.8953 193.869 21.47C194.456 21.0447 194.815 20.48 194.947 19.776H197.631C197.47 20.6267 197.132 21.382 196.619 22.042C196.106 22.702 195.438 23.2227 194.617 23.604C193.796 23.9707 192.879 24.154 191.867 24.154C190.694 24.154 189.652 23.9047 188.743 23.406C187.848 22.9073 187.144 22.1887 186.631 21.25C186.118 20.3113 185.861 19.204 185.861 17.928C185.861 16.6667 186.118 15.5667 186.631 14.628C187.144 13.6893 187.848 12.9707 188.743 12.472C189.652 11.9733 190.694 11.724 191.867 11.724C193.055 11.724 194.089 11.9733 194.969 12.472C195.864 12.956 196.546 13.6307 197.015 14.496C197.499 15.3467 197.741 16.3 197.741 17.356ZM195.211 17.29C195.24 16.498 195.101 15.838 194.793 15.31C194.5 14.7673 194.089 14.3713 193.561 14.122C193.048 13.858 192.483 13.726 191.867 13.726C190.884 13.726 190.063 14.0267 189.403 14.628C188.743 15.2293 188.384 16.1167 188.325 17.29H195.211ZM215.321 11.68C216.758 11.68 217.902 12.1347 218.753 13.044C219.618 13.9533 220.051 15.2513 220.051 16.938V24H217.543V17.202C217.543 16.146 217.279 15.332 216.751 14.76C216.223 14.1733 215.497 13.88 214.573 13.88C213.59 13.88 212.805 14.1953 212.219 14.826C211.647 15.442 211.361 16.3513 211.361 17.554V24H208.853V17.202C208.853 16.146 208.589 15.332 208.061 14.76C207.533 14.1733 206.807 13.88 205.883 13.88C204.9 13.88 204.115 14.1953 203.529 14.826C202.957 15.442 202.671 16.3513 202.671 17.554V24H200.163V11.878H202.671V14.408C202.979 13.528 203.492 12.8533 204.211 12.384C204.929 11.9147 205.773 11.68 206.741 11.68C207.753 11.68 208.625 11.9293 209.359 12.428C210.107 12.9267 210.649 13.6453 210.987 14.584C211.339 13.6747 211.903 12.9633 212.681 12.45C213.458 11.9367 214.338 11.68 215.321 11.68ZM227.841 11.724C228.941 11.724 229.88 11.9953 230.657 12.538C231.434 13.0807 231.984 13.7993 232.307 14.694V11.878H234.815V24H232.307V21.184C231.984 22.0787 231.434 22.7973 230.657 23.34C229.88 23.8827 228.941 24.154 227.841 24.154C226.785 24.154 225.839 23.9047 225.003 23.406C224.182 22.9073 223.536 22.1887 223.067 21.25C222.598 20.3113 222.363 19.204 222.363 17.928C222.363 16.6667 222.598 15.5667 223.067 14.628C223.536 13.6893 224.182 12.9707 225.003 12.472C225.839 11.9733 226.785 11.724 227.841 11.724ZM228.611 13.924C227.496 13.924 226.602 14.2833 225.927 15.002C225.267 15.706 224.937 16.6813 224.937 17.928C224.937 19.1747 225.267 20.1573 225.927 20.876C226.602 21.58 227.496 21.932 228.611 21.932C229.315 21.932 229.946 21.7707 230.503 21.448C231.06 21.1107 231.5 20.6413 231.823 20.04C232.146 19.4387 232.307 18.7347 232.307 17.928C232.307 17.136 232.146 16.4393 231.823 15.838C231.5 15.222 231.06 14.7527 230.503 14.43C229.946 14.0927 229.315 13.924 228.611 13.924ZM237.473 8.358C237.473 7.93267 237.619 7.58067 237.913 7.302C238.206 7.02333 238.595 6.884 239.079 6.884C239.563 6.884 239.951 7.02333 240.245 7.302C240.553 7.58067 240.707 7.93267 240.707 8.358C240.707 8.78333 240.553 9.128 240.245 9.392C239.951 9.656 239.563 9.788 239.079 9.788C238.595 9.788 238.206 9.656 237.913 9.392C237.619 9.128 237.473 8.78333 237.473 8.358ZM240.333 11.878V24H237.825V11.878H240.333ZM245.876 7.72V24H243.368V7.72H245.876ZM256.575 7.72V24H254.067V7.72H256.575ZM259.258 8.358C259.258 7.93267 259.404 7.58067 259.698 7.302C259.991 7.02333 260.38 6.884 260.864 6.884C261.348 6.884 261.736 7.02333 262.03 7.302C262.338 7.58067 262.492 7.93267 262.492 8.358C262.492 8.78333 262.338 9.128 262.03 9.392C261.736 9.656 261.348 9.788 260.864 9.788C260.38 9.788 259.991 9.656 259.698 9.392C259.404 9.128 259.258 8.78333 259.258 8.358ZM262.118 11.878V24H259.61V11.878H262.118ZM269.135 11.724C270.557 11.724 271.694 12.0907 272.545 12.824C273.41 13.5427 273.938 14.5107 274.129 15.728H271.753C271.65 15.068 271.364 14.54 270.895 14.144C270.44 13.7333 269.831 13.528 269.069 13.528C268.438 13.528 267.947 13.682 267.595 13.99C267.257 14.2833 267.089 14.6867 267.089 15.2C267.089 15.5813 267.213 15.8893 267.463 16.124C267.712 16.3587 268.02 16.542 268.387 16.674C268.768 16.806 269.303 16.9527 269.993 17.114C270.902 17.3193 271.635 17.532 272.193 17.752C272.765 17.972 273.249 18.324 273.645 18.808C274.055 19.2773 274.261 19.9227 274.261 20.744C274.261 21.756 273.872 22.5773 273.095 23.208C272.332 23.8387 271.298 24.154 269.993 24.154C268.482 24.154 267.257 23.802 266.319 23.098C265.395 22.394 264.837 21.4113 264.647 20.15H267.089C267.162 20.81 267.455 21.3453 267.969 21.756C268.482 22.1667 269.157 22.372 269.993 22.372C270.594 22.372 271.063 22.218 271.401 21.91C271.753 21.5873 271.929 21.184 271.929 20.7C271.929 20.2747 271.797 19.9373 271.533 19.688C271.269 19.4387 270.939 19.248 270.543 19.116C270.147 18.9693 269.604 18.8227 268.915 18.676C268.035 18.4707 267.316 18.2653 266.759 18.06C266.216 17.8547 265.747 17.5247 265.351 17.07C264.969 16.6007 264.779 15.97 264.779 15.178C264.779 14.1513 265.16 13.3227 265.923 12.692C266.7 12.0467 267.771 11.724 269.135 11.724ZM282.87 21.822V24H281.33C280.039 24 279.056 23.692 278.382 23.076C277.722 22.4453 277.392 21.404 277.392 19.952V14.012H275.654V11.878H277.392V8.864H279.922V11.878H282.848V14.012H279.922V19.996C279.922 20.6853 280.046 21.162 280.296 21.426C280.56 21.69 281.014 21.822 281.66 21.822H282.87ZM287.199 21.228V24H284.361V21.228H287.199Z" fill="white"/>
<path d="M300.707 35.7071C301.098 35.3166 301.098 34.6834 300.707 34.2929L294.343 27.9289C293.953 27.5384 293.319 27.5384 292.929 27.9289C292.538 28.3195 292.538 28.9526 292.929 29.3431L298.586 35L292.929 40.6569C292.538 41.0474 292.538 41.6805 292.929 42.0711C293.319 42.4616 293.953 42.4616 294.343 42.0711L300.707 35.7071ZM0 36H300V34H0V36Z" fill="white"/>
</svg>
